# Blender 3.2.2
# www.blender.org
o BackSymbol
v -9.759800 -22.569788 22.063715
v -9.773911 -22.581665 22.371422
v -10.322690 -22.601259 22.053932
v -10.327391 -22.612072 22.358683
v -10.902830 -22.617336 22.043079
v -10.902830 -22.627066 22.344883
v -11.470421 -22.615988 22.030224
v -11.459440 -22.630142 22.330416
v -11.741671 -22.621164 22.328674
v -11.752649 -22.608755 22.019503
v -11.475120 -22.596058 21.682064
v -11.754219 -22.589901 21.674301
v -11.471991 -22.571182 21.334055
v -11.749510 -22.565014 21.326284
v -11.461010 -22.537851 20.985771
v -11.735400 -22.531826 20.982962
v -11.435929 -22.507895 20.706345
v -11.719721 -22.499723 20.697634
v -10.888710 -22.541201 20.999567
v -10.876170 -22.511246 20.720140
v -10.303870 -22.521246 21.013504
v -10.296030 -22.488884 20.736622
v -9.747250 -22.485493 21.029856
v -9.745690 -22.451790 20.758469
v -9.443070 -22.417089 20.759413
v -9.447781 -22.458832 21.034557
v -9.745690 -22.524033 21.369562
v -9.446210 -22.493895 21.373861
v -9.750390 -22.550388 21.717045
v -9.454050 -22.525213 21.721207
v -9.466590 -22.547543 22.066811
v -9.482270 -22.560501 22.377453
v -12.861180 -22.571423 23.085957
v -12.547600 -22.597782 23.451794
v -12.870589 -22.564571 23.452196
v -10.816589 -22.628334 23.462362
v -10.535931 -22.624624 23.126667
v -10.528090 -22.618158 23.471067
v -10.539060 -22.625324 22.771008
v -10.824430 -22.633322 23.118486
v -10.821290 -22.632544 22.763367
v -11.393590 -22.639187 23.460081
v -11.395160 -22.642424 23.106831
v -11.975300 -22.631151 23.456335
v -11.972160 -22.635193 23.096119
v -12.541321 -22.602633 23.084610
v -12.536620 -22.591274 22.704971
v -12.854910 -22.560995 22.704315
v -12.530350 -22.579372 22.323866
v -12.843941 -22.551500 22.320654
v -12.519370 -22.565998 21.943287
v -12.204220 -22.572878 21.668816
v -12.213620 -22.586491 21.949186
v -12.513100 -22.552921 21.664391
v -12.829820 -22.539072 21.938074
v -12.820420 -22.522375 21.653822
vn 0.0407 -0.9985 -0.0361
vn 0.0672 -0.9969 -0.0411
vn 0.0619 -0.9974 -0.0362
vn 0.0755 -0.9965 -0.0355
vn 0.0778 -0.9958 -0.0477
vn 0.0620 -0.9974 -0.0362
vn 0.0878 -0.9936 -0.0704
vn 0.0948 -0.9911 -0.0935
vn 0.0987 -0.9879 -0.1199
vn 0.0948 -0.9911 -0.0936
vn 0.0853 -0.9891 -0.1198
vn 0.1031 -0.9852 -0.1366
vn 0.1030 -0.9852 -0.1366
vn 0.0822 -0.9886 -0.1264
vn 0.0823 -0.9886 -0.1264
vn 0.0541 -0.9919 -0.1150
vn 0.0852 -0.9891 -0.1198
vn 0.0192 -0.9939 -0.1085
vn 0.0168 -0.9939 -0.1091
vn -0.0119 -0.9938 -0.1102
vn -0.0120 -0.9945 -0.1045
vn -0.0240 -0.9933 -0.1132
vn -0.0218 -0.9945 -0.1021
vn -0.0218 -0.9945 -0.1022
vn -0.0220 -0.9962 -0.0844
vn -0.0222 -0.9978 -0.0632
vn -0.0222 -0.9977 -0.0633
vn -0.0223 -0.9977 -0.0632
vn -0.0250 -0.9986 -0.0471
vn -0.0223 -0.9978 -0.0632
vn -0.0124 -0.9989 -0.0445
vn -0.0250 -0.9986 -0.0470
vn -0.0276 -0.9987 -0.0432
vn -0.0074 -0.9992 -0.0398
vn 0.0149 -0.9992 -0.0376
vn 0.0149 -0.9992 -0.0375
vn 0.0150 -0.9992 -0.0375
vn 0.0406 -0.9985 -0.0361
vn -0.1030 -0.9946 0.0132
vn -0.1021 -0.9947 -0.0077
vn -0.0717 -0.9973 0.0131
vn 0.0311 -0.9994 0.0161
vn 0.0231 -0.9996 0.0133
vn 0.0283 -0.9996 0.0085
vn 0.0282 -0.9996 0.0019
vn 0.0231 -0.9997 0.0100
vn 0.0283 -0.9996 0.0019
vn 0.0025 -0.9999 0.0127
vn 0.0230 -0.9997 0.0100
vn -0.0363 -0.9993 0.0112
vn -0.0798 -0.9968 0.0022
vn -0.0718 -0.9973 0.0131
vn -0.1021 -0.9947 -0.0076
vn -0.0953 -0.9950 -0.0297
vn -0.0895 -0.9954 -0.0347
vn -0.0867 -0.9956 -0.0355
vn -0.0667 -0.9965 -0.0508
vn -0.0669 -0.9965 -0.0508
vn -0.0912 -0.9942 -0.0568
vn -0.0866 -0.9956 -0.0355
vt 0.970026 0.033223
vt 0.989728 0.033922
vt 0.969909 0.069246
vt 0.989262 0.069246
vt 0.969443 0.106202
vt 0.988679 0.106085
vt 0.968743 0.142342
vt 0.987979 0.141526
vt 0.987863 0.159596
vt 0.968277 0.160295
vt 0.946593 0.142808
vt 0.946127 0.160645
vt 0.924327 0.142692
vt 0.923977 0.160412
vt 0.902060 0.142109
vt 0.901827 0.159596
vt 0.884106 0.140710
vt 0.883640 0.158780
vt 0.902759 0.105736
vt 0.884806 0.105036
vt 0.903226 0.068430
vt 0.885505 0.067964
vt 0.903925 0.032873
vt 0.886555 0.032873
vt 0.886321 0.013288
vt 0.903925 0.013637
vt 0.925842 0.032640
vt 0.925725 0.013521
vt 0.947992 0.032757
vt 0.947992 0.013754
vt 0.970142 0.014454
vt 0.989961 0.015386
vt 0.535999 0.003845
vt 0.513149 0.024479
vt 0.512566 0.003845
vt 0.515247 0.134881
vt 0.537048 0.152134
vt 0.515247 0.153300
vt 0.559781 0.151552
vt 0.537164 0.133831
vt 0.559897 0.133482
vt 0.514548 0.098041
vt 0.536931 0.097458
vt 0.513848 0.060969
vt 0.536815 0.060619
vt 0.536581 0.024363
vt 0.560714 0.023896
vt 0.560364 0.003612
vt 0.585079 0.023663
vt 0.584729 0.003495
vt 0.609444 0.023547
vt 0.627397 0.043132
vt 0.609560 0.043132
vt 0.627164 0.023430
vt 0.609211 0.003728
vt 0.627397 0.003728
s 0
f 3/3/1 1/1/2 2/2/3
f 32/32/4 2/2/3 31/31/5
f 2/2/6 1/1/2 31/31/5
f 31/31/5 1/1/2 30/30/7
f 1/1/2 29/29/7 30/30/7
f 30/30/7 29/29/7 28/28/8
f 29/29/7 27/27/8 28/28/8
f 28/28/8 27/27/8 26/26/9
f 27/27/10 23/23/11 26/26/9
f 26/26/9 23/23/11 25/25/12
f 25/25/13 23/23/11 24/24/14
f 24/24/15 23/23/11 22/22/16
f 23/23/17 21/21/16 22/22/16
f 22/22/16 21/21/16 20/20/18
f 21/21/16 19/19/19 20/20/18
f 20/20/18 19/19/19 17/17/20
f 19/19/19 15/15/21 17/17/20
f 18/18/22 17/17/20 16/16/23
f 17/17/20 15/15/21 16/16/24
f 16/16/23 15/15/21 14/14/25
f 15/15/21 13/13/25 14/14/25
f 14/14/25 13/13/25 12/12/26
f 13/13/25 11/11/27 12/12/27
f 12/12/28 11/11/28 10/10/29
f 11/11/30 7/7/31 10/10/32
f 10/10/29 7/7/31 9/9/33
f 9/9/33 7/7/31 8/8/34
f 8/8/34 7/7/31 6/6/35
f 7/7/31 5/5/36 6/6/36
f 6/6/37 5/5/37 4/4/1
f 5/5/37 3/3/38 4/4/38
f 3/3/1 2/2/3 4/4/1
f 35/35/39 33/33/40 34/34/41
f 38/38/42 36/36/43 37/37/44
f 41/41/45 39/39/45 40/40/46
f 39/39/47 37/37/44 40/40/46
f 37/37/44 36/36/43 40/40/46
f 36/36/43 42/42/48 40/40/49
f 40/40/46 42/42/48 43/43/48
f 42/42/48 44/44/50 43/43/48
f 43/43/48 44/44/50 45/45/50
f 44/44/50 34/34/41 45/45/50
f 45/45/50 34/34/41 46/46/51
f 34/34/52 33/33/53 46/46/51
f 46/46/51 33/33/53 47/47/54
f 33/33/53 48/48/54 47/47/54
f 47/47/54 48/48/54 49/49/55
f 48/48/54 50/50/55 49/49/55
f 49/49/55 50/50/55 51/51/56
f 53/53/57 51/51/57 52/52/57
f 52/52/58 51/51/58 54/54/58
f 56/56/59 54/54/59 55/55/59
f 54/54/59 51/51/59 55/55/59
f 51/51/60 50/50/55 55/55/60
