# Blender 3.2.2
# www.blender.org
o BatteryDoorInner
v -12.497400 0.403026 45.646763
v 13.368150 7.495286 42.000652
v -12.497400 7.520478 42.046894
v 13.368150 0.372276 45.588600
v -1.841280 10.107748 9.324568
v -0.087330 9.918612 8.608006
v -1.843600 9.917818 8.610184
v -0.085000 10.108546 9.322378
v 1.689850 10.107160 9.319405
v 1.673590 9.917818 8.610184
v -0.085000 10.290339 10.011548
v -0.087330 10.770292 11.919250
v 1.692180 10.286378 9.995271
v -1.818050 10.293713 10.022661
vn 0.0028 0.4508 0.8926
vn 0.0028 0.4509 0.8926
vn -0.0000 0.9664 -0.2572
vn 0.0001 0.9664 -0.2572
vn 0.0001 0.9663 -0.2573
vn 0.0001 0.9664 -0.2571
vn -0.0000 0.9701 -0.2425
vt 0.418124 0.663621
vt 0.524648 0.695481
vt 0.418375 0.696359
vt 0.524366 0.662743
vt 0.411507 0.667666
vt 0.404076 0.664405
vt 0.411602 0.664875
vt 0.404076 0.667447
vt 0.396455 0.667572
vt 0.396581 0.664781
vt 0.403542 0.672119
vt 0.403480 0.680178
vt 0.396236 0.671868
vt 0.410661 0.672088
s 0
f 3/3/1 1/1/1 2/2/1
f 1/1/2 4/4/2 2/2/2
f 7/7/3 5/5/3 6/6/3
f 5/5/4 8/8/4 6/6/4
f 10/10/5 6/6/5 9/9/5
f 6/6/6 8/8/6 9/9/6
f 13/13/7 11/11/7 12/12/7
f 11/11/7 14/14/7 12/12/7
