# Blender 3.2.2
# www.blender.org
o StartSymbol
v 9.333010 -22.537468 22.841358
v 9.834750 -22.573614 23.238667
v 9.337710 -22.538780 23.234657
v 12.807560 -22.484398 23.241104
v 12.312099 -22.527819 22.851542
v 12.810699 -22.470753 22.850624
v 12.310530 -22.542936 23.241484
v 11.815061 -22.563055 22.852070
v 11.815061 -22.573746 23.243618
v 11.319590 -22.581408 22.852066
v 11.319590 -22.588615 23.243219
v 10.824120 -22.584351 22.850994
v 10.825690 -22.590092 23.242683
v 10.327081 -22.583277 22.848043
v 10.330220 -22.588079 23.241745
v 9.830050 -22.569347 22.846441
v 9.317330 -22.407534 21.063232
v 9.817500 -22.486950 21.446465
v 9.317330 -22.450787 21.447954
v 9.817500 -22.439821 21.064838
v 10.317670 -22.499413 21.448610
v 10.317670 -22.456701 21.065365
v 10.816279 -22.500484 21.451551
v 10.814710 -22.461250 21.068710
v 11.313320 -22.488691 21.455843
v 11.311750 -22.449467 21.073000
v 11.810350 -22.466995 21.460409
v 11.808790 -22.424820 21.078642
v 12.308960 -22.432438 21.466305
v 12.307390 -22.390797 21.086010
v 12.809130 -22.378590 21.474230
v 12.807560 -22.334940 21.092999
v 12.816971 -22.442875 22.338503
v 12.318371 -22.471027 21.952839
v 12.816971 -22.420521 21.956194
v 9.328310 -22.496874 21.936749
v 9.831610 -22.551109 22.324139
v 9.331440 -22.521770 22.321476
v 9.828480 -22.527683 21.938887
v 10.328650 -22.565039 22.325743
v 10.327081 -22.540146 21.941025
v 10.827260 -22.566113 22.328691
v 10.825690 -22.541216 21.943966
v 11.324290 -22.555258 22.330973
v 11.322720 -22.530365 21.946257
v 11.821329 -22.532486 22.332590
v 11.819759 -22.506653 21.949873
v 12.318371 -22.495384 22.336081
vn -0.0656 -0.9978 -0.0057
vn -0.0466 -0.9989 -0.0085
vn 0.1151 -0.9928 -0.0339
vn 0.0896 -0.9955 -0.0314
vn 0.0488 -0.9984 -0.0273
vn 0.0202 -0.9996 -0.0201
vn -0.0000 -0.9999 -0.0139
vn 0.0025 -0.9999 -0.0163
vn -0.0001 -0.9999 -0.0139
vn -0.0151 -0.9998 -0.0122
vn -0.0644 -0.9912 -0.1156
vn -0.0490 -0.9920 -0.1162
vn -0.0144 -0.9939 -0.1097
vn 0.0096 -0.9944 -0.1050
vn -0.0143 -0.9939 -0.1096
vn 0.0341 -0.9939 -0.1050
vn 0.0595 -0.9924 -0.1079
vn 0.0885 -0.9900 -0.1102
vn 0.0884 -0.9900 -0.1102
vn 0.1102 -0.9877 -0.1113
vn 0.1050 -0.9927 -0.0595
vn 0.0909 -0.9938 -0.0633
vn -0.0611 -0.9962 -0.0618
vn -0.0427 -0.9972 -0.0606
vn -0.0611 -0.9962 -0.0619
vn -0.0427 -0.9972 -0.0607
vn -0.0123 -0.9981 -0.0599
vn 0.0098 -0.9981 -0.0606
vn 0.0349 -0.9974 -0.0628
vn 0.0350 -0.9974 -0.0628
vn 0.0610 -0.9960 -0.0650
vn 0.0909 -0.9939 -0.0633
vt 0.826283 0.411875
vt 0.851930 0.379932
vt 0.851347 0.411758
vt 0.853329 0.190140
vt 0.828381 0.221733
vt 0.828498 0.189790
vt 0.853213 0.222082
vt 0.828148 0.253442
vt 0.853096 0.253676
vt 0.827915 0.285152
vt 0.852863 0.285269
vt 0.827682 0.316745
vt 0.852630 0.316745
vt 0.827332 0.348339
vt 0.852280 0.348339
vt 0.826866 0.380048
vt 0.892034 0.412691
vt 0.916865 0.380748
vt 0.916632 0.412691
vt 0.892267 0.380748
vt 0.917215 0.348922
vt 0.892617 0.348805
vt 0.917448 0.317095
vt 0.892967 0.317095
vt 0.917681 0.285385
vt 0.893200 0.285385
vt 0.918031 0.253676
vt 0.893549 0.253676
vt 0.918264 0.221849
vt 0.893783 0.221849
vt 0.918498 0.189790
vt 0.894016 0.189790
vt 0.975971 0.189906
vt 0.951373 0.221733
vt 0.951490 0.189790
vt 0.949741 0.412458
vt 0.974689 0.380515
vt 0.974339 0.412458
vt 0.950091 0.380631
vt 0.975039 0.348805
vt 0.950440 0.348805
vt 0.975272 0.317095
vt 0.950790 0.317095
vt 0.975505 0.285385
vt 0.951023 0.285385
vt 0.975738 0.253676
vt 0.951257 0.253559
vt 0.975855 0.221849
s 0
f 3/3/1 1/1/1 2/2/2
f 6/6/3 4/4/3 5/5/4
f 4/4/3 7/7/4 5/5/4
f 5/5/4 7/7/4 8/8/5
f 7/7/4 9/9/5 8/8/5
f 8/8/5 9/9/5 10/10/6
f 9/9/5 11/11/6 10/10/6
f 10/10/6 11/11/6 12/12/7
f 11/11/6 13/13/8 12/12/7
f 12/12/9 13/13/8 14/14/10
f 13/13/8 15/15/10 14/14/10
f 14/14/10 15/15/10 16/16/2
f 15/15/10 2/2/2 16/16/2
f 2/2/2 1/1/1 16/16/2
f 19/19/11 17/17/11 18/18/12
f 17/17/11 20/20/12 18/18/12
f 18/18/12 20/20/12 21/21/13
f 20/20/12 22/22/13 21/21/13
f 21/21/13 22/22/13 23/23/14
f 22/22/15 24/24/14 23/23/14
f 23/23/14 24/24/14 25/25/16
f 24/24/14 26/26/16 25/25/16
f 25/25/16 26/26/16 27/27/17
f 26/26/16 28/28/17 27/27/17
f 27/27/17 28/28/17 29/29/18
f 28/28/17 30/30/18 29/29/18
f 29/29/19 30/30/19 31/31/20
f 30/30/18 32/32/20 31/31/20
f 35/35/21 33/33/21 34/34/22
f 38/38/23 36/36/23 37/37/24
f 36/36/25 39/39/26 37/37/24
f 37/37/24 39/39/26 40/40/27
f 39/39/26 41/41/27 40/40/27
f 40/40/27 41/41/27 42/42/28
f 41/41/27 43/43/28 42/42/28
f 42/42/28 43/43/28 44/44/29
f 43/43/28 45/45/29 44/44/29
f 44/44/30 45/45/30 46/46/31
f 45/45/30 47/47/31 46/46/31
f 46/46/31 47/47/31 48/48/22
f 47/47/31 34/34/22 48/48/22
f 34/34/32 33/33/21 48/48/32
