# Blender 3.2.2
# www.blender.org
o USBPortInner
v 4.703020 -4.902756 -18.204071
v 4.675460 -4.861089 -20.321558
v 4.699080 -4.086026 -18.191717
v 4.671520 -4.045714 -20.305508
v -4.754160 -4.904180 -20.203167
v -4.726600 -4.945847 -18.085678
v -4.758100 -4.088806 -20.187113
v -4.730540 -4.130464 -18.069624
v -2.946980 -5.291164 47.569977
v -2.943040 -5.296902 47.643311
v 2.986400 -5.291164 47.569977
v 2.986400 -5.296902 47.643311
v 2.986400 -5.315417 47.682663
v -2.943040 -5.315417 47.682663
v -3.025730 -5.296902 47.643311
v -3.049350 -5.293859 47.577385
v -3.285580 -5.264425 47.001514
v -2.966670 -5.253628 46.925831
v 2.974590 -5.253628 46.925831
v 3.289560 -5.264425 47.001514
v 3.053330 -5.293859 47.577385
v 3.025770 -5.296902 47.643311
v 3.053330 -5.315417 47.682663
v 3.061200 -5.354433 47.697788
v 2.986400 -5.354433 47.697788
v -2.946980 -5.354433 47.697788
v -3.049350 -5.315417 47.682663
v -3.076910 -5.311017 47.613033
v -3.324950 -5.279561 47.008572
v -3.269830 -5.259579 46.550770
v -3.072970 -5.258193 46.408810
v 3.073020 -5.258193 46.408810
v 3.273810 -5.259579 46.550770
v 3.313190 -5.276388 46.527885
v 3.328930 -5.279561 47.008572
v 3.080890 -5.311017 47.613033
v 3.088760 -5.350041 47.628151
v 3.061200 -5.806527 47.696644
v 2.982460 -5.806527 47.696644
v -2.966670 -5.806527 47.696644
v -3.061160 -5.354433 47.697788
v -3.088720 -5.350041 47.628151
v -3.340700 -5.319586 47.014946
v -3.309210 -5.276388 46.527885
v -3.092660 -5.290139 46.392990
v -3.021790 -5.256830 45.219376
v 3.021830 -5.256830 45.219376
v 3.061200 -5.272977 45.217686
v 3.100580 -5.292833 46.400391
v 3.116330 -5.312334 46.384911
v 3.328930 -5.314740 46.518120
v 3.344680 -5.319586 47.014946
v 3.344680 -5.837615 47.010761
v 3.088760 -5.810877 47.628021
v 3.080890 -5.847883 47.614552
v 3.053330 -5.847224 47.681831
v 2.982460 -5.847224 47.681831
v -2.970610 -5.847224 47.681831
v -3.061160 -5.806527 47.696644
v -3.088720 -5.810877 47.628021
v -3.340700 -5.837615 47.010761
v -3.324950 -5.837805 46.516281
v -3.324950 -5.314740 46.518120
v -3.112350 -5.312334 46.384911
v -3.061160 -5.272977 45.217686
v -3.013910 -5.239422 43.214561
v 3.017890 -5.239422 43.214561
v 3.057270 -5.256910 43.216583
v 3.073020 -5.297953 43.214218
v 3.076950 -5.310310 45.216671
v 3.116330 -5.840449 46.385422
v 3.328930 -5.837805 46.516281
v 3.313190 -5.875475 46.527710
v 3.328930 -5.878648 47.008392
v 3.289560 -5.895803 46.997952
v 3.053330 -5.868046 47.577877
v 3.025770 -5.862350 47.642803
v 2.982460 -5.862350 47.642803
v -2.974540 -5.862350 47.642803
v -3.049350 -5.847224 47.681831
v -3.076910 -5.851575 47.613205
v -3.324950 -5.878648 47.008392
v -3.309210 -5.875475 46.527710
v -3.112350 -5.840449 46.385422
v -3.076910 -5.833375 45.214828
v -3.076910 -5.310310 45.216671
v -3.053290 -5.256910 43.216583
v -3.072970 -5.297953 43.214218
v -3.072970 -5.833464 43.212036
v -3.061160 -5.872064 45.217510
v -3.053290 -5.875846 43.213367
v -3.021790 -5.888212 45.215820
v -3.013910 -5.891991 43.211674
v 3.021830 -5.888212 45.215820
v 3.017890 -5.891991 43.211674
v 3.061200 -5.872064 45.217510
v 3.057270 -5.875846 43.213367
v 3.076950 -5.833375 45.214828
v 3.073020 -5.833464 43.212036
v 3.092700 -5.862991 46.389790
v 3.073020 -5.894616 46.407619
v 3.273810 -5.892305 46.550907
v 2.998210 -5.902504 46.924290
v 2.986400 -5.869058 47.569141
v -2.978480 -5.869058 47.569141
v -3.021790 -5.862350 47.642803
v -3.049350 -5.866702 47.574188
v -3.285580 -5.894460 46.994263
v -3.269830 -5.892305 46.550907
v -3.100530 -5.858282 46.399887
v -3.072970 -5.894616 46.407619
v -3.037540 -5.902504 46.924290
vn 0.0818 0.9965 0.0172
vn 0.0901 -0.9957 -0.0213
vn 0.0808 -0.9225 -0.3775
vn 0.0808 -0.9224 -0.3776
vn 0.0900 -0.9957 -0.0213
vn -0.0830 -0.9231 -0.3755
vn -0.0818 -0.9965 -0.0172
vn -0.0906 0.9358 -0.3406
vn -0.0818 -0.9965 -0.0173
vn -0.0901 0.9957 0.0213
vn 0.0723 0.9369 -0.3421
vn 0.0818 0.9965 0.0171
vn 0.0723 0.9369 -0.3422
vn 0.0809 -0.9224 -0.3776
vn -0.0831 -0.9231 -0.3755
vn -0.0000 0.9982 0.0604
vn -0.0000 0.9807 0.1955
vn -0.0903 0.9740 0.2078
vn -0.3350 0.6468 0.6852
vn -0.0762 0.9934 0.0858
vn -0.0834 0.9954 0.0462
vn -0.0000 0.9996 0.0265
vn 0.0890 0.9950 0.0446
vn 0.0841 0.9924 0.0900
vn 0.1327 0.9705 0.2015
vn 0.1328 0.9705 0.2015
vn -0.0000 0.9797 0.2004
vn -0.0000 0.9797 0.2005
vn -0.0000 0.6832 0.7302
vn -0.0000 0.6833 0.7302
vn -0.0000 0.0281 0.9996
vn -0.4685 0.0290 0.8830
vn -0.4685 0.0289 0.8830
vn -0.3350 0.6468 0.6851
vn -0.7071 0.6278 0.3253
vn -0.7071 0.6279 0.3253
vn -0.0834 0.9954 0.0461
vn -0.7155 0.6770 0.1725
vn -0.0865 0.9957 -0.0318
vn -0.7155 0.6770 0.1724
vn -0.7070 0.6620 -0.2488
vn -0.6948 0.7093 -0.1185
vn -0.0050 1.0000 -0.0006
vn -0.0000 0.9996 0.0266
vn 0.0050 1.0000 -0.0006
vn 0.0837 0.9959 -0.0343
vn 0.0838 0.9959 -0.0343
vn 0.6785 0.7183 -0.1542
vn 0.6785 0.7183 -0.1541
vn 0.7041 0.6655 -0.2478
vn 0.7041 0.6655 -0.2479
vn 0.7110 0.6820 0.1710
vn 0.7110 0.6821 0.1710
vn 0.7029 0.6332 0.3240
vn 0.4383 0.6492 0.6216
vn 0.5543 0.0279 0.8319
vn 0.5543 0.0280 0.8319
vn -0.0000 0.0282 0.9996
vn -0.0000 -0.0359 0.9994
vn -0.4707 -0.0310 0.8818
vn -0.9250 -0.0276 0.3790
vn -0.9244 0.0249 0.3806
vn -0.4707 -0.0309 0.8818
vn -0.9244 0.0250 0.3806
vn -0.9792 0.0287 0.2011
vn -0.9792 0.0286 0.2011
vn -0.9401 0.0303 -0.3395
vn -0.9401 0.0303 -0.3394
vn -0.6949 0.7093 -0.1185
vn -0.9810 0.0415 -0.1897
vn -0.9994 0.0308 -0.0128
vn -0.9810 0.0416 -0.1897
vn -0.7218 0.6921 -0.0030
vn -0.0050 1.0000 0.0059
vn -0.0050 1.0000 -0.0005
vn 0.0050 1.0000 0.0059
vn 0.0051 1.0000 -0.0005
vn 0.7197 0.6942 -0.0060
vn 0.7198 0.6942 -0.0060
vn 0.9995 0.0288 -0.0134
vn 0.9995 0.0288 -0.0135
vn 0.9815 0.0407 -0.1871
vn 0.6785 0.7182 -0.1542
vn 0.9815 0.0406 -0.1872
vn 0.9401 0.0303 -0.3394
vn 0.9402 0.0303 -0.3394
vn 0.9792 0.0287 0.2011
vn 0.9244 0.0249 0.3806
vn 0.9244 0.0250 0.3806
vn 0.9250 -0.0276 0.3790
vn 0.5545 -0.0326 0.8316
vn 0.5545 -0.0327 0.8316
vn 0.5545 -0.0327 0.8315
vn 0.4220 -0.6514 0.6305
vn 0.4221 -0.6514 0.6306
vn -0.0000 -0.6887 0.7250
vn -0.0000 -0.7034 0.7108
vn -0.3849 -0.6535 0.6518
vn -0.3849 -0.6535 0.6517
vn -0.9250 -0.0276 0.3791
vn -0.7022 -0.6360 0.3201
vn -0.7022 -0.6360 0.3200
vn -0.9788 -0.0305 0.2023
vn -0.9788 -0.0304 0.2023
vn -0.9410 -0.0278 -0.3372
vn -0.9820 -0.0388 -0.1848
vn -0.9995 -0.0278 -0.0123
vn -0.9810 0.0416 -0.1896
vn -0.9996 -0.0295 -0.0021
vn -0.9996 -0.0294 -0.0021
vn -0.9996 0.0290 -0.0024
vn -0.7067 0.7075 0.0024
vn -0.9994 0.0308 -0.0127
vn -0.7218 0.6921 -0.0031
vn -0.7067 0.7075 0.0023
vn -0.0025 1.0000 0.0067
vn 0.0025 1.0000 0.0067
vn 0.0050 1.0000 0.0058
vn 0.7067 0.7075 0.0024
vn 0.7067 0.7075 0.0023
vn 0.9996 0.0290 -0.0024
vn 0.9995 -0.0297 -0.0130
vn 0.9996 -0.0294 -0.0021
vn 0.7067 -0.7075 -0.0024
vn 0.0025 -1.0000 -0.0003
vn 0.7219 -0.6919 -0.0080
vn 0.7220 -0.6919 -0.0080
vn 0.7220 -0.6919 -0.0079
vn 0.9812 -0.0404 -0.1888
vn 0.9812 -0.0404 -0.1887
vn 0.9399 -0.0269 -0.3403
vn 0.9815 0.0406 -0.1871
vn 0.9788 -0.0304 0.2023
vn 0.9788 -0.0305 0.2023
vn 0.9788 -0.0305 0.2024
vn 0.7155 -0.6784 0.1671
vn 0.9250 -0.0276 0.3791
vn 0.7050 -0.6324 0.3210
vn 0.5545 -0.0326 0.8315
vn 0.0854 -0.9928 0.0845
vn 0.0855 -0.9928 0.0845
vn 0.1286 -0.9713 0.1999
vn 0.1285 -0.9713 0.1999
vn -0.0000 -0.6887 0.7251
vn -0.0000 -0.9815 0.1916
vn -0.0000 -0.9815 0.1915
vn -0.0000 -0.9835 0.1807
vn -0.3848 -0.6535 0.6518
vn -0.1161 -0.9725 0.2021
vn -0.0943 -0.9917 0.0879
vn -0.7099 -0.6836 0.1693
vn -0.7099 -0.6836 0.1694
vn -0.7056 -0.6619 -0.2528
vn -0.9410 -0.0278 -0.3371
vn -0.9820 -0.0387 -0.1849
vn -0.7057 -0.6619 -0.2528
vn -0.1000 -0.9938 -0.0480
vn -0.6846 -0.7114 -0.1589
vn -0.6846 -0.7114 -0.1588
vn -0.9995 -0.0278 -0.0122
vn -0.7240 -0.6897 -0.0109
vn -0.7240 -0.6898 -0.0109
vn -0.7067 -0.7075 -0.0024
vn -0.0025 -1.0000 -0.0003
vn 0.7000 -0.7036 -0.1224
vn 0.7000 -0.7035 -0.1224
vn 0.7084 -0.6593 -0.2518
vn 0.7084 -0.6593 -0.2519
vn 0.7085 -0.6593 -0.2518
vn 0.0892 -0.9952 -0.0413
vn 0.0891 -0.9952 -0.0413
vn 0.0897 -0.9952 0.0399
vn 0.7050 -0.6324 0.3209
vn -0.0000 -0.9985 0.0548
vn -0.1013 -0.9940 0.0404
vn -0.0944 -0.9917 0.0879
vn -0.1014 -0.9940 0.0404
vn -0.0050 -0.9999 -0.0091
vn -0.0051 -0.9999 -0.0090
vn 0.0025 -1.0000 -0.0067
vn -0.0000 -0.9998 0.0216
vn -0.0000 -0.9998 0.0215
vn 0.0724 0.9369 -0.3421
vn -0.0829 -0.9231 -0.3755
vt 0.990163 0.477718
vt 0.981464 0.486417
vt 0.981464 0.477718
vt 0.981464 0.465668
vt 0.990163 0.474367
vt 0.981464 0.474367
vt 0.942730 0.477718
vt 0.942730 0.486417
vt 0.934031 0.477718
vt 0.942730 0.474367
vt 0.934031 0.474367
vt 0.942730 0.465668
vt 0.973140 0.441914
vt 0.973095 0.442094
vt 0.948770 0.441854
vt 0.948800 0.442034
vt 0.948830 0.442139
vt 0.973065 0.442214
vt 0.973290 0.442094
vt 0.973426 0.441959
vt 0.974553 0.441493
vt 0.973876 0.440366
vt 0.948184 0.440246
vt 0.947403 0.441328
vt 0.948590 0.441944
vt 0.948710 0.442034
vt 0.948695 0.442154
vt 0.948665 0.442275
vt 0.948845 0.442244
vt 0.973065 0.442320
vt 0.973305 0.442214
vt 0.973426 0.442094
vt 0.974628 0.441659
vt 0.975214 0.440607
vt 0.974958 0.439164
vt 0.947133 0.438969
vt 0.946982 0.440487
vt 0.946922 0.440727
vt 0.947298 0.441478
vt 0.948560 0.442064
vt 0.948530 0.442184
vt 0.948605 0.443431
vt 0.948830 0.443416
vt 0.973170 0.443492
vt 0.973320 0.442335
vt 0.973441 0.442229
vt 0.974688 0.441824
vt 0.975319 0.440817
vt 0.975108 0.439660
vt 0.979916 0.440787
vt 0.974628 0.433891
vt 0.947523 0.433741
vt 0.941408 0.441884
vt 0.941468 0.442064
vt 0.947012 0.439510
vt 0.946892 0.439871
vt 0.946877 0.440982
vt 0.947193 0.441628
vt 0.947433 0.443972
vt 0.948395 0.443492
vt 0.948485 0.443597
vt 0.948620 0.443522
vt 0.948815 0.443522
vt 0.973200 0.443612
vt 0.973441 0.443522
vt 0.973651 0.443582
vt 0.974763 0.444138
vt 0.975169 0.444739
vt 0.975424 0.441027
vt 0.975199 0.440051
vt 0.979931 0.440967
vt 0.988435 0.438624
vt 0.974598 0.425056
vt 0.947643 0.424891
vt 0.932829 0.443837
vt 0.932874 0.444017
vt 0.932919 0.444198
vt 0.941513 0.442244
vt 0.946847 0.445715
vt 0.946637 0.444724
vt 0.946727 0.444934
vt 0.947478 0.444138
vt 0.947538 0.444303
vt 0.948545 0.443702
vt 0.948665 0.443612
vt 0.948785 0.443627
vt 0.973230 0.443717
vt 0.973426 0.443612
vt 0.973576 0.443687
vt 0.974673 0.444303
vt 0.975123 0.444979
vt 0.975154 0.445835
vt 0.980547 0.443431
vt 0.979931 0.441148
vt 0.988480 0.438804
vt 0.988525 0.438984
vt 0.989111 0.441283
vt 0.980607 0.443612
vt 0.989156 0.441463
vt 0.980668 0.443792
vt 0.974522 0.451965
vt 0.989202 0.441644
vt 0.974402 0.460815
vt 0.947433 0.451860
vt 0.942099 0.444904
vt 0.947478 0.460695
vt 0.933520 0.446872
vt 0.942099 0.444724
vt 0.933490 0.446692
vt 0.942084 0.444528
vt 0.933445 0.446511
vt 0.946937 0.446106
vt 0.947087 0.446602
vt 0.946847 0.445159
vt 0.948064 0.445400
vt 0.948740 0.443807
vt 0.973305 0.443897
vt 0.973381 0.443702
vt 0.973501 0.443807
vt 0.974598 0.444468
vt 0.975063 0.445219
vt 0.975033 0.446181
vt 0.974913 0.446722
vt 0.974117 0.445430
s 0
f 3/5/1 1/1/2 2/3/3
f 2/3/4 1/2/5 5/7/6
f 1/2/5 6/8/7 5/7/6
f 5/7/6 6/9/7 7/10/8
f 6/9/9 8/11/10 7/10/8
f 8/12/10 3/4/1 7/10/8
f 7/10/8 3/4/1 4/6/11
f 3/5/12 2/3/4 4/6/13
f 2/3/14 5/7/15 4/6/11
f 11/15/16 9/13/16 10/14/17
f 10/14/17 9/13/16 15/19/18
f 27/31/19 15/19/18 16/20/20
f 15/19/18 9/13/16 16/20/20
f 16/20/20 9/13/16 17/21/21
f 17/21/21 9/13/16 18/22/22
f 9/13/16 11/15/16 18/22/22
f 18/22/22 11/15/16 19/23/22
f 19/23/22 11/15/16 20/24/23
f 20/24/23 11/15/16 21/25/24
f 21/25/24 11/15/16 22/26/25
f 22/26/26 11/15/16 12/16/27
f 11/15/16 10/14/17 12/16/28
f 12/16/28 10/14/17 13/17/29
f 13/17/29 10/14/17 14/18/29
f 10/14/17 15/19/18 14/18/30
f 15/19/18 27/31/19 14/18/30
f 14/18/29 27/31/19 26/30/31
f 26/30/31 27/31/19 41/45/32
f 41/45/33 27/31/34 28/32/35
f 27/31/19 16/20/20 28/32/35
f 16/20/20 17/21/21 28/32/35
f 28/32/36 17/21/37 29/33/38
f 17/21/21 30/34/39 29/33/40
f 29/33/40 30/34/39 44/48/41
f 45/49/42 44/48/41 31/35/43
f 44/48/41 30/34/39 31/35/43
f 30/34/39 17/21/21 31/35/43
f 17/21/21 18/22/22 31/35/43
f 18/22/22 19/23/22 31/35/43
f 31/35/43 19/23/44 32/36/45
f 19/23/22 20/24/23 32/36/45
f 20/24/23 33/37/46 32/36/45
f 32/36/45 33/37/47 49/55/48
f 49/55/49 33/37/47 34/38/50
f 33/37/46 20/24/23 34/38/51
f 34/38/51 20/24/23 35/39/52
f 20/24/23 21/25/24 35/39/52
f 35/39/53 21/25/24 36/40/54
f 21/25/24 22/26/25 36/40/54
f 36/40/54 22/26/25 23/27/55
f 22/26/25 12/16/28 23/27/55
f 12/16/28 13/17/29 23/27/55
f 23/27/55 13/17/29 24/28/56
f 24/28/57 13/17/30 25/29/58
f 13/17/30 14/18/29 25/29/58
f 14/18/30 26/30/31 25/29/31
f 25/29/58 26/30/58 39/43/59
f 39/43/59 26/30/31 40/44/59
f 26/30/58 41/45/33 40/44/59
f 40/44/59 41/45/32 59/65/60
f 60/66/61 59/65/60 42/46/62
f 59/65/63 41/45/33 42/46/62
f 41/45/33 28/32/35 42/46/64
f 28/32/35 29/33/40 42/46/62
f 42/46/64 29/33/40 43/47/65
f 29/33/40 44/48/41 43/47/66
f 43/47/66 44/48/41 63/69/67
f 44/48/41 45/49/42 63/69/67
f 63/69/68 45/49/69 64/70/70
f 86/94/71 64/70/72 65/71/73
f 64/70/72 45/49/42 65/71/73
f 65/71/73 45/49/69 46/50/74
f 45/49/42 31/35/75 46/50/74
f 31/35/43 32/36/45 46/51/74
f 46/51/74 32/36/45 47/52/76
f 47/53/76 32/36/77 48/54/78
f 32/36/45 49/55/48 48/54/79
f 48/54/78 49/55/48 70/78/80
f 70/78/81 49/55/48 50/56/82
f 49/55/83 34/38/50 50/56/82
f 50/56/84 34/38/50 51/57/85
f 34/38/50 35/39/53 51/57/85
f 51/57/86 35/39/53 52/58/87
f 35/39/53 36/40/54 52/58/87
f 52/58/87 36/40/54 37/41/88
f 36/40/54 23/27/55 37/41/89
f 23/27/55 24/28/56 37/41/89
f 54/60/90 37/41/88 38/42/91
f 37/41/88 24/28/56 38/42/91
f 24/28/56 25/29/31 38/42/92
f 25/29/31 39/43/59 38/42/93
f 38/42/91 39/43/59 56/62/94
f 56/62/95 39/43/59 57/63/96
f 39/43/59 40/44/59 57/63/96
f 57/63/96 40/44/59 58/64/97
f 40/44/59 59/65/60 58/64/97
f 58/64/97 59/65/63 80/88/98
f 59/65/60 60/66/61 80/88/99
f 80/88/98 60/66/100 81/89/101
f 81/89/102 60/66/100 61/67/103
f 60/66/61 42/46/62 61/67/103
f 42/46/64 43/47/65 61/67/104
f 61/67/103 43/47/66 62/68/105
f 43/47/65 63/69/67 62/68/105
f 62/68/105 63/69/68 84/92/106
f 63/69/68 64/70/70 84/92/106
f 84/92/106 64/70/72 85/93/107
f 64/70/108 86/94/71 85/93/107
f 85/93/107 86/94/71 89/97/109
f 89/97/110 86/94/71 88/96/111
f 88/96/111 86/94/71 87/95/112
f 86/94/113 65/71/114 87/95/115
f 87/95/112 65/71/73 66/72/116
f 65/71/73 46/50/74 66/72/116
f 66/73/116 46/51/74 67/74/117
f 46/51/74 47/52/76 67/74/117
f 67/75/117 47/53/118 68/76/119
f 47/53/76 48/54/79 68/76/120
f 68/76/119 48/54/79 69/77/121
f 48/54/78 70/78/80 69/77/121
f 70/78/80 98/110/122 69/77/121
f 69/77/121 98/110/122 99/111/123
f 99/111/123 98/110/122 97/109/124
f 95/107/125 97/109/124 96/108/126
f 97/109/124 98/110/122 96/108/127
f 96/108/128 98/110/122 71/79/129
f 98/110/122 70/78/80 71/79/130
f 70/78/80 50/56/82 71/79/130
f 71/79/130 50/56/82 72/80/131
f 50/56/132 51/57/85 72/80/131
f 72/80/131 51/57/86 53/59/133
f 51/57/85 52/58/87 53/59/134
f 52/58/87 37/41/88 53/59/133
f 37/41/88 54/60/90 53/59/134
f 53/59/135 54/60/90 74/82/136
f 74/82/136 54/60/137 55/61/138
f 54/60/90 38/42/92 55/61/138
f 38/42/139 56/62/94 55/61/138
f 55/61/138 56/62/94 76/84/140
f 76/84/141 56/62/94 77/85/142
f 56/62/94 57/63/96 77/85/143
f 77/85/143 57/63/144 78/86/145
f 57/63/96 58/64/97 78/86/146
f 78/86/145 58/64/97 79/87/147
f 58/64/97 80/88/98 79/87/147
f 79/87/147 80/88/148 106/118/149
f 80/88/98 81/89/102 106/118/149
f 106/118/149 81/89/102 107/119/150
f 107/119/150 81/89/101 82/90/151
f 81/89/101 61/67/103 82/90/152
f 61/67/103 62/68/105 82/90/151
f 82/90/152 62/68/105 83/91/153
f 62/68/154 84/92/155 83/91/156
f 109/121/157 83/91/156 110/122/158
f 83/91/156 84/92/106 110/122/159
f 84/92/106 85/93/160 110/122/158
f 110/122/159 85/93/160 90/98/161
f 85/93/160 89/97/110 90/98/162
f 89/97/109 91/99/163 90/98/162
f 90/98/161 91/99/163 92/100/164
f 91/99/163 93/102/164 92/100/164
f 92/101/164 93/103/164 94/104/125
f 93/103/164 95/106/125 94/104/125
f 95/107/125 96/108/127 94/105/125
f 94/105/125 96/108/127 100/112/165
f 96/108/127 71/79/129 100/112/165
f 71/79/130 72/80/131 100/112/166
f 100/112/165 72/80/131 73/81/167
f 72/80/131 53/59/134 73/81/168
f 53/59/133 74/82/136 73/81/169
f 73/81/169 74/82/136 102/114/170
f 102/114/171 74/82/136 75/83/172
f 74/82/136 55/61/138 75/83/172
f 55/61/173 76/84/140 75/83/172
f 75/83/172 76/84/140 104/116/174
f 76/84/140 77/85/142 104/116/174
f 77/85/143 78/86/146 104/116/174
f 104/116/174 78/86/145 105/117/174
f 78/86/145 79/87/147 105/117/174
f 79/87/147 106/118/149 105/117/174
f 106/118/149 107/119/150 105/117/174
f 105/117/174 107/119/150 108/120/175
f 107/119/176 82/90/152 108/120/175
f 82/90/152 83/91/156 108/120/177
f 83/91/156 109/121/157 108/120/175
f 108/120/175 109/121/157 111/123/178
f 109/121/157 110/122/159 111/123/179
f 110/122/158 90/98/161 111/123/178
f 90/98/161 92/100/164 111/123/178
f 92/101/164 94/104/125 111/123/178
f 111/123/178 94/104/125 101/113/180
f 94/105/125 100/112/165 101/113/180
f 100/112/165 73/81/167 101/113/180
f 73/81/167 102/114/170 101/113/180
f 102/114/170 75/83/172 101/113/180
f 101/113/180 75/83/172 103/115/181
f 75/83/172 104/116/174 103/115/181
f 103/115/181 104/116/174 112/124/181
f 104/116/174 105/117/174 112/124/181
f 105/117/174 108/120/175 112/124/181
f 108/120/177 111/123/178 112/124/181
f 111/123/178 101/113/180 112/124/182
f 103/115/182 112/124/182 101/113/180
f 7/10/8 4/6/183 5/7/184
