# WaveFront *.obj file (generated by Autodesk ATF)

mtllib N64 v18_N64 v18_Back.mtl

g Back

v 64.980274 -10.805548 9.036883
v 64.708891 -10.802862 10.575971
v 63.927474 -10.800500 11.929422
v 62.730274 -10.798746 12.933991
v 61.261691 -10.797813 13.468511
v 59.698857 -10.797813 13.468511
v 58.230274 -10.798746 12.933991
v 57.033074 -10.800500 11.929422
v 56.251657 -10.802862 10.575971
v 55.980274 -10.805548 9.036883
v 56.251657 -10.808234 7.497794
v 57.033074 -10.810597 6.144343
v 58.230274 -10.812350 5.139774
v 59.698857 -10.813283 4.605254
v 61.261691 -10.813283 4.605254
v 62.730274 -10.812350 5.139774
v 63.927474 -10.810597 6.144343
v 64.708891 -10.808234 7.497794
v 64.480274 -11.305547 9.037755
v 64.210163 -11.308069 7.592791
v 63.436310 -11.310251 6.342977
v 62.263228 -11.311797 5.457108
v 60.849348 -11.312499 5.054825
v 59.385622 -11.312262 5.190459
v 58.069736 -11.311119 5.845691
v 57.079406 -11.309223 6.932030
v 56.548382 -11.306830 8.302758
v 56.548382 -11.304265 9.772752
v 57.079406 -11.301872 11.143481
v 58.069736 -11.299976 12.229819
v 59.385622 -11.298833 12.885052
v 60.849348 -11.298596 13.020686
v 62.263228 -11.299298 12.618403
v 63.436310 -11.300844 11.732534
v 64.210163 -11.303025 10.482720
v 60.480274 -11.063285 4.604313
v 60.480274 -11.245978 4.787645
v 56.294841 -11.239848 8.299635
v 64.845940 -11.054204 9.807102
v 64.665707 -11.237272 9.775642
v 64.665707 -11.239848 8.299635
v 64.845940 -11.056891 8.267535
v 64.319376 -11.051679 11.253822
v 64.160882 -11.234851 11.162635
v 63.329760 -11.049621 12.433198
v 63.212122 -11.232878 12.293322
v 61.996454 -11.048277 13.202982
v 61.933860 -11.231590 13.031326
v 60.480274 -11.047811 13.470325
v 60.480274 -11.231142 13.287632
v 58.964095 -11.048277 13.202982
v 59.026689 -11.231590 13.031326
v 57.630789 -11.049621 12.433198
v 57.748427 -11.232878 12.293322
v 56.641173 -11.051679 11.253822
v 56.799666 -11.234851 11.162635
v 56.114609 -11.054204 9.807102
v 56.294841 -11.237272 9.775642
v 56.114609 -11.056891 8.267535
v 56.641173 -11.059416 6.820816
v 56.799666 -11.242269 6.912642
v 57.630789 -11.061475 5.641439
v 57.748427 -11.244242 5.781954
v 58.964095 -11.062818 4.871656
v 59.026689 -11.245530 5.043951
v 61.996454 -11.062818 4.871656
v 61.933860 -11.245530 5.043951
v 63.329760 -11.061475 5.641439
v 63.212122 -11.244242 5.781954
v 64.319376 -11.059416 6.820816
v 64.160882 -11.242269 6.912642
v 64.980274 0.038515 9.017956
v 64.708891 0.041201 10.557044
v 63.927474 0.043563 11.910496
v 62.730274 0.045316 12.915064
v 61.261691 0.046249 13.449584
v 59.698857 0.046249 13.449584
v 58.230274 0.045316 12.915064
v 57.033074 0.043563 11.910496
v 56.251657 0.041201 10.557044
v 55.980274 0.038515 9.017956
v 56.251657 0.035828 7.478868
v 57.033074 0.033466 6.125416
v 58.230274 0.031713 5.120848
v 59.698857 0.030780 4.586328
v 61.261691 0.030780 4.586328
v 62.730274 0.031713 5.120848
v 63.927474 0.033466 6.125416
v 64.708891 0.035828 7.478868
v 63.180274 -11.305850 8.864550
v 59.017135 -11.310045 6.460964
v 58.917135 -11.310091 6.434169
v 58.817135 -11.310045 6.460964
v 58.743929 -11.309917 6.534169
v 58.717135 -11.309742 6.634169
v 58.717135 -11.301352 11.441341
v 58.743929 -11.301178 11.541341
v 58.817135 -11.301050 11.614546
v 58.917135 -11.301003 11.641341
v 59.017135 -11.301050 11.614546
v 63.180274 -11.305245 9.210960
v 63.253479 -11.305373 9.137755
v 63.280274 -11.305547 9.037755
v 63.253479 -11.305722 8.937755
v 58.717135 -11.101353 11.440992
v 58.743929 -11.101178 11.540992
v 58.817135 -11.101050 11.614197
v 58.917135 -11.101004 11.640992
v 59.017135 -11.101050 11.614197
v 63.180274 -11.105245 9.210611
v 63.253479 -11.105373 9.137406
v 63.280274 -11.105548 9.037406
v 63.253479 -11.105722 8.937406
v 63.180274 -11.105850 8.864201
v 59.017135 -11.110045 6.460615
v 58.917135 -11.110092 6.433820
v 58.817135 -11.110045 6.460615
v 58.743929 -11.109917 6.533820
v 58.717135 -11.109743 6.633820
vt -0.000000 -0.531887 0.000000
vt -0.026180 -0.607871 0.000000
vt 0.000000 -0.683855 0.000000
vt -0.026180 -0.759838 0.000000
vt 0.000000 -0.835822 0.000000
vt -0.026180 -0.911806 0.000000
vt -0.000000 -0.987790 0.000000
vt -0.026180 -1.063774 0.000000
vt 0.000000 -1.139758 0.000000
vt -0.026180 -1.215741 0.000000
vt 0.000000 -1.291725 0.000000
vt -0.026180 -1.367709 0.000000
vt 0.000000 -1.443693 0.000000
vt 0.000000 1.291725 0.000000
vt -0.026180 1.367709 0.000000
vt -0.026180 1.215741 0.000000
vt 0.000000 1.139758 0.000000
vt -0.026180 1.063774 0.000000
vt 0.000000 0.987790 0.000000
vt -0.026180 0.911806 0.000000
vt 0.000000 0.835822 0.000000
vt -0.026180 0.759838 0.000000
vt 0.000000 0.683855 0.000000
vt -0.026180 0.607871 0.000000
vt -0.000000 0.531887 0.000000
vt -0.026180 0.455903 0.000000
vt 0.000000 0.379919 0.000000
vt -0.026180 0.303935 0.000000
vt -0.000000 0.227952 0.000000
vt -0.026180 0.151968 0.000000
vt -0.000000 0.075984 0.000000
vt -0.026180 0.000000 0.000000
vt -0.000000 -0.075984 0.000000
vt -0.026180 -0.151968 0.000000
vt -0.000000 -0.227952 0.000000
vt -0.026180 -0.303935 0.000000
vt -0.000000 -0.379919 0.000000
vt -0.026180 -0.455903 0.000000
vt -0.078540 -0.844762 0.000000
vt -0.052360 -0.759838 0.000000
vt -0.078540 -0.683855 0.000000
vt -0.052360 -0.607871 0.000000
vt -0.078540 -0.522948 0.000000
vt -0.052360 -0.455903 0.000000
vt -0.078540 -0.362041 0.000000
vt -0.052360 -0.303935 0.000000
vt -0.078540 -0.201134 0.000000
vt -0.052360 -0.151968 0.000000
vt -0.078540 -0.040227 0.000000
vt -0.052360 0.000000 0.000000
vt -0.078540 0.120680 0.000000
vt -0.052360 0.151968 0.000000
vt -0.078540 0.281587 0.000000
vt -0.052360 0.303935 0.000000
vt -0.078540 0.442494 0.000000
vt -0.052360 0.455903 0.000000
vt -0.078540 0.603401 0.000000
vt -0.052360 0.607871 0.000000
vt -0.052360 0.759838 0.000000
vt -0.052360 -0.911806 0.000000
vt -0.078540 -1.005668 0.000000
vt -0.052360 -1.063774 0.000000
vt -0.078540 -1.166575 0.000000
vt -0.052360 -1.215741 0.000000
vt -0.078540 -1.327482 0.000000
vt -0.052360 -1.367709 0.000000
vt -0.052360 1.367709 0.000000
vt -0.078540 1.407936 0.000000
vt -0.078540 1.247029 0.000000
vt -0.052360 1.215741 0.000000
vt -0.078540 1.086122 0.000000
vt -0.052360 1.063774 0.000000
vt -0.078540 0.925215 0.000000
vt -0.052360 0.911806 0.000000
vt -0.078540 0.764308 0.000000
vt 0.834408 -1.256637 0.000000
vt -0.250000 -1.256637 0.000000
vt 0.834408 -1.413717 0.000000
vt -0.250000 -1.413717 0.000000
vt 0.834408 1.413717 0.000000
vt -0.250000 1.413717 0.000000
vt 0.834408 1.256637 0.000000
vt -0.250000 1.256637 0.000000
vt 0.834408 1.099557 0.000000
vt -0.250000 1.099557 0.000000
vt 0.834408 0.942478 0.000000
vt -0.250000 0.942478 0.000000
vt 0.834408 0.785398 0.000000
vt -0.250000 0.785398 0.000000
vt 0.834408 0.628319 0.000000
vt -0.250000 0.628319 0.000000
vt 0.834408 0.471239 0.000000
vt -0.250000 0.471239 0.000000
vt 0.834408 0.314159 0.000000
vt -0.250000 0.314159 0.000000
vt 0.834408 0.157080 0.000000
vt -0.250000 0.157080 0.000000
vt 0.834408 0.000000 0.000000
vt -0.250000 -0.000000 0.000000
vt 0.834408 -0.157080 0.000000
vt -0.250000 -0.157080 0.000000
vt 0.834408 -0.314159 0.000000
vt -0.250000 -0.314159 0.000000
vt 0.834408 -0.471239 0.000000
vt -0.250000 -0.471239 0.000000
vt 0.834408 -0.628319 0.000000
vt -0.250000 -0.628319 0.000000
vt 0.834408 -0.785398 0.000000
vt -0.250000 -0.785398 0.000000
vt 0.834408 -0.942478 0.000000
vt -0.250000 -0.942478 0.000000
vt 0.834408 -1.099557 0.000000
vt -0.250000 -1.099557 0.000000
vt -0.372989 -0.144497 0.000000
vt -0.277321 -0.010000 0.000000
vt -0.400000 -0.000000 0.000000
vt -0.280000 -0.000000 0.000000
vt -0.277321 0.010000 0.000000
vt -0.270000 -0.017321 0.000000
vt -0.295604 -0.269478 0.000000
vt -0.178295 -0.358065 0.000000
vt 0.146314 -0.257679 0.000000
vt -0.036907 -0.398294 0.000000
vt 0.109465 -0.384730 0.000000
vt 0.156314 -0.260359 0.000000
vt 0.241054 -0.319207 0.000000
vt 0.166314 -0.257679 0.000000
vt 0.173634 -0.250359 0.000000
vt 0.176314 -0.240359 0.000000
vt 0.340087 -0.210573 0.000000
vt 0.393189 -0.073500 0.000000
vt 0.393189 0.073500 0.000000
vt 0.176314 0.240359 0.000000
vt 0.340087 0.210573 0.000000
vt 0.241054 0.319207 0.000000
vt 0.109465 0.384730 0.000000
vt 0.156314 0.260359 0.000000
vt 0.166314 0.257679 0.000000
vt 0.173634 0.250359 0.000000
vt 0.146314 0.257679 0.000000
vt -0.036907 0.398294 0.000000
vt -0.178295 0.358065 0.000000
vt -0.270000 0.017321 0.000000
vt -0.295604 0.269478 0.000000
vt -0.372989 0.144497 0.000000
vt 0.000000 -0.020944 0.000000
vt 0.020000 -0.020944 0.000000
vt 0.000000 -0.010472 0.000000
vt 0.020000 -0.010472 0.000000
vt -0.000000 0.000000 0.000000
vt 0.020000 0.000000 0.000000
vt -0.000000 0.010472 0.000000
vt 0.020000 0.010472 0.000000
vt -0.000000 0.020944 0.000000
vt 0.020000 0.020944 0.000000
vt -0.034641 0.020000 0.000000
vt -0.515359 0.020000 0.000000
vt -0.034641 -0.000000 0.000000
vt -0.515359 -0.000000 0.000000
vt -0.000000 -0.020944 0.000000
vt 0.020000 -0.020944 0.000000
vt -0.000000 -0.010472 0.000000
vt 0.020000 -0.010472 0.000000
vt -0.000000 -0.000000 0.000000
vt 0.020000 -0.000000 0.000000
vt -0.000000 0.010472 0.000000
vt 0.020000 0.010472 0.000000
vt -0.000000 0.020944 0.000000
vt 0.020000 0.020944 0.000000
vt -0.034641 0.020000 0.000000
vt -0.515359 0.020000 0.000000
vt -0.034641 -0.000000 0.000000
vt -0.515359 -0.000000 0.000000
vt -0.000000 -0.020944 0.000000
vt 0.020000 -0.020944 0.000000
vt 0.000000 -0.010472 0.000000
vt 0.020000 -0.010472 0.000000
vt 0.000000 0.000000 0.000000
vt 0.020000 -0.000000 0.000000
vt -0.000000 0.010472 0.000000
vt 0.020000 0.010472 0.000000
vt 0.000000 0.020944 0.000000
vt 0.020000 0.020944 0.000000
vt -0.260359 -0.218157 0.000000
vt -0.240359 -0.238157 0.000000
vt -0.257679 -0.208157 0.000000
vt 0.240359 -0.238157 0.000000
vt 0.257679 -0.208157 0.000000
vt 0.260359 -0.218157 0.000000
vt 0.257679 -0.228157 0.000000
vt 0.250359 -0.235477 0.000000
vt -0.257679 -0.228157 0.000000
vt -0.250359 -0.235477 0.000000
vt -0.017321 0.208157 0.000000
vt 0.017321 0.208157 0.000000
vt -0.010000 0.215477 0.000000
vt 0.010000 0.215477 0.000000
vt -0.000000 0.218157 0.000000
vt -0.515359 0.000000 0.000000
vt -0.034641 -0.000000 0.000000
vt -0.515359 0.020000 0.000000
vt -0.034641 0.020000 0.000000
vt 0.422862 0.153909 0.000000
vt -0.422862 0.153909 0.000000
vt 0.450000 0.000000 0.000000
vt -0.450000 -0.000000 0.000000
vt 0.422862 -0.153909 0.000000
vt -0.422862 -0.153909 0.000000
vt 0.344720 -0.289254 0.000000
vt -0.344720 -0.289254 0.000000
vt 0.225000 -0.389711 0.000000
vt -0.225000 -0.389711 0.000000
vt 0.078142 -0.443163 0.000000
vt -0.078142 -0.443163 0.000000
vt -0.344720 0.289254 0.000000
vt 0.344720 0.289254 0.000000
vt -0.225000 0.389711 0.000000
vt 0.225000 0.389711 0.000000
vt -0.078142 0.443163 0.000000
vt 0.078142 0.443163 0.000000
vn 0.093969 0.000060 0.034202
vn 0.085287 -0.049974 0.015126
vn 0.100000 0.000000 0.000000
vn 0.085287 -0.050026 -0.014951
vn 0.093969 -0.000060 -0.034202
vn 0.075000 -0.050075 -0.043214
vn 0.076604 -0.000112 -0.064279
vn 0.055667 -0.050116 -0.066254
vn 0.050000 -0.000151 -0.086602
vn 0.029620 -0.050142 -0.081292
vn 0.017365 -0.000172 -0.098481
vn 0.000000 -0.050151 -0.086515
vn -0.017365 -0.000172 -0.098481
vn -0.029620 -0.050142 -0.081292
vn -0.050000 -0.000151 -0.086602
vn -0.055667 -0.050116 -0.066254
vn -0.076604 -0.000112 -0.064279
vn -0.075000 -0.050075 -0.043214
vn -0.093969 -0.000060 -0.034202
vn -0.085287 -0.050026 -0.014951
vn -0.100000 0.000000 0.000000
vn -0.085287 -0.049974 0.015126
vn -0.093969 0.000060 0.034202
vn -0.075000 -0.049924 0.043388
vn -0.076604 0.000112 0.064279
vn -0.055667 -0.049884 0.066429
vn -0.050000 0.000151 0.086602
vn -0.029620 -0.049858 0.081467
vn -0.017365 0.000172 0.098481
vn 0.000000 -0.049849 0.086690
vn 0.017365 0.000172 0.098481
vn 0.029620 -0.049858 0.081467
vn 0.050000 0.000151 0.086602
vn 0.055667 -0.049884 0.066429
vn 0.076604 0.000112 0.064279
vn 0.075000 -0.049924 0.043388
vn 0.000000 -0.100000 0.000175
vn 0.049240 -0.086618 -0.008531
vn 0.000000 -0.100000 0.000175
vn 0.049240 -0.086587 0.008834
vn -0.000000 -0.100000 0.000175
vn 0.043301 -0.086559 0.025151
vn -0.000000 -0.100000 0.000175
vn 0.032139 -0.086536 0.038453
vn -0.000000 -0.100000 0.000175
vn 0.017101 -0.086520 0.047136
vn -0.000000 -0.100000 0.000175
vn 0.000000 -0.086515 0.050151
vn 0.000000 -0.100000 0.000175
vn -0.017101 -0.086520 0.047136
vn 0.000000 -0.100000 0.000175
vn -0.032139 -0.086536 0.038453
vn 0.000000 -0.100000 0.000175
vn -0.043301 -0.086559 0.025151
vn 0.000000 -0.100000 0.000175
vn -0.049240 -0.086587 0.008834
vn -0.049240 -0.086618 -0.008531
vn 0.043301 -0.086646 -0.024849
vn 0.000000 -0.100000 0.000175
vn 0.032139 -0.086669 -0.038151
vn 0.000000 -0.100000 0.000175
vn 0.017101 -0.086684 -0.046833
vn 0.000000 -0.100000 0.000175
vn 0.000000 -0.086690 -0.049849
vn -0.000000 -0.100000 0.000175
vn -0.017101 -0.086684 -0.046833
vn -0.000000 -0.100000 0.000175
vn -0.032139 -0.086669 -0.038151
vn -0.000000 -0.100000 0.000175
vn -0.043301 -0.086646 -0.024849
vn -0.000000 -0.100000 0.000175
vn 0.093969 0.000060 0.034202
vn 0.100000 0.000000 0.000000
vn 0.093969 -0.000060 -0.034202
vn 0.076604 -0.000112 -0.064279
vn 0.050000 -0.000151 -0.086602
vn 0.017365 -0.000172 -0.098481
vn -0.017365 -0.000172 -0.098481
vn -0.050000 -0.000151 -0.086602
vn -0.076604 -0.000112 -0.064279
vn -0.093969 -0.000060 -0.034202
vn -0.100000 -0.000000 -0.000000
vn -0.093969 0.000060 0.034202
vn -0.076604 0.000112 0.064279
vn -0.050000 0.000151 0.086602
vn -0.017365 0.000172 0.098481
vn 0.017365 0.000172 0.098481
vn 0.050000 0.000151 0.086602
vn 0.076604 0.000112 0.064279
vn 0.000000 -0.100000 0.000175
vn 0.000000 -0.100000 0.000175
vn 0.000000 -0.100000 0.000175
vn 0.000000 -0.100000 0.000175
vn 0.000000 -0.100000 0.000175
vn 0.000000 -0.100000 0.000175
vn 0.000000 -0.100000 0.000175
vn 0.000000 -0.100000 0.000175
vn 0.000000 -0.100000 0.000175
vn 0.000000 -0.100000 0.000175
vn 0.000000 -0.100000 0.000175
vn 0.000000 -0.100000 0.000175
vn 0.000000 -0.100000 0.000175
vn 0.000000 -0.100000 0.000175
vn 0.000000 -0.100000 0.000175
vn 0.100000 0.000000 0.000000
vn 0.100000 0.000000 0.000000
vn 0.086603 -0.000087 -0.050000
vn 0.086603 -0.000087 -0.050000
vn 0.050000 -0.000151 -0.086602
vn 0.050000 -0.000151 -0.086602
vn -0.000000 -0.000175 -0.100000
vn -0.000000 -0.000175 -0.100000
vn -0.050000 -0.000151 -0.086602
vn -0.050000 -0.000151 -0.086602
vn -0.050000 -0.000151 -0.086602
vn -0.050000 -0.000151 -0.086602
vn -0.050000 -0.000151 -0.086602
vn -0.050000 -0.000151 -0.086602
vn -0.086603 -0.000087 -0.050000
vn -0.086603 -0.000087 -0.050000
vn -0.100000 -0.000000 -0.000000
vn -0.100000 -0.000000 -0.000000
vn -0.086603 0.000087 0.050000
vn -0.086603 0.000087 0.050000
vn -0.050000 0.000151 0.086602
vn -0.050000 0.000151 0.086602
vn -0.050000 0.000151 0.086602
vn -0.050000 0.000151 0.086602
vn -0.050000 0.000151 0.086602
vn -0.050000 0.000151 0.086602
vn -0.000000 0.000175 0.100000
vn -0.000000 0.000175 0.100000
vn 0.050000 0.000151 0.086602
vn 0.050000 0.000151 0.086602
vn 0.086603 0.000087 0.050000
vn 0.086603 0.000087 0.050000
vn 0.100000 0.000000 -0.000000
vn 0.100000 0.000000 0.000000
vn 0.000000 -0.100000 0.000175
vn 0.000000 -0.100000 0.000175
vn 0.000000 -0.100000 0.000175
vn 0.000000 -0.100000 0.000175
vn 0.000000 -0.100000 0.000175
vn 0.000000 -0.100000 0.000175
vn 0.000000 -0.100000 0.000175
vn 0.000000 -0.100000 0.000175
vn 0.000000 -0.100000 0.000175
vn 0.000000 -0.100000 0.000175
vn 0.000000 -0.100000 0.000175
vn 0.000000 -0.100000 0.000175
vn 0.000000 -0.100000 0.000175
vn 0.000000 -0.100000 0.000175
vn 0.000000 -0.100000 0.000175
vn -0.000000 0.100000 -0.000175
vn -0.000000 0.100000 -0.000175
vn -0.000000 0.100000 -0.000175
vn -0.000000 0.100000 -0.000175
vn -0.000000 0.100000 -0.000175
vn -0.000000 0.100000 -0.000175
vn -0.000000 0.100000 -0.000175
vn -0.000000 0.100000 -0.000175
vn -0.000000 0.100000 -0.000175
vn -0.000000 0.100000 -0.000175
vn -0.000000 0.100000 -0.000175
vn -0.000000 0.100000 -0.000175
vn -0.000000 0.100000 -0.000175
vn -0.000000 0.100000 -0.000175
vn -0.000000 0.100000 -0.000175
vn -0.000000 0.100000 -0.000175
vn -0.000000 0.100000 -0.000175
vn -0.000000 0.100000 -0.000175
usemtl Opaque(232,173,35)
f 2/1/1 39/2/2 1/3/3
f 1/3/3 39/2/2 42/4/4
f 1/3/3 42/4/4 18/5/5
f 18/5/5 42/4/4 70/6/6
f 18/5/5 70/6/6 17/7/7
f 17/7/7 70/6/6 68/8/8
f 17/7/7 68/8/8 16/9/9
f 16/9/9 68/8/8 66/10/10
f 16/9/9 66/10/10 15/11/11
f 15/11/11 66/10/10 36/12/12
f 15/11/11 36/12/12 14/13/13
f 14/14/13 36/15/12 64/16/14
f 14/14/13 64/16/14 13/17/15
f 13/17/15 64/16/14 62/18/16
f 13/17/15 62/18/16 12/19/17
f 12/19/17 62/18/16 60/20/18
f 12/19/17 60/20/18 11/21/19
f 11/21/19 60/20/18 59/22/20
f 11/21/19 59/22/20 10/23/21
f 10/23/21 59/22/20 57/24/22
f 10/23/21 57/24/22 9/25/23
f 9/25/23 57/24/22 55/26/24
f 9/25/23 55/26/24 8/27/25
f 8/27/25 55/26/24 53/28/26
f 8/27/25 53/28/26 7/29/27
f 7/29/27 53/28/26 51/30/28
f 7/29/27 51/30/28 6/31/29
f 6/31/29 51/30/28 49/32/30
f 6/31/29 49/32/30 5/33/31
f 5/33/31 49/32/30 47/34/32
f 5/33/31 47/34/32 4/35/33
f 4/35/33 47/34/32 45/36/34
f 4/35/33 45/36/34 3/37/35
f 3/37/35 45/36/34 43/38/36
f 3/37/35 43/38/36 2/1/1
f 2/1/1 43/38/36 39/2/2
f 20/39/37 41/40/38 19/41/39
f 19/41/39 41/40/38 40/42/40
f 19/41/39 40/42/40 35/43/41
f 35/43/41 40/42/40 44/44/42
f 35/43/41 44/44/42 34/45/43
f 34/45/43 44/44/42 46/46/44
f 34/45/43 46/46/44 33/47/45
f 33/47/45 46/46/44 48/48/46
f 33/47/45 48/48/46 32/49/47
f 32/49/47 48/48/46 50/50/48
f 32/49/47 50/50/48 31/51/49
f 31/51/49 50/50/48 52/52/50
f 31/51/49 52/52/50 30/53/51
f 30/53/51 52/52/50 54/54/52
f 30/53/51 54/54/52 29/55/53
f 29/55/53 54/54/52 56/56/54
f 29/55/53 56/56/54 28/57/55
f 28/57/55 56/56/54 58/58/56
f 28/57/55 58/58/56 38/59/57
f 38/59/57 58/58/56 57/24/22
f 38/59/57 57/24/22 59/22/20
f 41/40/38 20/39/37 71/60/58
f 71/60/58 20/39/37 21/61/59
f 71/60/58 21/61/59 69/62/60
f 69/62/60 21/61/59 22/63/61
f 69/62/60 22/63/61 67/64/62
f 67/64/62 22/63/61 23/65/63
f 67/64/62 23/65/63 37/66/64
f 37/67/64 23/68/63 24/69/65
f 37/67/64 24/69/65 65/70/66
f 65/70/66 24/69/65 25/71/67
f 65/70/66 25/71/67 63/72/68
f 63/72/68 25/71/67 26/73/69
f 63/72/68 26/73/69 61/74/70
f 61/74/70 26/73/69 27/75/71
f 61/74/70 27/75/71 38/59/57
f 38/59/57 27/75/71 28/57/55
f 36/15/12 37/67/64 64/16/14
f 64/16/14 37/67/64 65/70/66
f 64/16/14 65/70/66 62/18/16
f 62/18/16 65/70/66 63/72/68
f 62/18/16 63/72/68 60/20/18
f 60/20/18 63/72/68 61/74/70
f 60/20/18 61/74/70 59/22/20
f 59/22/20 61/74/70 38/59/57
f 37/66/64 36/12/12 67/64/62
f 67/64/62 36/12/12 66/10/10
f 67/64/62 66/10/10 69/62/60
f 69/62/60 66/10/10 68/8/8
f 69/62/60 68/8/8 71/60/58
f 71/60/58 68/8/8 70/6/6
f 71/60/58 70/6/6 41/40/38
f 41/40/38 70/6/6 42/4/4
f 41/40/38 42/4/4 40/42/40
f 40/42/40 42/4/4 39/2/2
f 40/42/40 39/2/2 44/44/42
f 44/44/42 39/2/2 43/38/36
f 44/44/42 43/38/36 46/46/44
f 46/46/44 43/38/36 45/36/34
f 46/46/44 45/36/34 48/48/46
f 48/48/46 45/36/34 47/34/32
f 48/48/46 47/34/32 50/50/48
f 50/50/48 47/34/32 49/32/30
f 50/50/48 49/32/30 52/52/50
f 52/52/50 49/32/30 51/30/28
f 52/52/50 51/30/28 54/54/52
f 54/54/52 51/30/28 53/28/26
f 54/54/52 53/28/26 56/56/54
f 56/56/54 53/28/26 55/26/24
f 56/56/54 55/26/24 58/58/56
f 58/58/56 55/26/24 57/24/22
f 73/76/72 2/77/1 72/78/73
f 72/78/73 2/77/1 1/79/3
f 72/80/73 1/81/3 89/82/74
f 89/82/74 1/81/3 18/83/5
f 89/82/74 18/83/5 88/84/75
f 88/84/75 18/83/5 17/85/7
f 88/84/75 17/85/7 87/86/76
f 87/86/76 17/85/7 16/87/9
f 87/86/76 16/87/9 86/88/77
f 86/88/77 16/87/9 15/89/11
f 86/88/77 15/89/11 85/90/78
f 85/90/78 15/89/11 14/91/13
f 85/90/78 14/91/13 84/92/79
f 84/92/79 14/91/13 13/93/15
f 84/92/79 13/93/15 83/94/80
f 83/94/80 13/93/15 12/95/17
f 83/94/80 12/95/17 82/96/81
f 82/96/81 12/95/17 11/97/19
f 82/96/81 11/97/19 81/98/82
f 81/98/82 11/97/19 10/99/21
f 81/98/82 10/99/21 80/100/83
f 80/100/83 10/99/21 9/101/23
f 80/100/83 9/101/23 79/102/84
f 79/102/84 9/101/23 8/103/25
f 79/102/84 8/103/25 78/104/85
f 78/104/85 8/103/25 7/105/27
f 78/104/85 7/105/27 77/106/86
f 77/106/86 7/105/27 6/107/29
f 77/106/86 6/107/29 76/108/87
f 76/108/87 6/107/29 5/109/31
f 76/108/87 5/109/31 75/110/88
f 75/110/88 5/109/31 4/111/33
f 75/110/88 4/111/33 74/112/89
f 74/112/89 4/111/33 3/113/35
f 74/112/89 3/113/35 73/76/72
f 73/76/72 3/113/35 2/77/1
f 35/114/41 102/115/90 19/116/39
f 19/116/39 102/115/90 103/117/91
f 19/116/39 103/117/91 104/118/92
f 102/115/90 35/114/41 101/119/93
f 101/119/93 35/114/41 34/120/43
f 101/119/93 34/120/43 33/121/45
f 101/119/93 33/121/45 100/122/94
f 100/122/94 33/121/45 32/123/47
f 100/122/94 32/123/47 31/124/49
f 100/122/94 31/124/49 99/125/95
f 99/125/95 31/124/49 30/126/51
f 99/125/95 30/126/51 98/127/96
f 98/127/96 30/126/51 97/128/97
f 97/128/97 30/126/51 96/129/98
f 96/129/98 30/126/51 29/130/53
f 96/129/98 29/130/53 28/131/55
f 28/131/55 27/132/71 96/129/98
f 96/129/98 27/132/71 95/133/99
f 95/133/99 27/132/71 26/134/69
f 95/133/99 26/134/69 25/135/67
f 24/136/65 92/137/100 25/135/67
f 25/135/67 92/137/100 93/138/101
f 25/135/67 93/138/101 94/139/102
f 92/137/100 24/136/65 91/140/103
f 91/140/103 24/136/65 23/141/63
f 91/140/103 23/141/63 22/142/61
f 91/140/103 22/142/61 90/143/104
f 90/143/104 22/142/61 21/144/59
f 90/143/104 21/144/59 20/145/37
f 90/143/104 20/145/37 104/118/92
f 104/118/92 20/145/37 19/116/39
f 94/139/102 95/133/99 25/135/67
f 96/146/105 105/147/106 97/148/107
f 97/148/107 105/147/106 106/149/108
f 97/148/107 106/149/108 98/150/109
f 98/150/109 106/149/108 107/151/110
f 98/150/109 107/151/110 99/152/111
f 99/152/111 107/151/110 108/153/112
f 99/152/111 108/153/112 100/154/113
f 100/154/113 108/153/112 109/155/114
f 109/156/114 110/157/115 100/158/113
f 100/158/113 110/157/115 101/159/116
f 101/160/117 110/161/118 102/162/119
f 102/162/119 110/161/118 111/163/120
f 102/162/119 111/163/120 103/164/121
f 103/164/121 111/163/120 112/165/122
f 103/164/121 112/165/122 104/166/123
f 104/166/123 112/165/122 113/167/124
f 104/166/123 113/167/124 90/168/125
f 90/168/125 113/167/124 114/169/126
f 114/170/127 115/171/128 90/172/129
f 90/172/129 115/171/128 91/173/130
f 91/174/130 115/175/128 92/176/131
f 92/176/131 115/175/128 116/177/132
f 92/176/131 116/177/132 93/178/133
f 93/178/133 116/177/132 117/179/134
f 93/178/133 117/179/134 94/180/135
f 94/180/135 117/179/134 118/181/136
f 94/180/135 118/181/136 95/182/137
f 95/182/137 118/181/136 119/183/138
f 108/184/139 105/185/140 109/186/141
f 109/186/141 105/185/140 119/187/142
f 109/186/141 119/187/142 115/188/143
f 115/188/143 119/187/142 116/189/144
f 116/189/144 119/187/142 117/190/145
f 117/190/145 119/187/142 118/191/146
f 108/184/139 107/192/147 105/185/140
f 105/185/140 107/192/147 106/193/148
f 109/186/141 115/188/143 110/194/149
f 110/194/149 115/188/143 114/195/150
f 110/194/149 114/195/150 111/196/151
f 111/196/151 114/195/150 113/197/152
f 111/196/151 113/197/152 112/198/153
f 96/199/105 95/200/137 105/201/106
f 105/201/106 95/200/137 119/202/138
f 89/203/154 82/204/155 72/205/156
f 72/205/156 82/204/155 81/206/157
f 72/205/156 81/206/157 73/207/158
f 73/207/158 81/206/157 80/208/159
f 73/207/158 80/208/159 74/209/160
f 74/209/160 80/208/159 79/210/161
f 74/209/160 79/210/161 75/211/162
f 75/211/162 79/210/161 78/212/163
f 75/211/162 78/212/163 76/213/164
f 76/213/164 78/212/163 77/214/165
f 82/204/155 89/203/154 83/215/166
f 83/215/166 89/203/154 88/216/167
f 83/215/166 88/216/167 84/217/168
f 84/217/168 88/216/167 87/218/169
f 84/217/168 87/218/169 85/219/170
f 85/219/170 87/218/169 86/220/171
# 119 vertices
# 220 texture params
# 171 normals
# 234 facets

# 1 groups
