# WaveFront *.obj file (generated by Autodesk ATF)

mtllib N64 v18_N64 v18_Y.mtl

g Y

v 55.980274 -10.789840 18.036869
v 55.708891 -10.787154 19.575957
v 54.927474 -10.784792 20.929409
v 53.730274 -10.783038 21.933977
v 52.261691 -10.782105 22.468497
v 50.698857 -10.782105 22.468497
v 49.230274 -10.783038 21.933977
v 48.033074 -10.784792 20.929409
v 47.251657 -10.787154 19.575957
v 46.980274 -10.789840 18.036869
v 47.251657 -10.792526 16.497781
v 48.033074 -10.794889 15.144329
v 49.230274 -10.796642 14.139760
v 50.698857 -10.797575 13.605241
v 52.261691 -10.797575 13.605241
v 53.730274 -10.796642 14.139760
v 54.927474 -10.794889 15.144329
v 55.708891 -10.792526 16.497781
v 55.480274 -11.289839 18.037742
v 55.210163 -11.292361 16.592777
v 54.436310 -11.294543 15.342963
v 53.263228 -11.296089 14.457094
v 51.849348 -11.296791 14.054811
v 50.385622 -11.296554 14.190445
v 49.069736 -11.295411 14.845677
v 48.079406 -11.293515 15.932016
v 47.548382 -11.291122 17.302745
v 47.548382 -11.288557 18.772738
v 48.079406 -11.286164 20.143467
v 49.069736 -11.284268 21.229806
v 50.385622 -11.283125 21.885038
v 51.849348 -11.282888 22.020672
v 53.263228 -11.283590 21.618389
v 54.436310 -11.285136 20.732520
v 55.210163 -11.287317 19.482706
v 51.480274 -11.047577 13.604299
v 51.480274 -11.230270 13.787631
v 47.294841 -11.224140 17.299621
v 55.845940 -11.038496 18.807089
v 55.665707 -11.221564 18.775628
v 55.665707 -11.224140 17.299621
v 55.845940 -11.041183 17.267522
v 55.319376 -11.035971 20.253808
v 55.160882 -11.219143 20.162621
v 54.329760 -11.033913 21.433185
v 54.212122 -11.217170 21.293309
v 52.996454 -11.032569 22.202968
v 52.933860 -11.215882 22.031312
v 51.480274 -11.032103 22.470311
v 51.480274 -11.215435 22.287618
v 49.964095 -11.032569 22.202968
v 50.026689 -11.215882 22.031312
v 48.630789 -11.033913 21.433185
v 48.748427 -11.217170 21.293309
v 47.641173 -11.035971 20.253808
v 47.799666 -11.219143 20.162621
v 47.114609 -11.038496 18.807089
v 47.294841 -11.221564 18.775628
v 47.114609 -11.041183 17.267522
v 47.641173 -11.043708 15.820802
v 47.799666 -11.226561 15.912628
v 48.630789 -11.045767 14.641426
v 48.748427 -11.228534 14.781941
v 49.964095 -11.047110 13.871642
v 50.026689 -11.229822 14.043937
v 52.996454 -11.047110 13.871642
v 52.933860 -11.229822 14.043937
v 54.329760 -11.045767 14.641426
v 54.212122 -11.228534 14.781941
v 55.319376 -11.043708 15.820802
v 55.160882 -11.226561 15.912628
v 55.980274 0.054223 18.017942
v 55.708891 0.056909 19.557031
v 54.927474 0.059271 20.910482
v 53.730274 0.061024 21.915051
v 52.261691 0.061957 22.449571
v 50.698857 0.061957 22.449571
v 49.230274 0.061024 21.915051
v 48.033074 0.059271 20.910482
v 47.251657 0.056909 19.557031
v 46.980274 0.054223 18.017942
v 47.251657 0.051536 16.478854
v 48.033074 0.049174 15.125403
v 49.230274 0.047421 14.120834
v 50.698857 0.046488 13.586314
v 52.261691 0.046488 13.586314
v 53.730274 0.047421 14.120834
v 54.927474 0.049174 15.125403
v 55.708891 0.051536 16.478854
v 51.653479 -11.285127 20.737737
v 54.057069 -11.292393 16.574604
v 54.083864 -11.292568 16.474604
v 54.057069 -11.292742 16.374604
v 53.983864 -11.292870 16.301399
v 53.883864 -11.292917 16.274604
v 49.076684 -11.292917 16.274604
v 48.976684 -11.292870 16.301399
v 48.903479 -11.292742 16.374604
v 48.876684 -11.292568 16.474604
v 48.903479 -11.292393 16.574604
v 51.307069 -11.285127 20.737737
v 51.380274 -11.284999 20.810942
v 51.480274 -11.284952 20.837737
v 51.580274 -11.284999 20.810942
v 49.076684 -11.092917 16.274255
v 48.976684 -11.092870 16.301050
v 48.903479 -11.092742 16.374255
v 48.876684 -11.092568 16.474255
v 48.903479 -11.092393 16.574255
v 51.307069 -11.085127 20.737388
v 51.380274 -11.085000 20.810593
v 51.480274 -11.084953 20.837388
v 51.580274 -11.085000 20.810593
v 51.653479 -11.085127 20.737388
v 54.057069 -11.092393 16.574255
v 54.083864 -11.092568 16.474255
v 54.057069 -11.092742 16.374255
v 53.983864 -11.092870 16.301050
v 53.883864 -11.092917 16.274255
vt -0.000000 -0.531887 0.000000
vt -0.026180 -0.607871 0.000000
vt -0.000000 -0.683855 0.000000
vt -0.026180 -0.759838 0.000000
vt 0.000000 -0.835822 0.000000
vt -0.026180 -0.911806 0.000000
vt -0.000000 -0.987790 0.000000
vt -0.026180 -1.063774 0.000000
vt 0.000000 -1.139758 0.000000
vt -0.026180 -1.215741 0.000000
vt 0.000000 -1.291725 0.000000
vt -0.026180 -1.367709 0.000000
vt 0.000000 -1.443693 0.000000
vt 0.000000 1.291725 0.000000
vt -0.026180 1.367709 0.000000
vt -0.026180 1.215741 0.000000
vt 0.000000 1.139758 0.000000
vt -0.026180 1.063774 0.000000
vt 0.000000 0.987790 0.000000
vt -0.026180 0.911806 0.000000
vt 0.000000 0.835822 0.000000
vt -0.026180 0.759838 0.000000
vt 0.000000 0.683855 0.000000
vt -0.026180 0.607871 0.000000
vt -0.000000 0.531887 0.000000
vt -0.026180 0.455903 0.000000
vt 0.000000 0.379919 0.000000
vt -0.026180 0.303935 0.000000
vt -0.000000 0.227952 0.000000
vt -0.026180 0.151968 0.000000
vt -0.000000 0.075984 0.000000
vt -0.026180 0.000000 0.000000
vt -0.000000 -0.075984 0.000000
vt -0.026180 -0.151968 0.000000
vt -0.000000 -0.227952 0.000000
vt -0.026180 -0.303935 0.000000
vt -0.000000 -0.379919 0.000000
vt -0.026180 -0.455903 0.000000
vt -0.078540 -0.844762 0.000000
vt -0.052360 -0.759838 0.000000
vt -0.078540 -0.683855 0.000000
vt -0.052360 -0.607871 0.000000
vt -0.078540 -0.522948 0.000000
vt -0.052360 -0.455903 0.000000
vt -0.078540 -0.362041 0.000000
vt -0.052360 -0.303935 0.000000
vt -0.078540 -0.201134 0.000000
vt -0.052360 -0.151968 0.000000
vt -0.078540 -0.040227 0.000000
vt -0.052360 0.000000 0.000000
vt -0.078540 0.120680 0.000000
vt -0.052360 0.151968 0.000000
vt -0.078540 0.281587 0.000000
vt -0.052360 0.303935 0.000000
vt -0.078540 0.442494 0.000000
vt -0.052360 0.455903 0.000000
vt -0.078540 0.603401 0.000000
vt -0.052360 0.607871 0.000000
vt -0.052360 0.759838 0.000000
vt -0.052360 -0.911806 0.000000
vt -0.078540 -1.005668 0.000000
vt -0.052360 -1.063774 0.000000
vt -0.078540 -1.166575 0.000000
vt -0.052360 -1.215741 0.000000
vt -0.078540 -1.327482 0.000000
vt -0.052360 -1.367709 0.000000
vt -0.052360 1.367709 0.000000
vt -0.078540 1.407936 0.000000
vt -0.078540 1.247029 0.000000
vt -0.052360 1.215741 0.000000
vt -0.078540 1.086122 0.000000
vt -0.052360 1.063774 0.000000
vt -0.078540 0.925215 0.000000
vt -0.052360 0.911806 0.000000
vt -0.078540 0.764308 0.000000
vt 0.834408 -1.256637 0.000000
vt -0.250000 -1.256637 0.000000
vt 0.834408 -1.413717 0.000000
vt -0.250000 -1.413717 0.000000
vt 0.834408 1.413717 0.000000
vt -0.250000 1.413717 0.000000
vt 0.834408 1.256637 0.000000
vt -0.250000 1.256637 0.000000
vt 0.834408 1.099557 0.000000
vt -0.250000 1.099557 0.000000
vt 0.834408 0.942478 0.000000
vt -0.250000 0.942478 0.000000
vt 0.834408 0.785398 0.000000
vt -0.250000 0.785398 0.000000
vt 0.834408 0.628319 0.000000
vt -0.250000 0.628319 0.000000
vt 0.834408 0.471239 0.000000
vt -0.250000 0.471239 0.000000
vt 0.834408 0.314159 0.000000
vt -0.250000 0.314159 0.000000
vt 0.834408 0.157080 0.000000
vt -0.250000 0.157080 0.000000
vt 0.834408 0.000000 0.000000
vt -0.250000 -0.000000 0.000000
vt 0.834408 -0.157080 0.000000
vt -0.250000 -0.157080 0.000000
vt 0.834408 -0.314159 0.000000
vt -0.250000 -0.314159 0.000000
vt 0.834408 -0.471239 0.000000
vt -0.250000 -0.471239 0.000000
vt 0.834408 -0.628319 0.000000
vt -0.250000 -0.628319 0.000000
vt 0.834408 -0.785398 0.000000
vt -0.250000 -0.785398 0.000000
vt 0.834408 -0.942478 0.000000
vt -0.250000 -0.942478 0.000000
vt 0.834408 -1.099557 0.000000
vt -0.250000 -1.099557 0.000000
vt -0.372989 0.144497 0.000000
vt -0.400000 0.000000 0.000000
vt -0.257679 0.146314 0.000000
vt -0.372989 -0.144497 0.000000
vt -0.017321 -0.270000 0.000000
vt -0.295604 -0.269478 0.000000
vt -0.178295 -0.358065 0.000000
vt -0.036907 -0.398294 0.000000
vt -0.010000 -0.277321 0.000000
vt -0.000000 -0.280000 0.000000
vt 0.010000 -0.277321 0.000000
vt 0.109465 -0.384730 0.000000
vt 0.017321 -0.270000 0.000000
vt 0.241054 -0.319207 0.000000
vt 0.340087 -0.210573 0.000000
vt 0.257679 0.146314 0.000000
vt 0.393189 -0.073500 0.000000
vt 0.393189 0.073500 0.000000
vt 0.260359 0.156314 0.000000
vt 0.340087 0.210573 0.000000
vt 0.257679 0.166314 0.000000
vt 0.250359 0.173634 0.000000
vt 0.241054 0.319207 0.000000
vt 0.240359 0.176314 0.000000
vt 0.109465 0.384730 0.000000
vt -0.036907 0.398294 0.000000
vt -0.240359 0.176314 0.000000
vt -0.178295 0.358065 0.000000
vt -0.295604 0.269478 0.000000
vt -0.257679 0.166314 0.000000
vt -0.250359 0.173634 0.000000
vt -0.260359 0.156314 0.000000
vt -0.000000 -0.020944 0.000000
vt 0.020000 -0.020944 0.000000
vt -0.000000 -0.010472 0.000000
vt 0.020000 -0.010472 0.000000
vt -0.000000 -0.000000 0.000000
vt 0.020000 -0.000000 0.000000
vt 0.000000 0.010472 0.000000
vt 0.020000 0.010472 0.000000
vt -0.000000 0.020944 0.000000
vt 0.020000 0.020944 0.000000
vt -0.034641 0.020000 0.000000
vt -0.515359 0.020000 0.000000
vt -0.034641 -0.000000 0.000000
vt -0.515359 0.000000 0.000000
vt 0.000000 -0.020944 0.000000
vt 0.020000 -0.020944 0.000000
vt -0.000000 -0.010472 0.000000
vt 0.020000 -0.010472 0.000000
vt 0.000000 0.000000 0.000000
vt 0.020000 0.000000 0.000000
vt -0.000000 0.010472 0.000000
vt 0.020000 0.010472 0.000000
vt 0.000000 0.020944 0.000000
vt 0.020000 0.020944 0.000000
vt -0.034641 0.020000 0.000000
vt -0.515359 0.020000 0.000000
vt -0.034641 0.000000 0.000000
vt -0.515359 -0.000000 0.000000
vt -0.000000 -0.020944 0.000000
vt 0.020000 -0.020944 0.000000
vt -0.000000 -0.010472 0.000000
vt 0.020000 -0.010472 0.000000
vt -0.000000 0.000000 0.000000
vt 0.020000 0.000000 0.000000
vt -0.000000 0.010472 0.000000
vt 0.020000 0.010472 0.000000
vt -0.000000 0.020944 0.000000
vt 0.020000 0.020944 0.000000
vt -0.260359 -0.218157 0.000000
vt -0.240359 -0.238157 0.000000
vt -0.257679 -0.208157 0.000000
vt 0.240359 -0.238157 0.000000
vt 0.257679 -0.208157 0.000000
vt 0.260359 -0.218157 0.000000
vt 0.257679 -0.228157 0.000000
vt 0.250359 -0.235477 0.000000
vt -0.257679 -0.228157 0.000000
vt -0.250359 -0.235477 0.000000
vt -0.017321 0.208157 0.000000
vt 0.017321 0.208157 0.000000
vt -0.010000 0.215477 0.000000
vt 0.010000 0.215477 0.000000
vt 0.000000 0.218157 0.000000
vt -0.515359 0.000000 0.000000
vt -0.034641 0.000000 0.000000
vt -0.515359 0.020000 0.000000
vt -0.034641 0.020000 0.000000
vt 0.422862 0.153909 0.000000
vt -0.422862 0.153909 0.000000
vt 0.450000 0.000000 0.000000
vt -0.450000 0.000000 0.000000
vt 0.422862 -0.153909 0.000000
vt -0.422862 -0.153909 0.000000
vt 0.344720 -0.289254 0.000000
vt -0.344720 -0.289254 0.000000
vt 0.225000 -0.389711 0.000000
vt -0.225000 -0.389711 0.000000
vt 0.078142 -0.443163 0.000000
vt -0.078142 -0.443163 0.000000
vt -0.344720 0.289254 0.000000
vt 0.344720 0.289254 0.000000
vt -0.225000 0.389711 0.000000
vt 0.225000 0.389711 0.000000
vt -0.078142 0.443163 0.000000
vt 0.078142 0.443163 0.000000
vn 0.093969 0.000060 0.034202
vn 0.085287 -0.049974 0.015126
vn 0.100000 -0.000000 0.000000
vn 0.085287 -0.050026 -0.014951
vn 0.093969 -0.000060 -0.034202
vn 0.075000 -0.050075 -0.043214
vn 0.076604 -0.000112 -0.064279
vn 0.055667 -0.050116 -0.066254
vn 0.050000 -0.000151 -0.086602
vn 0.029620 -0.050142 -0.081292
vn 0.017365 -0.000172 -0.098481
vn 0.000000 -0.050151 -0.086515
vn -0.017365 -0.000172 -0.098481
vn -0.029620 -0.050142 -0.081292
vn -0.050000 -0.000151 -0.086602
vn -0.055667 -0.050116 -0.066254
vn -0.076604 -0.000112 -0.064279
vn -0.075000 -0.050075 -0.043214
vn -0.093969 -0.000060 -0.034202
vn -0.085287 -0.050026 -0.014951
vn -0.100000 0.000000 0.000000
vn -0.085287 -0.049974 0.015126
vn -0.093969 0.000060 0.034202
vn -0.075000 -0.049924 0.043388
vn -0.076604 0.000112 0.064279
vn -0.055667 -0.049884 0.066429
vn -0.050000 0.000151 0.086602
vn -0.029620 -0.049858 0.081467
vn -0.017365 0.000172 0.098481
vn 0.000000 -0.049849 0.086690
vn 0.017365 0.000172 0.098481
vn 0.029620 -0.049858 0.081467
vn 0.050000 0.000151 0.086602
vn 0.055667 -0.049884 0.066429
vn 0.076604 0.000112 0.064279
vn 0.075000 -0.049924 0.043388
vn 0.000000 -0.100000 0.000175
vn 0.049240 -0.086618 -0.008531
vn 0.000000 -0.100000 0.000175
vn 0.049240 -0.086587 0.008834
vn -0.000000 -0.100000 0.000175
vn 0.043301 -0.086559 0.025151
vn -0.000000 -0.100000 0.000175
vn 0.032139 -0.086536 0.038453
vn -0.000000 -0.100000 0.000175
vn 0.017101 -0.086520 0.047136
vn -0.000000 -0.100000 0.000175
vn 0.000000 -0.086515 0.050151
vn 0.000000 -0.100000 0.000175
vn -0.017101 -0.086520 0.047136
vn 0.000000 -0.100000 0.000175
vn -0.032139 -0.086536 0.038453
vn 0.000000 -0.100000 0.000175
vn -0.043301 -0.086559 0.025151
vn 0.000000 -0.100000 0.000175
vn -0.049240 -0.086587 0.008834
vn -0.049240 -0.086618 -0.008531
vn 0.043301 -0.086646 -0.024849
vn 0.000000 -0.100000 0.000175
vn 0.032139 -0.086669 -0.038151
vn 0.000000 -0.100000 0.000175
vn 0.017101 -0.086684 -0.046833
vn 0.000000 -0.100000 0.000175
vn 0.000000 -0.086690 -0.049849
vn -0.000000 -0.100000 0.000175
vn -0.017101 -0.086684 -0.046833
vn -0.000000 -0.100000 0.000175
vn -0.032139 -0.086669 -0.038151
vn -0.000000 -0.100000 0.000175
vn -0.043301 -0.086646 -0.024849
vn -0.000000 -0.100000 0.000175
vn 0.093969 0.000060 0.034202
vn 0.100000 0.000000 0.000000
vn 0.093969 -0.000060 -0.034202
vn 0.076604 -0.000112 -0.064279
vn 0.050000 -0.000151 -0.086602
vn 0.017365 -0.000172 -0.098481
vn -0.017365 -0.000172 -0.098481
vn -0.050000 -0.000151 -0.086602
vn -0.076604 -0.000112 -0.064279
vn -0.093969 -0.000060 -0.034202
vn -0.100000 -0.000000 -0.000000
vn -0.093969 0.000060 0.034202
vn -0.076604 0.000112 0.064279
vn -0.050000 0.000151 0.086602
vn -0.017365 0.000172 0.098481
vn 0.017365 0.000172 0.098481
vn 0.050000 0.000151 0.086602
vn 0.076604 0.000112 0.064279
vn 0.000000 -0.100000 0.000175
vn 0.000000 -0.100000 0.000175
vn 0.000000 -0.100000 0.000175
vn 0.000000 -0.100000 0.000175
vn 0.000000 -0.100000 0.000175
vn 0.000000 -0.100000 0.000175
vn 0.000000 -0.100000 0.000175
vn 0.000000 -0.100000 0.000175
vn 0.000000 -0.100000 0.000175
vn 0.000000 -0.100000 0.000175
vn 0.000000 -0.100000 0.000175
vn 0.000000 -0.100000 0.000175
vn 0.000000 -0.100000 0.000175
vn 0.000000 -0.100000 0.000175
vn 0.000000 -0.100000 0.000175
vn -0.000000 0.000175 0.100000
vn -0.000000 0.000175 0.100000
vn 0.050000 0.000151 0.086602
vn 0.050000 0.000151 0.086602
vn 0.086603 0.000087 0.050000
vn 0.086603 0.000087 0.050000
vn 0.100000 0.000000 0.000000
vn 0.100000 0.000000 0.000000
vn 0.086603 -0.000087 -0.050000
vn 0.086603 -0.000087 -0.050000
vn 0.086603 -0.000087 -0.050000
vn 0.086603 -0.000087 -0.050000
vn 0.086603 -0.000087 -0.050000
vn 0.086603 -0.000087 -0.050000
vn 0.086603 -0.000087 -0.050000
vn 0.050000 -0.000151 -0.086602
vn 0.050000 -0.000151 -0.086602
vn -0.000000 -0.000175 -0.100000
vn -0.000000 -0.000175 -0.100000
vn -0.050000 -0.000151 -0.086602
vn -0.050000 -0.000151 -0.086602
vn -0.086603 -0.000087 -0.050000
vn -0.086603 -0.000087 -0.050000
vn -0.086603 -0.000087 -0.050000
vn -0.086603 -0.000087 -0.050000
vn -0.086603 -0.000087 -0.050000
vn -0.086603 -0.000087 -0.050000
vn -0.100000 -0.000000 0.000000
vn -0.100000 0.000000 0.000000
vn -0.086603 0.000087 0.050000
vn -0.086603 0.000087 0.050000
vn -0.050000 0.000151 0.086602
vn -0.050000 0.000151 0.086602
vn -0.000000 0.000175 0.100000
vn -0.000000 0.000175 0.100000
vn 0.000000 -0.100000 0.000175
vn 0.000000 -0.100000 0.000175
vn 0.000000 -0.100000 0.000175
vn 0.000000 -0.100000 0.000175
vn 0.000000 -0.100000 0.000175
vn 0.000000 -0.100000 0.000175
vn 0.000000 -0.100000 0.000175
vn 0.000000 -0.100000 0.000175
vn 0.000000 -0.100000 0.000175
vn 0.000000 -0.100000 0.000175
vn 0.000000 -0.100000 0.000175
vn 0.000000 -0.100000 0.000175
vn 0.000000 -0.100000 0.000175
vn 0.000000 -0.100000 0.000175
vn 0.000000 -0.100000 0.000175
vn -0.000000 0.100000 -0.000175
vn -0.000000 0.100000 -0.000175
vn -0.000000 0.100000 -0.000175
vn -0.000000 0.100000 -0.000175
vn -0.000000 0.100000 -0.000175
vn -0.000000 0.100000 -0.000175
vn -0.000000 0.100000 -0.000175
vn -0.000000 0.100000 -0.000175
vn -0.000000 0.100000 -0.000175
vn -0.000000 0.100000 -0.000175
vn -0.000000 0.100000 -0.000175
vn -0.000000 0.100000 -0.000175
vn -0.000000 0.100000 -0.000175
vn -0.000000 0.100000 -0.000175
vn -0.000000 0.100000 -0.000175
vn -0.000000 0.100000 -0.000175
vn -0.000000 0.100000 -0.000175
vn -0.000000 0.100000 -0.000175
usemtl Opaque(232,173,35)
f 2/1/1 39/2/2 1/3/3
f 1/3/3 39/2/2 42/4/4
f 1/3/3 42/4/4 18/5/5
f 18/5/5 42/4/4 70/6/6
f 18/5/5 70/6/6 17/7/7
f 17/7/7 70/6/6 68/8/8
f 17/7/7 68/8/8 16/9/9
f 16/9/9 68/8/8 66/10/10
f 16/9/9 66/10/10 15/11/11
f 15/11/11 66/10/10 36/12/12
f 15/11/11 36/12/12 14/13/13
f 14/14/13 36/15/12 64/16/14
f 14/14/13 64/16/14 13/17/15
f 13/17/15 64/16/14 62/18/16
f 13/17/15 62/18/16 12/19/17
f 12/19/17 62/18/16 60/20/18
f 12/19/17 60/20/18 11/21/19
f 11/21/19 60/20/18 59/22/20
f 11/21/19 59/22/20 10/23/21
f 10/23/21 59/22/20 57/24/22
f 10/23/21 57/24/22 9/25/23
f 9/25/23 57/24/22 55/26/24
f 9/25/23 55/26/24 8/27/25
f 8/27/25 55/26/24 53/28/26
f 8/27/25 53/28/26 7/29/27
f 7/29/27 53/28/26 51/30/28
f 7/29/27 51/30/28 6/31/29
f 6/31/29 51/30/28 49/32/30
f 6/31/29 49/32/30 5/33/31
f 5/33/31 49/32/30 47/34/32
f 5/33/31 47/34/32 4/35/33
f 4/35/33 47/34/32 45/36/34
f 4/35/33 45/36/34 3/37/35
f 3/37/35 45/36/34 43/38/36
f 3/37/35 43/38/36 2/1/1
f 2/1/1 43/38/36 39/2/2
f 20/39/37 41/40/38 19/41/39
f 19/41/39 41/40/38 40/42/40
f 19/41/39 40/42/40 35/43/41
f 35/43/41 40/42/40 44/44/42
f 35/43/41 44/44/42 34/45/43
f 34/45/43 44/44/42 46/46/44
f 34/45/43 46/46/44 33/47/45
f 33/47/45 46/46/44 48/48/46
f 33/47/45 48/48/46 32/49/47
f 32/49/47 48/48/46 50/50/48
f 32/49/47 50/50/48 31/51/49
f 31/51/49 50/50/48 52/52/50
f 31/51/49 52/52/50 30/53/51
f 30/53/51 52/52/50 54/54/52
f 30/53/51 54/54/52 29/55/53
f 29/55/53 54/54/52 56/56/54
f 29/55/53 56/56/54 28/57/55
f 28/57/55 56/56/54 58/58/56
f 28/57/55 58/58/56 38/59/57
f 38/59/57 58/58/56 57/24/22
f 38/59/57 57/24/22 59/22/20
f 41/40/38 20/39/37 71/60/58
f 71/60/58 20/39/37 21/61/59
f 71/60/58 21/61/59 69/62/60
f 69/62/60 21/61/59 22/63/61
f 69/62/60 22/63/61 67/64/62
f 67/64/62 22/63/61 23/65/63
f 67/64/62 23/65/63 37/66/64
f 37/67/64 23/68/63 24/69/65
f 37/67/64 24/69/65 65/70/66
f 65/70/66 24/69/65 25/71/67
f 65/70/66 25/71/67 63/72/68
f 63/72/68 25/71/67 26/73/69
f 63/72/68 26/73/69 61/74/70
f 61/74/70 26/73/69 27/75/71
f 61/74/70 27/75/71 38/59/57
f 38/59/57 27/75/71 28/57/55
f 36/15/12 37/67/64 64/16/14
f 64/16/14 37/67/64 65/70/66
f 64/16/14 65/70/66 62/18/16
f 62/18/16 65/70/66 63/72/68
f 62/18/16 63/72/68 60/20/18
f 60/20/18 63/72/68 61/74/70
f 60/20/18 61/74/70 59/22/20
f 59/22/20 61/74/70 38/59/57
f 37/66/64 36/12/12 67/64/62
f 67/64/62 36/12/12 66/10/10
f 67/64/62 66/10/10 69/62/60
f 69/62/60 66/10/10 68/8/8
f 69/62/60 68/8/8 71/60/58
f 71/60/58 68/8/8 70/6/6
f 71/60/58 70/6/6 41/40/38
f 41/40/38 70/6/6 42/4/4
f 41/40/38 42/4/4 40/42/40
f 40/42/40 42/4/4 39/2/2
f 40/42/40 39/2/2 44/44/42
f 44/44/42 39/2/2 43/38/36
f 44/44/42 43/38/36 46/46/44
f 46/46/44 43/38/36 45/36/34
f 46/46/44 45/36/34 48/48/46
f 48/48/46 45/36/34 47/34/32
f 48/48/46 47/34/32 50/50/48
f 50/50/48 47/34/32 49/32/30
f 50/50/48 49/32/30 52/52/50
f 52/52/50 49/32/30 51/30/28
f 52/52/50 51/30/28 54/54/52
f 54/54/52 51/30/28 53/28/26
f 54/54/52 53/28/26 56/56/54
f 56/56/54 53/28/26 55/26/24
f 56/56/54 55/26/24 58/58/56
f 58/58/56 55/26/24 57/24/22
f 73/76/72 2/77/1 72/78/73
f 72/78/73 2/77/1 1/79/3
f 72/80/73 1/81/3 89/82/74
f 89/82/74 1/81/3 18/83/5
f 89/82/74 18/83/5 88/84/75
f 88/84/75 18/83/5 17/85/7
f 88/84/75 17/85/7 87/86/76
f 87/86/76 17/85/7 16/87/9
f 87/86/76 16/87/9 86/88/77
f 86/88/77 16/87/9 15/89/11
f 86/88/77 15/89/11 85/90/78
f 85/90/78 15/89/11 14/91/13
f 85/90/78 14/91/13 84/92/79
f 84/92/79 14/91/13 13/93/15
f 84/92/79 13/93/15 83/94/80
f 83/94/80 13/93/15 12/95/17
f 83/94/80 12/95/17 82/96/81
f 82/96/81 12/95/17 11/97/19
f 82/96/81 11/97/19 81/98/82
f 81/98/82 11/97/19 10/99/21
f 81/98/82 10/99/21 80/100/83
f 80/100/83 10/99/21 9/101/23
f 80/100/83 9/101/23 79/102/84
f 79/102/84 9/101/23 8/103/25
f 79/102/84 8/103/25 78/104/85
f 78/104/85 8/103/25 7/105/27
f 78/104/85 7/105/27 77/106/86
f 77/106/86 7/105/27 6/107/29
f 77/106/86 6/107/29 76/108/87
f 76/108/87 6/107/29 5/109/31
f 76/108/87 5/109/31 75/110/88
f 75/110/88 5/109/31 4/111/33
f 75/110/88 4/111/33 74/112/89
f 74/112/89 4/111/33 3/113/35
f 74/112/89 3/113/35 73/76/72
f 73/76/72 3/113/35 2/77/1
f 20/114/37 19/115/39 91/116/90
f 91/116/90 19/115/39 35/117/41
f 91/116/90 35/117/41 90/118/91
f 90/118/91 35/117/41 34/119/43
f 90/118/91 34/119/43 33/120/45
f 33/120/45 32/121/47 90/118/91
f 90/118/91 32/121/47 104/122/92
f 104/122/92 32/121/47 103/123/93
f 103/123/93 32/121/47 102/124/94
f 102/124/94 32/121/47 31/125/49
f 102/124/94 31/125/49 101/126/95
f 101/126/95 31/125/49 30/127/51
f 101/126/95 30/127/51 29/128/53
f 101/126/95 29/128/53 100/129/96
f 100/129/96 29/128/53 28/130/55
f 100/129/96 28/130/55 27/131/71
f 100/129/96 27/131/71 99/132/97
f 99/132/97 27/131/71 26/133/69
f 99/132/97 26/133/69 98/134/98
f 98/134/98 26/133/69 97/135/99
f 97/135/99 26/133/69 25/136/67
f 97/135/99 25/136/67 96/137/100
f 96/137/100 25/136/67 24/138/65
f 96/137/100 24/138/65 23/139/63
f 96/137/100 23/139/63 95/140/101
f 95/140/101 23/139/63 22/141/61
f 95/140/101 22/141/61 21/142/59
f 20/114/37 93/143/102 21/142/59
f 21/142/59 93/143/102 94/144/103
f 21/142/59 94/144/103 95/140/101
f 91/116/90 92/145/104 20/114/37
f 20/114/37 92/145/104 93/143/102
f 96/146/105 105/147/106 97/148/107
f 97/148/107 105/147/106 106/149/108
f 97/148/107 106/149/108 98/150/109
f 98/150/109 106/149/108 107/151/110
f 98/150/109 107/151/110 99/152/111
f 99/152/111 107/151/110 108/153/112
f 99/152/111 108/153/112 100/154/113
f 100/154/113 108/153/112 109/155/114
f 109/156/115 110/157/116 100/158/113
f 100/158/113 110/157/116 101/159/117
f 101/160/118 110/161/119 102/162/120
f 102/162/120 110/161/119 111/163/121
f 102/162/120 111/163/121 103/164/122
f 103/164/122 111/163/121 112/165/123
f 103/164/122 112/165/123 104/166/124
f 104/166/124 112/165/123 113/167/125
f 104/166/124 113/167/125 90/168/126
f 90/168/126 113/167/125 114/169/127
f 114/170/128 115/171/129 90/172/126
f 90/172/126 115/171/129 91/173/130
f 91/174/130 115/175/131 92/176/132
f 92/176/132 115/175/131 116/177/133
f 92/176/132 116/177/133 93/178/134
f 93/178/134 116/177/133 117/179/135
f 93/178/134 117/179/135 94/180/136
f 94/180/136 117/179/135 118/181/137
f 94/180/136 118/181/137 95/182/138
f 95/182/138 118/181/137 119/183/139
f 108/184/140 105/185/141 109/186/142
f 109/186/142 105/185/141 119/187/143
f 109/186/142 119/187/143 115/188/144
f 115/188/144 119/187/143 116/189/145
f 116/189/145 119/187/143 117/190/146
f 117/190/146 119/187/143 118/191/147
f 108/184/140 107/192/148 105/185/141
f 105/185/141 107/192/148 106/193/149
f 109/186/142 115/188/144 110/194/150
f 110/194/150 115/188/144 114/195/151
f 110/194/150 114/195/151 111/196/152
f 111/196/152 114/195/151 113/197/153
f 111/196/152 113/197/153 112/198/154
f 96/199/105 95/200/138 105/201/106
f 105/201/106 95/200/138 119/202/139
f 89/203/155 82/204/156 72/205/157
f 72/205/157 82/204/156 81/206/158
f 72/205/157 81/206/158 73/207/159
f 73/207/159 81/206/158 80/208/160
f 73/207/159 80/208/160 74/209/161
f 74/209/161 80/208/160 79/210/162
f 74/209/161 79/210/162 75/211/163
f 75/211/163 79/210/162 78/212/164
f 75/211/163 78/212/164 76/213/165
f 76/213/165 78/212/164 77/214/166
f 82/204/156 89/203/155 83/215/167
f 83/215/167 89/203/155 88/216/168
f 83/215/167 88/216/168 84/217/169
f 84/217/169 88/216/168 87/218/170
f 84/217/169 87/218/170 85/219/171
f 85/219/171 87/218/170 86/220/172
# 119 vertices
# 220 texture params
# 172 normals
# 234 facets

# 1 groups
