# WaveFront *.obj file (generated by Autodesk ATF)

mtllib HG510 v16_HG510 v16_LogoOuter_HG510 v16.mtl

g LogoOuter

v -3.966810 -19.118165 27.010227
v -2.160832 -19.132709 28.000597
v 0.027972 -19.133673 28.832843
v 0.003005 -19.133500 28.849491
v 2.183491 -19.132268 28.017245
v 3.981145 -19.117791 27.018550
v 4.041435 -19.117053 26.971650
v 4.072692 -19.116765 26.902036
v 4.089398 -19.116665 26.831250
v 4.072692 -19.117029 26.760554
v 3.191782 -19.124895 25.129140
v 2.158525 -19.119883 23.589699
v 1.148337 -19.104163 22.297959
v 0.036296 -19.078330 21.092962
v -0.021961 -19.078331 21.092962
v -1.130021 -19.104283 22.301343
v -2.144190 -19.119978 23.589699
v -3.171183 -19.125148 25.126324
v -4.050033 -19.117503 26.752232
v -4.073366 -19.117049 26.824309
v -4.065527 -19.117016 26.899651
v -4.027858 -19.117411 26.965377
v -4.075000 -19.116288 27.126740
v -4.184771 -19.114958 27.027253
v -4.249771 -19.114294 26.893710
v -4.280748 -19.114075 26.748113
v -4.249771 -19.114711 26.602424
v -3.361363 -19.121889 24.957989
v -2.318961 -19.116060 23.406601
v -1.293582 -19.099785 22.116691
v -0.171766 -19.073307 20.909864
v -0.090214 -19.071877 20.857063
v 0.002904 -19.071117 20.829386
v 0.027972 -19.071038 20.826640
v 0.160107 -19.071352 20.839271
v 0.277641 -19.073001 20.901543
v 2.416512 -19.115149 23.398280
v 3.463222 -19.120586 24.951357
v 4.347322 -19.113084 26.602424
v 4.378300 -19.112427 26.748020
v 4.347322 -19.112648 26.893710
v 4.280673 -19.113368 27.022107
v 4.172551 -19.114721 27.118417
v 2.349931 -19.130086 28.133756
v 0.127837 -19.132203 28.966002
v -0.038610 -19.132238 28.966002
v -2.126846 -19.131709 28.200031
vt 0.597324 4.736261 0.000000
vt 0.603429 4.740741 0.000000
vt 0.592613 4.752419 0.000000
vt 0.784044 4.839488 0.000000
vt 0.787448 4.859426 0.000000
vt 1.002943 4.922356 0.000000
vt 1.000447 4.924020 0.000000
vt 1.218480 4.841153 0.000000
vt 1.012934 4.935667 0.000000
vt 0.996289 4.935666 0.000000
vt 1.235129 4.852844 0.000000
vt 1.398247 4.741570 0.000000
vt 1.417394 4.751595 0.000000
vt 1.404276 4.736885 0.000000
vt 1.407402 4.729922 0.000000
vt 1.428207 4.741970 0.000000
vt 1.409071 4.722839 0.000000
vt 1.434871 4.729127 0.000000
vt 1.437967 4.714547 0.000000
vt 1.407399 4.715760 0.000000
vt 1.434865 4.699968 0.000000
vt 1.319258 4.552368 0.000000
vt 1.346405 4.534601 0.000000
vt 1.215891 4.398217 0.000000
vt 1.241691 4.379076 0.000000
vt 1.114846 4.268902 0.000000
vt 1.027762 4.129118 0.000000
vt 1.003627 4.148282 0.000000
vt 1.000287 4.121894 0.000000
vt 0.997801 4.148282 0.000000
vt 0.982820 4.129952 0.000000
vt 0.870651 4.250763 0.000000
vt 0.887008 4.269241 0.000000
vt 0.768137 4.379904 0.000000
vt 0.785615 4.398218 0.000000
vt 0.663931 4.535259 0.000000
vt 0.682951 4.552087 0.000000
vt 0.575126 4.699961 0.000000
vt 0.595102 4.714930 0.000000
vt 0.572031 4.714549 0.000000
vt 0.592770 4.722147 0.000000
vt 0.575131 4.729119 0.000000
vt 0.593555 4.729688 0.000000
vt 0.581634 4.742478 0.000000
vt 0.990975 4.124665 0.000000
vt 1.002794 4.121619 0.000000
vt 1.016008 4.122884 0.000000
vn -0.001432 -0.099989 0.000240
vn -0.001407 -0.099990 0.000260
vn -0.001450 -0.099989 0.000310
vn -0.000755 -0.099995 0.000701
vn -0.000743 -0.099994 0.000785
vn 0.000015 -0.099994 0.001051
vn 0.000006 -0.099994 0.001058
vn 0.000768 -0.099995 0.000712
vn 0.000052 -0.099994 0.001106
vn -0.000010 -0.099994 0.001106
vn 0.000822 -0.099994 0.000761
vn 0.001413 -0.099990 0.000270
vn 0.001490 -0.099988 0.000313
vn 0.001437 -0.099989 0.000249
vn 0.001450 -0.099989 0.000218
vn 0.001534 -0.099988 0.000271
vn 0.001457 -0.099989 0.000187
vn 0.001561 -0.099988 0.000214
vn 0.001574 -0.099987 0.000150
vn 0.001451 -0.099989 0.000156
vn 0.001561 -0.099988 0.000085
vn 0.001124 -0.099992 -0.000587
vn 0.001223 -0.099990 -0.000672
vn 0.000762 -0.099988 -0.001338
vn 0.000851 -0.099986 -0.001434
vn 0.000402 -0.099979 -0.002009
vn 0.000094 -0.099962 -0.002769
vn 0.000011 -0.099965 -0.002664
vn -0.000000 -0.099961 -0.002809
vn -0.000009 -0.099965 -0.002664
vn -0.000060 -0.099962 -0.002765
vn -0.000454 -0.099977 -0.002106
vn -0.000398 -0.099979 -0.002009
vn -0.000818 -0.099986 -0.001433
vn -0.000758 -0.099988 -0.001341
vn -0.001186 -0.099991 -0.000674
vn -0.001117 -0.099992 -0.000593
vn -0.001522 -0.099988 0.000079
vn -0.001442 -0.099990 0.000146
vn -0.001535 -0.099988 0.000143
vn -0.001451 -0.099989 0.000177
vn -0.001522 -0.099988 0.000207
vn -0.001447 -0.099989 0.000211
vn -0.001495 -0.099988 0.000266
vn -0.000032 -0.099961 -0.002794
vn 0.000008 -0.099961 -0.002810
vn 0.000054 -0.099961 -0.002803
usemtl Steel_-_Satin
f 22/1/1 1/2/2 23/3/3
f 23/3/3 1/2/2 2/4/4
f 23/3/3 2/4/4 47/5/5
f 47/5/5 2/4/4 3/6/6
f 47/5/5 3/6/6 4/7/7
f 5/8/8 45/9/9 4/7/7
f 4/7/7 45/9/9 46/10/10
f 4/7/7 46/10/10 47/5/5
f 45/9/9 5/8/8 44/11/11
f 44/11/11 5/8/8 6/12/12
f 44/11/11 6/12/12 43/13/13
f 43/13/13 6/12/12 7/14/14
f 43/13/13 7/14/14 8/15/15
f 43/13/13 8/15/15 42/16/16
f 42/16/16 8/15/15 9/17/17
f 42/16/16 9/17/17 41/18/18
f 41/18/18 9/17/17 40/19/19
f 40/19/19 9/17/17 10/20/20
f 40/19/19 10/20/20 39/21/21
f 39/21/21 10/20/20 11/22/22
f 39/21/21 11/22/22 38/23/23
f 38/23/23 11/22/22 12/24/24
f 38/23/23 12/24/24 37/25/25
f 37/25/25 12/24/24 13/26/26
f 37/25/25 13/26/26 36/27/27
f 36/27/27 13/26/26 14/28/28
f 36/27/27 14/28/28 33/29/29
f 33/29/29 14/28/28 15/30/30
f 33/29/29 15/30/30 31/31/31
f 31/31/31 15/30/30 30/32/32
f 30/32/32 15/30/30 16/33/33
f 30/32/32 16/33/33 29/34/34
f 29/34/34 16/33/33 17/35/35
f 29/34/34 17/35/35 28/36/36
f 28/36/36 17/35/35 18/37/37
f 28/36/36 18/37/37 27/38/38
f 27/38/38 18/37/37 19/39/39
f 27/38/38 19/39/39 26/40/40
f 26/40/40 19/39/39 20/41/41
f 26/40/40 20/41/41 25/42/42
f 25/42/42 20/41/41 21/43/43
f 25/42/42 21/43/43 24/44/44
f 24/44/44 21/43/43 22/1/1
f 24/44/44 22/1/1 23/3/3
f 31/31/31 32/45/45 33/29/29
f 34/46/46 35/47/47 33/29/29
f 33/29/29 35/47/47 36/27/27
# 47 vertices
# 47 texture params
# 47 normals
# 47 facets

# 1 groups
