# WaveFront *.obj file (generated by Autodesk ATF)

mtllib HG510 v16_HG510 v16_LogoInner_HG510 v16.mtl

g LogoInner

v -3.334302 -19.127041 26.544169
v -3.346153 -19.126916 26.518287
v -3.350221 -19.126879 26.490088
v -3.346162 -19.126934 26.461888
v -3.334302 -19.127077 26.435977
v -2.433310 -19.130974 24.900475
v -1.403492 -19.122685 23.448215
v -1.385076 -19.122438 23.424398
v -1.365612 -19.122298 23.407995
v -1.360022 -19.122305 23.406606
v -1.357199 -19.122324 23.406969
v -1.354647 -19.122354 23.408204
v -1.350887 -19.122434 23.412521
v -1.348574 -19.122522 23.417906
v -1.345235 -19.122969 23.448215
v -1.646653 -19.130920 24.241448
v -1.969419 -19.136578 25.220900
v -1.976110 -19.136666 25.245858
v -1.974410 -19.136746 25.258785
v -1.969419 -19.136845 25.270835
v -1.944475 -19.137047 25.276456
v -1.919487 -19.137189 25.270835
v 0.027965 -19.139587 24.646651
v 1.983741 -19.136709 25.270835
v 2.004542 -19.136591 25.276411
v 2.015319 -19.136506 25.274993
v 2.025356 -19.136413 25.270835
v 2.030215 -19.136247 25.245876
v 2.025356 -19.136148 25.220900
v 1.392848 -19.122749 23.448215
v 1.391506 -19.122754 23.448080
v 1.390899 -19.122753 23.447800
v 1.390700 -19.122750 23.447542
v 1.390649 -19.122746 23.447222
v 1.390877 -19.122736 23.446595
v 1.391284 -19.122726 23.446045
v 1.392289 -19.122707 23.445074
v 1.398673 -19.122618 23.440988
v 1.420332 -19.122389 23.432491
v 1.445468 -19.122231 23.430378
v 1.451348 -19.122231 23.432471
v 1.456030 -19.122263 23.436455
v 1.458684 -19.122328 23.442009
v 1.459429 -19.122412 23.448215
v 2.476518 -19.130578 24.901168
v 3.365272 -19.126605 26.435977
v 3.389106 -19.126319 26.452254
v 3.407304 -19.126096 26.474690
v 3.418327 -19.125954 26.501430
v 3.421225 -19.125905 26.530227
v 3.415742 -19.125953 26.558652
v 3.402348 -19.126094 26.584295
v 3.382183 -19.126316 26.605009
v 3.356954 -19.126602 26.619071
v 3.333103 -19.126870 26.630095
v 3.307043 -19.127170 26.633889
v 3.280982 -19.127475 26.630109
v 3.257082 -19.127760 26.619071
v 0.011323 -19.145257 25.603732
v -3.234430 -19.128190 26.544169
v -3.258281 -19.127912 26.555192
v -3.284341 -19.127612 26.558987
v -3.310402 -19.127313 26.555207
vt 0.666668 4.694103 0.000000
vt 0.665483 4.691515 0.000000
vt 0.669058 4.695204 0.000000
vt 0.671664 4.695578 0.000000
vt 0.665075 4.688693 0.000000
vt 0.674270 4.695195 0.000000
vt 0.676655 4.694088 0.000000
vt 0.665481 4.685871 0.000000
vt 0.666666 4.683276 0.000000
vt 0.756729 4.529506 0.000000
vt 0.803121 4.566509 0.000000
vt 0.805616 4.567068 0.000000
vt 0.808114 4.566503 0.000000
vt 1.001195 4.599649 0.000000
vt 1.002839 4.503941 0.000000
vt 1.198440 4.566508 0.000000
vt 0.859678 4.384112 0.000000
vt 0.835376 4.463493 0.000000
vt 0.803120 4.561513 0.000000
vt 0.802452 4.564011 0.000000
vt 0.865503 4.384108 0.000000
vt 0.861519 4.381727 0.000000
vt 0.865169 4.381076 0.000000
vt 0.863465 4.380085 0.000000
vt 0.864938 4.380537 0.000000
vt 0.864024 4.379946 0.000000
vt 0.864306 4.379982 0.000000
vt 0.864562 4.380106 0.000000
vt 0.802622 4.565304 0.000000
vt 1.325820 4.701582 0.000000
vt 1.200520 4.567068 0.000000
vt 1.201598 4.566927 0.000000
vt 1.336637 4.683275 0.000000
vt 1.202602 4.566513 0.000000
vt 1.247717 4.529577 0.000000
vt 1.203087 4.564016 0.000000
vt 1.202601 4.561517 0.000000
vt 1.139313 4.384110 0.000000
vt 1.145972 4.384113 0.000000
vt 1.142062 4.382538 0.000000
vt 1.144576 4.382328 0.000000
vt 1.139179 4.384096 0.000000
vt 1.139157 4.383893 0.000000
vt 1.139257 4.383796 0.000000
vt 1.139896 4.383387 0.000000
vt 1.139118 4.384068 0.000000
vt 1.139093 4.384010 0.000000
vt 1.139116 4.383948 0.000000
vt 1.139098 4.384042 0.000000
vt 1.145897 4.383492 0.000000
vt 1.145164 4.382538 0.000000
vt 1.145632 4.382936 0.000000
vt 1.339021 4.684908 0.000000
vt 1.340842 4.687156 0.000000
vt 1.341945 4.689833 0.000000
vt 1.342235 4.692716 0.000000
vt 1.341687 4.695560 0.000000
vt 1.340348 4.698124 0.000000
vt 1.338332 4.700194 0.000000
vt 1.335809 4.701597 0.000000
vt 1.333423 4.702697 0.000000
vt 1.330817 4.703073 0.000000
vt 1.328210 4.702690 0.000000
vn -0.001169 -0.099993 0.000057
vn -0.001173 -0.099993 0.000046
vn -0.001160 -0.099993 0.000062
vn -0.001150 -0.099993 0.000064
vn -0.001175 -0.099993 0.000033
vn -0.001141 -0.099993 0.000063
vn -0.001132 -0.099994 0.000058
vn -0.001173 -0.099993 0.000020
vn -0.001169 -0.099993 0.000009
vn -0.000859 -0.099994 -0.000699
vn -0.000699 -0.099996 -0.000522
vn -0.000690 -0.099996 -0.000519
vn -0.000682 -0.099996 -0.000522
vn 0.000005 -0.099999 -0.000365
vn 0.000011 -0.099997 -0.000822
vn 0.000705 -0.099996 -0.000519
vn -0.000499 -0.099989 -0.001415
vn -0.000586 -0.099993 -0.001018
vn -0.000699 -0.099996 -0.000546
vn -0.000701 -0.099996 -0.000534
vn -0.000478 -0.099989 -0.001415
vn -0.000492 -0.099989 -0.001427
vn -0.000479 -0.099989 -0.001430
vn -0.000485 -0.099989 -0.001435
vn -0.000480 -0.099989 -0.001433
vn -0.000483 -0.099989 -0.001436
vn -0.000482 -0.099989 -0.001436
vn -0.000481 -0.099989 -0.001435
vn -0.000701 -0.099996 -0.000528
vn 0.001141 -0.099993 0.000097
vn 0.000712 -0.099996 -0.000516
vn 0.000716 -0.099996 -0.000517
vn 0.001182 -0.099993 0.000014
vn 0.000720 -0.099996 -0.000519
vn 0.000874 -0.099994 -0.000695
vn 0.000721 -0.099996 -0.000531
vn 0.000720 -0.099996 -0.000542
vn 0.000494 -0.099989 -0.001413
vn 0.000517 -0.099989 -0.001413
vn 0.000504 -0.099989 -0.001421
vn 0.000512 -0.099989 -0.001422
vn 0.000494 -0.099989 -0.001413
vn 0.000493 -0.099989 -0.001414
vn 0.000494 -0.099989 -0.001415
vn 0.000496 -0.099989 -0.001417
vn 0.000493 -0.099989 -0.001413
vn 0.000493 -0.099989 -0.001414
vn 0.000493 -0.099989 -0.001414
vn 0.000493 -0.099989 -0.001413
vn 0.000517 -0.099989 -0.001416
vn 0.000515 -0.099989 -0.001421
vn 0.000516 -0.099989 -0.001419
vn 0.001191 -0.099993 0.000022
vn 0.001197 -0.099993 0.000032
vn 0.001201 -0.099993 0.000044
vn 0.001202 -0.099993 0.000056
vn 0.001200 -0.099993 0.000069
vn 0.001195 -0.099993 0.000081
vn 0.001187 -0.099993 0.000090
vn 0.001178 -0.099993 0.000097
vn 0.001169 -0.099993 0.000102
vn 0.001159 -0.099993 0.000103
vn 0.001150 -0.099993 0.000102
usemtl Steel_-_Satin
f 1/1/1 2/2/2 63/3/3
f 63/3/3 2/2/2 62/4/4
f 62/4/4 2/2/2 3/5/5
f 62/4/4 3/5/5 61/6/6
f 61/6/6 3/5/5 60/7/7
f 60/7/7 3/5/5 4/8/8
f 60/7/7 4/8/8 5/9/9
f 6/10/10 20/11/11 5/9/9
f 5/9/9 20/11/11 21/12/12
f 5/9/9 21/12/12 60/7/7
f 60/7/7 21/12/12 22/13/13
f 60/7/7 22/13/13 59/14/14
f 59/14/14 22/13/13 23/15/15
f 59/14/14 23/15/15 24/16/16
f 7/17/17 16/18/18 6/10/10
f 6/10/10 16/18/18 17/19/19
f 6/10/10 17/19/19 18/20/20
f 16/18/18 7/17/17 15/21/21
f 15/21/21 7/17/17 8/22/22
f 15/21/21 8/22/22 14/23/23
f 14/23/23 8/22/22 9/24/24
f 14/23/23 9/24/24 13/25/25
f 13/25/25 9/24/24 10/26/26
f 13/25/25 10/26/26 11/27/27
f 11/27/27 12/28/28 13/25/25
f 18/20/20 19/29/29 6/10/10
f 6/10/10 19/29/29 20/11/11
f 59/14/14 24/16/16 58/30/30
f 58/30/30 24/16/16 25/31/31
f 58/30/30 25/31/31 26/32/32
f 58/30/30 26/32/32 46/33/33
f 46/33/33 26/32/32 27/34/34
f 46/33/33 27/34/34 45/35/35
f 45/35/35 27/34/34 28/36/36
f 45/35/35 28/36/36 29/37/37
f 29/37/37 30/38/38 45/35/35
f 45/35/35 30/38/38 44/39/39
f 44/39/39 30/38/38 39/40/40
f 44/39/39 39/40/40 40/41/41
f 31/42/42 36/43/43 30/38/38
f 30/38/38 36/43/43 37/44/44
f 30/38/38 37/44/44 38/45/45
f 32/46/46 34/47/47 31/42/42
f 31/42/42 34/47/47 35/48/48
f 31/42/42 35/48/48 36/43/43
f 32/46/46 33/49/49 34/47/47
f 38/45/45 39/40/40 30/38/38
f 44/39/39 40/41/41 43/50/50
f 43/50/50 40/41/41 41/51/51
f 43/50/50 41/51/51 42/52/52
f 46/33/33 47/53/53 58/30/30
f 58/30/30 47/53/53 48/54/54
f 58/30/30 48/54/54 49/55/55
f 49/55/55 50/56/56 58/30/30
f 58/30/30 50/56/56 51/57/57
f 58/30/30 51/57/57 52/58/58
f 52/58/58 53/59/59 58/30/30
f 58/30/30 53/59/59 54/60/60
f 58/30/30 54/60/60 55/61/61
f 56/62/62 57/63/63 55/61/61
f 55/61/61 57/63/63 58/30/30
# 63 vertices
# 63 texture params
# 63 normals
# 61 facets

# 1 groups
