# WaveFront *.obj file (generated by Autodesk ATF)

mtllib HG510 v16_HG510 v16_LogoMid_HG510 v16.mtl

g LogoMid

v -3.334302 -19.127077 26.435977
v -3.346162 -19.126934 26.461888
v -3.350221 -19.126879 26.490088
v -3.346153 -19.126916 26.518287
v -3.334302 -19.127041 26.544169
v -3.310402 -19.127313 26.555207
v -3.284341 -19.127612 26.558987
v -3.258281 -19.127912 26.555192
v -3.234430 -19.128190 26.544169
v 0.011323 -19.145257 25.603732
v 3.257082 -19.127760 26.619071
v 3.280982 -19.127475 26.630109
v 3.307043 -19.127170 26.633889
v 3.333103 -19.126870 26.630095
v 3.356954 -19.126602 26.619071
v 3.382183 -19.126316 26.605009
v 3.402348 -19.126094 26.584295
v 3.415742 -19.125953 26.558652
v 3.421225 -19.125905 26.530227
v 3.418327 -19.125954 26.501430
v 3.407304 -19.126096 26.474690
v 3.389106 -19.126319 26.452254
v 3.365272 -19.126605 26.435977
v 2.476518 -19.130578 24.901168
v 1.459429 -19.122412 23.448215
v 1.458684 -19.122328 23.442009
v 1.456030 -19.122263 23.436455
v 1.451348 -19.122231 23.432471
v 1.445468 -19.122231 23.430378
v 1.420332 -19.122389 23.432491
v 1.398673 -19.122618 23.440988
v 1.392289 -19.122707 23.445074
v 1.391284 -19.122726 23.446045
v 1.390877 -19.122736 23.446595
v 1.390649 -19.122746 23.447222
v 1.390700 -19.122750 23.447542
v 1.390899 -19.122753 23.447800
v 1.391506 -19.122754 23.448080
v 1.392848 -19.122749 23.448215
v 2.025356 -19.136148 25.220900
v 2.030215 -19.136247 25.245876
v 2.025356 -19.136413 25.270835
v 2.015319 -19.136506 25.274993
v 2.004542 -19.136591 25.276411
v 1.983741 -19.136709 25.270835
v 0.027965 -19.139587 24.646651
v -1.919487 -19.137189 25.270835
v -1.944475 -19.137047 25.276456
v -1.969419 -19.136845 25.270835
v -1.974410 -19.136746 25.258785
v -1.976110 -19.136666 25.245858
v -1.969419 -19.136578 25.220900
v -1.646653 -19.130920 24.241448
v -1.345235 -19.122969 23.448215
v -1.348574 -19.122522 23.417906
v -1.350887 -19.122434 23.412521
v -1.354647 -19.122354 23.408204
v -1.357199 -19.122324 23.406969
v -1.360022 -19.122305 23.406606
v -1.365612 -19.122298 23.407995
v -1.385076 -19.122438 23.424398
v -1.403492 -19.122685 23.448215
v -2.433310 -19.130974 24.900475
v -2.160832 -19.132709 28.000597
v -3.966810 -19.118165 27.010227
v -4.027858 -19.117411 26.965377
v -4.065527 -19.117016 26.899651
v -4.073366 -19.117049 26.824309
v -4.050033 -19.117503 26.752232
v -3.171183 -19.125148 25.126324
v -2.144190 -19.119978 23.589699
v -1.130021 -19.104283 22.301343
v -0.021961 -19.078331 21.092962
v 0.036296 -19.078330 21.092962
v 1.148337 -19.104163 22.297959
v 2.158525 -19.119883 23.589699
v 3.191782 -19.124895 25.129140
v 4.072692 -19.117029 26.760554
v 4.089398 -19.116665 26.831250
v 4.072692 -19.116765 26.902036
v 4.041435 -19.117053 26.971650
v 3.981145 -19.117791 27.018550
v 2.183491 -19.132268 28.017245
v 0.003005 -19.133500 28.849491
v 0.027972 -19.133673 28.832843
v 0.002657 -19.125859 23.424346
vt 0.665482 4.685830 0.000000
vt 0.595103 4.714991 0.000000
vt 0.666667 4.683235 0.000000
vt 0.682952 4.552146 0.000000
vt 0.756730 4.529466 0.000000
vt 0.785617 4.398275 0.000000
vt 0.859679 4.384073 0.000000
vt 0.887010 4.269296 0.000000
vt 0.861520 4.381689 0.000000
vt 0.863466 4.380047 0.000000
vt 0.864025 4.379908 0.000000
vt 0.864308 4.379944 0.000000
vt 0.864563 4.380067 0.000000
vt 0.864939 4.380499 0.000000
vt 1.000289 4.381643 0.000000
vt 0.865170 4.381038 0.000000
vt 0.865505 4.384070 0.000000
vt 0.835378 4.463454 0.000000
vt 1.002841 4.503902 0.000000
vt 0.808115 4.566463 0.000000
vt 0.665076 4.688652 0.000000
vt 0.665484 4.691474 0.000000
vt 0.666669 4.694062 0.000000
vt 0.669059 4.695163 0.000000
vt 0.671665 4.695537 0.000000
vt 0.674271 4.695154 0.000000
vt 0.676656 4.694047 0.000000
vt 0.784045 4.839551 0.000000
vt 0.603430 4.740803 0.000000
vt 0.597325 4.736323 0.000000
vt 0.593557 4.729749 0.000000
vt 1.001196 4.599609 0.000000
vt 1.002945 4.922420 0.000000
vt 1.218483 4.841216 0.000000
vt 1.000449 4.924084 0.000000
vt 1.325822 4.701541 0.000000
vt 1.328212 4.702649 0.000000
vt 1.398250 4.741632 0.000000
vt 1.330819 4.703031 0.000000
vt 1.333425 4.702656 0.000000
vt 1.335811 4.701556 0.000000
vt 1.407402 4.715821 0.000000
vt 1.407405 4.729983 0.000000
vt 1.409074 4.722900 0.000000
vt 1.338334 4.700153 0.000000
vt 1.340350 4.698083 0.000000
vt 1.341689 4.695519 0.000000
vt 1.342237 4.692675 0.000000
vt 1.341946 4.689792 0.000000
vt 1.340843 4.687115 0.000000
vt 1.319261 4.552427 0.000000
vt 1.339023 4.684867 0.000000
vt 1.336639 4.683235 0.000000
vt 1.247718 4.529538 0.000000
vt 1.215893 4.398274 0.000000
vt 1.145974 4.384075 0.000000
vt 1.145899 4.383454 0.000000
vt 1.145633 4.382898 0.000000
vt 1.114848 4.268958 0.000000
vt 1.145165 4.382499 0.000000
vt 1.144577 4.382289 0.000000
vt 1.142063 4.382500 0.000000
vt 1.139897 4.383349 0.000000
vt 1.139259 4.383757 0.000000
vt 1.139158 4.383854 0.000000
vt 1.139118 4.383909 0.000000
vt 1.139095 4.383972 0.000000
vt 1.139100 4.384004 0.000000
vt 1.139120 4.384030 0.000000
vt 1.139181 4.384058 0.000000
vt 1.139315 4.384072 0.000000
vt 1.202602 4.561477 0.000000
vt 1.198441 4.566468 0.000000
vt 1.200522 4.567028 0.000000
vt 1.201600 4.566887 0.000000
vt 1.203089 4.563976 0.000000
vt 1.202603 4.566473 0.000000
vt 0.803121 4.561473 0.000000
vt 0.805617 4.567028 0.000000
vt 0.803122 4.566469 0.000000
vt 0.802623 4.565264 0.000000
vt 0.802453 4.563971 0.000000
vt 0.592771 4.722209 0.000000
vt 0.997804 4.148336 0.000000
vt 1.003629 4.148336 0.000000
vt 1.404280 4.736946 0.000000
vn -0.001173 -0.099993 0.000020
vn -0.001442 -0.099990 0.000146
vn -0.001169 -0.099993 0.000009
vn -0.001117 -0.099992 -0.000593
vn -0.000859 -0.099994 -0.000699
vn -0.000758 -0.099988 -0.001341
vn -0.000499 -0.099989 -0.001415
vn -0.000398 -0.099979 -0.002009
vn -0.000492 -0.099989 -0.001427
vn -0.000485 -0.099989 -0.001435
vn -0.000483 -0.099989 -0.001436
vn -0.000482 -0.099989 -0.001436
vn -0.000481 -0.099989 -0.001435
vn -0.000480 -0.099989 -0.001433
vn 0.000001 -0.099990 -0.001429
vn -0.000479 -0.099989 -0.001430
vn -0.000478 -0.099989 -0.001415
vn -0.000586 -0.099993 -0.001018
vn 0.000011 -0.099997 -0.000822
vn -0.000682 -0.099996 -0.000522
vn -0.001175 -0.099993 0.000033
vn -0.001173 -0.099993 0.000046
vn -0.001169 -0.099993 0.000057
vn -0.001160 -0.099993 0.000062
vn -0.001150 -0.099993 0.000064
vn -0.001141 -0.099993 0.000063
vn -0.001132 -0.099994 0.000058
vn -0.000755 -0.099995 0.000701
vn -0.001407 -0.099990 0.000260
vn -0.001432 -0.099989 0.000240
vn -0.001447 -0.099989 0.000211
vn 0.000005 -0.099999 -0.000365
vn 0.000015 -0.099994 0.001051
vn 0.000768 -0.099995 0.000712
vn 0.000006 -0.099994 0.001058
vn 0.001141 -0.099993 0.000097
vn 0.001150 -0.099993 0.000102
vn 0.001413 -0.099990 0.000270
vn 0.001159 -0.099993 0.000103
vn 0.001169 -0.099993 0.000102
vn 0.001178 -0.099993 0.000097
vn 0.001451 -0.099989 0.000156
vn 0.001450 -0.099989 0.000218
vn 0.001457 -0.099989 0.000187
vn 0.001187 -0.099993 0.000090
vn 0.001195 -0.099993 0.000081
vn 0.001200 -0.099993 0.000069
vn 0.001202 -0.099993 0.000056
vn 0.001201 -0.099993 0.000044
vn 0.001197 -0.099993 0.000032
vn 0.001124 -0.099992 -0.000587
vn 0.001191 -0.099993 0.000022
vn 0.001182 -0.099993 0.000014
vn 0.000874 -0.099994 -0.000695
vn 0.000762 -0.099988 -0.001338
vn 0.000517 -0.099989 -0.001413
vn 0.000517 -0.099989 -0.001416
vn 0.000516 -0.099989 -0.001419
vn 0.000402 -0.099979 -0.002009
vn 0.000515 -0.099989 -0.001421
vn 0.000512 -0.099989 -0.001422
vn 0.000504 -0.099989 -0.001421
vn 0.000496 -0.099989 -0.001417
vn 0.000494 -0.099989 -0.001415
vn 0.000493 -0.099989 -0.001414
vn 0.000493 -0.099989 -0.001414
vn 0.000493 -0.099989 -0.001414
vn 0.000493 -0.099989 -0.001413
vn 0.000493 -0.099989 -0.001413
vn 0.000494 -0.099989 -0.001413
vn 0.000494 -0.099989 -0.001413
vn 0.000720 -0.099996 -0.000542
vn 0.000705 -0.099996 -0.000519
vn 0.000712 -0.099996 -0.000516
vn 0.000716 -0.099996 -0.000517
vn 0.000721 -0.099996 -0.000531
vn 0.000720 -0.099996 -0.000519
vn -0.000699 -0.099996 -0.000546
vn -0.000690 -0.099996 -0.000519
vn -0.000699 -0.099996 -0.000522
vn -0.000701 -0.099996 -0.000528
vn -0.000701 -0.099996 -0.000534
vn -0.001451 -0.099989 0.000177
vn -0.000009 -0.099965 -0.002664
vn 0.000011 -0.099965 -0.002664
vn 0.001437 -0.099989 0.000249
usemtl Steel_-_Satin
f 2/1/1 69/2/2 1/3/3
f 1/3/3 69/2/2 70/4/4
f 1/3/3 70/4/4 63/5/5
f 63/5/5 70/4/4 71/6/6
f 63/5/5 71/6/6 62/7/7
f 62/7/7 71/6/6 72/8/8
f 62/7/7 72/8/8 61/9/9
f 61/9/9 72/8/8 60/10/10
f 60/10/10 72/8/8 59/11/11
f 59/11/11 72/8/8 58/12/12
f 58/12/12 72/8/8 57/13/13
f 57/13/13 72/8/8 56/14/14
f 56/14/14 72/8/8 86/15/15
f 56/14/14 86/15/15 55/16/16
f 55/16/16 86/15/15 54/17/17
f 54/17/17 86/15/15 53/18/18
f 53/18/18 86/15/15 46/19/19
f 53/18/18 46/19/19 47/20/20
f 2/1/1 3/21/21 69/2/2
f 69/2/2 3/21/21 4/22/22
f 69/2/2 4/22/22 5/23/23
f 5/23/23 6/24/24 69/2/2
f 69/2/2 6/24/24 7/25/25
f 69/2/2 7/25/25 8/26/26
f 9/27/27 64/28/28 8/26/26
f 8/26/26 64/28/28 65/29/29
f 8/26/26 65/29/29 69/2/2
f 69/2/2 65/29/29 66/30/30
f 69/2/2 66/30/30 67/31/31
f 9/27/27 10/32/32 64/28/28
f 64/28/28 10/32/32 85/33/33
f 85/33/33 10/32/32 83/34/34
f 85/33/33 83/34/34 84/35/35
f 10/32/32 11/36/36 83/34/34
f 83/34/34 11/36/36 12/37/37
f 83/34/34 12/37/37 82/38/38
f 82/38/38 12/37/37 13/39/39
f 82/38/38 13/39/39 14/40/40
f 14/40/40 15/41/41 82/38/38
f 82/38/38 15/41/41 78/42/42
f 82/38/38 78/42/42 80/43/43
f 80/43/43 78/42/42 79/44/44
f 15/41/41 16/45/45 78/42/42
f 78/42/42 16/45/45 17/46/46
f 78/42/42 17/46/46 18/47/47
f 18/47/47 19/48/48 78/42/42
f 78/42/42 19/48/48 20/49/49
f 78/42/42 20/49/49 21/50/50
f 78/42/42 21/50/50 77/51/51
f 77/51/51 21/50/50 22/52/52
f 77/51/51 22/52/52 23/53/53
f 23/53/53 24/54/54 77/51/51
f 77/51/51 24/54/54 76/55/55
f 76/55/55 24/54/54 25/56/56
f 76/55/55 25/56/56 26/57/57
f 26/57/57 27/58/58 76/55/55
f 76/55/55 27/58/58 75/59/59
f 75/59/59 27/58/58 28/60/60
f 75/59/59 28/60/60 29/61/61
f 29/61/61 30/62/62 75/59/59
f 75/59/59 30/62/62 31/63/63
f 75/59/59 31/63/63 86/15/15
f 86/15/15 31/63/63 32/64/64
f 86/15/15 32/64/64 33/65/65
f 33/65/65 34/66/66 86/15/15
f 86/15/15 34/66/66 35/67/67
f 86/15/15 35/67/67 36/68/68
f 36/68/68 37/69/69 86/15/15
f 86/15/15 37/69/69 38/70/70
f 86/15/15 38/70/70 39/71/71
f 86/15/15 39/71/71 46/19/19
f 46/19/19 39/71/71 40/72/72
f 46/19/19 40/72/72 45/73/73
f 45/73/73 40/72/72 44/74/74
f 44/74/74 40/72/72 43/75/75
f 43/75/75 40/72/72 41/76/76
f 43/75/75 41/76/76 42/77/77
f 53/18/18 47/20/20 52/78/78
f 52/78/78 47/20/20 48/79/79
f 52/78/78 48/79/79 49/80/80
f 49/80/80 50/81/81 52/78/78
f 52/78/78 50/81/81 51/82/82
f 67/31/31 68/83/83 69/2/2
f 72/8/8 73/84/84 86/15/15
f 86/15/15 73/84/84 75/59/59
f 73/84/84 74/85/85 75/59/59
f 80/43/43 81/86/86 82/38/38
# 86 vertices
# 86 texture params
# 86 normals
# 87 facets

# 1 groups
