# WaveFront *.obj file (generated by Autodesk ATF)

mtllib 8bitdo lite 2 v6 v12_8bitdo lite 2 v6 v12_ChargerConnector_8bitdo lite 2 v6 v12.mtl

g ChargerConnector

v -3.000000 0.900000 24.700000
v -3.000000 1.400000 24.700000
v -3.000000 1.400000 17.700000
v -3.000000 0.900000 17.700000
v 3.000000 0.900000 24.700000
v 3.000000 0.900000 17.700000
v 3.000000 1.400000 24.700000
v 3.000000 1.400000 17.700000
vt 0.000000 0.000000 0.000000
vt 0.050000 0.000000 0.000000
vt 0.000000 0.700000 0.000000
vt 0.050000 0.700000 0.000000
vt 0.000000 0.000000 0.000000
vt 0.600000 0.000000 0.000000
vt -0.000000 0.700000 0.000000
vt 0.600000 0.700000 0.000000
vt 0.000000 0.000000 0.000000
vt 0.050000 -0.000000 0.000000
vt -0.000000 0.700000 0.000000
vt 0.050000 0.700000 0.000000
vt 0.000000 0.000000 0.000000
vt 0.600000 0.000000 0.000000
vt 0.000000 0.700000 0.000000
vt 0.600000 0.700000 0.000000
vt -0.300000 -0.025000 0.000000
vt 0.300000 -0.025000 0.000000
vt -0.300000 0.025000 0.000000
vt 0.300000 0.025000 0.000000
vt 0.025000 0.300000 0.000000
vt -0.025000 0.300000 0.000000
vt 0.025000 -0.300000 0.000000
vt -0.025000 -0.300000 0.000000
vn -0.100000 0.000000 0.000000
vn -0.100000 0.000000 0.000000
vn -0.100000 0.000000 0.000000
vn -0.100000 0.000000 0.000000
vn 0.000000 -0.100000 -0.000000
vn 0.000000 -0.100000 -0.000000
vn 0.000000 -0.100000 -0.000000
vn 0.000000 -0.100000 -0.000000
vn 0.100000 0.000000 0.000000
vn 0.100000 0.000000 0.000000
vn 0.100000 0.000000 0.000000
vn 0.100000 0.000000 0.000000
vn 0.000000 0.100000 0.000000
vn 0.000000 0.100000 0.000000
vn 0.000000 0.100000 0.000000
vn 0.000000 0.100000 0.000000
vn 0.000000 -0.000000 0.100000
vn 0.000000 -0.000000 0.100000
vn 0.000000 -0.000000 0.100000
vn 0.000000 -0.000000 0.100000
vn 0.000000 0.000000 -0.100000
vn 0.000000 0.000000 -0.100000
vn 0.000000 0.000000 -0.100000
vn 0.000000 0.000000 -0.100000
usemtl Paint_-_Metallic_(Black)
f 1/1/1 2/2/2 4/3/3
f 4/3/3 2/2/2 3/4/4
f 5/5/5 1/6/6 6/7/7
f 6/7/7 1/6/6 4/8/8
f 7/9/9 5/10/10 8/11/11
f 8/11/11 5/10/10 6/12/12
f 2/13/13 7/14/14 3/15/15
f 3/15/15 7/14/14 8/16/16
f 7/17/17 2/18/18 5/19/19
f 5/19/19 2/18/18 1/20/20
f 8/21/21 6/22/22 3/23/23
f 3/23/23 6/22/22 4/24/24
# 8 vertices
# 24 texture params
# 24 normals
# 12 facets

# 1 groups
