# WaveFront *.obj file (generated by Autodesk ATF)

mtllib 8bitdo lite 2 v6 v12_8bitdo lite 2 v6 v12_LED1_8bitdo lite 2 v6 v12.mtl

g LED1

v -4.750000 0.000000 -33.400000
v -4.803590 -0.200000 -33.400000
v -4.950000 -0.346410 -33.400000
v -5.150000 -0.400000 -33.400000
v -5.150000 -0.400000 -38.400000
v -4.950000 -0.346410 -38.400000
v -4.803590 -0.200000 -38.400000
v -4.750000 0.000000 -38.400000
v -4.803590 -0.200000 -35.900000
v -4.950000 -0.346410 -35.900000
v -4.750000 0.700000 -38.400000
v -4.750000 0.700000 -33.400000
v -5.850000 -0.400000 -38.400000
v -6.050000 -0.346410 -38.400000
v -6.196410 -0.200000 -38.400000
v -6.250000 0.000000 -38.400000
v -6.250000 0.700000 -38.400000
v -6.196410 0.900000 -38.400000
v -6.050000 1.046410 -38.400000
v -5.850000 1.100000 -38.400000
v -5.150000 1.100000 -38.400000
v -4.950000 1.046410 -38.400000
v -4.803590 0.900000 -38.400000
v -5.150000 1.100000 -33.400000
v -4.950000 1.046410 -33.400000
v -4.803590 0.900000 -33.400000
v -4.950000 1.046410 -35.900000
v -4.803590 0.900000 -35.900000
v -5.850000 1.100000 -33.400000
v -6.250000 0.700000 -33.400000
v -6.196410 0.900000 -33.400000
v -6.050000 1.046410 -33.400000
v -6.196410 0.900000 -35.900000
v -6.050000 1.046410 -35.900000
v -6.250000 0.000000 -33.400000
v -5.850000 -0.400000 -33.400000
v -6.050000 -0.346410 -33.400000
v -6.196410 -0.200000 -33.400000
v -6.050000 -0.346410 -35.900000
v -6.196410 -0.200000 -35.900000
vt -0.000000 0.031416 0.000000
vt -0.500000 0.031416 0.000000
vt -0.250000 0.010472 0.000000
vt -0.500000 0.010472 0.000000
vt -0.250000 -0.010472 0.000000
vt -0.500000 -0.010472 0.000000
vt -0.500000 -0.031416 0.000000
vt -0.000000 -0.031416 0.000000
vt -0.000000 -0.010472 0.000000
vt -0.000000 0.010472 0.000000
vt 0.040000 -0.000000 0.000000
vt 0.110000 -0.000000 0.000000
vt 0.040000 0.500000 0.000000
vt 0.110000 0.500000 0.000000
vt 0.069641 0.055000 0.000000
vt 0.035000 0.075000 0.000000
vt 0.075000 0.035000 0.000000
vt -0.035000 0.075000 0.000000
vt 0.075000 -0.035000 0.000000
vt -0.075000 0.035000 0.000000
vt 0.035000 -0.075000 0.000000
vt -0.075000 -0.035000 0.000000
vt -0.035000 -0.075000 0.000000
vt -0.055000 -0.069641 0.000000
vt -0.069641 -0.055000 0.000000
vt 0.055000 0.069641 0.000000
vt -0.055000 0.069641 0.000000
vt -0.069641 0.055000 0.000000
vt 0.055000 -0.069641 0.000000
vt 0.069641 -0.055000 0.000000
vt 0.000000 0.031416 0.000000
vt -0.500000 0.031416 0.000000
vt -0.250000 0.010472 0.000000
vt -0.500000 0.010472 0.000000
vt -0.250000 -0.010472 0.000000
vt -0.500000 -0.010472 0.000000
vt -0.500000 -0.031416 0.000000
vt -0.000000 -0.031416 0.000000
vt 0.000000 -0.010472 0.000000
vt 0.000000 0.010472 0.000000
vt 0.040000 0.000000 0.000000
vt 0.110000 0.000000 0.000000
vt 0.040000 0.500000 0.000000
vt 0.110000 0.500000 0.000000
vt -0.000000 0.031416 0.000000
vt -0.500000 0.031416 0.000000
vt -0.250000 0.010472 0.000000
vt -0.500000 0.010472 0.000000
vt -0.250000 -0.010472 0.000000
vt -0.500000 -0.010472 0.000000
vt -0.500000 -0.031416 0.000000
vt 0.000000 -0.031416 0.000000
vt 0.000000 -0.010472 0.000000
vt 0.000000 0.010472 0.000000
vt 0.040000 0.000000 0.000000
vt 0.110000 0.000000 0.000000
vt 0.040000 0.500000 0.000000
vt 0.110000 0.500000 0.000000
vt -0.000000 0.031416 0.000000
vt -0.500000 0.031416 0.000000
vt -0.250000 0.010472 0.000000
vt -0.500000 0.010472 0.000000
vt -0.250000 -0.010472 0.000000
vt -0.500000 -0.010472 0.000000
vt -0.500000 -0.031416 0.000000
vt -0.000000 -0.031416 0.000000
vt -0.000000 -0.010472 0.000000
vt -0.000000 0.010472 0.000000
vt 0.110000 0.500000 0.000000
vt 0.040000 0.500000 0.000000
vt 0.110000 0.000000 0.000000
vt 0.040000 0.000000 0.000000
vt 0.069641 0.055000 0.000000
vt 0.035000 0.075000 0.000000
vt 0.075000 0.035000 0.000000
vt -0.035000 0.075000 0.000000
vt 0.075000 -0.035000 0.000000
vt -0.075000 0.035000 0.000000
vt 0.035000 -0.075000 0.000000
vt -0.075000 -0.035000 0.000000
vt -0.035000 -0.075000 0.000000
vt -0.055000 -0.069641 0.000000
vt -0.069641 -0.055000 0.000000
vt 0.055000 0.069641 0.000000
vt -0.055000 0.069641 0.000000
vt -0.069641 0.055000 0.000000
vt 0.055000 -0.069641 0.000000
vt 0.069641 -0.055000 0.000000
vn 0.100000 0.000000 0.000000
vn 0.100000 0.000000 0.000000
vn 0.086603 -0.050000 -0.000000
vn 0.086603 -0.050000 -0.000000
vn 0.050000 -0.086603 -0.000000
vn 0.050000 -0.086603 -0.000000
vn 0.000000 -0.100000 -0.000000
vn 0.000000 -0.100000 -0.000000
vn 0.050000 -0.086603 -0.000000
vn 0.086603 -0.050000 -0.000000
vn 0.100000 0.000000 0.000000
vn 0.100000 0.000000 0.000000
vn 0.000000 0.000000 -0.100000
vn 0.000000 0.000000 -0.100000
vn 0.000000 0.000000 -0.100000
vn 0.000000 0.000000 -0.100000
vn 0.000000 0.000000 -0.100000
vn 0.000000 0.000000 -0.100000
vn 0.000000 0.000000 -0.100000
vn 0.000000 0.000000 -0.100000
vn 0.000000 0.000000 -0.100000
vn 0.000000 0.000000 -0.100000
vn 0.000000 0.000000 -0.100000
vn 0.000000 0.000000 -0.100000
vn 0.000000 0.000000 -0.100000
vn 0.000000 0.000000 -0.100000
vn 0.000000 0.000000 -0.100000
vn 0.000000 0.000000 -0.100000
vn 0.000000 0.100000 0.000000
vn 0.000000 0.100000 0.000000
vn 0.050000 0.086603 0.000000
vn 0.050000 0.086603 0.000000
vn 0.086603 0.050000 0.000000
vn 0.086603 0.050000 0.000000
vn 0.086603 0.050000 0.000000
vn 0.050000 0.086603 0.000000
vn 0.000000 0.100000 0.000000
vn 0.000000 0.100000 0.000000
vn -0.100000 -0.000000 -0.000000
vn -0.100000 -0.000000 -0.000000
vn -0.086603 0.050000 0.000000
vn -0.086603 0.050000 0.000000
vn -0.050000 0.086603 0.000000
vn -0.050000 0.086603 0.000000
vn -0.050000 0.086603 0.000000
vn -0.086603 0.050000 0.000000
vn -0.100000 0.000000 0.000000
vn -0.100000 0.000000 0.000000
vn 0.000000 -0.100000 -0.000000
vn -0.000000 -0.100000 -0.000000
vn -0.050000 -0.086603 -0.000000
vn -0.050000 -0.086603 -0.000000
vn -0.086603 -0.050000 -0.000000
vn -0.086603 -0.050000 -0.000000
vn -0.086603 -0.050000 -0.000000
vn -0.050000 -0.086603 -0.000000
vn 0.000000 -0.000000 0.100000
vn 0.000000 -0.000000 0.100000
vn 0.000000 -0.000000 0.100000
vn 0.000000 -0.000000 0.100000
vn 0.000000 -0.000000 0.100000
vn 0.000000 -0.000000 0.100000
vn 0.000000 -0.000000 0.100000
vn 0.000000 -0.000000 0.100000
vn 0.000000 -0.000000 0.100000
vn 0.000000 -0.000000 0.100000
vn 0.000000 -0.000000 0.100000
vn 0.000000 -0.000000 0.100000
vn 0.000000 -0.000000 0.100000
vn 0.000000 -0.000000 0.100000
vn 0.000000 -0.000000 0.100000
vn 0.000000 -0.000000 0.100000
usemtl LED_(Green)
f 8/1/1 1/2/2 9/3/3
f 9/3/3 1/2/2 2/4/4
f 9/3/3 2/4/4 10/5/5
f 10/5/5 2/4/4 3/6/6
f 10/5/5 3/6/6 4/7/7
f 4/7/7 5/8/8 10/5/5
f 10/5/5 5/8/8 6/9/9
f 10/5/5 6/9/9 9/3/3
f 9/3/3 6/9/9 7/10/10
f 9/3/3 7/10/10 8/1/1
f 8/11/1 11/12/11 1/13/2
f 1/13/2 11/12/11 12/14/12
f 7/15/13 5/16/14 8/17/15
f 8/17/15 5/16/14 13/18/16
f 8/17/15 13/18/16 11/19/17
f 11/19/17 13/18/16 16/20/18
f 11/19/17 16/20/18 21/21/19
f 21/21/19 16/20/18 17/22/20
f 21/21/19 17/22/20 20/23/21
f 20/23/21 17/22/20 19/24/22
f 19/24/22 17/22/20 18/25/23
f 7/15/13 6/26/24 5/16/14
f 14/27/25 15/28/26 13/18/16
f 13/18/16 15/28/26 16/20/18
f 21/21/19 22/29/27 11/19/17
f 11/19/17 22/29/27 23/30/28
f 21/31/29 24/32/30 27/33/31
f 27/33/31 24/32/30 25/34/32
f 27/33/31 25/34/32 28/35/33
f 28/35/33 25/34/32 26/36/34
f 28/35/33 26/36/34 12/37/12
f 12/37/12 11/38/11 28/35/33
f 28/35/33 11/38/11 23/39/35
f 28/35/33 23/39/35 27/33/31
f 27/33/31 23/39/35 22/40/36
f 27/33/31 22/40/36 21/31/29
f 21/41/29 20/42/37 24/43/30
f 24/43/30 20/42/37 29/44/38
f 17/45/39 30/46/40 33/47/41
f 33/47/41 30/46/40 31/48/42
f 33/47/41 31/48/42 34/49/43
f 34/49/43 31/48/42 32/50/44
f 34/49/43 32/50/44 29/51/38
f 29/51/38 20/52/37 34/49/43
f 34/49/43 20/52/37 19/53/45
f 34/49/43 19/53/45 33/47/41
f 33/47/41 19/53/45 18/54/46
f 33/47/41 18/54/46 17/45/39
f 17/55/39 16/56/47 30/57/40
f 30/57/40 16/56/47 35/58/48
f 13/59/49 36/60/50 39/61/51
f 39/61/51 36/60/50 37/62/52
f 39/61/51 37/62/52 40/63/53
f 40/63/53 37/62/52 38/64/54
f 40/63/53 38/64/54 35/65/48
f 35/65/48 16/66/47 40/63/53
f 40/63/53 16/66/47 15/67/55
f 40/63/53 15/67/55 39/61/51
f 39/61/51 15/67/55 14/68/56
f 39/61/51 14/68/56 13/59/49
f 4/69/7 36/70/50 5/71/8
f 5/71/8 36/70/50 13/72/49
f 3/73/57 1/74/58 4/75/59
f 4/75/59 1/74/58 12/76/60
f 4/75/59 12/76/60 36/77/61
f 36/77/61 12/76/60 24/78/62
f 36/77/61 24/78/62 35/79/63
f 35/79/63 24/78/62 29/80/64
f 35/79/63 29/80/64 30/81/65
f 30/81/65 29/80/64 31/82/66
f 31/82/66 29/80/64 32/83/67
f 3/73/57 2/84/68 1/74/58
f 26/85/69 25/86/70 12/76/60
f 12/76/60 25/86/70 24/78/62
f 35/79/63 38/87/71 36/77/61
f 36/77/61 38/87/71 37/88/72
# 40 vertices
# 88 texture params
# 72 normals
# 76 facets

# 1 groups
