# WaveFront *.obj file (generated by Autodesk ATF)

mtllib 8bitdo lite 2 v6 v12_8bitdo lite 2 v6 v12_Pair_8bitdo lite 2 v6 v12.mtl

g Pair

v 11.100000 1.150000 26.500000
v 10.939638 1.800612 26.500000
v 10.495291 2.302177 26.500000
v 9.868751 2.539792 26.500000
v 9.203553 2.459023 26.500000
v 8.652085 2.078372 26.500000
v 8.340681 1.485042 26.500000
v 8.340681 0.814958 26.500000
v 8.652085 0.221628 26.500000
v 9.203553 -0.159023 26.500000
v 9.868751 -0.239792 26.500000
v 10.495291 -0.002177 26.500000
v 10.939638 0.499388 26.500000
v 10.900000 1.150000 26.700000
v 10.739230 0.550000 26.700000
v 10.300000 0.110770 26.700000
v 9.700000 -0.050000 26.700000
v 9.100000 0.110770 26.700000
v 8.660770 0.550000 26.700000
v 8.500000 1.150000 26.700000
v 8.660770 1.750000 26.700000
v 9.100000 2.189230 26.700000
v 9.700000 2.350000 26.700000
v 10.300000 2.189230 26.700000
v 10.739230 1.750000 26.700000
v 9.700000 2.523205 26.600000
v 9.700000 2.450000 26.673205
v 11.063193 1.315522 26.600000
v 10.990522 1.306698 26.673205
v 10.915521 0.689014 26.673205
v 10.983969 0.663055 26.600000
v 10.830126 1.930069 26.600000
v 10.769879 1.888484 26.673205
v 10.338160 2.365913 26.600000
v 10.304140 2.301093 26.673205
v 9.061840 2.365913 26.600000
v 9.095860 2.301093 26.673205
v 8.569874 1.930069 26.600000
v 8.630121 1.888484 26.673205
v 8.336807 1.315522 26.600000
v 8.409478 1.306698 26.673205
v 8.416031 0.663055 26.600000
v 8.484479 0.689014 26.673205
v 8.789397 0.122141 26.600000
v 8.837941 0.176936 26.673205
v 9.371371 -0.183302 26.600000
v 9.388890 -0.112224 26.673205
v 10.028629 -0.183302 26.600000
v 10.011110 -0.112224 26.673205
v 10.610603 0.122141 26.600000
v 10.562059 0.176936 26.673205
v 11.100000 1.150000 19.700000
v 10.939638 1.800612 19.700000
v 10.495291 2.302177 19.700000
v 9.868751 2.539792 19.700000
v 9.203553 2.459023 19.700000
v 8.652085 2.078372 19.700000
v 8.340681 1.485042 19.700000
v 8.340681 0.814958 19.700000
v 8.652085 0.221628 19.700000
v 9.203553 -0.159023 19.700000
v 9.868751 -0.239792 19.700000
v 10.495291 -0.002177 19.700000
v 10.939638 0.499388 19.700000
vt 0.000000 0.275544 0.000000
vt -0.010472 0.226918 0.000000
vt 0.000000 0.210710 0.000000
vt -0.010472 0.162085 0.000000
vt -0.000000 0.145876 0.000000
vt -0.010472 0.097251 0.000000
vt -0.000000 0.081042 0.000000
vt -0.010472 0.032417 0.000000
vt -0.000000 0.016208 0.000000
vt -0.010472 -0.032417 0.000000
vt -0.000000 -0.048625 0.000000
vt -0.010472 -0.097251 0.000000
vt -0.000000 -0.113459 0.000000
vt -0.010472 -0.162085 0.000000
vt -0.000000 -0.178293 0.000000
vt -0.010472 -0.226918 0.000000
vt 0.000000 -0.243127 0.000000
vt -0.010472 -0.291752 0.000000
vt 0.000000 -0.307961 0.000000
vt -0.010472 -0.356586 0.000000
vt 0.000000 -0.372795 0.000000
vt -0.010472 -0.421420 0.000000
vt 0.000000 -0.437628 0.000000
vt 0.000000 0.405211 0.000000
vt -0.010472 0.421420 0.000000
vt -0.010472 0.356586 0.000000
vt 0.000000 0.340378 0.000000
vt -0.010472 0.291752 0.000000
vt -0.031416 0.140473 0.000000
vt -0.020944 0.162085 0.000000
vt -0.031416 0.210710 0.000000
vt -0.020944 0.226918 0.000000
vt -0.031416 0.280947 0.000000
vt -0.020944 0.291752 0.000000
vt -0.031416 0.351183 0.000000
vt -0.020944 0.356586 0.000000
vt -0.031416 0.421420 0.000000
vt -0.020944 0.421420 0.000000
vt -0.031416 -0.421420 0.000000
vt -0.020944 -0.421420 0.000000
vt -0.020944 -0.356586 0.000000
vt -0.020944 0.097251 0.000000
vt -0.031416 0.070237 0.000000
vt -0.020944 0.032417 0.000000
vt -0.031416 0.000000 0.000000
vt -0.020944 -0.032417 0.000000
vt -0.031416 -0.070237 0.000000
vt -0.020944 -0.097251 0.000000
vt -0.031416 -0.140473 0.000000
vt -0.020944 -0.162085 0.000000
vt -0.031416 -0.210710 0.000000
vt -0.020944 -0.226918 0.000000
vt -0.031416 -0.280947 0.000000
vt -0.020944 -0.291752 0.000000
vt -0.031416 -0.351183 0.000000
vt -0.700000 0.372158 0.000000
vt -0.020000 0.372158 0.000000
vt -0.700000 0.439823 0.000000
vt -0.020000 0.439823 0.000000
vt -0.700000 -0.439823 0.000000
vt -0.020000 -0.439823 0.000000
vt -0.700000 -0.372158 0.000000
vt -0.020000 -0.372158 0.000000
vt -0.700000 -0.304493 0.000000
vt -0.020000 -0.304493 0.000000
vt -0.700000 -0.236828 0.000000
vt -0.020000 -0.236828 0.000000
vt -0.700000 -0.169163 0.000000
vt -0.020000 -0.169163 0.000000
vt -0.700000 -0.101498 0.000000
vt -0.020000 -0.101498 0.000000
vt -0.700000 -0.033833 0.000000
vt -0.020000 -0.033833 0.000000
vt -0.700000 0.033833 0.000000
vt -0.020000 0.033833 0.000000
vt -0.700000 0.101498 0.000000
vt -0.020000 0.101498 0.000000
vt -0.700000 0.169163 0.000000
vt -0.020000 0.169163 0.000000
vt -0.700000 0.236828 0.000000
vt -0.020000 0.236828 0.000000
vt -0.700000 0.304493 0.000000
vt -0.020000 0.304493 0.000000
vt -0.103923 -0.060000 0.000000
vt 0.103923 -0.060000 0.000000
vt -0.120000 0.000000 0.000000
vt 0.120000 -0.000000 0.000000
vt -0.103923 0.060000 0.000000
vt 0.103923 0.060000 0.000000
vt -0.060000 0.103923 0.000000
vt 0.060000 0.103923 0.000000
vt 0.000000 0.120000 0.000000
vt 0.060000 -0.103923 0.000000
vt -0.060000 -0.103923 0.000000
vt 0.000000 -0.120000 0.000000
vt 0.140000 -0.000000 0.000000
vt 0.123964 0.065061 0.000000
vt 0.123964 -0.065061 0.000000
vt 0.079529 -0.115218 0.000000
vt 0.079529 0.115218 0.000000
vt 0.016875 -0.138979 0.000000
vt 0.016875 0.138979 0.000000
vt -0.049645 -0.130902 0.000000
vt -0.049645 0.130902 0.000000
vt -0.104792 -0.092837 0.000000
vt -0.104792 0.092837 0.000000
vt -0.135932 -0.033504 0.000000
vt -0.135932 0.033504 0.000000
vn 0.088546 0.046472 -0.000000
vn 0.085971 0.010439 0.050000
vn 0.100000 0.000000 -0.000000
vn 0.080975 -0.030710 0.050000
vn 0.088546 -0.046472 0.000000
vn 0.057428 -0.064823 0.050000
vn 0.056806 -0.082298 0.000000
vn 0.020725 -0.084086 0.050000
vn 0.012054 -0.099271 0.000000
vn -0.020725 -0.084086 0.050000
vn -0.035460 -0.093502 0.000000
vn -0.057428 -0.064823 0.050000
vn -0.074851 -0.066312 0.000000
vn -0.080975 -0.030710 0.050000
vn -0.097094 -0.023932 0.000000
vn -0.085971 0.010439 0.050000
vn -0.097094 0.023932 -0.000000
vn -0.071272 0.049196 0.050000
vn -0.074851 0.066312 -0.000000
vn -0.040246 0.076683 0.050000
vn -0.035460 0.093502 -0.000000
vn -0.000000 0.086603 0.050000
vn 0.012054 0.099271 -0.000000
vn 0.040246 0.076683 0.050000
vn 0.056806 0.082298 -0.000000
vn 0.071272 0.049196 0.050000
vn 0.000000 -0.000000 0.100000
vn 0.046751 -0.017730 0.086603
vn 0.000000 -0.000000 0.100000
vn 0.049635 0.006027 0.086603
vn 0.000000 0.000000 0.100000
vn 0.041149 0.028403 0.086603
vn -0.000000 -0.000000 0.100000
vn 0.023236 0.044273 0.086603
vn 0.000000 -0.000000 0.100000
vn 0.000000 0.050000 0.086603
vn -0.023236 0.044273 0.086603
vn 0.033156 -0.037426 0.086603
vn 0.000000 -0.000000 0.100000
vn 0.011966 -0.048547 0.086603
vn 0.000000 -0.000000 0.100000
vn -0.011966 -0.048547 0.086603
vn 0.000000 0.000000 0.100000
vn -0.033156 -0.037426 0.086603
vn 0.000000 0.000000 0.100000
vn -0.046751 -0.017730 0.086603
vn 0.000000 -0.000000 0.100000
vn -0.049635 0.006027 0.086603
vn -0.000000 0.000000 0.100000
vn -0.041149 0.028403 0.086603
vn 0.000000 -0.000000 0.100000
vn 0.088546 0.046472 0.000000
vn 0.100000 0.000000 0.000000
vn 0.088546 -0.046472 -0.000000
vn 0.056806 -0.082298 -0.000000
vn 0.012054 -0.099271 -0.000000
vn -0.035460 -0.093502 -0.000000
vn -0.074851 -0.066312 -0.000000
vn -0.097094 -0.023932 -0.000000
vn -0.097094 0.023932 0.000000
vn -0.074851 0.066312 0.000000
vn -0.035460 0.093502 0.000000
vn 0.012054 0.099271 0.000000
vn 0.056806 0.082298 0.000000
vn -0.000000 0.000000 -0.100000
vn -0.000000 0.000000 -0.100000
vn -0.000000 0.000000 -0.100000
vn -0.000000 0.000000 -0.100000
vn -0.000000 0.000000 -0.100000
vn -0.000000 0.000000 -0.100000
vn -0.000000 0.000000 -0.100000
vn -0.000000 0.000000 -0.100000
vn -0.000000 0.000000 -0.100000
vn -0.000000 0.000000 -0.100000
vn -0.000000 0.000000 -0.100000
vn -0.000000 0.000000 -0.100000
vn -0.000000 0.000000 -0.100000
usemtl Plastic_-_Matte_(Blue)
f 2/1/1 28/2/2 1/3/3
f 1/3/3 28/2/2 31/4/4
f 1/3/3 31/4/4 13/5/5
f 13/5/5 31/4/4 50/6/6
f 13/5/5 50/6/6 12/7/7
f 12/7/7 50/6/6 48/8/8
f 12/7/7 48/8/8 11/9/9
f 11/9/9 48/8/8 46/10/10
f 11/9/9 46/10/10 10/11/11
f 10/11/11 46/10/10 44/12/12
f 10/11/11 44/12/12 9/13/13
f 9/13/13 44/12/12 42/14/14
f 9/13/13 42/14/14 8/15/15
f 8/15/15 42/14/14 40/16/16
f 8/15/15 40/16/16 7/17/17
f 7/17/17 40/16/16 38/18/18
f 7/17/17 38/18/18 6/19/19
f 6/19/19 38/18/18 36/20/20
f 6/19/19 36/20/20 5/21/21
f 5/21/21 36/20/20 26/22/22
f 5/21/21 26/22/22 4/23/23
f 4/24/23 26/25/22 34/26/24
f 4/24/23 34/26/24 3/27/25
f 3/27/25 34/26/24 32/28/26
f 3/27/25 32/28/26 2/1/1
f 2/1/1 32/28/26 28/2/2
f 15/29/27 30/30/28 14/31/29
f 14/31/29 30/30/28 29/32/30
f 14/31/29 29/32/30 25/33/31
f 25/33/31 29/32/30 33/34/32
f 25/33/31 33/34/32 24/35/33
f 24/35/33 33/34/32 35/36/34
f 24/35/33 35/36/34 23/37/35
f 23/37/35 35/36/34 27/38/36
f 23/39/35 27/40/36 37/41/37
f 37/41/37 27/40/36 26/22/22
f 37/41/37 26/22/22 36/20/20
f 30/30/28 15/29/27 51/42/38
f 51/42/38 15/29/27 16/43/39
f 51/42/38 16/43/39 49/44/40
f 49/44/40 16/43/39 17/45/41
f 49/44/40 17/45/41 47/46/42
f 47/46/42 17/45/41 18/47/43
f 47/46/42 18/47/43 45/48/44
f 45/48/44 18/47/43 19/49/45
f 45/48/44 19/49/45 43/50/46
f 43/50/46 19/49/45 20/51/47
f 43/50/46 20/51/47 41/52/48
f 41/52/48 20/51/47 21/53/49
f 41/52/48 21/53/49 39/54/50
f 39/54/50 21/53/49 22/55/51
f 39/54/50 22/55/51 37/41/37
f 37/41/37 22/55/51 23/39/35
f 26/25/22 27/38/36 34/26/24
f 34/26/24 27/38/36 35/36/34
f 34/26/24 35/36/34 32/28/26
f 32/28/26 35/36/34 33/34/32
f 32/28/26 33/34/32 28/2/2
f 28/2/2 33/34/32 29/32/30
f 28/2/2 29/32/30 31/4/4
f 31/4/4 29/32/30 30/30/28
f 31/4/4 30/30/28 50/6/6
f 50/6/6 30/30/28 51/42/38
f 50/6/6 51/42/38 48/8/8
f 48/8/8 51/42/38 49/44/40
f 48/8/8 49/44/40 46/10/10
f 46/10/10 49/44/40 47/46/42
f 46/10/10 47/46/42 44/12/12
f 44/12/12 47/46/42 45/48/44
f 44/12/12 45/48/44 42/14/14
f 42/14/14 45/48/44 43/50/46
f 42/14/14 43/50/46 40/16/16
f 40/16/16 43/50/46 41/52/48
f 40/16/16 41/52/48 38/18/18
f 38/18/18 41/52/48 39/54/50
f 38/18/18 39/54/50 36/20/20
f 36/20/20 39/54/50 37/41/37
f 53/56/52 2/57/1 52/58/53
f 52/58/53 2/57/1 1/59/3
f 52/60/53 1/61/3 64/62/54
f 64/62/54 1/61/3 13/63/5
f 64/62/54 13/63/5 63/64/55
f 63/64/55 13/63/5 12/65/7
f 63/64/55 12/65/7 62/66/56
f 62/66/56 12/65/7 11/67/9
f 62/66/56 11/67/9 61/68/57
f 61/68/57 11/67/9 10/69/11
f 61/68/57 10/69/11 60/70/58
f 60/70/58 10/69/11 9/71/13
f 60/70/58 9/71/13 59/72/59
f 59/72/59 9/71/13 8/73/15
f 59/72/59 8/73/15 58/74/60
f 58/74/60 8/73/15 7/75/17
f 58/74/60 7/75/17 57/76/61
f 57/76/61 7/75/17 6/77/19
f 57/76/61 6/77/19 56/78/62
f 56/78/62 6/77/19 5/79/21
f 56/78/62 5/79/21 55/80/63
f 55/80/63 5/79/21 4/81/23
f 55/80/63 4/81/23 54/82/64
f 54/82/64 4/81/23 3/83/25
f 54/82/64 3/83/25 53/56/52
f 53/56/52 3/83/25 2/57/1
f 25/84/31 21/85/49 14/86/29
f 14/86/29 21/85/49 20/87/47
f 14/86/29 20/87/47 15/88/27
f 15/88/27 20/87/47 19/89/45
f 15/88/27 19/89/45 16/90/39
f 16/90/39 19/89/45 18/91/43
f 16/90/39 18/91/43 17/92/41
f 21/85/49 25/84/31 22/93/51
f 22/93/51 25/84/31 24/94/33
f 22/93/51 24/94/33 23/95/35
f 52/96/65 64/97/66 53/98/67
f 53/98/67 64/97/66 54/99/68
f 54/99/68 64/97/66 63/100/69
f 54/99/68 63/100/69 55/101/70
f 55/101/70 63/100/69 62/102/71
f 55/101/70 62/102/71 56/103/72
f 56/103/72 62/102/71 61/104/73
f 56/103/72 61/104/73 57/105/74
f 57/105/74 61/104/73 60/106/75
f 57/105/74 60/106/75 58/107/76
f 58/107/76 60/106/75 59/108/77
# 64 vertices
# 108 texture params
# 77 normals
# 124 facets

# 1 groups
