# WaveFront *.obj file (generated by Autodesk ATF)

mtllib 8bitdo lite 2 v6 v12_8bitdo lite 2 v6 v12_Shoulder-Right-Middle_8bitdo lite 2 v6 v12.mtl

g Shoulder-Right-Middle

v 40.000000 3.000000 11.200000
v 38.341732 3.000000 11.363325
v 36.747191 3.000000 11.847024
v 35.277653 3.000000 12.632508
v 33.989592 3.000000 13.689592
v 32.932508 3.000000 14.977653
v 32.147024 3.000000 16.447191
v 31.663325 3.000000 18.041732
v 31.500000 3.000000 19.700000
v 31.500000 5.800000 19.700000
v 31.663325 5.800000 18.041732
v 32.147024 5.800000 16.447191
v 32.932508 5.800000 14.977653
v 33.989592 5.800000 13.689592
v 35.277653 5.800000 12.632508
v 36.747191 5.800000 11.847024
v 38.341732 5.800000 11.363325
v 40.000000 5.800000 11.200000
v 31.500000 3.000000 26.700000
v 31.500000 3.966803 26.621595
v 31.500000 4.908339 26.388431
v 31.500000 5.800000 26.006600
v 38.000000 5.800000 26.006600
v 40.679025 5.800000 25.837503
v 43.315526 5.800000 25.332895
v 45.867656 5.800000 24.500787
v 48.294904 5.800000 23.354387
v 50.558743 5.800000 21.911890
v 52.623242 5.800000 20.196193
v 54.455629 5.800000 18.234529
v 56.026820 5.800000 16.058035
v 57.311876 5.800000 13.701258
v 58.290399 5.800000 11.201606
v 58.290399 5.800000 11.200000
v 59.017850 3.000000 11.200000
v 58.128437 3.000000 13.579528
v 56.970651 3.000000 15.840665
v 55.559927 3.000000 17.953262
v 53.915075 3.000000 19.889153
v 52.058027 3.000000 21.622526
v 50.013542 3.000000 23.130269
v 47.808879 3.000000 24.392280
v 45.473434 3.000000 25.391732
v 43.038345 3.000000 26.115300
v 40.536079 3.000000 26.553336
v 38.000000 3.000000 26.700000
v 58.558823 5.250634 11.200000
v 58.758038 4.706022 11.201375
v 58.901714 4.148385 11.200000
v 58.762701 4.691026 11.200000
v 58.988515 3.574974 11.201233
v 58.994255 3.521710 11.200000
v 38.000000 4.908339 26.388431
v 38.000000 3.966803 26.621595
v 57.864376 4.442290 13.738618
v 56.558581 4.442290 16.183429
v 54.953449 4.442290 18.443021
v 53.074871 4.442290 20.480948
v 50.953146 4.442290 22.264341
v 48.622497 4.442290 23.764433
v 46.120515 4.442290 24.957031
v 43.487555 4.442290 25.822898
v 40.755088 4.442290 26.349470
vt 0.320000 -0.667588 0.000000
vt 0.600000 -0.667588 0.000000
vt 0.320000 -0.500691 0.000000
vt 0.600000 -0.500691 0.000000
vt 0.320000 -0.333794 0.000000
vt 0.600000 -0.333794 0.000000
vt 0.320000 -0.166897 0.000000
vt 0.600000 -0.166897 0.000000
vt 0.320000 0.000000 0.000000
vt 0.600000 0.000000 0.000000
vt 0.320000 0.166897 0.000000
vt 0.600000 0.166897 0.000000
vt 0.320000 0.333794 0.000000
vt 0.600000 0.333794 0.000000
vt 0.320000 0.500691 0.000000
vt 0.600000 0.500691 0.000000
vt 0.320000 0.667588 0.000000
vt 0.600000 0.667588 0.000000
vt -1.480660 0.320000 0.000000
vt -0.850000 0.320000 0.000000
vt -1.518843 0.409166 0.000000
vt -0.850000 0.600000 0.000000
vt -1.542160 0.503320 0.000000
vt -1.550000 0.600000 0.000000
vt -0.684173 1.136333 0.000000
vt -0.524719 1.184702 0.000000
vt -0.850000 1.120000 0.000000
vt -0.377765 1.263251 0.000000
vt -0.248959 1.368959 0.000000
vt -0.143251 1.497765 0.000000
vt -2.112324 2.019619 0.000000
vt -2.295563 1.823453 0.000000
vt -0.064702 1.644719 0.000000
vt -1.905874 2.191189 0.000000
vt -0.016333 1.804173 0.000000
vt -1.679490 2.335439 0.000000
vt -0.000000 1.970000 0.000000
vt -1.436766 2.450079 0.000000
vt -1.181553 2.533290 0.000000
vt -0.917902 2.583750 0.000000
vt -0.650000 2.600660 0.000000
vt -0.000000 2.600660 0.000000
vt -2.452682 1.605803 0.000000
vt -2.581188 1.370126 0.000000
vt -2.679040 1.120161 0.000000
vt -2.679040 1.120000 0.000000
vt -2.735452 1.804173 0.000000
vt -0.900431 2.313027 0.000000
vt -2.751785 1.970000 0.000000
vt -1.120897 2.439228 0.000000
vt -1.354442 2.539173 0.000000
vt -0.695982 2.162253 0.000000
vt -2.687083 1.644719 0.000000
vt -2.608534 1.497765 0.000000
vt -2.502826 1.368959 0.000000
vt -1.901785 1.120000 0.000000
vt -0.510277 1.988915 0.000000
vt -2.374020 1.263251 0.000000
vt -2.227066 1.184702 0.000000
vt -2.067612 1.136333 0.000000
vt -0.000000 1.120000 0.000000
vt -0.088941 1.357953 0.000000
vt -0.204720 1.584066 0.000000
vt -0.345792 1.795326 0.000000
vt -1.597950 2.611530 0.000000
vt -1.848177 2.655334 0.000000
vt -2.101785 2.670000 0.000000
vt -2.751785 2.670000 0.000000
vt 0.288451 1.120161 0.000000
vt 0.227156 1.120000 0.000000
vt 0.288451 1.120000 0.000000
vt 0.176000 1.120137 0.000000
vt 0.174407 1.120000 0.000000
vt 0.118296 1.120000 0.000000
vt 0.057706 1.120123 0.000000
vt 0.052481 1.120000 0.000000
vt -0.000000 1.120000 0.000000
vt -2.037499 0.320000 0.000000
vt -0.161228 0.430897 0.000000
vt -2.037499 0.600000 0.000000
vt -0.147327 0.485161 0.000000
vt -0.138073 0.547829 0.000000
vt -0.208459 0.320000 0.000000
vt -0.181616 0.374937 0.000000
vt -0.135714 0.600000 0.000000
vt -0.000000 6.201662 0.000000
vt -0.057586 6.200684 0.000000
vt 0.000000 5.949521 0.000000
vt -0.145655 5.924307 0.000000
vt -0.000000 5.697381 0.000000
vt -0.145655 5.646953 0.000000
vt -0.000000 5.445241 0.000000
vt -0.145655 5.369598 0.000000
vt -0.000000 5.193100 0.000000
vt -0.145655 5.092244 0.000000
vt 0.000000 4.940960 0.000000
vt -0.145655 4.814889 0.000000
vt -0.000000 4.688819 0.000000
vt -0.145655 4.537535 0.000000
vt 0.000000 4.436679 0.000000
vt -0.145655 4.260180 0.000000
vt 0.000000 4.184538 0.000000
vt -0.145655 3.982826 0.000000
vt -0.000000 3.932398 0.000000
vt -0.145655 3.704363 0.000000
vt 0.000000 3.680257 0.000000
vt -0.097104 3.428117 0.000000
vt 0.000000 3.428117 0.000000
vt -0.115551 6.198241 0.000000
vt -0.172989 6.193828 0.000000
vt -0.230706 6.187935 0.000000
vt -0.291311 6.179490 0.000000
vt -0.291311 5.904352 0.000000
vt -0.291311 5.629215 0.000000
vt -0.291311 5.354078 0.000000
vt -0.291311 5.078941 0.000000
vt -0.291311 4.803803 0.000000
vt -0.291311 4.528666 0.000000
vt -0.291311 4.253529 0.000000
vt -0.291311 3.978392 0.000000
vt -0.291311 3.703254 0.000000
vt -0.194207 3.428117 0.000000
vt -0.291311 3.428117 0.000000
vt -2.300000 0.179928 0.000000
vt -1.650000 0.179928 0.000000
vt -2.300000 0.277032 0.000000
vt -1.650000 0.277032 0.000000
vt -1.650000 0.374135 0.000000
vt -1.650000 0.471239 0.000000
vt -2.300000 0.471239 0.000000
vt -2.300000 0.374135 0.000000
vn 0.000000 0.000000 -0.100000
vn 0.000000 0.000000 -0.100000
vn -0.019509 0.000000 -0.098079
vn -0.019509 0.000000 -0.098079
vn -0.038268 0.000000 -0.092388
vn -0.038268 0.000000 -0.092388
vn -0.055557 0.000000 -0.083147
vn -0.055557 0.000000 -0.083147
vn -0.070711 0.000000 -0.070711
vn -0.070711 0.000000 -0.070711
vn -0.083147 0.000000 -0.055557
vn -0.083147 0.000000 -0.055557
vn -0.092388 0.000000 -0.038268
vn -0.092388 0.000000 -0.038268
vn -0.098079 0.000000 -0.019509
vn -0.098079 0.000000 -0.019509
vn -0.100000 0.000000 -0.000000
vn -0.100000 0.000000 -0.000000
vn -0.100000 0.000000 0.000000
vn -0.100000 0.000000 0.000000
vn -0.100000 0.000000 0.000000
vn -0.100000 0.000000 0.000000
vn 0.000000 0.100000 0.000000
vn 0.000000 0.100000 0.000000
vn 0.000000 0.100000 0.000000
vn 0.000000 0.100000 0.000000
vn 0.000000 0.100000 0.000000
vn 0.000000 0.100000 0.000000
vn 0.000000 0.100000 0.000000
vn 0.000000 0.100000 0.000000
vn 0.000000 0.100000 0.000000
vn 0.000000 0.100000 0.000000
vn 0.000000 0.100000 0.000000
vn 0.000000 0.100000 0.000000
vn 0.000000 0.100000 0.000000
vn 0.000000 0.100000 0.000000
vn 0.000000 0.100000 0.000000
vn 0.000000 0.100000 0.000000
vn 0.000000 0.100000 0.000000
vn 0.000000 0.100000 0.000000
vn 0.000000 0.100000 0.000000
vn 0.000000 0.100000 0.000000
vn 0.000000 0.100000 0.000000
vn 0.000000 0.100000 0.000000
vn 0.000000 -0.100000 -0.000000
vn 0.000000 -0.100000 -0.000000
vn 0.000000 -0.100000 -0.000000
vn 0.000000 -0.100000 -0.000000
vn 0.000000 -0.100000 -0.000000
vn 0.000000 -0.100000 -0.000000
vn 0.000000 -0.100000 -0.000000
vn 0.000000 -0.100000 -0.000000
vn 0.000000 -0.100000 -0.000000
vn 0.000000 -0.100000 -0.000000
vn 0.000000 -0.100000 -0.000000
vn 0.000000 -0.100000 -0.000000
vn 0.000000 -0.100000 -0.000000
vn 0.000000 -0.100000 -0.000000
vn 0.000000 -0.100000 -0.000000
vn 0.000000 -0.100000 -0.000000
vn 0.000000 -0.100000 -0.000000
vn 0.000000 -0.100000 -0.000000
vn 0.000000 -0.100000 -0.000000
vn 0.000000 -0.100000 -0.000000
vn 0.000000 -0.100000 -0.000000
vn 0.000000 -0.100000 -0.000000
vn 0.087477 0.048454 0.000000
vn 0.092053 0.039067 0.000000
vn 0.087477 0.048454 0.000000
vn 0.095492 0.029686 0.000000
vn 0.095570 0.029434 0.000000
vn 0.097978 0.020008 0.000000
vn 0.097978 0.020008 0.000000
vn 0.099496 0.010024 0.000000
vn 0.099583 0.009122 0.000000
vn 0.100000 0.000000 0.000000
vn 0.000000 0.000000 -0.100000
vn 0.000000 0.000000 -0.100000
vn 0.000000 0.000000 -0.100000
vn 0.000000 0.000000 -0.100000
vn 0.000000 0.000000 -0.100000
vn 0.000000 0.000000 -0.100000
vn 0.095536 -0.000000 0.029545
vn 0.095083 0.009583 0.029452
vn 0.091493 -0.000000 0.040361
vn 0.088352 0.024038 0.040201
vn 0.086230 -0.000000 0.050639
vn 0.082544 0.024038 0.051075
vn 0.079818 -0.000000 0.060242
vn 0.075405 0.024038 0.061125
vn 0.072341 -0.000000 0.069042
vn 0.067049 0.024038 0.070190
vn 0.063900 -0.000000 0.076921
vn 0.057612 0.024038 0.078122
vn 0.054607 -0.000000 0.083774
vn 0.047246 0.024038 0.084794
vn 0.044586 -0.000000 0.089510
vn 0.036118 0.024038 0.090098
vn 0.033970 -0.000000 0.094053
vn 0.024407 0.024038 0.093949
vn 0.022902 -0.000000 0.097342
vn 0.012254 0.024038 0.096291
vn 0.011528 -0.000000 0.099333
vn -0.000000 0.016113 0.098693
vn -0.000000 -0.000000 0.100000
vn 0.093724 0.019140 0.029146
vn 0.091490 0.028434 0.028655
vn 0.088386 0.037511 0.027945
vn 0.084225 0.046667 0.026988
vn 0.080163 0.046667 0.037364
vn 0.074829 0.046667 0.047147
vn 0.068307 0.046667 0.056182
vn 0.060701 0.046667 0.064324
vn 0.052131 0.046667 0.071446
vn 0.042734 0.046667 0.077434
vn 0.032659 0.046667 0.082193
vn 0.022065 0.046667 0.085647
vn 0.011121 0.046667 0.087741
vn -0.000000 0.031806 0.094807
vn -0.000000 0.046667 0.088443
vn 0.000000 0.046667 0.088443
vn 0.000000 0.031806 0.094807
vn 0.000000 0.016113 0.098693
vn 0.000000 -0.000000 0.100000
usemtl Plastic_-_Matte_(Blue)
f 18/1/1 1/2/2 17/3/3
f 17/3/3 1/2/2 2/4/4
f 17/3/3 2/4/4 16/5/5
f 16/5/5 2/4/4 3/6/6
f 16/5/5 3/6/6 15/7/7
f 15/7/7 3/6/6 4/8/8
f 15/7/7 4/8/8 14/9/9
f 14/9/9 4/8/8 5/10/10
f 14/9/9 5/10/10 13/11/11
f 13/11/11 5/10/10 6/12/12
f 13/11/11 6/12/12 12/13/13
f 12/13/13 6/12/12 7/14/14
f 12/13/13 7/14/14 11/15/15
f 11/15/15 7/14/14 8/16/16
f 11/15/15 8/16/16 10/17/17
f 10/17/17 8/16/16 9/18/18
f 22/19/19 10/20/17 21/21/20
f 21/21/20 10/20/17 9/22/18
f 21/21/20 9/22/18 20/23/21
f 20/23/21 9/22/18 19/24/22
f 17/25/23 16/26/24 18/27/25
f 18/27/25 16/26/24 15/28/26
f 18/27/25 15/28/26 14/29/27
f 14/29/27 13/30/28 18/27/25
f 18/27/25 13/30/28 29/31/29
f 18/27/25 29/31/29 30/32/30
f 13/30/28 12/33/31 29/31/29
f 29/31/29 12/33/31 28/34/32
f 28/34/32 12/33/31 11/35/33
f 28/34/32 11/35/33 27/36/34
f 27/36/34 11/35/33 10/37/35
f 27/36/34 10/37/35 26/38/36
f 26/38/36 10/37/35 25/39/37
f 25/39/37 10/37/35 24/40/38
f 24/40/38 10/37/35 23/41/39
f 23/41/39 10/37/35 22/42/40
f 30/32/30 31/43/41 18/27/25
f 18/27/25 31/43/41 32/44/42
f 18/27/25 32/44/42 33/45/43
f 33/45/43 34/46/44 18/27/25
f 8/47/45 41/48/46 9/49/47
f 9/49/47 41/48/46 42/50/48
f 9/49/47 42/50/48 43/51/49
f 41/48/46 8/47/45 40/52/50
f 40/52/50 8/47/45 7/53/51
f 40/52/50 7/53/51 6/54/52
f 5/55/53 1/56/54 6/54/52
f 6/54/52 1/56/54 39/57/55
f 6/54/52 39/57/55 40/52/50
f 5/55/53 4/58/56 1/56/54
f 1/56/54 4/58/56 3/59/57
f 1/56/54 3/59/57 2/60/58
f 35/61/59 36/62/60 1/56/54
f 1/56/54 36/62/60 37/63/61
f 1/56/54 37/63/61 38/64/62
f 38/64/62 39/57/55 1/56/54
f 43/51/49 44/65/63 9/49/47
f 9/49/47 44/65/63 45/66/64
f 9/49/47 45/66/64 46/67/65
f 46/67/65 19/68/66 9/49/47
f 33/69/67 47/70/68 34/71/69
f 47/70/68 48/72/70 50/73/71
f 50/73/71 48/72/70 49/74/72
f 49/74/73 51/75/74 52/76/75
f 52/76/75 51/75/74 35/77/76
f 18/78/1 50/79/77 1/80/2
f 1/80/2 50/79/77 49/81/78
f 1/80/2 49/81/78 52/82/79
f 34/83/80 47/84/81 18/78/1
f 18/78/1 47/84/81 50/79/77
f 52/82/79 35/85/82 1/80/2
f 35/86/83 51/87/84 36/88/85
f 36/88/85 51/87/84 55/89/86
f 36/88/85 55/89/86 37/90/87
f 37/90/87 55/89/86 56/91/88
f 37/90/87 56/91/88 38/92/89
f 38/92/89 56/91/88 57/93/90
f 38/92/89 57/93/90 39/94/91
f 39/94/91 57/93/90 58/95/92
f 39/94/91 58/95/92 40/96/93
f 40/96/93 58/95/92 59/97/94
f 40/96/93 59/97/94 41/98/95
f 41/98/95 59/97/94 60/99/96
f 41/98/95 60/99/96 42/100/97
f 42/100/97 60/99/96 61/101/98
f 42/100/97 61/101/98 43/102/99
f 43/102/99 61/101/98 62/103/100
f 43/102/99 62/103/100 44/104/101
f 44/104/101 62/103/100 63/105/102
f 44/104/101 63/105/102 45/106/103
f 45/106/103 63/105/102 54/107/104
f 45/106/103 54/107/104 46/108/105
f 51/87/84 49/109/106 55/89/86
f 55/89/86 49/109/106 48/110/107
f 55/89/86 48/110/107 47/111/108
f 33/112/109 32/113/110 47/111/108
f 47/111/108 32/113/110 55/89/86
f 55/89/86 32/113/110 56/91/88
f 56/91/88 32/113/110 31/114/111
f 56/91/88 31/114/111 57/93/90
f 57/93/90 31/114/111 30/115/112
f 57/93/90 30/115/112 58/95/92
f 58/95/92 30/115/112 29/116/113
f 58/95/92 29/116/113 59/97/94
f 59/97/94 29/116/113 28/117/114
f 59/97/94 28/117/114 60/99/96
f 60/99/96 28/117/114 27/118/115
f 60/99/96 27/118/115 61/101/98
f 61/101/98 27/118/115 26/119/116
f 61/101/98 26/119/116 62/103/100
f 62/103/100 26/119/116 25/120/117
f 62/103/100 25/120/117 63/105/102
f 63/105/102 25/120/117 24/121/118
f 63/105/102 24/121/118 53/122/119
f 53/122/119 24/121/118 23/123/120
f 53/122/119 54/107/104 63/105/102
f 23/124/120 22/125/121 53/126/119
f 53/126/119 22/125/121 21/127/122
f 53/126/119 21/127/122 20/128/123
f 19/129/124 46/130/105 20/128/123
f 20/128/123 46/130/105 54/131/104
f 20/128/123 54/131/104 53/126/119
# 63 vertices
# 131 texture params
# 124 normals
# 122 facets

# 1 groups
