# WaveFront *.obj file (generated by Autodesk ATF)

mtllib _OneXPlayerMini v62_A_OneXPlayerMini v62.mtl

g A

v 105.299342 -10.000000 12.279314
v 105.641884 -10.000000 10.557238
v 106.617362 -10.000000 9.097333
v 108.077267 -10.000000 8.121856
v 109.799342 -10.000000 7.779314
v 111.521418 -10.000000 8.121856
v 112.981323 -10.000000 9.097333
v 113.956800 -10.000000 10.557238
v 114.299342 -10.000000 12.279314
v 113.956800 -10.000000 14.001389
v 112.981323 -10.000000 15.461294
v 111.521418 -10.000000 16.436771
v 109.799342 -10.000000 16.779314
v 108.077267 -10.000000 16.436771
v 106.617362 -10.000000 15.461294
v 105.641884 -10.000000 14.001389
v 105.299342 -11.500000 12.279314
v 105.641884 -11.500000 14.001389
v 106.617362 -11.500000 15.461294
v 108.077267 -11.500000 16.436771
v 109.799342 -11.500000 16.779314
v 111.521418 -11.500000 16.436771
v 112.981323 -11.500000 15.461294
v 113.956800 -11.500000 14.001389
v 114.299342 -11.500000 12.279314
v 113.956800 -11.500000 10.557238
v 112.981323 -11.500000 9.097333
v 111.521418 -11.500000 8.121856
v 109.799342 -11.500000 7.779314
v 108.077267 -11.500000 8.121856
v 106.617362 -11.500000 9.097333
v 105.641884 -11.500000 10.557238
v 105.799342 -12.000000 12.279314
v 106.145160 -12.000000 13.906260
v 107.122820 -12.000000 15.251893
v 108.563274 -12.000000 16.083540
v 110.217456 -12.000000 16.257401
v 111.799342 -12.000000 15.743415
v 113.035410 -12.000000 14.630455
v 113.711933 -12.000000 13.110960
v 113.711933 -12.000000 11.447667
v 113.035410 -12.000000 9.928173
v 111.799342 -12.000000 8.815212
v 110.217456 -12.000000 8.301226
v 108.563274 -12.000000 8.475087
v 107.122820 -12.000000 9.306734
v 106.145160 -12.000000 10.652367
v 109.799342 -11.750000 16.712326
v 109.799342 -11.933013 16.529314
v 105.703772 -11.750000 10.582873
v 105.872854 -11.933013 10.652909
v 105.549342 -11.933013 12.279314
v 105.366329 -11.750000 12.279314
v 106.664729 -11.750000 9.144700
v 106.794138 -11.933013 9.274110
v 108.102902 -11.750000 8.183744
v 108.172938 -11.933013 8.352826
v 109.799342 -11.750000 7.846301
v 109.799342 -11.933013 8.029314
v 111.495783 -11.750000 8.183744
v 111.425747 -11.933013 8.352826
v 112.933955 -11.750000 9.144700
v 112.804546 -11.933013 9.274110
v 113.894912 -11.750000 10.582873
v 113.725830 -11.933013 10.652909
v 114.232355 -11.750000 12.279314
v 114.049342 -11.933013 12.279314
v 113.894912 -11.750000 13.975754
v 113.725830 -11.933013 13.905718
v 112.933955 -11.750000 15.413927
v 112.804546 -11.933013 15.284517
v 111.495783 -11.750000 16.374883
v 111.425747 -11.933013 16.205802
v 108.102902 -11.750000 16.374883
v 108.172938 -11.933013 16.205802
v 106.664729 -11.750000 15.413927
v 106.794138 -11.933013 15.284517
v 105.703772 -11.750000 13.975754
v 105.872854 -11.933013 13.905718
v 108.825759 -10.000000 11.700779
v 110.707410 -10.000000 11.700779
v 111.232308 -10.000000 10.337887
v 111.910684 -10.000000 10.337887
v 110.068938 -10.000000 14.837887
v 109.427396 -10.000000 14.837887
v 107.699225 -10.000000 10.337887
v 108.331557 -10.000000 10.337887
v 110.707410 -12.000000 11.700779
v 108.825759 -12.000000 11.700779
v 108.331557 -12.000000 10.337887
v 107.699225 -12.000000 10.337887
v 109.427396 -12.000000 14.837887
v 110.068938 -12.000000 14.837887
v 111.910684 -12.000000 10.337887
v 111.232308 -12.000000 10.337887
vt 0.000000 -1.237002 0.000000
vt -0.150000 -1.237002 0.000000
vt -0.000000 -1.413717 0.000000
vt -0.150000 -1.413717 0.000000
vt -0.000000 1.413717 0.000000
vt -0.150000 1.413717 0.000000
vt -0.000000 1.237002 0.000000
vt -0.150000 1.237002 0.000000
vt -0.000000 1.060288 0.000000
vt -0.150000 1.060288 0.000000
vt -0.000000 0.883573 0.000000
vt -0.150000 0.883573 0.000000
vt -0.000000 0.706858 0.000000
vt -0.150000 0.706858 0.000000
vt -0.000000 0.530144 0.000000
vt -0.150000 0.530144 0.000000
vt -0.000000 0.353429 0.000000
vt -0.150000 0.353429 0.000000
vt -0.000000 0.176715 0.000000
vt -0.150000 0.176715 0.000000
vt -0.000000 0.000000 0.000000
vt -0.150000 0.000000 0.000000
vt -0.000000 -0.176715 0.000000
vt -0.150000 -0.176715 0.000000
vt -0.000000 -0.353429 0.000000
vt -0.150000 -0.353429 0.000000
vt -0.000000 -0.530144 0.000000
vt -0.150000 -0.530144 0.000000
vt -0.000000 -0.706858 0.000000
vt -0.150000 -0.706858 0.000000
vt -0.000000 -0.883573 0.000000
vt -0.150000 -0.883573 0.000000
vt 0.000000 -1.060288 0.000000
vt -0.150000 -1.060288 0.000000
vt -0.000000 -0.512891 0.000000
vt -0.026180 -0.512891 0.000000
vt -0.000000 -0.683855 0.000000
vt -0.026180 -0.683855 0.000000
vt -0.000000 -0.854818 0.000000
vt -0.026180 -0.854818 0.000000
vt -0.000000 -1.025782 0.000000
vt -0.026180 -1.025782 0.000000
vt -0.000000 -1.196745 0.000000
vt -0.026180 -1.196745 0.000000
vt 0.000000 -1.367709 0.000000
vt -0.026180 -1.367709 0.000000
vt 0.000000 1.367709 0.000000
vt -0.026180 1.367709 0.000000
vt 0.000000 1.196745 0.000000
vt -0.026180 1.196745 0.000000
vt 0.000000 1.025782 0.000000
vt -0.026180 1.025782 0.000000
vt 0.000000 0.854818 0.000000
vt -0.026180 0.854818 0.000000
vt 0.000000 0.683855 0.000000
vt -0.026180 0.683855 0.000000
vt -0.000000 0.512891 0.000000
vt -0.026180 0.512891 0.000000
vt -0.000000 0.341927 0.000000
vt -0.026180 0.341927 0.000000
vt -0.000000 0.170964 0.000000
vt -0.026180 0.170964 0.000000
vt -0.000000 0.000000 0.000000
vt -0.026180 -0.000000 0.000000
vt -0.000000 -0.170964 0.000000
vt -0.026180 -0.170964 0.000000
vt -0.000000 -0.341927 0.000000
vt -0.026180 -0.341927 0.000000
vt -0.078540 -0.866216 0.000000
vt -0.052360 -0.854818 0.000000
vt -0.078540 -0.683855 0.000000
vt -0.052360 -0.683855 0.000000
vt -0.052360 -0.512891 0.000000
vt -0.052360 -1.025782 0.000000
vt -0.078540 -1.048577 0.000000
vt -0.052360 -1.196745 0.000000
vt -0.078540 -1.230938 0.000000
vt -0.052360 -1.367709 0.000000
vt -0.052360 1.367709 0.000000
vt -0.078540 1.504480 0.000000
vt -0.078540 1.322119 0.000000
vt -0.052360 1.196745 0.000000
vt -0.078540 1.139758 0.000000
vt -0.052360 1.025782 0.000000
vt -0.078540 0.957396 0.000000
vt -0.052360 0.854818 0.000000
vt -0.078540 0.775035 0.000000
vt -0.052360 0.683855 0.000000
vt -0.078540 0.592674 0.000000
vt -0.052360 0.512891 0.000000
vt -0.078540 0.410313 0.000000
vt -0.052360 0.341927 0.000000
vt -0.078540 0.227952 0.000000
vt -0.052360 0.170964 0.000000
vt -0.078540 0.045590 0.000000
vt -0.052360 -0.000000 0.000000
vt -0.078540 -0.136771 0.000000
vt -0.052360 -0.170964 0.000000
vt -0.078540 -0.319132 0.000000
vt -0.052360 -0.341927 0.000000
vt -0.078540 -0.501493 0.000000
vt 10.564188 -1.180724 0.000000
vt 10.529934 -1.352931 0.000000
vt 10.769922 -1.158789 0.000000
vt 10.564188 -1.525139 0.000000
vt 10.942740 -1.608789 0.000000
vt 10.661736 -1.671129 0.000000
vt 10.807727 -1.768677 0.000000
vt 10.979934 -1.802931 0.000000
vt 11.006894 -1.608789 0.000000
vt 11.152142 -1.768677 0.000000
vt 11.298132 -1.671129 0.000000
vt 11.395680 -1.525139 0.000000
vt 11.191068 -1.158789 0.000000
vt 11.429934 -1.352931 0.000000
vt 11.395680 -1.180724 0.000000
vt 11.298132 -1.034733 0.000000
vt 11.152142 -0.937186 0.000000
vt 11.123231 -1.158789 0.000000
vt 10.979934 -0.902931 0.000000
vt 10.833156 -1.158789 0.000000
vt 10.807727 -0.937186 0.000000
vt 10.661736 -1.034733 0.000000
vt 10.882576 -1.295078 0.000000
vt 11.070741 -1.295078 0.000000
vt -10.614516 -1.515626 0.000000
vt -10.579934 -1.352931 0.000000
vt -10.769922 -1.158789 0.000000
vt -10.614516 -1.190237 0.000000
vt -10.712282 -1.055673 0.000000
vt -10.833156 -1.158789 0.000000
vt -10.856327 -0.972509 0.000000
vt -11.021746 -0.955123 0.000000
vt -11.123231 -1.158789 0.000000
vt -11.179934 -1.006521 0.000000
vt -11.191068 -1.158789 0.000000
vt -11.303541 -1.117817 0.000000
vt -11.371193 -1.269767 0.000000
vt -11.371193 -1.436096 0.000000
vt -11.006894 -1.608789 0.000000
vt -11.303541 -1.588045 0.000000
vt -11.179934 -1.699341 0.000000
vt -11.021746 -1.750740 0.000000
vt -10.942740 -1.608789 0.000000
vt -10.856327 -1.733354 0.000000
vt -10.712282 -1.650189 0.000000
vt -10.882576 -1.295078 0.000000
vt -11.070741 -1.295078 0.000000
vt -0.144973 0.000000 0.000000
vt 0.000000 0.000000 0.000000
vt -0.144973 0.200000 0.000000
vt 0.000000 0.200000 0.000000
vt -0.063233 0.000000 0.000000
vt -0.000000 0.000000 0.000000
vt -0.063233 0.200000 0.000000
vt -0.000000 0.200000 0.000000
vt -0.482043 0.000000 0.000000
vt -0.000000 0.000000 0.000000
vt -0.482043 0.200000 0.000000
vt -0.000000 0.200000 0.000000
vt -0.064154 0.000000 0.000000
vt -0.000000 0.000000 0.000000
vt -0.064154 0.200000 0.000000
vt -0.000000 0.200000 0.000000
vt -0.486231 0.000000 0.000000
vt -0.000000 0.000000 0.000000
vt -0.486231 0.200000 0.000000
vt -0.000000 0.200000 0.000000
vt -0.067838 0.000000 0.000000
vt -0.000000 0.000000 0.000000
vt -0.067838 0.200000 0.000000
vt -0.000000 0.200000 0.000000
vt -0.146048 0.000000 0.000000
vt -0.000000 0.000000 0.000000
vt -0.146048 0.200000 0.000000
vt -0.000000 0.200000 0.000000
vt -0.188165 0.000000 0.000000
vt -0.000000 0.000000 0.000000
vt -0.188165 0.200000 0.000000
vt -0.000000 0.200000 0.000000
vn -0.092388 0.000000 -0.038268
vn -0.092388 0.000000 -0.038268
vn -0.100000 0.000000 -0.000000
vn -0.100000 0.000000 -0.000000
vn -0.092388 0.000000 0.038268
vn -0.092388 0.000000 0.038268
vn -0.070711 0.000000 0.070711
vn -0.070711 0.000000 0.070711
vn -0.038268 0.000000 0.092388
vn -0.038268 0.000000 0.092388
vn 0.000000 0.000000 0.100000
vn 0.000000 0.000000 0.100000
vn 0.038268 0.000000 0.092388
vn 0.038268 0.000000 0.092388
vn 0.070711 0.000000 0.070711
vn 0.070711 0.000000 0.070711
vn 0.092388 0.000000 0.038268
vn 0.092388 0.000000 0.038268
vn 0.100000 0.000000 0.000000
vn 0.100000 0.000000 0.000000
vn 0.092388 0.000000 -0.038268
vn 0.092388 0.000000 -0.038268
vn 0.070711 0.000000 -0.070711
vn 0.070711 0.000000 -0.070711
vn 0.038268 0.000000 -0.092388
vn 0.038268 0.000000 -0.092388
vn 0.000000 0.000000 -0.100000
vn 0.000000 0.000000 -0.100000
vn -0.038268 0.000000 -0.092388
vn -0.038268 0.000000 -0.092388
vn -0.070711 0.000000 -0.070711
vn -0.070711 0.000000 -0.070711
vn -0.080010 -0.050000 -0.033141
vn -0.086603 -0.050000 -0.000000
vn -0.080010 -0.050000 0.033141
vn -0.061237 -0.050000 0.061237
vn -0.033141 -0.050000 0.080010
vn -0.000000 -0.050000 0.086603
vn 0.033141 -0.050000 0.080010
vn 0.061237 -0.050000 0.061237
vn 0.080010 -0.050000 0.033141
vn 0.086603 -0.050000 -0.000000
vn 0.080010 -0.050000 -0.033141
vn 0.061237 -0.050000 -0.061237
vn 0.033141 -0.050000 -0.080010
vn -0.000000 -0.050000 -0.086603
vn -0.033141 -0.050000 -0.080010
vn -0.061237 -0.050000 -0.061237
vn -0.000000 -0.100000 0.000000
vn -0.046194 -0.086603 0.019134
vn 0.000000 -0.100000 0.000000
vn -0.050000 -0.086603 -0.000000
vn -0.046194 -0.086603 -0.019134
vn -0.035355 -0.086603 0.035355
vn 0.000000 -0.100000 -0.000000
vn -0.019134 -0.086603 0.046194
vn -0.000000 -0.100000 0.000000
vn -0.000000 -0.086603 0.050000
vn 0.000000 -0.100000 0.000000
vn 0.019134 -0.086603 0.046194
vn -0.000000 -0.100000 -0.000000
vn 0.035355 -0.086603 0.035355
vn -0.000000 -0.100000 -0.000000
vn 0.046194 -0.086603 0.019134
vn -0.000000 -0.100000 -0.000000
vn 0.050000 -0.086603 -0.000000
vn -0.000000 -0.100000 0.000000
vn 0.046194 -0.086603 -0.019134
vn -0.000000 -0.100000 0.000000
vn 0.035355 -0.086603 -0.035355
vn -0.000000 -0.100000 0.000000
vn 0.019134 -0.086603 -0.046194
vn 0.000000 -0.100000 -0.000000
vn -0.000000 -0.086603 -0.050000
vn -0.000000 -0.100000 -0.000000
vn -0.019134 -0.086603 -0.046194
vn 0.000000 -0.100000 0.000000
vn -0.035355 -0.086603 -0.035355
vn -0.000000 -0.100000 -0.000000
vn 0.000000 0.100000 0.000000
vn 0.000000 0.100000 0.000000
vn 0.000000 0.100000 0.000000
vn 0.000000 0.100000 0.000000
vn 0.000000 0.100000 0.000000
vn 0.000000 0.100000 0.000000
vn 0.000000 0.100000 0.000000
vn 0.000000 0.100000 0.000000
vn 0.000000 0.100000 0.000000
vn 0.000000 0.100000 0.000000
vn 0.000000 0.100000 0.000000
vn 0.000000 0.100000 0.000000
vn 0.000000 0.100000 0.000000
vn 0.000000 0.100000 0.000000
vn 0.000000 0.100000 0.000000
vn 0.000000 0.100000 0.000000
vn 0.000000 0.100000 0.000000
vn 0.000000 0.100000 0.000000
vn 0.000000 0.100000 0.000000
vn 0.000000 0.100000 0.000000
vn 0.000000 0.100000 0.000000
vn 0.000000 0.100000 0.000000
vn 0.000000 0.100000 0.000000
vn 0.000000 0.100000 0.000000
vn 0.000000 -0.100000 0.000000
vn 0.000000 -0.100000 0.000000
vn 0.000000 -0.100000 0.000000
vn 0.000000 -0.100000 0.000000
vn 0.000000 -0.100000 0.000000
vn 0.000000 -0.100000 0.000000
vn 0.000000 -0.100000 0.000000
vn 0.000000 -0.100000 0.000000
vn -0.094010 0.000000 0.034089
vn -0.094010 0.000000 0.034089
vn -0.094010 0.000000 0.034089
vn -0.094010 0.000000 0.034089
vn 0.000000 0.000000 0.100000
vn 0.000000 0.000000 0.100000
vn 0.000000 0.000000 0.100000
vn 0.000000 0.000000 0.100000
vn 0.093353 0.000000 -0.035851
vn 0.093353 0.000000 -0.035851
vn 0.093353 0.000000 -0.035851
vn 0.093353 0.000000 -0.035851
vn 0.000000 0.000000 -0.100000
vn 0.000000 0.000000 -0.100000
vn 0.000000 0.000000 -0.100000
vn 0.000000 0.000000 -0.100000
vn -0.092549 0.000000 -0.037878
vn -0.092549 0.000000 -0.037878
vn -0.092549 0.000000 -0.037878
vn -0.092549 0.000000 -0.037878
vn 0.000000 0.000000 0.100000
vn 0.000000 0.000000 0.100000
vn 0.000000 0.000000 0.100000
vn 0.000000 0.000000 0.100000
vn 0.093318 -0.000000 0.035940
vn 0.093318 -0.000000 0.035940
vn 0.093318 -0.000000 0.035940
vn 0.093318 -0.000000 0.035940
vn 0.000000 0.000000 0.100000
vn 0.000000 0.000000 0.100000
vn 0.000000 0.000000 0.100000
vn 0.000000 0.000000 0.100000
usemtl Plastic_-_Glossy_(Black)
f 2/1/1 32/2/2 1/3/3
f 1/3/3 32/2/2 17/4/4
f 1/5/3 17/6/4 16/7/5
f 16/7/5 17/6/4 18/8/6
f 16/7/5 18/8/6 15/9/7
f 15/9/7 18/8/6 19/10/8
f 15/9/7 19/10/8 14/11/9
f 14/11/9 19/10/8 20/12/10
f 14/11/9 20/12/10 13/13/11
f 13/13/11 20/12/10 21/14/12
f 13/13/11 21/14/12 12/15/13
f 12/15/13 21/14/12 22/16/14
f 12/15/13 22/16/14 11/17/15
f 11/17/15 22/16/14 23/18/16
f 11/17/15 23/18/16 10/19/17
f 10/19/17 23/18/16 24/20/18
f 10/19/17 24/20/18 9/21/19
f 9/21/19 24/20/18 25/22/20
f 9/21/19 25/22/20 8/23/21
f 8/23/21 25/22/20 26/24/22
f 8/23/21 26/24/22 7/25/23
f 7/25/23 26/24/22 27/26/24
f 7/25/23 27/26/24 6/27/25
f 6/27/25 27/26/24 28/28/26
f 6/27/25 28/28/26 5/29/27
f 5/29/27 28/28/26 29/30/28
f 5/29/27 29/30/28 4/31/29
f 4/31/29 29/30/28 30/32/30
f 4/31/29 30/32/30 3/33/31
f 3/33/31 30/32/30 31/34/32
f 3/33/31 31/34/32 2/1/1
f 2/1/1 31/34/32 32/2/2
f 32/35/2 50/36/33 17/37/4
f 17/37/4 50/36/33 53/38/34
f 17/37/4 53/38/34 18/39/6
f 18/39/6 53/38/34 78/40/35
f 18/39/6 78/40/35 19/41/8
f 19/41/8 78/40/35 76/42/36
f 19/41/8 76/42/36 20/43/10
f 20/43/10 76/42/36 74/44/37
f 20/43/10 74/44/37 21/45/12
f 21/45/12 74/44/37 48/46/38
f 21/47/12 48/48/38 22/49/14
f 22/49/14 48/48/38 72/50/39
f 22/49/14 72/50/39 23/51/16
f 23/51/16 72/50/39 70/52/40
f 23/51/16 70/52/40 24/53/18
f 24/53/18 70/52/40 68/54/41
f 24/53/18 68/54/41 25/55/20
f 25/55/20 68/54/41 66/56/42
f 25/55/20 66/56/42 26/57/22
f 26/57/22 66/56/42 64/58/43
f 26/57/22 64/58/43 27/59/24
f 27/59/24 64/58/43 62/60/44
f 27/59/24 62/60/44 28/61/26
f 28/61/26 62/60/44 60/62/45
f 28/61/26 60/62/45 29/63/28
f 29/63/28 60/62/45 58/64/46
f 29/63/28 58/64/46 30/65/30
f 30/65/30 58/64/46 56/66/47
f 30/65/30 56/66/47 31/67/32
f 31/67/32 56/66/47 54/68/48
f 31/67/32 54/68/48 32/35/2
f 32/35/2 54/68/48 50/36/33
f 34/69/49 79/70/50 33/71/51
f 33/71/51 79/70/50 52/72/52
f 33/71/51 52/72/52 51/73/53
f 51/73/53 52/72/52 53/38/34
f 51/73/53 53/38/34 50/36/33
f 79/70/50 34/69/49 77/74/54
f 77/74/54 34/69/49 35/75/55
f 77/74/54 35/75/55 75/76/56
f 75/76/56 35/75/55 36/77/57
f 75/76/56 36/77/57 49/78/58
f 49/79/58 36/80/57 37/81/59
f 49/79/58 37/81/59 73/82/60
f 73/82/60 37/81/59 38/83/61
f 73/82/60 38/83/61 71/84/62
f 71/84/62 38/83/61 39/85/63
f 71/84/62 39/85/63 69/86/64
f 69/86/64 39/85/63 40/87/65
f 69/86/64 40/87/65 67/88/66
f 67/88/66 40/87/65 41/89/67
f 67/88/66 41/89/67 65/90/68
f 65/90/68 41/89/67 42/91/69
f 65/90/68 42/91/69 63/92/70
f 63/92/70 42/91/69 43/93/71
f 63/92/70 43/93/71 61/94/72
f 61/94/72 43/93/71 44/95/73
f 61/94/72 44/95/73 59/96/74
f 59/96/74 44/95/73 45/97/75
f 59/96/74 45/97/75 57/98/76
f 57/98/76 45/97/75 46/99/77
f 57/98/76 46/99/77 55/100/78
f 55/100/78 46/99/77 47/101/79
f 55/100/78 47/101/79 51/73/53
f 51/73/53 47/101/79 33/71/51
f 48/48/38 49/79/58 72/50/39
f 72/50/39 49/79/58 73/82/60
f 72/50/39 73/82/60 70/52/40
f 70/52/40 73/82/60 71/84/62
f 70/52/40 71/84/62 68/54/41
f 68/54/41 71/84/62 69/86/64
f 68/54/41 69/86/64 66/56/42
f 66/56/42 69/86/64 67/88/66
f 66/56/42 67/88/66 64/58/43
f 64/58/43 67/88/66 65/90/68
f 64/58/43 65/90/68 62/60/44
f 62/60/44 65/90/68 63/92/70
f 62/60/44 63/92/70 60/62/45
f 60/62/45 63/92/70 61/94/72
f 60/62/45 61/94/72 58/64/46
f 58/64/46 61/94/72 59/96/74
f 58/64/46 59/96/74 56/66/47
f 56/66/47 59/96/74 57/98/76
f 56/66/47 57/98/76 54/68/48
f 54/68/48 57/98/76 55/100/78
f 54/68/48 55/100/78 50/36/33
f 50/36/33 55/100/78 51/73/53
f 49/78/58 48/46/38 75/76/56
f 75/76/56 48/46/38 74/44/37
f 75/76/56 74/44/37 77/74/54
f 77/74/54 74/44/37 76/42/36
f 77/74/54 76/42/36 79/70/50
f 79/70/50 76/42/36 78/40/35
f 79/70/50 78/40/35 52/72/52
f 52/72/52 78/40/35 53/38/34
f 2/102/80 1/103/81 86/104/82
f 86/104/82 1/103/81 16/105/83
f 86/104/82 16/105/83 85/106/84
f 85/106/84 16/105/83 15/107/85
f 85/106/84 15/107/85 14/108/86
f 14/108/86 13/109/87 85/106/84
f 85/106/84 13/109/87 84/110/88
f 84/110/88 13/109/87 12/111/89
f 84/110/88 12/111/89 11/112/90
f 11/112/90 10/113/91 84/110/88
f 84/110/88 10/113/91 83/114/92
f 83/114/92 10/113/91 9/115/93
f 83/114/92 9/115/93 8/116/94
f 8/116/94 7/117/95 83/114/92
f 83/114/92 7/117/95 6/118/96
f 83/114/92 6/118/96 82/119/97
f 82/119/97 6/118/96 5/120/98
f 82/119/97 5/120/98 87/121/99
f 87/121/99 5/120/98 4/122/100
f 87/121/99 4/122/100 86/104/82
f 86/104/82 4/122/100 3/123/101
f 86/104/82 3/123/101 2/102/80
f 80/124/102 81/125/103 87/121/99
f 87/121/99 81/125/103 82/119/97
f 34/126/49 33/127/51 91/128/104
f 91/128/104 33/127/51 47/129/79
f 91/128/104 47/129/79 46/130/77
f 91/128/104 46/130/77 90/131/105
f 90/131/105 46/130/77 45/132/75
f 90/131/105 45/132/75 44/133/73
f 90/131/105 44/133/73 95/134/106
f 95/134/106 44/133/73 43/135/71
f 95/134/106 43/135/71 94/136/107
f 94/136/107 43/135/71 42/137/69
f 94/136/107 42/137/69 41/138/67
f 41/138/67 40/139/65 94/136/107
f 94/136/107 40/139/65 93/140/108
f 93/140/108 40/139/65 39/141/63
f 93/140/108 39/141/63 38/142/61
f 38/142/61 37/143/59 93/140/108
f 93/140/108 37/143/59 92/144/109
f 92/144/109 37/143/59 36/145/57
f 92/144/109 36/145/57 35/146/55
f 35/146/55 34/126/49 92/144/109
f 92/144/109 34/126/49 91/128/104
f 89/147/110 90/131/105 88/148/111
f 88/148/111 90/131/105 95/134/106
f 90/149/112 89/150/113 87/151/114
f 87/151/114 89/150/113 80/152/115
f 91/153/116 90/154/117 86/155/118
f 86/155/118 90/154/117 87/156/119
f 92/157/120 91/158/121 85/159/122
f 85/159/122 91/158/121 86/160/123
f 93/161/124 92/162/125 84/163/126
f 84/163/126 92/162/125 85/164/127
f 94/165/128 93/166/129 83/167/130
f 83/167/130 93/166/129 84/168/131
f 95/169/132 94/170/133 82/171/134
f 82/171/134 94/170/133 83/172/135
f 88/173/136 95/174/137 81/175/138
f 81/175/138 95/174/137 82/176/139
f 89/177/140 88/178/141 80/179/142
f 80/179/142 88/178/141 81/180/143
# 95 vertices
# 180 texture params
# 143 normals
# 190 facets

# 1 groups
