# WaveFront *.obj file (generated by Autodesk ATF)

mtllib _OneXPlayerMini v62_ALetter_OneXPlayerMini v62.mtl

g ALetter

v 109.734354 -12.000000 14.365172
v 109.491857 -12.000000 13.505690
v 109.491857 -10.000000 13.505690
v 109.734354 -10.000000 14.365172
v 110.053590 -12.000000 13.432020
v 110.053590 -10.000000 13.432020
v 110.523235 -12.000000 12.185772
v 110.523235 -10.000000 12.185772
v 108.997655 -12.000000 12.185772
v 108.997655 -10.000000 12.185772
v 110.707410 -12.000000 11.700779
v 108.825759 -12.000000 11.700779
v 108.825759 -10.000000 11.700779
v 110.707410 -10.000000 11.700779
v 111.232308 -12.000000 10.337887
v 111.232308 -10.000000 10.337887
v 111.910684 -12.000000 10.337887
v 111.910684 -10.000000 10.337887
v 110.068938 -12.000000 14.837887
v 110.068938 -10.000000 14.837887
v 109.427396 -12.000000 14.837887
v 109.427396 -10.000000 14.837887
v 107.699225 -12.000000 10.337887
v 107.699225 -10.000000 10.337887
v 108.331557 -12.000000 10.337887
v 108.331557 -10.000000 10.337887
vt 0.000000 0.000000 0.000000
vt 0.089304 0.000000 0.000000
vt 0.000000 0.200000 0.000000
vt 0.089304 0.200000 0.000000
vt 0.000000 0.000000 0.000000
vt 0.098622 0.000000 0.000000
vt 0.000000 0.200000 0.000000
vt 0.098622 0.200000 0.000000
vt 0.000000 0.000000 0.000000
vt 0.133180 0.000000 0.000000
vt 0.000000 0.200000 0.000000
vt 0.133180 0.200000 0.000000
vt 0.000000 0.000000 0.000000
vt 0.152558 0.000000 0.000000
vt 0.000000 0.200000 0.000000
vt 0.152558 0.200000 0.000000
vt -0.000000 0.000000 0.000000
vt 0.140940 0.000000 0.000000
vt -0.000000 0.200000 0.000000
vt 0.140940 0.200000 0.000000
vt 0.000000 0.000000 0.000000
vt 0.188165 0.000000 0.000000
vt 0.000000 0.200000 0.000000
vt 0.188165 0.200000 0.000000
vt 0.000000 0.000000 0.000000
vt 0.146048 0.000000 0.000000
vt 0.000000 0.200000 0.000000
vt 0.146048 0.200000 0.000000
vt 0.000000 0.000000 0.000000
vt 0.067838 0.000000 0.000000
vt 0.000000 0.200000 0.000000
vt 0.067838 0.200000 0.000000
vt 0.000000 0.000000 0.000000
vt 0.486231 0.000000 0.000000
vt 0.000000 0.200000 0.000000
vt 0.486231 0.200000 0.000000
vt 0.000000 0.000000 0.000000
vt 0.064154 0.000000 0.000000
vt 0.000000 0.200000 0.000000
vt 0.064154 0.200000 0.000000
vt 0.000000 0.000000 0.000000
vt 0.482043 0.000000 0.000000
vt 0.000000 0.200000 0.000000
vt 0.482043 0.200000 0.000000
vt 0.000000 0.000000 0.000000
vt 0.063233 0.000000 0.000000
vt 0.000000 0.200000 0.000000
vt 0.063233 0.200000 0.000000
vt -0.000000 0.000000 0.000000
vt 0.144973 0.000000 0.000000
vt -0.000000 0.200000 0.000000
vt 0.144973 0.200000 0.000000
vt -0.031310 0.091780 0.000000
vt -0.037756 0.225000 0.000000
vt -0.080730 -0.040211 0.000000
vt -0.210573 -0.225000 0.000000
vt -0.097920 -0.088711 0.000000
vt -0.147340 -0.225000 0.000000
vt -0.007060 0.177729 0.000000
vt 0.026398 0.225000 0.000000
vt 0.024864 0.084413 0.000000
vt 0.071828 -0.040211 0.000000
vt 0.090246 -0.088711 0.000000
vt 0.210573 -0.225000 0.000000
vt 0.142735 -0.225000 0.000000
vt 0.007060 0.177729 0.000000
vt 0.031310 0.091780 0.000000
vt 0.037756 0.225000 0.000000
vt 0.080730 -0.040211 0.000000
vt 0.210573 -0.225000 0.000000
vt 0.097920 -0.088711 0.000000
vt 0.147340 -0.225000 0.000000
vt -0.071828 -0.040211 0.000000
vt -0.090246 -0.088711 0.000000
vt -0.210573 -0.225000 0.000000
vt -0.142735 -0.225000 0.000000
vt -0.026398 0.225000 0.000000
vt -0.024864 0.084413 0.000000
vn 0.098085 0.000000 -0.019478
vn 0.093880 0.000000 -0.034445
vn 0.098085 0.000000 -0.019478
vn 0.093880 0.000000 -0.034445
vn -0.093529 0.000000 -0.035389
vn -0.096152 0.000000 -0.027472
vn -0.093529 0.000000 -0.035389
vn -0.096152 0.000000 -0.027472
vn -0.093576 0.000000 -0.035264
vn -0.093576 0.000000 -0.035264
vn -0.093576 0.000000 -0.035264
vn -0.093576 0.000000 -0.035264
vn 0.000000 0.000000 0.100000
vn 0.000000 0.000000 0.100000
vn 0.000000 0.000000 0.100000
vn 0.000000 0.000000 0.100000
vn 0.093651 0.000000 -0.035065
vn 0.093651 0.000000 -0.035065
vn 0.093651 0.000000 -0.035065
vn 0.093651 0.000000 -0.035065
vn 0.000000 0.000000 -0.100000
vn 0.000000 0.000000 -0.100000
vn 0.000000 0.000000 -0.100000
vn 0.000000 0.000000 -0.100000
vn -0.093318 0.000000 -0.035940
vn -0.093318 0.000000 -0.035940
vn -0.093318 0.000000 -0.035940
vn -0.093318 0.000000 -0.035940
vn 0.000000 0.000000 -0.100000
vn 0.000000 0.000000 -0.100000
vn 0.000000 0.000000 -0.100000
vn 0.000000 0.000000 -0.100000
vn 0.092549 -0.000000 0.037878
vn 0.092549 -0.000000 0.037878
vn 0.092549 -0.000000 0.037878
vn 0.092549 -0.000000 0.037878
vn 0.000000 0.000000 0.100000
vn 0.000000 0.000000 0.100000
vn 0.000000 0.000000 0.100000
vn 0.000000 0.000000 0.100000
vn -0.093353 0.000000 0.035851
vn -0.093353 0.000000 0.035851
vn -0.093353 0.000000 0.035851
vn -0.093353 0.000000 0.035851
vn 0.000000 0.000000 -0.100000
vn 0.000000 0.000000 -0.100000
vn 0.000000 0.000000 -0.100000
vn 0.000000 0.000000 -0.100000
vn 0.094010 0.000000 -0.034089
vn 0.094010 0.000000 -0.034089
vn 0.094010 0.000000 -0.034089
vn 0.094010 0.000000 -0.034089
vn 0.000000 -0.100000 0.000000
vn 0.000000 -0.100000 0.000000
vn 0.000000 -0.100000 0.000000
vn 0.000000 -0.100000 0.000000
vn 0.000000 -0.100000 0.000000
vn 0.000000 -0.100000 0.000000
vn 0.000000 -0.100000 0.000000
vn 0.000000 -0.100000 0.000000
vn 0.000000 -0.100000 0.000000
vn 0.000000 -0.100000 0.000000
vn 0.000000 -0.100000 0.000000
vn 0.000000 -0.100000 0.000000
vn 0.000000 -0.100000 0.000000
vn -0.000000 0.100000 -0.000000
vn -0.000000 0.100000 -0.000000
vn -0.000000 0.100000 -0.000000
vn -0.000000 0.100000 -0.000000
vn -0.000000 0.100000 -0.000000
vn -0.000000 0.100000 -0.000000
vn -0.000000 0.100000 -0.000000
vn -0.000000 0.100000 -0.000000
vn -0.000000 0.100000 -0.000000
vn -0.000000 0.100000 -0.000000
vn -0.000000 0.100000 -0.000000
vn -0.000000 0.100000 -0.000000
vn -0.000000 0.100000 -0.000000
usemtl Plastic_-_Matte_(Yellow)
f 1/1/1 2/2/2 4/3/3
f 4/3/3 2/2/2 3/4/4
f 5/5/5 1/6/6 6/7/7
f 6/7/7 1/6/6 4/8/8
f 7/9/9 5/10/10 8/11/11
f 8/11/11 5/10/10 6/12/12
f 9/13/13 7/14/14 10/15/15
f 10/15/15 7/14/14 8/16/16
f 2/17/17 9/18/18 3/19/19
f 3/19/19 9/18/18 10/20/20
f 11/21/21 12/22/22 14/23/23
f 14/23/23 12/22/22 13/24/24
f 15/25/25 11/26/26 16/27/27
f 16/27/27 11/26/26 14/28/28
f 17/29/29 15/30/30 18/31/31
f 18/31/31 15/30/30 16/32/32
f 19/33/33 17/34/34 20/35/35
f 20/35/35 17/34/34 18/36/36
f 21/37/37 19/38/38 22/39/39
f 22/39/39 19/38/38 20/40/40
f 23/41/41 21/42/42 24/43/43
f 24/43/43 21/42/42 22/44/44
f 25/45/45 23/46/46 26/47/47
f 26/47/47 23/46/46 24/48/48
f 12/49/49 25/50/50 13/51/51
f 13/51/51 25/50/50 26/52/52
f 2/53/53 21/54/54 9/55/55
f 9/55/55 21/54/54 23/56/56
f 9/55/55 23/56/56 12/57/57
f 12/57/57 23/56/56 25/58/58
f 2/53/53 1/59/59 21/54/54
f 21/54/54 1/59/59 19/60/60
f 19/60/60 1/59/59 5/61/61
f 19/60/60 5/61/61 7/62/62
f 9/55/55 12/57/57 7/62/62
f 7/62/62 12/57/57 11/63/63
f 7/62/62 11/63/63 17/64/64
f 17/64/64 11/63/63 15/65/65
f 17/64/64 19/60/60 7/62/62
f 4/66/66 3/67/67 22/68/68
f 22/68/68 3/67/67 10/69/69
f 22/68/68 10/69/69 24/70/70
f 24/70/70 10/69/69 13/71/71
f 24/70/70 13/71/71 26/72/72
f 10/69/69 8/73/73 13/71/71
f 13/71/71 8/73/73 14/74/74
f 14/74/74 8/73/73 18/75/75
f 14/74/74 18/75/75 16/76/76
f 18/75/75 8/73/73 20/77/77
f 20/77/77 8/73/73 6/78/78
f 20/77/77 6/78/78 4/66/66
f 20/77/77 4/66/66 22/68/68
# 26 vertices
# 78 texture params
# 78 normals
# 52 facets

# 1 groups
