# WaveFront *.obj file (generated by Autodesk ATF)

mtllib _OneXPlayerMini v85_YLetter_OneXPlayerMini v85.mtl

g YLetter

v 111.837842 -12.000000 31.652955
v 110.042139 -12.000000 29.059162
v 110.042139 -11.500000 29.059162
v 111.837842 -11.500000 31.652955
v 111.144117 -12.000000 31.652955
v 111.144117 -11.500000 31.652955
v 110.272358 -12.000000 30.329967
v 110.272358 -11.500000 30.329967
v 109.781225 -12.000000 29.534947
v 109.781225 -11.500000 29.534947
v 109.323858 -12.000000 30.296202
v 109.323858 -11.500000 30.296202
v 108.436751 -12.000000 31.652955
v 108.436751 -11.500000 31.652955
v 107.712330 -12.000000 31.652955
v 107.712330 -11.500000 31.652955
v 109.446641 -12.000000 29.059162
v 109.446641 -11.500000 29.059162
v 109.446641 -12.000000 27.152955
v 109.446641 -11.500000 27.152955
v 110.042139 -12.000000 27.152955
v 110.042139 -11.500000 27.152955
vt -0.000000 0.000000 0.000000
vt 0.315473 0.000000 0.000000
vt -0.000000 0.050000 0.000000
vt 0.315473 0.050000 0.000000
vt 0.000000 0.000000 0.000000
vt 0.069372 0.000000 0.000000
vt 0.000000 0.050000 0.000000
vt 0.069372 0.050000 0.000000
vt 0.000000 0.000000 0.000000
vt 0.158438 0.000000 0.000000
vt 0.000000 0.050000 0.000000
vt 0.158438 0.050000 0.000000
vt 0.000000 0.000000 0.000000
vt 0.093450 0.000000 0.000000
vt 0.000000 0.050000 0.000000
vt 0.093450 0.050000 0.000000
vt 0.000000 0.000000 0.000000
vt 0.088808 0.000000 0.000000
vt 0.000000 0.050000 0.000000
vt 0.088808 0.050000 0.000000
vt 0.000000 0.000000 0.000000
vt 0.162103 0.000000 0.000000
vt 0.000000 0.050000 0.000000
vt 0.162103 0.050000 0.000000
vt 0.000000 0.000000 0.000000
vt 0.072442 0.000000 0.000000
vt 0.000000 0.050000 0.000000
vt 0.072442 0.050000 0.000000
vt 0.000000 0.000000 0.000000
vt 0.312019 0.000000 0.000000
vt 0.000000 0.050000 0.000000
vt 0.312019 0.050000 0.000000
vt 0.000000 0.000000 0.000000
vt 0.190621 0.000000 0.000000
vt 0.000000 0.050000 0.000000
vt 0.190621 0.050000 0.000000
vt 0.000000 0.000000 0.000000
vt 0.059550 0.000000 0.000000
vt 0.000000 0.050000 0.000000
vt 0.059550 0.050000 0.000000
vt 0.000000 0.000000 0.000000
vt 0.190621 0.000000 0.000000
vt 0.000000 0.050000 0.000000
vt 0.190621 0.050000 0.000000
vt -0.026705 -0.225000 0.000000
vt 0.032844 -0.225000 0.000000
vt -0.026705 -0.034379 0.000000
vt 0.032844 -0.034379 0.000000
vt -0.000614 0.013199 0.000000
vt 0.045123 0.089325 0.000000
vt 0.206276 0.225000 0.000000
vt 0.133834 0.225000 0.000000
vt -0.049727 0.092701 0.000000
vt -0.206276 0.225000 0.000000
vt -0.136903 0.225000 0.000000
vt -11.183784 -3.290295 0.000000
vt -11.027236 -3.157997 0.000000
vt -11.004214 -3.030916 0.000000
vt -10.978123 -3.078495 0.000000
vt -10.944664 -3.030916 0.000000
vt -10.932386 -3.154620 0.000000
vt -10.771233 -3.290295 0.000000
vt -10.843675 -3.290295 0.000000
vt -11.114412 -3.290295 0.000000
vt -10.944664 -2.840295 0.000000
vt -11.004214 -2.840295 0.000000
vn 0.082219 0.000000 -0.056921
vn 0.082219 0.000000 -0.056921
vn 0.082219 0.000000 -0.056921
vn 0.082219 0.000000 -0.056921
vn 0.000000 0.000000 0.100000
vn 0.000000 0.000000 0.100000
vn 0.000000 0.000000 0.100000
vn 0.000000 0.000000 0.100000
vn -0.083502 0.000000 0.055022
vn -0.083502 0.000000 0.055022
vn -0.083502 0.000000 0.055022
vn -0.083502 0.000000 0.055022
vn -0.086731 0.000000 0.049776
vn -0.083738 0.000000 0.054662
vn -0.086731 0.000000 0.049776
vn -0.083738 0.000000 0.054662
vn 0.084030 -0.000000 0.054213
vn 0.087382 -0.000000 0.048624
vn 0.084030 -0.000000 0.054213
vn 0.087382 -0.000000 0.048624
vn 0.083697 -0.000000 0.054725
vn 0.083697 -0.000000 0.054725
vn 0.083697 -0.000000 0.054725
vn 0.083697 -0.000000 0.054725
vn 0.000000 0.000000 0.100000
vn 0.000000 0.000000 0.100000
vn 0.000000 0.000000 0.100000
vn 0.000000 0.000000 0.100000
vn -0.083129 0.000000 -0.055583
vn -0.083129 0.000000 -0.055583
vn -0.083129 0.000000 -0.055583
vn -0.083129 0.000000 -0.055583
vn -0.100000 0.000000 0.000000
vn -0.100000 0.000000 0.000000
vn -0.100000 0.000000 0.000000
vn -0.100000 0.000000 0.000000
vn 0.000000 0.000000 -0.100000
vn 0.000000 0.000000 -0.100000
vn 0.000000 0.000000 -0.100000
vn 0.000000 0.000000 -0.100000
vn 0.100000 -0.000000 0.000000
vn 0.100000 -0.000000 0.000000
vn 0.100000 -0.000000 0.000000
vn 0.100000 -0.000000 0.000000
vn -0.000000 0.100000 -0.000000
vn -0.000000 0.100000 -0.000000
vn -0.000000 0.100000 -0.000000
vn -0.000000 0.100000 -0.000000
vn -0.000000 0.100000 -0.000000
vn -0.000000 0.100000 -0.000000
vn -0.000000 0.100000 -0.000000
vn -0.000000 0.100000 -0.000000
vn -0.000000 0.100000 -0.000000
vn -0.000000 0.100000 -0.000000
vn -0.000000 0.100000 -0.000000
vn 0.000000 -0.100000 0.000000
vn 0.000000 -0.100000 0.000000
vn 0.000000 -0.100000 0.000000
vn 0.000000 -0.100000 0.000000
vn 0.000000 -0.100000 0.000000
vn 0.000000 -0.100000 0.000000
vn 0.000000 -0.100000 0.000000
vn 0.000000 -0.100000 0.000000
vn 0.000000 -0.100000 0.000000
vn 0.000000 -0.100000 0.000000
vn 0.000000 -0.100000 0.000000
usemtl Plastic_-_Matte_(Yellow)
f 1/1/1 2/2/2 4/3/3
f 4/3/3 2/2/2 3/4/4
f 5/5/5 1/6/6 6/7/7
f 6/7/7 1/6/6 4/8/8
f 7/9/9 5/10/10 8/11/11
f 8/11/11 5/10/10 6/12/12
f 9/13/13 7/14/14 10/15/15
f 10/15/15 7/14/14 8/16/16
f 11/17/17 9/18/18 12/19/19
f 12/19/19 9/18/18 10/20/20
f 13/21/21 11/22/22 14/23/23
f 14/23/23 11/22/22 12/24/24
f 15/25/25 13/26/26 16/27/27
f 16/27/27 13/26/26 14/28/28
f 17/29/29 15/30/30 18/31/31
f 18/31/31 15/30/30 16/32/32
f 19/33/33 17/34/34 20/35/35
f 20/35/35 17/34/34 18/36/36
f 21/37/37 19/38/38 22/39/39
f 22/39/39 19/38/38 20/40/40
f 2/41/41 21/42/42 3/43/43
f 3/43/43 21/42/42 22/44/44
f 22/45/45 20/46/46 3/47/47
f 3/47/47 20/46/46 18/48/48
f 3/47/47 18/48/48 10/49/49
f 10/49/49 18/48/48 12/50/50
f 12/50/50 18/48/48 16/51/51
f 12/50/50 16/51/51 14/52/52
f 10/49/49 8/53/53 3/47/47
f 3/47/47 8/53/53 4/54/54
f 4/54/54 8/53/53 6/55/55
f 1/56/56 7/57/57 2/58/58
f 2/58/58 7/57/57 9/59/59
f 2/58/58 9/59/59 17/60/60
f 17/60/60 9/59/59 11/61/61
f 17/60/60 11/61/61 15/62/62
f 15/62/62 11/61/61 13/63/63
f 1/56/56 5/64/64 7/57/57
f 19/65/65 21/66/66 17/60/60
f 17/60/60 21/66/66 2/58/58
# 22 vertices
# 66 texture params
# 66 normals
# 40 facets

# 1 groups
