# WaveFront *.obj file (generated by Autodesk ATF)

mtllib _OneXPlayerMini v62_BackIcon_OneXPlayerMini v62.mtl

g BackIcon

v -89.500000 -8.000000 44.078195
v -91.000000 -8.000000 44.078195
v -91.000000 -10.000000 44.078195
v -89.500000 -10.000000 44.078195
v -89.500000 -8.000000 44.711054
v -89.500000 -10.000000 44.711054
v -91.500000 -8.000000 44.711054
v -91.500000 -10.000000 44.711054
v -91.500000 -8.000000 43.211054
v -91.500000 -10.000000 43.211054
v -91.000000 -8.000000 43.211054
v -91.000000 -10.000000 43.211054
v -90.500000 -8.000000 42.711054
v -89.000000 -8.000000 42.711054
v -89.000000 -10.000000 42.711054
v -90.500000 -10.000000 42.711054
v -90.500000 -8.000000 42.078195
v -90.500000 -10.000000 42.078195
v -88.500000 -8.000000 42.078195
v -88.500000 -10.000000 42.078195
v -88.500000 -8.000000 43.578195
v -88.500000 -10.000000 43.578195
v -89.000000 -8.000000 43.578195
v -89.000000 -10.000000 43.578195
v -89.500000 -8.000000 43.211054
v -90.500000 -8.000000 43.211054
v -90.500000 -10.000000 43.211054
v -89.500000 -10.000000 43.211054
v -89.500000 -8.000000 43.578195
v -89.500000 -10.000000 43.578195
v -90.500000 -8.000000 43.578195
v -90.500000 -10.000000 43.578195
v -88.000000 -8.000000 41.578195
v -88.000000 -8.000000 44.078195
v -88.000000 -10.000000 44.078195
v -88.000000 -10.000000 41.578195
v -91.000000 -8.000000 41.578195
v -91.000000 -10.000000 41.578195
v -91.000000 -8.000000 42.711054
v -91.000000 -10.000000 42.711054
v -92.000000 -8.000000 42.711054
v -92.000000 -10.000000 42.711054
v -92.000000 -8.000000 45.211054
v -92.000000 -10.000000 45.211054
v -89.000000 -8.000000 45.211054
v -89.000000 -10.000000 45.211054
v -89.000000 -8.000000 44.078195
v -89.000000 -10.000000 44.078195
vt -0.000000 0.000000 0.000000
vt 0.150000 0.000000 0.000000
vt 0.000000 0.200000 0.000000
vt 0.150000 0.200000 0.000000
vt -0.000000 0.000000 0.000000
vt 0.063286 0.000000 0.000000
vt 0.000000 0.200000 0.000000
vt 0.063286 0.200000 0.000000
vt 0.000000 0.000000 0.000000
vt 0.200000 0.000000 0.000000
vt 0.000000 0.200000 0.000000
vt 0.200000 0.200000 0.000000
vt 0.000000 0.000000 0.000000
vt 0.150000 0.000000 0.000000
vt 0.000000 0.200000 0.000000
vt 0.150000 0.200000 0.000000
vt -0.000000 0.000000 0.000000
vt 0.050000 0.000000 0.000000
vt 0.000000 0.200000 0.000000
vt 0.050000 0.200000 0.000000
vt -0.000000 0.000000 0.000000
vt 0.086714 0.000000 0.000000
vt 0.000000 0.200000 0.000000
vt 0.086714 0.200000 0.000000
vt 0.000000 0.000000 0.000000
vt 0.150000 0.000000 0.000000
vt 0.000000 0.200000 0.000000
vt 0.150000 0.200000 0.000000
vt 0.000000 0.000000 0.000000
vt 0.063286 0.000000 0.000000
vt 0.000000 0.200000 0.000000
vt 0.063286 0.200000 0.000000
vt -0.000000 0.000000 0.000000
vt 0.200000 0.000000 0.000000
vt 0.000000 0.200000 0.000000
vt 0.200000 0.200000 0.000000
vt -0.000000 0.000000 0.000000
vt 0.150000 0.000000 0.000000
vt 0.000000 0.200000 0.000000
vt 0.150000 0.200000 0.000000
vt 0.000000 0.000000 0.000000
vt 0.050000 0.000000 0.000000
vt 0.000000 0.200000 0.000000
vt 0.050000 0.200000 0.000000
vt 0.000000 0.000000 0.000000
vt 0.086714 0.000000 0.000000
vt 0.000000 0.200000 0.000000
vt 0.086714 0.200000 0.000000
vt -0.000000 0.000000 0.000000
vt 0.100000 -0.000000 0.000000
vt 0.000000 0.200000 0.000000
vt 0.100000 0.200000 0.000000
vt -0.000000 0.000000 0.000000
vt 0.036714 0.000000 0.000000
vt 0.000000 0.200000 0.000000
vt 0.036714 0.200000 0.000000
vt 0.000000 0.000000 0.000000
vt 0.100000 0.000000 0.000000
vt 0.000000 0.200000 0.000000
vt 0.100000 0.200000 0.000000
vt 0.000000 0.000000 0.000000
vt 0.036714 0.000000 0.000000
vt 0.000000 0.200000 0.000000
vt 0.036714 0.200000 0.000000
vt 0.000000 0.000000 0.000000
vt 0.250000 0.000000 0.000000
vt 0.000000 0.200000 0.000000
vt 0.250000 0.200000 0.000000
vt 0.000000 0.000000 0.000000
vt 0.300000 0.000000 0.000000
vt 0.000000 0.200000 0.000000
vt 0.300000 0.200000 0.000000
vt -0.000000 0.000000 0.000000
vt 0.113286 0.000000 0.000000
vt 0.000000 0.200000 0.000000
vt 0.113286 0.200000 0.000000
vt 0.000000 0.000000 0.000000
vt 0.100000 0.000000 0.000000
vt 0.000000 0.200000 0.000000
vt 0.100000 0.200000 0.000000
vt -0.000000 0.000000 0.000000
vt 0.250000 0.000000 0.000000
vt 0.000000 0.200000 0.000000
vt 0.250000 0.200000 0.000000
vt -0.000000 0.000000 0.000000
vt 0.300000 0.000000 0.000000
vt 0.000000 0.200000 0.000000
vt 0.300000 0.200000 0.000000
vt 0.000000 0.000000 0.000000
vt 0.113286 0.000000 0.000000
vt 0.000000 0.200000 0.000000
vt 0.113286 0.200000 0.000000
vt -0.000000 0.000000 0.000000
vt 0.100000 0.000000 0.000000
vt 0.000000 0.200000 0.000000
vt 0.100000 0.200000 0.000000
vt -0.018357 -0.050000 0.000000
vt 0.018357 -0.100000 0.000000
vt 0.018357 -0.050000 0.000000
vt 0.068357 -0.100000 0.000000
vt 0.068357 -0.050000 0.000000
vt 0.131643 -0.050000 0.000000
vt 0.181643 -0.100000 0.000000
vt 0.131643 0.150000 0.000000
vt 0.181643 0.200000 0.000000
vt -0.068357 0.200000 0.000000
vt -0.018357 0.050000 0.000000
vt -0.068357 0.050000 0.000000
vt -0.068357 -0.100000 0.000000
vt 0.018357 0.050000 0.000000
vt -0.018357 0.100000 0.000000
vt -0.068357 0.100000 0.000000
vt -0.131643 0.050000 0.000000
vt -0.181643 0.100000 0.000000
vt -0.181643 -0.200000 0.000000
vt 0.068357 0.100000 0.000000
vt -0.018357 0.150000 0.000000
vt 0.018357 -0.150000 0.000000
vt 0.068357 -0.200000 0.000000
vt -0.131643 -0.150000 0.000000
vt -0.018357 -0.050000 0.000000
vt -0.018357 -0.100000 0.000000
vt 0.018357 -0.050000 0.000000
vt 0.068357 -0.100000 0.000000
vt 0.068357 0.050000 0.000000
vt -0.068357 -0.050000 0.000000
vt -0.018357 0.050000 0.000000
vt -0.068357 0.100000 0.000000
vt 0.018357 0.100000 0.000000
vt 0.018357 0.050000 0.000000
vt -0.068357 -0.100000 0.000000
vt -0.131643 -0.050000 0.000000
vt -0.181643 -0.100000 0.000000
vt -0.131643 0.150000 0.000000
vt -0.181643 0.200000 0.000000
vt 0.018357 0.150000 0.000000
vt 0.068357 0.200000 0.000000
vt 0.068357 0.100000 0.000000
vt 0.131643 0.050000 0.000000
vt 0.181643 0.100000 0.000000
vt 0.181643 -0.200000 0.000000
vt 0.131643 -0.150000 0.000000
vt -0.018357 -0.150000 0.000000
vt -0.068357 -0.200000 0.000000
vn 0.000000 0.000000 0.100000
vn 0.000000 0.000000 0.100000
vn 0.000000 0.000000 0.100000
vn 0.000000 0.000000 0.100000
vn -0.100000 0.000000 0.000000
vn -0.100000 0.000000 0.000000
vn -0.100000 0.000000 0.000000
vn -0.100000 0.000000 0.000000
vn 0.000000 0.000000 -0.100000
vn 0.000000 0.000000 -0.100000
vn 0.000000 0.000000 -0.100000
vn 0.000000 0.000000 -0.100000
vn 0.100000 0.000000 0.000000
vn 0.100000 0.000000 0.000000
vn 0.100000 0.000000 0.000000
vn 0.100000 0.000000 0.000000
vn -0.000000 0.000000 0.100000
vn -0.000000 0.000000 0.100000
vn -0.000000 0.000000 0.100000
vn -0.000000 0.000000 0.100000
vn -0.100000 0.000000 0.000000
vn -0.100000 0.000000 0.000000
vn -0.100000 0.000000 0.000000
vn -0.100000 0.000000 0.000000
vn 0.000000 0.000000 -0.100000
vn 0.000000 0.000000 -0.100000
vn 0.000000 0.000000 -0.100000
vn 0.000000 0.000000 -0.100000
vn 0.100000 0.000000 0.000000
vn 0.100000 0.000000 0.000000
vn 0.100000 0.000000 0.000000
vn 0.100000 0.000000 0.000000
vn 0.000000 0.000000 0.100000
vn 0.000000 0.000000 0.100000
vn 0.000000 0.000000 0.100000
vn 0.000000 0.000000 0.100000
vn -0.100000 0.000000 0.000000
vn -0.100000 0.000000 0.000000
vn -0.100000 0.000000 0.000000
vn -0.100000 0.000000 0.000000
vn 0.000000 0.000000 -0.100000
vn 0.000000 0.000000 -0.100000
vn 0.000000 0.000000 -0.100000
vn 0.000000 0.000000 -0.100000
vn 0.100000 0.000000 0.000000
vn 0.100000 0.000000 0.000000
vn 0.100000 0.000000 0.000000
vn 0.100000 0.000000 0.000000
vn -0.000000 0.000000 0.100000
vn -0.000000 0.000000 0.100000
vn -0.000000 0.000000 0.100000
vn -0.000000 0.000000 0.100000
vn -0.100000 0.000000 0.000000
vn -0.100000 0.000000 0.000000
vn -0.100000 0.000000 0.000000
vn -0.100000 0.000000 0.000000
vn 0.000000 0.000000 -0.100000
vn 0.000000 0.000000 -0.100000
vn 0.000000 0.000000 -0.100000
vn 0.000000 0.000000 -0.100000
vn 0.100000 0.000000 0.000000
vn 0.100000 0.000000 0.000000
vn 0.100000 0.000000 0.000000
vn 0.100000 0.000000 0.000000
vn 0.100000 0.000000 0.000000
vn 0.100000 0.000000 0.000000
vn 0.100000 0.000000 0.000000
vn 0.100000 0.000000 0.000000
vn 0.000000 0.000000 -0.100000
vn 0.000000 0.000000 -0.100000
vn 0.000000 0.000000 -0.100000
vn 0.000000 0.000000 -0.100000
vn -0.100000 0.000000 0.000000
vn -0.100000 0.000000 0.000000
vn -0.100000 0.000000 0.000000
vn -0.100000 0.000000 0.000000
vn 0.000000 0.000000 -0.100000
vn 0.000000 0.000000 -0.100000
vn 0.000000 0.000000 -0.100000
vn 0.000000 0.000000 -0.100000
vn -0.100000 0.000000 0.000000
vn -0.100000 0.000000 0.000000
vn -0.100000 0.000000 0.000000
vn -0.100000 0.000000 0.000000
vn 0.000000 0.000000 0.100000
vn 0.000000 0.000000 0.100000
vn 0.000000 0.000000 0.100000
vn 0.000000 0.000000 0.100000
vn 0.100000 0.000000 0.000000
vn 0.100000 0.000000 0.000000
vn 0.100000 0.000000 0.000000
vn 0.100000 0.000000 0.000000
vn 0.000000 0.000000 0.100000
vn 0.000000 0.000000 0.100000
vn 0.000000 0.000000 0.100000
vn 0.000000 0.000000 0.100000
vn 0.000000 -0.100000 0.000000
vn 0.000000 -0.100000 0.000000
vn 0.000000 -0.100000 0.000000
vn 0.000000 -0.100000 0.000000
vn 0.000000 -0.100000 0.000000
vn 0.000000 -0.100000 0.000000
vn 0.000000 -0.100000 0.000000
vn 0.000000 -0.100000 0.000000
vn 0.000000 -0.100000 0.000000
vn 0.000000 -0.100000 0.000000
vn 0.000000 -0.100000 0.000000
vn 0.000000 -0.100000 0.000000
vn 0.000000 -0.100000 0.000000
vn 0.000000 -0.100000 0.000000
vn 0.000000 -0.100000 0.000000
vn 0.000000 -0.100000 0.000000
vn 0.000000 -0.100000 0.000000
vn 0.000000 -0.100000 0.000000
vn 0.000000 -0.100000 0.000000
vn 0.000000 -0.100000 0.000000
vn 0.000000 -0.100000 0.000000
vn 0.000000 -0.100000 0.000000
vn 0.000000 -0.100000 0.000000
vn 0.000000 -0.100000 0.000000
vn 0.000000 0.100000 0.000000
vn 0.000000 0.100000 0.000000
vn 0.000000 0.100000 0.000000
vn 0.000000 0.100000 0.000000
vn 0.000000 0.100000 0.000000
vn 0.000000 0.100000 0.000000
vn 0.000000 0.100000 0.000000
vn 0.000000 0.100000 0.000000
vn 0.000000 0.100000 0.000000
vn 0.000000 0.100000 0.000000
vn 0.000000 0.100000 0.000000
vn 0.000000 0.100000 0.000000
vn 0.000000 0.100000 0.000000
vn 0.000000 0.100000 0.000000
vn 0.000000 0.100000 0.000000
vn 0.000000 0.100000 0.000000
vn 0.000000 0.100000 0.000000
vn 0.000000 0.100000 0.000000
vn 0.000000 0.100000 0.000000
vn 0.000000 0.100000 0.000000
vn 0.000000 0.100000 0.000000
vn 0.000000 0.100000 0.000000
vn 0.000000 0.100000 0.000000
vn 0.000000 0.100000 0.000000
usemtl Plastic_-_Matte_(Yellow)
f 1/1/1 2/2/2 4/3/3
f 4/3/3 2/2/2 3/4/4
f 5/5/5 1/6/6 6/7/7
f 6/7/7 1/6/6 4/8/8
f 7/9/9 5/10/10 8/11/11
f 8/11/11 5/10/10 6/12/12
f 9/13/13 7/14/14 10/15/15
f 10/15/15 7/14/14 8/16/16
f 11/17/17 9/18/18 12/19/19
f 12/19/19 9/18/18 10/20/20
f 2/21/21 11/22/22 3/23/23
f 3/23/23 11/22/22 12/24/24
f 13/25/25 14/26/26 16/27/27
f 16/27/27 14/26/26 15/28/28
f 17/29/29 13/30/30 18/31/31
f 18/31/31 13/30/30 16/32/32
f 19/33/33 17/34/34 20/35/35
f 20/35/35 17/34/34 18/36/36
f 21/37/37 19/38/38 22/39/39
f 22/39/39 19/38/38 20/40/40
f 23/41/41 21/42/42 24/43/43
f 24/43/43 21/42/42 22/44/44
f 14/45/45 23/46/46 15/47/47
f 15/47/47 23/46/46 24/48/48
f 25/49/49 26/50/50 28/51/51
f 28/51/51 26/50/50 27/52/52
f 29/53/53 25/54/54 30/55/55
f 30/55/55 25/54/54 28/56/56
f 31/57/57 29/58/58 32/59/59
f 32/59/59 29/58/58 30/60/60
f 26/61/61 31/62/62 27/63/63
f 27/63/63 31/62/62 32/64/64
f 33/65/65 34/66/66 36/67/67
f 36/67/67 34/66/66 35/68/68
f 37/69/69 33/70/70 38/71/71
f 38/71/71 33/70/70 36/72/72
f 39/73/73 37/74/74 40/75/75
f 40/75/75 37/74/74 38/76/76
f 41/77/77 39/78/78 42/79/79
f 42/79/79 39/78/78 40/80/80
f 43/81/81 41/82/82 44/83/83
f 44/83/83 41/82/82 42/84/84
f 45/85/85 43/86/86 46/87/87
f 46/87/87 43/86/86 44/88/88
f 47/89/89 45/90/90 48/91/91
f 48/91/91 45/90/90 46/92/92
f 34/93/93 47/94/94 35/95/95
f 35/95/95 47/94/94 48/96/96
f 32/97/97 12/98/98 27/99/99
f 27/99/99 12/98/98 40/100/100
f 27/99/99 40/100/100 16/101/101
f 16/101/101 40/100/100 18/102/102
f 18/102/102 40/100/100 38/103/103
f 18/102/102 38/103/103 20/104/104
f 20/104/104 38/103/103 36/105/105
f 20/104/104 36/105/105 35/106/106
f 30/107/107 4/108/108 32/97/97
f 32/97/97 4/108/108 3/109/109
f 32/97/97 3/109/109 12/98/98
f 28/110/110 24/111/111 30/107/107
f 30/107/107 24/111/111 48/112/112
f 30/107/107 48/112/112 4/108/108
f 4/108/108 48/112/112 6/113/113
f 6/113/113 48/112/112 46/114/114
f 6/113/113 46/114/114 44/115/115
f 27/99/99 16/101/101 28/110/110
f 28/110/110 16/101/101 15/116/116
f 28/110/110 15/116/116 24/111/111
f 24/111/111 22/117/117 48/112/112
f 48/112/112 22/117/117 35/106/106
f 35/106/106 22/117/117 20/104/104
f 12/98/98 10/118/118 40/100/100
f 40/100/100 10/118/118 42/119/119
f 42/119/119 10/118/118 8/120/120
f 42/119/119 8/120/120 44/115/115
f 44/115/115 8/120/120 6/113/113
f 26/121/121 11/122/122 31/123/123
f 31/123/123 11/122/122 2/124/124
f 31/123/123 2/124/124 1/125/125
f 11/122/122 26/121/121 13/126/126
f 13/126/126 26/121/121 25/127/127
f 13/126/126 25/127/127 14/128/128
f 14/128/128 25/127/127 23/129/129
f 23/129/129 25/127/127 29/130/130
f 23/129/129 29/130/130 1/125/125
f 1/125/125 29/130/130 31/123/123
f 11/122/122 13/126/126 39/131/131
f 39/131/131 13/126/126 17/132/132
f 39/131/131 17/132/132 37/133/133
f 37/133/133 17/132/132 19/134/134
f 37/133/133 19/134/134 33/135/135
f 33/135/135 19/134/134 21/136/136
f 33/135/135 21/136/136 34/137/137
f 34/137/137 21/136/136 47/138/138
f 47/138/138 21/136/136 23/129/129
f 47/138/138 23/129/129 1/125/125
f 1/125/125 5/139/139 47/138/138
f 47/138/138 5/139/139 45/140/140
f 45/140/140 5/139/139 43/141/141
f 43/141/141 5/139/139 7/142/142
f 43/141/141 7/142/142 9/143/143
f 11/122/122 39/131/131 9/143/143
f 9/143/143 39/131/131 41/144/144
f 9/143/143 41/144/144 43/141/141
# 48 vertices
# 144 texture params
# 144 normals
# 104 facets

# 1 groups
