# WaveFront *.obj file (generated by Autodesk ATF)

mtllib _OneXPlayerMini v85_BackIcon_OneXPlayerMini v85.mtl

g BackIcon

v -89.500000 -8.000000 43.211054
v -90.500000 -8.000000 43.211054
v -90.500000 -10.000000 43.211054
v -89.500000 -10.000000 43.211054
v -89.500000 -8.000000 43.578195
v -89.500000 -10.000000 43.578195
v -90.500000 -8.000000 43.578195
v -90.500000 -10.000000 43.578195
v -90.500000 -8.000000 42.711054
v -89.000000 -8.000000 42.711054
v -89.000000 -10.000000 42.711054
v -90.500000 -10.000000 42.711054
v -90.500000 -8.000000 42.078195
v -90.500000 -10.000000 42.078195
v -88.500000 -8.000000 42.078195
v -88.500000 -10.000000 42.078195
v -88.500000 -8.000000 43.578195
v -88.500000 -10.000000 43.578195
v -89.000000 -8.000000 43.578195
v -89.000000 -10.000000 43.578195
v -89.500000 -8.000000 44.078195
v -91.000000 -8.000000 44.078195
v -91.000000 -10.000000 44.078195
v -89.500000 -10.000000 44.078195
v -89.500000 -8.000000 44.711054
v -89.500000 -10.000000 44.711054
v -91.500000 -8.000000 44.711054
v -91.500000 -10.000000 44.711054
v -91.500000 -8.000000 43.211054
v -91.500000 -10.000000 43.211054
v -91.000000 -8.000000 43.211054
v -91.000000 -10.000000 43.211054
v -88.000000 -8.000000 41.578195
v -88.000000 -8.000000 44.078195
v -88.000000 -10.000000 44.078195
v -88.000000 -10.000000 41.578195
v -91.000000 -8.000000 41.578195
v -91.000000 -10.000000 41.578195
v -91.000000 -8.000000 42.711054
v -91.000000 -10.000000 42.711054
v -92.000000 -8.000000 42.711054
v -92.000000 -10.000000 42.711054
v -92.000000 -8.000000 45.211054
v -92.000000 -10.000000 45.211054
v -89.000000 -8.000000 45.211054
v -89.000000 -10.000000 45.211054
v -89.000000 -8.000000 44.078195
v -89.000000 -10.000000 44.078195
vt -0.000000 0.000000 0.000000
vt 0.100000 -0.000000 0.000000
vt 0.000000 0.200000 0.000000
vt 0.100000 0.200000 0.000000
vt -0.000000 0.000000 0.000000
vt 0.036714 0.000000 0.000000
vt 0.000000 0.200000 0.000000
vt 0.036714 0.200000 0.000000
vt 0.000000 0.000000 0.000000
vt 0.100000 0.000000 0.000000
vt 0.000000 0.200000 0.000000
vt 0.100000 0.200000 0.000000
vt 0.000000 0.000000 0.000000
vt 0.036714 0.000000 0.000000
vt 0.000000 0.200000 0.000000
vt 0.036714 0.200000 0.000000
vt 0.000000 0.000000 0.000000
vt 0.150000 0.000000 0.000000
vt 0.000000 0.200000 0.000000
vt 0.150000 0.200000 0.000000
vt 0.000000 0.000000 0.000000
vt 0.063286 0.000000 0.000000
vt 0.000000 0.200000 0.000000
vt 0.063286 0.200000 0.000000
vt -0.000000 0.000000 0.000000
vt 0.200000 0.000000 0.000000
vt 0.000000 0.200000 0.000000
vt 0.200000 0.200000 0.000000
vt -0.000000 0.000000 0.000000
vt 0.150000 0.000000 0.000000
vt 0.000000 0.200000 0.000000
vt 0.150000 0.200000 0.000000
vt 0.000000 0.000000 0.000000
vt 0.050000 0.000000 0.000000
vt 0.000000 0.200000 0.000000
vt 0.050000 0.200000 0.000000
vt 0.000000 0.000000 0.000000
vt 0.086714 0.000000 0.000000
vt 0.000000 0.200000 0.000000
vt 0.086714 0.200000 0.000000
vt -0.000000 0.000000 0.000000
vt 0.150000 0.000000 0.000000
vt 0.000000 0.200000 0.000000
vt 0.150000 0.200000 0.000000
vt -0.000000 0.000000 0.000000
vt 0.063286 0.000000 0.000000
vt 0.000000 0.200000 0.000000
vt 0.063286 0.200000 0.000000
vt 0.000000 0.000000 0.000000
vt 0.200000 0.000000 0.000000
vt 0.000000 0.200000 0.000000
vt 0.200000 0.200000 0.000000
vt 0.000000 0.000000 0.000000
vt 0.150000 0.000000 0.000000
vt 0.000000 0.200000 0.000000
vt 0.150000 0.200000 0.000000
vt -0.000000 0.000000 0.000000
vt 0.050000 0.000000 0.000000
vt 0.000000 0.200000 0.000000
vt 0.050000 0.200000 0.000000
vt -0.000000 0.000000 0.000000
vt 0.086714 0.000000 0.000000
vt 0.000000 0.200000 0.000000
vt 0.086714 0.200000 0.000000
vt 0.000000 0.000000 0.000000
vt 0.250000 0.000000 0.000000
vt 0.000000 0.200000 0.000000
vt 0.250000 0.200000 0.000000
vt 0.000000 0.000000 0.000000
vt 0.300000 0.000000 0.000000
vt 0.000000 0.200000 0.000000
vt 0.300000 0.200000 0.000000
vt -0.000000 0.000000 0.000000
vt 0.113286 0.000000 0.000000
vt 0.000000 0.200000 0.000000
vt 0.113286 0.200000 0.000000
vt 0.000000 0.000000 0.000000
vt 0.100000 0.000000 0.000000
vt 0.000000 0.200000 0.000000
vt 0.100000 0.200000 0.000000
vt -0.000000 0.000000 0.000000
vt 0.250000 0.000000 0.000000
vt 0.000000 0.200000 0.000000
vt 0.250000 0.200000 0.000000
vt -0.000000 0.000000 0.000000
vt 0.300000 0.000000 0.000000
vt 0.000000 0.200000 0.000000
vt 0.300000 0.200000 0.000000
vt 0.000000 0.000000 0.000000
vt 0.113286 0.000000 0.000000
vt 0.000000 0.200000 0.000000
vt 0.113286 0.200000 0.000000
vt -0.000000 0.000000 0.000000
vt 0.100000 0.000000 0.000000
vt 0.000000 0.200000 0.000000
vt 0.100000 0.200000 0.000000
vt -0.068357 0.050000 0.000000
vt -0.068357 -0.100000 0.000000
vt -0.018357 -0.050000 0.000000
vt 0.018357 -0.100000 0.000000
vt 0.018357 -0.050000 0.000000
vt 0.068357 -0.100000 0.000000
vt 0.068357 -0.050000 0.000000
vt 0.131643 -0.050000 0.000000
vt 0.181643 -0.100000 0.000000
vt 0.131643 0.150000 0.000000
vt 0.181643 0.200000 0.000000
vt -0.068357 0.200000 0.000000
vt 0.018357 -0.150000 0.000000
vt 0.068357 -0.200000 0.000000
vt -0.131643 -0.150000 0.000000
vt -0.181643 -0.200000 0.000000
vt -0.131643 0.050000 0.000000
vt -0.181643 0.100000 0.000000
vt -0.068357 0.100000 0.000000
vt -0.018357 0.050000 0.000000
vt 0.068357 0.100000 0.000000
vt 0.018357 0.050000 0.000000
vt -0.018357 0.100000 0.000000
vt -0.018357 0.150000 0.000000
vt 0.068357 -0.100000 0.000000
vt 0.018357 -0.050000 0.000000
vt -0.018357 -0.100000 0.000000
vt -0.018357 -0.050000 0.000000
vt -0.068357 -0.050000 0.000000
vt -0.018357 0.050000 0.000000
vt -0.068357 0.100000 0.000000
vt 0.018357 0.100000 0.000000
vt 0.018357 0.050000 0.000000
vt 0.068357 0.050000 0.000000
vt 0.068357 0.100000 0.000000
vt 0.131643 0.050000 0.000000
vt 0.181643 0.100000 0.000000
vt 0.181643 -0.200000 0.000000
vt 0.131643 -0.150000 0.000000
vt -0.018357 -0.150000 0.000000
vt -0.068357 -0.100000 0.000000
vt -0.068357 -0.200000 0.000000
vt -0.131643 -0.050000 0.000000
vt -0.181643 -0.100000 0.000000
vt -0.131643 0.150000 0.000000
vt -0.181643 0.200000 0.000000
vt 0.018357 0.150000 0.000000
vt 0.068357 0.200000 0.000000
vn -0.000000 0.000000 0.100000
vn -0.000000 0.000000 0.100000
vn -0.000000 0.000000 0.100000
vn -0.000000 0.000000 0.100000
vn -0.100000 0.000000 0.000000
vn -0.100000 0.000000 0.000000
vn -0.100000 0.000000 0.000000
vn -0.100000 0.000000 0.000000
vn 0.000000 0.000000 -0.100000
vn 0.000000 0.000000 -0.100000
vn 0.000000 0.000000 -0.100000
vn 0.000000 0.000000 -0.100000
vn 0.100000 0.000000 0.000000
vn 0.100000 0.000000 0.000000
vn 0.100000 0.000000 0.000000
vn 0.100000 0.000000 0.000000
vn 0.000000 0.000000 -0.100000
vn 0.000000 0.000000 -0.100000
vn 0.000000 0.000000 -0.100000
vn 0.000000 0.000000 -0.100000
vn 0.100000 0.000000 0.000000
vn 0.100000 0.000000 0.000000
vn 0.100000 0.000000 0.000000
vn 0.100000 0.000000 0.000000
vn 0.000000 0.000000 0.100000
vn 0.000000 0.000000 0.100000
vn 0.000000 0.000000 0.100000
vn 0.000000 0.000000 0.100000
vn -0.100000 0.000000 0.000000
vn -0.100000 0.000000 0.000000
vn -0.100000 0.000000 0.000000
vn -0.100000 0.000000 0.000000
vn 0.000000 0.000000 -0.100000
vn 0.000000 0.000000 -0.100000
vn 0.000000 0.000000 -0.100000
vn 0.000000 0.000000 -0.100000
vn 0.100000 0.000000 0.000000
vn 0.100000 0.000000 0.000000
vn 0.100000 0.000000 0.000000
vn 0.100000 0.000000 0.000000
vn 0.000000 0.000000 0.100000
vn 0.000000 0.000000 0.100000
vn 0.000000 0.000000 0.100000
vn 0.000000 0.000000 0.100000
vn -0.100000 0.000000 0.000000
vn -0.100000 0.000000 0.000000
vn -0.100000 0.000000 0.000000
vn -0.100000 0.000000 0.000000
vn 0.000000 0.000000 -0.100000
vn 0.000000 0.000000 -0.100000
vn 0.000000 0.000000 -0.100000
vn 0.000000 0.000000 -0.100000
vn 0.100000 0.000000 0.000000
vn 0.100000 0.000000 0.000000
vn 0.100000 0.000000 0.000000
vn 0.100000 0.000000 0.000000
vn -0.000000 0.000000 0.100000
vn -0.000000 0.000000 0.100000
vn -0.000000 0.000000 0.100000
vn -0.000000 0.000000 0.100000
vn -0.100000 0.000000 0.000000
vn -0.100000 0.000000 0.000000
vn -0.100000 0.000000 0.000000
vn -0.100000 0.000000 0.000000
vn 0.100000 0.000000 0.000000
vn 0.100000 0.000000 0.000000
vn 0.100000 0.000000 0.000000
vn 0.100000 0.000000 0.000000
vn 0.000000 0.000000 -0.100000
vn 0.000000 0.000000 -0.100000
vn 0.000000 0.000000 -0.100000
vn 0.000000 0.000000 -0.100000
vn -0.100000 0.000000 0.000000
vn -0.100000 0.000000 0.000000
vn -0.100000 0.000000 0.000000
vn -0.100000 0.000000 0.000000
vn 0.000000 0.000000 -0.100000
vn 0.000000 0.000000 -0.100000
vn 0.000000 0.000000 -0.100000
vn 0.000000 0.000000 -0.100000
vn -0.100000 0.000000 0.000000
vn -0.100000 0.000000 0.000000
vn -0.100000 0.000000 0.000000
vn -0.100000 0.000000 0.000000
vn 0.000000 0.000000 0.100000
vn 0.000000 0.000000 0.100000
vn 0.000000 0.000000 0.100000
vn 0.000000 0.000000 0.100000
vn 0.100000 0.000000 0.000000
vn 0.100000 0.000000 0.000000
vn 0.100000 0.000000 0.000000
vn 0.100000 0.000000 0.000000
vn 0.000000 0.000000 0.100000
vn 0.000000 0.000000 0.100000
vn 0.000000 0.000000 0.100000
vn 0.000000 0.000000 0.100000
vn 0.000000 -0.100000 0.000000
vn 0.000000 -0.100000 0.000000
vn 0.000000 -0.100000 0.000000
vn 0.000000 -0.100000 0.000000
vn 0.000000 -0.100000 0.000000
vn 0.000000 -0.100000 0.000000
vn 0.000000 -0.100000 0.000000
vn 0.000000 -0.100000 0.000000
vn 0.000000 -0.100000 0.000000
vn 0.000000 -0.100000 0.000000
vn 0.000000 -0.100000 0.000000
vn 0.000000 -0.100000 0.000000
vn 0.000000 -0.100000 0.000000
vn 0.000000 -0.100000 0.000000
vn 0.000000 -0.100000 0.000000
vn 0.000000 -0.100000 0.000000
vn 0.000000 -0.100000 0.000000
vn 0.000000 -0.100000 0.000000
vn 0.000000 -0.100000 0.000000
vn 0.000000 -0.100000 0.000000
vn 0.000000 -0.100000 0.000000
vn 0.000000 -0.100000 0.000000
vn 0.000000 -0.100000 0.000000
vn 0.000000 -0.100000 0.000000
vn 0.000000 0.100000 0.000000
vn 0.000000 0.100000 0.000000
vn 0.000000 0.100000 0.000000
vn 0.000000 0.100000 0.000000
vn 0.000000 0.100000 0.000000
vn 0.000000 0.100000 0.000000
vn 0.000000 0.100000 0.000000
vn 0.000000 0.100000 0.000000
vn 0.000000 0.100000 0.000000
vn 0.000000 0.100000 0.000000
vn 0.000000 0.100000 0.000000
vn 0.000000 0.100000 0.000000
vn 0.000000 0.100000 0.000000
vn 0.000000 0.100000 0.000000
vn 0.000000 0.100000 0.000000
vn 0.000000 0.100000 0.000000
vn 0.000000 0.100000 0.000000
vn 0.000000 0.100000 0.000000
vn 0.000000 0.100000 0.000000
vn 0.000000 0.100000 0.000000
vn 0.000000 0.100000 0.000000
vn 0.000000 0.100000 0.000000
vn 0.000000 0.100000 0.000000
vn 0.000000 0.100000 0.000000
usemtl Plastic_-_Matte_(Yellow)
f 1/1/1 2/2/2 4/3/3
f 4/3/3 2/2/2 3/4/4
f 5/5/5 1/6/6 6/7/7
f 6/7/7 1/6/6 4/8/8
f 7/9/9 5/10/10 8/11/11
f 8/11/11 5/10/10 6/12/12
f 2/13/13 7/14/14 3/15/15
f 3/15/15 7/14/14 8/16/16
f 9/17/17 10/18/18 12/19/19
f 12/19/19 10/18/18 11/20/20
f 13/21/21 9/22/22 14/23/23
f 14/23/23 9/22/22 12/24/24
f 15/25/25 13/26/26 16/27/27
f 16/27/27 13/26/26 14/28/28
f 17/29/29 15/30/30 18/31/31
f 18/31/31 15/30/30 16/32/32
f 19/33/33 17/34/34 20/35/35
f 20/35/35 17/34/34 18/36/36
f 10/37/37 19/38/38 11/39/39
f 11/39/39 19/38/38 20/40/40
f 21/41/41 22/42/42 24/43/43
f 24/43/43 22/42/42 23/44/44
f 25/45/45 21/46/46 26/47/47
f 26/47/47 21/46/46 24/48/48
f 27/49/49 25/50/50 28/51/51
f 28/51/51 25/50/50 26/52/52
f 29/53/53 27/54/54 30/55/55
f 30/55/55 27/54/54 28/56/56
f 31/57/57 29/58/58 32/59/59
f 32/59/59 29/58/58 30/60/60
f 22/61/61 31/62/62 23/63/63
f 23/63/63 31/62/62 32/64/64
f 33/65/65 34/66/66 36/67/67
f 36/67/67 34/66/66 35/68/68
f 37/69/69 33/70/70 38/71/71
f 38/71/71 33/70/70 36/72/72
f 39/73/73 37/74/74 40/75/75
f 40/75/75 37/74/74 38/76/76
f 41/77/77 39/78/78 42/79/79
f 42/79/79 39/78/78 40/80/80
f 43/81/81 41/82/82 44/83/83
f 44/83/83 41/82/82 42/84/84
f 45/85/85 43/86/86 46/87/87
f 46/87/87 43/86/86 44/88/88
f 47/89/89 45/90/90 48/91/91
f 48/91/91 45/90/90 46/92/92
f 34/93/93 47/94/94 35/95/95
f 35/95/95 47/94/94 48/96/96
f 24/97/97 23/98/98 8/99/99
f 8/99/99 23/98/98 32/100/100
f 8/99/99 32/100/100 3/101/101
f 3/101/101 32/100/100 40/102/102
f 3/101/101 40/102/102 12/103/103
f 12/103/103 40/102/102 14/104/104
f 14/104/104 40/102/102 38/105/105
f 14/104/104 38/105/105 16/106/106
f 16/106/106 38/105/105 36/107/107
f 16/106/106 36/107/107 35/108/108
f 32/100/100 30/109/109 40/102/102
f 40/102/102 30/109/109 42/110/110
f 42/110/110 30/109/109 28/111/111
f 42/110/110 28/111/111 44/112/112
f 44/112/112 28/111/111 26/113/113
f 44/112/112 26/113/113 46/114/114
f 46/114/114 26/113/113 48/115/115
f 48/115/115 26/113/113 24/97/97
f 48/115/115 24/97/97 6/116/116
f 6/116/116 24/97/97 8/99/99
f 12/103/103 11/117/117 4/118/118
f 4/118/118 11/117/117 20/119/119
f 4/118/118 20/119/119 6/116/116
f 6/116/116 20/119/119 48/115/115
f 20/119/119 18/120/120 48/115/115
f 48/115/115 18/120/120 35/108/108
f 35/108/108 18/120/120 16/106/106
f 3/101/101 12/103/103 4/118/118
f 22/121/121 7/122/122 31/123/123
f 31/123/123 7/122/122 2/124/124
f 31/123/123 2/124/124 9/125/125
f 9/125/125 2/124/124 1/126/126
f 9/125/125 1/126/126 10/127/127
f 10/127/127 1/126/126 19/128/128
f 19/128/128 1/126/126 5/129/129
f 19/128/128 5/129/129 21/130/130
f 21/130/130 5/129/129 7/122/122
f 21/130/130 7/122/122 22/121/121
f 19/128/128 21/130/130 47/131/131
f 47/131/131 21/130/130 25/132/132
f 47/131/131 25/132/132 45/133/133
f 45/133/133 25/132/132 43/134/134
f 43/134/134 25/132/132 27/135/135
f 43/134/134 27/135/135 29/136/136
f 31/123/123 39/137/137 29/136/136
f 29/136/136 39/137/137 41/138/138
f 29/136/136 41/138/138 43/134/134
f 31/123/123 9/125/125 39/137/137
f 39/137/137 9/125/125 13/139/139
f 39/137/137 13/139/139 37/140/140
f 37/140/140 13/139/139 15/141/141
f 37/140/140 15/141/141 33/142/142
f 33/142/142 15/141/141 17/143/143
f 33/142/142 17/143/143 34/144/144
f 34/144/144 17/143/143 47/131/131
f 47/131/131 17/143/143 19/128/128
# 48 vertices
# 144 texture params
# 144 normals
# 104 facets

# 1 groups
