# WaveFront *.obj file (generated by Autodesk ATF)

mtllib _OneXPlayerMini v62_BLetterInside2_OneXPlayerMini v62.mtl

g BLetterInside2

v 119.365236 -11.910386 19.495090
v 119.592385 -11.889899 19.745261
v 119.681403 -11.879827 20.124353
v 119.650840 -11.881492 20.353813
v 119.552480 -11.889424 20.561768
v 119.395780 -11.902278 20.721910
v 119.194875 -11.918017 20.822682
v 118.536450 -11.960545 20.897887
v 117.495864 -11.996415 20.897887
v 117.495864 -11.997645 19.350820
v 118.616259 -11.960845 19.350820
v 119.021443 -11.936357 19.372307
v 119.592385 -2.000000 19.745261
v 119.365236 -2.000000 19.495090
v 119.021443 -2.000000 19.372307
v 118.616259 -2.000000 19.350820
v 117.495864 -2.000000 19.350820
v 117.495864 -2.000000 20.897887
v 118.536450 -2.000000 20.897887
v 119.194875 -2.000000 20.822682
v 119.395844 -2.000000 20.721864
v 119.552480 -2.000000 20.561768
v 119.650857 -2.000000 20.353753
v 119.681403 -2.000000 20.124353
v 119.650857 -6.944712 20.353753
v 119.395844 -6.959009 20.721864
vt -2.394030 8.868317 0.000000
vt -2.433594 8.844430 0.000000
vt -2.348561 8.728769 0.000000
vt -2.460697 8.811406 0.000000
vt -2.473049 8.769797 0.000000
vt -2.422674 8.714654 0.000000
vt -2.471045 8.747402 0.000000
vt -2.444673 8.718288 0.000000
vt -2.461293 8.729441 0.000000
vt -2.347917 8.883906 0.000000
vt -2.228750 8.763197 0.000000
vt -2.218794 8.920948 0.000000
vt -0.102213 0.066813 0.000000
vt -0.114492 0.032433 0.000000
vt -0.077196 0.089528 0.000000
vt -0.039287 0.098429 0.000000
vt -0.116640 -0.008085 0.000000
vt 0.038066 -0.016066 0.000000
vt -0.116640 -0.120125 0.000000
vt 0.038066 -0.120125 0.000000
vt 0.030546 0.049777 0.000000
vt 0.004454 0.085537 0.000000
vt -0.016347 0.095375 0.000000
vt 0.020464 0.069873 0.000000
vt 0.038941 -1.000000 0.000000
vt 0.038941 -0.012017 0.000000
vt 0.000000 -1.000000 0.000000
vt 0.000000 -0.011010 0.000000
vt 0.000000 -0.012017 0.000000
vt 0.000000 -1.000000 0.000000
vt 0.022197 -0.505529 0.000000
vt 0.022197 -1.000000 0.000000
vt 0.045602 -1.000000 0.000000
vt 0.045602 -0.011058 0.000000
vt 0.022203 -0.011851 0.000000
vt 0.000000 -0.011058 0.000000
vt 0.000000 -1.000000 0.000000
vt 0.022476 -0.504099 0.000000
vt 0.022476 -1.000000 0.000000
vt 0.044267 -1.000000 0.000000
vt 0.044267 -0.008198 0.000000
vt 0.022484 -0.009772 0.000000
vt 0.000000 -1.000000 0.000000
vt 0.066272 -1.000000 0.000000
vt 0.000000 -0.008198 0.000000
vt 0.066272 -0.003945 0.000000
vt 0.033791 -1.000000 0.000000
vt 0.033791 -0.011010 0.000000
vt 0.000000 -1.000000 0.000000
vt 0.000000 -0.008961 0.000000
vt 0.036506 -1.000000 0.000000
vt 0.036506 -0.008961 0.000000
vt 0.000000 -1.000000 0.000000
vt 0.000000 -0.006364 0.000000
vt 0.040574 -1.000000 0.000000
vt 0.040574 -0.006364 0.000000
vt 0.000000 -1.000000 0.000000
vt 0.000000 -0.003915 0.000000
vt 0.112040 -1.000000 0.000000
vt 0.112040 -0.003915 0.000000
vt 0.000000 -1.000000 0.000000
vt 0.000000 -0.000236 0.000000
vt 0.000000 -1.000000 0.000000
vt 0.154707 -1.000000 0.000000
vt 0.000000 -0.000359 0.000000
vt 0.154707 -0.000236 0.000000
vt 0.000000 -1.000000 0.000000
vt 0.104059 -1.000000 0.000000
vt 0.000000 -0.003945 0.000000
vt 0.104059 -0.000359 0.000000
vn 0.006750 -0.099771 0.000372
vn 0.008029 -0.099676 0.000443
vn 0.005304 -0.099859 0.000294
vn 0.008916 -0.099601 0.000492
vn 0.009324 -0.099563 0.000516
vn 0.007675 -0.099704 0.000426
vn 0.009258 -0.099569 0.000513
vn 0.008391 -0.099646 0.000466
vn 0.008936 -0.099599 0.000496
vn 0.005283 -0.099860 0.000290
vn 0.001594 -0.099987 0.000088
vn 0.001291 -0.099992 0.000071
vn 0.000000 0.100000 0.000000
vn 0.000000 0.100000 0.000000
vn 0.000000 0.100000 0.000000
vn 0.000000 0.100000 0.000000
vn 0.000000 0.100000 0.000000
vn 0.000000 0.100000 0.000000
vn 0.000000 0.100000 0.000000
vn 0.000000 0.100000 0.000000
vn 0.000000 0.100000 0.000000
vn 0.000000 0.100000 0.000000
vn 0.000000 0.100000 0.000000
vn 0.000000 0.100000 0.000000
vn 0.100000 0.000000 0.000000
vn 0.100000 0.000000 0.000000
vn 0.087915 0.000000 -0.047655
vn 0.087915 0.000000 -0.047655
vn 0.096151 0.000000 0.027478
vn 0.096151 0.000000 0.027478
vn 0.082146 0.000000 0.057027
vn 0.082146 0.000000 0.057027
vn 0.096148 0.000000 0.027487
vn 0.082146 0.000000 0.057027
vn 0.082146 0.000000 0.057027
vn 0.058522 0.000000 0.081087
vn 0.058522 0.000000 0.081087
vn 0.031240 0.000000 0.094995
vn 0.031240 0.000000 0.094995
vn 0.058512 0.000000 0.081094
vn 0.031240 0.000000 0.094995
vn 0.000000 0.000000 0.100000
vn 0.031240 0.000000 0.094995
vn 0.000000 0.000000 0.100000
vn 0.052830 0.000000 -0.084906
vn 0.052830 0.000000 -0.084906
vn 0.017630 0.000000 -0.098434
vn 0.017630 0.000000 -0.098434
vn 0.018116 0.000000 -0.098345
vn 0.018116 0.000000 -0.098345
vn 0.000000 0.000000 -0.100000
vn 0.000000 0.000000 -0.100000
vn 0.000000 0.000000 -0.100000
vn 0.000000 0.000000 -0.100000
vn -0.100000 0.000000 0.000000
vn -0.100000 0.000000 0.000000
vn -0.100000 0.000000 0.000000
vn -0.100000 0.000000 0.000000
vn 0.000000 0.000000 0.100000
vn 0.000000 0.000000 0.100000
usemtl Plastic_-_Glossy_(Black)
f 12/1/1 1/2/2 8/3/3
f 8/3/3 1/2/2 2/4/4
f 8/3/3 2/4/4 3/5/5
f 8/3/3 3/5/5 7/6/6
f 7/6/6 3/5/5 4/7/7
f 7/6/6 4/7/7 6/8/8
f 6/8/8 4/7/7 5/9/9
f 12/1/1 8/3/3 11/10/10
f 11/10/10 8/3/3 9/11/11
f 11/10/10 9/11/11 10/12/12
f 14/13/13 15/14/14 13/15/15
f 13/15/15 15/14/14 24/16/16
f 24/16/16 15/14/14 16/17/17
f 24/16/16 16/17/17 19/18/18
f 19/18/18 16/17/17 17/19/19
f 19/18/18 17/19/19 18/20/20
f 20/21/21 22/22/22 19/18/18
f 19/18/18 22/22/22 23/23/23
f 19/18/18 23/23/23 24/16/16
f 20/21/21 21/24/24 22/22/22
f 24/25/25 3/26/26 13/27/27
f 13/27/27 3/26/26 2/28/28
f 3/29/26 24/30/25 25/31/29
f 25/31/29 24/30/25 23/32/30
f 25/31/29 23/32/30 22/33/31
f 22/33/31 5/34/32 25/31/29
f 25/31/29 5/34/32 4/35/33
f 25/31/29 4/35/33 3/29/26
f 5/36/34 22/37/35 26/38/36
f 26/38/36 22/37/35 21/39/37
f 26/38/36 21/39/37 20/40/38
f 20/40/38 7/41/39 26/38/36
f 26/38/36 7/41/39 6/42/40
f 26/38/36 6/42/40 5/36/34
f 20/43/41 19/44/42 7/45/43
f 7/45/43 19/44/42 8/46/44
f 13/47/27 2/48/28 14/49/45
f 14/49/45 2/48/28 1/50/46
f 14/51/45 1/52/46 15/53/47
f 15/53/47 1/52/46 12/54/48
f 15/55/49 12/56/50 16/57/51
f 16/57/51 12/56/50 11/58/52
f 16/59/51 11/60/52 17/61/53
f 17/61/53 11/60/52 10/62/54
f 18/63/55 17/64/56 9/65/57
f 9/65/57 17/64/56 10/66/58
f 19/67/42 18/68/59 8/69/44
f 8/69/44 18/68/59 9/70/60
# 26 vertices
# 70 texture params
# 60 normals
# 48 facets

# 1 groups
