# WaveFront *.obj file (generated by Autodesk ATF)

mtllib _OneXPlayerMini v62_BLetterInside1_OneXPlayerMini v62.mtl

g BLetterInside1

v 117.495864 -11.995930 21.428923
v 118.468920 -11.962538 21.428923
v 119.036791 -11.927095 21.481106
v 119.227468 -11.912225 21.565449
v 119.379049 -11.899049 21.705186
v 119.468068 -11.890351 21.891129
v 119.494158 -11.886959 22.098091
v 119.468685 -11.888223 22.303576
v 119.386723 -11.894568 22.492532
v 119.254768 -11.905127 22.637169
v 119.079765 -11.918697 22.725820
v 118.395250 -11.962419 22.788746
v 117.495864 -11.994539 22.788746
v 118.468920 -2.000000 21.428923
v 117.495864 -2.000000 21.428923
v 117.495864 -2.000000 22.788746
v 118.395250 -2.000000 22.788746
v 119.079765 -2.000000 22.725820
v 119.254831 -2.000000 22.637122
v 119.386723 -2.000000 22.492532
v 119.468697 -2.000000 22.303532
v 119.494158 -2.000000 22.098091
v 119.468088 -2.000000 21.891202
v 119.379049 -2.000000 21.705186
v 119.227511 -2.000000 21.565476
v 119.036791 -2.000000 21.481106
v 119.227511 -6.963547 21.565476
v 119.468089 -6.949524 21.891202
v 119.468697 -6.947284 22.303532
v 119.254831 -6.959349 22.637122
vt -2.231802 8.702226 0.000000
vt -2.343830 8.670049 0.000000
vt -2.240629 8.563536 0.000000
vt -2.344092 8.533772 0.000000
vt -2.408556 8.645946 0.000000
vt -2.430592 8.631037 0.000000
vt -2.448532 8.611770 0.000000
vt -2.459708 8.589857 0.000000
vt -2.463940 8.567879 0.000000
vt -2.421262 8.517538 0.000000
vt -2.462371 8.547755 0.000000
vt -2.454350 8.531186 0.000000
vt -2.440418 8.520793 0.000000
vt 0.096388 0.033968 0.000000
vt 0.091170 -0.022819 0.000000
vt 0.227152 -0.030186 0.000000
vt 0.091170 -0.120125 0.000000
vt 0.227152 -0.120125 0.000000
vt 0.220860 0.038266 0.000000
vt 0.197531 0.068961 0.000000
vt 0.178631 0.077159 0.000000
vt 0.158087 0.079705 0.000000
vt 0.211990 0.055772 0.000000
vt 0.137398 0.077098 0.000000
vt 0.118796 0.068194 0.000000
vt 0.104825 0.053040 0.000000
vt 0.057024 -1.000000 0.000000
vt 0.057024 -0.007291 0.000000
vt 0.000000 -1.000000 0.000000
vt 0.000000 -0.003746 0.000000
vt 0.019456 -1.000000 0.000000
vt 0.019456 -0.503645 0.000000
vt 0.000000 -1.000000 0.000000
vt 0.019451 -0.008778 0.000000
vt 0.000000 -0.007291 0.000000
vt 0.040908 -1.000000 0.000000
vt 0.040908 -0.010095 0.000000
vt 0.021458 -1.000000 0.000000
vt 0.021458 -0.505048 0.000000
vt 0.000000 -1.000000 0.000000
vt 0.021450 -0.010965 0.000000
vt 0.000000 -0.010095 0.000000
vt 0.040942 -1.000000 0.000000
vt 0.040942 -0.011304 0.000000
vt 0.000000 -0.011304 0.000000
vt 0.000000 -1.000000 0.000000
vt 0.019902 -0.505272 0.000000
vt 0.019902 -1.000000 0.000000
vt 0.040881 -1.000000 0.000000
vt 0.040881 -0.010543 0.000000
vt 0.019906 -0.011178 0.000000
vt 0.097306 -1.000000 0.000000
vt 0.097306 -0.003746 0.000000
vt 0.000000 -1.000000 0.000000
vt 0.000000 -0.000407 0.000000
vt 0.000000 -1.000000 0.000000
vt 0.135982 -1.000000 0.000000
vt 0.000000 -0.000546 0.000000
vt 0.135982 -0.000407 0.000000
vt 0.000000 -1.000000 0.000000
vt 0.089939 -1.000000 0.000000
vt 0.000000 -0.003758 0.000000
vt 0.089939 -0.000546 0.000000
vt 0.000000 -1.000000 0.000000
vt 0.068743 -1.000000 0.000000
vt 0.000000 -0.008130 0.000000
vt 0.068743 -0.003758 0.000000
vt 0.000000 -0.010543 0.000000
vt 0.000000 -1.000000 0.000000
vt 0.019457 -0.504065 0.000000
vt 0.019457 -1.000000 0.000000
vt 0.038555 -1.000000 0.000000
vt 0.038555 -0.008130 0.000000
vt 0.019465 -0.009487 0.000000
vn 0.001698 -0.099986 0.000094
vn 0.005168 -0.099866 0.000288
vn 0.001968 -0.099981 0.000110
vn 0.005176 -0.099866 0.000290
vn 0.007232 -0.099737 0.000403
vn 0.007946 -0.099683 0.000443
vn 0.008532 -0.099634 0.000476
vn 0.008899 -0.099602 0.000498
vn 0.009039 -0.099589 0.000506
vn 0.007644 -0.099706 0.000429
vn 0.008987 -0.099594 0.000504
vn 0.008724 -0.099618 0.000489
vn 0.008267 -0.099657 0.000464
vn 0.000000 0.100000 0.000000
vn 0.000000 0.100000 0.000000
vn 0.000000 0.100000 0.000000
vn 0.000000 0.100000 0.000000
vn 0.000000 0.100000 0.000000
vn 0.000000 0.100000 0.000000
vn 0.000000 0.100000 0.000000
vn 0.000000 0.100000 0.000000
vn 0.000000 0.100000 0.000000
vn 0.000000 0.100000 0.000000
vn 0.000000 0.100000 0.000000
vn 0.000000 0.100000 0.000000
vn 0.000000 0.100000 0.000000
vn 0.029048 0.000000 -0.095688
vn 0.029048 0.000000 -0.095688
vn 0.000000 0.000000 -0.100000
vn 0.000000 0.000000 -0.100000
vn 0.053420 0.000000 -0.084536
vn 0.053420 0.000000 -0.084536
vn 0.028497 0.000000 -0.095854
vn 0.053413 0.000000 -0.084540
vn 0.028497 0.000000 -0.095854
vn 0.080565 0.000000 -0.059239
vn 0.080565 0.000000 -0.059239
vn 0.096392 0.000000 -0.026618
vn 0.096392 0.000000 -0.026618
vn 0.080565 0.000000 -0.059239
vn 0.096389 0.000000 -0.026629
vn 0.080565 0.000000 -0.059239
vn 0.100000 0.000000 0.000000
vn 0.100000 0.000000 0.000000
vn 0.096682 0.000000 0.025548
vn 0.096682 0.000000 0.025548
vn 0.084585 0.000000 0.053342
vn 0.084585 0.000000 0.053342
vn 0.096680 0.000000 0.025554
vn 0.000000 0.000000 -0.100000
vn 0.000000 0.000000 -0.100000
vn -0.100000 0.000000 0.000000
vn -0.100000 0.000000 0.000000
vn -0.100000 0.000000 0.000000
vn -0.100000 0.000000 0.000000
vn 0.000000 0.000000 0.100000
vn 0.000000 0.000000 0.100000
vn 0.000000 0.000000 0.100000
vn 0.000000 0.000000 0.100000
vn 0.030078 0.000000 0.095369
vn 0.030078 0.000000 0.095369
vn 0.084585 0.000000 0.053342
vn 0.084585 0.000000 0.053342
vn 0.060236 0.000000 0.079823
vn 0.060236 0.000000 0.079823
vn 0.030078 0.000000 0.095369
vn 0.030078 0.000000 0.095369
vn 0.060224 0.000000 0.079832
usemtl Plastic_-_Glossy_(Black)
f 1/1/1 2/2/2 13/3/3
f 13/3/3 2/2/2 12/4/4
f 12/4/4 2/2/2 3/5/5
f 12/4/4 3/5/5 4/6/6
f 4/6/6 5/7/7 12/4/4
f 12/4/4 5/7/7 6/8/8
f 12/4/4 6/8/8 7/9/9
f 12/4/4 7/9/9 11/10/10
f 11/10/10 7/9/9 8/11/11
f 11/10/10 8/11/11 9/12/12
f 9/12/12 10/13/13 11/10/10
f 26/14/14 14/15/15 17/16/16
f 17/16/16 14/15/15 15/17/17
f 17/16/16 15/17/17 16/18/18
f 18/19/19 20/20/20 17/16/16
f 17/16/16 20/20/20 21/21/21
f 17/16/16 21/21/21 22/22/22
f 18/19/19 19/23/23 20/20/20
f 22/22/22 23/24/24 17/16/16
f 17/16/16 23/24/24 26/14/14
f 23/24/24 24/25/25 26/14/14
f 26/14/14 24/25/25 25/26/26
f 26/27/27 3/28/28 14/29/29
f 14/29/29 3/28/28 2/30/30
f 25/31/31 27/32/32 26/33/33
f 26/33/33 27/32/32 4/34/34
f 26/33/33 4/34/34 3/35/35
f 25/31/31 24/36/36 27/32/32
f 27/32/32 24/36/36 5/37/37
f 27/32/32 5/37/37 4/34/34
f 23/38/38 28/39/39 24/40/40
f 24/40/40 28/39/39 6/41/41
f 24/40/40 6/41/41 5/42/42
f 23/38/38 22/43/43 28/39/39
f 28/39/39 22/43/43 7/44/44
f 28/39/39 7/44/44 6/41/41
f 7/45/44 22/46/43 29/47/45
f 29/47/45 22/46/43 21/48/46
f 29/47/45 21/48/46 20/49/47
f 20/49/47 9/50/48 29/47/45
f 29/47/45 9/50/48 8/51/49
f 29/47/45 8/51/49 7/45/44
f 14/52/29 2/53/30 15/54/50
f 15/54/50 2/53/30 1/55/51
f 16/56/52 15/57/53 13/58/54
f 13/58/54 15/57/53 1/59/55
f 17/60/56 16/61/57 12/62/58
f 12/62/58 16/61/57 13/63/59
f 18/64/60 17/65/56 11/66/61
f 11/66/61 17/65/56 12/67/58
f 9/68/62 20/69/63 30/70/64
f 30/70/64 20/69/63 19/71/65
f 30/70/64 19/71/65 18/72/66
f 18/72/66 11/73/67 30/70/64
f 30/70/64 11/73/67 10/74/68
f 30/70/64 10/74/68 9/68/62
# 30 vertices
# 74 texture params
# 68 normals
# 56 facets

# 1 groups
