# WaveFront *.obj file (generated by Autodesk ATF)

mtllib _OneXPlayerMini v85_DPadDown_OneXPlayerMini v85.mtl

g DPadDown

v -99.564794 -11.929305 -18.404448
v -101.650202 -11.929305 -18.833977
v -103.779386 -11.929305 -18.833977
v -105.864794 -11.929305 -18.404448
v -105.864794 -8.000000 -18.404448
v -103.779386 -8.000000 -18.833977
v -101.650202 -8.000000 -18.833977
v -99.564794 -8.000000 -18.404448
v -106.214794 -11.929305 -17.927478
v -106.214794 -11.724873 -16.084998
v -106.214794 -11.564199 -14.238188
v -106.214794 -11.447372 -12.388086
v -106.214794 -8.000000 -12.388086
v -106.214794 -8.000000 -17.927478
v -106.047008 -11.929305 -18.301155
v -106.170923 -11.929305 -18.132287
v -106.170923 -8.000000 -18.132287
v -106.047008 -8.000000 -18.301155
v -99.214794 -11.929305 -17.927478
v -99.258665 -11.929305 -18.132287
v -99.382580 -11.929305 -18.301155
v -99.382580 -8.000000 -18.301155
v -99.258665 -8.000000 -18.132287
v -99.214794 -8.000000 -17.927478
v -99.214794 -11.447372 -12.388086
v -99.214794 -11.564199 -14.238188
v -99.214794 -11.724873 -16.084998
v -99.214794 -8.000000 -12.388086
v -105.695616 -12.425201 -17.866494
v -105.892766 -12.393065 -17.870446
v -106.061501 -12.286881 -17.883505
v -106.174877 -12.123604 -17.903584
v -105.851465 -12.135351 -18.362065
v -105.813848 -12.304780 -18.242449
v -105.758627 -12.407481 -18.066856
v -105.939844 -12.343391 -18.094467
v -105.880571 -12.234330 -18.287308
v -106.119874 -12.170189 -18.094467
v -106.013185 -12.106746 -18.287308
v -105.986636 -11.925260 -11.659928
v -106.128199 -11.896204 -11.801491
v -106.250031 -11.790206 -11.923323
v -106.332197 -11.624609 -12.005489
v -106.361241 -11.426147 -12.034533
v -106.252838 -11.431668 -12.196811
v -106.174877 -11.642879 -12.378067
v -106.061501 -11.807170 -12.369647
v -105.892766 -11.914013 -12.364172
v -105.695616 -11.946349 -12.362515
v -105.771217 -11.930745 -11.982411
v -106.216343 -11.631565 -12.175700
v -106.189453 -11.689330 -12.162832
v -106.062705 -11.839066 -12.105856
v -105.890680 -11.920765 -12.032175
v -105.695616 -12.222076 -16.035793
v -105.695616 -12.062429 -14.200789
v -99.733973 -12.425201 -17.866494
v -99.670962 -12.407481 -18.066856
v -99.615741 -12.304780 -18.242449
v -99.578123 -12.135351 -18.362065
v -99.254711 -12.123604 -17.903584
v -99.368088 -12.286881 -17.883505
v -99.536822 -12.393065 -17.870446
v -99.416403 -12.106746 -18.287308
v -99.549017 -12.234330 -18.287308
v -99.489744 -12.343391 -18.094467
v -99.309715 -12.170189 -18.094467
v -101.707379 -12.425201 -18.272955
v -103.722209 -12.425201 -18.272955
v -103.774881 -12.135351 -18.789777
v -103.762168 -12.304780 -18.665031
v -103.743505 -12.407481 -18.481909
v -101.654707 -12.135351 -18.789777
v -101.667420 -12.304780 -18.665031
v -101.686083 -12.407481 -18.481909
v -99.254711 -11.642879 -12.378067
v -99.368088 -11.807170 -12.369647
v -99.536822 -11.914013 -12.364172
v -99.733973 -11.946349 -12.362515
v -99.733973 -12.062429 -14.200789
v -99.733973 -12.222076 -16.035793
v -102.714794 -11.787387 -8.388086
v -103.805982 -11.802710 -9.479274
v -104.896739 -11.848674 -10.570031
v -99.658205 -11.930758 -11.982482
v -99.442952 -11.925260 -11.659928
v -100.532849 -11.848674 -10.570031
v -101.623606 -11.802710 -9.479274
v -99.068348 -11.426147 -12.034533
v -99.097391 -11.624609 -12.005489
v -99.179557 -11.790206 -11.923323
v -99.301389 -11.896204 -11.801491
v -99.176667 -11.431680 -12.196847
v -99.538772 -11.920776 -12.032238
v -99.366786 -11.839075 -12.105907
v -99.240060 -11.689340 -12.162873
v -99.213172 -11.631575 -12.175739
v -99.068348 -8.000000 -12.034533
v -99.197757 -8.000000 -12.258677
v -99.147807 -8.000000 -12.138086
v -102.714794 -8.000000 -8.388086
v -106.361241 -8.000000 -12.034533
v -106.231831 -8.000000 -12.258677
v -106.281781 -8.000000 -12.138086
vt -0.000000 -1.329409 0.000000
vt -0.392930 -1.329409 0.000000
vt -0.000000 -1.542694 0.000000
vt -0.392930 -1.542694 0.000000
vt -0.000000 -1.755979 0.000000
vt -0.392930 -1.755979 0.000000
vt 0.000000 -1.969263 0.000000
vt -0.392930 -1.969263 0.000000
vt 0.553939 0.392930 0.000000
vt 0.369691 0.372487 0.000000
vt 0.553939 0.000000 0.000000
vt 0.185010 0.356420 0.000000
vt -0.000000 0.000000 0.000000
vt 0.000000 0.344737 0.000000
vt -0.000000 0.031653 0.000000
vt -0.392930 0.031653 0.000000
vt 0.000000 0.010551 0.000000
vt -0.392930 0.010551 0.000000
vt 0.000000 -0.010551 0.000000
vt -0.392930 -0.010551 0.000000
vt -0.000000 -0.031653 0.000000
vt -0.392930 -0.031653 0.000000
vt -0.000000 0.031653 0.000000
vt -0.392930 0.031653 0.000000
vt -0.000000 0.010551 0.000000
vt -0.392930 0.010551 0.000000
vt -0.000000 -0.010551 0.000000
vt -0.392930 -0.010551 0.000000
vt -0.000000 -0.031653 0.000000
vt -0.392930 -0.031653 0.000000
vt 0.553939 0.344737 0.000000
vt 0.368929 0.356420 0.000000
vt 0.553939 0.000000 0.000000
vt 0.000000 0.000000 0.000000
vt 0.184248 0.372487 0.000000
vt 0.000000 0.392930 0.000000
vt -0.006114 -0.064416 0.000000
vt -0.005716 -0.081447 0.000000
vt 0.014125 -0.069885 0.000000
vt 0.017026 -0.086972 0.000000
vt 0.034074 -0.076886 0.000000
vt 0.040166 -0.086972 0.000000
vt 0.052676 -0.090665 0.000000
vt 0.040166 -0.109527 0.000000
vt 0.063305 -0.132083 0.000000
vt 0.042203 -0.132083 0.000000
vt 0.021102 -0.132083 0.000000
vt 0.017026 -0.109527 0.000000
vt -0.002390 -0.115283 0.000000
vt -0.004403 -0.098413 0.000000
vt -0.000000 -0.132083 0.000000
vt -0.000000 0.024835 0.000000
vt -0.000000 0.049671 0.000000
vt -0.013017 0.024835 0.000000
vt -0.020295 0.049671 0.000000
vt -0.033589 0.024835 0.000000
vt -0.040600 0.049671 0.000000
vt -0.054162 0.024835 0.000000
vt -0.060906 0.049671 0.000000
vt -0.060670 0.024835 0.000000
vt -0.081243 0.024835 0.000000
vt -0.060935 0.000000 0.000000
vt -0.081243 0.000000 0.000000
vt -0.081243 0.049671 0.000000
vt -0.040621 0.000000 0.000000
vt -0.020308 0.000000 0.000000
vt -0.000000 0.000000 0.000000
vt 0.078540 11.268061 0.000000
vt 0.098654 11.268061 0.000000
vt 0.078540 11.452589 0.000000
vt 0.098654 11.821646 0.000000
vt 0.078540 11.637118 0.000000
vt 0.078540 11.821646 0.000000
vt 0.118769 11.268061 0.000000
vt 0.138883 11.268061 0.000000
vt 0.118769 11.821646 0.000000
vt 0.158998 11.637118 0.000000
vt 0.138883 11.821646 0.000000
vt 0.158998 11.821646 0.000000
vt 0.158998 11.268061 0.000000
vt 0.158998 11.452589 0.000000
vt -0.006114 -0.067667 0.000000
vt 0.014125 -0.062198 0.000000
vt -0.005716 -0.050636 0.000000
vt 0.017026 -0.045111 0.000000
vt -0.004403 -0.033670 0.000000
vt 0.017026 -0.022556 0.000000
vt -0.002390 -0.016800 0.000000
vt 0.021102 0.000000 0.000000
vt -0.000000 0.000000 0.000000
vt 0.034074 -0.055197 0.000000
vt 0.040166 -0.045111 0.000000
vt 0.040166 -0.022556 0.000000
vt 0.042203 0.000000 0.000000
vt 0.063305 0.000000 0.000000
vt 0.052676 -0.041418 0.000000
vt -0.084950 -0.314753 0.000000
vt -0.063713 -0.314753 0.000000
vt -0.084950 -0.104918 0.000000
vt -0.063713 -0.104918 0.000000
vt -0.084950 0.104918 0.000000
vt -0.063713 0.104918 0.000000
vt -0.084950 0.314753 0.000000
vt -0.063713 0.314753 0.000000
vt -0.042475 0.104918 0.000000
vt -0.042475 0.314753 0.000000
vt -0.021238 0.104918 0.000000
vt -0.021238 0.314753 0.000000
vt -0.000000 0.104918 0.000000
vt -0.000000 0.314753 0.000000
vt -0.042475 -0.314753 0.000000
vt -0.042475 -0.104918 0.000000
vt -0.021238 -0.314753 0.000000
vt -0.021238 -0.104918 0.000000
vt 0.000000 -0.314753 0.000000
vt 0.000000 -0.104918 0.000000
vt -0.155161 13.171892 0.000000
vt -0.175276 13.171892 0.000000
vt -0.155161 12.987363 0.000000
vt -0.195390 13.171892 0.000000
vt -0.175276 12.618307 0.000000
vt -0.215505 13.171892 0.000000
vt -0.195390 12.618307 0.000000
vt -0.215505 12.618307 0.000000
vt -0.235619 12.802835 0.000000
vt -0.235619 12.618307 0.000000
vt -0.235619 13.171892 0.000000
vt -0.235619 12.987363 0.000000
vt -0.155161 12.618307 0.000000
vt -0.155161 12.802835 0.000000
vt 0.000000 12.182255 0.000000
vt -0.109122 12.291166 0.000000
vt -0.109122 12.073344 0.000000
vt -0.218223 12.400121 0.000000
vt -0.397616 11.884316 0.000000
vt -0.397616 12.480194 0.000000
vt -0.581814 12.480641 0.000000
vt -0.327281 12.509161 0.000000
vt -0.359561 12.487682 0.000000
vt -0.766011 12.481256 0.000000
vt -0.991172 12.283618 0.000000
vt -0.581814 11.883870 0.000000
vt -0.950207 12.482044 0.000000
vt -0.991172 12.080892 0.000000
vt -0.766011 11.883254 0.000000
vt -0.950207 11.882467 0.000000
vt -0.218223 11.964390 0.000000
vt -0.359568 11.876812 0.000000
vt -0.327281 11.855349 0.000000
vt -0.081243 0.049671 0.000000
vt -0.060906 0.049671 0.000000
vt -0.081243 0.074507 0.000000
vt -0.060670 0.074507 0.000000
vt -0.060935 0.099343 0.000000
vt -0.054162 0.074507 0.000000
vt -0.040621 0.099343 0.000000
vt -0.033589 0.074507 0.000000
vt -0.020308 0.099343 0.000000
vt -0.013017 0.074507 0.000000
vt -0.000000 0.099343 0.000000
vt -0.000000 0.074507 0.000000
vt -0.000000 0.049671 0.000000
vt -0.020295 0.049671 0.000000
vt -0.040600 0.049671 0.000000
vt -0.081243 0.099343 0.000000
vt 0.000000 -0.000000 0.000000
vt 0.342615 0.000000 0.000000
vt -0.000000 0.013090 0.000000
vt 0.343168 0.019642 0.000000
vt 0.000000 0.026180 0.000000
vt 0.344737 0.039270 0.000000
vt -0.000000 0.039270 0.000000
vt 0.000000 -0.157273 0.000000
vt 0.154317 -0.158806 0.000000
vt 0.000000 0.221465 0.000000
vt 0.308574 -0.163402 0.000000
vt 0.515685 0.221465 0.000000
vt 0.515685 -0.121149 0.000000
vt 0.462708 -0.171061 0.000000
vt 0.511578 -0.140996 0.000000
vt 0.499958 -0.157555 0.000000
vt 0.482728 -0.168155 0.000000
vt 0.364645 -0.364645 0.000000
vt -0.000000 -0.000000 0.000000
vt 0.356699 -0.375000 0.000000
vt 0.351704 -0.387059 0.000000
vt 0.350000 -0.400000 0.000000
vt 0.106459 -1.044589 0.000000
vt 0.350000 -0.953939 0.000000
vt 0.315000 -1.001636 0.000000
vt 0.333221 -0.991307 0.000000
vt -0.364645 -0.364645 0.000000
vt -0.356699 -0.375000 0.000000
vt -0.351704 -0.387059 0.000000
vt -0.350000 -0.400000 0.000000
vt -0.106459 -1.044589 0.000000
vt -0.350000 -0.953939 0.000000
vt -0.315000 -1.001636 0.000000
vt -0.333221 -0.991307 0.000000
vt -0.345613 -0.974420 0.000000
vt 0.345613 -0.974420 0.000000
vt 0.000000 0.000000 0.000000
vt -0.000000 -0.013090 0.000000
vt 0.342615 0.000000 0.000000
vt 0.343167 -0.019642 0.000000
vt 0.000000 -0.026180 0.000000
vt 0.344737 -0.039270 0.000000
vt -0.000000 -0.039270 0.000000
vt -0.000000 -0.157273 0.000000
vt -0.000000 0.221465 0.000000
vt -0.154317 -0.158806 0.000000
vt -0.308574 -0.163402 0.000000
vt -0.515685 0.221465 0.000000
vt -0.515685 -0.121149 0.000000
vt -0.462708 -0.171061 0.000000
vt -0.511578 -0.140996 0.000000
vt -0.499958 -0.157555 0.000000
vt -0.482728 -0.168155 0.000000
vn 0.030000 0.000000 -0.095394
vn 0.030000 0.000000 -0.095394
vn 0.010139 0.000000 -0.099485
vn 0.010139 0.000000 -0.099485
vn -0.010139 0.000000 -0.099485
vn -0.010139 0.000000 -0.099485
vn -0.030000 0.000000 -0.095394
vn -0.030000 0.000000 -0.095394
vn -0.100000 0.000000 0.000000
vn -0.100000 0.000000 0.000000
vn -0.100000 0.000000 0.000000
vn -0.100000 0.000000 0.000000
vn -0.100000 0.000000 0.000000
vn -0.100000 0.000000 0.000000
vn -0.066443 0.000000 -0.074735
vn -0.066443 0.000000 -0.074735
vn -0.091226 0.000000 -0.040962
vn -0.091226 0.000000 -0.040962
vn 0.100000 0.000000 -0.000000
vn 0.100000 0.000000 -0.000000
vn 0.091226 0.000000 -0.040962
vn 0.091226 0.000000 -0.040962
vn 0.066443 0.000000 -0.074735
vn 0.066443 0.000000 -0.074735
vn 0.100000 0.000000 0.000000
vn 0.100000 0.000000 0.000000
vn 0.100000 0.000000 0.000000
vn 0.100000 0.000000 0.000000
vn 0.003836 -0.099179 0.012197
vn -0.035594 -0.092752 0.011406
vn -0.008766 -0.095635 -0.027876
vn -0.045010 -0.082817 -0.033398
vn -0.019811 -0.075095 -0.062994
vn -0.033155 -0.061005 -0.071966
vn -0.027334 -0.041209 -0.086917
vn -0.059678 -0.035488 -0.071966
vn -0.081016 -0.048177 -0.033398
vn -0.092017 -0.038860 0.004779
vn -0.069341 -0.071515 0.008795
vn 0.003933 -0.099816 0.004625
vn 0.004210 -0.099823 0.004211
vn -0.019977 -0.097839 -0.005329
vn -0.024025 -0.094057 -0.024001
vn -0.054484 -0.081408 -0.020106
vn -0.048489 -0.072812 -0.048448
vn -0.079717 -0.051540 -0.031446
vn -0.064964 -0.039574 -0.064912
vn -0.085155 -0.039865 -0.034050
vn -0.092399 -0.000001 -0.038241
vn -0.092065 -0.038987 0.001995
vn -0.070743 -0.000003 -0.070679
vn -0.069341 -0.071959 0.003690
vn -0.035478 -0.093372 0.004787
vn 0.003836 -0.099795 0.005114
vn -0.092017 -0.039101 0.002004
vn -0.069341 -0.071960 0.003688
vn 0.003836 -0.099646 0.007480
vn -0.035594 -0.093328 0.004783
vn 0.003836 -0.099441 0.009841
vn -0.003836 -0.099179 0.012197
vn 0.008766 -0.095635 -0.027876
vn 0.035594 -0.092752 0.011406
vn 0.045010 -0.082817 -0.033398
vn 0.069341 -0.071515 0.008795
vn 0.081016 -0.048177 -0.033398
vn 0.092017 -0.038860 0.004779
vn 0.019811 -0.075095 -0.062994
vn 0.033155 -0.061005 -0.071966
vn 0.059678 -0.035488 -0.071966
vn 0.027334 -0.041209 -0.086917
vn 0.001296 -0.099179 0.012720
vn -0.002963 -0.095635 -0.029071
vn -0.001296 -0.099179 0.012720
vn 0.002963 -0.095635 -0.029071
vn 0.006695 -0.075095 -0.065695
vn 0.009238 -0.041209 -0.090645
vn -0.006695 -0.075095 -0.065695
vn -0.009238 -0.041209 -0.090645
vn -0.003836 -0.099441 0.009841
vn 0.035594 -0.093328 0.004783
vn 0.069341 -0.071960 0.003688
vn 0.092017 -0.039101 0.002004
vn -0.003836 -0.099795 0.005114
vn -0.003836 -0.099646 0.007480
vn 0.000000 -0.100000 -0.000000
vn 0.001404 -0.099980 0.001404
vn -0.001404 -0.099980 0.001404
vn 0.002808 -0.099921 0.002808
vn 0.004210 -0.099823 0.004210
vn 0.003933 -0.099816 0.004625
vn -0.002808 -0.099921 0.002808
vn -0.003933 -0.099816 0.004625
vn -0.004210 -0.099823 0.004210
vn 0.070679 -0.000003 -0.070743
vn 0.064912 -0.039574 -0.064964
vn 0.092393 -0.000011 -0.038257
vn 0.085150 -0.039864 -0.034063
vn 0.092065 -0.038987 0.001995
vn 0.079714 -0.051536 -0.031460
vn 0.069341 -0.071959 0.003690
vn 0.054487 -0.081403 -0.020118
vn 0.035478 -0.093372 0.004787
vn 0.019981 -0.097838 -0.005335
vn -0.003933 -0.099816 0.004625
vn -0.004211 -0.099823 0.004210
vn 0.024001 -0.094057 -0.024025
vn 0.048448 -0.072812 -0.048489
vn 0.070711 0.000000 -0.070711
vn 0.070711 0.000000 -0.070711
vn 0.086603 0.000000 -0.050000
vn 0.092393 0.000000 -0.038256
vn 0.096593 0.000000 -0.025882
vn 0.070711 0.000000 0.070711
vn 0.070711 0.000000 0.070711
vn 0.070711 0.000000 0.070711
vn 0.070711 0.000000 0.070711
vn 0.070711 0.000000 0.070711
vn 0.070711 0.000000 0.070711
vn 0.070711 0.000000 0.070711
vn 0.070711 0.000000 0.070711
vn 0.070711 0.000000 0.070711
vn 0.070711 0.000000 0.070711
vn -0.000000 0.100000 -0.000000
vn -0.000000 0.100000 -0.000000
vn -0.000000 0.100000 -0.000000
vn -0.000000 0.100000 -0.000000
vn -0.000000 0.100000 -0.000000
vn -0.000000 0.100000 -0.000000
vn -0.000000 0.100000 -0.000000
vn -0.000000 0.100000 -0.000000
vn -0.000000 0.100000 -0.000000
vn -0.000000 0.100000 -0.000000
vn -0.000000 0.100000 -0.000000
vn -0.000000 0.100000 -0.000000
vn -0.000000 0.100000 -0.000000
vn -0.000000 0.100000 -0.000000
vn -0.000000 0.100000 -0.000000
vn -0.000000 0.100000 -0.000000
vn -0.000000 0.100000 -0.000000
vn -0.000000 0.100000 -0.000000
vn -0.000000 0.100000 -0.000000
vn -0.070711 0.000000 -0.070711
vn -0.086603 0.000000 -0.050000
vn -0.070711 0.000000 -0.070711
vn -0.092393 0.000000 -0.038256
vn -0.096593 0.000000 -0.025882
vn -0.070711 0.000000 0.070711
vn -0.070711 0.000000 0.070711
vn -0.070711 0.000000 0.070711
vn -0.070711 0.000000 0.070711
vn -0.070711 0.000000 0.070711
vn -0.070711 0.000000 0.070711
vn -0.070711 0.000000 0.070711
vn -0.070711 0.000000 0.070711
vn -0.070711 0.000000 0.070711
vn -0.070711 0.000000 0.070711
usemtl Plastic_-_Glossy_(Black)
f 8/1/1 1/2/2 7/3/3
f 7/3/3 1/2/2 2/4/4
f 7/3/3 2/4/4 6/5/5
f 6/5/5 2/4/4 3/6/6
f 6/5/5 3/6/6 5/7/7
f 5/7/7 3/6/6 4/8/8
f 9/9/9 10/10/10 14/11/11
f 14/11/11 10/10/10 11/12/12
f 14/11/11 11/12/12 13/13/13
f 13/13/13 11/12/12 12/14/14
f 5/15/7 4/16/8 18/17/15
f 18/17/15 4/16/8 15/18/16
f 18/17/15 15/18/16 17/19/17
f 17/19/17 15/18/16 16/20/18
f 17/19/17 16/20/18 14/21/11
f 14/21/11 16/20/18 9/22/9
f 24/23/19 19/24/20 23/25/21
f 23/25/21 19/24/20 20/26/22
f 23/25/21 20/26/22 22/27/23
f 22/27/23 20/26/22 21/28/24
f 22/27/23 21/28/24 8/29/1
f 8/29/1 21/28/24 1/30/2
f 25/31/25 26/32/26 28/33/27
f 28/33/27 26/32/26 24/34/19
f 24/34/19 26/32/26 27/35/28
f 24/34/19 27/35/28 19/36/20
f 29/37/29 30/38/30 35/39/31
f 35/39/31 30/38/30 36/40/32
f 35/39/31 36/40/32 34/41/33
f 34/41/33 36/40/32 37/42/34
f 34/41/33 37/42/34 33/43/35
f 33/43/35 37/42/34 39/44/36
f 33/43/35 39/44/36 4/45/8
f 4/45/8 39/44/36 15/46/16
f 15/46/16 39/44/36 16/47/18
f 16/47/18 39/44/36 38/48/37
f 16/47/18 38/48/37 32/49/38
f 32/49/38 38/48/37 31/50/39
f 31/50/39 38/48/37 36/40/32
f 31/50/39 36/40/32 30/38/30
f 32/49/38 9/51/9 16/47/18
f 39/44/36 37/42/34 36/40/32
f 38/48/37 39/44/36 36/40/32
f 50/52/40 40/53/41 54/54/42
f 54/54/42 40/53/41 41/55/43
f 54/54/42 41/55/43 53/56/44
f 53/56/44 41/55/43 42/57/45
f 53/56/44 42/57/45 52/58/46
f 52/58/46 42/57/45 43/59/47
f 52/58/46 43/59/47 51/60/48
f 51/60/48 43/59/47 45/61/49
f 51/60/48 45/61/49 46/62/50
f 46/62/50 45/61/49 12/63/14
f 43/59/47 44/64/51 45/61/49
f 46/62/50 47/65/52 51/60/48
f 51/60/48 47/65/52 52/58/46
f 52/58/46 47/65/52 53/56/44
f 53/56/44 47/65/52 48/66/53
f 53/56/44 48/66/53 54/54/42
f 54/54/42 48/66/53 49/67/54
f 54/54/42 49/67/54 50/52/40
f 9/68/9 32/69/38 10/70/10
f 10/70/10 32/69/38 46/71/55
f 10/70/10 46/71/55 11/72/12
f 11/72/12 46/71/55 12/73/14
f 32/69/38 31/74/39 46/71/55
f 46/71/55 31/74/39 30/75/30
f 46/71/55 30/75/30 47/76/56
f 47/76/56 30/75/30 56/77/57
f 47/76/56 56/77/57 48/78/58
f 48/78/58 56/77/57 49/79/54
f 29/80/29 55/81/59 30/75/30
f 30/75/30 55/81/59 56/77/57
f 57/82/60 58/83/61 63/84/62
f 63/84/62 58/83/61 66/85/63
f 63/84/62 66/85/63 62/86/64
f 62/86/64 66/85/63 67/87/65
f 62/86/64 67/87/65 61/88/66
f 61/88/66 67/87/65 20/89/22
f 61/88/66 20/89/22 19/90/20
f 58/83/61 59/91/67 66/85/63
f 66/85/63 59/91/67 65/92/68
f 66/85/63 65/92/68 67/87/65
f 67/87/65 65/92/68 64/93/69
f 67/87/65 64/93/69 20/89/22
f 20/89/22 64/93/69 21/94/24
f 21/94/24 64/93/69 1/95/2
f 1/95/2 64/93/69 60/96/70
f 60/96/70 64/93/69 65/92/68
f 60/96/70 65/92/68 59/91/67
f 29/97/29 35/98/31 69/99/71
f 69/99/71 35/98/31 72/100/72
f 69/99/71 72/100/72 68/101/73
f 68/101/73 72/100/72 75/102/74
f 68/101/73 75/102/74 57/103/60
f 57/103/60 75/102/74 58/104/61
f 58/104/61 75/102/74 74/105/75
f 58/104/61 74/105/75 59/106/67
f 59/106/67 74/105/75 73/107/76
f 59/106/67 73/107/76 60/108/70
f 60/108/70 73/107/76 2/109/4
f 60/108/70 2/109/4 1/110/2
f 35/98/31 34/111/33 72/100/72
f 72/100/72 34/111/33 71/112/77
f 72/100/72 71/112/77 75/102/74
f 75/102/74 71/112/77 74/105/75
f 34/111/33 33/113/35 71/112/77
f 71/112/77 33/113/35 70/114/78
f 71/112/77 70/114/78 74/105/75
f 74/105/75 70/114/78 73/107/76
f 33/113/35 4/115/8 70/114/78
f 70/114/78 4/115/8 3/116/6
f 70/114/78 3/116/6 73/107/76
f 73/107/76 3/116/6 2/109/4
f 57/117/60 63/118/62 81/119/79
f 81/119/79 63/118/62 62/120/64
f 81/119/79 62/120/64 78/121/80
f 78/121/80 62/120/64 61/122/66
f 78/121/80 61/122/66 77/123/81
f 77/123/81 61/122/66 76/124/82
f 76/124/82 61/122/66 26/125/26
f 76/124/82 26/125/26 25/126/25
f 19/127/20 27/128/28 61/122/66
f 61/122/66 27/128/28 26/125/26
f 79/129/83 80/130/84 78/121/80
f 78/121/80 80/130/84 81/119/79
f 82/131/85 83/132/86 88/133/87
f 88/133/87 83/132/86 84/134/88
f 88/133/87 84/134/88 79/135/83
f 79/135/83 84/134/88 49/136/54
f 79/135/83 49/136/54 56/137/57
f 40/138/89 50/139/90 84/134/88
f 84/134/88 50/139/90 49/136/54
f 55/140/59 69/141/71 56/137/57
f 56/137/57 69/141/71 80/142/84
f 56/137/57 80/142/84 79/135/83
f 55/140/59 29/143/29 69/141/71
f 69/141/71 68/144/73 80/142/84
f 80/142/84 68/144/73 81/145/79
f 81/145/79 68/144/73 57/146/60
f 88/133/87 79/135/83 87/147/91
f 87/147/91 79/135/83 85/148/92
f 87/147/91 85/148/92 86/149/93
f 89/150/94 90/151/95 93/152/96
f 93/152/96 90/151/95 97/153/97
f 93/152/96 97/153/97 76/154/98
f 76/154/98 97/153/97 96/155/99
f 76/154/98 96/155/99 77/156/100
f 77/156/100 96/155/99 95/157/101
f 77/156/100 95/157/101 78/158/102
f 78/158/102 95/157/101 94/159/103
f 78/158/102 94/159/103 79/160/83
f 79/160/83 94/159/103 85/161/104
f 85/161/104 94/159/103 86/162/105
f 86/162/105 94/159/103 92/163/106
f 92/163/106 94/159/103 95/157/101
f 92/163/106 95/157/101 91/164/107
f 91/164/107 95/157/101 96/155/99
f 91/164/107 96/155/99 97/153/97
f 90/151/95 91/164/107 97/153/97
f 76/154/98 25/165/25 93/152/96
f 98/166/108 89/167/109 100/168/110
f 100/168/110 89/167/109 93/169/111
f 100/168/110 93/169/111 99/170/112
f 99/170/112 93/169/111 25/171/25
f 99/170/112 25/171/25 28/172/27
f 82/173/113 88/174/114 101/175/115
f 101/175/115 88/174/114 87/176/116
f 101/175/115 87/176/116 98/177/117
f 98/177/117 87/176/116 89/178/118
f 89/178/118 87/176/116 86/179/119
f 89/178/118 86/179/119 90/180/120
f 90/180/120 86/179/119 91/181/121
f 91/181/121 86/179/119 92/182/122
f 102/183/123 101/184/124 104/185/125
f 104/185/125 101/184/124 103/186/126
f 103/186/126 101/184/124 13/187/127
f 13/187/127 101/184/124 6/188/128
f 13/187/127 6/188/128 14/189/129
f 14/189/129 6/188/128 5/190/130
f 14/189/129 5/190/130 18/191/131
f 98/192/132 100/193/133 101/184/124
f 101/184/124 100/193/133 99/194/134
f 101/184/124 99/194/134 28/195/135
f 101/184/124 28/195/135 7/196/136
f 7/196/136 28/195/135 24/197/137
f 7/196/136 24/197/137 8/198/138
f 8/198/138 24/197/137 22/199/139
f 22/199/139 24/197/137 23/200/140
f 7/196/136 6/188/128 101/184/124
f 18/191/131 17/201/141 14/189/129
f 102/202/142 104/203/143 44/204/144
f 44/204/144 104/203/143 45/205/145
f 45/205/145 104/203/143 103/206/146
f 45/205/145 103/206/146 12/207/14
f 12/207/14 103/206/146 13/208/13
f 82/209/147 101/210/148 83/211/149
f 83/211/149 101/210/148 84/212/150
f 84/212/150 101/210/148 102/213/151
f 84/212/150 102/213/151 44/214/152
f 84/212/150 44/214/152 40/215/153
f 40/215/153 44/214/152 43/216/154
f 40/215/153 43/216/154 42/217/155
f 42/217/155 41/218/156 40/215/153
# 104 vertices
# 218 texture params
# 156 normals
# 204 facets

# 1 groups
