# WaveFront *.obj file (generated by Autodesk ATF)

mtllib _OneXPlayerMini v62_LED_OneXPlayerMini v62.mtl

g LED

v 96.429531 -10.100000 -27.057702
v 96.379531 -10.086603 -27.057702
v 96.342929 -10.050000 -27.057702
v 96.329531 -10.000000 -27.057702
v 96.396519 -10.000000 -27.307702
v 96.579531 -10.000000 -27.490715
v 96.829531 -10.000000 -27.557702
v 97.079531 -10.000000 -27.490715
v 97.262544 -10.000000 -27.307702
v 97.329531 -10.000000 -27.057702
v 97.316134 -10.050000 -27.057702
v 97.279531 -10.086603 -27.057702
v 97.229531 -10.100000 -27.057702
v 97.175942 -10.100000 -27.257702
v 97.029531 -10.100000 -27.404113
v 96.829531 -10.100000 -27.457702
v 96.629531 -10.100000 -27.404113
v 96.483121 -10.100000 -27.257702
v 96.408121 -10.050000 -27.301004
v 96.439820 -10.086603 -27.282702
v 96.586230 -10.050000 -27.479113
v 96.604531 -10.086603 -27.447414
v 96.829531 -10.050000 -27.544305
v 96.829531 -10.086603 -27.507702
v 97.072833 -10.050000 -27.479113
v 97.054531 -10.086603 -27.447414
v 97.250942 -10.050000 -27.301004
v 97.219243 -10.086603 -27.282702
v 97.329531 -10.000000 -26.057702
v 97.316134 -10.050000 -26.057702
v 97.279531 -10.086603 -26.057702
v 97.229531 -10.100000 -26.057702
v 96.329531 -10.000000 -26.057702
v 96.342929 -10.050000 -26.057702
v 96.379531 -10.086603 -26.057702
v 96.429531 -10.100000 -26.057702
v 96.483121 -10.100000 -25.857702
v 96.629531 -10.100000 -25.711292
v 96.829531 -10.100000 -25.657702
v 97.029531 -10.100000 -25.711292
v 97.175942 -10.100000 -25.857702
v 97.262544 -10.000000 -25.807702
v 97.079531 -10.000000 -25.624690
v 96.829531 -10.000000 -25.557702
v 96.579531 -10.000000 -25.624690
v 96.396519 -10.000000 -25.807702
v 96.439820 -10.086603 -25.832702
v 96.408121 -10.050000 -25.814401
v 96.604531 -10.086603 -25.667991
v 96.586230 -10.050000 -25.636292
v 96.829531 -10.086603 -25.607702
v 96.829531 -10.050000 -25.571100
v 97.054531 -10.086603 -25.667991
v 97.072833 -10.050000 -25.636292
v 97.219243 -10.086603 -25.832702
v 97.250942 -10.050000 -25.814401
v 97.329531 -8.000000 -27.057702
v 97.329531 -8.000000 -26.057702
v 96.329531 -8.000000 -27.057702
v 96.396519 -8.000000 -27.307702
v 96.579531 -8.000000 -27.490715
v 96.829531 -8.000000 -27.557702
v 97.079531 -8.000000 -27.490715
v 97.262544 -8.000000 -27.307702
v 96.329531 -8.000000 -26.057702
v 97.262544 -8.000000 -25.807702
v 97.079531 -8.000000 -25.624690
v 96.829531 -8.000000 -25.557702
v 96.579531 -8.000000 -25.624690
v 96.396519 -8.000000 -25.807702
vt -0.015708 -0.073939 0.000000
vt -0.010472 -0.073939 0.000000
vt -0.015708 -0.049293 0.000000
vt -0.010472 -0.049293 0.000000
vt -0.015708 -0.024646 0.000000
vt -0.010472 -0.024646 0.000000
vt -0.015708 0.000000 0.000000
vt -0.010472 0.000000 0.000000
vt -0.015708 0.024646 0.000000
vt -0.010472 0.024646 0.000000
vt -0.015708 0.049293 0.000000
vt -0.010472 0.049293 0.000000
vt -0.015708 0.073939 0.000000
vt -0.010472 0.073939 0.000000
vt -0.005236 0.049293 0.000000
vt -0.005236 0.073939 0.000000
vt -0.000000 0.049293 0.000000
vt 0.000000 0.073939 0.000000
vt -0.005236 -0.073939 0.000000
vt -0.005236 -0.049293 0.000000
vt -0.005236 -0.024646 0.000000
vt -0.005236 0.000000 0.000000
vt -0.005236 0.024646 0.000000
vt -0.000000 -0.073939 0.000000
vt -0.000000 -0.049293 0.000000
vt -0.000000 -0.024646 0.000000
vt -0.000000 0.000000 0.000000
vt -0.000000 0.024646 0.000000
vt 0.025000 0.007854 0.000000
vt -0.075000 0.007854 0.000000
vt 0.025000 0.002618 0.000000
vt -0.075000 0.002618 0.000000
vt 0.025000 -0.002618 0.000000
vt -0.075000 -0.002618 0.000000
vt 0.025000 -0.007854 0.000000
vt -0.075000 -0.007854 0.000000
vt -0.000000 -0.073939 0.000000
vt -0.005236 -0.073939 0.000000
vt -0.000000 -0.098585 0.000000
vt -0.005236 -0.098585 0.000000
vt -0.000000 -0.123232 0.000000
vt -0.005236 -0.123232 0.000000
vt 0.000000 -0.147878 0.000000
vt -0.005236 -0.147878 0.000000
vt 0.000000 -0.172524 0.000000
vt -0.005236 -0.172524 0.000000
vt 0.000000 -0.197171 0.000000
vt -0.005236 -0.197171 0.000000
vt 0.000000 -0.221817 0.000000
vt -0.005236 -0.221817 0.000000
vt -0.010472 -0.197171 0.000000
vt -0.010472 -0.221817 0.000000
vt -0.015708 -0.197171 0.000000
vt -0.015708 -0.221817 0.000000
vt -0.010472 -0.073939 0.000000
vt -0.010472 -0.098585 0.000000
vt -0.010472 -0.123232 0.000000
vt -0.010472 -0.147878 0.000000
vt -0.010472 -0.172524 0.000000
vt -0.015708 -0.073939 0.000000
vt -0.015708 -0.098585 0.000000
vt -0.015708 -0.123232 0.000000
vt -0.015708 -0.147878 0.000000
vt -0.015708 -0.172524 0.000000
vt 0.025000 0.007854 0.000000
vt -0.075000 0.007854 0.000000
vt 0.025000 0.002618 0.000000
vt -0.075000 0.002618 0.000000
vt 0.025000 -0.002618 0.000000
vt -0.075000 -0.002618 0.000000
vt 0.025000 -0.007854 0.000000
vt -0.075000 -0.007854 0.000000
vt 0.100000 0.200000 0.000000
vt 0.000000 0.200000 0.000000
vt 0.100000 0.000000 0.000000
vt 0.000000 0.000000 0.000000
vt -0.000000 0.117810 0.000000
vt -0.200000 0.117810 0.000000
vt -0.000000 0.091630 0.000000
vt -0.200000 0.091630 0.000000
vt -0.000000 0.065450 0.000000
vt -0.200000 0.065450 0.000000
vt -0.000000 0.039270 0.000000
vt -0.200000 0.039270 0.000000
vt 0.000000 0.013090 0.000000
vt -0.200000 0.013090 0.000000
vt -0.000000 -0.013090 0.000000
vt -0.200000 -0.013090 0.000000
vt -0.000000 -0.039270 0.000000
vt -0.200000 -0.039270 0.000000
vt 0.070000 -0.034641 0.000000
vt 0.084641 -0.020000 0.000000
vt 0.050000 -0.040000 0.000000
vt -0.084641 -0.020000 0.000000
vt -0.050000 -0.040000 0.000000
vt -0.070000 -0.034641 0.000000
vt -0.090000 -0.000000 0.000000
vt 0.090000 0.000000 0.000000
vt -0.084641 0.020000 0.000000
vt 0.084641 0.020000 0.000000
vt -0.050000 0.040000 0.000000
vt 0.050000 0.040000 0.000000
vt 0.070000 0.034641 0.000000
vt -0.070000 0.034641 0.000000
vt 0.100000 0.200000 0.000000
vt 0.000000 0.200000 0.000000
vt 0.100000 0.000000 0.000000
vt -0.000000 0.000000 0.000000
vt -0.000000 0.117810 0.000000
vt -0.200000 0.117810 0.000000
vt -0.000000 0.091630 0.000000
vt -0.200000 0.091630 0.000000
vt -0.000000 0.065450 0.000000
vt -0.200000 0.065450 0.000000
vt -0.000000 0.039270 0.000000
vt -0.200000 0.039270 0.000000
vt -0.000000 0.013090 0.000000
vt -0.200000 0.013090 0.000000
vt -0.000000 -0.013090 0.000000
vt -0.200000 -0.013090 0.000000
vt -0.000000 -0.039270 0.000000
vt -0.200000 -0.039270 0.000000
vt -0.075000 0.043301 0.000000
vt -0.093301 0.025000 0.000000
vt -0.050000 0.050000 0.000000
vt 0.093301 0.025000 0.000000
vt 0.050000 0.050000 0.000000
vt 0.075000 0.043301 0.000000
vt 0.100000 -0.000000 0.000000
vt -0.100000 0.000000 0.000000
vt 0.093301 -0.025000 0.000000
vt -0.093301 -0.025000 0.000000
vt 0.050000 -0.050000 0.000000
vt -0.050000 -0.050000 0.000000
vt -0.075000 -0.043301 0.000000
vt 0.075000 -0.043301 0.000000
vn 0.000000 -0.100000 0.000000
vn -0.050000 -0.086603 -0.000000
vn -0.000000 -0.100000 -0.000000
vn -0.043301 -0.086603 -0.025000
vn 0.000000 -0.100000 0.000000
vn -0.025000 -0.086603 -0.043301
vn 0.000000 -0.100000 -0.000000
vn 0.000000 -0.086603 -0.050000
vn -0.000000 -0.100000 0.000000
vn 0.025000 -0.086603 -0.043301
vn 0.000000 -0.100000 -0.000000
vn 0.043301 -0.086603 -0.025000
vn -0.000000 -0.100000 0.000000
vn 0.050000 -0.086603 -0.000000
vn 0.075000 -0.050000 -0.043301
vn 0.086603 -0.050000 -0.000000
vn 0.086603 0.000000 -0.050000
vn 0.100000 0.000000 -0.000000
vn -0.086603 -0.050000 -0.000000
vn -0.075000 -0.050000 -0.043301
vn -0.043301 -0.050000 -0.075000
vn 0.000000 -0.050000 -0.086603
vn 0.043301 -0.050000 -0.075000
vn -0.100000 0.000000 -0.000000
vn -0.086603 0.000000 -0.050000
vn -0.050000 0.000000 -0.086603
vn 0.000000 0.000000 -0.100000
vn 0.050000 0.000000 -0.086603
vn 0.100000 0.000000 0.000000
vn 0.086603 -0.050000 0.000000
vn 0.050000 -0.086603 0.000000
vn 0.000000 -0.100000 0.000000
vn -0.100000 0.000000 -0.000000
vn -0.086603 -0.050000 -0.000000
vn -0.086603 0.000000 0.050000
vn -0.075000 -0.050000 0.043301
vn -0.050000 0.000000 0.086603
vn -0.043301 -0.050000 0.075000
vn -0.000000 0.000000 0.100000
vn -0.000000 -0.050000 0.086603
vn 0.050000 0.000000 0.086603
vn 0.043301 -0.050000 0.075000
vn 0.086603 0.000000 0.050000
vn 0.075000 -0.050000 0.043301
vn 0.086603 -0.050000 0.000000
vn 0.043301 -0.086603 0.025000
vn 0.050000 -0.086603 0.000000
vn 0.000000 -0.100000 0.000000
vn 0.000000 -0.100000 0.000000
vn -0.050000 -0.086603 -0.000000
vn -0.043301 -0.086603 0.025000
vn -0.025000 -0.086603 0.043301
vn -0.000000 -0.086603 0.050000
vn 0.025000 -0.086603 0.043301
vn 0.000000 -0.100000 0.000000
vn -0.000000 -0.100000 0.000000
vn 0.000000 -0.100000 -0.000000
vn -0.000000 -0.100000 0.000000
vn 0.000000 -0.100000 0.000000
vn -0.086603 -0.050000 0.000000
vn -0.050000 -0.086603 0.000000
vn -0.000000 -0.100000 0.000000
vn 0.100000 0.000000 0.000000
vn 0.100000 0.000000 0.000000
vn 0.086603 0.000000 -0.050000
vn 0.050000 0.000000 -0.086603
vn -0.000000 0.000000 -0.100000
vn -0.050000 0.000000 -0.086603
vn -0.086603 0.000000 -0.050000
vn -0.100000 0.000000 0.000000
vn -0.100000 0.000000 0.000000
vn -0.086603 0.000000 0.050000
vn -0.050000 0.000000 0.086603
vn 0.000000 0.000000 0.100000
vn 0.050000 0.000000 0.086603
vn 0.086603 0.000000 0.050000
vn 0.000000 0.100000 0.000000
vn 0.000000 0.100000 0.000000
vn 0.000000 0.100000 0.000000
vn 0.000000 0.100000 0.000000
vn 0.000000 0.100000 0.000000
vn 0.000000 0.100000 0.000000
vn 0.000000 0.100000 0.000000
vn 0.000000 0.100000 0.000000
vn 0.000000 0.100000 0.000000
vn 0.000000 0.100000 0.000000
vn 0.000000 0.100000 0.000000
vn 0.000000 0.100000 0.000000
vn 0.000000 0.100000 0.000000
vn 0.000000 0.100000 0.000000
usemtl Glass_-_Frosted_Light
f 1/1/1 2/2/2 18/3/3
f 18/3/3 2/2/2 20/4/4
f 18/3/3 20/4/4 17/5/5
f 17/5/5 20/4/4 22/6/6
f 17/5/5 22/6/6 16/7/7
f 16/7/7 22/6/6 24/8/8
f 16/7/7 24/8/8 15/9/9
f 15/9/9 24/8/8 26/10/10
f 15/9/9 26/10/10 14/11/11
f 14/11/11 26/10/10 28/12/12
f 14/11/11 28/12/12 13/13/13
f 13/13/13 28/12/12 12/14/14
f 12/14/14 28/12/12 27/15/15
f 12/14/14 27/15/15 11/16/16
f 11/16/16 27/15/15 9/17/17
f 11/16/16 9/17/17 10/18/18
f 2/2/2 3/19/19 20/4/4
f 20/4/4 3/19/19 19/20/20
f 20/4/4 19/20/20 22/6/6
f 22/6/6 19/20/20 21/21/21
f 22/6/6 21/21/21 24/8/8
f 24/8/8 21/21/21 23/22/22
f 24/8/8 23/22/22 26/10/10
f 26/10/10 23/22/22 25/23/23
f 26/10/10 25/23/23 28/12/12
f 28/12/12 25/23/23 27/15/15
f 3/19/19 4/24/24 19/20/20
f 19/20/20 4/24/24 5/25/25
f 19/20/20 5/25/25 21/21/21
f 21/21/21 5/25/25 6/26/26
f 21/21/21 6/26/26 23/22/22
f 23/22/22 6/26/26 7/27/27
f 23/22/22 7/27/27 25/23/23
f 25/23/23 7/27/27 8/28/28
f 25/23/23 8/28/28 27/15/15
f 27/15/15 8/28/28 9/17/17
f 10/29/18 29/30/29 11/31/16
f 11/31/16 29/30/29 30/32/30
f 11/31/16 30/32/30 12/33/14
f 12/33/14 30/32/30 31/34/31
f 12/33/14 31/34/31 13/35/13
f 13/35/13 31/34/31 32/36/32
f 33/37/33 34/38/34 46/39/35
f 46/39/35 34/38/34 48/40/36
f 46/39/35 48/40/36 45/41/37
f 45/41/37 48/40/36 50/42/38
f 45/41/37 50/42/38 44/43/39
f 44/43/39 50/42/38 52/44/40
f 44/43/39 52/44/40 43/45/41
f 43/45/41 52/44/40 54/46/42
f 43/45/41 54/46/42 42/47/43
f 42/47/43 54/46/42 56/48/44
f 42/47/43 56/48/44 29/49/29
f 29/49/29 56/48/44 30/50/45
f 30/50/45 56/48/44 55/51/46
f 30/50/45 55/51/46 31/52/47
f 31/52/47 55/51/46 41/53/48
f 31/52/47 41/53/48 32/54/49
f 34/38/34 35/55/50 48/40/36
f 48/40/36 35/55/50 47/56/51
f 48/40/36 47/56/51 50/42/38
f 50/42/38 47/56/51 49/57/52
f 50/42/38 49/57/52 52/44/40
f 52/44/40 49/57/52 51/58/53
f 52/44/40 51/58/53 54/46/42
f 54/46/42 51/58/53 53/59/54
f 54/46/42 53/59/54 56/48/44
f 56/48/44 53/59/54 55/51/46
f 35/55/50 36/60/55 47/56/51
f 47/56/51 36/60/55 37/61/56
f 47/56/51 37/61/56 49/57/52
f 49/57/52 37/61/56 38/62/57
f 49/57/52 38/62/57 51/58/53
f 51/58/53 38/62/57 39/63/58
f 51/58/53 39/63/58 53/59/54
f 53/59/54 39/63/58 40/64/59
f 53/59/54 40/64/59 55/51/46
f 55/51/46 40/64/59 41/53/48
f 33/65/33 4/66/24 34/67/60
f 34/67/60 4/66/24 3/68/19
f 34/67/60 3/68/19 35/69/61
f 35/69/61 3/68/19 2/70/2
f 35/69/61 2/70/2 36/71/62
f 36/71/62 2/70/2 1/72/1
f 29/73/29 10/74/18 58/75/63
f 58/75/63 10/74/18 57/76/64
f 57/77/64 10/78/18 64/79/65
f 64/79/65 10/78/18 9/80/17
f 64/79/65 9/80/17 63/81/66
f 63/81/66 9/80/17 8/82/28
f 63/81/66 8/82/28 62/83/67
f 62/83/67 8/82/28 7/84/27
f 62/83/67 7/84/27 61/85/68
f 61/85/68 7/84/27 6/86/26
f 61/85/68 6/86/26 60/87/69
f 60/87/69 6/86/26 5/88/25
f 60/87/69 5/88/25 59/89/70
f 59/89/70 5/88/25 4/90/24
f 18/91/3 17/92/5 1/93/1
f 1/93/1 17/92/5 38/94/57
f 1/93/1 38/94/57 36/95/55
f 36/95/55 38/94/57 37/96/56
f 38/94/57 17/92/5 39/97/58
f 39/97/58 17/92/5 16/98/7
f 39/97/58 16/98/7 40/99/59
f 40/99/59 16/98/7 15/100/9
f 40/99/59 15/100/9 32/101/32
f 32/101/32 15/100/9 13/102/13
f 13/102/13 15/100/9 14/103/11
f 32/101/32 41/104/48 40/99/59
f 4/105/24 33/106/33 59/107/70
f 59/107/70 33/106/33 65/108/71
f 65/109/71 33/110/33 70/111/72
f 70/111/72 33/110/33 46/112/35
f 70/111/72 46/112/35 69/113/73
f 69/113/73 46/112/35 45/114/37
f 69/113/73 45/114/37 68/115/74
f 68/115/74 45/114/37 44/116/39
f 68/115/74 44/116/39 67/117/75
f 67/117/75 44/116/39 43/118/41
f 67/117/75 43/118/41 66/119/76
f 66/119/76 43/118/41 42/120/43
f 66/119/76 42/120/43 58/121/63
f 58/121/63 42/120/43 29/122/29
f 64/123/77 63/124/78 57/125/79
f 57/125/79 63/124/78 67/126/80
f 57/125/79 67/126/80 58/127/81
f 58/127/81 67/126/80 66/128/82
f 67/126/80 63/124/78 68/129/83
f 68/129/83 63/124/78 62/130/84
f 68/129/83 62/130/84 69/131/85
f 69/131/85 62/130/84 61/132/86
f 69/131/85 61/132/86 65/133/87
f 65/133/87 61/132/86 59/134/88
f 59/134/88 61/132/86 60/135/89
f 65/133/87 70/136/90 69/131/85
# 70 vertices
# 136 texture params
# 90 normals
# 136 facets

# 1 groups
