# WaveFront *.obj file (generated by Autodesk ATF)

mtllib _OneXPlayerMini v85_MotorRight_OneXPlayerMini v85.mtl

g MotorRight

v 129.025963 -7.526640 -27.197674
v 128.633323 -7.527478 -30.177659
v 127.767383 -7.371635 -34.080794
v 127.185781 -7.303304 -35.826463
v 126.118868 -7.313311 -38.186372
v 124.875188 -7.458941 -40.175273
v 123.383938 -7.694557 -41.960192
v 121.656787 -7.967468 -43.543965
v 119.751883 -8.253878 -44.904727
v 116.918382 -8.651589 -46.432573
v 114.058479 -9.026209 -47.562912
v 110.739714 -9.411291 -48.525909
v 107.650678 -9.689389 -49.213734
v 101.280350 -9.976401 -50.341392
v 98.485890 -10.000000 -50.778405
v 98.485890 -5.000000 -50.778405
v 100.790903 -5.000000 -50.420728
v 101.280292 -5.000000 -50.341022
v 105.215042 -5.000000 -49.673965
v 108.575657 -5.000000 -49.022001
v 111.483146 -5.000000 -48.335026
v 114.058520 -5.000000 -47.562939
v 117.006700 -5.000000 -46.391846
v 119.751989 -5.000000 -44.904633
v 121.667567 -5.000000 -43.535397
v 123.383982 -5.000000 -41.960204
v 124.970608 -5.000000 -40.042548
v 126.118832 -5.000000 -38.186354
v 127.185778 -5.000000 -35.826462
v 127.766836 -5.000000 -34.080631
v 128.226725 -5.000000 -32.289576
v 128.633209 -5.000000 -30.177644
v 129.025963 -5.000000 -27.197674
v 129.068546 -7.516010 -26.772457
v 129.070520 -5.000000 -26.752011
v 129.070520 -7.515439 -26.752011
v 89.127334 -10.000000 -51.500000
v 86.205746 -10.000000 -51.500000
v 86.205746 -5.000000 -51.500000
v 89.127334 -5.000000 -51.500000
v 114.912301 -10.000000 -34.926263
v 118.312426 -9.917378 -32.963199
v 121.773233 -9.626819 -30.965102
v 123.433579 -9.383350 -30.006500
v 125.232649 -9.007096 -28.967807
v 127.179186 -8.409331 -27.843973
v 129.047135 -7.529371 -26.765512
v 95.697972 -10.000000 -51.133792
v 92.514122 -10.000000 -51.403149
v 90.248914 -10.000000 -51.489717
v 90.248914 -5.000000 -51.489717
v 92.514122 -5.000000 -51.403149
v 95.697972 -5.000000 -51.133792
v 101.228722 -10.000000 -49.319048
v 103.588595 -10.000000 -47.743389
v 107.986908 -10.000000 -44.215874
v 110.115191 -10.000000 -42.182298
v 112.011833 -10.000000 -39.929157
v 113.589743 -10.000000 -37.485267
v 127.563197 -8.242641 -27.970549
v 126.615068 -8.242641 -32.296702
v 112.744311 -9.899832 -42.734228
v 109.171102 -9.899832 -46.047441
v 106.510856 -9.899832 -48.149686
v 111.638802 -9.578730 -46.847776
v 117.586685 -9.021973 -44.304728
v 115.212011 -9.578730 -43.534563
v 121.281688 -8.242641 -43.110714
v 119.161803 -9.021973 -42.423183
v 116.787129 -9.578730 -41.653019
v 114.319430 -9.899832 -40.852684
v 122.632847 -8.242641 -41.093292
v 120.512962 -9.021973 -40.405762
v 118.138288 -9.578730 -39.635597
v 115.670589 -9.899832 -38.835263
v 124.817594 -8.242641 -36.822542
v 122.697709 -9.021973 -36.135012
v 120.323035 -9.578730 -35.364847
v 117.855335 -9.899832 -34.564512
v 125.766727 -8.242641 -34.614093
v 123.646842 -9.021973 -33.926563
v 121.272168 -9.578730 -33.156398
v 124.495182 -9.021973 -31.609171
v 122.120508 -9.578730 -30.839007
v 124.886878 -9.021973 -30.260247
v 127.006764 -8.242641 -30.947777
v 127.327495 -8.242641 -29.513991
vt -4.275319 0.500000 0.000000
vt -4.275319 0.247336 0.000000
vt -3.997614 0.500000 0.000000
vt -3.997614 0.247252 0.000000
vt -3.781096 0.500000 0.000000
vt -3.564577 0.262836 0.000000
vt -3.564578 0.500000 0.000000
vt -3.330764 0.269670 0.000000
vt -3.330764 0.500000 0.000000
vt -2.994288 0.500000 0.000000
vt -2.994288 0.268669 0.000000
vt -2.726842 0.500000 0.000000
vt -2.708140 0.254106 0.000000
vt -2.459395 0.500000 0.000000
vt -2.459393 0.230544 0.000000
vt -2.225938 0.500000 0.000000
vt -2.224564 0.203253 0.000000
vt -1.992480 0.500000 0.000000
vt -1.992467 0.174612 0.000000
vt -1.687183 0.500000 0.000000
vt -1.677749 0.134841 0.000000
vt -1.381886 0.500000 0.000000
vt -1.381883 0.097379 0.000000
vt -1.135435 0.500000 0.000000
vt -1.069226 0.058871 0.000000
vt -0.888985 0.500000 0.000000
vt -0.817320 0.031061 0.000000
vt -0.642534 0.500000 0.000000
vt -0.396084 0.002360 0.000000
vt -0.396084 0.500000 0.000000
vt -0.370027 0.500000 0.000000
vt -0.274352 0.000000 0.000000
vt -0.274352 0.500000 0.000000
vt 3.543647 0.247336 0.000000
vt 3.543647 0.500000 0.000000
vt 3.500895 0.248399 0.000000
vt 3.498859 0.500000 0.000000
vt 3.498859 0.248456 0.000000
vt -0.292159 0.000000 0.000000
vt -0.000000 0.000000 0.000000
vt -0.292159 0.500000 0.000000
vt -0.000000 0.500000 0.000000
vt -1.242238 0.008262 0.000000
vt -0.842618 0.037318 0.000000
vt -1.634850 0.000000 0.000000
vt -0.650898 0.061665 0.000000
vt -0.443159 0.099290 0.000000
vt -0.218392 0.159067 0.000000
vt -4.949598 0.500000 0.000000
vt -4.949598 0.000000 0.000000
vt -0.002700 0.247063 0.000000
vt 0.000000 0.248456 0.000000
vt 0.000000 0.500000 0.000000
vt -0.968203 0.000000 0.000000
vt -0.647595 0.000000 0.000000
vt -0.968203 0.500000 0.000000
vt -0.647595 0.500000 0.000000
vt -0.326987 0.000000 0.000000
vt -0.326987 0.500000 0.000000
vt -0.107958 0.000000 0.000000
vt -0.107958 0.500000 0.000000
vt -0.000000 0.000000 0.000000
vt -0.000000 0.500000 0.000000
vt -9.550758 -4.917073 0.000000
vt -9.320257 -4.952841 0.000000
vt -12.334989 -2.892764 0.000000
vt -9.041465 -4.988379 0.000000
vt -8.723080 -5.015315 0.000000
vt -8.496559 -5.023972 0.000000
vt -8.384401 -5.025000 0.000000
vt -8.092242 -5.025000 0.000000
vt -12.374264 -2.594767 0.000000
vt -12.378720 -2.550201 0.000000
vt -12.294340 -3.103958 0.000000
vt -9.599697 -4.909102 0.000000
vt -12.248351 -3.283063 0.000000
vt -9.993172 -4.842397 0.000000
vt -12.190245 -3.457646 0.000000
vt -10.329233 -4.777200 0.000000
vt -12.083551 -3.693635 0.000000
vt -11.968728 -3.879255 0.000000
vt -11.810066 -4.071020 0.000000
vt -10.877520 -4.631294 0.000000
vt -10.619982 -4.708503 0.000000
vt -11.638424 -4.228540 0.000000
vt -11.446867 -4.365463 0.000000
vt -11.172338 -4.514185 0.000000
vt -9.024891 5.023972 0.000000
vt -10.358859 4.649339 0.000000
vt -8.912733 5.025000 0.000000
vt -10.798691 4.296587 0.000000
vt -8.620575 5.025000 0.000000
vt -11.011519 4.093230 0.000000
vt -11.201183 3.867916 0.000000
vt -9.251412 5.015315 0.000000
vt -10.122872 4.806905 0.000000
vt -9.569797 4.988379 0.000000
vt -9.848589 4.952841 0.000000
vt -11.358974 3.623527 0.000000
vt -11.491230 3.367626 0.000000
vt -2.401749 10.786747 0.000000
vt -2.401856 10.784670 0.000000
vt -2.399235 10.786747 0.000000
vt -1.982871 3.495239 0.000000
vt -2.104829 3.327799 0.000000
vt -1.982871 3.202086 0.000000
vt -2.230730 2.841771 0.000000
vt -1.982871 2.908934 0.000000
vt -2.230730 2.486549 0.000000
vt -1.982871 2.322629 0.000000
vt -2.230730 1.998120 0.000000
vt -1.982871 2.029476 0.000000
vt -1.982871 1.736324 0.000000
vt -2.230730 1.753905 0.000000
vt -2.230730 1.509691 0.000000
vt -2.478588 1.753905 0.000000
vt -2.478588 1.509691 0.000000
vt -2.726447 1.753905 0.000000
vt -2.726447 1.509691 0.000000
vt -2.974306 1.753905 0.000000
vt -2.974306 1.509691 0.000000
vt -3.120509 1.571288 0.000000
vt -3.179427 1.347829 0.000000
vt -2.410832 2.927985 0.000000
vt -2.564998 2.719848 0.000000
vt -2.478588 2.486549 0.000000
vt -2.724796 2.478525 0.000000
vt -2.478588 1.998120 0.000000
vt -2.726447 1.998120 0.000000
vt -2.852528 2.247709 0.000000
vt -2.970869 1.987521 0.000000
vt -3.049008 1.785316 0.000000
vt -2.974306 1.021261 0.000000
vt -3.214926 1.113359 0.000000
vt -3.217335 0.849590 0.000000
vt -2.974306 0.777047 0.000000
vt -3.200846 0.664347 0.000000
vt -2.974306 0.532832 0.000000
vt -3.162475 0.286826 0.000000
vt -2.974306 0.399624 0.000000
vt -2.974306 0.266416 0.000000
vt -2.731815 0.277720 0.000000
vt -2.926216 0.132393 0.000000
vt -2.974306 0.132559 0.000000
vt -3.162022 0.000000 0.000000
vt -3.162699 0.033878 0.000000
vt -3.165334 0.000000 0.000000
vt -2.726447 0.399624 0.000000
vt -2.578152 0.418945 0.000000
vt -2.726447 0.532832 0.000000
vt -2.478588 0.532832 0.000000
vt -2.726447 0.777047 0.000000
vt -2.478588 0.777047 0.000000
vt -2.726447 1.021261 0.000000
vt -2.478588 1.021261 0.000000
vt -2.450604 0.554827 0.000000
vt -2.209291 0.851002 0.000000
vt -2.230730 1.021261 0.000000
vt -1.982871 1.150018 0.000000
vt -1.982871 1.443171 0.000000
vn 0.099467 0.000000 -0.010308
vn 0.099467 0.000000 -0.010308
vn 0.098683 0.000000 -0.016177
vn 0.098683 0.000000 -0.016177
vn 0.097577 0.000000 -0.021881
vn 0.095994 0.000000 -0.028019
vn 0.095994 0.000000 -0.028019
vn 0.093555 0.000000 -0.035318
vn 0.093555 0.000000 -0.035318
vn 0.088122 0.000000 -0.047270
vn 0.088122 0.000000 -0.047270
vn 0.081521 0.000000 -0.057917
vn 0.080954 0.000000 -0.058707
vn 0.072250 0.000000 -0.069137
vn 0.072250 0.000000 -0.069137
vn 0.062848 0.000000 -0.077782
vn 0.062792 0.000000 -0.077827
vn 0.053460 0.000000 -0.084510
vn 0.053460 0.000000 -0.084511
vn 0.041990 0.000000 -0.090757
vn 0.041659 0.000000 -0.090909
vn 0.032137 0.000000 -0.094695
vn 0.032137 0.000000 -0.094695
vn 0.025617 0.000000 -0.096663
vn 0.024137 0.000000 -0.097043
vn 0.020768 0.000000 -0.097820
vn 0.019696 0.000000 -0.098041
vn 0.017668 0.000000 -0.098427
vn 0.016010 0.000000 -0.098710
vn 0.016010 0.000000 -0.098710
vn 0.016078 0.000000 -0.098699
vn 0.014295 0.000000 -0.098973
vn 0.014295 0.000000 -0.098973
vn 0.099467 0.000000 -0.010308
vn 0.099467 0.000000 -0.010308
vn 0.099536 0.000000 -0.009627
vn 0.099539 0.000000 -0.009595
vn 0.099539 0.000000 -0.009595
vn 0.000000 0.000000 -0.100000
vn 0.000000 0.000000 -0.100000
vn 0.000000 0.000000 -0.100000
vn 0.000000 0.000000 -0.100000
vn -0.050000 0.000000 0.086603
vn -0.050000 0.000000 0.086603
vn -0.050000 0.000000 0.086603
vn -0.050000 0.000000 0.086603
vn -0.050000 0.000000 0.086603
vn -0.050000 0.000000 0.086603
vn -0.050000 0.000000 0.086603
vn -0.050000 0.000000 0.086603
vn -0.050000 0.000000 0.086603
vn -0.050000 0.000000 0.086603
vn -0.050000 0.000000 0.086603
vn 0.010841 0.000000 -0.099411
vn 0.010841 0.000000 -0.099411
vn 0.005807 0.000000 -0.099831
vn 0.005807 0.000000 -0.099831
vn 0.001852 0.000000 -0.099983
vn 0.001852 0.000000 -0.099983
vn -0.000000 0.100000 -0.000000
vn -0.000000 0.100000 -0.000000
vn -0.000000 0.100000 -0.000000
vn -0.000000 0.100000 -0.000000
vn -0.000000 0.100000 -0.000000
vn -0.000000 0.100000 -0.000000
vn -0.000000 0.100000 -0.000000
vn -0.000000 0.100000 -0.000000
vn -0.000000 0.100000 -0.000000
vn -0.000000 0.100000 -0.000000
vn -0.000000 0.100000 -0.000000
vn -0.000000 0.100000 -0.000000
vn -0.000000 0.100000 -0.000000
vn -0.000000 0.100000 -0.000000
vn -0.000000 0.100000 -0.000000
vn -0.000000 0.100000 -0.000000
vn -0.000000 0.100000 -0.000000
vn -0.000000 0.100000 -0.000000
vn -0.000000 0.100000 -0.000000
vn -0.000000 0.100000 -0.000000
vn -0.000000 0.100000 -0.000000
vn -0.000000 0.100000 -0.000000
vn -0.000000 0.100000 -0.000000
vn -0.000000 0.100000 -0.000000
vn 0.000000 -0.100000 0.000000
vn 0.000000 -0.100000 0.000000
vn 0.000000 -0.100000 0.000000
vn 0.000000 -0.100000 0.000000
vn 0.000000 -0.100000 0.000000
vn 0.000000 -0.100000 0.000000
vn 0.000000 -0.100000 0.000000
vn 0.000000 -0.100000 0.000000
vn 0.000000 -0.100000 0.000000
vn 0.000000 -0.100000 0.000000
vn 0.000000 -0.100000 0.000000
vn 0.000000 -0.100000 0.000000
vn 0.000000 -0.100000 0.000000
vn 0.052402 -0.085128 -0.002686
vn 0.052414 -0.085121 -0.002675
vn 0.052182 -0.085264 -0.002674
vn 0.002512 -0.099862 -0.004623
vn 0.005814 -0.099528 -0.007773
vn 0.005996 -0.099559 -0.007222
vn 0.006411 -0.099616 -0.005955
vn 0.006714 -0.099648 -0.005029
vn 0.006987 -0.099667 -0.004194
vn 0.014186 -0.098417 -0.010627
vn 0.014773 -0.098505 -0.008867
vn 0.022817 -0.095850 -0.017091
vn 0.023794 -0.096072 -0.014281
vn 0.033142 -0.091023 -0.024826
vn 0.034651 -0.091470 -0.020798
vn 0.041766 -0.086931 -0.026433
vn 0.046514 -0.085005 -0.024710
vn 0.010283 -0.098441 -0.014272
vn 0.014849 -0.097036 -0.019066
vn 0.012629 -0.098026 -0.015212
vn 0.020147 -0.094911 -0.024207
vn 0.013532 -0.098280 -0.012568
vn 0.021717 -0.095507 -0.020170
vn 0.025243 -0.092738 -0.027613
vn 0.031345 -0.090466 -0.028868
vn 0.036426 -0.088790 -0.028099
vn 0.036218 -0.091762 -0.016373
vn 0.049612 -0.083652 -0.023260
vn 0.050506 -0.083648 -0.021263
vn 0.036733 -0.091815 -0.014858
vn 0.050210 -0.084444 -0.018659
vn 0.037647 -0.091851 -0.012091
vn 0.050226 -0.085888 -0.010035
vn 0.038341 -0.091824 -0.009913
vn 0.039119 -0.091734 -0.007390
vn 0.027014 -0.096138 -0.005266
vn 0.037283 -0.092686 -0.004383
vn 0.039917 -0.091567 -0.004696
vn 0.052182 -0.085264 -0.002674
vn 0.052017 -0.085334 -0.003514
vn 0.052402 -0.085128 -0.002686
vn 0.026274 -0.096247 -0.006793
vn 0.020045 -0.097823 -0.005376
vn 0.025794 -0.096260 -0.008284
vn 0.015996 -0.098579 -0.005137
vn 0.025174 -0.096242 -0.010182
vn 0.015613 -0.098572 -0.006315
vn 0.024828 -0.096216 -0.011224
vn 0.015401 -0.098561 -0.006962
vn 0.014945 -0.098754 -0.004939
vn 0.006681 -0.099737 -0.002815
vn 0.007281 -0.099680 -0.003291
usemtl ABS_(White)
f 33/1/1 1/2/2 32/3/3
f 32/3/3 1/2/2 2/4/4
f 32/3/3 2/4/4 31/5/5
f 31/5/5 2/4/4 3/6/6
f 31/5/5 3/6/6 30/7/7
f 30/7/7 3/6/6 4/8/8
f 30/7/7 4/8/8 29/9/9
f 29/9/9 4/8/8 28/10/10
f 28/10/10 4/8/8 5/11/11
f 28/10/10 5/11/11 27/12/12
f 27/12/12 5/11/11 6/13/13
f 27/12/12 6/13/13 26/14/14
f 26/14/14 6/13/13 7/15/15
f 26/14/14 7/15/15 25/16/16
f 25/16/16 7/15/15 8/17/17
f 25/16/16 8/17/17 24/18/18
f 24/18/18 8/17/17 9/19/19
f 24/18/18 9/19/19 23/20/20
f 23/20/20 9/19/19 10/21/21
f 23/20/20 10/21/21 22/22/22
f 22/22/22 10/21/21 11/23/23
f 22/22/22 11/23/23 21/24/24
f 21/24/24 11/23/23 12/25/25
f 21/24/24 12/25/25 20/26/26
f 20/26/26 12/25/25 13/27/27
f 20/26/26 13/27/27 19/28/28
f 19/28/28 13/27/27 14/29/29
f 19/28/28 14/29/29 18/30/30
f 18/30/30 14/29/29 17/31/31
f 17/31/31 14/29/29 15/32/32
f 17/31/31 15/32/32 16/33/33
f 1/34/34 33/35/35 34/36/36
f 34/36/36 33/35/35 35/37/37
f 34/36/36 35/37/37 36/38/38
f 37/39/39 38/40/40 40/41/41
f 40/41/41 38/40/40 39/42/42
f 42/43/43 43/44/44 41/45/45
f 41/45/45 43/44/44 44/46/46
f 41/45/45 44/46/46 45/47/47
f 45/47/47 46/48/48 41/45/45
f 41/45/45 46/48/48 39/49/49
f 41/45/45 39/49/49 38/50/50
f 46/48/48 47/51/51 39/49/49
f 39/49/49 47/51/51 36/52/52
f 39/49/49 36/52/52 35/53/53
f 15/54/32 48/55/54 16/56/33
f 16/56/33 48/55/54 53/57/55
f 53/57/55 48/55/54 49/58/56
f 53/57/55 49/58/56 52/59/57
f 52/59/57 49/58/56 50/60/58
f 52/59/57 50/60/58 51/61/59
f 51/61/59 50/60/58 37/62/39
f 51/61/59 37/62/39 40/63/41
f 17/64/60 16/65/61 32/66/62
f 32/66/62 16/65/61 53/67/63
f 32/66/62 53/67/63 52/68/64
f 51/69/65 40/70/66 52/68/64
f 52/68/64 40/70/66 32/66/62
f 40/70/66 39/71/67 32/66/62
f 32/66/62 39/71/67 33/72/68
f 33/72/68 39/71/67 35/73/69
f 32/66/62 31/74/70 17/64/60
f 17/64/60 31/74/70 18/75/71
f 18/75/71 31/74/70 30/76/72
f 18/75/71 30/76/72 19/77/73
f 19/77/73 30/76/72 29/78/74
f 19/77/73 29/78/74 20/79/75
f 20/79/75 29/78/74 28/80/76
f 20/79/75 28/80/76 27/81/77
f 26/82/78 22/83/79 27/81/77
f 27/81/77 22/83/79 21/84/80
f 27/81/77 21/84/80 20/79/75
f 26/82/78 25/85/81 22/83/79
f 22/83/79 25/85/81 24/86/82
f 22/83/79 24/86/82 23/87/83
f 50/88/84 55/89/85 37/90/86
f 37/90/86 55/89/85 56/91/87
f 37/90/86 56/91/87 38/92/88
f 38/92/88 56/91/87 57/93/89
f 38/92/88 57/93/89 58/94/90
f 50/88/84 49/95/91 55/89/85
f 55/89/85 49/95/91 54/96/92
f 54/96/92 49/95/91 48/97/93
f 54/96/92 48/97/93 15/98/94
f 58/94/90 59/99/95 38/92/88
f 38/92/88 59/99/95 41/100/96
f 34/101/97 36/102/98 47/103/99
f 15/104/94 14/105/100 54/106/92
f 54/106/92 14/105/100 64/107/101
f 54/106/92 64/107/101 55/108/85
f 55/108/85 64/107/101 63/109/102
f 55/108/85 63/109/102 56/110/87
f 56/110/87 63/109/102 62/111/103
f 56/110/87 62/111/103 57/112/89
f 57/112/89 62/111/103 58/113/90
f 58/113/90 62/111/103 71/114/104
f 58/113/90 71/114/104 75/115/105
f 75/115/105 71/114/104 70/116/106
f 75/115/105 70/116/106 74/117/107
f 74/117/107 70/116/106 69/118/108
f 74/117/107 69/118/108 73/119/109
f 73/119/109 69/118/108 68/120/110
f 73/119/109 68/120/110 72/121/111
f 72/121/111 68/120/110 7/122/112
f 72/121/111 7/122/112 6/123/113
f 14/105/100 13/124/114 64/107/101
f 64/107/101 13/124/114 12/125/115
f 64/107/101 12/125/115 65/126/116
f 65/126/116 12/125/115 11/127/117
f 65/126/116 11/127/117 67/128/118
f 67/128/118 11/127/117 66/129/119
f 67/128/118 66/129/119 70/116/106
f 70/116/106 66/129/119 69/118/108
f 11/127/117 10/130/120 66/129/119
f 66/129/119 10/130/120 9/131/121
f 66/129/119 9/131/121 69/118/108
f 69/118/108 9/131/121 68/120/110
f 9/131/121 8/132/122 68/120/110
f 68/120/110 8/132/122 7/122/112
f 72/121/111 6/123/113 76/133/123
f 76/133/123 6/123/113 5/134/124
f 76/133/123 5/134/124 4/135/125
f 76/133/123 4/135/125 80/136/126
f 80/136/126 4/135/125 3/137/127
f 80/136/126 3/137/127 61/138/128
f 61/138/128 3/137/127 2/139/129
f 61/138/128 2/139/129 86/140/130
f 86/140/130 2/139/129 87/141/131
f 86/140/130 87/141/131 45/142/132
f 45/142/132 87/141/131 46/143/133
f 46/143/133 87/141/131 60/144/134
f 46/143/133 60/144/134 47/145/135
f 47/145/135 60/144/134 1/146/136
f 47/145/135 1/146/136 34/147/137
f 87/141/131 2/139/129 60/144/134
f 60/144/134 2/139/129 1/146/136
f 86/140/130 45/142/132 85/148/138
f 85/148/138 45/142/132 44/149/139
f 85/148/138 44/149/139 83/150/140
f 83/150/140 44/149/139 84/151/141
f 83/150/140 84/151/141 81/152/142
f 81/152/142 84/151/141 82/153/143
f 81/152/142 82/153/143 77/154/144
f 77/154/144 82/153/143 78/155/145
f 77/154/144 78/155/145 73/119/109
f 73/119/109 78/155/145 74/117/107
f 44/149/139 43/156/146 84/151/141
f 84/151/141 43/156/146 82/153/143
f 43/156/146 42/157/147 82/153/143
f 82/153/143 42/157/147 78/155/145
f 78/155/145 42/157/147 79/158/148
f 79/158/148 42/157/147 41/159/96
f 79/158/148 41/159/96 59/160/95
f 79/158/148 59/160/95 75/115/105
f 75/115/105 59/160/95 58/113/90
f 62/111/103 63/109/102 65/126/116
f 65/126/116 63/109/102 64/107/101
f 71/114/104 62/111/103 67/128/118
f 67/128/118 62/111/103 65/126/116
f 71/114/104 67/128/118 70/116/106
f 77/154/144 73/119/109 72/121/111
f 79/158/148 75/115/105 74/117/107
f 79/158/148 74/117/107 78/155/145
f 81/152/142 77/154/144 76/133/123
f 76/133/123 77/154/144 72/121/111
f 83/150/140 81/152/142 80/136/126
f 80/136/126 81/152/142 76/133/123
f 85/148/138 83/150/140 61/138/128
f 61/138/128 83/150/140 80/136/126
f 86/140/130 85/148/138 61/138/128
# 87 vertices
# 160 texture params
# 148 normals
# 170 facets

# 1 groups
