# WaveFront *.obj file (generated by Autodesk ATF)

mtllib _OneXPlayerMini v85_Turbo_OneXPlayerMini v85.mtl

g Turbo

v 91.344565 -9.000000 -31.770639
v 91.644565 -9.000000 -31.770639
v 91.644565 -11.000000 -31.770639
v 91.344565 -11.000000 -31.770639
v 91.344565 -9.000000 -33.270639
v 91.344565 -11.000000 -33.270639
v 91.644565 -9.000000 -33.270639
v 91.644565 -11.000000 -33.270639
v 90.594565 -9.000000 -31.520639
v 90.894565 -9.000000 -31.520639
v 90.894565 -11.000000 -31.520639
v 90.594565 -11.000000 -31.520639
v 90.594565 -9.000000 -33.520639
v 90.594565 -11.000000 -33.520639
v 90.894565 -9.000000 -33.520639
v 90.894565 -11.000000 -33.520639
v 92.094565 -9.000000 -32.020639
v 92.394565 -9.000000 -32.020639
v 92.394565 -11.000000 -32.020639
v 92.094565 -11.000000 -32.020639
v 92.094565 -9.000000 -33.020639
v 92.094565 -11.000000 -33.020639
v 92.394565 -9.000000 -33.020639
v 92.394565 -11.000000 -33.020639
v 89.844565 -9.000000 -31.770639
v 90.144565 -9.000000 -31.770639
v 90.144565 -11.000000 -31.770639
v 89.844565 -11.000000 -31.770639
v 89.844565 -9.000000 -33.270639
v 89.844565 -11.000000 -33.270639
v 90.144565 -9.000000 -33.270639
v 90.144565 -11.000000 -33.270639
v 92.844565 -9.000000 -32.270639
v 93.144565 -9.000000 -32.270639
v 93.144565 -11.000000 -32.270639
v 92.844565 -11.000000 -32.270639
v 92.844565 -9.000000 -32.770639
v 92.844565 -11.000000 -32.770639
v 93.144565 -9.000000 -32.770639
v 93.144565 -11.000000 -32.770639
v 89.494565 -9.000000 -33.664976
v 92.994565 -9.000000 -35.685702
v 92.994565 -11.000000 -35.685702
v 89.494565 -11.000000 -33.664976
v 89.244565 -9.000000 -33.231964
v 89.274719 -9.000000 -33.402974
v 89.361543 -9.000000 -33.553358
v 89.361543 -11.000000 -33.553358
v 89.274719 -11.000000 -33.402974
v 89.244565 -11.000000 -33.231964
v 89.244565 -9.000000 -31.809314
v 89.244565 -11.000000 -31.809314
v 89.494565 -9.000000 -31.376301
v 89.361543 -9.000000 -31.487920
v 89.274719 -9.000000 -31.638304
v 89.274719 -11.000000 -31.638304
v 89.361543 -11.000000 -31.487920
v 89.494565 -11.000000 -31.376301
v 92.994565 -9.000000 -29.355575
v 92.994565 -11.000000 -29.355575
v 93.744565 -9.000000 -29.788588
v 93.677578 -9.000000 -29.538588
v 93.494565 -9.000000 -29.355575
v 93.244565 -9.000000 -29.288588
v 93.244565 -11.000000 -29.288588
v 93.494565 -11.000000 -29.355575
v 93.677578 -11.000000 -29.538588
v 93.744565 -11.000000 -29.788588
v 93.744565 -9.000000 -35.252690
v 93.744565 -11.000000 -35.252690
v 93.244565 -9.000000 -35.752690
v 93.494565 -9.000000 -35.685702
v 93.677578 -9.000000 -35.502690
v 93.677578 -11.000000 -35.502690
v 93.494565 -11.000000 -35.685702
v 93.244565 -11.000000 -35.752690
vt 0.000000 0.000000 0.000000
vt 0.030000 0.000000 0.000000
vt 0.000000 0.200000 0.000000
vt 0.030000 0.200000 0.000000
vt 0.000000 0.000000 0.000000
vt 0.150000 0.000000 0.000000
vt 0.000000 0.200000 0.000000
vt 0.150000 0.200000 0.000000
vt 0.000000 0.000000 0.000000
vt 0.030000 -0.000000 0.000000
vt -0.000000 0.200000 0.000000
vt 0.030000 0.200000 0.000000
vt 0.000000 0.000000 0.000000
vt 0.150000 0.000000 0.000000
vt 0.000000 0.200000 0.000000
vt 0.150000 0.200000 0.000000
vt 0.000000 0.000000 0.000000
vt 0.030000 0.000000 0.000000
vt 0.000000 0.200000 0.000000
vt 0.030000 0.200000 0.000000
vt 0.000000 0.000000 0.000000
vt 0.200000 0.000000 0.000000
vt 0.000000 0.200000 0.000000
vt 0.200000 0.200000 0.000000
vt 0.000000 0.000000 0.000000
vt 0.030000 0.000000 0.000000
vt 0.000000 0.200000 0.000000
vt 0.030000 0.200000 0.000000
vt 0.000000 0.000000 0.000000
vt 0.200000 0.000000 0.000000
vt -0.000000 0.200000 0.000000
vt 0.200000 0.200000 0.000000
vt 0.000000 0.000000 0.000000
vt 0.030000 0.000000 0.000000
vt 0.000000 0.200000 0.000000
vt 0.030000 0.200000 0.000000
vt 0.000000 0.000000 0.000000
vt 0.100000 0.000000 0.000000
vt 0.000000 0.200000 0.000000
vt 0.100000 0.200000 0.000000
vt 0.000000 0.000000 0.000000
vt 0.030000 0.000000 0.000000
vt 0.000000 0.200000 0.000000
vt 0.030000 0.200000 0.000000
vt -0.000000 0.000000 0.000000
vt 0.100000 0.000000 0.000000
vt -0.000000 0.200000 0.000000
vt 0.100000 0.200000 0.000000
vt 0.000000 0.000000 0.000000
vt 0.030000 0.000000 0.000000
vt 0.000000 0.200000 0.000000
vt 0.030000 0.200000 0.000000
vt 0.000000 0.000000 0.000000
vt 0.150000 0.000000 0.000000
vt 0.000000 0.200000 0.000000
vt 0.150000 0.200000 0.000000
vt 0.000000 0.000000 0.000000
vt 0.030000 0.000000 0.000000
vt 0.000000 0.200000 0.000000
vt 0.030000 0.200000 0.000000
vt 0.000000 0.000000 0.000000
vt 0.150000 0.000000 0.000000
vt 0.000000 0.200000 0.000000
vt 0.150000 0.200000 0.000000
vt 0.000000 0.000000 0.000000
vt 0.030000 0.000000 0.000000
vt 0.000000 0.200000 0.000000
vt 0.030000 0.200000 0.000000
vt 0.000000 0.000000 0.000000
vt 0.050000 0.000000 0.000000
vt 0.000000 0.200000 0.000000
vt 0.050000 0.200000 0.000000
vt 0.000000 0.000000 0.000000
vt 0.030000 0.000000 0.000000
vt 0.000000 0.200000 0.000000
vt 0.030000 0.200000 0.000000
vt 0.000000 0.000000 0.000000
vt 0.050000 0.000000 0.000000
vt -0.000000 0.200000 0.000000
vt 0.050000 0.200000 0.000000
vt 0.000000 0.000000 0.000000
vt 0.404145 0.000000 0.000000
vt 0.000000 0.200000 0.000000
vt 0.404145 0.200000 0.000000
vt -0.200000 -0.026180 0.000000
vt -0.000000 -0.026180 0.000000
vt -0.200000 -0.008727 0.000000
vt -0.000000 -0.008727 0.000000
vt -0.000000 0.008727 0.000000
vt 0.000000 0.026180 0.000000
vt -0.200000 0.026180 0.000000
vt -0.200000 0.008727 0.000000
vt -0.000000 0.000000 0.000000
vt 0.142265 0.000000 0.000000
vt 0.000000 0.200000 0.000000
vt 0.142265 0.200000 0.000000
vt -0.200000 -0.026180 0.000000
vt -0.000000 -0.026180 0.000000
vt -0.200000 -0.008727 0.000000
vt -0.000000 -0.008727 0.000000
vt -0.000000 0.008727 0.000000
vt -0.000000 0.026180 0.000000
vt -0.200000 0.026180 0.000000
vt -0.200000 0.008727 0.000000
vt -0.000000 0.000000 0.000000
vt 0.404145 -0.000000 0.000000
vt 0.000000 0.200000 0.000000
vt 0.404145 0.200000 0.000000
vt -0.200000 -0.052360 0.000000
vt -0.000000 -0.052360 0.000000
vt -0.200000 -0.026180 0.000000
vt -0.000000 -0.026180 0.000000
vt -0.200000 0.000000 0.000000
vt -0.000000 0.000000 0.000000
vt -0.200000 0.026180 0.000000
vt -0.000000 0.026180 0.000000
vt -0.200000 0.052360 0.000000
vt -0.000000 0.052360 0.000000
vt 0.000000 0.000000 0.000000
vt 0.546410 0.000000 0.000000
vt 0.000000 0.200000 0.000000
vt 0.546410 0.200000 0.000000
vt -0.200000 -0.052360 0.000000
vt 0.000000 -0.052360 0.000000
vt -0.200000 -0.026180 0.000000
vt -0.000000 -0.026180 0.000000
vt -0.200000 -0.000000 0.000000
vt -0.000000 -0.000000 0.000000
vt -0.200000 0.026180 0.000000
vt -0.000000 0.026180 0.000000
vt -0.200000 0.052360 0.000000
vt -0.000000 0.052360 0.000000
vt 0.025000 0.165000 0.000000
vt -0.273205 0.225000 0.000000
vt -0.025000 0.165000 0.000000
vt -0.316506 0.150000 0.000000
vt -0.025000 0.135000 0.000000
vt -0.050000 0.090000 0.000000
vt 0.050000 0.090000 0.000000
vt 0.025000 0.135000 0.000000
vt 0.316506 0.150000 0.000000
vt 0.273205 0.225000 0.000000
vt 0.075000 -0.135000 0.000000
vt -0.100000 -0.090000 0.000000
vt -0.075000 -0.135000 0.000000
vt -0.114434 -0.200000 0.000000
vt -0.075000 -0.165000 0.000000
vt -0.103272 -0.213302 0.000000
vt -0.088233 -0.221985 0.000000
vt 0.075000 -0.165000 0.000000
vt 0.114434 -0.200000 0.000000
vt 0.100000 -0.090000 0.000000
vt 0.071132 -0.225000 0.000000
vt 0.088233 -0.221985 0.000000
vt 0.103272 -0.213302 0.000000
vt 0.050000 0.060000 0.000000
vt 0.075000 0.015000 0.000000
vt 0.100000 -0.060000 0.000000
vt 0.075000 -0.015000 0.000000
vt -0.075000 -0.015000 0.000000
vt -0.050000 0.060000 0.000000
vt -0.075000 0.015000 0.000000
vt -0.100000 -0.060000 0.000000
vt 0.323205 0.175000 0.000000
vt 0.316506 0.200000 0.000000
vt 0.298205 0.218301 0.000000
vt -0.298205 0.218301 0.000000
vt -0.316506 0.200000 0.000000
vt -0.323205 0.175000 0.000000
vt -0.071132 -0.225000 0.000000
vt 0.025000 0.165000 0.000000
vt -0.273205 0.225000 0.000000
vt -0.025000 0.165000 0.000000
vt -0.316506 0.150000 0.000000
vt -0.025000 0.135000 0.000000
vt -0.050000 0.090000 0.000000
vt 0.050000 0.090000 0.000000
vt 0.025000 0.135000 0.000000
vt 0.316506 0.150000 0.000000
vt 0.273205 0.225000 0.000000
vt 0.075000 -0.135000 0.000000
vt -0.100000 -0.090000 0.000000
vt -0.075000 -0.135000 0.000000
vt -0.114434 -0.200000 0.000000
vt -0.075000 -0.165000 0.000000
vt -0.103272 -0.213302 0.000000
vt -0.088233 -0.221985 0.000000
vt 0.075000 -0.165000 0.000000
vt 0.114434 -0.200000 0.000000
vt 0.100000 -0.090000 0.000000
vt 0.071132 -0.225000 0.000000
vt 0.088233 -0.221985 0.000000
vt 0.103272 -0.213302 0.000000
vt 0.050000 0.060000 0.000000
vt 0.075000 0.015000 0.000000
vt 0.100000 -0.060000 0.000000
vt 0.075000 -0.015000 0.000000
vt -0.075000 -0.015000 0.000000
vt -0.050000 0.060000 0.000000
vt -0.075000 0.015000 0.000000
vt -0.100000 -0.060000 0.000000
vt -0.298205 0.218301 0.000000
vt -0.316506 0.200000 0.000000
vt -0.323205 0.175000 0.000000
vt -0.071132 -0.225000 0.000000
vt 0.323205 0.175000 0.000000
vt 0.316506 0.200000 0.000000
vt 0.298205 0.218301 0.000000
vn 0.000000 0.000000 -0.100000
vn 0.000000 0.000000 -0.100000
vn 0.000000 0.000000 -0.100000
vn 0.000000 0.000000 -0.100000
vn 0.100000 0.000000 -0.000000
vn 0.100000 0.000000 -0.000000
vn 0.100000 0.000000 -0.000000
vn 0.100000 0.000000 -0.000000
vn 0.000000 0.000000 0.100000
vn 0.000000 0.000000 0.100000
vn 0.000000 0.000000 0.100000
vn 0.000000 0.000000 0.100000
vn -0.100000 0.000000 -0.000000
vn -0.100000 0.000000 -0.000000
vn -0.100000 0.000000 -0.000000
vn -0.100000 0.000000 -0.000000
vn 0.000000 0.000000 -0.100000
vn 0.000000 0.000000 -0.100000
vn 0.000000 0.000000 -0.100000
vn 0.000000 0.000000 -0.100000
vn 0.100000 0.000000 -0.000000
vn 0.100000 0.000000 -0.000000
vn 0.100000 0.000000 -0.000000
vn 0.100000 0.000000 -0.000000
vn 0.000000 0.000000 0.100000
vn 0.000000 0.000000 0.100000
vn 0.000000 0.000000 0.100000
vn 0.000000 0.000000 0.100000
vn -0.100000 0.000000 0.000000
vn -0.100000 0.000000 0.000000
vn -0.100000 0.000000 0.000000
vn -0.100000 0.000000 0.000000
vn 0.000000 0.000000 -0.100000
vn 0.000000 0.000000 -0.100000
vn 0.000000 0.000000 -0.100000
vn 0.000000 0.000000 -0.100000
vn 0.100000 0.000000 0.000000
vn 0.100000 0.000000 0.000000
vn 0.100000 0.000000 0.000000
vn 0.100000 0.000000 0.000000
vn 0.000000 0.000000 0.100000
vn 0.000000 0.000000 0.100000
vn 0.000000 0.000000 0.100000
vn 0.000000 0.000000 0.100000
vn -0.100000 0.000000 -0.000000
vn -0.100000 0.000000 -0.000000
vn -0.100000 0.000000 -0.000000
vn -0.100000 0.000000 -0.000000
vn 0.000000 0.000000 -0.100000
vn 0.000000 0.000000 -0.100000
vn 0.000000 0.000000 -0.100000
vn 0.000000 0.000000 -0.100000
vn 0.100000 0.000000 -0.000000
vn 0.100000 0.000000 -0.000000
vn 0.100000 0.000000 -0.000000
vn 0.100000 0.000000 -0.000000
vn 0.000000 0.000000 0.100000
vn 0.000000 0.000000 0.100000
vn 0.000000 0.000000 0.100000
vn 0.000000 0.000000 0.100000
vn -0.100000 0.000000 0.000000
vn -0.100000 0.000000 0.000000
vn -0.100000 0.000000 0.000000
vn -0.100000 0.000000 0.000000
vn 0.000000 0.000000 -0.100000
vn 0.000000 0.000000 -0.100000
vn 0.000000 0.000000 -0.100000
vn 0.000000 0.000000 -0.100000
vn 0.100000 0.000000 0.000000
vn 0.100000 0.000000 0.000000
vn 0.100000 0.000000 0.000000
vn 0.100000 0.000000 0.000000
vn 0.000000 0.000000 0.100000
vn 0.000000 0.000000 0.100000
vn 0.000000 0.000000 0.100000
vn 0.000000 0.000000 0.100000
vn -0.100000 0.000000 0.000000
vn -0.100000 0.000000 0.000000
vn -0.100000 0.000000 0.000000
vn -0.100000 0.000000 0.000000
vn -0.050000 0.000000 -0.086603
vn -0.050000 0.000000 -0.086603
vn -0.050000 0.000000 -0.086603
vn -0.050000 0.000000 -0.086603
vn -0.100000 0.000000 0.000000
vn -0.100000 0.000000 0.000000
vn -0.093969 0.000000 -0.034202
vn -0.093969 0.000000 -0.034202
vn -0.076604 0.000000 -0.064279
vn -0.076604 0.000000 -0.064279
vn -0.100000 0.000000 0.000000
vn -0.100000 0.000000 0.000000
vn -0.050000 0.000000 0.086603
vn -0.050000 0.000000 0.086603
vn -0.076604 0.000000 0.064279
vn -0.076604 0.000000 0.064279
vn -0.093969 0.000000 0.034202
vn -0.093969 0.000000 0.034202
vn -0.050000 0.000000 0.086603
vn -0.050000 0.000000 0.086603
vn 0.100000 0.000000 -0.000000
vn 0.100000 0.000000 -0.000000
vn 0.086603 0.000000 0.050000
vn 0.086603 0.000000 0.050000
vn 0.050000 0.000000 0.086603
vn 0.050000 0.000000 0.086603
vn 0.000000 0.000000 0.100000
vn 0.000000 0.000000 0.100000
vn 0.100000 0.000000 0.000000
vn 0.100000 0.000000 0.000000
vn 0.000000 0.000000 -0.100000
vn 0.000000 0.000000 -0.100000
vn 0.050000 0.000000 -0.086603
vn 0.050000 0.000000 -0.086603
vn 0.086603 0.000000 -0.050000
vn 0.086603 0.000000 -0.050000
vn 0.000000 -0.100000 0.000000
vn 0.000000 -0.100000 0.000000
vn 0.000000 -0.100000 0.000000
vn 0.000000 -0.100000 0.000000
vn 0.000000 -0.100000 0.000000
vn 0.000000 -0.100000 0.000000
vn 0.000000 -0.100000 0.000000
vn 0.000000 -0.100000 0.000000
vn 0.000000 -0.100000 0.000000
vn 0.000000 -0.100000 0.000000
vn 0.000000 -0.100000 0.000000
vn 0.000000 -0.100000 0.000000
vn 0.000000 -0.100000 0.000000
vn 0.000000 -0.100000 0.000000
vn 0.000000 -0.100000 0.000000
vn 0.000000 -0.100000 0.000000
vn 0.000000 -0.100000 0.000000
vn 0.000000 -0.100000 0.000000
vn 0.000000 -0.100000 0.000000
vn 0.000000 -0.100000 0.000000
vn 0.000000 -0.100000 0.000000
vn 0.000000 -0.100000 0.000000
vn 0.000000 -0.100000 0.000000
vn 0.000000 -0.100000 0.000000
vn 0.000000 -0.100000 0.000000
vn 0.000000 -0.100000 0.000000
vn 0.000000 -0.100000 0.000000
vn 0.000000 -0.100000 0.000000
vn 0.000000 -0.100000 0.000000
vn 0.000000 -0.100000 0.000000
vn 0.000000 -0.100000 0.000000
vn 0.000000 -0.100000 0.000000
vn 0.000000 -0.100000 0.000000
vn 0.000000 -0.100000 0.000000
vn 0.000000 -0.100000 0.000000
vn 0.000000 -0.100000 0.000000
vn 0.000000 -0.100000 0.000000
vn 0.000000 -0.100000 0.000000
vn 0.000000 0.100000 0.000000
vn 0.000000 0.100000 0.000000
vn 0.000000 0.100000 0.000000
vn 0.000000 0.100000 0.000000
vn 0.000000 0.100000 0.000000
vn 0.000000 0.100000 0.000000
vn 0.000000 0.100000 0.000000
vn 0.000000 0.100000 0.000000
vn 0.000000 0.100000 0.000000
vn 0.000000 0.100000 0.000000
vn 0.000000 0.100000 0.000000
vn 0.000000 0.100000 0.000000
vn 0.000000 0.100000 0.000000
vn 0.000000 0.100000 0.000000
vn 0.000000 0.100000 0.000000
vn 0.000000 0.100000 0.000000
vn 0.000000 0.100000 0.000000
vn 0.000000 0.100000 0.000000
vn 0.000000 0.100000 0.000000
vn 0.000000 0.100000 0.000000
vn 0.000000 0.100000 0.000000
vn 0.000000 0.100000 0.000000
vn 0.000000 0.100000 0.000000
vn 0.000000 0.100000 0.000000
vn 0.000000 0.100000 0.000000
vn 0.000000 0.100000 0.000000
vn 0.000000 0.100000 0.000000
vn 0.000000 0.100000 0.000000
vn 0.000000 0.100000 0.000000
vn 0.000000 0.100000 0.000000
vn 0.000000 0.100000 0.000000
vn 0.000000 0.100000 0.000000
vn 0.000000 0.100000 0.000000
vn 0.000000 0.100000 0.000000
vn 0.000000 0.100000 0.000000
vn 0.000000 0.100000 0.000000
vn 0.000000 0.100000 0.000000
vn 0.000000 0.100000 0.000000
usemtl ABS_(White)
f 1/1/1 2/2/2 4/3/3
f 4/3/3 2/2/2 3/4/4
f 5/5/5 1/6/6 6/7/7
f 6/7/7 1/6/6 4/8/8
f 7/9/9 5/10/10 8/11/11
f 8/11/11 5/10/10 6/12/12
f 2/13/13 7/14/14 3/15/15
f 3/15/15 7/14/14 8/16/16
f 9/17/17 10/18/18 12/19/19
f 12/19/19 10/18/18 11/20/20
f 13/21/21 9/22/22 14/23/23
f 14/23/23 9/22/22 12/24/24
f 15/25/25 13/26/26 16/27/27
f 16/27/27 13/26/26 14/28/28
f 10/29/29 15/30/30 11/31/31
f 11/31/31 15/30/30 16/32/32
f 17/33/33 18/34/34 20/35/35
f 20/35/35 18/34/34 19/36/36
f 21/37/37 17/38/38 22/39/39
f 22/39/39 17/38/38 20/40/40
f 23/41/41 21/42/42 24/43/43
f 24/43/43 21/42/42 22/44/44
f 18/45/45 23/46/46 19/47/47
f 19/47/47 23/46/46 24/48/48
f 25/49/49 26/50/50 28/51/51
f 28/51/51 26/50/50 27/52/52
f 29/53/53 25/54/54 30/55/55
f 30/55/55 25/54/54 28/56/56
f 31/57/57 29/58/58 32/59/59
f 32/59/59 29/58/58 30/60/60
f 26/61/61 31/62/62 27/63/63
f 27/63/63 31/62/62 32/64/64
f 33/65/65 34/66/66 36/67/67
f 36/67/67 34/66/66 35/68/68
f 37/69/69 33/70/70 38/71/71
f 38/71/71 33/70/70 36/72/72
f 39/73/73 37/74/74 40/75/75
f 40/75/75 37/74/74 38/76/76
f 34/77/77 39/78/78 35/79/79
f 35/79/79 39/78/78 40/80/80
f 41/81/81 42/82/82 44/83/83
f 44/83/83 42/82/82 43/84/84
f 50/85/85 45/86/86 49/87/87
f 49/87/87 45/86/86 46/88/88
f 49/87/87 46/88/88 47/89/89
f 41/90/81 44/91/83 47/89/89
f 47/89/89 44/91/83 48/92/90
f 47/89/89 48/92/90 49/87/87
f 51/93/91 45/94/86 52/95/92
f 52/95/92 45/94/86 50/96/85
f 58/97/93 53/98/94 57/99/95
f 57/99/95 53/98/94 54/100/96
f 57/99/95 54/100/96 55/101/97
f 51/102/91 52/103/92 55/101/97
f 55/101/97 52/103/92 56/104/98
f 55/101/97 56/104/98 57/99/95
f 59/105/99 53/106/94 60/107/100
f 60/107/100 53/106/94 58/108/93
f 68/109/101 61/110/102 67/111/103
f 67/111/103 61/110/102 62/112/104
f 67/111/103 62/112/104 66/113/105
f 66/113/105 62/112/104 63/114/106
f 66/113/105 63/114/106 65/115/107
f 65/115/107 63/114/106 64/116/108
f 65/115/107 64/116/108 60/117/100
f 60/117/100 64/116/108 59/118/99
f 69/119/109 61/120/102 70/121/110
f 70/121/110 61/120/102 68/122/101
f 43/123/84 42/124/82 76/125/111
f 76/125/111 42/124/82 71/126/112
f 76/125/111 71/126/112 75/127/113
f 75/127/113 71/126/112 72/128/114
f 75/127/113 72/128/114 74/129/115
f 74/129/115 72/128/114 73/130/116
f 74/129/115 73/130/116 70/131/110
f 70/131/110 73/130/116 69/132/109
f 40/133/117 68/134/118 35/135/119
f 35/135/119 68/134/118 60/136/120
f 35/135/119 60/136/120 36/137/121
f 36/137/121 60/136/120 19/138/122
f 36/137/121 19/138/122 24/139/123
f 38/140/124 43/141/125 40/133/117
f 40/133/117 43/141/125 70/142/126
f 40/133/117 70/142/126 68/134/118
f 43/141/125 38/140/124 24/139/123
f 24/139/123 38/140/124 36/137/121
f 32/143/127 12/144/128 27/145/129
f 27/145/129 12/144/128 58/146/130
f 27/145/129 58/146/130 28/147/131
f 28/147/131 58/146/130 57/148/132
f 28/147/131 57/148/132 56/149/133
f 30/150/134 44/151/135 32/143/127
f 32/143/127 44/151/135 14/152/136
f 32/143/127 14/152/136 12/144/128
f 28/147/131 50/153/137 30/150/134
f 30/150/134 50/153/137 49/154/138
f 30/150/134 49/154/138 48/155/139
f 24/139/123 22/156/140 43/141/125
f 43/141/125 22/156/140 8/157/141
f 43/141/125 8/157/141 16/158/142
f 16/158/142 8/157/141 6/159/143
f 16/158/142 6/159/143 4/160/144
f 22/156/140 20/161/145 8/157/141
f 8/157/141 20/161/145 3/162/146
f 3/162/146 20/161/145 60/136/120
f 3/162/146 60/136/120 11/163/147
f 11/163/147 60/136/120 12/144/128
f 12/144/128 60/136/120 58/146/130
f 20/161/145 19/138/122 60/136/120
f 3/162/146 11/163/147 4/160/144
f 4/160/144 11/163/147 16/158/142
f 16/158/142 14/152/136 43/141/125
f 43/141/125 14/152/136 44/151/135
f 43/141/125 76/164/148 70/142/126
f 70/142/126 76/164/148 75/165/149
f 70/142/126 75/165/149 74/166/150
f 67/167/151 66/168/152 68/134/118
f 68/134/118 66/168/152 65/169/153
f 68/134/118 65/169/153 60/136/120
f 56/149/133 52/170/154 28/147/131
f 28/147/131 52/170/154 50/153/137
f 48/155/139 44/151/135 30/150/134
f 34/171/155 69/172/156 39/173/157
f 39/173/157 69/172/156 42/174/158
f 39/173/157 42/174/158 37/175/159
f 37/175/159 42/174/158 23/176/160
f 37/175/159 23/176/160 18/177/161
f 33/178/162 59/179/163 34/171/155
f 34/171/155 59/179/163 61/180/164
f 34/171/155 61/180/164 69/172/156
f 59/179/163 33/178/162 18/177/161
f 18/177/161 33/178/162 37/175/159
f 26/181/165 13/182/166 31/183/167
f 31/183/167 13/182/166 41/184/168
f 31/183/167 41/184/168 29/185/169
f 29/185/169 41/184/168 47/186/170
f 29/185/169 47/186/170 46/187/171
f 25/188/172 53/189/173 26/181/165
f 26/181/165 53/189/173 9/190/174
f 26/181/165 9/190/174 13/182/166
f 29/185/169 51/191/175 25/188/172
f 25/188/172 51/191/175 55/192/176
f 25/188/172 55/192/176 54/193/177
f 18/177/161 17/194/178 59/179/163
f 59/179/163 17/194/178 2/195/179
f 59/179/163 2/195/179 10/196/180
f 10/196/180 2/195/179 1/197/181
f 10/196/180 1/197/181 5/198/182
f 17/194/178 21/199/183 2/195/179
f 2/195/179 21/199/183 7/200/184
f 7/200/184 21/199/183 42/174/158
f 7/200/184 42/174/158 15/201/185
f 15/201/185 42/174/158 13/182/166
f 13/182/166 42/174/158 41/184/168
f 21/199/183 23/176/160 42/174/158
f 7/200/184 15/201/185 5/198/182
f 5/198/182 15/201/185 10/196/180
f 10/196/180 9/190/174 59/179/163
f 59/179/163 9/190/174 53/189/173
f 73/202/186 72/203/187 69/172/156
f 69/172/156 72/203/187 71/204/188
f 69/172/156 71/204/188 42/174/158
f 46/187/171 45/205/189 29/185/169
f 29/185/169 45/205/189 51/191/175
f 54/193/177 53/189/173 25/188/172
f 59/179/163 64/206/190 61/180/164
f 61/180/164 64/206/190 63/207/191
f 61/180/164 63/207/191 62/208/192
# 76 vertices
# 208 texture params
# 192 normals
# 168 facets

# 1 groups
