# WaveFront *.obj file (generated by Autodesk ATF)

mtllib _OneXPlayerMini v85_RightShoulder_OneXPlayerMini v85.mtl

g RightShoulder

v 89.352424 0.500000 49.313099
v 89.352424 -7.500000 50.336951
v 89.352424 -7.500000 50.884573
v 89.352424 0.500000 50.884573
v 123.432783 0.500000 39.293029
v 123.432783 -7.500000 40.316882
v 89.561299 0.500000 51.816152
v 90.147931 0.500000 52.569367
v 91.000001 0.500000 53.000001
v 96.797982 0.500000 53.076168
v 102.559202 0.500000 52.419874
v 108.191501 0.500000 51.041617
v 113.604779 0.500000 48.963445
v 118.712442 0.500000 46.218603
v 123.432783 0.500000 42.850998
v 89.561299 -7.500000 51.816152
v 90.147931 -7.500000 52.569367
v 91.000001 -7.500000 53.000001
v 96.797982 -7.500000 53.076168
v 102.559202 -7.500000 52.419874
v 108.191501 -7.500000 51.041617
v 113.604779 -7.500000 48.963445
v 118.712442 -7.500000 46.218603
v 123.432783 -7.500000 42.850998
vt -0.157147 0.800000 0.000000
vt -0.054762 0.000000 0.000000
vt -0.000000 0.800000 0.000000
vt -0.000000 0.000000 0.000000
vt -4.123545 1.748123 0.000000
vt -4.094665 0.942115 0.000000
vt -0.571261 1.748123 0.000000
vt -0.542380 0.942115 0.000000
vt -1.704018 -0.570815 0.000000
vt 1.704018 0.431192 0.000000
vt -1.704018 -0.215018 0.000000
vt -1.231984 0.121743 0.000000
vt -0.721218 0.396227 0.000000
vt -0.179890 0.604044 0.000000
vt 0.383340 0.741870 0.000000
vt 0.959462 0.807499 0.000000
vt 1.704018 0.588340 0.000000
vt 1.683130 0.681498 0.000000
vt 1.624467 0.756819 0.000000
vt 1.539260 0.799883 0.000000
vt 0.800000 0.000000 0.000000
vt -0.000000 0.000000 0.000000
vt 0.800000 -0.096249 0.000000
vt -0.000000 -0.096249 0.000000
vt 0.800000 -0.192499 0.000000
vt -0.000000 -0.192499 0.000000
vt 0.800000 -0.288748 0.000000
vt -0.000000 -0.288748 0.000000
vt 0.800000 0.000000 0.000000
vt -0.000000 0.000000 0.000000
vt 0.800000 -0.580235 0.000000
vt -0.000000 -0.580235 0.000000
vt 0.800000 -1.160471 0.000000
vt -0.000000 -1.160471 0.000000
vt 0.800000 -1.740706 0.000000
vt 0.000000 -1.740706 0.000000
vt 0.800000 -2.320941 0.000000
vt -0.000000 -2.320941 0.000000
vt 0.800000 -2.901176 0.000000
vt 0.000000 -2.901176 0.000000
vt 0.800000 -3.481412 0.000000
vt -0.000000 -3.481412 0.000000
vt -0.242448 0.800000 0.000000
vt -0.598244 0.800000 0.000000
vt -0.344833 0.000000 0.000000
vt -0.598244 0.000000 0.000000
vt 1.704018 -0.468429 0.000000
vt 1.231984 0.121743 0.000000
vt -1.704018 0.533578 0.000000
vt 0.721218 0.396227 0.000000
vt 0.179890 0.604044 0.000000
vt 1.704018 -0.215018 0.000000
vt -0.383340 0.741870 0.000000
vt -0.959462 0.807499 0.000000
vt -1.704018 0.588340 0.000000
vt -1.683130 0.681498 0.000000
vt -1.624467 0.756819 0.000000
vt -1.539260 0.799883 0.000000
vn -0.100000 0.000000 0.000000
vn -0.100000 0.000000 0.000000
vn -0.100000 0.000000 0.000000
vn -0.100000 0.000000 0.000000
vn -0.027997 -0.012187 -0.095224
vn -0.027997 -0.012187 -0.095224
vn -0.027997 -0.012187 -0.095224
vn -0.027997 -0.012187 -0.095224
vn -0.000000 0.100000 -0.000000
vn -0.000000 0.100000 -0.000000
vn -0.000000 0.100000 -0.000000
vn -0.000000 0.100000 -0.000000
vn -0.000000 0.100000 -0.000000
vn -0.000000 0.100000 -0.000000
vn -0.000000 0.100000 -0.000000
vn -0.000000 0.100000 -0.000000
vn -0.000000 0.100000 -0.000000
vn -0.000000 0.100000 -0.000000
vn -0.000000 0.100000 -0.000000
vn -0.000000 0.100000 -0.000000
vn -0.090427 0.000000 0.042697
vn -0.090427 0.000000 0.042697
vn -0.063540 0.000000 0.077218
vn -0.063540 0.000000 0.077218
vn -0.024487 0.000000 0.096956
vn -0.024487 0.000000 0.096956
vn -0.007634 0.000000 0.099708
vn -0.007634 0.000000 0.099708
vn 0.005012 -0.000000 0.099874
vn 0.005012 -0.000000 0.099874
vn 0.017579 -0.000000 0.098443
vn 0.017579 -0.000000 0.098443
vn 0.029864 -0.000000 0.095436
vn 0.029864 -0.000000 0.095436
vn 0.041672 -0.000000 0.090903
vn 0.041672 -0.000000 0.090903
vn 0.052813 -0.000000 0.084916
vn 0.052813 -0.000000 0.084916
vn 0.063109 -0.000000 0.077571
vn 0.063109 -0.000000 0.077571
vn 0.100000 0.000000 0.000000
vn 0.100000 0.000000 0.000000
vn 0.100000 0.000000 0.000000
vn 0.100000 0.000000 0.000000
vn 0.000000 -0.100000 0.000000
vn 0.000000 -0.100000 0.000000
vn 0.000000 -0.100000 0.000000
vn 0.000000 -0.100000 0.000000
vn 0.000000 -0.100000 0.000000
vn 0.000000 -0.100000 0.000000
vn 0.000000 -0.100000 0.000000
vn 0.000000 -0.100000 0.000000
vn 0.000000 -0.100000 0.000000
vn 0.000000 -0.100000 0.000000
vn 0.000000 -0.100000 0.000000
vn 0.000000 -0.100000 0.000000
usemtl Plastic_-_Glossy_(Black)
f 1/1/1 2/2/2 4/3/3
f 4/3/3 2/2/2 3/4/4
f 2/5/5 1/6/6 6/7/7
f 6/7/7 1/6/6 5/8/8
f 5/9/9 1/10/10 15/11/11
f 15/11/11 1/10/10 14/12/12
f 14/12/12 1/10/10 13/13/13
f 13/13/13 1/10/10 12/14/14
f 12/14/14 1/10/10 11/15/15
f 11/15/15 1/10/10 10/16/16
f 10/16/16 1/10/10 4/17/17
f 10/16/16 4/17/17 7/18/18
f 7/18/18 8/19/19 10/16/16
f 10/16/16 8/19/19 9/20/20
f 4/21/3 3/22/4 7/23/21
f 7/23/21 3/22/4 16/24/22
f 7/23/21 16/24/22 8/25/23
f 8/25/23 16/24/22 17/26/24
f 8/25/23 17/26/24 9/27/25
f 9/27/25 17/26/24 18/28/26
f 9/29/27 18/30/28 10/31/29
f 10/31/29 18/30/28 19/32/30
f 10/31/29 19/32/30 11/33/31
f 11/33/31 19/32/30 20/34/32
f 11/33/31 20/34/32 12/35/33
f 12/35/33 20/34/32 21/36/34
f 12/35/33 21/36/34 13/37/35
f 13/37/35 21/36/34 22/38/36
f 13/37/35 22/38/36 14/39/37
f 14/39/37 22/38/36 23/40/38
f 14/39/37 23/40/38 15/41/39
f 15/41/39 23/40/38 24/42/40
f 5/43/41 15/44/42 6/45/43
f 6/45/43 15/44/42 24/46/44
f 6/47/45 23/48/46 2/49/47
f 2/49/47 23/48/46 22/50/48
f 2/49/47 22/50/48 21/51/49
f 6/47/45 24/52/50 23/48/46
f 21/51/49 20/53/51 2/49/47
f 2/49/47 20/53/51 19/54/52
f 2/49/47 19/54/52 3/55/53
f 3/55/53 19/54/52 16/56/54
f 16/56/54 19/54/52 17/57/55
f 17/57/55 19/54/52 18/58/56
# 24 vertices
# 58 texture params
# 56 normals
# 44 facets

# 1 groups
