# WaveFront *.obj file (generated by Autodesk ATF)

mtllib _OneXPlayerMini v62_RightBaseRing_OneXPlayerMini v62.mtl

g RightBaseRing

v 95.250002 -10.000000 -9.000000
v 95.594312 -10.000000 -11.284353
v 96.596651 -10.000000 -13.365731
v 98.167956 -10.000000 -15.059194
v 100.168609 -10.000000 -16.214272
v 102.420843 -10.000000 -16.728330
v 104.724539 -10.000000 -16.555691
v 106.875002 -10.000000 -15.711697
v 108.681154 -10.000000 -14.271339
v 109.982510 -10.000000 -12.362599
v 110.663440 -10.000000 -10.155078
v 110.663440 -10.000000 -7.844923
v 109.982510 -10.000000 -5.637401
v 108.681154 -10.000000 -3.728661
v 106.875002 -10.000000 -2.288303
v 104.724539 -10.000000 -1.444309
v 102.420843 -10.000000 -1.271671
v 100.168609 -10.000000 -1.785729
v 98.167956 -10.000000 -2.940806
v 96.596651 -10.000000 -4.634270
v 95.594312 -10.000000 -6.715648
v 95.250002 -8.000000 -9.000000
v 95.594312 -8.000000 -6.715648
v 96.596651 -8.000000 -4.634270
v 98.167956 -8.000000 -2.940806
v 100.168609 -8.000000 -1.785729
v 102.420843 -8.000000 -1.271671
v 104.724539 -8.000000 -1.444309
v 106.875002 -8.000000 -2.288303
v 108.681154 -8.000000 -3.728661
v 109.982510 -8.000000 -5.637401
v 110.663440 -8.000000 -7.844923
v 110.663440 -8.000000 -10.155078
v 109.982510 -8.000000 -12.362599
v 108.681154 -8.000000 -14.271339
v 106.875002 -8.000000 -15.711697
v 104.724539 -8.000000 -16.555691
v 102.420843 -8.000000 -16.728330
v 100.168609 -8.000000 -16.214272
v 98.167956 -8.000000 -15.059194
v 96.596651 -8.000000 -13.365731
v 95.594312 -8.000000 -11.284353
v 94.250002 -10.000000 -9.000000
v 94.604438 -10.000000 -6.534840
v 95.639033 -10.000000 -4.269393
v 97.269970 -10.000000 -2.387191
v 99.365120 -10.000000 -1.040720
v 101.754747 -10.000000 -0.339063
v 104.245256 -10.000000 -0.339063
v 106.634883 -10.000000 -1.040720
v 108.730033 -10.000000 -2.387191
v 110.360970 -10.000000 -4.269393
v 111.395565 -10.000000 -6.534840
v 111.750002 -10.000000 -9.000000
v 111.395565 -10.000000 -11.465160
v 110.360970 -10.000000 -13.730607
v 108.730033 -10.000000 -15.612809
v 106.634883 -10.000000 -16.959280
v 104.245256 -10.000000 -17.660938
v 101.754747 -10.000000 -17.660938
v 99.365120 -10.000000 -16.959280
v 97.269970 -10.000000 -15.612809
v 95.639033 -10.000000 -13.730607
v 94.604438 -10.000000 -11.465160
v 94.250002 -8.000000 -9.000000
v 94.604438 -8.000000 -11.465160
v 95.639033 -8.000000 -13.730607
v 97.269970 -8.000000 -15.612809
v 99.365120 -8.000000 -16.959280
v 101.754747 -8.000000 -17.660938
v 104.245256 -8.000000 -17.660938
v 106.634883 -8.000000 -16.959280
v 108.730033 -8.000000 -15.612809
v 110.360970 -8.000000 -13.730607
v 111.395565 -8.000000 -11.465160
v 111.750002 -8.000000 -9.000000
v 111.395565 -8.000000 -6.534840
v 110.360970 -8.000000 -4.269393
v 108.730033 -8.000000 -2.387191
v 106.634883 -8.000000 -1.040720
v 104.245256 -8.000000 -0.339063
v 101.754747 -8.000000 -0.339063
v 99.365120 -8.000000 -1.040720
v 97.269970 -8.000000 -2.387191
v 95.639033 -8.000000 -4.269393
v 94.604438 -8.000000 -6.534840
vt 0.200000 -2.202855 0.000000
vt -0.000000 -2.202855 0.000000
vt 0.200000 -2.434734 0.000000
vt -0.000000 -2.434734 0.000000
vt 0.200000 2.434734 0.000000
vt -0.000000 2.434734 0.000000
vt 0.200000 2.202855 0.000000
vt 0.000000 2.202855 0.000000
vt 0.200000 1.970975 0.000000
vt 0.000000 1.970975 0.000000
vt 0.200000 1.739096 0.000000
vt -0.000000 1.739096 0.000000
vt 0.200000 1.507216 0.000000
vt -0.000000 1.507216 0.000000
vt 0.200000 1.275337 0.000000
vt 0.000000 1.275337 0.000000
vt 0.200000 1.043458 0.000000
vt -0.000000 1.043458 0.000000
vt 0.200000 0.811578 0.000000
vt 0.000000 0.811578 0.000000
vt 0.200000 0.579699 0.000000
vt 0.000000 0.579699 0.000000
vt 0.200000 0.347819 0.000000
vt 0.000000 0.347819 0.000000
vt 0.200000 0.115940 0.000000
vt 0.000000 0.115940 0.000000
vt 0.200000 -0.115940 0.000000
vt 0.000000 -0.115940 0.000000
vt 0.200000 -0.347819 0.000000
vt 0.000000 -0.347819 0.000000
vt 0.200000 -0.579699 0.000000
vt 0.000000 -0.579699 0.000000
vt 0.200000 -0.811578 0.000000
vt -0.000000 -0.811578 0.000000
vt 0.200000 -1.043458 0.000000
vt -0.000000 -1.043458 0.000000
vt 0.200000 -1.275337 0.000000
vt -0.000000 -1.275337 0.000000
vt 0.200000 -1.507216 0.000000
vt -0.000000 -1.507216 0.000000
vt 0.200000 -1.739096 0.000000
vt -0.000000 -1.739096 0.000000
vt 0.200000 -1.970975 0.000000
vt -0.000000 -1.970975 0.000000
vt -0.200000 2.498994 0.000000
vt -0.000000 2.498994 0.000000
vt -0.200000 2.748894 0.000000
vt 0.000000 2.748894 0.000000
vt -0.200000 -2.748894 0.000000
vt 0.000000 -2.748894 0.000000
vt -0.200000 -2.498994 0.000000
vt -0.000000 -2.498994 0.000000
vt -0.200000 -2.249095 0.000000
vt 0.000000 -2.249095 0.000000
vt -0.200000 -1.999195 0.000000
vt -0.000000 -1.999195 0.000000
vt -0.200000 -1.749296 0.000000
vt -0.000000 -1.749296 0.000000
vt -0.200000 -1.499396 0.000000
vt -0.000000 -1.499396 0.000000
vt -0.200000 -1.249497 0.000000
vt -0.000000 -1.249497 0.000000
vt -0.200000 -0.999598 0.000000
vt -0.000000 -0.999598 0.000000
vt -0.200000 -0.749698 0.000000
vt -0.000000 -0.749698 0.000000
vt -0.200000 -0.499799 0.000000
vt -0.000000 -0.499799 0.000000
vt -0.200000 -0.249899 0.000000
vt -0.000000 -0.249899 0.000000
vt -0.200000 0.000000 0.000000
vt -0.000000 0.000000 0.000000
vt -0.200000 0.249899 0.000000
vt -0.000000 0.249899 0.000000
vt -0.200000 0.499799 0.000000
vt -0.000000 0.499799 0.000000
vt -0.200000 0.749698 0.000000
vt -0.000000 0.749698 0.000000
vt -0.200000 0.999598 0.000000
vt -0.000000 0.999598 0.000000
vt -0.200000 1.249497 0.000000
vt -0.000000 1.249497 0.000000
vt -0.200000 1.499396 0.000000
vt -0.000000 1.499396 0.000000
vt -0.200000 1.749296 0.000000
vt -0.000000 1.749296 0.000000
vt -0.200000 1.999195 0.000000
vt -0.000000 1.999195 0.000000
vt -0.200000 2.249095 0.000000
vt -0.000000 2.249095 0.000000
vt -0.740569 0.228435 0.000000
vt -0.839556 0.246516 0.000000
vt -0.775000 -0.000000 0.000000
vt -0.875000 -0.000000 0.000000
vt -0.839556 -0.246516 0.000000
vt -0.736097 0.473061 0.000000
vt -0.640335 0.436573 0.000000
vt -0.573003 0.661281 0.000000
vt -0.483205 0.605919 0.000000
vt -0.363488 0.795928 0.000000
vt -0.283139 0.721427 0.000000
vt -0.124525 0.866094 0.000000
vt -0.057916 0.772833 0.000000
vt 0.124525 0.866094 0.000000
vt 0.172454 0.755569 0.000000
vt 0.363488 0.795928 0.000000
vt 0.387500 0.671170 0.000000
vt 0.573003 0.661281 0.000000
vt 0.568115 0.527134 0.000000
vt 0.736097 0.473061 0.000000
vt 0.698251 0.336260 0.000000
vt 0.839556 0.246516 0.000000
vt 0.766344 0.115508 0.000000
vt 0.875000 0.000000 0.000000
vt 0.766344 -0.115508 0.000000
vt 0.839556 -0.246516 0.000000
vt 0.698251 -0.336260 0.000000
vt 0.736097 -0.473061 0.000000
vt 0.568115 -0.527134 0.000000
vt 0.573003 -0.661281 0.000000
vt 0.387500 -0.671170 0.000000
vt 0.363488 -0.795928 0.000000
vt 0.172454 -0.755569 0.000000
vt 0.124525 -0.866094 0.000000
vt -0.057916 -0.772833 0.000000
vt -0.124525 -0.866094 0.000000
vt -0.283139 -0.721427 0.000000
vt -0.363488 -0.795928 0.000000
vt -0.483205 -0.605919 0.000000
vt -0.573003 -0.661281 0.000000
vt -0.640335 -0.436573 0.000000
vt -0.736097 -0.473061 0.000000
vt -0.740569 -0.228435 0.000000
vt 0.740569 -0.228435 0.000000
vt 0.839556 -0.246516 0.000000
vt 0.775000 -0.000000 0.000000
vt 0.875000 -0.000000 0.000000
vt 0.839556 0.246516 0.000000
vt 0.736097 -0.473061 0.000000
vt 0.640335 -0.436573 0.000000
vt 0.573003 -0.661281 0.000000
vt 0.483205 -0.605919 0.000000
vt 0.363488 -0.795928 0.000000
vt 0.283139 -0.721427 0.000000
vt 0.124525 -0.866094 0.000000
vt 0.057916 -0.772833 0.000000
vt -0.124525 -0.866094 0.000000
vt -0.172454 -0.755569 0.000000
vt -0.363488 -0.795928 0.000000
vt -0.387500 -0.671170 0.000000
vt -0.573003 -0.661281 0.000000
vt -0.568115 -0.527134 0.000000
vt -0.736097 -0.473061 0.000000
vt -0.698251 -0.336260 0.000000
vt -0.839556 -0.246516 0.000000
vt -0.766344 -0.115508 0.000000
vt -0.875000 0.000000 0.000000
vt -0.766344 0.115508 0.000000
vt -0.839556 0.246516 0.000000
vt -0.698251 0.336260 0.000000
vt -0.736097 0.473061 0.000000
vt -0.568115 0.527134 0.000000
vt -0.573003 0.661281 0.000000
vt -0.387500 0.671170 0.000000
vt -0.363488 0.795928 0.000000
vt -0.172454 0.755569 0.000000
vt -0.124525 0.866094 0.000000
vt 0.057916 0.772833 0.000000
vt 0.124525 0.866094 0.000000
vt 0.283139 0.721427 0.000000
vt 0.363488 0.795928 0.000000
vt 0.483205 0.605919 0.000000
vt 0.573003 0.661281 0.000000
vt 0.640335 0.436573 0.000000
vt 0.736097 0.473061 0.000000
vt 0.740569 0.228435 0.000000
vn 0.095557 0.000000 0.029476
vn 0.095557 0.000000 0.029476
vn 0.100000 0.000000 0.000000
vn 0.100000 0.000000 0.000000
vn 0.095557 0.000000 -0.029476
vn 0.095557 0.000000 -0.029476
vn 0.082624 0.000000 -0.056332
vn 0.082624 0.000000 -0.056332
vn 0.062349 0.000000 -0.078183
vn 0.062349 0.000000 -0.078183
vn 0.036534 0.000000 -0.093087
vn 0.036534 0.000000 -0.093087
vn 0.007473 0.000000 -0.099720
vn 0.007473 0.000000 -0.099720
vn -0.022252 0.000000 -0.097493
vn -0.022252 0.000000 -0.097493
vn -0.050000 0.000000 -0.086603
vn -0.050000 0.000000 -0.086603
vn -0.073305 0.000000 -0.068017
vn -0.073305 0.000000 -0.068017
vn -0.090097 0.000000 -0.043388
vn -0.090097 0.000000 -0.043388
vn -0.098883 0.000000 -0.014904
vn -0.098883 0.000000 -0.014904
vn -0.098883 0.000000 0.014904
vn -0.098883 0.000000 0.014904
vn -0.090097 0.000000 0.043388
vn -0.090097 0.000000 0.043388
vn -0.073305 0.000000 0.068017
vn -0.073305 0.000000 0.068017
vn -0.050000 0.000000 0.086603
vn -0.050000 0.000000 0.086603
vn -0.022252 0.000000 0.097493
vn -0.022252 0.000000 0.097493
vn 0.007473 0.000000 0.099720
vn 0.007473 0.000000 0.099720
vn 0.036534 0.000000 0.093087
vn 0.036534 0.000000 0.093087
vn 0.062349 0.000000 0.078183
vn 0.062349 0.000000 0.078183
vn 0.082624 0.000000 0.056332
vn 0.082624 0.000000 0.056332
vn -0.095949 0.000000 0.028173
vn -0.095949 0.000000 0.028173
vn -0.100000 0.000000 0.000000
vn -0.100000 0.000000 0.000000
vn -0.095949 0.000000 -0.028173
vn -0.095949 0.000000 -0.028173
vn -0.084125 0.000000 -0.054064
vn -0.084125 0.000000 -0.054064
vn -0.065486 0.000000 -0.075575
vn -0.065486 0.000000 -0.075575
vn -0.041542 0.000000 -0.090963
vn -0.041542 0.000000 -0.090963
vn -0.014231 0.000000 -0.098982
vn -0.014231 0.000000 -0.098982
vn 0.014231 0.000000 -0.098982
vn 0.014231 0.000000 -0.098982
vn 0.041542 0.000000 -0.090963
vn 0.041542 0.000000 -0.090963
vn 0.065486 0.000000 -0.075575
vn 0.065486 0.000000 -0.075575
vn 0.084125 0.000000 -0.054064
vn 0.084125 0.000000 -0.054064
vn 0.095949 0.000000 -0.028173
vn 0.095949 0.000000 -0.028173
vn 0.100000 0.000000 0.000000
vn 0.100000 0.000000 0.000000
vn 0.095949 0.000000 0.028173
vn 0.095949 0.000000 0.028173
vn 0.084125 0.000000 0.054064
vn 0.084125 0.000000 0.054064
vn 0.065486 0.000000 0.075575
vn 0.065486 0.000000 0.075575
vn 0.041542 0.000000 0.090963
vn 0.041542 0.000000 0.090963
vn 0.014231 0.000000 0.098982
vn 0.014231 0.000000 0.098982
vn -0.014231 0.000000 0.098982
vn -0.014231 0.000000 0.098982
vn -0.041542 0.000000 0.090963
vn -0.041542 0.000000 0.090963
vn -0.065486 0.000000 0.075575
vn -0.065486 0.000000 0.075575
vn -0.084125 0.000000 0.054064
vn -0.084125 0.000000 0.054064
vn 0.000000 -0.100000 0.000000
vn 0.000000 -0.100000 0.000000
vn 0.000000 -0.100000 0.000000
vn 0.000000 -0.100000 0.000000
vn 0.000000 -0.100000 0.000000
vn 0.000000 -0.100000 0.000000
vn 0.000000 -0.100000 0.000000
vn 0.000000 -0.100000 0.000000
vn 0.000000 -0.100000 0.000000
vn 0.000000 -0.100000 0.000000
vn 0.000000 -0.100000 0.000000
vn 0.000000 -0.100000 0.000000
vn 0.000000 -0.100000 0.000000
vn 0.000000 -0.100000 0.000000
vn 0.000000 -0.100000 0.000000
vn 0.000000 -0.100000 0.000000
vn 0.000000 -0.100000 0.000000
vn 0.000000 -0.100000 0.000000
vn 0.000000 -0.100000 0.000000
vn 0.000000 -0.100000 0.000000
vn 0.000000 -0.100000 0.000000
vn 0.000000 -0.100000 0.000000
vn 0.000000 -0.100000 0.000000
vn 0.000000 -0.100000 0.000000
vn 0.000000 -0.100000 0.000000
vn 0.000000 -0.100000 0.000000
vn 0.000000 -0.100000 0.000000
vn 0.000000 -0.100000 0.000000
vn 0.000000 -0.100000 0.000000
vn 0.000000 -0.100000 0.000000
vn 0.000000 -0.100000 0.000000
vn 0.000000 -0.100000 0.000000
vn 0.000000 -0.100000 0.000000
vn 0.000000 -0.100000 0.000000
vn 0.000000 -0.100000 0.000000
vn 0.000000 -0.100000 0.000000
vn 0.000000 -0.100000 0.000000
vn 0.000000 -0.100000 0.000000
vn 0.000000 -0.100000 0.000000
vn 0.000000 -0.100000 0.000000
vn 0.000000 -0.100000 0.000000
vn 0.000000 -0.100000 0.000000
vn 0.000000 -0.100000 0.000000
vn -0.000000 0.100000 -0.000000
vn -0.000000 0.100000 -0.000000
vn -0.000000 0.100000 -0.000000
vn -0.000000 0.100000 -0.000000
vn -0.000000 0.100000 -0.000000
vn -0.000000 0.100000 -0.000000
vn -0.000000 0.100000 -0.000000
vn -0.000000 0.100000 -0.000000
vn -0.000000 0.100000 -0.000000
vn -0.000000 0.100000 -0.000000
vn -0.000000 0.100000 -0.000000
vn -0.000000 0.100000 -0.000000
vn -0.000000 0.100000 -0.000000
vn -0.000000 0.100000 -0.000000
vn -0.000000 0.100000 -0.000000
vn -0.000000 0.100000 -0.000000
vn -0.000000 0.100000 -0.000000
vn -0.000000 0.100000 -0.000000
vn -0.000000 0.100000 -0.000000
vn -0.000000 0.100000 -0.000000
vn -0.000000 0.100000 -0.000000
vn -0.000000 0.100000 -0.000000
vn -0.000000 0.100000 -0.000000
vn -0.000000 0.100000 -0.000000
vn -0.000000 0.100000 -0.000000
vn -0.000000 0.100000 -0.000000
vn -0.000000 0.100000 -0.000000
vn -0.000000 0.100000 -0.000000
vn -0.000000 0.100000 -0.000000
vn -0.000000 0.100000 -0.000000
vn -0.000000 0.100000 -0.000000
vn -0.000000 0.100000 -0.000000
vn -0.000000 0.100000 -0.000000
vn -0.000000 0.100000 -0.000000
vn -0.000000 0.100000 -0.000000
vn -0.000000 0.100000 -0.000000
vn -0.000000 0.100000 -0.000000
vn -0.000000 0.100000 -0.000000
vn -0.000000 0.100000 -0.000000
vn -0.000000 0.100000 -0.000000
vn -0.000000 0.100000 -0.000000
vn -0.000000 0.100000 -0.000000
vn -0.000000 0.100000 -0.000000
usemtl Plastic_-_Matte_(Yellow)
f 2/1/1 42/2/2 1/3/3
f 1/3/3 42/2/2 22/4/4
f 1/5/3 22/6/4 21/7/5
f 21/7/5 22/6/4 23/8/6
f 21/7/5 23/8/6 20/9/7
f 20/9/7 23/8/6 24/10/8
f 20/9/7 24/10/8 19/11/9
f 19/11/9 24/10/8 25/12/10
f 19/11/9 25/12/10 18/13/11
f 18/13/11 25/12/10 26/14/12
f 18/13/11 26/14/12 17/15/13
f 17/15/13 26/14/12 27/16/14
f 17/15/13 27/16/14 16/17/15
f 16/17/15 27/16/14 28/18/16
f 16/17/15 28/18/16 15/19/17
f 15/19/17 28/18/16 29/20/18
f 15/19/17 29/20/18 14/21/19
f 14/21/19 29/20/18 30/22/20
f 14/21/19 30/22/20 13/23/21
f 13/23/21 30/22/20 31/24/22
f 13/23/21 31/24/22 12/25/23
f 12/25/23 31/24/22 32/26/24
f 12/25/23 32/26/24 11/27/25
f 11/27/25 32/26/24 33/28/26
f 11/27/25 33/28/26 10/29/27
f 10/29/27 33/28/26 34/30/28
f 10/29/27 34/30/28 9/31/29
f 9/31/29 34/30/28 35/32/30
f 9/31/29 35/32/30 8/33/31
f 8/33/31 35/32/30 36/34/32
f 8/33/31 36/34/32 7/35/33
f 7/35/33 36/34/32 37/36/34
f 7/35/33 37/36/34 6/37/35
f 6/37/35 37/36/34 38/38/36
f 6/37/35 38/38/36 5/39/37
f 5/39/37 38/38/36 39/40/38
f 5/39/37 39/40/38 4/41/39
f 4/41/39 39/40/38 40/42/40
f 4/41/39 40/42/40 3/43/41
f 3/43/41 40/42/40 41/44/42
f 3/43/41 41/44/42 2/1/1
f 2/1/1 41/44/42 42/2/2
f 44/45/43 86/46/44 43/47/45
f 43/47/45 86/46/44 65/48/46
f 43/49/45 65/50/46 64/51/47
f 64/51/47 65/50/46 66/52/48
f 64/51/47 66/52/48 63/53/49
f 63/53/49 66/52/48 67/54/50
f 63/53/49 67/54/50 62/55/51
f 62/55/51 67/54/50 68/56/52
f 62/55/51 68/56/52 61/57/53
f 61/57/53 68/56/52 69/58/54
f 61/57/53 69/58/54 60/59/55
f 60/59/55 69/58/54 70/60/56
f 60/59/55 70/60/56 59/61/57
f 59/61/57 70/60/56 71/62/58
f 59/61/57 71/62/58 58/63/59
f 58/63/59 71/62/58 72/64/60
f 58/63/59 72/64/60 57/65/61
f 57/65/61 72/64/60 73/66/62
f 57/65/61 73/66/62 56/67/63
f 56/67/63 73/66/62 74/68/64
f 56/67/63 74/68/64 55/69/65
f 55/69/65 74/68/64 75/70/66
f 55/69/65 75/70/66 54/71/67
f 54/71/67 75/70/66 76/72/68
f 54/71/67 76/72/68 53/73/69
f 53/73/69 76/72/68 77/74/70
f 53/73/69 77/74/70 52/75/71
f 52/75/71 77/74/70 78/76/72
f 52/75/71 78/76/72 51/77/73
f 51/77/73 78/76/72 79/78/74
f 51/77/73 79/78/74 50/79/75
f 50/79/75 79/78/74 80/80/76
f 50/79/75 80/80/76 49/81/77
f 49/81/77 80/80/76 81/82/78
f 49/81/77 81/82/78 48/83/79
f 48/83/79 81/82/78 82/84/80
f 48/83/79 82/84/80 47/85/81
f 47/85/81 82/84/80 83/86/82
f 47/85/81 83/86/82 46/87/83
f 46/87/83 83/86/82 84/88/84
f 46/87/83 84/88/84 45/89/85
f 45/89/85 84/88/84 85/90/86
f 45/89/85 85/90/86 44/45/43
f 44/45/43 85/90/86 86/46/44
f 21/91/87 44/92/88 1/93/89
f 1/93/89 44/92/88 43/94/90
f 1/93/89 43/94/90 64/95/91
f 44/92/88 21/91/87 45/96/92
f 45/96/92 21/91/87 20/97/93
f 45/96/92 20/97/93 46/98/94
f 46/98/94 20/97/93 19/99/95
f 46/98/94 19/99/95 47/100/96
f 47/100/96 19/99/95 18/101/97
f 47/100/96 18/101/97 48/102/98
f 48/102/98 18/101/97 17/103/99
f 48/102/98 17/103/99 49/104/100
f 49/104/100 17/103/99 16/105/101
f 49/104/100 16/105/101 50/106/102
f 50/106/102 16/105/101 15/107/103
f 50/106/102 15/107/103 51/108/104
f 51/108/104 15/107/103 14/109/105
f 51/108/104 14/109/105 52/110/106
f 52/110/106 14/109/105 13/111/107
f 52/110/106 13/111/107 53/112/108
f 53/112/108 13/111/107 12/113/109
f 53/112/108 12/113/109 54/114/110
f 54/114/110 12/113/109 11/115/111
f 54/114/110 11/115/111 55/116/112
f 55/116/112 11/115/111 10/117/113
f 55/116/112 10/117/113 56/118/114
f 56/118/114 10/117/113 9/119/115
f 56/118/114 9/119/115 57/120/116
f 57/120/116 9/119/115 8/121/117
f 57/120/116 8/121/117 58/122/118
f 58/122/118 8/121/117 7/123/119
f 58/122/118 7/123/119 59/124/120
f 59/124/120 7/123/119 6/125/121
f 59/124/120 6/125/121 60/126/122
f 60/126/122 6/125/121 5/127/123
f 60/126/122 5/127/123 61/128/124
f 61/128/124 5/127/123 4/129/125
f 61/128/124 4/129/125 62/130/126
f 62/130/126 4/129/125 3/131/127
f 62/130/126 3/131/127 63/132/128
f 63/132/128 3/131/127 2/133/129
f 63/132/128 2/133/129 64/95/91
f 64/95/91 2/133/129 1/93/89
f 42/134/130 66/135/131 22/136/132
f 22/136/132 66/135/131 65/137/133
f 22/136/132 65/137/133 86/138/134
f 66/135/131 42/134/130 67/139/135
f 67/139/135 42/134/130 41/140/136
f 67/139/135 41/140/136 68/141/137
f 68/141/137 41/140/136 40/142/138
f 68/141/137 40/142/138 69/143/139
f 69/143/139 40/142/138 39/144/140
f 69/143/139 39/144/140 70/145/141
f 70/145/141 39/144/140 38/146/142
f 70/145/141 38/146/142 71/147/143
f 71/147/143 38/146/142 37/148/144
f 71/147/143 37/148/144 72/149/145
f 72/149/145 37/148/144 36/150/146
f 72/149/145 36/150/146 73/151/147
f 73/151/147 36/150/146 35/152/148
f 73/151/147 35/152/148 74/153/149
f 74/153/149 35/152/148 34/154/150
f 74/153/149 34/154/150 75/155/151
f 75/155/151 34/154/150 33/156/152
f 75/155/151 33/156/152 76/157/153
f 76/157/153 33/156/152 32/158/154
f 76/157/153 32/158/154 77/159/155
f 77/159/155 32/158/154 31/160/156
f 77/159/155 31/160/156 78/161/157
f 78/161/157 31/160/156 30/162/158
f 78/161/157 30/162/158 79/163/159
f 79/163/159 30/162/158 29/164/160
f 79/163/159 29/164/160 80/165/161
f 80/165/161 29/164/160 28/166/162
f 80/165/161 28/166/162 81/167/163
f 81/167/163 28/166/162 27/168/164
f 81/167/163 27/168/164 82/169/165
f 82/169/165 27/168/164 26/170/166
f 82/169/165 26/170/166 83/171/167
f 83/171/167 26/170/166 25/172/168
f 83/171/167 25/172/168 84/173/169
f 84/173/169 25/172/168 24/174/170
f 84/173/169 24/174/170 85/175/171
f 85/175/171 24/174/170 23/176/172
f 85/175/171 23/176/172 86/138/134
f 86/138/134 23/176/172 22/136/132
# 86 vertices
# 176 texture params
# 172 normals
# 172 facets

# 1 groups
