# WaveFront *.obj file (generated by Autodesk ATF)

mtllib _OneXPlayerMini v85_Start_OneXPlayerMini v85.mtl

g Start

v 91.693189 -11.000000 36.999632
v 91.854495 -11.000000 36.891071
v 91.962194 -11.000000 36.729187
v 92.000000 -11.000000 36.538462
v 92.000000 -10.000000 36.538462
v 91.962194 -10.000000 36.729187
v 91.854495 -10.000000 36.891071
v 91.693189 -10.000000 36.999632
v 89.469441 -10.000000 37.931184
v 89.469441 -11.000000 37.931184
v 92.000000 -10.000000 31.461538
v 91.962194 -10.000000 31.270813
v 91.854495 -10.000000 31.108929
v 91.693189 -10.000000 31.000368
v 89.469441 -10.000000 30.068816
v 89.306121 -10.000000 30.030879
v 89.139441 -10.000000 30.049068
v 88.988146 -10.000000 30.121337
v 88.211893 -10.000000 30.668611
v 88.098298 -10.000000 30.779543
v 88.025210 -10.000000 30.920498
v 88.000000 -10.000000 31.077260
v 88.000000 -10.000000 36.922739
v 88.025210 -10.000000 37.079502
v 88.098298 -10.000000 37.220456
v 88.211893 -10.000000 37.331389
v 88.988146 -10.000000 37.878663
v 89.139441 -10.000000 37.950932
v 89.306121 -10.000000 37.969121
v 88.988146 -11.000000 37.878663
v 89.139441 -11.000000 37.950932
v 89.306121 -11.000000 37.969121
v 88.211893 -11.000000 37.331389
v 88.000000 -11.000000 36.922739
v 88.025210 -11.000000 37.079502
v 88.098298 -11.000000 37.220456
v 88.000000 -11.000000 31.077260
v 88.211893 -11.000000 30.668611
v 88.098298 -11.000000 30.779543
v 88.025210 -11.000000 30.920498
v 88.988146 -11.000000 30.121337
v 92.000000 -11.000000 31.461538
v 91.962194 -11.000000 31.270813
v 91.854495 -11.000000 31.108929
v 91.693189 -11.000000 31.000368
v 89.469441 -11.000000 30.068816
v 89.306121 -11.000000 30.030879
v 89.139441 -11.000000 30.049068
vt -0.000000 0.029352 0.000000
vt -0.100000 0.029352 0.000000
vt -0.000000 0.009784 0.000000
vt -0.100000 0.009784 0.000000
vt -0.000000 -0.009784 0.000000
vt -0.100000 -0.009784 0.000000
vt -0.000000 -0.029352 0.000000
vt -0.100000 -0.029352 0.000000
vt 0.033264 0.000000 0.000000
vt 0.274363 0.000000 0.000000
vt 0.033264 0.100000 0.000000
vt 0.274363 0.100000 0.000000
vt -0.185450 0.289107 0.000000
vt -0.200000 0.253846 0.000000
vt -0.169319 0.299963 0.000000
vt -0.169319 -0.299963 0.000000
vt 0.053056 -0.393118 0.000000
vt -0.196219 0.272919 0.000000
vt -0.200000 -0.253846 0.000000
vt -0.185450 -0.289107 0.000000
vt -0.196219 -0.272919 0.000000
vt 0.069388 -0.396912 0.000000
vt 0.101185 -0.387866 0.000000
vt 0.101185 0.387866 0.000000
vt 0.053056 0.393118 0.000000
vt 0.069388 0.396912 0.000000
vt 0.086056 0.395093 0.000000
vt 0.086056 -0.395093 0.000000
vt 0.178811 -0.333139 0.000000
vt 0.200000 -0.292274 0.000000
vt 0.200000 0.292274 0.000000
vt 0.178811 0.333139 0.000000
vt 0.190170 0.322046 0.000000
vt 0.197479 0.307950 0.000000
vt 0.190170 -0.322046 0.000000
vt 0.197479 -0.307950 0.000000
vt -0.000000 0.025270 0.000000
vt -0.100000 0.025270 0.000000
vt -0.000000 0.008423 0.000000
vt -0.100000 0.008423 0.000000
vt -0.100000 -0.008423 0.000000
vt -0.100000 -0.025270 0.000000
vt -0.000000 -0.025270 0.000000
vt -0.000000 -0.008423 0.000000
vt 0.027666 -0.000000 0.000000
vt 0.122644 -0.000000 0.000000
vt 0.027666 0.100000 0.000000
vt 0.122644 0.100000 0.000000
vt -0.000000 0.023918 0.000000
vt -0.100000 0.023918 0.000000
vt -0.000000 0.007973 0.000000
vt -0.100000 0.007973 0.000000
vt -0.100000 -0.007973 0.000000
vt -0.100000 -0.023918 0.000000
vt -0.000000 -0.023918 0.000000
vt -0.000000 -0.007973 0.000000
vt 0.025926 0.000000 0.000000
vt 0.610474 0.000000 0.000000
vt 0.025926 0.100000 0.000000
vt 0.610474 0.100000 0.000000
vt 0.000000 0.023918 0.000000
vt -0.100000 0.023918 0.000000
vt 0.000000 0.007973 0.000000
vt -0.100000 0.007973 0.000000
vt -0.100000 -0.007973 0.000000
vt -0.100000 -0.023918 0.000000
vt -0.000000 -0.023918 0.000000
vt 0.000000 -0.007973 0.000000
vt 0.025926 0.000000 0.000000
vt 0.120904 0.000000 0.000000
vt 0.025926 0.100000 0.000000
vt 0.120904 0.100000 0.000000
vt -0.000000 0.029352 0.000000
vt -0.100000 0.029352 0.000000
vt -0.000000 0.009784 0.000000
vt -0.100000 0.009784 0.000000
vt -0.000000 -0.009784 0.000000
vt -0.100000 -0.009784 0.000000
vt -0.000000 -0.029352 0.000000
vt -0.100000 -0.029352 0.000000
vt 0.540957 0.100000 0.000000
vt 0.033264 0.100000 0.000000
vt 0.540957 0.000000 0.000000
vt 0.033264 0.000000 0.000000
vt -0.000000 0.025270 0.000000
vt -0.100000 0.025270 0.000000
vt -0.000000 0.008423 0.000000
vt -0.100000 0.008423 0.000000
vt -0.100000 -0.008423 0.000000
vt -0.100000 -0.025270 0.000000
vt 0.000000 -0.025270 0.000000
vt -0.000000 -0.008423 0.000000
vt 0.268765 0.100000 0.000000
vt 0.027666 0.100000 0.000000
vt 0.268765 0.000000 0.000000
vt 0.027666 0.000000 0.000000
vt -0.272919 0.196219 0.000000
vt -0.289107 0.185450 0.000000
vt -0.253846 0.200000 0.000000
vt -0.299963 0.169319 0.000000
vt 0.299963 0.169319 0.000000
vt 0.393118 -0.053056 0.000000
vt -0.393118 -0.053056 0.000000
vt 0.387866 -0.101185 0.000000
vt -0.387866 -0.101185 0.000000
vt 0.292274 -0.200000 0.000000
vt -0.292274 -0.200000 0.000000
vt -0.333139 -0.178811 0.000000
vt -0.322046 -0.190170 0.000000
vt -0.396912 -0.069388 0.000000
vt -0.395093 -0.086056 0.000000
vt -0.307950 -0.197479 0.000000
vt 0.307950 -0.197479 0.000000
vt 0.322046 -0.190170 0.000000
vt 0.333139 -0.178811 0.000000
vt 0.395093 -0.086056 0.000000
vt 0.396912 -0.069388 0.000000
vt 0.253846 0.200000 0.000000
vt 0.289107 0.185450 0.000000
vt 0.272919 0.196219 0.000000
vn 0.038638 0.000000 0.092234
vn 0.038638 0.000000 0.092234
vn 0.070899 0.000000 0.070522
vn 0.070899 0.000000 0.070522
vn 0.092439 0.000000 0.038145
vn 0.092439 0.000000 0.038145
vn 0.100000 0.000000 0.000000
vn 0.100000 0.000000 0.000000
vn 0.038638 0.000000 0.092234
vn 0.038638 0.000000 0.092234
vn -0.000000 0.100000 -0.000000
vn -0.000000 0.100000 -0.000000
vn -0.000000 0.100000 -0.000000
vn -0.000000 0.100000 -0.000000
vn -0.000000 0.100000 -0.000000
vn -0.000000 0.100000 -0.000000
vn -0.000000 0.100000 -0.000000
vn -0.000000 0.100000 -0.000000
vn -0.000000 0.100000 -0.000000
vn -0.000000 0.100000 -0.000000
vn -0.000000 0.100000 -0.000000
vn -0.000000 0.100000 -0.000000
vn -0.000000 0.100000 -0.000000
vn -0.000000 0.100000 -0.000000
vn -0.000000 0.100000 -0.000000
vn -0.000000 0.100000 -0.000000
vn -0.000000 0.100000 -0.000000
vn -0.000000 0.100000 -0.000000
vn -0.000000 0.100000 -0.000000
vn -0.000000 0.100000 -0.000000
vn -0.000000 0.100000 -0.000000
vn -0.000000 0.100000 -0.000000
vn -0.000000 0.100000 -0.000000
vn -0.000000 0.100000 -0.000000
vn -0.057621 0.000000 0.081730
vn -0.057621 0.000000 0.081730
vn -0.027362 0.000000 0.096184
vn -0.027362 0.000000 0.096184
vn 0.005974 0.000000 0.099821
vn 0.005974 0.000000 0.099821
vn -0.057621 0.000000 0.081730
vn -0.057621 0.000000 0.081730
vn -0.100000 0.000000 0.000000
vn -0.100000 0.000000 0.000000
vn -0.094958 0.000000 0.031352
vn -0.094958 0.000000 0.031352
vn -0.080340 0.000000 0.059543
vn -0.080340 0.000000 0.059543
vn -0.100000 0.000000 -0.000000
vn -0.100000 0.000000 -0.000000
vn -0.057621 0.000000 -0.081730
vn -0.057621 0.000000 -0.081730
vn -0.080340 0.000000 -0.059543
vn -0.080340 0.000000 -0.059543
vn -0.094958 0.000000 -0.031352
vn -0.094958 0.000000 -0.031352
vn -0.057621 0.000000 -0.081730
vn -0.057621 0.000000 -0.081730
vn 0.100000 0.000000 0.000000
vn 0.100000 0.000000 0.000000
vn 0.092439 0.000000 -0.038145
vn 0.092439 0.000000 -0.038145
vn 0.070899 0.000000 -0.070522
vn 0.070899 0.000000 -0.070522
vn 0.038638 0.000000 -0.092234
vn 0.038638 0.000000 -0.092234
vn 0.038638 0.000000 -0.092234
vn 0.038638 0.000000 -0.092234
vn 0.005974 0.000000 -0.099821
vn 0.005974 0.000000 -0.099821
vn -0.027362 0.000000 -0.096184
vn -0.027362 0.000000 -0.096184
vn 0.000000 -0.100000 0.000000
vn 0.000000 -0.100000 0.000000
vn 0.000000 -0.100000 0.000000
vn 0.000000 -0.100000 0.000000
vn 0.000000 -0.100000 0.000000
vn 0.000000 -0.100000 0.000000
vn 0.000000 -0.100000 0.000000
vn 0.000000 -0.100000 0.000000
vn 0.000000 -0.100000 0.000000
vn 0.000000 -0.100000 0.000000
vn 0.000000 -0.100000 0.000000
vn 0.000000 -0.100000 0.000000
vn 0.000000 -0.100000 0.000000
vn 0.000000 -0.100000 0.000000
vn 0.000000 -0.100000 0.000000
vn 0.000000 -0.100000 0.000000
vn 0.000000 -0.100000 0.000000
vn 0.000000 -0.100000 0.000000
vn 0.000000 -0.100000 0.000000
vn 0.000000 -0.100000 0.000000
vn 0.000000 -0.100000 0.000000
vn 0.000000 -0.100000 0.000000
vn 0.000000 -0.100000 0.000000
vn 0.000000 -0.100000 0.000000
usemtl ABS_(White)
f 8/1/1 1/2/2 7/3/3
f 7/3/3 1/2/2 2/4/4
f 7/3/3 2/4/4 6/5/5
f 6/5/5 2/4/4 3/6/6
f 6/5/5 3/6/6 5/7/7
f 5/7/7 3/6/6 4/8/8
f 8/9/1 9/10/9 1/11/2
f 1/11/2 9/10/9 10/12/10
f 7/13/11 5/14/12 8/15/13
f 8/15/13 5/14/12 14/16/14
f 8/15/13 14/16/14 15/17/15
f 7/13/11 6/18/16 5/14/12
f 5/14/12 11/19/17 14/16/14
f 14/16/14 11/19/17 13/20/18
f 13/20/18 11/19/17 12/21/19
f 16/22/20 18/23/21 15/17/15
f 15/17/15 18/23/21 27/24/22
f 15/17/15 27/24/22 9/25/23
f 9/25/23 27/24/22 29/26/24
f 29/26/24 27/24/22 28/27/25
f 16/22/20 17/28/26 18/23/21
f 19/29/27 22/30/28 18/23/21
f 18/23/21 22/30/28 23/31/29
f 18/23/21 23/31/29 27/24/22
f 27/24/22 23/31/29 26/32/30
f 26/32/30 23/31/29 25/33/31
f 25/33/31 23/31/29 24/34/32
f 19/29/27 20/35/33 22/30/28
f 22/30/28 20/35/33 21/36/34
f 9/25/23 8/15/13 15/17/15
f 27/37/35 30/38/36 28/39/37
f 28/39/37 30/38/36 31/40/38
f 28/39/37 31/40/38 32/41/39
f 10/42/10 9/43/9 32/41/39
f 32/41/39 9/43/9 29/44/40
f 32/41/39 29/44/40 28/39/37
f 27/45/35 26/46/41 30/47/36
f 30/47/36 26/46/41 33/48/42
f 23/49/43 34/50/44 24/51/45
f 24/51/45 34/50/44 35/52/46
f 24/51/45 35/52/46 36/53/47
f 33/54/42 26/55/41 36/53/47
f 36/53/47 26/55/41 25/56/48
f 36/53/47 25/56/48 24/51/45
f 23/57/43 22/58/49 34/59/44
f 34/59/44 22/58/49 37/60/50
f 19/61/51 38/62/52 20/63/53
f 20/63/53 38/62/52 39/64/54
f 20/63/53 39/64/54 40/65/55
f 37/66/50 22/67/49 40/65/55
f 40/65/55 22/67/49 21/68/56
f 40/65/55 21/68/56 20/63/53
f 19/69/51 18/70/57 38/71/52
f 38/71/52 18/70/57 41/72/58
f 11/73/59 42/74/60 12/75/61
f 12/75/61 42/74/60 43/76/62
f 12/75/61 43/76/62 13/77/63
f 13/77/63 43/76/62 44/78/64
f 13/77/63 44/78/64 14/79/65
f 14/79/65 44/78/64 45/80/66
f 4/81/8 42/82/60 5/83/7
f 5/83/7 42/82/60 11/84/59
f 15/85/67 46/86/68 16/87/69
f 16/87/69 46/86/68 47/88/70
f 16/87/69 47/88/70 48/89/71
f 41/90/58 18/91/57 48/89/71
f 48/89/71 18/91/57 17/92/72
f 48/89/71 17/92/72 16/87/69
f 45/93/66 46/94/68 14/95/65
f 14/95/65 46/94/68 15/96/67
f 3/97/73 2/98/74 4/99/75
f 4/99/75 2/98/74 1/100/76
f 4/99/75 1/100/76 45/101/77
f 45/101/77 1/100/76 46/102/78
f 46/102/78 1/100/76 10/103/79
f 46/102/78 10/103/79 41/104/80
f 41/104/80 10/103/79 30/105/81
f 41/104/80 30/105/81 37/106/82
f 37/106/82 30/105/81 34/107/83
f 34/107/83 30/105/81 33/108/84
f 34/107/83 33/108/84 36/109/85
f 10/103/79 32/110/86 30/105/81
f 30/105/81 32/110/86 31/111/87
f 36/109/85 35/112/88 34/107/83
f 40/113/89 39/114/90 37/106/82
f 37/106/82 39/114/90 38/115/91
f 37/106/82 38/115/91 41/104/80
f 48/116/92 47/117/93 41/104/80
f 41/104/80 47/117/93 46/102/78
f 4/99/75 45/101/77 42/118/94
f 42/118/94 45/101/77 44/119/95
f 42/118/94 44/119/95 43/120/96
# 48 vertices
# 120 texture params
# 96 normals
# 92 facets

# 1 groups
