# WaveFront *.obj file (generated by Autodesk ATF)

mtllib _OneXPlayerMini v62_StartIcon_OneXPlayerMini v62.mtl

g StartIcon

v 92.000000 -9.000000 41.750000
v 88.000000 -9.000000 41.750000
v 88.000000 -10.000000 41.750000
v 92.000000 -10.000000 41.750000
v 92.000000 -10.000000 41.250000
v 88.000000 -10.000000 41.250000
v 88.000000 -9.000000 42.250000
v 88.000000 -10.000000 42.250000
v 88.000000 -10.000000 42.750000
v 88.000000 -9.000000 42.750000
v 88.000000 -9.000000 43.250000
v 88.000000 -10.000000 43.250000
v 88.000000 -10.000000 43.750000
v 88.000000 -8.000000 43.750000
v 88.000000 -8.000000 41.250000
v 92.000000 -9.000000 42.750000
v 92.000000 -10.000000 42.750000
v 92.000000 -9.000000 42.250000
v 92.000000 -10.000000 42.250000
v 92.000000 -8.000000 43.750000
v 92.000000 -8.000000 41.250000
v 92.000000 -9.000000 43.250000
v 92.000000 -10.000000 43.250000
v 92.000000 -10.000000 43.750000
vt 0.000000 0.100000 0.000000
vt 0.400000 0.100000 0.000000
vt 0.000000 0.200000 0.000000
vt 0.400000 0.200000 0.000000
vt 0.025000 0.200000 0.000000
vt -0.025000 0.200000 0.000000
vt 0.025000 -0.200000 0.000000
vt -0.025000 -0.200000 0.000000
vt 0.150000 0.100000 0.000000
vt 0.250000 0.000000 0.000000
vt 0.200000 0.100000 0.000000
vt 0.250000 0.200000 0.000000
vt 0.200000 0.200000 0.000000
vt 0.150000 0.200000 0.000000
vt 0.100000 0.200000 0.000000
vt 0.100000 0.100000 0.000000
vt 0.000000 0.000000 0.000000
vt 0.050000 0.100000 0.000000
vt 0.000000 0.200000 0.000000
vt 0.050000 0.200000 0.000000
vt 0.000000 0.100000 0.000000
vt 0.400000 0.100000 0.000000
vt 0.000000 0.200000 0.000000
vt 0.400000 0.200000 0.000000
vt 0.000000 0.100000 0.000000
vt 0.400000 0.100000 0.000000
vt 0.000000 0.200000 0.000000
vt 0.400000 0.200000 0.000000
vt 0.025000 0.200000 0.000000
vt -0.025000 0.200000 0.000000
vt 0.025000 -0.200000 0.000000
vt -0.025000 -0.200000 0.000000
vt 0.200000 0.125000 0.000000
vt -0.200000 0.125000 0.000000
vt 0.200000 -0.125000 0.000000
vt -0.200000 -0.125000 0.000000
vt 0.075000 0.200000 0.000000
vt 0.025000 0.200000 0.000000
vt 0.075000 -0.200000 0.000000
vt 0.025000 -0.200000 0.000000
vt 0.000000 0.100000 0.000000
vt 0.400000 0.100000 0.000000
vt 0.000000 0.200000 0.000000
vt 0.400000 0.200000 0.000000
vt 0.025000 0.200000 0.000000
vt -0.025000 0.200000 0.000000
vt 0.025000 -0.200000 0.000000
vt -0.025000 -0.200000 0.000000
vt 0.250000 0.000000 0.000000
vt 0.100000 0.100000 0.000000
vt 0.000000 0.000000 0.000000
vt 0.050000 0.100000 0.000000
vt 0.000000 0.200000 0.000000
vt 0.050000 0.200000 0.000000
vt 0.250000 0.200000 0.000000
vt 0.200000 0.100000 0.000000
vt 0.150000 0.100000 0.000000
vt 0.100000 0.200000 0.000000
vt 0.150000 0.200000 0.000000
vt 0.200000 0.200000 0.000000
vt 0.000000 0.000000 0.000000
vt 0.400000 0.000000 0.000000
vt 0.000000 0.200000 0.000000
vt 0.400000 0.200000 0.000000
vt 0.000000 0.000000 0.000000
vt 0.400000 0.000000 0.000000
vt 0.000000 0.200000 0.000000
vt 0.400000 0.200000 0.000000
vt -0.025000 0.200000 0.000000
vt -0.075000 0.200000 0.000000
vt -0.025000 -0.200000 0.000000
vt -0.075000 -0.200000 0.000000
vn 0.000000 0.000000 0.100000
vn 0.000000 0.000000 0.100000
vn 0.000000 0.000000 0.100000
vn 0.000000 0.000000 0.100000
vn 0.000000 -0.100000 0.000000
vn 0.000000 -0.100000 0.000000
vn 0.000000 -0.100000 0.000000
vn 0.000000 -0.100000 0.000000
vn -0.100000 0.000000 0.000000
vn -0.100000 0.000000 0.000000
vn -0.100000 0.000000 0.000000
vn -0.100000 0.000000 0.000000
vn -0.100000 0.000000 0.000000
vn -0.100000 0.000000 0.000000
vn -0.100000 0.000000 0.000000
vn -0.100000 0.000000 0.000000
vn -0.100000 0.000000 0.000000
vn -0.100000 0.000000 0.000000
vn -0.100000 0.000000 0.000000
vn -0.100000 0.000000 0.000000
vn 0.000000 0.000000 0.100000
vn 0.000000 0.000000 0.100000
vn 0.000000 0.000000 0.100000
vn 0.000000 0.000000 0.100000
vn 0.000000 0.000000 -0.100000
vn 0.000000 0.000000 -0.100000
vn 0.000000 0.000000 -0.100000
vn 0.000000 0.000000 -0.100000
vn 0.000000 -0.100000 0.000000
vn 0.000000 -0.100000 0.000000
vn 0.000000 -0.100000 0.000000
vn 0.000000 -0.100000 0.000000
vn -0.000000 0.100000 -0.000000
vn -0.000000 0.100000 -0.000000
vn -0.000000 0.100000 -0.000000
vn -0.000000 0.100000 -0.000000
vn 0.000000 -0.100000 0.000000
vn 0.000000 -0.100000 0.000000
vn 0.000000 -0.100000 0.000000
vn 0.000000 -0.100000 0.000000
vn 0.000000 0.000000 -0.100000
vn 0.000000 0.000000 -0.100000
vn 0.000000 0.000000 -0.100000
vn 0.000000 0.000000 -0.100000
vn 0.000000 -0.100000 0.000000
vn 0.000000 -0.100000 0.000000
vn 0.000000 -0.100000 0.000000
vn 0.000000 -0.100000 0.000000
vn 0.100000 0.000000 0.000000
vn 0.100000 0.000000 0.000000
vn 0.100000 0.000000 0.000000
vn 0.100000 0.000000 0.000000
vn 0.100000 0.000000 0.000000
vn 0.100000 0.000000 0.000000
vn 0.100000 0.000000 0.000000
vn 0.100000 0.000000 0.000000
vn 0.100000 0.000000 0.000000
vn 0.100000 0.000000 0.000000
vn 0.100000 0.000000 0.000000
vn 0.100000 0.000000 0.000000
vn 0.000000 0.000000 -0.100000
vn 0.000000 0.000000 -0.100000
vn 0.000000 0.000000 -0.100000
vn 0.000000 0.000000 -0.100000
vn 0.000000 0.000000 0.100000
vn 0.000000 0.000000 0.100000
vn 0.000000 0.000000 0.100000
vn 0.000000 0.000000 0.100000
vn 0.000000 -0.100000 0.000000
vn 0.000000 -0.100000 0.000000
vn 0.000000 -0.100000 0.000000
vn 0.000000 -0.100000 0.000000
usemtl Plastic_-_Matte_(Yellow)
f 1/1/1 2/2/2 4/3/3
f 4/3/3 2/2/2 3/4/4
f 5/5/5 4/6/6 6/7/7
f 6/7/7 4/6/6 3/8/8
f 7/9/9 15/10/10 2/11/11
f 2/11/11 15/10/10 6/12/12
f 2/11/11 6/12/12 3/13/13
f 8/14/14 9/15/15 7/9/9
f 7/9/9 9/15/15 10/16/16
f 7/9/9 10/16/16 15/10/10
f 15/10/10 10/16/16 14/17/17
f 14/17/17 10/16/16 11/18/18
f 14/17/17 11/18/18 13/19/19
f 13/19/19 11/18/18 12/20/20
f 16/21/21 10/22/22 17/23/23
f 17/23/23 10/22/22 9/24/24
f 7/25/25 18/26/26 8/27/27
f 8/27/27 18/26/26 19/28/28
f 19/29/29 17/30/30 8/31/31
f 8/31/31 17/30/30 9/32/32
f 14/33/33 20/34/34 15/35/35
f 15/35/35 20/34/34 21/36/36
f 1/37/37 18/38/38 2/39/39
f 2/39/39 18/38/38 7/40/40
f 11/41/41 22/42/42 12/43/43
f 12/43/43 22/42/42 23/44/44
f 23/45/45 24/46/46 12/47/47
f 12/47/47 24/46/46 13/48/48
f 20/49/49 18/50/50 21/51/51
f 21/51/51 18/50/50 1/52/52
f 21/51/51 1/52/52 5/53/53
f 5/53/53 1/52/52 4/54/54
f 24/55/55 22/56/56 20/49/49
f 20/49/49 22/56/56 16/57/57
f 20/49/49 16/57/57 18/50/50
f 18/50/50 16/57/57 19/58/58
f 19/58/58 16/57/57 17/59/59
f 24/55/55 23/60/60 22/56/56
f 15/61/61 21/62/62 6/63/63
f 6/63/63 21/62/62 5/64/64
f 20/65/65 14/66/66 24/67/67
f 24/67/67 14/66/66 13/68/68
f 16/69/69 22/70/70 10/71/71
f 10/71/71 22/70/70 11/72/72
# 24 vertices
# 72 texture params
# 72 normals
# 44 facets

# 1 groups
