# WaveFront *.obj file (generated by Autodesk ATF)

mtllib _OneXPlayerMini v85_TurboIcon_OneXPlayerMini v85.mtl

g TurboIcon

v 93.144565 -9.000000 -32.770639
v 93.144565 -9.000000 -32.270639
v 93.144565 -11.100000 -32.270639
v 93.144565 -11.100000 -32.770639
v 92.844565 -9.000000 -32.770639
v 92.844565 -11.100000 -32.770639
v 92.844565 -9.000000 -32.270639
v 92.844565 -11.100000 -32.270639
v 90.144565 -9.000000 -33.270639
v 90.144565 -9.000000 -31.770639
v 90.144565 -11.100000 -31.770639
v 90.144565 -11.100000 -33.270639
v 89.844565 -9.000000 -33.270639
v 89.844565 -11.100000 -33.270639
v 89.844565 -9.000000 -31.770639
v 89.844565 -11.100000 -31.770639
v 92.394565 -9.000000 -33.020639
v 92.394565 -9.000000 -32.020639
v 92.394565 -11.100000 -32.020639
v 92.394565 -11.100000 -33.020639
v 92.094565 -9.000000 -33.020639
v 92.094565 -11.100000 -33.020639
v 92.094565 -9.000000 -32.020639
v 92.094565 -11.100000 -32.020639
v 90.894565 -9.000000 -33.520639
v 90.894565 -9.000000 -31.520639
v 90.894565 -11.100000 -31.520639
v 90.894565 -11.100000 -33.520639
v 90.594565 -9.000000 -33.520639
v 90.594565 -11.100000 -33.520639
v 90.594565 -9.000000 -31.520639
v 90.594565 -11.100000 -31.520639
v 91.644565 -9.000000 -33.270639
v 91.644565 -9.000000 -31.770639
v 91.644565 -11.100000 -31.770639
v 91.644565 -11.100000 -33.270639
v 91.344565 -9.000000 -33.270639
v 91.344565 -11.100000 -33.270639
v 91.344565 -9.000000 -31.770639
v 91.344565 -11.100000 -31.770639
v 89.494565 -8.000000 -33.664976
v 92.994565 -8.000000 -35.685702
v 92.994565 -9.000000 -35.685702
v 89.494565 -9.000000 -33.664976
v 89.244565 -8.000000 -33.231964
v 89.274719 -8.000000 -33.402974
v 89.361543 -8.000000 -33.553358
v 89.361543 -9.000000 -33.553358
v 89.274719 -9.000000 -33.402974
v 89.244565 -9.000000 -33.231964
v 89.244565 -8.000000 -31.809314
v 89.244565 -9.000000 -31.809314
v 89.494565 -8.000000 -31.376301
v 89.361543 -8.000000 -31.487920
v 89.274719 -8.000000 -31.638304
v 89.274719 -9.000000 -31.638304
v 89.361543 -9.000000 -31.487920
v 89.494565 -9.000000 -31.376301
v 92.994565 -8.000000 -29.355575
v 92.994565 -9.000000 -29.355575
v 93.744565 -8.000000 -29.788588
v 93.677578 -8.000000 -29.538588
v 93.494565 -8.000000 -29.355575
v 93.244565 -8.000000 -29.288588
v 93.244565 -9.000000 -29.288588
v 93.494565 -9.000000 -29.355575
v 93.677578 -9.000000 -29.538588
v 93.744565 -9.000000 -29.788588
v 93.744565 -8.000000 -35.252690
v 93.744565 -9.000000 -35.252690
v 93.244565 -8.000000 -35.752690
v 93.494565 -8.000000 -35.685702
v 93.677578 -8.000000 -35.502690
v 93.677578 -9.000000 -35.502690
v 93.494565 -9.000000 -35.685702
v 93.244565 -9.000000 -35.752690
vt 0.000000 0.000000 0.000000
vt 0.050000 0.000000 0.000000
vt 0.000000 0.210000 0.000000
vt 0.050000 0.210000 0.000000
vt 0.000000 0.000000 0.000000
vt 0.030000 0.000000 0.000000
vt 0.000000 0.210000 0.000000
vt 0.030000 0.210000 0.000000
vt 0.000000 0.000000 0.000000
vt 0.050000 0.000000 0.000000
vt 0.000000 0.210000 0.000000
vt 0.050000 0.210000 0.000000
vt -0.000000 0.000000 0.000000
vt 0.030000 0.000000 0.000000
vt 0.000000 0.210000 0.000000
vt 0.030000 0.210000 0.000000
vt -0.025000 -0.015000 0.000000
vt 0.025000 -0.015000 0.000000
vt -0.025000 0.015000 0.000000
vt 0.025000 0.015000 0.000000
vt 0.000000 0.000000 0.000000
vt 0.150000 0.000000 0.000000
vt 0.000000 0.210000 0.000000
vt 0.150000 0.210000 0.000000
vt 0.000000 0.000000 0.000000
vt 0.030000 0.000000 0.000000
vt 0.000000 0.210000 0.000000
vt 0.030000 0.210000 0.000000
vt -0.000000 0.000000 0.000000
vt 0.150000 -0.000000 0.000000
vt 0.000000 0.210000 0.000000
vt 0.150000 0.210000 0.000000
vt -0.000000 0.000000 0.000000
vt 0.030000 0.000000 0.000000
vt 0.000000 0.210000 0.000000
vt 0.030000 0.210000 0.000000
vt -0.075000 -0.015000 0.000000
vt 0.075000 -0.015000 0.000000
vt -0.075000 0.015000 0.000000
vt 0.075000 0.015000 0.000000
vt 0.000000 0.000000 0.000000
vt 0.100000 0.000000 0.000000
vt 0.000000 0.210000 0.000000
vt 0.100000 0.210000 0.000000
vt 0.000000 0.000000 0.000000
vt 0.030000 0.000000 0.000000
vt 0.000000 0.210000 0.000000
vt 0.030000 0.210000 0.000000
vt 0.000000 0.000000 0.000000
vt 0.100000 0.000000 0.000000
vt 0.000000 0.210000 0.000000
vt 0.100000 0.210000 0.000000
vt -0.000000 0.000000 0.000000
vt 0.030000 0.000000 0.000000
vt 0.000000 0.210000 0.000000
vt 0.030000 0.210000 0.000000
vt -0.050000 -0.015000 0.000000
vt 0.050000 -0.015000 0.000000
vt -0.050000 0.015000 0.000000
vt 0.050000 0.015000 0.000000
vt 0.000000 0.000000 0.000000
vt 0.200000 0.000000 0.000000
vt 0.000000 0.210000 0.000000
vt 0.200000 0.210000 0.000000
vt 0.000000 0.000000 0.000000
vt 0.030000 0.000000 0.000000
vt 0.000000 0.210000 0.000000
vt 0.030000 0.210000 0.000000
vt -0.000000 0.000000 0.000000
vt 0.200000 -0.000000 0.000000
vt 0.000000 0.210000 0.000000
vt 0.200000 0.210000 0.000000
vt -0.000000 0.000000 0.000000
vt 0.030000 0.000000 0.000000
vt 0.000000 0.210000 0.000000
vt 0.030000 0.210000 0.000000
vt -0.100000 -0.015000 0.000000
vt 0.100000 -0.015000 0.000000
vt -0.100000 0.015000 0.000000
vt 0.100000 0.015000 0.000000
vt 0.000000 0.000000 0.000000
vt 0.150000 0.000000 0.000000
vt 0.000000 0.210000 0.000000
vt 0.150000 0.210000 0.000000
vt 0.000000 0.000000 0.000000
vt 0.030000 0.000000 0.000000
vt 0.000000 0.210000 0.000000
vt 0.030000 0.210000 0.000000
vt -0.000000 0.000000 0.000000
vt 0.150000 -0.000000 0.000000
vt 0.000000 0.210000 0.000000
vt 0.150000 0.210000 0.000000
vt -0.000000 0.000000 0.000000
vt 0.030000 0.000000 0.000000
vt 0.000000 0.210000 0.000000
vt 0.030000 0.210000 0.000000
vt -0.075000 -0.015000 0.000000
vt 0.075000 -0.015000 0.000000
vt -0.075000 0.015000 0.000000
vt 0.075000 0.015000 0.000000
vt 0.000000 0.000000 0.000000
vt 0.404145 0.000000 0.000000
vt 0.000000 0.100000 0.000000
vt 0.404145 0.100000 0.000000
vt -0.100000 -0.026180 0.000000
vt -0.000000 -0.026180 0.000000
vt -0.100000 -0.008727 0.000000
vt -0.000000 -0.008727 0.000000
vt -0.000000 0.008727 0.000000
vt 0.000000 0.026180 0.000000
vt -0.100000 0.026180 0.000000
vt -0.100000 0.008727 0.000000
vt -0.000000 0.000000 0.000000
vt 0.142265 0.000000 0.000000
vt 0.000000 0.100000 0.000000
vt 0.142265 0.100000 0.000000
vt -0.100000 -0.026180 0.000000
vt -0.000000 -0.026180 0.000000
vt -0.100000 -0.008727 0.000000
vt -0.000000 -0.008727 0.000000
vt -0.000000 0.008727 0.000000
vt -0.000000 0.026180 0.000000
vt -0.100000 0.026180 0.000000
vt -0.100000 0.008727 0.000000
vt -0.000000 0.000000 0.000000
vt 0.404145 -0.000000 0.000000
vt 0.000000 0.100000 0.000000
vt 0.404145 0.100000 0.000000
vt -0.100000 -0.052360 0.000000
vt -0.000000 -0.052360 0.000000
vt -0.100000 -0.026180 0.000000
vt -0.000000 -0.026180 0.000000
vt -0.100000 0.000000 0.000000
vt -0.000000 0.000000 0.000000
vt -0.100000 0.026180 0.000000
vt -0.000000 0.026180 0.000000
vt -0.100000 0.052360 0.000000
vt -0.000000 0.052360 0.000000
vt 0.000000 0.000000 0.000000
vt 0.546410 0.000000 0.000000
vt 0.000000 0.100000 0.000000
vt 0.546410 0.100000 0.000000
vt -0.100000 -0.052360 0.000000
vt 0.000000 -0.052360 0.000000
vt -0.100000 -0.026180 0.000000
vt -0.000000 -0.026180 0.000000
vt -0.100000 -0.000000 0.000000
vt -0.000000 -0.000000 0.000000
vt -0.100000 0.026180 0.000000
vt -0.000000 0.026180 0.000000
vt -0.100000 0.052360 0.000000
vt -0.000000 0.052360 0.000000
vt 0.025000 0.165000 0.000000
vt -0.273205 0.225000 0.000000
vt -0.025000 0.165000 0.000000
vt -0.316506 0.150000 0.000000
vt -0.025000 0.135000 0.000000
vt -0.050000 0.090000 0.000000
vt 0.050000 0.090000 0.000000
vt 0.025000 0.135000 0.000000
vt 0.316506 0.150000 0.000000
vt 0.273205 0.225000 0.000000
vt 0.075000 -0.135000 0.000000
vt -0.100000 -0.090000 0.000000
vt -0.075000 -0.135000 0.000000
vt -0.114434 -0.200000 0.000000
vt -0.075000 -0.165000 0.000000
vt -0.103272 -0.213302 0.000000
vt -0.088233 -0.221985 0.000000
vt 0.075000 -0.165000 0.000000
vt 0.114434 -0.200000 0.000000
vt 0.100000 -0.090000 0.000000
vt 0.071132 -0.225000 0.000000
vt 0.088233 -0.221985 0.000000
vt 0.103272 -0.213302 0.000000
vt 0.050000 0.060000 0.000000
vt 0.075000 0.015000 0.000000
vt 0.100000 -0.060000 0.000000
vt 0.075000 -0.015000 0.000000
vt -0.075000 -0.015000 0.000000
vt -0.050000 0.060000 0.000000
vt -0.075000 0.015000 0.000000
vt -0.100000 -0.060000 0.000000
vt 0.323205 0.175000 0.000000
vt 0.316506 0.200000 0.000000
vt 0.298205 0.218301 0.000000
vt -0.298205 0.218301 0.000000
vt -0.316506 0.200000 0.000000
vt -0.323205 0.175000 0.000000
vt -0.071132 -0.225000 0.000000
vt -0.298205 0.218301 0.000000
vt -0.316506 0.200000 0.000000
vt -0.273205 0.225000 0.000000
vt -0.323205 0.175000 0.000000
vt -0.316506 0.150000 0.000000
vt -0.114434 -0.200000 0.000000
vt 0.114434 -0.200000 0.000000
vt 0.316506 0.150000 0.000000
vt 0.273205 0.225000 0.000000
vt 0.323205 0.175000 0.000000
vt 0.316506 0.200000 0.000000
vt -0.103272 -0.213302 0.000000
vt -0.071132 -0.225000 0.000000
vt 0.071132 -0.225000 0.000000
vt 0.103272 -0.213302 0.000000
vt 0.088233 -0.221985 0.000000
vt -0.088233 -0.221985 0.000000
vt 0.298205 0.218301 0.000000
vn 0.100000 0.000000 -0.000000
vn 0.100000 0.000000 -0.000000
vn 0.100000 0.000000 -0.000000
vn 0.100000 0.000000 -0.000000
vn 0.000000 0.000000 -0.100000
vn 0.000000 0.000000 -0.100000
vn 0.000000 0.000000 -0.100000
vn 0.000000 0.000000 -0.100000
vn -0.100000 0.000000 -0.000000
vn -0.100000 0.000000 -0.000000
vn -0.100000 0.000000 -0.000000
vn -0.100000 0.000000 -0.000000
vn 0.000000 0.000000 0.100000
vn 0.000000 0.000000 0.100000
vn 0.000000 0.000000 0.100000
vn 0.000000 0.000000 0.100000
vn 0.000000 -0.100000 0.000000
vn 0.000000 -0.100000 0.000000
vn 0.000000 -0.100000 0.000000
vn 0.000000 -0.100000 0.000000
vn 0.100000 0.000000 0.000000
vn 0.100000 0.000000 0.000000
vn 0.100000 0.000000 0.000000
vn 0.100000 0.000000 0.000000
vn -0.000000 0.000000 -0.100000
vn -0.000000 0.000000 -0.100000
vn -0.000000 0.000000 -0.100000
vn -0.000000 0.000000 -0.100000
vn -0.100000 0.000000 0.000000
vn -0.100000 0.000000 0.000000
vn -0.100000 0.000000 0.000000
vn -0.100000 0.000000 0.000000
vn 0.000000 0.000000 0.100000
vn 0.000000 0.000000 0.100000
vn 0.000000 0.000000 0.100000
vn 0.000000 0.000000 0.100000
vn 0.000000 -0.100000 0.000000
vn 0.000000 -0.100000 0.000000
vn 0.000000 -0.100000 0.000000
vn 0.000000 -0.100000 0.000000
vn 0.100000 0.000000 0.000000
vn 0.100000 0.000000 0.000000
vn 0.100000 0.000000 0.000000
vn 0.100000 0.000000 0.000000
vn -0.000000 0.000000 -0.100000
vn -0.000000 0.000000 -0.100000
vn -0.000000 0.000000 -0.100000
vn -0.000000 0.000000 -0.100000
vn -0.100000 0.000000 -0.000000
vn -0.100000 0.000000 -0.000000
vn -0.100000 0.000000 -0.000000
vn -0.100000 0.000000 -0.000000
vn 0.000000 0.000000 0.100000
vn 0.000000 0.000000 0.100000
vn 0.000000 0.000000 0.100000
vn 0.000000 0.000000 0.100000
vn 0.000000 -0.100000 0.000000
vn 0.000000 -0.100000 0.000000
vn 0.000000 -0.100000 0.000000
vn 0.000000 -0.100000 0.000000
vn 0.100000 0.000000 -0.000000
vn 0.100000 0.000000 -0.000000
vn 0.100000 0.000000 -0.000000
vn 0.100000 0.000000 -0.000000
vn 0.000000 0.000000 -0.100000
vn 0.000000 0.000000 -0.100000
vn 0.000000 0.000000 -0.100000
vn 0.000000 0.000000 -0.100000
vn -0.100000 0.000000 0.000000
vn -0.100000 0.000000 0.000000
vn -0.100000 0.000000 0.000000
vn -0.100000 0.000000 0.000000
vn 0.000000 0.000000 0.100000
vn 0.000000 0.000000 0.100000
vn 0.000000 0.000000 0.100000
vn 0.000000 0.000000 0.100000
vn 0.000000 -0.100000 0.000000
vn 0.000000 -0.100000 0.000000
vn 0.000000 -0.100000 0.000000
vn 0.000000 -0.100000 0.000000
vn 0.100000 0.000000 0.000000
vn 0.100000 0.000000 0.000000
vn 0.100000 0.000000 0.000000
vn 0.100000 0.000000 0.000000
vn 0.000000 0.000000 -0.100000
vn 0.000000 0.000000 -0.100000
vn 0.000000 0.000000 -0.100000
vn 0.000000 0.000000 -0.100000
vn -0.100000 0.000000 0.000000
vn -0.100000 0.000000 0.000000
vn -0.100000 0.000000 0.000000
vn -0.100000 0.000000 0.000000
vn 0.000000 0.000000 0.100000
vn 0.000000 0.000000 0.100000
vn 0.000000 0.000000 0.100000
vn 0.000000 0.000000 0.100000
vn 0.000000 -0.100000 0.000000
vn 0.000000 -0.100000 0.000000
vn 0.000000 -0.100000 0.000000
vn 0.000000 -0.100000 0.000000
vn -0.050000 0.000000 -0.086603
vn -0.050000 0.000000 -0.086603
vn -0.050000 0.000000 -0.086603
vn -0.050000 0.000000 -0.086603
vn -0.100000 0.000000 0.000000
vn -0.100000 0.000000 0.000000
vn -0.093969 0.000000 -0.034202
vn -0.093969 0.000000 -0.034202
vn -0.076604 0.000000 -0.064279
vn -0.076604 0.000000 -0.064279
vn -0.100000 0.000000 0.000000
vn -0.100000 0.000000 0.000000
vn -0.050000 0.000000 0.086603
vn -0.050000 0.000000 0.086603
vn -0.076604 0.000000 0.064279
vn -0.076604 0.000000 0.064279
vn -0.093969 0.000000 0.034202
vn -0.093969 0.000000 0.034202
vn -0.050000 0.000000 0.086603
vn -0.050000 0.000000 0.086603
vn 0.100000 0.000000 -0.000000
vn 0.100000 0.000000 -0.000000
vn 0.086603 0.000000 0.050000
vn 0.086603 0.000000 0.050000
vn 0.050000 0.000000 0.086603
vn 0.050000 0.000000 0.086603
vn 0.000000 0.000000 0.100000
vn 0.000000 0.000000 0.100000
vn 0.100000 0.000000 0.000000
vn 0.100000 0.000000 0.000000
vn 0.000000 0.000000 -0.100000
vn 0.000000 0.000000 -0.100000
vn 0.050000 0.000000 -0.086603
vn 0.050000 0.000000 -0.086603
vn 0.086603 0.000000 -0.050000
vn 0.086603 0.000000 -0.050000
vn 0.000000 -0.100000 0.000000
vn 0.000000 -0.100000 0.000000
vn 0.000000 -0.100000 0.000000
vn 0.000000 -0.100000 0.000000
vn 0.000000 -0.100000 0.000000
vn 0.000000 -0.100000 0.000000
vn 0.000000 -0.100000 0.000000
vn 0.000000 -0.100000 0.000000
vn 0.000000 -0.100000 0.000000
vn 0.000000 -0.100000 0.000000
vn 0.000000 -0.100000 0.000000
vn 0.000000 -0.100000 0.000000
vn 0.000000 -0.100000 0.000000
vn 0.000000 -0.100000 0.000000
vn 0.000000 -0.100000 0.000000
vn 0.000000 -0.100000 0.000000
vn 0.000000 -0.100000 0.000000
vn 0.000000 -0.100000 0.000000
vn 0.000000 -0.100000 0.000000
vn 0.000000 -0.100000 0.000000
vn 0.000000 -0.100000 0.000000
vn 0.000000 -0.100000 0.000000
vn 0.000000 -0.100000 0.000000
vn 0.000000 -0.100000 0.000000
vn 0.000000 -0.100000 0.000000
vn 0.000000 -0.100000 0.000000
vn 0.000000 -0.100000 0.000000
vn 0.000000 -0.100000 0.000000
vn 0.000000 -0.100000 0.000000
vn 0.000000 -0.100000 0.000000
vn 0.000000 -0.100000 0.000000
vn 0.000000 -0.100000 0.000000
vn 0.000000 -0.100000 0.000000
vn 0.000000 -0.100000 0.000000
vn 0.000000 -0.100000 0.000000
vn 0.000000 -0.100000 0.000000
vn 0.000000 -0.100000 0.000000
vn 0.000000 -0.100000 0.000000
vn 0.000000 0.100000 0.000000
vn 0.000000 0.100000 0.000000
vn 0.000000 0.100000 0.000000
vn 0.000000 0.100000 0.000000
vn 0.000000 0.100000 0.000000
vn 0.000000 0.100000 0.000000
vn 0.000000 0.100000 0.000000
vn 0.000000 0.100000 0.000000
vn 0.000000 0.100000 0.000000
vn 0.000000 0.100000 0.000000
vn 0.000000 0.100000 0.000000
vn 0.000000 0.100000 0.000000
vn 0.000000 0.100000 0.000000
vn 0.000000 0.100000 0.000000
vn 0.000000 0.100000 0.000000
vn 0.000000 0.100000 0.000000
vn 0.000000 0.100000 0.000000
vn 0.000000 0.100000 0.000000
usemtl Plastic_-_Glossy_(Black)
f 1/1/1 2/2/2 4/3/3
f 4/3/3 2/2/2 3/4/4
f 5/5/5 1/6/6 6/7/7
f 6/7/7 1/6/6 4/8/8
f 7/9/9 5/10/10 8/11/11
f 8/11/11 5/10/10 6/12/12
f 2/13/13 7/14/14 3/15/15
f 3/15/15 7/14/14 8/16/16
f 8/17/17 6/18/18 3/19/19
f 3/19/19 6/18/18 4/20/20
f 9/21/21 10/22/22 12/23/23
f 12/23/23 10/22/22 11/24/24
f 13/25/25 9/26/26 14/27/27
f 14/27/27 9/26/26 12/28/28
f 15/29/29 13/30/30 16/31/31
f 16/31/31 13/30/30 14/32/32
f 10/33/33 15/34/34 11/35/35
f 11/35/35 15/34/34 16/36/36
f 16/37/37 14/38/38 11/39/39
f 11/39/39 14/38/38 12/40/40
f 17/41/41 18/42/42 20/43/43
f 20/43/43 18/42/42 19/44/44
f 21/45/45 17/46/46 22/47/47
f 22/47/47 17/46/46 20/48/48
f 23/49/49 21/50/50 24/51/51
f 24/51/51 21/50/50 22/52/52
f 18/53/53 23/54/54 19/55/55
f 19/55/55 23/54/54 24/56/56
f 24/57/57 22/58/58 19/59/59
f 19/59/59 22/58/58 20/60/60
f 25/61/61 26/62/62 28/63/63
f 28/63/63 26/62/62 27/64/64
f 29/65/65 25/66/66 30/67/67
f 30/67/67 25/66/66 28/68/68
f 31/69/69 29/70/70 32/71/71
f 32/71/71 29/70/70 30/72/72
f 26/73/73 31/74/74 27/75/75
f 27/75/75 31/74/74 32/76/76
f 32/77/77 30/78/78 27/79/79
f 27/79/79 30/78/78 28/80/80
f 33/81/81 34/82/82 36/83/83
f 36/83/83 34/82/82 35/84/84
f 37/85/85 33/86/86 38/87/87
f 38/87/87 33/86/86 36/88/88
f 39/89/89 37/90/90 40/91/91
f 40/91/91 37/90/90 38/92/92
f 34/93/93 39/94/94 35/95/95
f 35/95/95 39/94/94 40/96/96
f 40/97/97 38/98/98 35/99/99
f 35/99/99 38/98/98 36/100/100
f 41/101/101 42/102/102 44/103/103
f 44/103/103 42/102/102 43/104/104
f 50/105/105 45/106/106 49/107/107
f 49/107/107 45/106/106 46/108/108
f 49/107/107 46/108/108 47/109/109
f 41/110/101 44/111/103 47/109/109
f 47/109/109 44/111/103 48/112/110
f 47/109/109 48/112/110 49/107/107
f 51/113/111 45/114/106 52/115/112
f 52/115/112 45/114/106 50/116/105
f 58/117/113 53/118/114 57/119/115
f 57/119/115 53/118/114 54/120/116
f 57/119/115 54/120/116 55/121/117
f 51/122/111 52/123/112 55/121/117
f 55/121/117 52/123/112 56/124/118
f 55/121/117 56/124/118 57/119/115
f 59/125/119 53/126/114 60/127/120
f 60/127/120 53/126/114 58/128/113
f 68/129/121 61/130/122 67/131/123
f 67/131/123 61/130/122 62/132/124
f 67/131/123 62/132/124 66/133/125
f 66/133/125 62/132/124 63/134/126
f 66/133/125 63/134/126 65/135/127
f 65/135/127 63/134/126 64/136/128
f 65/135/127 64/136/128 60/137/120
f 60/137/120 64/136/128 59/138/119
f 69/139/129 61/140/122 70/141/130
f 70/141/130 61/140/122 68/142/121
f 43/143/104 42/144/102 76/145/131
f 76/145/131 42/144/102 71/146/132
f 76/145/131 71/146/132 75/147/133
f 75/147/133 71/146/132 72/148/134
f 75/147/133 72/148/134 74/149/135
f 74/149/135 72/148/134 73/150/136
f 74/149/135 73/150/136 70/151/130
f 70/151/130 73/150/136 69/152/129
f 1/153/137 68/154/138 2/155/139
f 2/155/139 68/154/138 60/156/140
f 2/155/139 60/156/140 7/157/141
f 7/157/141 60/156/140 18/158/142
f 7/157/141 18/158/142 17/159/143
f 5/160/144 43/161/145 1/153/137
f 1/153/137 43/161/145 70/162/146
f 1/153/137 70/162/146 68/154/138
f 43/161/145 5/160/144 17/159/143
f 17/159/143 5/160/144 7/157/141
f 9/163/147 31/164/148 10/165/149
f 10/165/149 31/164/148 58/166/150
f 10/165/149 58/166/150 15/167/151
f 15/167/151 58/166/150 57/168/152
f 15/167/151 57/168/152 56/169/153
f 13/170/154 44/171/155 9/163/147
f 9/163/147 44/171/155 29/172/156
f 9/163/147 29/172/156 31/164/148
f 15/167/151 50/173/157 13/170/154
f 13/170/154 50/173/157 49/174/158
f 13/170/154 49/174/158 48/175/159
f 17/159/143 21/176/160 43/161/145
f 43/161/145 21/176/160 33/177/161
f 43/161/145 33/177/161 25/178/162
f 25/178/162 33/177/161 37/179/163
f 25/178/162 37/179/163 39/180/164
f 21/176/160 23/181/165 33/177/161
f 33/177/161 23/181/165 34/182/166
f 34/182/166 23/181/165 60/156/140
f 34/182/166 60/156/140 26/183/167
f 26/183/167 60/156/140 31/164/148
f 31/164/148 60/156/140 58/166/150
f 23/181/165 18/158/142 60/156/140
f 34/182/166 26/183/167 39/180/164
f 39/180/164 26/183/167 25/178/162
f 25/178/162 29/172/156 43/161/145
f 43/161/145 29/172/156 44/171/155
f 43/161/145 76/184/168 70/162/146
f 70/162/146 76/184/168 75/185/169
f 70/162/146 75/185/169 74/186/170
f 67/187/171 66/188/172 68/154/138
f 68/154/138 66/188/172 65/189/173
f 68/154/138 65/189/173 60/156/140
f 56/169/153 52/190/174 15/167/151
f 15/167/151 52/190/174 50/173/157
f 48/175/159 44/171/155 13/170/154
f 73/191/175 72/192/176 69/193/177
f 69/193/177 72/192/176 71/194/178
f 69/193/177 71/194/178 42/195/179
f 41/196/180 53/197/181 42/195/179
f 42/195/179 53/197/181 59/198/182
f 42/195/179 59/198/182 69/193/177
f 69/193/177 59/198/182 61/199/183
f 61/199/183 59/198/182 64/200/184
f 61/199/183 64/200/184 63/201/185
f 47/202/186 45/203/187 41/196/180
f 41/196/180 45/203/187 51/204/188
f 41/196/180 51/204/188 53/197/181
f 53/197/181 51/204/188 54/205/189
f 54/205/189 51/204/188 55/206/190
f 47/202/186 46/207/191 45/203/187
f 63/201/185 62/208/192 61/199/183
# 76 vertices
# 208 texture params
# 192 normals
# 148 facets

# 1 groups
