# WaveFront *.obj file (generated by Autodesk ATF)

mtllib _OneXPlayerMini v62_XLetter_OneXPlayerMini v62.mtl

g XLetter

v 101.172089 -12.000000 20.638367
v 100.957219 -12.000000 20.300713
v 100.957219 -10.000000 20.300713
v 101.172089 -10.000000 20.638367
v 101.368542 -12.000000 20.337548
v 101.368542 -10.000000 20.337548
v 102.501216 -12.000000 18.732160
v 102.501216 -10.000000 18.732160
v 103.237914 -12.000000 18.732160
v 103.237914 -10.000000 18.732160
v 101.534299 -12.000000 21.111082
v 101.534299 -10.000000 21.111082
v 103.115131 -12.000000 23.232160
v 103.115131 -10.000000 23.232160
v 102.467451 -12.000000 23.232160
v 102.467451 -10.000000 23.232160
v 101.561925 -12.000000 22.038094
v 101.561925 -10.000000 22.038094
v 101.205854 -12.000000 21.525475
v 101.205854 -10.000000 21.525475
v 100.843644 -12.000000 22.077999
v 100.843644 -10.000000 22.077999
v 100.027137 -12.000000 23.232160
v 100.027137 -10.000000 23.232160
v 99.318065 -12.000000 23.232160
v 99.318065 -10.000000 23.232160
v 100.852853 -12.000000 21.077316
v 100.852853 -10.000000 21.077316
v 99.112403 -12.000000 18.732160
v 99.112403 -10.000000 18.732160
v 99.827614 -12.000000 18.732160
v 99.827614 -10.000000 18.732160
vt 0.000000 0.000000 0.000000
vt 0.040021 0.000000 0.000000
vt 0.000000 0.200000 0.000000
vt 0.040021 0.200000 0.000000
vt 0.000000 0.000000 0.000000
vt 0.035929 0.000000 0.000000
vt 0.000000 0.200000 0.000000
vt 0.035929 0.200000 0.000000
vt 0.000000 0.000000 0.000000
vt 0.196474 0.000000 0.000000
vt 0.000000 0.200000 0.000000
vt 0.196474 0.200000 0.000000
vt 0.000000 0.000000 0.000000
vt 0.073670 0.000000 0.000000
vt 0.000000 0.200000 0.000000
vt 0.073670 0.200000 0.000000
vt 0.000000 0.000000 0.000000
vt 0.292602 0.000000 0.000000
vt 0.000000 0.200000 0.000000
vt 0.292602 0.200000 0.000000
vt -0.000000 0.000000 0.000000
vt 0.264537 0.000000 0.000000
vt -0.000000 0.200000 0.000000
vt 0.264537 0.200000 0.000000
vt 0.000000 0.000000 0.000000
vt 0.064768 0.000000 0.000000
vt 0.000000 0.200000 0.000000
vt 0.064768 0.200000 0.000000
vt 0.000000 0.000000 0.000000
vt 0.149859 0.000000 0.000000
vt 0.000000 0.200000 0.000000
vt 0.149859 0.200000 0.000000
vt 0.000000 0.000000 0.000000
vt 0.062416 0.000000 0.000000
vt 0.000000 0.200000 0.000000
vt 0.062416 0.200000 0.000000
vt 0.000000 0.000000 0.000000
vt 0.066064 0.000000 0.000000
vt 0.000000 0.200000 0.000000
vt 0.066064 0.200000 0.000000
vt 0.000000 0.000000 0.000000
vt 0.141378 0.000000 0.000000
vt 0.000000 0.200000 0.000000
vt 0.141378 0.200000 0.000000
vt 0.000000 0.000000 0.000000
vt 0.070907 0.000000 0.000000
vt 0.000000 0.200000 0.000000
vt 0.070907 0.200000 0.000000
vt 0.000000 0.000000 0.000000
vt 0.264555 0.000000 0.000000
vt 0.000000 0.200000 0.000000
vt 0.264555 0.200000 0.000000
vt 0.000000 0.000000 0.000000
vt 0.292043 0.000000 0.000000
vt 0.000000 0.200000 0.000000
vt 0.292043 0.200000 0.000000
vt 0.000000 0.000000 0.000000
vt 0.071521 0.000000 0.000000
vt 0.000000 0.200000 0.000000
vt 0.071521 0.200000 0.000000
vt -0.000000 0.000000 0.000000
vt 0.193297 0.000000 0.000000
vt -0.000000 0.200000 0.000000
vt 0.193297 0.200000 0.000000
vt -0.134754 -0.225000 0.000000
vt -0.021794 -0.068145 0.000000
vt -0.206276 -0.225000 0.000000
vt -0.032231 0.009516 0.000000
vt -0.000307 -0.034379 0.000000
vt 0.035914 0.012892 0.000000
vt 0.019338 -0.064461 0.000000
vt 0.206276 -0.225000 0.000000
vt 0.132606 -0.225000 0.000000
vt 0.193997 0.225000 0.000000
vt 0.038677 0.105593 0.000000
vt 0.003070 0.054332 0.000000
vt -0.033151 0.109584 0.000000
vt -0.185709 0.225000 0.000000
vt -0.114802 0.225000 0.000000
vt 0.129229 0.225000 0.000000
vt 0.134754 -0.225000 0.000000
vt 0.206276 -0.225000 0.000000
vt 0.021794 -0.068145 0.000000
vt 0.032231 0.009516 0.000000
vt 0.000307 -0.034379 0.000000
vt -0.035914 0.012892 0.000000
vt -0.019338 -0.064461 0.000000
vt -0.206276 -0.225000 0.000000
vt -0.132606 -0.225000 0.000000
vt 0.185709 0.225000 0.000000
vt 0.033151 0.109584 0.000000
vt -0.003070 0.054332 0.000000
vt -0.038677 0.105593 0.000000
vt -0.193997 0.225000 0.000000
vt -0.129229 0.225000 0.000000
vt 0.114802 0.225000 0.000000
vn 0.085275 0.000000 -0.052231
vn 0.081923 0.000000 -0.057346
vn 0.085275 0.000000 -0.052231
vn 0.081923 0.000000 -0.057346
vn -0.082351 0.000000 -0.056730
vn -0.084890 0.000000 -0.052856
vn -0.082351 0.000000 -0.056730
vn -0.084890 0.000000 -0.052856
vn -0.081710 0.000000 -0.057650
vn -0.081710 0.000000 -0.057650
vn -0.081710 0.000000 -0.057650
vn -0.081710 0.000000 -0.057650
vn 0.000000 0.000000 -0.100000
vn 0.000000 0.000000 -0.100000
vn 0.000000 0.000000 -0.100000
vn 0.000000 0.000000 -0.100000
vn 0.081302 -0.000000 0.058223
vn 0.081302 -0.000000 0.058223
vn 0.081302 -0.000000 0.058223
vn 0.081302 -0.000000 0.058223
vn 0.080181 0.000000 -0.059758
vn 0.080181 0.000000 -0.059758
vn 0.080181 0.000000 -0.059758
vn 0.080181 0.000000 -0.059758
vn 0.000000 0.000000 0.100000
vn 0.000000 0.000000 0.100000
vn 0.000000 0.000000 0.100000
vn 0.000000 0.000000 0.100000
vn -0.079679 0.000000 0.060425
vn -0.079679 0.000000 0.060425
vn -0.079679 0.000000 0.060425
vn -0.079679 0.000000 0.060425
vn -0.085275 0.000000 0.052231
vn -0.079229 0.000000 0.061015
vn -0.085275 0.000000 0.052231
vn -0.079229 0.000000 0.061015
vn 0.081561 -0.000000 0.057860
vn 0.087416 -0.000000 0.048564
vn 0.081561 -0.000000 0.057860
vn 0.087416 -0.000000 0.048564
vn 0.081637 -0.000000 0.057754
vn 0.081637 -0.000000 0.057754
vn 0.081637 -0.000000 0.057754
vn 0.081637 -0.000000 0.057754
vn 0.000000 0.000000 0.100000
vn 0.000000 0.000000 0.100000
vn 0.000000 0.000000 0.100000
vn 0.000000 0.000000 0.100000
vn -0.081452 0.000000 -0.058014
vn -0.081452 0.000000 -0.058014
vn -0.081452 0.000000 -0.058014
vn -0.081452 0.000000 -0.058014
vn -0.080302 0.000000 0.059596
vn -0.080302 0.000000 0.059596
vn -0.080302 0.000000 0.059596
vn -0.080302 0.000000 0.059596
vn 0.000000 0.000000 -0.100000
vn 0.000000 0.000000 -0.100000
vn 0.000000 0.000000 -0.100000
vn 0.000000 0.000000 -0.100000
vn 0.081147 0.000000 -0.058439
vn 0.081147 0.000000 -0.058439
vn 0.081147 0.000000 -0.058439
vn 0.081147 0.000000 -0.058439
vn 0.000000 -0.100000 0.000000
vn 0.000000 -0.100000 0.000000
vn 0.000000 -0.100000 0.000000
vn 0.000000 -0.100000 0.000000
vn 0.000000 -0.100000 0.000000
vn 0.000000 -0.100000 0.000000
vn 0.000000 -0.100000 0.000000
vn 0.000000 -0.100000 0.000000
vn 0.000000 -0.100000 0.000000
vn 0.000000 -0.100000 0.000000
vn 0.000000 -0.100000 0.000000
vn 0.000000 -0.100000 0.000000
vn 0.000000 -0.100000 0.000000
vn 0.000000 -0.100000 0.000000
vn 0.000000 -0.100000 0.000000
vn 0.000000 -0.100000 0.000000
vn -0.000000 0.100000 -0.000000
vn -0.000000 0.100000 -0.000000
vn -0.000000 0.100000 -0.000000
vn -0.000000 0.100000 -0.000000
vn -0.000000 0.100000 -0.000000
vn -0.000000 0.100000 -0.000000
vn -0.000000 0.100000 -0.000000
vn -0.000000 0.100000 -0.000000
vn -0.000000 0.100000 -0.000000
vn -0.000000 0.100000 -0.000000
vn -0.000000 0.100000 -0.000000
vn -0.000000 0.100000 -0.000000
vn -0.000000 0.100000 -0.000000
vn -0.000000 0.100000 -0.000000
vn -0.000000 0.100000 -0.000000
vn -0.000000 0.100000 -0.000000
usemtl Plastic_-_Matte_(Yellow)
f 1/1/1 2/2/2 4/3/3
f 4/3/3 2/2/2 3/4/4
f 5/5/5 1/6/6 6/7/7
f 6/7/7 1/6/6 4/8/8
f 7/9/9 5/10/10 8/11/11
f 8/11/11 5/10/10 6/12/12
f 9/13/13 7/14/14 10/15/15
f 10/15/15 7/14/14 8/16/16
f 11/17/17 9/18/18 12/19/19
f 12/19/19 9/18/18 10/20/20
f 13/21/21 11/22/22 14/23/23
f 14/23/23 11/22/22 12/24/24
f 15/25/25 13/26/26 16/27/27
f 16/27/27 13/26/26 14/28/28
f 17/29/29 15/30/30 18/31/31
f 18/31/31 15/30/30 16/32/32
f 19/33/33 17/34/34 20/35/35
f 20/35/35 17/34/34 18/36/36
f 21/37/37 19/38/38 22/39/39
f 22/39/39 19/38/38 20/40/40
f 23/41/41 21/42/42 24/43/43
f 24/43/43 21/42/42 22/44/44
f 25/45/45 23/46/46 26/47/47
f 26/47/47 23/46/46 24/48/48
f 27/49/49 25/50/50 28/51/51
f 28/51/51 25/50/50 26/52/52
f 29/53/53 27/54/54 30/55/55
f 30/55/55 27/54/54 28/56/56
f 31/57/57 29/58/58 32/59/59
f 32/59/59 29/58/58 30/60/60
f 2/61/61 31/62/62 3/63/63
f 3/63/63 31/62/62 32/64/64
f 31/65/65 2/66/66 29/67/67
f 29/67/67 2/66/66 27/68/68
f 27/68/68 2/66/66 1/69/69
f 27/68/68 1/69/69 11/70/70
f 11/70/70 1/69/69 5/71/71
f 11/70/70 5/71/71 9/72/72
f 9/72/72 5/71/71 7/73/73
f 13/74/74 17/75/75 11/70/70
f 11/70/70 17/75/75 19/76/76
f 11/70/70 19/76/76 27/68/68
f 27/68/68 19/76/76 21/77/77
f 27/68/68 21/77/77 25/78/78
f 25/78/78 21/77/77 23/79/79
f 13/74/74 15/80/80 17/75/75
f 32/81/81 30/82/82 3/83/83
f 3/83/83 30/82/82 28/84/84
f 3/83/83 28/84/84 4/85/85
f 4/85/85 28/84/84 12/86/86
f 4/85/85 12/86/86 6/87/87
f 6/87/87 12/86/86 10/88/88
f 6/87/87 10/88/88 8/89/89
f 26/90/90 22/91/91 28/84/84
f 28/84/84 22/91/91 20/92/92
f 28/84/84 20/92/92 12/86/86
f 12/86/86 20/92/92 18/93/93
f 12/86/86 18/93/93 14/94/94
f 14/94/94 18/93/93 16/95/95
f 26/90/90 24/96/96 22/91/91
# 32 vertices
# 96 texture params
# 96 normals
# 60 facets

# 1 groups
