# WaveFront *.obj file (generated by Autodesk ATF)

mtllib _OneXPlayerMini v85_Y_OneXPlayerMini v85.mtl

g Y

v 110.042139 -12.000000 29.059162
v 111.837842 -12.000000 31.652955
v 111.837842 -11.500000 31.652955
v 110.042139 -11.500000 29.059162
v 111.144117 -12.000000 31.652955
v 111.144117 -11.500000 31.652955
v 110.272358 -12.000000 30.329967
v 110.272358 -11.500000 30.329967
v 109.781225 -12.000000 29.534947
v 109.781225 -11.500000 29.534947
v 109.323858 -12.000000 30.296202
v 109.323858 -11.500000 30.296202
v 108.436751 -12.000000 31.652955
v 108.436751 -11.500000 31.652955
v 107.712330 -12.000000 31.652955
v 107.712330 -11.500000 31.652955
v 109.446641 -12.000000 29.059162
v 109.446641 -11.500000 29.059162
v 109.446641 -12.000000 27.152955
v 109.446641 -11.500000 27.152955
v 110.042139 -12.000000 27.152955
v 110.042139 -11.500000 27.152955
v 105.299342 -11.500000 29.720687
v 105.688388 -11.500000 27.890372
v 106.788254 -11.500000 26.376535
v 108.408766 -11.500000 25.440933
v 110.269720 -11.500000 25.245339
v 112.049342 -11.500000 25.823573
v 113.439919 -11.500000 27.075653
v 114.201006 -11.500000 28.785085
v 114.201006 -11.500000 30.656290
v 113.439919 -11.500000 32.365721
v 112.049342 -11.500000 33.617801
v 110.269720 -11.500000 34.196036
v 108.408766 -11.500000 34.000441
v 106.788254 -11.500000 33.064839
v 105.688388 -11.500000 31.551002
v 105.799342 -12.000000 29.720687
v 106.145160 -12.000000 31.347634
v 107.122820 -12.000000 32.693266
v 108.563274 -12.000000 33.524913
v 110.217456 -12.000000 33.698775
v 111.799342 -12.000000 33.184789
v 113.035410 -12.000000 32.071828
v 113.711933 -12.000000 30.552334
v 113.711933 -12.000000 28.889040
v 113.035410 -12.000000 27.369546
v 111.799342 -12.000000 26.256585
v 110.217456 -12.000000 25.742600
v 108.563274 -12.000000 25.916461
v 107.122820 -12.000000 26.748108
v 106.145160 -12.000000 28.093741
v 109.799342 -11.750000 34.153700
v 109.799342 -11.933013 33.970687
v 105.390614 -11.750000 29.257311
v 105.572624 -11.933013 29.276441
v 105.757352 -11.933013 31.034009
v 105.583297 -11.750000 31.090563
v 105.960241 -11.750000 27.504181
v 106.118734 -11.933013 27.595687
v 107.193683 -11.750000 26.134304
v 107.301255 -11.933013 26.282365
v 108.877667 -11.750000 25.384546
v 108.915717 -11.933013 25.563560
v 110.721017 -11.750000 25.384546
v 110.682967 -11.933013 25.563560
v 112.405002 -11.750000 26.134304
v 112.297429 -11.933013 26.282365
v 113.638444 -11.750000 27.504181
v 113.479950 -11.933013 27.595687
v 114.208070 -11.750000 29.257311
v 114.026060 -11.933013 29.276441
v 114.015388 -11.750000 31.090563
v 113.841332 -11.933013 31.034009
v 113.093713 -11.750000 32.686952
v 112.957708 -11.933013 32.564492
v 111.602411 -11.750000 33.770446
v 111.527973 -11.933013 33.603255
v 107.996273 -11.750000 33.770446
v 108.070711 -11.933013 33.603255
v 106.504972 -11.750000 32.686952
v 106.640977 -11.933013 32.564492
v 105.299342 -10.000000 29.720687
v 105.688388 -10.000000 27.890372
v 106.788254 -10.000000 26.376535
v 108.408766 -10.000000 25.440933
v 110.269720 -10.000000 25.245339
v 112.049342 -10.000000 25.823573
v 113.439919 -10.000000 27.075653
v 114.201006 -10.000000 28.785085
v 114.201006 -10.000000 30.656290
v 113.439919 -10.000000 32.365721
v 112.049342 -10.000000 33.617801
v 110.269720 -10.000000 34.196036
v 108.408766 -10.000000 34.000441
v 106.788254 -10.000000 33.064839
v 105.688388 -10.000000 31.551002
vt -0.315473 0.000000 0.000000
vt 0.000000 0.000000 0.000000
vt -0.315473 0.050000 0.000000
vt 0.000000 0.050000 0.000000
vt -0.069372 0.000000 0.000000
vt -0.000000 0.000000 0.000000
vt -0.069372 0.050000 0.000000
vt -0.000000 0.050000 0.000000
vt -0.158438 0.000000 0.000000
vt -0.000000 0.000000 0.000000
vt -0.158438 0.050000 0.000000
vt -0.000000 0.050000 0.000000
vt -0.093450 0.000000 0.000000
vt -0.000000 0.000000 0.000000
vt -0.093450 0.050000 0.000000
vt -0.000000 0.050000 0.000000
vt -0.088808 0.000000 0.000000
vt -0.000000 0.000000 0.000000
vt -0.088808 0.050000 0.000000
vt -0.000000 0.050000 0.000000
vt -0.162103 0.000000 0.000000
vt -0.000000 0.000000 0.000000
vt -0.162103 0.050000 0.000000
vt -0.000000 0.050000 0.000000
vt -0.072442 0.000000 0.000000
vt -0.000000 0.000000 0.000000
vt -0.072442 0.050000 0.000000
vt -0.000000 0.050000 0.000000
vt -0.312019 0.000000 0.000000
vt -0.000000 0.000000 0.000000
vt -0.312019 0.050000 0.000000
vt -0.000000 0.050000 0.000000
vt -0.190621 0.000000 0.000000
vt -0.000000 0.000000 0.000000
vt -0.190621 0.050000 0.000000
vt -0.000000 0.050000 0.000000
vt -0.059550 0.000000 0.000000
vt -0.000000 0.000000 0.000000
vt -0.059550 0.050000 0.000000
vt -0.000000 0.050000 0.000000
vt -0.190621 0.000000 0.000000
vt -0.000000 0.000000 0.000000
vt -0.190621 0.050000 0.000000
vt -0.000000 0.050000 0.000000
vt -0.032844 -0.225000 0.000000
vt 0.026705 -0.225000 0.000000
vt -0.032844 -0.034379 0.000000
vt 0.026705 -0.034379 0.000000
vt 0.000614 0.013199 0.000000
vt 0.049727 0.092701 0.000000
vt 0.206276 0.225000 0.000000
vt 0.136903 0.225000 0.000000
vt -0.045123 0.089325 0.000000
vt -0.206276 0.225000 0.000000
vt -0.133834 0.225000 0.000000
vt -0.000000 -0.501493 0.000000
vt -0.026180 -0.638264 0.000000
vt -0.000000 -0.683855 0.000000
vt -0.026180 -0.820625 0.000000
vt -0.000000 -0.866216 0.000000
vt -0.026180 -1.002987 0.000000
vt -0.000000 -1.048577 0.000000
vt -0.026180 -1.185348 0.000000
vt -0.000000 -1.230938 0.000000
vt -0.026180 -1.367709 0.000000
vt 0.000000 -1.413299 0.000000
vt 0.000000 1.322119 0.000000
vt -0.026180 1.367709 0.000000
vt -0.026180 1.185348 0.000000
vt 0.000000 1.139758 0.000000
vt -0.026180 1.002987 0.000000
vt 0.000000 0.957396 0.000000
vt -0.026180 0.820625 0.000000
vt 0.000000 0.775035 0.000000
vt -0.026180 0.638264 0.000000
vt -0.000000 0.592674 0.000000
vt -0.026180 0.455903 0.000000
vt -0.000000 0.410313 0.000000
vt -0.026180 0.273542 0.000000
vt -0.000000 0.227952 0.000000
vt -0.026180 0.091181 0.000000
vt -0.000000 0.045590 0.000000
vt -0.026180 -0.091181 0.000000
vt -0.000000 -0.136771 0.000000
vt -0.026180 -0.273542 0.000000
vt -0.000000 -0.319132 0.000000
vt -0.026180 -0.455903 0.000000
vt -0.078540 -0.866216 0.000000
vt -0.052360 -0.820625 0.000000
vt -0.078540 -0.683855 0.000000
vt -0.052360 -0.638264 0.000000
vt -0.078540 -0.501493 0.000000
vt -0.052360 -0.455903 0.000000
vt -0.078540 -0.319132 0.000000
vt -0.052360 -0.273542 0.000000
vt -0.078540 -0.136771 0.000000
vt -0.052360 -0.091181 0.000000
vt -0.078540 0.045590 0.000000
vt -0.052360 0.091181 0.000000
vt -0.078540 0.227952 0.000000
vt -0.052360 0.273542 0.000000
vt -0.078540 0.410313 0.000000
vt -0.052360 0.455903 0.000000
vt -0.078540 0.592674 0.000000
vt -0.052360 0.638264 0.000000
vt -0.078540 0.775035 0.000000
vt -0.052360 0.820625 0.000000
vt -0.078540 0.957396 0.000000
vt -0.052360 1.002987 0.000000
vt -0.078540 1.139758 0.000000
vt -0.052360 1.185348 0.000000
vt -0.078540 1.322119 0.000000
vt -0.052360 1.367709 0.000000
vt -0.078540 1.504480 0.000000
vt -0.078540 -1.230938 0.000000
vt -0.052360 -1.367709 0.000000
vt -0.052360 -1.185348 0.000000
vt -0.078540 -1.048577 0.000000
vt -0.052360 -1.002987 0.000000
vt -0.000000 -1.225221 0.000000
vt -0.150000 -1.225221 0.000000
vt -0.000000 -1.413717 0.000000
vt -0.150000 -1.413717 0.000000
vt -0.000000 1.413717 0.000000
vt -0.150000 1.413717 0.000000
vt -0.000000 1.225221 0.000000
vt -0.150000 1.225221 0.000000
vt -0.000000 1.036726 0.000000
vt -0.150000 1.036726 0.000000
vt -0.000000 0.848230 0.000000
vt -0.150000 0.848230 0.000000
vt -0.000000 0.659734 0.000000
vt -0.150000 0.659734 0.000000
vt -0.000000 0.471239 0.000000
vt -0.150000 0.471239 0.000000
vt -0.000000 0.282743 0.000000
vt -0.150000 0.282743 0.000000
vt -0.000000 0.094248 0.000000
vt -0.150000 0.094248 0.000000
vt -0.000000 -0.094248 0.000000
vt -0.150000 -0.094248 0.000000
vt -0.000000 -0.282743 0.000000
vt -0.150000 -0.282743 0.000000
vt -0.000000 -0.471239 0.000000
vt -0.150000 -0.471239 0.000000
vt -0.000000 -0.659734 0.000000
vt -0.150000 -0.659734 0.000000
vt -0.000000 -0.848230 0.000000
vt -0.150000 -0.848230 0.000000
vt -0.000000 -1.036726 0.000000
vt -0.150000 -1.036726 0.000000
vt -11.004214 -3.030916 0.000000
vt -11.371193 -3.180233 0.000000
vt -11.183784 -3.290295 0.000000
vt -11.303541 -3.332183 0.000000
vt -11.179934 -3.443479 0.000000
vt -11.004214 -2.840295 0.000000
vt -11.303541 -2.861955 0.000000
vt -11.371193 -3.013904 0.000000
vt -10.944664 -2.840295 0.000000
vt -11.021746 -2.699260 0.000000
vt -11.179934 -2.750659 0.000000
vt -10.944664 -3.030916 0.000000
vt -10.712282 -2.799811 0.000000
vt -10.856327 -2.716646 0.000000
vt -10.771233 -3.290295 0.000000
vt -10.579934 -3.097069 0.000000
vt -10.614516 -2.934374 0.000000
vt -10.843675 -3.290295 0.000000
vt -10.856327 -3.477491 0.000000
vt -10.712282 -3.394327 0.000000
vt -10.614516 -3.259763 0.000000
vt -10.932386 -3.154620 0.000000
vt -11.027236 -3.157997 0.000000
vt -11.114412 -3.290295 0.000000
vt -11.021746 -3.494877 0.000000
vt -10.978123 -3.078495 0.000000
vt 10.529934 -3.097069 0.000000
vt 10.568839 -3.280100 0.000000
vt 10.568839 -2.914037 0.000000
vt 10.678825 -2.762654 0.000000
vt 10.678825 -3.431484 0.000000
vt 10.840877 -2.669093 0.000000
vt 10.840877 -3.525044 0.000000
vt 11.026972 -2.649534 0.000000
vt 11.026972 -3.544604 0.000000
vt 11.204934 -2.707357 0.000000
vt 11.204934 -3.486780 0.000000
vt 11.343992 -2.832565 0.000000
vt 11.343992 -3.361572 0.000000
vt 11.420101 -3.003508 0.000000
vt 11.420101 -3.190629 0.000000
vn -0.082219 0.000000 0.056921
vn -0.082219 0.000000 0.056921
vn -0.082219 0.000000 0.056921
vn -0.082219 0.000000 0.056921
vn 0.000000 0.000000 -0.100000
vn 0.000000 0.000000 -0.100000
vn 0.000000 0.000000 -0.100000
vn 0.000000 0.000000 -0.100000
vn 0.083502 0.000000 -0.055022
vn 0.083502 0.000000 -0.055022
vn 0.083502 0.000000 -0.055022
vn 0.083502 0.000000 -0.055022
vn 0.083738 0.000000 -0.054662
vn 0.086731 0.000000 -0.049776
vn 0.083738 0.000000 -0.054662
vn 0.086731 0.000000 -0.049776
vn -0.087382 0.000000 -0.048624
vn -0.084030 0.000000 -0.054213
vn -0.087382 0.000000 -0.048624
vn -0.084030 0.000000 -0.054213
vn -0.083697 0.000000 -0.054725
vn -0.083697 0.000000 -0.054725
vn -0.083697 0.000000 -0.054725
vn -0.083697 0.000000 -0.054725
vn 0.000000 0.000000 -0.100000
vn 0.000000 0.000000 -0.100000
vn 0.000000 0.000000 -0.100000
vn 0.000000 0.000000 -0.100000
vn 0.083129 -0.000000 0.055583
vn 0.083129 -0.000000 0.055583
vn 0.083129 -0.000000 0.055583
vn 0.083129 -0.000000 0.055583
vn 0.100000 0.000000 0.000000
vn 0.100000 0.000000 0.000000
vn 0.100000 0.000000 0.000000
vn 0.100000 0.000000 0.000000
vn 0.000000 0.000000 0.100000
vn 0.000000 0.000000 0.100000
vn 0.000000 0.000000 0.100000
vn 0.000000 0.000000 0.100000
vn -0.100000 0.000000 -0.000000
vn -0.100000 0.000000 -0.000000
vn -0.100000 0.000000 -0.000000
vn -0.100000 0.000000 -0.000000
vn 0.000000 -0.100000 0.000000
vn 0.000000 -0.100000 0.000000
vn 0.000000 -0.100000 0.000000
vn 0.000000 -0.100000 0.000000
vn 0.000000 -0.100000 0.000000
vn 0.000000 -0.100000 0.000000
vn 0.000000 -0.100000 0.000000
vn 0.000000 -0.100000 0.000000
vn 0.000000 -0.100000 0.000000
vn 0.000000 -0.100000 0.000000
vn 0.000000 -0.100000 0.000000
vn -0.091355 0.000000 -0.040674
vn -0.086128 -0.050000 -0.009052
vn -0.100000 0.000000 -0.000000
vn -0.082364 -0.050000 0.026762
vn -0.091355 0.000000 0.040674
vn -0.064358 -0.050000 0.057948
vn -0.066913 0.000000 0.074314
vn -0.035224 -0.050000 0.079115
vn -0.030902 0.000000 0.095106
vn -0.000000 -0.050000 0.086603
vn 0.010453 0.000000 0.099452
vn 0.035224 -0.050000 0.079115
vn 0.050000 0.000000 0.086603
vn 0.064358 -0.050000 0.057948
vn 0.080902 0.000000 0.058779
vn 0.082364 -0.050000 0.026762
vn 0.097815 0.000000 0.020791
vn 0.086128 -0.050000 -0.009052
vn 0.097815 0.000000 -0.020791
vn 0.075000 -0.050000 -0.043301
vn 0.080902 0.000000 -0.058779
vn 0.050904 -0.050000 -0.070063
vn 0.050000 0.000000 -0.086603
vn 0.018006 -0.050000 -0.084710
vn 0.010453 0.000000 -0.099452
vn -0.018006 -0.050000 -0.084710
vn -0.030902 0.000000 -0.095106
vn -0.050904 -0.050000 -0.070063
vn -0.066913 0.000000 -0.074314
vn -0.075000 -0.050000 -0.043301
vn -0.000000 -0.100000 0.000000
vn -0.047553 -0.086603 0.015451
vn 0.000000 -0.100000 0.000000
vn -0.049726 -0.086603 -0.005226
vn -0.000000 -0.100000 -0.000000
vn -0.043301 -0.086603 -0.025000
vn 0.000000 -0.100000 0.000000
vn -0.029389 -0.086603 -0.040451
vn -0.000000 -0.100000 -0.000000
vn -0.010396 -0.086603 -0.048907
vn -0.000000 -0.100000 0.000000
vn 0.010396 -0.086603 -0.048907
vn -0.000000 -0.100000 0.000000
vn 0.029389 -0.086603 -0.040451
vn -0.000000 -0.100000 0.000000
vn 0.043301 -0.086603 -0.025000
vn -0.000000 -0.100000 0.000000
vn 0.049726 -0.086603 -0.005226
vn -0.000000 -0.100000 -0.000000
vn 0.047553 -0.086603 0.015451
vn -0.000000 -0.100000 -0.000000
vn 0.037157 -0.086603 0.033457
vn -0.000000 -0.100000 -0.000000
vn 0.020337 -0.086603 0.045677
vn -0.000000 -0.100000 -0.000000
vn 0.000000 -0.086603 0.050000
vn -0.000000 -0.100000 0.000000
vn -0.020337 -0.086603 0.045677
vn 0.000000 -0.100000 -0.000000
vn -0.037157 -0.086603 0.033457
vn -0.091355 0.000000 -0.040674
vn -0.100000 0.000000 -0.000000
vn -0.091355 0.000000 0.040674
vn -0.066913 0.000000 0.074314
vn -0.030902 0.000000 0.095106
vn 0.010453 0.000000 0.099452
vn 0.050000 0.000000 0.086603
vn 0.080902 0.000000 0.058779
vn 0.097815 0.000000 0.020791
vn 0.097815 0.000000 -0.020791
vn 0.080902 0.000000 -0.058779
vn 0.050000 0.000000 -0.086603
vn 0.010453 0.000000 -0.099452
vn -0.030902 0.000000 -0.095106
vn -0.066913 0.000000 -0.074314
vn 0.000000 -0.100000 0.000000
vn 0.000000 -0.100000 0.000000
vn 0.000000 -0.100000 0.000000
vn 0.000000 -0.100000 0.000000
vn 0.000000 -0.100000 0.000000
vn 0.000000 -0.100000 0.000000
vn 0.000000 -0.100000 0.000000
vn 0.000000 -0.100000 0.000000
vn 0.000000 -0.100000 0.000000
vn 0.000000 -0.100000 0.000000
vn 0.000000 -0.100000 0.000000
vn 0.000000 0.100000 0.000000
vn 0.000000 0.100000 0.000000
vn 0.000000 0.100000 0.000000
vn 0.000000 0.100000 0.000000
vn 0.000000 0.100000 0.000000
vn 0.000000 0.100000 0.000000
vn 0.000000 0.100000 0.000000
vn 0.000000 0.100000 0.000000
vn 0.000000 0.100000 0.000000
vn 0.000000 0.100000 0.000000
vn 0.000000 0.100000 0.000000
vn 0.000000 0.100000 0.000000
vn 0.000000 0.100000 0.000000
vn 0.000000 0.100000 0.000000
vn 0.000000 0.100000 0.000000
usemtl Plastic_-_Glossy_(Black)
f 1/1/1 2/2/2 4/3/3
f 4/3/3 2/2/2 3/4/4
f 2/5/5 5/6/6 3/7/7
f 3/7/7 5/6/6 6/8/8
f 5/9/9 7/10/10 6/11/11
f 6/11/11 7/10/10 8/12/12
f 7/13/13 9/14/14 8/15/15
f 8/15/15 9/14/14 10/16/16
f 9/17/17 11/18/18 10/19/19
f 10/19/19 11/18/18 12/20/20
f 11/21/21 13/22/22 12/23/23
f 12/23/23 13/22/22 14/24/24
f 13/25/25 15/26/26 14/27/27
f 14/27/27 15/26/26 16/28/28
f 15/29/29 17/30/30 16/31/31
f 16/31/31 17/30/30 18/32/32
f 17/33/33 19/34/34 18/35/35
f 18/35/35 19/34/34 20/36/36
f 19/37/37 21/38/38 20/39/39
f 20/39/39 21/38/38 22/40/40
f 21/41/41 1/42/42 22/43/43
f 22/43/43 1/42/42 4/44/44
f 20/45/45 22/46/46 18/47/47
f 18/47/47 22/46/46 4/48/48
f 18/47/47 4/48/48 10/49/49
f 10/49/49 4/48/48 8/50/50
f 8/50/50 4/48/48 3/51/51
f 8/50/50 3/51/51 6/52/52
f 10/49/49 12/53/53 18/47/47
f 18/47/47 12/53/53 16/54/54
f 16/54/54 12/53/53 14/55/55
f 24/56/56 55/57/57 23/58/58
f 23/58/58 55/57/57 58/59/59
f 23/58/58 58/59/59 37/60/60
f 37/60/60 58/59/59 81/61/61
f 37/60/60 81/61/61 36/62/62
f 36/62/62 81/61/61 79/63/63
f 36/62/62 79/63/63 35/64/64
f 35/64/64 79/63/63 53/65/65
f 35/64/64 53/65/65 34/66/66
f 34/67/66 53/68/65 77/69/67
f 34/67/66 77/69/67 33/70/68
f 33/70/68 77/69/67 75/71/69
f 33/70/68 75/71/69 32/72/70
f 32/72/70 75/71/69 73/73/71
f 32/72/70 73/73/71 31/74/72
f 31/74/72 73/73/71 71/75/73
f 31/74/72 71/75/73 30/76/74
f 30/76/74 71/75/73 69/77/75
f 30/76/74 69/77/75 29/78/76
f 29/78/76 69/77/75 67/79/77
f 29/78/76 67/79/77 28/80/78
f 28/80/78 67/79/77 65/81/79
f 28/80/78 65/81/79 27/82/80
f 27/82/80 65/81/79 63/83/81
f 27/82/80 63/83/81 26/84/82
f 26/84/82 63/83/81 61/85/83
f 26/84/82 61/85/83 25/86/84
f 25/86/84 61/85/83 59/87/85
f 25/86/84 59/87/85 24/56/56
f 24/56/56 59/87/85 55/57/57
f 39/88/86 57/89/87 38/90/88
f 38/90/88 57/89/87 56/91/89
f 38/90/88 56/91/89 52/92/90
f 52/92/90 56/91/89 60/93/91
f 52/92/90 60/93/91 51/94/92
f 51/94/92 60/93/91 62/95/93
f 51/94/92 62/95/93 50/96/94
f 50/96/94 62/95/93 64/97/95
f 50/96/94 64/97/95 49/98/96
f 49/98/96 64/97/95 66/99/97
f 49/98/96 66/99/97 48/100/98
f 48/100/98 66/99/97 68/101/99
f 48/100/98 68/101/99 47/102/100
f 47/102/100 68/101/99 70/103/101
f 47/102/100 70/103/101 46/104/102
f 46/104/102 70/103/101 72/105/103
f 46/104/102 72/105/103 45/106/104
f 45/106/104 72/105/103 74/107/105
f 45/106/104 74/107/105 44/108/106
f 44/108/106 74/107/105 76/109/107
f 44/108/106 76/109/107 43/110/108
f 43/110/108 76/109/107 78/111/109
f 43/110/108 78/111/109 42/112/110
f 42/112/110 78/111/109 54/113/111
f 42/112/110 54/113/111 41/114/112
f 41/115/112 54/116/111 80/117/113
f 41/115/112 80/117/113 40/118/114
f 40/118/114 80/117/113 82/119/115
f 40/118/114 82/119/115 39/88/86
f 39/88/86 82/119/115 57/89/87
f 53/68/65 54/113/111 77/69/67
f 77/69/67 54/113/111 78/111/109
f 77/69/67 78/111/109 75/71/69
f 75/71/69 78/111/109 76/109/107
f 75/71/69 76/109/107 73/73/71
f 73/73/71 76/109/107 74/107/105
f 73/73/71 74/107/105 71/75/73
f 71/75/73 74/107/105 72/105/103
f 71/75/73 72/105/103 69/77/75
f 69/77/75 72/105/103 70/103/101
f 69/77/75 70/103/101 67/79/77
f 67/79/77 70/103/101 68/101/99
f 67/79/77 68/101/99 65/81/79
f 65/81/79 68/101/99 66/99/97
f 65/81/79 66/99/97 63/83/81
f 63/83/81 66/99/97 64/97/95
f 63/83/81 64/97/95 61/85/83
f 61/85/83 64/97/95 62/95/93
f 61/85/83 62/95/93 59/87/85
f 59/87/85 62/95/93 60/93/91
f 59/87/85 60/93/91 55/57/57
f 55/57/57 60/93/91 56/91/89
f 55/57/57 56/91/89 58/59/59
f 58/59/59 56/91/89 57/89/87
f 58/59/59 57/89/87 81/61/61
f 81/61/61 57/89/87 82/119/115
f 81/61/61 82/119/115 79/63/63
f 79/63/63 82/119/115 80/117/113
f 79/63/63 80/117/113 53/65/65
f 53/65/65 80/117/113 54/116/111
f 84/120/116 24/121/56 83/122/117
f 83/122/117 24/121/56 23/123/58
f 83/124/117 23/125/58 97/126/118
f 97/126/118 23/125/58 37/127/60
f 97/126/118 37/127/60 96/128/119
f 96/128/119 37/127/60 36/129/62
f 96/128/119 36/129/62 95/130/120
f 95/130/120 36/129/62 35/131/64
f 95/130/120 35/131/64 94/132/121
f 94/132/121 35/131/64 34/133/66
f 94/132/121 34/133/66 93/134/122
f 93/134/122 34/133/66 33/135/68
f 93/134/122 33/135/68 92/136/123
f 92/136/123 33/135/68 32/137/70
f 92/136/123 32/137/70 91/138/124
f 91/138/124 32/137/70 31/139/72
f 91/138/124 31/139/72 90/140/125
f 90/140/125 31/139/72 30/141/74
f 90/140/125 30/141/74 89/142/126
f 89/142/126 30/141/74 29/143/76
f 89/142/126 29/143/76 88/144/127
f 88/144/127 29/143/76 28/145/78
f 88/144/127 28/145/78 87/146/128
f 87/146/128 28/145/78 27/147/80
f 87/146/128 27/147/80 86/148/129
f 86/148/129 27/147/80 26/149/82
f 86/148/129 26/149/82 85/150/130
f 85/150/130 26/149/82 25/151/84
f 85/150/130 25/151/84 84/120/116
f 84/120/116 25/151/84 24/121/56
f 1/152/131 45/153/104 2/154/132
f 2/154/132 45/153/104 44/155/106
f 2/154/132 44/155/106 43/156/108
f 21/157/133 47/158/100 1/152/131
f 1/152/131 47/158/100 46/159/102
f 1/152/131 46/159/102 45/153/104
f 19/160/134 49/161/96 21/157/133
f 21/157/133 49/161/96 48/162/98
f 21/157/133 48/162/98 47/158/100
f 17/163/135 51/164/92 19/160/134
f 19/160/134 51/164/92 50/165/94
f 19/160/134 50/165/94 49/161/96
f 15/166/136 38/167/88 17/163/135
f 17/163/135 38/167/88 52/168/90
f 17/163/135 52/168/90 51/164/92
f 13/169/137 41/170/112 15/166/136
f 15/166/136 41/170/112 40/171/114
f 15/166/136 40/171/114 39/172/86
f 11/173/138 7/174/139 13/169/137
f 13/169/137 7/174/139 5/175/140
f 13/169/137 5/175/140 42/176/110
f 42/176/110 5/175/140 43/156/108
f 43/156/108 5/175/140 2/154/132
f 11/173/138 9/177/141 7/174/139
f 42/176/110 41/170/112 13/169/137
f 39/172/86 38/167/88 15/166/136
f 83/178/142 97/179/143 84/180/144
f 84/180/144 97/179/143 85/181/145
f 85/181/145 97/179/143 96/182/146
f 85/181/145 96/182/146 86/183/147
f 86/183/147 96/182/146 95/184/148
f 86/183/147 95/184/148 87/185/149
f 87/185/149 95/184/148 94/186/150
f 87/185/149 94/186/150 88/187/151
f 88/187/151 94/186/150 93/188/152
f 88/187/151 93/188/152 89/189/153
f 89/189/153 93/188/152 92/190/154
f 89/189/153 92/190/154 90/191/155
f 90/191/155 92/190/154 91/192/156
# 97 vertices
# 192 texture params
# 156 normals
# 190 facets

# 1 groups
