# WaveFront *.obj file (generated by Autodesk ATF)

mtllib DS4_DS4 v63_B_DS4 v63.mtl

g B

v 55.000008 -10.819007 3.465785
v 55.256962 -10.819007 5.088124
v 56.002669 -10.819007 6.551658
v 57.164136 -10.819007 7.713124
v 58.627669 -10.819007 8.458832
v 60.250008 -10.819007 8.715785
v 61.872348 -10.819007 8.458832
v 63.335881 -10.819007 7.713124
v 64.497348 -10.819007 6.551658
v 65.243055 -10.819007 5.088124
v 65.500008 -10.819007 3.465785
v 65.243055 -10.819007 1.843446
v 64.497348 -10.819007 0.379913
v 63.335881 -10.819007 -0.781554
v 61.872348 -10.819007 -1.527262
v 60.250008 -10.819007 -1.784215
v 58.627669 -10.819007 -1.527262
v 57.164136 -10.819007 -0.781554
v 56.002669 -10.819007 0.379913
v 55.256962 -10.819007 1.843446
v 65.500008 -14.951508 3.465785
v 65.243055 -14.951508 1.843446
v 64.497348 -14.951508 0.379913
v 63.335881 -14.951508 -0.781554
v 61.872348 -14.951508 -1.527262
v 60.250008 -14.951508 -1.784215
v 58.627669 -14.951508 -1.527262
v 57.164136 -14.951508 -0.781554
v 56.002669 -14.951508 0.379913
v 55.256962 -14.951508 1.843446
v 55.000008 -14.951508 3.465785
v 55.256962 -14.951508 5.088124
v 56.002669 -14.951508 6.551658
v 57.164136 -14.951508 7.713124
v 58.627669 -14.951508 8.458832
v 60.250008 -14.951508 8.715785
v 61.872348 -14.951508 8.458832
v 63.335881 -14.951508 7.713124
v 64.497348 -14.951508 6.551658
v 65.243055 -14.951508 5.088124
v 64.500008 -15.951508 3.465785
v 64.243702 -15.951508 4.919371
v 63.505697 -15.951508 6.197633
v 62.375008 -15.951508 7.146393
v 60.988013 -15.951508 7.651218
v 59.512004 -15.951508 7.651218
v 58.125008 -15.951508 7.146393
v 56.994320 -15.951508 6.197633
v 56.256315 -15.951508 4.919371
v 56.000008 -15.951508 3.465785
v 56.256315 -15.951508 2.012200
v 56.994320 -15.951508 0.733938
v 58.125008 -15.951508 -0.214823
v 59.512004 -15.951508 -0.719648
v 60.988013 -15.951508 -0.719648
v 62.375008 -15.951508 -0.214823
v 63.505697 -15.951508 0.733938
v 64.243702 -15.951508 2.012200
v 55.500008 -15.817534 3.465785
v 55.133983 -15.451508 3.465785
v 64.767527 -15.817534 1.997954
v 65.115638 -15.451508 1.884846
v 65.366034 -15.451508 3.465785
v 65.000008 -15.817534 3.465785
v 64.092839 -15.817534 0.673805
v 64.388960 -15.451508 0.458661
v 63.041988 -15.817534 -0.377046
v 63.257133 -15.451508 -0.673166
v 61.717839 -15.817534 -1.051733
v 61.830947 -15.451508 -1.399844
v 60.250008 -15.817534 -1.284215
v 60.250008 -15.451508 -1.650240
v 58.782178 -15.817534 -1.051733
v 58.669070 -15.451508 -1.399844
v 57.458029 -15.817534 -0.377046
v 57.242884 -15.451508 -0.673166
v 56.407178 -15.817534 0.673805
v 56.111057 -15.451508 0.458661
v 55.732490 -15.817534 1.997954
v 55.384379 -15.451508 1.884846
v 55.732490 -15.817534 4.933616
v 55.384379 -15.451508 5.046724
v 56.407178 -15.817534 6.257765
v 56.111057 -15.451508 6.472909
v 57.458029 -15.817534 7.308616
v 57.242884 -15.451508 7.604737
v 58.782178 -15.817534 7.983304
v 58.669070 -15.451508 8.331414
v 60.250008 -15.817534 8.215785
v 60.250008 -15.451508 8.581811
v 61.717839 -15.817534 7.983304
v 61.830947 -15.451508 8.331414
v 63.041988 -15.817534 7.308616
v 63.257133 -15.451508 7.604737
v 64.092839 -15.817534 6.257765
v 64.388960 -15.451508 6.472909
v 64.767527 -15.817534 4.933616
v 65.115638 -15.451508 5.046724
vt -1.866588 1.289354 0.000000
vt -2.028822 1.263659 0.000000
vt -1.704354 1.263659 0.000000
vt -1.558001 1.189088 0.000000
vt -2.175175 1.189088 0.000000
vt -1.441854 1.072942 0.000000
vt -2.291322 1.072942 0.000000
vt -1.367283 0.926588 0.000000
vt -2.365893 0.926588 0.000000
vt -1.341588 0.764354 0.000000
vt -2.391588 0.764354 0.000000
vt -1.367283 0.602120 0.000000
vt -2.365893 0.602120 0.000000
vt -1.441854 0.455767 0.000000
vt -2.291322 0.455767 0.000000
vt -1.558001 0.339620 0.000000
vt -2.175175 0.339620 0.000000
vt -1.704354 0.265050 0.000000
vt -2.028822 0.265050 0.000000
vt -1.866588 0.239354 0.000000
vt 0.236750 1.484403 0.000000
vt 0.650000 1.484403 0.000000
vt 0.236750 1.649336 0.000000
vt 0.650000 1.649336 0.000000
vt 0.236750 -1.649336 0.000000
vt 0.650000 -1.649336 0.000000
vt 0.236750 -1.484403 0.000000
vt 0.650000 -1.484403 0.000000
vt 0.236750 -1.319469 0.000000
vt 0.650000 -1.319469 0.000000
vt 0.236750 -1.154535 0.000000
vt 0.650000 -1.154535 0.000000
vt 0.236750 -0.989602 0.000000
vt 0.650000 -0.989602 0.000000
vt 0.236750 -0.824668 0.000000
vt 0.650000 -0.824668 0.000000
vt 0.236750 -0.659734 0.000000
vt 0.650000 -0.659734 0.000000
vt 0.236750 -0.494801 0.000000
vt 0.650000 -0.494801 0.000000
vt 0.236750 -0.329867 0.000000
vt 0.650000 -0.329867 0.000000
vt 0.236750 -0.164934 0.000000
vt 0.650000 -0.164934 0.000000
vt 0.236750 0.000000 0.000000
vt 0.650000 -0.000000 0.000000
vt 0.236750 0.164934 0.000000
vt 0.650000 0.164934 0.000000
vt 0.236750 0.329867 0.000000
vt 0.650000 0.329867 0.000000
vt 0.236750 0.494801 0.000000
vt 0.650000 0.494801 0.000000
vt 0.236750 0.659734 0.000000
vt 0.650000 0.659734 0.000000
vt 0.236750 0.824668 0.000000
vt 0.650000 0.824668 0.000000
vt 0.236750 0.989602 0.000000
vt 0.650000 0.989602 0.000000
vt 0.236750 1.154535 0.000000
vt 0.650000 1.154535 0.000000
vt 0.236750 1.319469 0.000000
vt 0.650000 1.319469 0.000000
vt -0.399369 -0.145359 0.000000
vt 0.399369 -0.145359 0.000000
vt -0.425000 -0.000000 0.000000
vt 0.425000 -0.000000 0.000000
vt -0.399369 0.145359 0.000000
vt 0.399369 0.145359 0.000000
vt -0.325569 0.273185 0.000000
vt 0.325569 0.273185 0.000000
vt -0.212500 0.368061 0.000000
vt 0.212500 0.368061 0.000000
vt -0.073800 0.418543 0.000000
vt 0.073800 0.418543 0.000000
vt 0.325569 -0.273185 0.000000
vt -0.325569 -0.273185 0.000000
vt 0.212500 -0.368061 0.000000
vt -0.212500 -0.368061 0.000000
vt 0.073800 -0.418543 0.000000
vt -0.073800 -0.418543 0.000000
vt 0.157080 0.173036 0.000000
vt 0.104720 0.155732 0.000000
vt 0.157080 -0.000000 0.000000
vt 0.104720 0.000000 0.000000
vt 0.104720 -0.155732 0.000000
vt 0.052360 0.000000 0.000000
vt 0.052360 -0.155732 0.000000
vt -0.000000 0.000000 0.000000
vt 0.000000 -0.155732 0.000000
vt 0.104720 0.311464 0.000000
vt 0.157080 0.346071 0.000000
vt 0.104720 0.467196 0.000000
vt 0.157080 0.519107 0.000000
vt 0.104720 0.622928 0.000000
vt 0.157080 0.692143 0.000000
vt 0.104720 0.778661 0.000000
vt 0.157080 0.865178 0.000000
vt 0.104720 0.934393 0.000000
vt 0.157080 1.038214 0.000000
vt 0.104720 1.090125 0.000000
vt 0.157080 1.211250 0.000000
vt 0.104720 1.245857 0.000000
vt 0.157080 1.384285 0.000000
vt 0.104720 1.401589 0.000000
vt 0.157080 1.557321 0.000000
vt 0.104720 1.557321 0.000000
vt 0.104720 -1.557321 0.000000
vt 0.157080 -1.557321 0.000000
vt 0.104720 -1.401589 0.000000
vt 0.052360 -1.401589 0.000000
vt 0.052360 -1.245857 0.000000
vt 0.000000 -1.245857 0.000000
vt 0.000000 -1.090125 0.000000
vt 0.052360 -1.090125 0.000000
vt -0.000000 -0.934393 0.000000
vt 0.052360 -0.934393 0.000000
vt -0.000000 -0.778661 0.000000
vt 0.052360 -0.778661 0.000000
vt -0.000000 -0.622928 0.000000
vt 0.052360 -0.622928 0.000000
vt -0.000000 -0.467196 0.000000
vt 0.052360 -0.467196 0.000000
vt -0.000000 -0.311464 0.000000
vt 0.052360 -0.311464 0.000000
vt 0.157080 -1.384285 0.000000
vt 0.104720 -1.245857 0.000000
vt 0.157080 -1.211250 0.000000
vt 0.104720 -1.090125 0.000000
vt 0.157080 -1.038214 0.000000
vt 0.104720 -0.934393 0.000000
vt 0.157080 -0.865178 0.000000
vt 0.104720 -0.778661 0.000000
vt 0.157080 -0.692143 0.000000
vt 0.104720 -0.622928 0.000000
vt 0.157080 -0.519107 0.000000
vt 0.104720 -0.467196 0.000000
vt 0.157080 -0.346071 0.000000
vt 0.104720 -0.311464 0.000000
vt 0.157080 -0.173036 0.000000
vt -0.000000 -1.401589 0.000000
vt 0.052360 -1.557321 0.000000
vt 0.052360 1.557321 0.000000
vt -0.000000 -1.557321 0.000000
vt -0.000000 1.557321 0.000000
vt 0.052360 1.401589 0.000000
vt -0.000000 1.401589 0.000000
vt 0.052360 1.245857 0.000000
vt 0.000000 1.245857 0.000000
vt 0.052360 1.090125 0.000000
vt 0.000000 1.090125 0.000000
vt 0.052360 0.934393 0.000000
vt 0.000000 0.934393 0.000000
vt 0.052360 0.778661 0.000000
vt 0.000000 0.778661 0.000000
vt 0.052360 0.622928 0.000000
vt 0.000000 0.622928 0.000000
vt 0.052360 0.467196 0.000000
vt -0.000000 0.467196 0.000000
vt 0.052360 0.311464 0.000000
vt -0.000000 0.311464 0.000000
vt 0.052360 0.155732 0.000000
vt 0.000000 0.155732 0.000000
vn 0.000000 0.100000 -0.000000
vn 0.000000 0.100000 -0.000000
vn 0.000000 0.100000 -0.000000
vn 0.000000 0.100000 -0.000000
vn 0.000000 0.100000 -0.000000
vn 0.000000 0.100000 -0.000000
vn 0.000000 0.100000 -0.000000
vn 0.000000 0.100000 -0.000000
vn 0.000000 0.100000 -0.000000
vn 0.000000 0.100000 -0.000000
vn 0.000000 0.100000 -0.000000
vn 0.000000 0.100000 -0.000000
vn 0.000000 0.100000 -0.000000
vn 0.000000 0.100000 -0.000000
vn 0.000000 0.100000 -0.000000
vn 0.000000 0.100000 -0.000000
vn 0.000000 0.100000 -0.000000
vn 0.000000 0.100000 -0.000000
vn 0.000000 0.100000 -0.000000
vn 0.000000 0.100000 -0.000000
vn -0.095106 -0.000000 -0.030902
vn -0.095106 -0.000000 -0.030902
vn -0.100000 0.000000 -0.000000
vn -0.100000 0.000000 -0.000000
vn -0.095106 0.000000 0.030902
vn -0.095106 0.000000 0.030902
vn -0.080902 0.000000 0.058779
vn -0.080902 0.000000 0.058779
vn -0.058779 0.000000 0.080902
vn -0.058779 0.000000 0.080902
vn -0.030902 0.000000 0.095106
vn -0.030902 0.000000 0.095106
vn -0.000000 0.000000 0.100000
vn -0.000000 0.000000 0.100000
vn 0.030902 0.000000 0.095106
vn 0.030902 0.000000 0.095106
vn 0.058779 0.000000 0.080902
vn 0.058779 0.000000 0.080902
vn 0.080902 0.000000 0.058779
vn 0.080902 0.000000 0.058779
vn 0.095106 0.000000 0.030902
vn 0.095106 0.000000 0.030902
vn 0.100000 -0.000000 0.000000
vn 0.100000 -0.000000 0.000000
vn 0.095106 -0.000000 -0.030902
vn 0.095106 -0.000000 -0.030902
vn 0.080902 -0.000000 -0.058779
vn 0.080902 -0.000000 -0.058779
vn 0.058779 -0.000000 -0.080902
vn 0.058779 -0.000000 -0.080902
vn 0.030902 -0.000000 -0.095106
vn 0.030902 -0.000000 -0.095106
vn 0.000000 -0.000000 -0.100000
vn 0.000000 -0.000000 -0.100000
vn -0.030902 -0.000000 -0.095106
vn -0.030902 -0.000000 -0.095106
vn -0.058779 -0.000000 -0.080902
vn -0.058779 -0.000000 -0.080902
vn -0.080902 -0.000000 -0.058779
vn -0.080902 -0.000000 -0.058779
vn -0.000000 -0.100000 0.000000
vn -0.000000 -0.100000 0.000000
vn -0.000000 -0.100000 0.000000
vn -0.000000 -0.100000 0.000000
vn -0.000000 -0.100000 0.000000
vn -0.000000 -0.100000 0.000000
vn -0.000000 -0.100000 0.000000
vn -0.000000 -0.100000 0.000000
vn -0.000000 -0.100000 0.000000
vn -0.000000 -0.100000 0.000000
vn -0.000000 -0.100000 0.000000
vn -0.000000 -0.100000 0.000000
vn -0.000000 -0.100000 0.000000
vn -0.000000 -0.100000 0.000000
vn -0.000000 -0.100000 0.000000
vn -0.000000 -0.100000 0.000000
vn -0.000000 -0.100000 0.000000
vn -0.000000 -0.100000 0.000000
vn 0.047553 -0.086603 -0.015451
vn 0.050000 -0.086603 0.000000
vn 0.047553 -0.086603 0.015451
vn 0.086603 -0.050000 0.000000
vn 0.082364 -0.050000 0.026762
vn 0.040451 -0.086603 -0.029389
vn 0.029389 -0.086603 -0.040451
vn 0.015451 -0.086603 -0.047553
vn 0.000000 -0.086603 -0.050000
vn -0.015451 -0.086603 -0.047553
vn -0.029389 -0.086603 -0.040451
vn -0.040451 -0.086603 -0.029389
vn -0.047553 -0.086603 -0.015451
vn -0.050000 -0.086603 -0.000000
vn -0.047553 -0.086603 0.015451
vn -0.082364 -0.050000 0.026762
vn -0.070063 -0.050000 0.050904
vn -0.050904 -0.050000 0.070063
vn -0.026762 -0.050000 0.082364
vn -0.000000 -0.050000 0.086603
vn 0.026762 -0.050000 0.082364
vn 0.050904 -0.050000 0.070063
vn 0.070063 -0.050000 0.050904
vn -0.040451 -0.086603 0.029389
vn -0.029389 -0.086603 0.040451
vn -0.015451 -0.086603 0.047553
vn -0.000000 -0.086603 0.050000
vn 0.015451 -0.086603 0.047553
vn 0.029389 -0.086603 0.040451
vn 0.040451 -0.086603 0.029389
vn -0.086603 -0.050000 -0.000000
vn -0.082364 -0.050000 -0.026762
vn -0.070063 -0.050000 -0.050904
vn -0.050904 -0.050000 -0.070063
vn -0.026762 -0.050000 -0.082364
vn 0.000000 -0.050000 -0.086603
vn 0.026762 -0.050000 -0.082364
vn 0.050904 -0.050000 -0.070063
vn 0.070063 -0.050000 -0.050904
vn 0.082364 -0.050000 -0.026762
usemtl Paint_-_Enamel_Glossy_(Dark_Grey)
f 1/1/1 2/2/2 20/3/3
f 20/3/3 2/2/2 19/4/4
f 19/4/4 2/2/2 3/5/5
f 19/4/4 3/5/5 18/6/6
f 18/6/6 3/5/5 4/7/7
f 18/6/6 4/7/7 17/8/8
f 17/8/8 4/7/7 5/9/9
f 17/8/8 5/9/9 16/10/10
f 16/10/10 5/9/9 6/11/11
f 16/10/10 6/11/11 15/12/12
f 15/12/12 6/11/11 7/13/13
f 15/12/12 7/13/13 14/14/14
f 14/14/14 7/13/13 8/15/15
f 14/14/14 8/15/15 13/16/16
f 13/16/16 8/15/15 9/17/17
f 13/16/16 9/17/17 12/18/18
f 12/18/18 9/17/17 10/19/19
f 12/18/18 10/19/19 11/20/20
f 20/21/21 30/22/22 1/23/23
f 1/23/23 30/22/22 31/24/24
f 1/25/23 31/26/24 2/27/25
f 2/27/25 31/26/24 32/28/26
f 2/27/25 32/28/26 3/29/27
f 3/29/27 32/28/26 33/30/28
f 3/29/27 33/30/28 4/31/29
f 4/31/29 33/30/28 34/32/30
f 4/31/29 34/32/30 5/33/31
f 5/33/31 34/32/30 35/34/32
f 5/33/31 35/34/32 6/35/33
f 6/35/33 35/34/32 36/36/34
f 6/35/33 36/36/34 7/37/35
f 7/37/35 36/36/34 37/38/36
f 7/37/35 37/38/36 8/39/37
f 8/39/37 37/38/36 38/40/38
f 8/39/37 38/40/38 9/41/39
f 9/41/39 38/40/38 39/42/40
f 9/41/39 39/42/40 10/43/41
f 10/43/41 39/42/40 40/44/42
f 10/43/41 40/44/42 11/45/43
f 11/45/43 40/44/42 21/46/44
f 11/45/43 21/46/44 12/47/45
f 12/47/45 21/46/44 22/48/46
f 12/47/45 22/48/46 13/49/47
f 13/49/47 22/48/46 23/50/48
f 13/49/47 23/50/48 14/51/49
f 14/51/49 23/50/48 24/52/50
f 14/51/49 24/52/50 15/53/51
f 15/53/51 24/52/50 25/54/52
f 15/53/51 25/54/52 16/55/53
f 16/55/53 25/54/52 26/56/54
f 16/55/53 26/56/54 17/57/55
f 17/57/55 26/56/54 27/58/56
f 17/57/55 27/58/56 18/59/57
f 18/59/57 27/58/56 28/60/58
f 18/59/57 28/60/58 19/61/59
f 19/61/59 28/60/58 29/62/60
f 19/61/59 29/62/60 20/21/21
f 20/21/21 29/62/60 30/22/22
f 42/63/61 49/64/62 41/65/63
f 41/65/63 49/64/62 50/66/64
f 41/65/63 50/66/64 58/67/65
f 58/67/65 50/66/64 51/68/66
f 58/67/65 51/68/66 57/69/67
f 57/69/67 51/68/66 52/70/68
f 57/69/67 52/70/68 56/71/69
f 56/71/69 52/70/68 53/72/70
f 56/71/69 53/72/70 55/73/71
f 55/73/71 53/72/70 54/74/72
f 49/64/62 42/63/61 48/75/73
f 48/75/73 42/63/61 43/76/74
f 48/75/73 43/76/74 47/77/75
f 47/77/75 43/76/74 44/78/76
f 47/77/75 44/78/76 46/79/77
f 46/79/77 44/78/76 45/80/78
f 58/81/65 61/82/79 41/83/63
f 41/83/63 61/82/79 64/84/80
f 41/83/63 64/84/80 97/85/81
f 97/85/81 64/84/80 63/86/82
f 97/85/81 63/86/82 98/87/83
f 98/87/83 63/86/82 21/88/44
f 98/87/83 21/88/44 40/89/42
f 61/82/79 58/81/65 65/90/84
f 65/90/84 58/81/65 57/91/67
f 65/90/84 57/91/67 67/92/85
f 67/92/85 57/91/67 56/93/69
f 67/92/85 56/93/69 69/94/86
f 69/94/86 56/93/69 55/95/71
f 69/94/86 55/95/71 71/96/87
f 71/96/87 55/95/71 54/97/72
f 71/96/87 54/97/72 73/98/88
f 73/98/88 54/97/72 53/99/70
f 73/98/88 53/99/70 75/100/89
f 75/100/89 53/99/70 52/101/68
f 75/100/89 52/101/68 77/102/90
f 77/102/90 52/101/68 51/103/66
f 77/102/90 51/103/66 79/104/91
f 79/104/91 51/103/66 50/105/64
f 79/104/91 50/105/64 59/106/92
f 59/107/92 50/108/64 81/109/93
f 59/107/92 81/109/93 82/110/94
f 82/110/94 81/109/93 84/111/95
f 82/110/94 84/111/95 33/112/28
f 33/112/28 84/111/95 34/113/30
f 34/113/30 84/111/95 86/114/96
f 34/113/30 86/114/96 35/115/32
f 35/115/32 86/114/96 88/116/97
f 35/115/32 88/116/97 36/117/34
f 36/117/34 88/116/97 90/118/98
f 36/117/34 90/118/98 37/119/36
f 37/119/36 90/118/98 92/120/99
f 37/119/36 92/120/99 38/121/38
f 38/121/38 92/120/99 94/122/100
f 38/121/38 94/122/100 39/123/40
f 39/123/40 94/122/100 96/124/101
f 39/123/40 96/124/101 40/89/42
f 40/89/42 96/124/101 98/87/83
f 50/108/64 49/125/62 81/109/93
f 81/109/93 49/125/62 83/126/102
f 81/109/93 83/126/102 84/111/95
f 84/111/95 83/126/102 86/114/96
f 49/125/62 48/127/73 83/126/102
f 83/126/102 48/127/73 85/128/103
f 83/126/102 85/128/103 86/114/96
f 86/114/96 85/128/103 88/116/97
f 48/127/73 47/129/75 85/128/103
f 85/128/103 47/129/75 87/130/104
f 85/128/103 87/130/104 88/116/97
f 88/116/97 87/130/104 90/118/98
f 47/129/75 46/131/77 87/130/104
f 87/130/104 46/131/77 89/132/105
f 87/130/104 89/132/105 90/118/98
f 90/118/98 89/132/105 92/120/99
f 46/131/77 45/133/78 89/132/105
f 89/132/105 45/133/78 91/134/106
f 89/132/105 91/134/106 92/120/99
f 92/120/99 91/134/106 94/122/100
f 45/133/78 44/135/76 91/134/106
f 91/134/106 44/135/76 93/136/107
f 91/134/106 93/136/107 94/122/100
f 94/122/100 93/136/107 96/124/101
f 44/135/76 43/137/74 93/136/107
f 93/136/107 43/137/74 95/138/108
f 93/136/107 95/138/108 96/124/101
f 96/124/101 95/138/108 98/87/83
f 43/137/74 42/139/61 95/138/108
f 95/138/108 42/139/61 97/85/81
f 95/138/108 97/85/81 98/87/83
f 42/139/61 41/83/63 97/85/81
f 33/112/28 32/140/26 82/110/94
f 82/110/94 32/140/26 60/141/109
f 82/110/94 60/141/109 59/107/92
f 59/106/92 60/142/109 79/104/91
f 32/140/26 31/143/24 60/141/109
f 60/142/109 31/144/24 80/145/110
f 60/142/109 80/145/110 79/104/91
f 79/104/91 80/145/110 77/102/90
f 31/144/24 30/146/22 80/145/110
f 80/145/110 30/146/22 78/147/111
f 80/145/110 78/147/111 77/102/90
f 77/102/90 78/147/111 75/100/89
f 30/146/22 29/148/60 78/147/111
f 78/147/111 29/148/60 76/149/112
f 78/147/111 76/149/112 75/100/89
f 75/100/89 76/149/112 73/98/88
f 29/148/60 28/150/58 76/149/112
f 76/149/112 28/150/58 74/151/113
f 76/149/112 74/151/113 73/98/88
f 73/98/88 74/151/113 71/96/87
f 28/150/58 27/152/56 74/151/113
f 74/151/113 27/152/56 72/153/114
f 74/151/113 72/153/114 71/96/87
f 71/96/87 72/153/114 69/94/86
f 27/152/56 26/154/54 72/153/114
f 72/153/114 26/154/54 70/155/115
f 72/153/114 70/155/115 69/94/86
f 69/94/86 70/155/115 67/92/85
f 26/154/54 25/156/52 70/155/115
f 70/155/115 25/156/52 68/157/116
f 70/155/115 68/157/116 67/92/85
f 67/92/85 68/157/116 65/90/84
f 25/156/52 24/158/50 68/157/116
f 68/157/116 24/158/50 66/159/117
f 68/157/116 66/159/117 65/90/84
f 65/90/84 66/159/117 61/82/79
f 24/158/50 23/160/48 66/159/117
f 66/159/117 23/160/48 62/161/118
f 66/159/117 62/161/118 61/82/79
f 61/82/79 62/161/118 64/84/80
f 23/160/48 22/162/46 62/161/118
f 62/161/118 22/162/46 63/86/82
f 62/161/118 63/86/82 64/84/80
f 22/162/46 21/88/44 63/86/82
# 98 vertices
# 162 texture params
# 118 normals
# 192 facets

# 1 groups
