# WaveFront *.obj file (generated by Autodesk ATF)

mtllib DS4_DS4 v63_Y_DS4 v63.mtl

g Y

v 54.250008 -10.819007 14.715785
v 53.993055 -10.819007 13.093446
v 53.247348 -10.819007 11.629913
v 52.085881 -10.819007 10.468446
v 50.622348 -10.819007 9.722738
v 49.000008 -10.819007 9.465785
v 47.377669 -10.819007 9.722738
v 45.914136 -10.819007 10.468446
v 44.752669 -10.819007 11.629913
v 44.006962 -10.819007 13.093446
v 43.750008 -10.819007 14.715785
v 44.006962 -10.819007 16.338124
v 44.752669 -10.819007 17.801658
v 45.914136 -10.819007 18.963124
v 47.377669 -10.819007 19.708832
v 49.000008 -10.819007 19.965785
v 50.622348 -10.819007 19.708832
v 52.085881 -10.819007 18.963124
v 53.247348 -10.819007 17.801658
v 53.993055 -10.819007 16.338124
v 54.250008 -14.951508 14.715785
v 53.993055 -14.951508 13.093446
v 53.247348 -14.951508 11.629913
v 52.085881 -14.951508 10.468446
v 50.622348 -14.951508 9.722738
v 49.000008 -14.951508 9.465785
v 47.377669 -14.951508 9.722738
v 45.914136 -14.951508 10.468446
v 44.752669 -14.951508 11.629913
v 44.006962 -14.951508 13.093446
v 43.750008 -14.951508 14.715785
v 44.006962 -14.951508 16.338124
v 44.752669 -14.951508 17.801658
v 45.914136 -14.951508 18.963124
v 47.377669 -14.951508 19.708832
v 49.000008 -14.951508 19.965785
v 50.622348 -14.951508 19.708832
v 52.085881 -14.951508 18.963124
v 53.247348 -14.951508 17.801658
v 53.993055 -14.951508 16.338124
v 53.250008 -15.951508 14.715785
v 52.993702 -15.951508 16.169371
v 52.255697 -15.951508 17.447633
v 51.125008 -15.951508 18.396393
v 49.738013 -15.951508 18.901218
v 48.262004 -15.951508 18.901218
v 46.875008 -15.951508 18.396393
v 45.744320 -15.951508 17.447633
v 45.006315 -15.951508 16.169371
v 44.750008 -15.951508 14.715785
v 45.006315 -15.951508 13.262200
v 45.744320 -15.951508 11.983938
v 46.875008 -15.951508 11.035177
v 48.262004 -15.951508 10.530352
v 49.738013 -15.951508 10.530352
v 51.125008 -15.951508 11.035177
v 52.255697 -15.951508 11.983938
v 52.993702 -15.951508 13.262200
v 43.883983 -15.451508 14.715785
v 44.250008 -15.817534 14.715785
v 53.865638 -15.451508 16.296724
v 53.517527 -15.817534 16.183616
v 53.750008 -15.817534 14.715785
v 54.116034 -15.451508 14.715785
v 53.138960 -15.451508 17.722909
v 52.842839 -15.817534 17.507765
v 52.007133 -15.451508 18.854737
v 51.791988 -15.817534 18.558616
v 50.580947 -15.451508 19.581414
v 50.467839 -15.817534 19.233304
v 49.000008 -15.451508 19.831811
v 49.000008 -15.817534 19.465785
v 47.419070 -15.451508 19.581414
v 47.532178 -15.817534 19.233304
v 45.992884 -15.451508 18.854737
v 46.208029 -15.817534 18.558616
v 44.861057 -15.451508 17.722909
v 45.157178 -15.817534 17.507765
v 44.134379 -15.451508 16.296724
v 44.482490 -15.817534 16.183616
v 44.134379 -15.451508 13.134846
v 44.482490 -15.817534 13.247954
v 44.861057 -15.451508 11.708661
v 45.157178 -15.817534 11.923805
v 45.992884 -15.451508 10.576834
v 46.208029 -15.817534 10.872954
v 47.419070 -15.451508 9.850156
v 47.532178 -15.817534 10.198267
v 49.000008 -15.451508 9.599760
v 49.000008 -15.817534 9.965785
v 50.580947 -15.451508 9.850156
v 50.467839 -15.817534 10.198267
v 52.007133 -15.451508 10.576834
v 51.791988 -15.817534 10.872954
v 53.138960 -15.451508 11.708661
v 52.842839 -15.817534 11.923805
v 53.865638 -15.451508 13.134846
v 53.517527 -15.817534 13.247954
vt -2.991588 1.364354 0.000000
vt -2.829354 1.390050 0.000000
vt -3.153822 1.390050 0.000000
vt -3.300175 1.464620 0.000000
vt -2.683001 1.464620 0.000000
vt -3.416322 1.580767 0.000000
vt -2.566854 1.580767 0.000000
vt -3.490893 1.727120 0.000000
vt -2.492283 1.727120 0.000000
vt -3.516588 1.889354 0.000000
vt -2.466588 1.889354 0.000000
vt -3.490893 2.051588 0.000000
vt -2.492283 2.051588 0.000000
vt -3.416322 2.197942 0.000000
vt -2.566854 2.197942 0.000000
vt -3.300175 2.314088 0.000000
vt -2.683001 2.314088 0.000000
vt -3.153822 2.388659 0.000000
vt -2.829354 2.388659 0.000000
vt -2.991588 2.414354 0.000000
vt 0.236750 1.484403 0.000000
vt 0.650000 1.484403 0.000000
vt 0.236750 1.649336 0.000000
vt 0.650000 1.649336 0.000000
vt 0.236750 -1.649336 0.000000
vt 0.650000 -1.649336 0.000000
vt 0.236750 -1.484403 0.000000
vt 0.650000 -1.484403 0.000000
vt 0.236750 -1.319469 0.000000
vt 0.650000 -1.319469 0.000000
vt 0.236750 -1.154535 0.000000
vt 0.650000 -1.154535 0.000000
vt 0.236750 -0.989602 0.000000
vt 0.650000 -0.989602 0.000000
vt 0.236750 -0.824668 0.000000
vt 0.650000 -0.824668 0.000000
vt 0.236750 -0.659734 0.000000
vt 0.650000 -0.659734 0.000000
vt 0.236750 -0.494801 0.000000
vt 0.650000 -0.494801 0.000000
vt 0.236750 -0.329867 0.000000
vt 0.650000 -0.329867 0.000000
vt 0.236750 -0.164934 0.000000
vt 0.650000 -0.164934 0.000000
vt 0.236750 -0.000000 0.000000
vt 0.650000 0.000000 0.000000
vt 0.236750 0.164934 0.000000
vt 0.650000 0.164934 0.000000
vt 0.236750 0.329867 0.000000
vt 0.650000 0.329867 0.000000
vt 0.236750 0.494801 0.000000
vt 0.650000 0.494801 0.000000
vt 0.236750 0.659734 0.000000
vt 0.650000 0.659734 0.000000
vt 0.236750 0.824668 0.000000
vt 0.650000 0.824668 0.000000
vt 0.236750 0.989602 0.000000
vt 0.650000 0.989602 0.000000
vt 0.236750 1.154535 0.000000
vt 0.650000 1.154535 0.000000
vt 0.236750 1.319469 0.000000
vt 0.650000 1.319469 0.000000
vt 0.399369 0.145359 0.000000
vt -0.399369 0.145359 0.000000
vt 0.425000 -0.000000 0.000000
vt -0.425000 0.000000 0.000000
vt 0.399369 -0.145359 0.000000
vt -0.399369 -0.145359 0.000000
vt 0.325569 -0.273185 0.000000
vt -0.325569 -0.273185 0.000000
vt 0.212500 -0.368061 0.000000
vt -0.212500 -0.368061 0.000000
vt 0.073800 -0.418543 0.000000
vt -0.073800 -0.418543 0.000000
vt -0.325569 0.273185 0.000000
vt 0.325569 0.273185 0.000000
vt -0.212500 0.368061 0.000000
vt 0.212500 0.368061 0.000000
vt -0.073800 0.418543 0.000000
vt 0.073800 0.418543 0.000000
vt -0.000000 0.155732 0.000000
vt -0.052360 0.155732 0.000000
vt 0.000000 -0.000000 0.000000
vt -0.052360 -0.000000 0.000000
vt -0.000000 -0.155732 0.000000
vt -0.052360 -0.155732 0.000000
vt -0.000000 -0.311464 0.000000
vt -0.052360 -0.311464 0.000000
vt 0.000000 -0.467196 0.000000
vt -0.052360 -0.467196 0.000000
vt 0.000000 -0.622928 0.000000
vt -0.052360 -0.622928 0.000000
vt 0.000000 -0.778661 0.000000
vt -0.052360 -0.778661 0.000000
vt -0.000000 -0.934393 0.000000
vt -0.052360 -0.934393 0.000000
vt -0.000000 -1.090125 0.000000
vt -0.052360 -1.090125 0.000000
vt 0.000000 -1.245857 0.000000
vt -0.052360 -1.245857 0.000000
vt 0.000000 -1.401589 0.000000
vt -0.052360 -1.401589 0.000000
vt 0.000000 -1.557321 0.000000
vt -0.052360 -1.557321 0.000000
vt 0.000000 1.557321 0.000000
vt -0.052360 1.557321 0.000000
vt 0.000000 1.401589 0.000000
vt -0.052360 1.401589 0.000000
vt 0.000000 1.245857 0.000000
vt -0.052360 1.245857 0.000000
vt -0.000000 1.090125 0.000000
vt -0.052360 1.090125 0.000000
vt -0.000000 0.934393 0.000000
vt -0.052360 0.934393 0.000000
vt -0.000000 0.778661 0.000000
vt -0.052360 0.778661 0.000000
vt 0.000000 0.622928 0.000000
vt -0.052360 0.622928 0.000000
vt 0.000000 0.467196 0.000000
vt -0.052360 0.467196 0.000000
vt -0.000000 0.311464 0.000000
vt -0.052360 0.311464 0.000000
vt -0.157080 -0.173036 0.000000
vt -0.104720 -0.155732 0.000000
vt -0.157080 -0.000000 0.000000
vt -0.104720 -0.000000 0.000000
vt -0.104720 0.155732 0.000000
vt -0.104720 -0.311464 0.000000
vt -0.157080 -0.346071 0.000000
vt -0.104720 -0.467196 0.000000
vt -0.157080 -0.519107 0.000000
vt -0.104720 -0.622928 0.000000
vt -0.157080 -0.692143 0.000000
vt -0.104720 -0.778661 0.000000
vt -0.157080 -0.865178 0.000000
vt -0.104720 -0.934393 0.000000
vt -0.157080 -1.038214 0.000000
vt -0.104720 -1.090125 0.000000
vt -0.157080 -1.211250 0.000000
vt -0.104720 -1.245857 0.000000
vt -0.157080 -1.384285 0.000000
vt -0.104720 -1.401589 0.000000
vt -0.157080 -1.557321 0.000000
vt -0.104720 -1.557321 0.000000
vt -0.104720 1.557321 0.000000
vt -0.157080 1.557321 0.000000
vt -0.104720 1.401589 0.000000
vt -0.157080 1.384285 0.000000
vt -0.104720 1.245857 0.000000
vt -0.157080 1.211250 0.000000
vt -0.104720 1.090125 0.000000
vt -0.157080 1.038214 0.000000
vt -0.104720 0.934393 0.000000
vt -0.157080 0.865178 0.000000
vt -0.104720 0.778661 0.000000
vt -0.157080 0.692143 0.000000
vt -0.104720 0.622928 0.000000
vt -0.157080 0.519107 0.000000
vt -0.104720 0.467196 0.000000
vt -0.157080 0.346071 0.000000
vt -0.104720 0.311464 0.000000
vt -0.157080 0.173036 0.000000
vn 0.000000 0.100000 -0.000000
vn 0.000000 0.100000 -0.000000
vn 0.000000 0.100000 -0.000000
vn 0.000000 0.100000 -0.000000
vn 0.000000 0.100000 -0.000000
vn 0.000000 0.100000 -0.000000
vn 0.000000 0.100000 -0.000000
vn 0.000000 0.100000 -0.000000
vn 0.000000 0.100000 -0.000000
vn 0.000000 0.100000 -0.000000
vn 0.000000 0.100000 -0.000000
vn 0.000000 0.100000 -0.000000
vn 0.000000 0.100000 -0.000000
vn 0.000000 0.100000 -0.000000
vn 0.000000 0.100000 -0.000000
vn 0.000000 0.100000 -0.000000
vn 0.000000 0.100000 -0.000000
vn 0.000000 0.100000 -0.000000
vn 0.000000 0.100000 -0.000000
vn 0.000000 0.100000 -0.000000
vn 0.095106 0.000000 0.030902
vn 0.095106 0.000000 0.030902
vn 0.100000 -0.000000 0.000000
vn 0.100000 -0.000000 0.000000
vn 0.095106 -0.000000 -0.030902
vn 0.095106 -0.000000 -0.030902
vn 0.080902 -0.000000 -0.058779
vn 0.080902 -0.000000 -0.058779
vn 0.058779 -0.000000 -0.080902
vn 0.058779 -0.000000 -0.080902
vn 0.030902 -0.000000 -0.095106
vn 0.030902 -0.000000 -0.095106
vn 0.000000 -0.000000 -0.100000
vn 0.000000 -0.000000 -0.100000
vn -0.030902 -0.000000 -0.095106
vn -0.030902 -0.000000 -0.095106
vn -0.058779 -0.000000 -0.080902
vn -0.058779 -0.000000 -0.080902
vn -0.080902 -0.000000 -0.058779
vn -0.080902 -0.000000 -0.058779
vn -0.095106 -0.000000 -0.030902
vn -0.095106 -0.000000 -0.030902
vn -0.100000 0.000000 -0.000000
vn -0.100000 0.000000 -0.000000
vn -0.095106 0.000000 0.030902
vn -0.095106 0.000000 0.030902
vn -0.080902 0.000000 0.058779
vn -0.080902 0.000000 0.058779
vn -0.058779 0.000000 0.080902
vn -0.058779 0.000000 0.080902
vn -0.030902 0.000000 0.095106
vn -0.030902 0.000000 0.095106
vn -0.000000 0.000000 0.100000
vn -0.000000 0.000000 0.100000
vn 0.030902 0.000000 0.095106
vn 0.030902 0.000000 0.095106
vn 0.058779 0.000000 0.080902
vn 0.058779 0.000000 0.080902
vn 0.080902 0.000000 0.058779
vn 0.080902 0.000000 0.058779
vn -0.000000 -0.100000 0.000000
vn -0.000000 -0.100000 0.000000
vn -0.000000 -0.100000 0.000000
vn -0.000000 -0.100000 0.000000
vn -0.000000 -0.100000 0.000000
vn -0.000000 -0.100000 0.000000
vn -0.000000 -0.100000 0.000000
vn -0.000000 -0.100000 0.000000
vn -0.000000 -0.100000 0.000000
vn -0.000000 -0.100000 0.000000
vn -0.000000 -0.100000 0.000000
vn -0.000000 -0.100000 0.000000
vn -0.000000 -0.100000 0.000000
vn -0.000000 -0.100000 0.000000
vn -0.000000 -0.100000 0.000000
vn -0.000000 -0.100000 0.000000
vn -0.000000 -0.100000 0.000000
vn -0.000000 -0.100000 0.000000
vn 0.082364 -0.050000 0.026762
vn 0.086603 -0.050000 0.000000
vn 0.082364 -0.050000 -0.026762
vn 0.070063 -0.050000 -0.050904
vn 0.050904 -0.050000 -0.070063
vn 0.026762 -0.050000 -0.082364
vn 0.000000 -0.050000 -0.086603
vn -0.026762 -0.050000 -0.082364
vn -0.050904 -0.050000 -0.070063
vn -0.070063 -0.050000 -0.050904
vn -0.082364 -0.050000 -0.026762
vn -0.086603 -0.050000 -0.000000
vn -0.082364 -0.050000 0.026762
vn -0.070063 -0.050000 0.050904
vn -0.050904 -0.050000 0.070063
vn -0.026762 -0.050000 0.082364
vn -0.000000 -0.050000 0.086603
vn 0.026762 -0.050000 0.082364
vn 0.050904 -0.050000 0.070063
vn 0.070063 -0.050000 0.050904
vn 0.047553 -0.086603 -0.015451
vn 0.050000 -0.086603 0.000000
vn 0.047553 -0.086603 0.015451
vn 0.040451 -0.086603 -0.029389
vn 0.029389 -0.086603 -0.040451
vn 0.015451 -0.086603 -0.047553
vn 0.000000 -0.086603 -0.050000
vn -0.015451 -0.086603 -0.047553
vn -0.029389 -0.086603 -0.040451
vn -0.040451 -0.086603 -0.029389
vn -0.047553 -0.086603 -0.015451
vn -0.050000 -0.086603 -0.000000
vn -0.047553 -0.086603 0.015451
vn -0.040451 -0.086603 0.029389
vn -0.029389 -0.086603 0.040451
vn -0.015451 -0.086603 0.047553
vn -0.000000 -0.086603 0.050000
vn 0.015451 -0.086603 0.047553
vn 0.029389 -0.086603 0.040451
vn 0.040451 -0.086603 0.029389
usemtl Paint_-_Enamel_Glossy_(Dark_Grey)
f 1/1/1 2/2/2 20/3/3
f 20/3/3 2/2/2 19/4/4
f 19/4/4 2/2/2 3/5/5
f 19/4/4 3/5/5 18/6/6
f 18/6/6 3/5/5 4/7/7
f 18/6/6 4/7/7 17/8/8
f 17/8/8 4/7/7 5/9/9
f 17/8/8 5/9/9 16/10/10
f 16/10/10 5/9/9 6/11/11
f 16/10/10 6/11/11 15/12/12
f 15/12/12 6/11/11 7/13/13
f 15/12/12 7/13/13 14/14/14
f 14/14/14 7/13/13 8/15/15
f 14/14/14 8/15/15 13/16/16
f 13/16/16 8/15/15 9/17/17
f 13/16/16 9/17/17 12/18/18
f 12/18/18 9/17/17 10/19/19
f 12/18/18 10/19/19 11/20/20
f 20/21/21 40/22/22 1/23/23
f 1/23/23 40/22/22 21/24/24
f 1/25/23 21/26/24 2/27/25
f 2/27/25 21/26/24 22/28/26
f 2/27/25 22/28/26 3/29/27
f 3/29/27 22/28/26 23/30/28
f 3/29/27 23/30/28 4/31/29
f 4/31/29 23/30/28 24/32/30
f 4/31/29 24/32/30 5/33/31
f 5/33/31 24/32/30 25/34/32
f 5/33/31 25/34/32 6/35/33
f 6/35/33 25/34/32 26/36/34
f 6/35/33 26/36/34 7/37/35
f 7/37/35 26/36/34 27/38/36
f 7/37/35 27/38/36 8/39/37
f 8/39/37 27/38/36 28/40/38
f 8/39/37 28/40/38 9/41/39
f 9/41/39 28/40/38 29/42/40
f 9/41/39 29/42/40 10/43/41
f 10/43/41 29/42/40 30/44/42
f 10/43/41 30/44/42 11/45/43
f 11/45/43 30/44/42 31/46/44
f 11/45/43 31/46/44 12/47/45
f 12/47/45 31/46/44 32/48/46
f 12/47/45 32/48/46 13/49/47
f 13/49/47 32/48/46 33/50/48
f 13/49/47 33/50/48 14/51/49
f 14/51/49 33/50/48 34/52/50
f 14/51/49 34/52/50 15/53/51
f 15/53/51 34/52/50 35/54/52
f 15/53/51 35/54/52 16/55/53
f 16/55/53 35/54/52 36/56/54
f 16/55/53 36/56/54 17/57/55
f 17/57/55 36/56/54 37/58/56
f 17/57/55 37/58/56 18/59/57
f 18/59/57 37/58/56 38/60/58
f 18/59/57 38/60/58 19/61/59
f 19/61/59 38/60/58 39/62/60
f 19/61/59 39/62/60 20/21/21
f 20/21/21 39/62/60 40/22/22
f 42/63/61 49/64/62 41/65/63
f 41/65/63 49/64/62 50/66/64
f 41/65/63 50/66/64 58/67/65
f 58/67/65 50/66/64 51/68/66
f 58/67/65 51/68/66 57/69/67
f 57/69/67 51/68/66 52/70/68
f 57/69/67 52/70/68 56/71/69
f 56/71/69 52/70/68 53/72/70
f 56/71/69 53/72/70 55/73/71
f 55/73/71 53/72/70 54/74/72
f 49/64/62 42/63/61 48/75/73
f 48/75/73 42/63/61 43/76/74
f 48/75/73 43/76/74 47/77/75
f 47/77/75 43/76/74 44/78/76
f 47/77/75 44/78/76 46/79/77
f 46/79/77 44/78/76 45/80/78
f 40/81/22 61/82/79 21/83/24
f 21/83/24 61/82/79 64/84/80
f 21/83/24 64/84/80 22/85/26
f 22/85/26 64/84/80 97/86/81
f 22/85/26 97/86/81 23/87/28
f 23/87/28 97/86/81 95/88/82
f 23/87/28 95/88/82 24/89/30
f 24/89/30 95/88/82 93/90/83
f 24/89/30 93/90/83 25/91/32
f 25/91/32 93/90/83 91/92/84
f 25/91/32 91/92/84 26/93/34
f 26/93/34 91/92/84 89/94/85
f 26/93/34 89/94/85 27/95/36
f 27/95/36 89/94/85 87/96/86
f 27/95/36 87/96/86 28/97/38
f 28/97/38 87/96/86 85/98/87
f 28/97/38 85/98/87 29/99/40
f 29/99/40 85/98/87 83/100/88
f 29/99/40 83/100/88 30/101/42
f 30/101/42 83/100/88 81/102/89
f 30/101/42 81/102/89 31/103/44
f 31/103/44 81/102/89 59/104/90
f 31/105/44 59/106/90 32/107/46
f 32/107/46 59/106/90 79/108/91
f 32/107/46 79/108/91 33/109/48
f 33/109/48 79/108/91 77/110/92
f 33/109/48 77/110/92 34/111/50
f 34/111/50 77/110/92 75/112/93
f 34/111/50 75/112/93 35/113/52
f 35/113/52 75/112/93 73/114/94
f 35/113/52 73/114/94 36/115/54
f 36/115/54 73/114/94 71/116/95
f 36/115/54 71/116/95 37/117/56
f 37/117/56 71/116/95 69/118/96
f 37/117/56 69/118/96 38/119/58
f 38/119/58 69/118/96 67/120/97
f 38/119/58 67/120/97 39/121/60
f 39/121/60 67/120/97 65/122/98
f 39/121/60 65/122/98 40/81/22
f 40/81/22 65/122/98 61/82/79
f 58/123/65 98/124/99 41/125/63
f 41/125/63 98/124/99 63/126/100
f 41/125/63 63/126/100 62/127/101
f 62/127/101 63/126/100 64/84/80
f 62/127/101 64/84/80 61/82/79
f 98/124/99 58/123/65 96/128/102
f 96/128/102 58/123/65 57/129/67
f 96/128/102 57/129/67 94/130/103
f 94/130/103 57/129/67 56/131/69
f 94/130/103 56/131/69 92/132/104
f 92/132/104 56/131/69 55/133/71
f 92/132/104 55/133/71 90/134/105
f 90/134/105 55/133/71 54/135/72
f 90/134/105 54/135/72 88/136/106
f 88/136/106 54/135/72 53/137/70
f 88/136/106 53/137/70 86/138/107
f 86/138/107 53/137/70 52/139/68
f 86/138/107 52/139/68 84/140/108
f 84/140/108 52/139/68 51/141/66
f 84/140/108 51/141/66 82/142/109
f 82/142/109 51/141/66 50/143/64
f 82/142/109 50/143/64 60/144/110
f 60/145/110 50/146/64 80/147/111
f 60/145/110 80/147/111 79/108/91
f 79/108/91 80/147/111 77/110/92
f 50/146/64 49/148/62 80/147/111
f 80/147/111 49/148/62 78/149/112
f 80/147/111 78/149/112 77/110/92
f 77/110/92 78/149/112 75/112/93
f 49/148/62 48/150/73 78/149/112
f 78/149/112 48/150/73 76/151/113
f 78/149/112 76/151/113 75/112/93
f 75/112/93 76/151/113 73/114/94
f 48/150/73 47/152/75 76/151/113
f 76/151/113 47/152/75 74/153/114
f 76/151/113 74/153/114 73/114/94
f 73/114/94 74/153/114 71/116/95
f 47/152/75 46/154/77 74/153/114
f 74/153/114 46/154/77 72/155/115
f 74/153/114 72/155/115 71/116/95
f 71/116/95 72/155/115 69/118/96
f 46/154/77 45/156/78 72/155/115
f 72/155/115 45/156/78 70/157/116
f 72/155/115 70/157/116 69/118/96
f 69/118/96 70/157/116 67/120/97
f 45/156/78 44/158/76 70/157/116
f 70/157/116 44/158/76 68/159/117
f 70/157/116 68/159/117 67/120/97
f 67/120/97 68/159/117 65/122/98
f 44/158/76 43/160/74 68/159/117
f 68/159/117 43/160/74 66/161/118
f 68/159/117 66/161/118 65/122/98
f 65/122/98 66/161/118 61/82/79
f 43/160/74 42/162/61 66/161/118
f 66/161/118 42/162/61 62/127/101
f 66/161/118 62/127/101 61/82/79
f 42/162/61 41/125/63 62/127/101
f 82/142/109 60/144/110 59/104/90
f 59/106/90 60/145/110 79/108/91
f 82/142/109 59/104/90 81/102/89
f 97/86/81 64/84/80 63/126/100
f 97/86/81 63/126/100 98/124/99
f 84/140/108 82/142/109 81/102/89
f 84/140/108 81/102/89 83/100/88
f 86/138/107 84/140/108 83/100/88
f 86/138/107 83/100/88 85/98/87
f 88/136/106 86/138/107 85/98/87
f 88/136/106 85/98/87 87/96/86
f 90/134/105 88/136/106 87/96/86
f 90/134/105 87/96/86 89/94/85
f 92/132/104 90/134/105 89/94/85
f 92/132/104 89/94/85 91/92/84
f 94/130/103 92/132/104 91/92/84
f 94/130/103 91/92/84 93/90/83
f 96/128/102 94/130/103 93/90/83
f 96/128/102 93/90/83 95/88/82
f 98/124/99 96/128/102 95/88/82
f 98/124/99 95/88/82 97/86/81
# 98 vertices
# 162 texture params
# 118 normals
# 192 facets

# 1 groups
