# WaveFront *.obj file (generated by Autodesk ATF)

mtllib A-Symbol.mtl

g A-Symbol

v 46.118548 -15.951508 -10.135345
v 48.469678 -15.951508 -7.784215
v 48.469678 -14.251508 -7.784215
v 46.118548 -14.251508 -10.135345
v 46.118548 -15.951508 -5.433085
v 46.118548 -14.251508 -5.433085
v 46.648878 -15.951508 -4.902755
v 46.648878 -14.251508 -4.902755
v 49.000008 -15.951508 -7.253885
v 49.000008 -14.251508 -7.253885
v 51.351139 -15.951508 -4.902755
v 51.351139 -14.251508 -4.902755
v 51.881469 -15.951508 -5.433085
v 51.881469 -14.251508 -5.433085
v 49.530339 -15.951508 -7.784215
v 49.530339 -14.251508 -7.784215
v 51.881469 -15.951508 -10.135345
v 51.881469 -14.251508 -10.135345
v 51.351139 -15.951508 -10.665675
v 51.351139 -14.251508 -10.665675
v 49.000008 -15.951508 -8.314545
v 49.000008 -14.251508 -8.314545
v 46.648878 -15.951508 -10.665675
v 46.648878 -14.251508 -10.665675
vt 0.332500 0.170000 0.000000
vt -0.000000 0.170000 0.000000
vt 0.332500 -0.000000 0.000000
vt -0.000000 0.000000 0.000000
vt 0.332500 0.170000 0.000000
vt 0.000000 0.170000 0.000000
vt 0.332500 0.000000 0.000000
vt 0.000000 0.000000 0.000000
vt 0.075000 0.170000 0.000000
vt -0.000000 0.170000 0.000000
vt 0.075000 -0.000000 0.000000
vt -0.000000 0.000000 0.000000
vt 0.332500 0.170000 0.000000
vt 0.000000 0.170000 0.000000
vt 0.332500 -0.000000 0.000000
vt 0.000000 0.000000 0.000000
vt 0.332500 0.170000 0.000000
vt -0.000000 0.170000 0.000000
vt 0.332500 -0.000000 0.000000
vt -0.000000 0.000000 0.000000
vt 0.075000 0.170000 0.000000
vt -0.000000 0.170000 0.000000
vt 0.075000 0.000000 0.000000
vt 0.000000 0.000000 0.000000
vt 0.332500 0.170000 0.000000
vt 0.000000 0.170000 0.000000
vt 0.332500 0.000000 0.000000
vt 0.000000 0.000000 0.000000
vt 0.332500 0.170000 0.000000
vt -0.000000 0.170000 0.000000
vt 0.332500 -0.000000 0.000000
vt 0.000000 0.000000 0.000000
vt 0.075000 0.170000 0.000000
vt -0.000000 0.170000 0.000000
vt 0.075000 0.000000 0.000000
vt 0.000000 0.000000 0.000000
vt 0.332500 0.170000 0.000000
vt 0.000000 0.170000 0.000000
vt 0.332500 0.000000 0.000000
vt 0.000000 0.000000 0.000000
vt 0.332500 0.170000 0.000000
vt -0.000000 0.170000 0.000000
vt 0.332500 0.000000 0.000000
vt 0.000000 0.000000 0.000000
vt 0.075000 0.170000 0.000000
vt 0.000000 0.170000 0.000000
vt 0.075000 -0.000000 0.000000
vt 0.000000 0.000000 0.000000
vt -0.235113 0.288146 0.000000
vt -0.288146 0.235113 0.000000
vt -0.000000 0.053033 0.000000
vt -0.053033 0.000000 0.000000
vt 0.053033 0.000000 0.000000
vt -0.000000 -0.053033 0.000000
vt 0.288146 -0.235113 0.000000
vt 0.235113 -0.288146 0.000000
vt -0.288146 -0.235113 0.000000
vt -0.235113 -0.288146 0.000000
vt 0.288146 0.235113 0.000000
vt 0.235113 0.288146 0.000000
vt 0.942760 0.263146 0.000000
vt 0.889727 0.210113 0.000000
vt 1.177873 0.028033 0.000000
vt 1.124840 -0.025000 0.000000
vt 1.230906 -0.025000 0.000000
vt 1.177873 -0.078033 0.000000
vt 1.466019 -0.260113 0.000000
vt 1.412986 -0.313146 0.000000
vt 0.889727 -0.260113 0.000000
vt 0.942760 -0.313146 0.000000
vt 1.466019 0.210113 0.000000
vt 1.412986 0.263146 0.000000
vn -0.070711 0.000000 0.070711
vn -0.070711 0.000000 0.070711
vn -0.070711 0.000000 0.070711
vn -0.070711 0.000000 0.070711
vn -0.070711 -0.000000 -0.070711
vn -0.070711 -0.000000 -0.070711
vn -0.070711 -0.000000 -0.070711
vn -0.070711 -0.000000 -0.070711
vn -0.070711 0.000000 0.070711
vn -0.070711 0.000000 0.070711
vn -0.070711 0.000000 0.070711
vn -0.070711 0.000000 0.070711
vn 0.070711 0.000000 0.070711
vn 0.070711 0.000000 0.070711
vn 0.070711 0.000000 0.070711
vn 0.070711 0.000000 0.070711
vn -0.070711 0.000000 0.070711
vn -0.070711 0.000000 0.070711
vn -0.070711 0.000000 0.070711
vn -0.070711 0.000000 0.070711
vn 0.070711 0.000000 0.070711
vn 0.070711 0.000000 0.070711
vn 0.070711 0.000000 0.070711
vn 0.070711 0.000000 0.070711
vn 0.070711 -0.000000 -0.070711
vn 0.070711 -0.000000 -0.070711
vn 0.070711 -0.000000 -0.070711
vn 0.070711 -0.000000 -0.070711
vn 0.070711 0.000000 0.070711
vn 0.070711 0.000000 0.070711
vn 0.070711 0.000000 0.070711
vn 0.070711 0.000000 0.070711
vn 0.070711 -0.000000 -0.070711
vn 0.070711 -0.000000 -0.070711
vn 0.070711 -0.000000 -0.070711
vn 0.070711 -0.000000 -0.070711
vn -0.070711 -0.000000 -0.070711
vn -0.070711 -0.000000 -0.070711
vn -0.070711 -0.000000 -0.070711
vn -0.070711 -0.000000 -0.070711
vn 0.070711 -0.000000 -0.070711
vn 0.070711 -0.000000 -0.070711
vn 0.070711 -0.000000 -0.070711
vn 0.070711 -0.000000 -0.070711
vn -0.070711 -0.000000 -0.070711
vn -0.070711 -0.000000 -0.070711
vn -0.070711 -0.000000 -0.070711
vn -0.070711 -0.000000 -0.070711
vn 0.000000 0.100000 -0.000000
vn 0.000000 0.100000 -0.000000
vn 0.000000 0.100000 -0.000000
vn 0.000000 0.100000 -0.000000
vn 0.000000 0.100000 -0.000000
vn 0.000000 0.100000 -0.000000
vn 0.000000 0.100000 -0.000000
vn 0.000000 0.100000 -0.000000
vn 0.000000 0.100000 -0.000000
vn 0.000000 0.100000 -0.000000
vn 0.000000 0.100000 -0.000000
vn 0.000000 0.100000 -0.000000
vn -0.000000 -0.100000 0.000000
vn -0.000000 -0.100000 0.000000
vn -0.000000 -0.100000 0.000000
vn -0.000000 -0.100000 0.000000
vn -0.000000 -0.100000 0.000000
vn -0.000000 -0.100000 0.000000
vn -0.000000 -0.100000 0.000000
vn -0.000000 -0.100000 0.000000
vn -0.000000 -0.100000 0.000000
vn -0.000000 -0.100000 0.000000
vn -0.000000 -0.100000 0.000000
vn -0.000000 -0.100000 0.000000
usemtl Paint_-_Enamel_Glossy_(Blue)
f 1/1/1 2/2/2 4/3/3
f 4/3/3 2/2/2 3/4/4
f 2/5/5 5/6/6 3/7/7
f 3/7/7 5/6/6 6/8/8
f 5/9/9 7/10/10 6/11/11
f 6/11/11 7/10/10 8/12/12
f 7/13/13 9/14/14 8/15/15
f 8/15/15 9/14/14 10/16/16
f 9/17/17 11/18/18 10/19/19
f 10/19/19 11/18/18 12/20/20
f 11/21/21 13/22/22 12/23/23
f 12/23/23 13/22/22 14/24/24
f 13/25/25 15/26/26 14/27/27
f 14/27/27 15/26/26 16/28/28
f 15/29/29 17/30/30 16/31/31
f 16/31/31 17/30/30 18/32/32
f 17/33/33 19/34/34 18/35/35
f 18/35/35 19/34/34 20/36/36
f 19/37/37 21/38/38 20/39/39
f 20/39/39 21/38/38 22/40/40
f 21/41/41 23/42/42 22/43/43
f 22/43/43 23/42/42 24/44/44
f 23/45/45 1/46/46 24/47/47
f 24/47/47 1/46/46 4/48/48
f 12/49/49 14/50/50 10/51/51
f 10/51/51 14/50/50 16/52/52
f 10/51/51 16/52/52 3/53/53
f 3/53/53 16/52/52 22/54/54
f 3/53/53 22/54/54 4/55/55
f 4/55/55 22/54/54 24/56/56
f 16/52/52 18/57/57 22/54/54
f 22/54/54 18/57/57 20/58/58
f 3/53/53 6/59/59 10/51/51
f 10/51/51 6/59/59 8/60/60
f 13/61/61 11/62/62 15/63/63
f 15/63/63 11/62/62 9/64/64
f 15/63/63 9/64/64 21/65/65
f 21/65/65 9/64/64 2/66/66
f 21/65/65 2/66/66 23/67/67
f 23/67/67 2/66/66 1/68/68
f 9/64/64 7/69/69 2/66/66
f 2/66/66 7/69/69 5/70/70
f 21/65/65 19/71/71 15/63/63
f 15/63/63 19/71/71 17/72/72
# 24 vertices
# 72 texture params
# 72 normals
# 44 facets

# 1 groups
