# WaveFront *.obj file (generated by Autodesk ATF)

mtllib DS4_DS4 v63_Shoulder-Right-Middle_DS4 v63.mtl

g Shoulder-Right-Middle

v 37.911558 -0.810279 26.012008
v 37.911558 -0.110279 26.012008
v 38.011558 3.089721 26.012008
v 43.511558 3.089721 26.012008
v 43.511558 -0.810279 26.012008
v 53.511558 3.089721 26.012008
v 56.811558 3.089721 26.012008
v 57.711558 -0.810279 26.012008
v 53.511558 -0.810279 26.012008
v 56.811558 3.089721 27.490162
v 57.711558 -0.810279 27.012008
v 55.039051 -0.810279 28.271067
v 52.211158 -0.810279 29.125786
v 49.288677 -0.810279 29.557789
v 46.334439 -0.810279 29.557789
v 43.411958 -0.810279 29.125786
v 40.584065 -0.810279 28.271067
v 37.911558 -0.810279 27.012008
v 43.511558 -0.810279 26.512008
v 45.450401 -0.810279 27.212018
v 47.480887 -0.810279 27.567342
v 49.542229 -0.810279 27.567342
v 51.572715 -0.810279 27.212018
v 53.511558 -0.810279 26.512008
v 37.911558 -0.110279 27.012008
v 38.011558 3.089721 27.068050
v 53.511558 3.089721 26.512008
v 51.572715 3.089721 27.212018
v 49.542229 3.089721 27.567342
v 47.480887 3.089721 27.567342
v 45.450401 3.089721 27.212018
v 43.511558 3.089721 26.512008
v 40.539887 3.089721 28.254030
v 43.207920 3.089721 29.079015
v 45.964397 3.089721 29.527156
v 48.756362 3.089721 29.589844
v 51.530175 3.089721 29.265873
v 54.232546 3.089721 28.561468
vt -4.208844 0.000000 0.000000
vt -4.208844 -0.070000 0.000000
vt -3.648844 0.000000 0.000000
vt -3.648844 -0.390000 0.000000
vt -4.198844 -0.390000 0.000000
vt -2.648844 -0.390000 0.000000
vt -2.318844 -0.390000 0.000000
vt -2.648844 0.000000 0.000000
vt -2.228844 0.000000 0.000000
vt 0.520000 0.400250 0.000000
vt 0.520000 -0.000000 0.000000
vt 0.620000 0.400250 0.000000
vt 0.667815 0.000000 0.000000
vt 0.520000 0.470000 0.000000
vt 0.520000 0.050000 0.000000
vt 0.570000 0.470000 0.000000
vt 0.620000 0.050000 0.000000
vt 0.640001 0.663884 0.000000
vt 0.745906 0.317251 0.000000
vt 0.675533 0.866933 0.000000
vt 0.831378 0.600040 0.000000
vt 0.675533 1.073067 0.000000
vt 0.874578 0.892288 0.000000
vt 0.874578 1.187712 0.000000
vt 0.831378 1.479960 0.000000
vt 0.745906 1.762749 0.000000
vt 0.640001 1.276116 0.000000
vt 0.620000 2.030000 0.000000
vt 0.570000 1.470000 0.000000
vt 0.520000 2.030000 0.000000
vt 0.520000 1.470000 0.000000
vt -0.520000 0.320156 0.000000
vt -0.620000 0.320156 0.000000
vt -0.520000 0.000000 0.000000
vt -0.625604 -0.000000 0.000000
vt -0.520000 0.470000 0.000000
vt -0.570000 0.470000 0.000000
vt -0.520000 0.140000 0.000000
vt -0.667815 0.140000 0.000000
vt -0.640001 0.663884 0.000000
vt -0.774946 0.397901 0.000000
vt -0.675533 0.866933 0.000000
vt -0.845386 0.668138 0.000000
vt -0.675533 1.073067 0.000000
vt -0.877784 0.945520 0.000000
vt -0.871515 1.224716 0.000000
vt -0.826701 1.500364 0.000000
vt -0.744202 1.767167 0.000000
vt -0.640001 1.276116 0.000000
vt -0.625604 2.020000 0.000000
vt -0.570000 1.470000 0.000000
vt -0.520000 2.020000 0.000000
vt -0.520000 1.470000 0.000000
vt -0.250000 -0.000000 0.000000
vt -0.250000 0.390000 0.000000
vt -0.300000 -0.000000 0.000000
vt -0.300000 0.390000 0.000000
vt -0.000000 -0.515980 0.000000
vt 0.390000 -0.515980 0.000000
vt -0.000000 -0.309588 0.000000
vt 0.390000 -0.309588 0.000000
vt -0.000000 -0.103196 0.000000
vt 0.390000 -0.103196 0.000000
vt -0.000000 0.103196 0.000000
vt 0.390000 0.103196 0.000000
vt 0.000000 0.309588 0.000000
vt 0.390000 0.309588 0.000000
vt -0.000000 0.515980 0.000000
vt 0.390000 0.515980 0.000000
vt 0.250000 0.000000 0.000000
vt 0.300000 -0.000000 0.000000
vt 0.250000 0.390000 0.000000
vt 0.300000 0.390000 0.000000
vt 0.050000 0.320000 0.000000
vt 0.050000 0.390000 0.000000
vt -0.050000 0.320000 0.000000
vt -0.050000 0.390000 0.000000
vt -0.320000 1.034912 0.000000
vt -0.390000 1.034912 0.000000
vt 0.000000 1.023449 0.000000
vt -0.390000 0.739223 0.000000
vt -0.000000 0.743958 0.000000
vt 0.000000 0.464467 0.000000
vt -0.390000 0.443534 0.000000
vt 0.000000 0.184976 0.000000
vt -0.390000 0.147845 0.000000
vt 0.000000 -0.094515 0.000000
vt -0.390000 -0.147845 0.000000
vt -0.000000 -0.374006 0.000000
vt -0.390000 -0.443534 0.000000
vt 0.000000 -0.653497 0.000000
vt -0.390000 -0.739223 0.000000
vt -0.000000 -0.932988 0.000000
vt -0.390000 -1.034912 0.000000
vn 0.000000 -0.000000 -0.100000
vn 0.000000 -0.000000 -0.100000
vn 0.000000 -0.000000 -0.100000
vn 0.000000 -0.000000 -0.100000
vn 0.000000 -0.000000 -0.100000
vn 0.000000 -0.000000 -0.100000
vn 0.000000 -0.000000 -0.100000
vn 0.000000 -0.000000 -0.100000
vn 0.000000 -0.000000 -0.100000
vn 0.097439 0.022486 0.000000
vn 0.097439 0.022486 0.000000
vn 0.097439 0.022486 0.000000
vn 0.097439 0.022486 0.000000
vn -0.000000 -0.100000 0.000000
vn -0.000000 -0.100000 0.000000
vn -0.000000 -0.100000 0.000000
vn -0.000000 -0.100000 0.000000
vn -0.000000 -0.100000 0.000000
vn -0.000000 -0.100000 0.000000
vn -0.000000 -0.100000 0.000000
vn -0.000000 -0.100000 0.000000
vn -0.000000 -0.100000 0.000000
vn -0.000000 -0.100000 0.000000
vn -0.000000 -0.100000 0.000000
vn -0.000000 -0.100000 0.000000
vn -0.000000 -0.100000 0.000000
vn -0.000000 -0.100000 0.000000
vn -0.000000 -0.100000 0.000000
vn -0.000000 -0.100000 0.000000
vn -0.000000 -0.100000 0.000000
vn -0.000000 -0.100000 0.000000
vn -0.099951 0.003123 -0.000000
vn -0.099951 0.003123 -0.000000
vn -0.099951 0.003123 -0.000000
vn -0.099951 0.003123 -0.000000
vn 0.000000 0.100000 -0.000000
vn 0.000000 0.100000 -0.000000
vn 0.000000 0.100000 -0.000000
vn 0.000000 0.100000 -0.000000
vn 0.000000 0.100000 -0.000000
vn 0.000000 0.100000 -0.000000
vn 0.000000 0.100000 -0.000000
vn 0.000000 0.100000 -0.000000
vn 0.000000 0.100000 -0.000000
vn 0.000000 0.100000 -0.000000
vn 0.000000 0.100000 -0.000000
vn 0.000000 0.100000 -0.000000
vn 0.000000 0.100000 -0.000000
vn 0.000000 0.100000 -0.000000
vn 0.000000 0.100000 -0.000000
vn 0.000000 0.100000 -0.000000
vn 0.000000 0.100000 -0.000000
vn 0.000000 0.100000 -0.000000
vn -0.100000 0.000000 -0.000000
vn -0.100000 0.000000 -0.000000
vn -0.100000 0.000000 -0.000000
vn -0.100000 0.000000 -0.000000
vn -0.041969 -0.000000 -0.090767
vn -0.041969 -0.000000 -0.090767
vn -0.025695 -0.000000 -0.096643
vn -0.025695 -0.000000 -0.096643
vn -0.008651 -0.000000 -0.099625
vn -0.008651 -0.000000 -0.099625
vn 0.008651 -0.000000 -0.099625
vn 0.008651 -0.000000 -0.099625
vn 0.025695 -0.000000 -0.096643
vn 0.025695 -0.000000 -0.096643
vn 0.041969 -0.000000 -0.090767
vn 0.041969 -0.000000 -0.090767
vn 0.100000 -0.000000 0.000000
vn 0.100000 -0.000000 0.000000
vn 0.100000 -0.000000 0.000000
vn 0.100000 -0.000000 0.000000
vn -0.100000 0.000000 -0.000000
vn -0.100000 0.000000 -0.000000
vn -0.100000 0.000000 -0.000000
vn -0.100000 0.000000 -0.000000
vn -0.049136 0.000000 0.087096
vn -0.049136 0.000000 0.087096
vn -0.048640 0.000000 0.087374
vn -0.035872 0.000000 0.093345
vn -0.036091 0.000000 0.093260
vn -0.022849 0.000000 0.097355
vn -0.021836 0.000000 0.097587
vn -0.009168 0.000000 0.099579
vn -0.007331 0.000000 0.099731
vn 0.004689 0.000000 0.099890
vn 0.007331 0.000000 0.099731
vn 0.018456 0.000000 0.098282
vn 0.021836 0.000000 0.097587
vn 0.031869 0.000000 0.094786
vn 0.035872 0.000000 0.093345
vn 0.044669 0.000000 0.089469
vn 0.049136 0.000000 0.087096
usemtl Paint_-_Enamel_Glossy_(Dark_Grey)
f 1/1/1 2/2/2 5/3/3
f 5/3/3 2/2/2 4/4/4
f 4/4/4 2/2/2 3/5/5
f 6/6/6 7/7/7 9/8/8
f 9/8/8 7/7/7 8/9/9
f 8/10/10 7/11/11 11/12/12
f 11/12/12 7/11/11 10/13/13
f 9/14/14 8/15/15 24/16/16
f 24/16/16 8/15/15 11/17/17
f 24/16/16 11/17/17 23/18/18
f 23/18/18 11/17/17 12/19/19
f 23/18/18 12/19/19 22/20/20
f 22/20/20 12/19/19 13/21/21
f 22/20/20 13/21/21 21/22/22
f 21/22/22 13/21/21 14/23/23
f 21/22/22 14/23/23 15/24/24
f 15/24/24 16/25/25 21/22/22
f 21/22/22 16/25/25 17/26/26
f 21/22/22 17/26/26 20/27/27
f 20/27/27 17/26/26 18/28/28
f 20/27/27 18/28/28 19/29/29
f 19/29/29 18/28/28 1/30/30
f 19/29/29 1/30/30 5/31/31
f 2/32/32 25/33/33 3/34/34
f 3/34/34 25/33/33 26/35/35
f 6/36/36 27/37/37 7/38/38
f 7/38/38 27/37/37 10/39/39
f 10/39/39 27/37/37 28/40/40
f 10/39/39 28/40/40 38/41/41
f 38/41/41 28/40/40 29/42/42
f 38/41/41 29/42/42 37/43/43
f 37/43/43 29/42/42 30/44/44
f 37/43/43 30/44/44 36/45/45
f 36/45/45 30/44/44 35/46/46
f 35/46/46 30/44/44 34/47/47
f 34/47/47 30/44/44 33/48/48
f 33/48/48 30/44/44 31/49/49
f 33/48/48 31/49/49 26/50/50
f 26/50/50 31/49/49 32/51/51
f 26/50/50 32/51/51 3/52/52
f 3/52/52 32/51/51 4/53/53
f 6/54/54 9/55/55 27/56/56
f 27/56/56 9/55/55 24/57/57
f 27/58/58 24/59/59 28/60/60
f 28/60/60 24/59/59 23/61/61
f 28/60/60 23/61/61 29/62/62
f 29/62/62 23/61/61 22/63/63
f 29/62/62 22/63/63 30/64/64
f 30/64/64 22/63/63 21/65/65
f 30/64/64 21/65/65 31/66/66
f 31/66/66 21/65/65 20/67/67
f 31/66/66 20/67/67 32/68/68
f 32/68/68 20/67/67 19/69/69
f 4/70/70 32/71/71 5/72/72
f 5/72/72 32/71/71 19/73/73
f 2/74/74 1/75/75 25/76/76
f 25/76/76 1/75/75 18/77/77
f 25/78/78 18/79/79 26/80/80
f 26/80/80 18/79/79 17/81/81
f 26/80/80 17/81/81 33/82/82
f 33/82/82 17/81/81 34/83/83
f 34/83/83 17/81/81 16/84/84
f 34/83/83 16/84/84 35/85/85
f 35/85/85 16/84/84 15/86/86
f 35/85/85 15/86/86 36/87/87
f 36/87/87 15/86/86 14/88/88
f 36/87/87 14/88/88 37/89/89
f 37/89/89 14/88/88 13/90/90
f 37/89/89 13/90/90 38/91/91
f 38/91/91 13/90/90 12/92/92
f 38/91/91 12/92/92 10/93/93
f 10/93/93 12/92/92 11/94/94
# 38 vertices
# 94 texture params
# 94 normals
# 72 facets

# 1 groups
