# WaveFront *.obj file (generated by Autodesk ATF)

mtllib _Toy-Controller v71_DPadUp-2_Toy-Controller v71.mtl

g DPadUp-2

v -50.131307 -13.000000 -12.084605
v -50.583064 -13.000000 -12.818328
v -51.070538 -13.000000 -13.501655
v -51.526399 -13.000000 -14.127133
v -51.942082 -13.000000 -14.740510
v -52.211403 -13.000000 -15.307778
v -48.661877 -13.000000 -14.617820
v -48.339155 -13.000000 -16.278082
v -54.604896 -13.000000 -17.496019
v -54.578260 -13.000000 -16.530438
v -54.341058 -13.000000 -15.593012
v -53.624913 -13.000000 -14.221816
v -52.765556 -13.000000 -12.966336
v -52.126130 -13.000000 -12.060253
v -51.829616 -13.000000 -11.605175
v -51.580162 -13.000000 -11.151557
v -51.414637 -13.000000 -10.577353
v -51.423890 -13.000000 -9.985721
v -51.589591 -13.000000 -9.503370
v -51.923801 -13.000000 -9.128977
v -52.381479 -13.000000 -8.958298
v -52.873625 -13.000000 -8.980228
v -53.341575 -13.000000 -9.151169
v -53.698653 -13.000000 -9.490477
v -53.881034 -13.000000 -10.065002
v -53.862702 -13.000000 -10.684230
v -55.678448 -13.000000 -10.852333
v -55.620019 -13.000000 -9.624903
v -55.091495 -13.000000 -8.539939
v -54.197783 -13.000000 -7.852113
v -53.117198 -13.000000 -7.489422
v -51.919576 -13.000000 -7.426877
v -50.803374 -13.000000 -7.812037
v -50.044099 -13.000000 -8.539960
v -49.654774 -13.000000 -9.509810
v -49.647517 -13.000000 -10.752783
v -51.070538 -24.154584 -13.501655
v -50.582476 -24.082763 -12.817473
v -50.131307 -23.999196 -12.084605
v -49.647517 -23.831312 -10.752783
v -49.654774 -23.658880 -9.509810
v -50.047742 -23.512438 -8.534545
v -50.803374 -23.392578 -7.812037
v -51.921968 -23.310773 -7.426598
v -53.117198 -23.288004 -7.489422
v -54.198623 -23.306271 -7.852545
v -55.091495 -23.373054 -8.539939
v -55.620169 -23.506719 -9.625606
v -55.678448 -23.673058 -10.852333
v -55.073291 -23.695366 -10.796307
v -54.468038 -23.714848 -10.740272
v -53.862702 -23.731503 -10.684230
v -53.879153 -23.643472 -10.046082
v -53.698653 -23.571490 -9.490477
v -53.340576 -23.534718 -9.150576
v -52.873625 -23.524555 -8.980228
v -52.379488 -23.535294 -8.958564
v -51.923801 -23.571581 -9.128977
v -51.588958 -23.633278 -9.504531
v -51.423890 -23.704715 -9.985721
v -51.414563 -23.786200 -10.576859
v -51.580162 -23.859408 -11.151557
v -51.830028 -23.912694 -11.605858
v -52.126103 -23.962873 -12.060268
v -52.765556 -24.054757 -12.966336
v -53.625099 -24.167372 -14.222101
v -54.341058 -24.279449 -15.593012
v -54.578283 -24.356612 -16.530605
v -54.604896 -24.438137 -17.496019
v -52.516486 -24.477603 -17.090073
v -50.427724 -24.482634 -16.684059
v -48.339155 -24.453231 -16.278082
v -48.446772 -24.402021 -15.724437
v -48.554347 -24.348391 -15.171013
v -48.661877 -24.292343 -14.617820
v -49.844947 -24.313253 -14.847786
v -51.028156 -24.323099 -15.077778
v -52.211403 -24.321882 -15.307778
v -51.942082 -24.271102 -14.740510
v -51.526369 -24.215277 -14.127066
vt 1.544652 -0.163932 0.000000
vt 1.711329 -0.263642 0.000000
vt 1.618024 -0.118756 0.000000
vt 1.768749 -0.247089 0.000000
vt 1.751206 -0.070377 0.000000
vt 1.827913 -0.248014 0.000000
vt 1.875504 -0.071103 0.000000
vt 1.972489 -0.110035 0.000000
vt 1.876148 -0.264584 0.000000
vt 2.045281 -0.185963 0.000000
vt 1.913587 -0.298005 0.000000
vt 2.083797 -0.297583 0.000000
vt 1.930655 -0.343773 0.000000
vt 2.077542 -0.417345 0.000000
vt 1.928462 -0.392988 0.000000
vt 1.911368 -0.439783 0.000000
vt 1.665967 -0.288587 0.000000
vt 1.476319 -0.212679 0.000000
vt 1.620459 -0.318238 0.000000
vt 1.413771 -0.258265 0.000000
vt 1.529851 -0.382181 0.000000
vt 1.352434 -0.299834 0.000000
vt 1.404303 -0.468117 0.000000
vt 1.295707 -0.326766 0.000000
vt 1.267184 -0.539731 0.000000
vt 1.173441 -0.563451 0.000000
vt 1.076883 -0.566115 0.000000
vt 1.198676 0.060459 0.000000
vt 1.364703 0.028187 0.000000
vt 2.041273 -0.525404 0.000000
vt 1.877437 -0.475491 0.000000
vt 1.972491 -0.614775 0.000000
vt 1.819985 -0.493729 0.000000
vt 1.863994 -0.667627 0.000000
vt 1.741251 -0.673470 0.000000
vt 1.758062 -0.491895 0.000000
vt -1.548285 -20.748974 0.000000
vt -1.670354 -20.874034 0.000000
vt -1.479414 -20.797641 0.000000
vt -1.624556 -20.903535 0.000000
vt -1.416495 -20.843054 0.000000
vt -1.533297 -20.967208 0.000000
vt -1.354811 -20.884426 0.000000
vt -1.406937 -21.052667 0.000000
vt -1.297797 -20.911172 0.000000
vt -1.269138 -21.123633 0.000000
vt -1.118816 -20.941174 0.000000
vt -1.078081 -21.149243 0.000000
vt -1.174975 -21.146942 0.000000
vt -1.716160 -20.849140 0.000000
vt -1.622104 -20.703950 0.000000
vt -1.774135 -20.832701 0.000000
vt -1.756385 -20.655645 0.000000
vt -1.833806 -20.833790 0.000000
vt -1.881872 -20.656466 0.000000
vt -1.980452 -20.696003 0.000000
vt -1.882405 -20.850479 0.000000
vt -2.053555 -20.772038 0.000000
vt -1.920354 -20.884195 0.000000
vt -2.092579 -20.884609 0.000000
vt -1.937579 -20.929999 0.000000
vt -2.086217 -21.004792 0.000000
vt -1.935389 -20.979600 0.000000
vt -1.918171 -21.026401 0.000000
vt -2.049454 -21.113349 0.000000
vt -1.883825 -21.062171 0.000000
vt -1.979906 -21.202657 0.000000
vt -1.827711 -21.079990 0.000000
vt -1.757647 -21.138665 0.000000
vt -1.763301 -21.078010 0.000000
vt -1.751993 -21.199316 0.000000
vt -1.870175 -21.254985 0.000000
vt -1.746341 -21.259963 0.000000
vt -1.159570 -20.733054 0.000000
vt -1.320910 -20.793140 0.000000
vt -1.344027 -20.675089 0.000000
vt -1.255935 -20.535588 0.000000
vt -1.311540 -20.546301 0.000000
vt -1.200330 -20.524879 0.000000
vt -1.367146 -20.557017 0.000000
vt 0.000000 0.700000 0.000000
vt 0.000000 -0.415458 0.000000
vt 0.057928 0.700000 0.000000
vt 0.057921 -0.421528 0.000000
vt 0.151463 0.700000 0.000000
vt 0.151463 -0.427110 0.000000
vt 0.062795 -0.432188 0.000000
vt 0.062795 0.700000 0.000000
vt 0.000000 -0.427110 0.000000
vt 0.000000 0.700000 0.000000
vt -0.000000 -0.432188 0.000000
vt 0.120539 -0.432310 0.000000
vt -0.000000 0.700000 0.000000
vt 0.241075 -0.431325 0.000000
vt 0.361596 0.700000 0.000000
vt 0.361596 -0.429234 0.000000
vt 0.000000 -0.429234 0.000000
vt 0.056355 -0.434839 0.000000
vt 0.000000 0.700000 0.000000
vt 0.169134 0.700000 0.000000
vt 0.112733 -0.440202 0.000000
vt 0.169134 -0.445323 0.000000
vt -0.000000 -0.445323 0.000000
vt 0.212766 -0.448263 0.000000
vt 0.000000 0.700000 0.000000
vt 0.425552 -0.447760 0.000000
vt 0.638301 0.700000 0.000000
vt 0.638301 -0.443814 0.000000
vt 0.000000 -0.443814 0.000000
vt 0.096974 -0.435661 0.000000
vt 0.000000 0.700000 0.000000
vt 0.096991 0.700000 0.000000
vt 0.192121 -0.427945 0.000000
vt 0.192121 0.700000 0.000000
vt 0.000000 -0.427945 0.000000
vt 0.180824 -0.416737 0.000000
vt 0.000000 0.700000 0.000000
vt 0.180856 0.700000 0.000000
vt 0.306305 -0.405476 0.000000
vt 0.306305 0.700000 0.000000
vt 0.000000 -0.405476 0.000000
vt 0.082663 -0.396287 0.000000
vt 0.000000 0.700000 0.000000
vt 0.082662 0.700000 0.000000
vt 0.137348 -0.391269 0.000000
vt 0.137442 0.700000 0.000000
vt 0.216750 -0.385941 0.000000
vt 0.216750 0.700000 0.000000
vt 0.000000 -0.385941 0.000000
vt 0.055859 -0.378620 0.000000
vt 0.000000 0.700000 0.000000
vt 0.055809 0.700000 0.000000
vt 0.117625 -0.370471 0.000000
vt 0.117625 0.700000 0.000000
vt 0.000000 -0.370471 0.000000
vt 0.045947 -0.363328 0.000000
vt 0.000000 0.700000 0.000000
vt 0.046078 0.700000 0.000000
vt 0.099191 -0.357158 0.000000
vt 0.099191 0.700000 0.000000
vt 0.000000 -0.399920 0.000000
vt 0.101330 -0.408276 0.000000
vt 0.000000 0.700000 0.000000
vt 0.101426 0.700000 0.000000
vt 0.170012 -0.415458 0.000000
vt 0.170012 0.700000 0.000000
vt 0.141699 -0.399920 0.000000
vt 0.141699 0.700000 0.000000
vt 0.000000 -0.383131 0.000000
vt 0.000000 0.700000 0.000000
vt 0.124299 -0.383131 0.000000
vt 0.124299 0.700000 0.000000
vt 0.000000 -0.365888 0.000000
vt 0.000000 0.700000 0.000000
vt 0.000000 -0.339258 0.000000
vt 0.102804 -0.351244 0.000000
vt 0.000000 0.700000 0.000000
vt 0.103457 0.700000 0.000000
vt 0.204981 -0.365888 0.000000
vt 0.204981 0.700000 0.000000
vt 0.000000 -0.328800 0.000000
vt 0.109441 -0.331077 0.000000
vt 0.000000 0.700000 0.000000
vt 0.109680 0.700000 0.000000
vt 0.233617 -0.339258 0.000000
vt 0.233617 0.700000 0.000000
vt 0.000000 -0.337305 0.000000
vt 0.116540 -0.330627 0.000000
vt 0.000000 0.700000 0.000000
vt 0.116634 0.700000 0.000000
vt 0.223641 -0.328800 0.000000
vt 0.223641 0.700000 0.000000
vt 0.000000 -0.367306 0.000000
vt 0.108624 -0.350672 0.000000
vt 0.000000 0.700000 0.000000
vt 0.108695 0.700000 0.000000
vt 0.238568 -0.337305 0.000000
vt 0.238568 0.700000 0.000000
vt -0.000000 -0.373150 0.000000
vt 0.060793 -0.371485 0.000000
vt 0.000000 0.700000 0.000000
vt 0.121577 -0.369537 0.000000
vt 0.182351 0.700000 0.000000
vt 0.182351 -0.367306 0.000000
vt 0.000000 -0.357149 0.000000
vt 0.065863 -0.364347 0.000000
vt 0.000000 0.700000 0.000000
vt 0.067707 0.700000 0.000000
vt 0.120501 -0.373150 0.000000
vt 0.120501 0.700000 0.000000
vt 0.000000 -0.352456 0.000000
vt 0.046264 -0.353472 0.000000
vt 0.000000 0.700000 0.000000
vt 0.046380 0.700000 0.000000
vt 0.097006 -0.357149 0.000000
vt 0.097006 0.700000 0.000000
vt 0.000000 -0.357158 0.000000
vt 0.050728 -0.353529 0.000000
vt 0.000000 0.700000 0.000000
vt 0.050927 0.700000 0.000000
vt 0.096141 -0.352456 0.000000
vt 0.096141 0.700000 0.000000
vn 0.000000 0.100000 0.000000
vn 0.000000 0.100000 0.000000
vn 0.000000 0.100000 0.000000
vn 0.000000 0.100000 0.000000
vn 0.000000 0.100000 0.000000
vn 0.000000 0.100000 0.000000
vn 0.000000 0.100000 0.000000
vn 0.000000 0.100000 0.000000
vn 0.000000 0.100000 0.000000
vn 0.000000 0.100000 0.000000
vn 0.000000 0.100000 0.000000
vn 0.000000 0.100000 0.000000
vn 0.000000 0.100000 0.000000
vn 0.000000 0.100000 0.000000
vn 0.000000 0.100000 0.000000
vn 0.000000 0.100000 0.000000
vn 0.000000 0.100000 0.000000
vn 0.000000 0.100000 0.000000
vn 0.000000 0.100000 0.000000
vn 0.000000 0.100000 0.000000
vn 0.000000 0.100000 0.000000
vn 0.000000 0.100000 0.000000
vn 0.000000 0.100000 0.000000
vn 0.000000 0.100000 0.000000
vn 0.000000 0.100000 0.000000
vn 0.000000 0.100000 0.000000
vn 0.000000 0.100000 0.000000
vn 0.000000 0.100000 0.000000
vn 0.000000 0.100000 0.000000
vn 0.000000 0.100000 0.000000
vn 0.000000 0.100000 0.000000
vn 0.000000 0.100000 0.000000
vn 0.000000 0.100000 0.000000
vn 0.000000 0.100000 0.000000
vn 0.000000 0.100000 0.000000
vn 0.000000 0.100000 0.000000
vn -0.001241 -0.099305 0.011703
vn -0.002187 -0.099176 0.012620
vn -0.001611 -0.099360 0.011184
vn -0.002411 -0.099214 0.012276
vn -0.001957 -0.099406 0.010710
vn -0.002895 -0.099284 0.011590
vn -0.002271 -0.099448 0.010246
vn -0.003546 -0.099369 0.010638
vn -0.002475 -0.099486 0.009816
vn -0.004089 -0.099454 0.009600
vn -0.002707 -0.099604 0.008466
vn -0.004289 -0.099574 0.008158
vn -0.004269 -0.099513 0.008890
vn -0.001997 -0.099136 0.012965
vn -0.000900 -0.099242 0.012258
vn -0.001872 -0.099080 0.013400
vn -0.000533 -0.099115 0.013267
vn -0.001879 -0.099019 0.013848
vn -0.000539 -0.098984 0.014208
vn -0.000836 -0.098873 0.014947
vn -0.002004 -0.098965 0.014212
vn -0.001409 -0.098782 0.015495
vn -0.002258 -0.098918 0.014497
vn -0.002256 -0.098720 0.015787
vn -0.002603 -0.098890 0.014626
vn -0.003162 -0.098703 0.015739
vn -0.002977 -0.098882 0.014610
vn -0.003331 -0.098890 0.014481
vn -0.003981 -0.098717 0.015464
vn -0.003602 -0.098918 0.014223
vn -0.004657 -0.098767 0.014943
vn -0.003739 -0.098972 0.013802
vn -0.004185 -0.099026 0.013276
vn -0.003726 -0.099039 0.013319
vn -0.004644 -0.099012 0.013234
vn -0.005058 -0.098869 0.014121
vn -0.005102 -0.098995 0.013191
vn -0.001124 -0.099608 0.008773
vn -0.001579 -0.099487 0.009990
vn -0.000683 -0.099480 0.010164
vn 0.000376 -0.099547 0.009500
vn 0.000295 -0.099506 0.009920
vn 0.000458 -0.099586 0.009081
vn 0.000214 -0.099464 0.010339
vn 0.080417 0.000000 -0.059440
vn 0.080417 0.000000 -0.059440
vn 0.081352 0.000000 -0.058154
vn 0.081352 0.000000 -0.058154
vn 0.086084 0.000000 -0.050888
vn 0.086084 0.000000 -0.050888
vn 0.094513 0.000000 -0.032670
vn 0.094513 0.000000 -0.032670
vn 0.086084 0.000000 -0.050888
vn 0.086084 0.000000 -0.050888
vn -0.019081 0.000000 0.098163
vn -0.019081 0.000000 0.098163
vn -0.019081 0.000000 0.098163
vn -0.019081 0.000000 0.098163
vn -0.019081 0.000000 0.098163
vn -0.019081 0.000000 0.098163
vn 0.098163 -0.000000 0.019081
vn 0.098163 -0.000000 0.019081
vn 0.098163 -0.000000 0.019081
vn 0.098163 -0.000000 0.019081
vn 0.098163 -0.000000 0.019081
vn 0.098163 -0.000000 0.019081
vn 0.019081 0.000000 -0.098163
vn 0.019081 0.000000 -0.098163
vn 0.019081 0.000000 -0.098163
vn 0.019081 0.000000 -0.098163
vn 0.019081 0.000000 -0.098163
vn 0.019081 0.000000 -0.098163
vn -0.099645 0.000000 -0.008420
vn -0.099023 0.000000 0.013941
vn -0.099645 0.000000 -0.008420
vn -0.099023 0.000000 0.013945
vn -0.093896 0.000000 0.034403
vn -0.093896 0.000000 0.034403
vn -0.093896 0.000000 0.034403
vn -0.084663 0.000000 0.053218
vn -0.093896 0.000000 0.034403
vn -0.084662 0.000000 0.053220
vn -0.080758 0.000000 0.058976
vn -0.080758 0.000000 0.058976
vn -0.080872 0.000000 0.058819
vn -0.082817 0.000000 0.056048
vn -0.080872 0.000000 0.058819
vn -0.082817 0.000000 0.056048
vn -0.085033 0.000000 0.052626
vn -0.085037 0.000000 0.052618
vn -0.091834 0.000000 0.039579
vn -0.091834 0.000000 0.039579
vn -0.092260 0.000000 0.038575
vn -0.098904 0.000000 0.014765
vn -0.092260 0.000000 0.038575
vn -0.098900 0.000000 0.014790
vn -0.098163 0.000000 -0.019081
vn -0.098163 0.000000 -0.019081
vn -0.087818 0.000000 -0.047832
vn -0.087768 0.000000 -0.047924
vn -0.055919 0.000000 -0.082904
vn -0.055919 0.000000 -0.082904
vn 0.089007 0.000000 -0.045583
vn 0.082650 0.000000 -0.056294
vn 0.089007 0.000000 -0.045583
vn 0.082646 0.000000 -0.056300
vn 0.088976 0.000000 -0.045643
vn 0.088976 0.000000 -0.045643
vn 0.098282 0.000000 -0.018456
vn 0.098282 0.000000 -0.018456
vn 0.098163 -0.000000 0.019081
vn 0.098163 -0.000000 0.019081
vn 0.053489 -0.000000 0.084492
vn 0.082900 -0.000000 0.055925
vn 0.053489 -0.000000 0.084492
vn 0.083053 -0.000000 0.055697
vn -0.019081 0.000000 0.098163
vn 0.011387 -0.000000 0.099350
vn -0.019081 0.000000 0.098163
vn 0.011464 -0.000000 0.099341
vn 0.053489 -0.000000 0.084492
vn 0.053489 -0.000000 0.084492
vn -0.074805 0.000000 0.066365
vn -0.045723 0.000000 0.088935
vn -0.074805 0.000000 0.066365
vn -0.045698 0.000000 0.088948
vn -0.099642 0.000000 -0.008454
vn -0.097757 0.000000 0.021060
vn -0.099642 0.000000 -0.008454
vn -0.097752 0.000000 0.021083
vn -0.074805 0.000000 0.066365
vn -0.074805 0.000000 0.066365
vn 0.009219 0.000000 -0.099574
vn 0.009219 0.000000 -0.099574
vn 0.009219 0.000000 -0.099574
vn 0.009219 0.000000 -0.099574
vn 0.009219 0.000000 -0.099574
vn 0.009219 0.000000 -0.099574
vn 0.083433 0.000000 -0.055127
vn 0.099447 0.000000 -0.010502
vn 0.083433 0.000000 -0.055127
vn 0.099547 0.000000 -0.009513
vn 0.099194 -0.000000 0.012670
vn 0.099194 -0.000000 0.012670
vn 0.019081 0.000000 -0.098163
vn 0.050964 0.000000 -0.086039
vn 0.019081 0.000000 -0.098163
vn 0.051048 0.000000 -0.085989
vn -0.055919 0.000000 -0.082904
vn -0.013254 0.000000 -0.099118
vn -0.055919 0.000000 -0.082904
vn -0.013089 0.000000 -0.099140
usemtl ABS_(White)
f 2/1/1 16/2/2 1/3/3
f 1/3/3 16/2/2 17/4/4
f 1/3/3 17/4/4 36/5/5
f 36/5/5 17/4/4 18/6/6
f 36/5/5 18/6/6 35/7/7
f 35/7/7 18/6/6 34/8/8
f 34/8/8 18/6/6 19/9/9
f 34/8/8 19/9/9 33/10/10
f 33/10/10 19/9/9 20/11/11
f 33/10/10 20/11/11 32/12/12
f 32/12/12 20/11/11 21/13/13
f 32/12/12 21/13/13 31/14/14
f 31/14/14 21/13/13 22/15/15
f 31/14/14 22/15/15 23/16/16
f 16/2/2 2/1/1 15/17/17
f 15/17/17 2/1/1 3/18/18
f 15/17/17 3/18/18 14/19/19
f 14/19/19 3/18/18 4/20/20
f 14/19/19 4/20/20 13/21/21
f 13/21/21 4/20/20 5/22/22
f 13/21/21 5/22/22 12/23/23
f 12/23/23 5/22/22 6/24/24
f 12/23/23 6/24/24 11/25/25
f 11/25/25 6/24/24 10/26/26
f 10/26/26 6/24/24 9/27/27
f 9/27/27 6/24/24 8/28/28
f 8/28/28 6/24/24 7/29/29
f 31/14/14 23/16/16 30/30/30
f 30/30/30 23/16/16 24/31/31
f 30/30/30 24/31/31 29/32/32
f 29/32/32 24/31/31 25/33/33
f 29/32/32 25/33/33 28/34/34
f 28/34/34 25/33/33 27/35/35
f 27/35/35 25/33/33 26/36/36
f 38/37/37 63/38/38 37/39/39
f 37/39/39 63/38/38 64/40/40
f 37/39/39 64/40/40 80/41/41
f 80/41/41 64/40/40 65/42/42
f 80/41/41 65/42/42 79/43/43
f 79/43/43 65/42/42 66/44/44
f 79/43/43 66/44/44 78/45/45
f 78/45/45 66/44/44 67/46/46
f 78/45/45 67/46/46 70/47/47
f 70/47/47 67/46/46 69/48/48
f 69/48/48 67/46/46 68/49/49
f 63/38/38 38/37/37 62/50/50
f 62/50/50 38/37/37 39/51/51
f 62/50/50 39/51/51 61/52/52
f 61/52/52 39/51/51 40/53/53
f 61/52/52 40/53/53 60/54/54
f 60/54/54 40/53/53 41/55/55
f 60/54/54 41/55/55 42/56/56
f 60/54/54 42/56/56 59/57/57
f 59/57/57 42/56/56 43/58/58
f 59/57/57 43/58/58 58/59/59
f 58/59/59 43/58/58 44/60/60
f 58/59/59 44/60/60 57/61/61
f 57/61/61 44/60/60 45/62/62
f 57/61/61 45/62/62 56/63/63
f 56/63/63 45/62/62 55/64/64
f 55/64/64 45/62/62 46/65/65
f 55/64/64 46/65/65 54/66/66
f 54/66/66 46/65/65 47/67/67
f 54/66/66 47/67/67 53/68/68
f 53/68/68 47/67/67 51/69/69
f 53/68/68 51/69/69 52/70/70
f 51/69/69 47/67/67 50/71/71
f 50/71/71 47/67/67 48/72/72
f 50/71/71 48/72/72 49/73/73
f 70/47/47 71/74/74 78/45/45
f 78/45/45 71/74/74 77/75/75
f 77/75/75 71/74/74 76/76/76
f 76/76/76 71/74/74 73/77/77
f 76/76/76 73/77/77 74/78/78
f 71/74/74 72/79/79 73/77/77
f 74/78/78 75/80/80 76/76/76
f 3/81/81 37/82/82 4/83/83
f 4/83/83 37/82/82 80/84/84
f 4/83/83 80/84/84 5/85/85
f 5/85/85 80/84/84 79/86/86
f 78/87/87 6/88/88 79/89/89
f 79/89/89 6/88/88 5/90/90
f 78/91/91 77/92/92 6/93/93
f 6/93/93 77/92/92 76/94/94
f 6/93/93 76/94/94 7/95/95
f 7/95/95 76/94/94 75/96/96
f 75/97/97 74/98/98 7/99/99
f 7/99/99 74/98/98 8/100/100
f 8/100/100 74/98/98 73/101/101
f 8/100/100 73/101/101 72/102/102
f 72/103/103 71/104/104 8/105/105
f 8/105/105 71/104/104 70/106/106
f 8/105/105 70/106/106 9/107/107
f 9/107/107 70/106/106 69/108/108
f 69/109/109 68/110/110 9/111/111
f 9/111/111 68/110/110 10/112/112
f 10/112/112 68/110/110 67/113/113
f 10/112/112 67/113/113 11/114/114
f 67/115/115 66/116/116 11/117/117
f 11/117/117 66/116/116 12/118/118
f 12/118/118 66/116/116 65/119/119
f 12/118/118 65/119/119 13/120/120
f 65/121/121 64/122/122 13/123/123
f 13/123/123 64/122/122 14/124/124
f 14/124/124 64/122/122 63/125/125
f 14/124/124 63/125/125 15/126/126
f 15/126/126 63/125/125 62/127/127
f 15/126/126 62/127/127 16/128/128
f 62/129/129 61/130/130 16/131/131
f 16/131/131 61/130/130 17/132/132
f 17/132/132 61/130/130 60/133/133
f 17/132/132 60/133/133 18/134/134
f 60/135/133 59/136/135 18/137/134
f 18/137/134 59/136/135 19/138/136
f 19/138/136 59/136/135 58/139/137
f 19/138/136 58/139/137 20/140/138
f 39/141/139 38/142/140 1/143/141
f 1/143/141 38/142/140 2/144/142
f 2/144/142 38/142/140 37/145/82
f 2/144/142 37/145/82 3/146/81
f 39/147/143 1/148/144 40/149/145
f 40/149/145 1/148/144 36/150/146
f 40/151/145 36/152/146 41/153/147
f 41/153/147 36/152/146 35/154/148
f 43/155/149 42/156/150 33/157/151
f 33/157/151 42/156/150 34/158/152
f 34/158/152 42/156/150 41/159/147
f 34/158/152 41/159/147 35/160/148
f 45/161/153 44/162/154 31/163/155
f 31/163/155 44/162/154 32/164/156
f 32/164/156 44/162/154 43/165/157
f 32/164/156 43/165/157 33/166/158
f 47/167/159 46/168/160 29/169/161
f 29/169/161 46/168/160 30/170/162
f 30/170/162 46/168/160 45/171/153
f 30/170/162 45/171/153 31/172/155
f 49/173/163 48/174/164 27/175/165
f 27/175/165 48/174/164 28/176/166
f 28/176/166 48/174/164 47/177/167
f 28/176/166 47/177/167 29/178/168
f 52/179/169 51/180/170 26/181/171
f 26/181/171 51/180/170 50/182/172
f 26/181/171 50/182/172 27/183/173
f 27/183/173 50/182/172 49/184/174
f 54/185/175 53/186/176 24/187/177
f 24/187/177 53/186/176 25/188/178
f 25/188/178 53/186/176 52/189/179
f 25/188/178 52/189/179 26/190/180
f 56/191/181 55/192/182 22/193/183
f 22/193/183 55/192/182 23/194/184
f 23/194/184 55/192/182 54/195/175
f 23/194/184 54/195/175 24/196/177
f 58/197/185 57/198/186 20/199/187
f 20/199/187 57/198/186 21/200/188
f 21/200/188 57/198/186 56/201/181
f 21/200/188 56/201/181 22/202/183
# 80 vertices
# 202 texture params
# 188 normals
# 156 facets

# 1 groups
