# WaveFront *.obj file (generated by Autodesk ATF)

mtllib _Toy-Controller v71_DPadLeft-1_Toy-Controller v71.mtl

g DPadLeft-1

v -65.761187 -13.000000 -26.647542
v -64.058091 -13.000000 -35.409210
v -66.219271 -13.000000 -35.829300
v -67.239146 -13.000000 -30.582499
v -67.730306 -13.000000 -31.234520
v -69.372850 -13.000000 -30.049421
v -66.990208 -13.000000 -26.886439
v -64.058091 -23.937064 -35.409210
v -64.625774 -23.997072 -32.488736
v -65.193570 -23.989488 -29.567677
v -65.761187 -23.914316 -26.647542
v -66.171028 -23.861975 -26.727207
v -66.580703 -23.808302 -26.806839
v -66.990208 -23.753299 -26.886439
v -67.785130 -23.647992 -27.941706
v -68.579371 -23.529336 -28.996069
v -69.372850 -23.397343 -30.049421
v -68.825653 -23.475899 -30.444225
v -68.278133 -23.550963 -30.839261
v -67.730306 -23.622533 -31.234520
v -67.566621 -23.650729 -31.017226
v -67.402901 -23.678358 -30.799885
v -67.239146 -23.705420 -30.582499
v -66.899147 -23.709850 -32.331645
v -66.559167 -23.689988 -34.080687
v -66.219271 -23.645839 -35.829300
v -65.499416 -23.747031 -35.689375
v -64.779015 -23.844107 -35.549343
vt 0.137841 -1.804646 0.000000
vt 0.161731 -1.681744 0.000000
vt -0.231765 -1.829540 0.000000
vt -0.714436 -1.511434 0.000000
vt -0.756445 -1.727552 0.000000
vt -0.296967 -1.878656 0.000000
vt -0.178457 -2.042910 0.000000
vt 0.714786 -22.245848 0.000000
vt 0.422461 -22.301568 0.000000
vt 0.728820 -22.318624 0.000000
vt 0.742845 -22.391405 0.000000
vt 0.581772 -22.497335 0.000000
vt 0.756860 -22.464193 0.000000
vt 0.406744 -22.530770 0.000000
vt 0.130285 -22.358024 0.000000
vt 0.231777 -22.564511 0.000000
vt -0.137843 -22.539198 0.000000
vt -0.032314 -22.619364 0.000000
vt -0.161735 -22.415269 0.000000
vt -0.153768 -22.456579 0.000000
vt -0.145804 -22.497888 0.000000
vt 0.073123 -22.699650 0.000000
vt 0.253519 -22.581102 0.000000
vt 0.257458 -22.669542 0.000000
vt 0.275258 -22.597699 0.000000
vt 0.296992 -22.614302 0.000000
vt 0.178463 -22.780066 0.000000
vt 0.217948 -22.724796 0.000000
vt -0.000000 -0.393706 0.000000
vt 0.073442 -0.384411 0.000000
vt 0.000000 0.700000 0.000000
vt 0.146830 -0.374703 0.000000
vt 0.220163 0.700000 0.000000
vt 0.220163 -0.364584 0.000000
vt 0.000000 -0.364584 0.000000
vt 0.178134 -0.368999 0.000000
vt 0.000000 0.700000 0.000000
vt 0.534500 0.700000 0.000000
vt 0.356312 -0.370985 0.000000
vt 0.534500 -0.370542 0.000000
vt -0.000000 -0.370542 0.000000
vt 0.027216 -0.367836 0.000000
vt 0.000000 0.700000 0.000000
vt 0.054427 -0.365073 0.000000
vt 0.081631 0.700000 0.000000
vt 0.081631 -0.362253 0.000000
vt 0.000000 -0.391432 0.000000
vt 0.297479 -0.398949 0.000000
vt 0.000000 0.700000 0.000000
vt 0.892566 0.700000 0.000000
vt 0.595052 -0.399707 0.000000
vt 0.892566 -0.393706 0.000000
vt 0.000000 -0.375330 0.000000
vt 0.041717 -0.380830 0.000000
vt 0.000000 0.700000 0.000000
vt 0.125202 0.700000 0.000000
vt 0.083451 -0.386197 0.000000
vt 0.125202 -0.391432 0.000000
vt 0.000000 -0.339734 0.000000
vt 0.131877 -0.352934 0.000000
vt 0.000000 0.700000 0.000000
vt 0.395998 0.700000 0.000000
vt 0.263881 -0.364799 0.000000
vt 0.395998 -0.375330 0.000000
vt 0.000000 -0.362253 0.000000
vt 0.067553 -0.355096 0.000000
vt 0.000000 0.700000 0.000000
vt 0.135068 -0.347590 0.000000
vt 0.202544 0.700000 0.000000
vt 0.202544 -0.339734 0.000000
vn 0.000000 0.100000 0.000000
vn 0.000000 0.100000 0.000000
vn 0.000000 0.100000 0.000000
vn 0.000000 0.100000 0.000000
vn 0.000000 0.100000 0.000000
vn 0.000000 0.100000 0.000000
vn 0.000000 0.100000 0.000000
vn -0.011450 -0.099195 -0.005412
vn -0.011880 -0.099240 -0.003200
vn -0.011996 -0.099124 -0.005519
vn -0.012542 -0.099051 -0.005625
vn -0.013345 -0.099008 -0.004406
vn -0.013088 -0.098974 -0.005731
vn -0.013603 -0.099023 -0.003081
vn -0.012310 -0.099234 -0.000987
vn -0.013860 -0.099019 -0.001756
vn -0.013672 -0.099056 0.001044
vn -0.014274 -0.098976 0.000245
vn -0.012740 -0.099178 0.001225
vn -0.013051 -0.099138 0.001165
vn -0.013361 -0.099097 0.001105
vn -0.014875 -0.098886 -0.000554
vn -0.013984 -0.098999 -0.001920
vn -0.014647 -0.098902 -0.001950
vn -0.014108 -0.098978 -0.002085
vn -0.014232 -0.098956 -0.002250
vn -0.015477 -0.098786 -0.001352
vn -0.015062 -0.098845 -0.001651
vn 0.019081 0.000000 -0.098163
vn 0.019081 0.000000 -0.098163
vn 0.019081 0.000000 -0.098163
vn 0.019081 0.000000 -0.098163
vn 0.019081 0.000000 -0.098163
vn 0.019081 0.000000 -0.098163
vn -0.098163 0.000000 -0.019081
vn -0.098163 0.000000 -0.019081
vn -0.098163 0.000000 -0.019081
vn -0.098163 0.000000 -0.019081
vn -0.098163 0.000000 -0.019081
vn -0.098163 0.000000 -0.019081
vn 0.079874 0.000000 -0.060168
vn 0.079874 0.000000 -0.060168
vn 0.079874 0.000000 -0.060168
vn 0.079874 0.000000 -0.060168
vn 0.079874 0.000000 -0.060168
vn 0.079874 0.000000 -0.060168
vn 0.098163 -0.000000 0.019081
vn 0.098163 -0.000000 0.019081
vn 0.098163 -0.000000 0.019081
vn 0.098163 -0.000000 0.019081
vn 0.098163 -0.000000 0.019081
vn 0.098163 -0.000000 0.019081
vn -0.019081 0.000000 0.098163
vn -0.019081 0.000000 0.098163
vn -0.019081 0.000000 0.098163
vn -0.019081 0.000000 0.098163
vn -0.019081 0.000000 0.098163
vn -0.019081 0.000000 0.098163
vn -0.079874 0.000000 0.060168
vn -0.079874 0.000000 0.060168
vn -0.079874 0.000000 0.060168
vn -0.079874 0.000000 0.060168
vn -0.079874 0.000000 0.060168
vn -0.079874 0.000000 0.060168
vn -0.058511 0.000000 -0.081096
vn -0.058511 0.000000 -0.081096
vn -0.058511 0.000000 -0.081096
vn -0.058511 0.000000 -0.081096
vn -0.058511 0.000000 -0.081096
vn -0.058511 0.000000 -0.081096
usemtl ABS_(White)
f 7/1/1 1/2/2 4/3/3
f 4/3/3 1/2/2 2/4/4
f 4/3/3 2/4/4 3/5/5
f 5/6/6 6/7/7 4/3/3
f 4/3/3 6/7/7 7/1/1
f 8/8/8 9/9/9 28/10/10
f 28/10/10 9/9/9 27/11/11
f 27/11/11 9/9/9 25/12/12
f 27/11/11 25/12/12 26/13/13
f 25/12/12 9/9/9 24/14/14
f 24/14/14 9/9/9 10/15/15
f 24/14/14 10/15/15 23/16/16
f 23/16/16 10/15/15 14/17/17
f 23/16/16 14/17/17 15/18/18
f 11/19/19 12/20/20 10/15/15
f 10/15/15 12/20/20 13/21/21
f 10/15/15 13/21/21 14/17/17
f 15/18/18 16/22/22 23/16/16
f 23/16/16 16/22/22 22/23/23
f 22/23/23 16/22/22 19/24/24
f 22/23/23 19/24/24 21/25/25
f 21/25/25 19/24/24 20/26/26
f 17/27/27 18/28/28 16/22/22
f 16/22/22 18/28/28 19/24/24
f 8/29/29 28/30/30 2/31/31
f 2/31/31 28/30/30 27/32/32
f 2/31/31 27/32/32 3/33/33
f 3/33/33 27/32/32 26/34/34
f 26/35/35 25/36/36 3/37/37
f 3/37/37 25/36/36 4/38/38
f 4/38/38 25/36/36 24/39/39
f 4/38/38 24/39/39 23/40/40
f 23/41/41 22/42/42 4/43/43
f 4/43/43 22/42/42 21/44/44
f 4/43/43 21/44/44 5/45/45
f 5/45/45 21/44/44 20/46/46
f 11/47/47 10/48/48 1/49/49
f 1/49/49 10/48/48 2/50/50
f 2/50/50 10/48/48 9/51/51
f 2/50/50 9/51/51 8/52/52
f 14/53/53 13/54/54 7/55/55
f 7/55/55 13/54/54 1/56/56
f 1/56/56 13/54/54 12/57/57
f 1/56/56 12/57/57 11/58/58
f 17/59/59 16/60/60 6/61/61
f 6/61/61 16/60/60 7/62/62
f 7/62/62 16/60/60 15/63/63
f 7/62/62 15/63/63 14/64/64
f 20/65/65 19/66/66 5/67/67
f 5/67/67 19/66/66 18/68/68
f 5/67/67 18/68/68 6/69/69
f 6/69/69 18/68/68 17/70/70
# 28 vertices
# 70 texture params
# 70 normals
# 52 facets

# 1 groups
