# WaveFront *.obj file (generated by Autodesk ATF)

mtllib TC_Toy-Controller v65_Smile2_Toy-Controller v65.mtl

g Smile2

v 10.025026 -17.000000 3.635007
v 10.548389 -17.000000 2.866424
v 11.326129 -17.000000 2.356512
v 12.239707 -17.000000 2.183022
v 13.150042 -17.000000 2.372250
v 13.918648 -17.000000 2.895284
v 14.428876 -17.000000 3.672971
v 14.602624 -17.000000 4.587022
v 14.413269 -17.000000 5.497816
v 13.889979 -17.000000 6.266499
v 13.112377 -17.000000 6.776472
v 12.198873 -17.000000 6.950103
v 11.288504 -17.000000 6.761032
v 10.519718 -17.000000 6.238039
v 10.009368 -17.000000 5.460337
v 9.835540 -17.000000 4.546605
v 9.835455 0.000000 4.566561
v 10.154801 0.000000 5.758375
v 11.027270 0.000000 6.630844
v 12.219084 0.000000 6.950189
v 13.410898 0.000000 6.630844
v 14.283367 0.000000 5.758375
v 14.602712 0.000000 4.566561
v 14.283367 0.000000 3.374747
v 13.410898 0.000000 2.502278
v 12.219084 0.000000 2.182932
v 11.027270 0.000000 2.502278
v 10.154801 0.000000 3.374747
vt -6.511182 5.273552 0.000000
vt -6.537385 5.363149 0.000000
vt -6.977772 5.314289 0.000000
vt -6.596158 5.436214 0.000000
vt -6.934959 5.398932 0.000000
vt -6.862798 5.460870 0.000000
vt -6.678848 5.480990 0.000000
vt -6.772658 5.489796 0.000000
vt -6.984685 5.220800 0.000000
vt -6.634729 5.042854 0.000000
vt -6.564444 5.100792 0.000000
vt -6.520950 5.181561 0.000000
vt -6.955154 5.133100 0.000000
vt -6.894497 5.064044 0.000000
vt -6.812490 5.023114 0.000000
vt -6.721525 5.015738 0.000000
vt -0.064203 0.983546 0.000000
vt 0.054979 1.015480 0.000000
vt -0.183384 1.015480 0.000000
vt -0.270631 1.102727 0.000000
vt 0.142225 1.102727 0.000000
vt -0.302566 1.221908 0.000000
vt 0.174160 1.221908 0.000000
vt -0.270631 1.341090 0.000000
vt 0.142225 1.341090 0.000000
vt -0.183384 1.428337 0.000000
vt 0.054979 1.428337 0.000000
vt -0.064203 1.460271 0.000000
vt -2.000000 0.624032 0.000000
vt -0.300000 0.653133 0.000000
vt -2.000000 0.748839 0.000000
vt -0.300000 0.746843 0.000000
vt -2.000000 -0.748839 0.000000
vt -0.300000 -0.750835 0.000000
vt -0.300000 -0.657222 0.000000
vt -0.300000 0.559547 0.000000
vt -2.000000 0.499226 0.000000
vt -0.300000 0.465948 0.000000
vt -2.000000 0.374419 0.000000
vt -0.300000 0.372357 0.000000
vt -0.300000 0.278778 0.000000
vt -2.000000 0.249613 0.000000
vt -0.300000 0.185210 0.000000
vt -2.000000 0.124806 0.000000
vt -0.300000 0.091597 0.000000
vt -2.000000 0.000000 0.000000
vt -0.300000 -0.002046 0.000000
vt -0.300000 -0.095674 0.000000
vt -2.000000 -0.124806 0.000000
vt -0.300000 -0.189263 0.000000
vt -2.000000 -0.249613 0.000000
vt -0.300000 -0.282855 0.000000
vt -2.000000 -0.374419 0.000000
vt -0.300000 -0.376441 0.000000
vt -0.300000 -0.470020 0.000000
vt -2.000000 -0.499226 0.000000
vt -0.300000 -0.563601 0.000000
vt -2.000000 -0.624032 0.000000
vn 0.000000 -0.100000 -0.000000
vn 0.000000 -0.100000 -0.000000
vn 0.000000 -0.100000 -0.000000
vn 0.000000 -0.100000 -0.000000
vn 0.000000 -0.100000 -0.000000
vn 0.000000 -0.100000 -0.000000
vn 0.000000 -0.100000 -0.000000
vn 0.000000 -0.100000 -0.000000
vn 0.000000 -0.100000 -0.000000
vn 0.000000 -0.100000 -0.000000
vn 0.000000 -0.100000 -0.000000
vn 0.000000 -0.100000 -0.000000
vn 0.000000 -0.100000 -0.000000
vn 0.000000 -0.100000 -0.000000
vn 0.000000 -0.100000 -0.000000
vn 0.000000 -0.100000 -0.000000
vn 0.000000 0.100000 0.000000
vn 0.000000 0.100000 0.000000
vn 0.000000 0.100000 0.000000
vn 0.000000 0.100000 0.000000
vn 0.000000 0.100000 0.000000
vn 0.000000 0.100000 0.000000
vn 0.000000 0.100000 0.000000
vn 0.000000 0.100000 0.000000
vn 0.000000 0.100000 0.000000
vn 0.000000 0.100000 0.000000
vn 0.000000 0.100000 0.000000
vn 0.000000 0.100000 0.000000
vn -0.086603 0.000000 -0.050000
vn -0.092047 0.000000 -0.039081
vn -0.100000 0.000000 -0.000000
vn -0.099996 0.000000 -0.000837
vn -0.092704 0.000000 0.037496
vn -0.070090 0.000000 -0.071326
vn -0.050000 0.000000 -0.086603
vn -0.037462 0.000000 -0.092718
vn 0.000000 0.000000 -0.100000
vn 0.000865 0.000000 -0.099996
vn 0.039056 0.000000 -0.092058
vn 0.050000 0.000000 -0.086603
vn 0.071302 0.000000 -0.070115
vn 0.086603 0.000000 -0.050000
vn 0.092707 0.000000 -0.037489
vn 0.100000 0.000000 0.000000
vn 0.099996 -0.000000 0.000858
vn 0.092052 -0.000000 0.039069
vn 0.086603 -0.000000 0.050000
vn 0.070099 -0.000000 0.071317
vn 0.050000 -0.000000 0.086603
vn 0.037476 -0.000000 0.092712
vn 0.000000 -0.000000 0.100000
vn -0.000848 0.000000 0.099996
vn -0.039040 0.000000 0.092064
vn -0.050000 0.000000 0.086603
vn -0.071293 0.000000 0.070123
vn -0.086603 0.000000 0.050000
usemtl ABS_(White)
f 16/1/1 1/2/2 7/3/3
f 7/3/3 1/2/2 2/4/4
f 7/3/3 2/4/4 6/5/5
f 6/5/5 2/4/4 5/6/6
f 5/6/6 2/4/4 3/7/7
f 5/6/6 3/7/7 4/8/8
f 8/9/9 13/10/10 7/3/3
f 7/3/3 13/10/10 14/11/11
f 7/3/3 14/11/11 15/12/12
f 8/9/9 9/13/13 13/10/10
f 13/10/10 9/13/13 10/14/14
f 13/10/10 10/14/14 11/15/15
f 11/15/15 12/16/16 13/10/10
f 15/12/12 16/1/1 7/3/3
f 17/17/17 18/18/18 28/19/19
f 28/19/19 18/18/18 27/20/20
f 27/20/20 18/18/18 19/21/21
f 27/20/20 19/21/21 26/22/22
f 26/22/22 19/21/21 20/23/23
f 26/22/22 20/23/23 25/24/24
f 25/24/24 20/23/23 21/25/25
f 25/24/24 21/25/25 24/26/26
f 24/26/26 21/25/25 22/27/27
f 24/26/26 22/27/27 23/28/28
f 28/29/29 1/30/30 17/31/31
f 17/31/31 1/30/30 16/32/32
f 17/33/31 16/34/32 15/35/33
f 1/30/30 28/29/29 2/36/34
f 2/36/34 28/29/29 27/37/35
f 2/36/34 27/37/35 3/38/36
f 3/38/36 27/37/35 26/39/37
f 3/38/36 26/39/37 4/40/38
f 4/40/38 26/39/37 5/41/39
f 5/41/39 26/39/37 25/42/40
f 5/41/39 25/42/40 6/43/41
f 6/43/41 25/42/40 24/44/42
f 6/43/41 24/44/42 7/45/43
f 7/45/43 24/44/42 23/46/44
f 7/45/43 23/46/44 8/47/45
f 8/47/45 23/46/44 9/48/46
f 9/48/46 23/46/44 22/49/47
f 9/48/46 22/49/47 10/50/48
f 10/50/48 22/49/47 21/51/49
f 10/50/48 21/51/49 11/52/50
f 11/52/50 21/51/49 20/53/51
f 11/52/50 20/53/51 12/54/52
f 12/54/52 20/53/51 13/55/53
f 13/55/53 20/53/51 19/56/54
f 13/55/53 19/56/54 14/57/55
f 14/57/55 19/56/54 18/58/56
f 14/57/55 18/58/56 15/35/33
f 15/35/33 18/58/56 17/33/31
# 28 vertices
# 58 texture params
# 56 normals
# 52 facets

# 1 groups
