# WaveFront *.obj file (generated by Autodesk ATF)

mtllib TC_Toy-Controller v65_Smile3_Toy-Controller v65.mtl

g Smile3

v 7.295751 -16.333333 -25.223416
v 6.024018 -16.440371 -24.331776
v 4.637579 -16.514043 -23.630464
v 3.161714 -16.557752 -23.168110
v 1.600161 -16.575250 -22.967995
v -0.050735 -16.566819 -23.048310
v -1.793940 -16.530318 -23.429361
v -3.595460 -16.457898 -24.130711
v -5.416142 -16.333333 -25.169369
v -2.238051 -16.333333 -25.111858
v 0.938582 -16.333333 -25.101677
v 4.115827 -16.333333 -25.140467
v 0.000000 -16.486497 -23.831416
v -9.018227 0.000000 -28.372425
v -8.666301 0.000000 -27.979671
v -8.422667 0.000000 -27.720372
v -7.925899 0.000000 -27.217311
v -6.878084 0.000000 -26.267442
v -4.571363 0.000000 -24.644337
v -2.151528 0.000000 -23.543408
v 0.176778 0.000000 -23.020984
v 2.491019 0.000000 -23.047729
v 4.718711 0.000000 -23.664202
v 6.713564 0.000000 -24.778311
v 7.524178 0.000000 -25.394176
v 8.445473 0.000000 -26.252986
v 6.876152 0.000000 -28.025033
v 5.049970 0.000000 -29.523626
v 2.990372 0.000000 -30.602709
v 0.724608 0.000000 -31.183728
v -1.608104 0.000000 -31.239561
v -3.975071 0.000000 -30.810009
v -6.450740 0.000000 -29.872363
v -9.018227 -15.796603 -28.372425
v 8.445473 -16.188852 -26.252986
v 6.942642 -15.871946 -27.959641
v 5.064461 -15.507278 -29.513884
v 2.890329 -15.184390 -30.640811
v 0.480868 -14.999320 -31.213822
v -1.999305 -15.003990 -31.200976
v -4.441300 -15.178123 -30.671127
v -6.752672 -15.457852 -29.724102
v -7.301680 -16.121530 -26.634231
v 0.000000 -15.092496 -30.926606
v -0.000000 -15.695312 -28.706760
v 0.000000 -15.940586 -27.539122
v 4.430335 -15.695312 -28.736325
v 4.316191 -15.940586 -27.573496
vt -5.821724 6.176334 0.000000
vt -6.134557 6.176334 0.000000
vt -5.416457 6.047660 0.000000
vt -6.016847 6.088849 0.000000
vt -5.882841 6.021909 0.000000
vt -5.736195 5.978914 0.000000
vt -5.411319 5.969749 0.000000
vt -5.235618 6.006642 0.000000
vt -5.578656 5.961127 0.000000
vt -5.057253 6.074355 0.000000
vt -5.508891 6.176334 0.000000
vt -4.883225 6.176334 0.000000
vt -5.196058 6.176334 0.000000
vt -3.358101 -0.901823 0.000000
vt -3.318826 -0.866630 0.000000
vt -3.508095 -0.645074 0.000000
vt -3.292896 -0.842267 0.000000
vt -3.242590 -0.792590 0.000000
vt -3.147603 -0.687808 0.000000
vt -3.473222 0.504997 0.000000
vt -3.601860 -0.397507 0.000000
vt -3.581130 0.299037 0.000000
vt -3.644815 -0.160810 0.000000
vt -3.639232 0.072461 0.000000
vt -2.985293 -0.457136 0.000000
vt -3.323362 0.687615 0.000000
vt -2.998690 0.671356 0.000000
vt -3.060276 0.752418 0.000000
vt -2.887279 0.471871 0.000000
vt -2.875200 -0.215153 0.000000
vt -2.822957 0.017678 0.000000
vt -2.825632 0.249102 0.000000
vt -3.146158 0.844547 0.000000
vt 3.263423 0.420340 0.000000
vt 3.263423 2.000000 0.000000
vt 3.059145 0.454215 0.000000
vt 3.031975 2.000000 0.000000
vt 2.850500 0.482188 0.000000
vt 2.808056 2.000000 0.000000
vt 2.625465 0.499601 0.000000
vt 2.588607 2.000000 0.000000
vt 2.386006 0.500068 0.000000
vt 2.361584 2.000000 0.000000
vt 2.134857 0.481561 0.000000
vt 2.123887 2.000000 0.000000
vt 1.883798 0.449272 0.000000
vt 1.885569 2.000000 0.000000
vt 1.649926 2.000000 0.000000
vt 1.640844 0.412805 0.000000
vt 1.424696 2.000000 0.000000
vt 1.424696 0.381115 0.000000
vt -5.708819 5.256329 0.000000
vt -5.571274 5.074597 0.000000
vt -5.708819 5.593064 0.000000
vt -5.470951 5.830303 0.000000
vt -5.708819 5.929799 0.000000
vt -5.708819 6.266534 0.000000
vt -5.470951 6.268568 0.000000
vt -5.612412 6.710774 0.000000
vt -5.436703 6.530785 0.000000
vt -5.352018 6.269585 0.000000
vt -5.270894 6.324203 0.000000
vt -5.352018 5.830303 0.000000
vt -5.146644 6.104819 0.000000
vt -5.114150 5.830303 0.000000
vt -5.082072 5.875349 0.000000
vt -5.083824 5.642923 0.000000
vt -5.144401 5.408530 0.000000
vt -5.250752 5.174184 0.000000
vt -5.399098 4.926677 0.000000
vt -5.708819 6.603269 0.000000
vt 1.929532 2.000000 0.000000
vt 1.819157 2.000000 0.000000
vt 1.929532 0.381115 0.000000
vt 1.793439 0.366667 0.000000
vt 1.726006 2.000000 0.000000
vt 1.648317 0.355963 0.000000
vt 1.504649 2.000000 0.000000
vt 1.495878 0.348596 0.000000
vt 1.339196 0.344225 0.000000
vt 1.269523 2.000000 0.000000
vt 1.178062 0.342475 0.000000
vt 1.033411 2.000000 0.000000
vt 1.010349 0.343318 0.000000
vt 0.832612 0.346968 0.000000
vt 0.795713 2.000000 0.000000
vt 0.643876 0.354210 0.000000
vt 0.537855 2.000000 0.000000
vt 0.443223 0.366667 0.000000
vt 0.271933 2.000000 0.000000
vt 0.220260 0.387847 0.000000
vt 0.142291 2.000000 0.000000
vt 0.000000 0.420340 0.000000
vt 0.078548 2.000000 0.000000
vt 0.046756 2.000000 0.000000
vt 0.000000 2.000000 0.000000
vn -0.000257 -0.099120 -0.013232
vn -0.000432 -0.099108 -0.013322
vn 0.000000 -0.099410 -0.010845
vn -0.000340 -0.099321 -0.011628
vn -0.000249 -0.099454 -0.010432
vn -0.000164 -0.099527 -0.009709
vn 0.000003 -0.099543 -0.009554
vn 0.000098 -0.099483 -0.010156
vn -0.000083 -0.099555 -0.009418
vn 0.000207 -0.099356 -0.011329
vn -0.000062 -0.099126 -0.013193
vn 0.000331 -0.099116 -0.013262
vn 0.000144 -0.099124 -0.013203
vn 0.000000 0.100000 0.000000
vn 0.000000 0.100000 0.000000
vn 0.000000 0.100000 0.000000
vn 0.000000 0.100000 0.000000
vn 0.000000 0.100000 0.000000
vn 0.000000 0.100000 0.000000
vn 0.000000 0.100000 0.000000
vn 0.000000 0.100000 0.000000
vn 0.000000 0.100000 0.000000
vn 0.000000 0.100000 0.000000
vn 0.000000 0.100000 0.000000
vn 0.000000 0.100000 0.000000
vn 0.000000 0.100000 0.000000
vn 0.000000 0.100000 0.000000
vn 0.000000 0.100000 0.000000
vn 0.000000 0.100000 0.000000
vn 0.000000 0.100000 0.000000
vn 0.000000 0.100000 0.000000
vn 0.000000 0.100000 0.000000
vn 0.000000 0.100000 0.000000
vn -0.056901 0.000000 -0.082233
vn -0.056901 0.000000 -0.082233
vn -0.044936 0.000000 -0.089335
vn -0.043161 0.000000 -0.090206
vn -0.030189 0.000000 -0.095334
vn -0.026875 0.000000 -0.096321
vn -0.011467 0.000000 -0.099340
vn -0.008149 0.000000 -0.099667
vn 0.010996 0.000000 -0.099394
vn 0.013368 0.000000 -0.099102
vn 0.035073 0.000000 -0.093648
vn 0.036079 0.000000 -0.093265
vn 0.055858 0.000000 -0.082945
vn 0.055730 0.000000 -0.083031
vn 0.069957 0.000000 -0.071457
vn 0.070399 0.000000 -0.071021
vn 0.078929 0.000000 -0.061402
vn 0.078929 0.000000 -0.061402
vn 0.000461 -0.098627 -0.016507
vn 0.000000 -0.098201 -0.018883
vn -0.000292 -0.098183 -0.018976
vn -0.000515 -0.098780 -0.015566
vn -0.000441 -0.097961 -0.020086
vn -0.000288 -0.097450 -0.022436
vn -0.000304 -0.096805 -0.025075
vn 0.000000 -0.097479 -0.022312
vn -0.000154 -0.095611 -0.029301
vn 0.000000 -0.095254 -0.030443
vn -0.000024 -0.094851 -0.031676
vn 0.000096 -0.094862 -0.031642
vn 0.000225 -0.095556 -0.029479
vn 0.000378 -0.096588 -0.025895
vn 0.000539 -0.097688 -0.021370
vn 0.070494 -0.000000 0.070927
vn 0.064137 -0.000000 0.076723
vn 0.070494 -0.000000 0.070927
vn 0.062481 -0.000000 0.078077
vn 0.057796 -0.000000 0.081606
vn 0.051756 -0.000000 0.085565
vn 0.038771 -0.000000 0.092178
vn 0.037907 -0.000000 0.092537
vn 0.021481 -0.000000 0.097666
vn 0.013839 -0.000000 0.099038
vn 0.003888 -0.000000 0.099924
vn -0.010969 0.000000 0.099397
vn -0.013198 0.000000 0.099125
vn -0.028948 0.000000 0.095718
vn -0.031908 0.000000 0.094773
vn -0.043067 0.000000 0.090251
vn -0.049950 0.000000 0.086631
vn -0.055504 0.000000 0.083183
vn -0.064254 0.000000 0.076625
vn -0.066594 0.000000 0.074601
vn -0.069886 0.000000 0.071526
vn -0.075235 0.000000 0.065876
vn -0.072381 0.000000 0.069000
vn -0.073565 0.000000 0.067737
vn -0.075235 0.000000 0.065876
usemtl Paint_-_Enamel_Glossy_(Red)
f 12/1/1 1/2/2 13/3/3
f 13/3/3 1/2/2 2/4/4
f 13/3/3 2/4/4 3/5/5
f 3/5/5 4/6/6 13/3/3
f 13/3/3 4/6/6 6/7/7
f 13/3/3 6/7/7 7/8/8
f 4/6/6 5/9/9 6/7/7
f 7/8/8 8/10/10 13/3/3
f 13/3/3 8/10/10 11/11/11
f 13/3/3 11/11/11 12/1/1
f 9/12/12 10/13/13 8/10/10
f 8/10/10 10/13/13 11/11/11
f 14/14/14 15/15/15 33/16/16
f 33/16/16 15/15/15 16/17/17
f 33/16/16 16/17/17 17/18/18
f 17/18/18 18/19/19 33/16/16
f 33/16/16 18/19/19 28/20/20
f 33/16/16 28/20/20 32/21/21
f 32/21/21 28/20/20 29/22/22
f 32/21/21 29/22/22 31/23/23
f 31/23/23 29/22/22 30/24/24
f 18/19/19 19/25/25 28/20/20
f 28/20/20 19/25/25 27/26/26
f 27/26/26 19/25/25 24/27/27
f 27/26/26 24/27/27 25/28/28
f 24/27/27 19/25/25 23/29/29
f 23/29/29 19/25/25 20/30/30
f 23/29/29 20/30/30 21/31/31
f 21/31/31 22/32/32 23/29/29
f 25/28/28 26/33/33 27/26/26
f 34/34/34 14/35/35 42/36/36
f 42/36/36 14/35/35 33/37/37
f 42/36/36 33/37/37 41/38/38
f 41/38/38 33/37/37 32/39/39
f 41/38/38 32/39/39 40/40/40
f 40/40/40 32/39/39 31/41/41
f 40/40/40 31/41/41 39/42/42
f 39/42/42 31/41/41 30/43/43
f 39/42/42 30/43/43 38/44/44
f 38/44/44 30/43/43 29/45/45
f 38/44/44 29/45/45 37/46/46
f 37/46/46 29/45/45 28/47/47
f 37/46/46 28/47/47 27/48/48
f 37/46/46 27/48/48 36/49/49
f 36/49/49 27/48/48 26/50/50
f 36/49/49 26/50/50 35/51/51
f 9/52/12 43/53/52 10/54/13
f 10/54/13 43/53/52 46/55/53
f 10/54/13 46/55/53 11/56/11
f 11/56/11 46/55/53 12/57/1
f 12/57/1 46/55/53 48/58/54
f 12/57/1 48/58/54 35/59/55
f 35/59/55 48/58/54 36/60/56
f 36/60/56 48/58/54 47/61/57
f 36/60/56 47/61/57 37/62/58
f 37/62/58 47/61/57 45/63/59
f 37/62/58 45/63/59 38/64/60
f 38/64/60 45/63/59 44/65/61
f 38/64/60 44/65/61 39/66/62
f 39/66/62 44/65/61 40/67/63
f 40/67/63 44/65/61 41/68/64
f 41/68/64 44/65/61 42/69/65
f 42/69/65 44/65/61 45/63/59
f 42/69/65 45/63/59 34/70/66
f 34/70/66 45/63/59 46/55/53
f 34/70/66 46/55/53 43/53/52
f 35/59/55 1/71/2 12/57/1
f 48/58/54 46/55/53 45/63/59
f 47/61/57 48/58/54 45/63/59
f 26/72/67 25/73/68 35/74/69
f 35/74/69 25/73/68 1/75/70
f 1/75/70 25/73/68 24/76/71
f 1/75/70 24/76/71 2/77/72
f 2/77/72 24/76/71 23/78/73
f 2/77/72 23/78/73 3/79/74
f 3/79/74 23/78/73 4/80/75
f 4/80/75 23/78/73 22/81/76
f 4/80/75 22/81/76 5/82/77
f 5/82/77 22/81/76 21/83/78
f 5/82/77 21/83/78 6/84/79
f 6/84/79 21/83/78 7/85/80
f 7/85/80 21/83/78 20/86/81
f 7/85/80 20/86/81 8/87/82
f 8/87/82 20/86/81 19/88/83
f 8/87/82 19/88/83 9/89/84
f 9/89/84 19/88/83 18/90/85
f 9/89/84 18/90/85 43/91/86
f 43/91/86 18/90/85 17/92/87
f 43/91/86 17/92/87 34/93/88
f 34/93/88 17/92/87 16/94/89
f 34/93/88 16/94/89 15/95/90
f 15/95/90 14/96/91 34/93/88
# 48 vertices
# 96 texture params
# 91 normals
# 92 facets

# 1 groups
