# WaveFront *.obj file (generated by Autodesk ATF)

mtllib TC_Toy-Controller v65_Start_Toy-Controller v65.mtl

g Start

v 36.930632 -13.500000 -33.457618
v 37.254688 -13.500000 -35.711479
v 38.200604 -13.500000 -37.782745
v 39.691746 -13.500000 -39.503615
v 41.607312 -13.500000 -40.734674
v 43.792114 -13.500000 -41.376190
v 46.069151 -13.500000 -41.376190
v 48.253952 -13.500000 -40.734674
v 50.169518 -13.500000 -39.503615
v 51.660660 -13.500000 -37.782745
v 52.606576 -13.500000 -35.711479
v 52.930632 -13.500000 -33.457618
v 52.606576 -13.500000 -31.203758
v 51.660660 -13.500000 -29.132492
v 50.169518 -13.500000 -27.411622
v 48.253952 -13.500000 -26.180562
v 46.069151 -13.500000 -25.539047
v 43.792114 -13.500000 -25.539047
v 41.607312 -13.500000 -26.180562
v 39.691746 -13.500000 -27.411622
v 38.200604 -13.500000 -29.132492
v 37.254688 -13.500000 -31.203758
v 39.430632 -16.000000 -33.457618
v 39.762323 -16.000000 -31.576507
v 40.717388 -16.000000 -29.922286
v 42.180632 -16.000000 -28.694479
v 43.975567 -16.000000 -28.041176
v 45.885697 -16.000000 -28.041176
v 47.680632 -16.000000 -28.694479
v 49.143877 -16.000000 -29.922286
v 50.098942 -16.000000 -31.576507
v 50.430632 -16.000000 -33.457618
v 50.098942 -16.000000 -35.338729
v 49.143877 -16.000000 -36.992950
v 47.680632 -16.000000 -38.220758
v 45.885697 -16.000000 -38.874061
v 43.975567 -16.000000 -38.874061
v 42.180632 -16.000000 -38.220758
v 40.717388 -16.000000 -36.992950
v 39.762323 -16.000000 -35.338729
v 44.930632 -14.750000 -25.792555
v 44.930632 -15.665064 -26.707618
v 41.281307 -15.665064 -27.779157
v 41.281307 -15.665064 -39.136080
v 48.579958 -15.665064 -39.136080
v 48.579958 -15.665064 -27.779157
v 37.343588 -14.750000 -34.548471
v 38.249337 -15.665064 -34.418243
v 38.249337 -15.665064 -32.496993
v 37.343588 -14.750000 -32.366766
v 37.958245 -14.750000 -36.641801
v 38.790616 -15.665064 -36.261670
v 39.137764 -14.750000 -38.477167
v 39.829323 -15.665064 -37.877928
v 40.786586 -14.750000 -39.905880
v 42.771134 -14.750000 -40.812193
v 43.028937 -15.665064 -39.934196
v 44.930632 -14.750000 -41.122682
v 44.930632 -15.665064 -40.207618
v 47.090130 -14.750000 -40.812193
v 46.832327 -15.665064 -39.934196
v 49.074678 -14.750000 -39.905880
v 50.723501 -14.750000 -38.477167
v 50.031942 -15.665064 -37.877928
v 51.903019 -14.750000 -36.641801
v 51.070648 -15.665064 -36.261670
v 52.517676 -14.750000 -34.548471
v 51.611927 -15.665064 -34.418243
v 52.517676 -14.750000 -32.366766
v 51.611927 -15.665064 -32.496993
v 51.903019 -14.750000 -30.273436
v 51.070648 -15.665064 -30.653567
v 50.723501 -14.750000 -28.438069
v 50.031942 -15.665064 -29.037308
v 49.074678 -14.750000 -27.009356
v 47.090130 -14.750000 -26.103044
v 46.832327 -15.665064 -26.981041
v 42.771134 -14.750000 -26.103044
v 43.028937 -15.665064 -26.981041
v 40.786586 -14.750000 -27.009356
v 39.137764 -14.750000 -28.438069
v 39.829323 -15.665064 -29.037308
v 37.958245 -14.750000 -30.273436
v 38.790616 -15.665064 -30.653567
v 36.930632 -11.000000 -33.457618
v 37.254688 -11.000000 -35.711479
v 38.200604 -11.000000 -37.782745
v 39.691746 -11.000000 -39.503615
v 41.607312 -11.000000 -40.734674
v 43.792114 -11.000000 -41.376190
v 46.069151 -11.000000 -41.376190
v 48.253952 -11.000000 -40.734674
v 50.169518 -11.000000 -39.503615
v 51.660660 -11.000000 -37.782745
v 52.606576 -11.000000 -35.711479
v 52.930632 -11.000000 -33.457618
v 52.606576 -11.000000 -31.203758
v 51.660660 -11.000000 -29.132492
v 50.169518 -11.000000 -27.411622
v 48.253952 -11.000000 -26.180562
v 46.069151 -11.000000 -25.539047
v 43.792114 -11.000000 -25.539047
v 41.607312 -11.000000 -26.180562
v 39.691746 -11.000000 -27.411622
v 38.200604 -11.000000 -29.132492
v 37.254688 -11.000000 -31.203758
vt 0.000000 -0.934051 0.000000
vt -0.130900 -1.037835 0.000000
vt -0.000000 -1.141618 0.000000
vt -0.130900 -1.245402 0.000000
vt -0.000000 -1.349185 0.000000
vt -0.130900 -1.452969 0.000000
vt -0.000000 -1.556752 0.000000
vt -0.130900 -1.660536 0.000000
vt -0.000000 -1.764319 0.000000
vt -0.130900 -1.868102 0.000000
vt -0.000000 -1.971886 0.000000
vt -0.130900 -2.075669 0.000000
vt -0.000000 -2.179453 0.000000
vt -0.130900 -2.283236 0.000000
vt 0.000000 -2.387020 0.000000
vt -0.000000 2.179453 0.000000
vt -0.130900 2.283236 0.000000
vt -0.130900 2.075669 0.000000
vt -0.000000 1.971886 0.000000
vt -0.130900 1.868102 0.000000
vt -0.000000 1.764319 0.000000
vt -0.130900 1.660536 0.000000
vt -0.000000 1.556752 0.000000
vt -0.130900 1.452969 0.000000
vt -0.000000 1.349185 0.000000
vt -0.130900 1.245402 0.000000
vt -0.000000 1.141618 0.000000
vt -0.130900 1.037835 0.000000
vt -0.000000 0.934051 0.000000
vt -0.130900 0.830268 0.000000
vt -0.000000 0.726484 0.000000
vt -0.130900 0.622701 0.000000
vt -0.000000 0.518917 0.000000
vt -0.130900 0.415134 0.000000
vt -0.000000 0.311350 0.000000
vt -0.130900 0.207567 0.000000
vt -0.000000 0.103783 0.000000
vt -0.130900 0.000000 0.000000
vt 0.000000 -0.103783 0.000000
vt -0.130900 -0.207567 0.000000
vt 0.000000 -0.311350 0.000000
vt -0.130900 -0.415134 0.000000
vt 0.000000 -0.518917 0.000000
vt -0.130900 -0.622701 0.000000
vt 0.000000 -0.726484 0.000000
vt -0.130900 -0.830268 0.000000
vt -0.392699 -1.395311 0.000000
vt -0.261799 -1.245402 0.000000
vt -0.392699 -1.141618 0.000000
vt -0.261799 -1.037835 0.000000
vt -0.392699 -0.887925 0.000000
vt -0.261799 -0.830268 0.000000
vt -0.392699 -0.634232 0.000000
vt -0.261799 -0.622701 0.000000
vt -0.261799 -0.415134 0.000000
vt -0.261799 -1.452969 0.000000
vt -0.392699 -1.649004 0.000000
vt -0.261799 -1.660536 0.000000
vt -0.261799 -1.868102 0.000000
vt -0.392699 -1.902697 0.000000
vt -0.261799 -2.075669 0.000000
vt -0.392699 -2.156390 0.000000
vt -0.261799 -2.283236 0.000000
vt -0.261799 2.283236 0.000000
vt -0.392699 2.410083 0.000000
vt -0.392699 2.156390 0.000000
vt -0.261799 2.075669 0.000000
vt -0.392699 1.902697 0.000000
vt -0.261799 1.868102 0.000000
vt -0.392699 1.649004 0.000000
vt -0.261799 1.660536 0.000000
vt -0.261799 1.452969 0.000000
vt -0.392699 1.395311 0.000000
vt -0.261799 1.245402 0.000000
vt -0.392699 1.141618 0.000000
vt -0.261799 1.037835 0.000000
vt -0.392699 0.887925 0.000000
vt -0.261799 0.830268 0.000000
vt -0.392699 0.634232 0.000000
vt -0.261799 0.622701 0.000000
vt -0.261799 0.415134 0.000000
vt -0.392699 0.380539 0.000000
vt -0.261799 0.207567 0.000000
vt -0.392699 0.126846 0.000000
vt -0.261799 0.000000 0.000000
vt -0.392699 -0.126846 0.000000
vt -0.261799 -0.207567 0.000000
vt -0.392699 -0.380539 0.000000
vt -0.000000 -2.284795 0.000000
vt -0.250000 -2.284795 0.000000
vt -0.000000 -2.513274 0.000000
vt -0.250000 -2.513274 0.000000
vt -0.000000 2.513274 0.000000
vt -0.250000 2.513274 0.000000
vt -0.000000 2.284795 0.000000
vt -0.250000 2.284795 0.000000
vt -0.000000 2.056315 0.000000
vt -0.250000 2.056315 0.000000
vt -0.000000 1.827836 0.000000
vt -0.250000 1.827836 0.000000
vt -0.000000 1.599356 0.000000
vt -0.250000 1.599356 0.000000
vt -0.000000 1.370877 0.000000
vt -0.250000 1.370877 0.000000
vt -0.000000 1.142397 0.000000
vt -0.250000 1.142397 0.000000
vt -0.000000 0.913918 0.000000
vt -0.250000 0.913918 0.000000
vt -0.000000 0.685438 0.000000
vt -0.250000 0.685438 0.000000
vt -0.000000 0.456959 0.000000
vt -0.250000 0.456959 0.000000
vt -0.000000 0.228479 0.000000
vt -0.250000 0.228479 0.000000
vt -0.000000 0.000000 0.000000
vt -0.250000 0.000000 0.000000
vt -0.000000 -0.228479 0.000000
vt -0.250000 -0.228479 0.000000
vt -0.000000 -0.456959 0.000000
vt -0.250000 -0.456959 0.000000
vt -0.000000 -0.685438 0.000000
vt -0.250000 -0.685438 0.000000
vt -0.000000 -0.913918 0.000000
vt -0.250000 -0.913918 0.000000
vt -0.000000 -1.142397 0.000000
vt -0.250000 -1.142397 0.000000
vt -0.000000 -1.370877 0.000000
vt -0.250000 -1.370877 0.000000
vt -0.000000 -1.599356 0.000000
vt -0.250000 -1.599356 0.000000
vt 0.000000 -1.827836 0.000000
vt -0.250000 -1.827836 0.000000
vt -0.000000 -2.056315 0.000000
vt -0.250000 -2.056315 0.000000
vt -0.516831 -0.188111 0.000000
vt 0.516831 -0.188111 0.000000
vt -0.550000 0.000000 0.000000
vt 0.550000 0.000000 0.000000
vt -0.516831 0.188111 0.000000
vt 0.516831 0.188111 0.000000
vt -0.421324 0.353533 0.000000
vt 0.421324 0.353533 0.000000
vt -0.275000 0.476314 0.000000
vt 0.275000 0.476314 0.000000
vt -0.095506 0.541644 0.000000
vt 0.095506 0.541644 0.000000
vt 0.421324 -0.353533 0.000000
vt -0.421324 -0.353533 0.000000
vt 0.275000 -0.476314 0.000000
vt -0.275000 -0.476314 0.000000
vt 0.095506 -0.541644 0.000000
vt -0.095506 -0.541644 0.000000
vt 0.767594 0.225386 0.000000
vt -0.767594 0.225386 0.000000
vt 0.800000 0.000000 0.000000
vt -0.800000 0.000000 0.000000
vt 0.767594 -0.225386 0.000000
vt -0.767594 -0.225386 0.000000
vt 0.673003 -0.432513 0.000000
vt -0.673003 -0.432513 0.000000
vt 0.523889 -0.604600 0.000000
vt -0.523889 -0.604600 0.000000
vt 0.332332 -0.727706 0.000000
vt -0.332332 -0.727706 0.000000
vt 0.113852 -0.791857 0.000000
vt -0.113852 -0.791857 0.000000
vt -0.673003 0.432513 0.000000
vt 0.673003 0.432513 0.000000
vt -0.523889 0.604600 0.000000
vt 0.523889 0.604600 0.000000
vt -0.332332 0.727706 0.000000
vt 0.332332 0.727706 0.000000
vt -0.113852 0.791857 0.000000
vt 0.113852 0.791857 0.000000
vn -0.095949 0.000000 -0.028173
vn -0.085721 -0.050000 -0.012325
vn -0.100000 0.000000 -0.000000
vn -0.085721 -0.050000 0.012325
vn -0.095949 0.000000 0.028173
vn -0.078776 -0.050000 0.035976
vn -0.084125 0.000000 0.054064
vn -0.065450 -0.050000 0.056713
vn -0.065486 0.000000 0.075575
vn -0.046821 -0.050000 0.072855
vn -0.041542 0.000000 0.090963
vn -0.024399 -0.050000 0.083095
vn -0.014231 0.000000 0.098982
vn -0.000000 -0.050000 0.086603
vn 0.014231 0.000000 0.098982
vn 0.024399 -0.050000 0.083095
vn 0.041542 0.000000 0.090963
vn 0.046821 -0.050000 0.072855
vn 0.065486 0.000000 0.075575
vn 0.065450 -0.050000 0.056713
vn 0.084125 0.000000 0.054064
vn 0.078776 -0.050000 0.035976
vn 0.095949 0.000000 0.028173
vn 0.085721 -0.050000 0.012325
vn 0.100000 0.000000 -0.000000
vn 0.085721 -0.050000 -0.012325
vn 0.095949 0.000000 -0.028173
vn 0.078776 -0.050000 -0.035976
vn 0.084125 0.000000 -0.054064
vn 0.065450 -0.050000 -0.056713
vn 0.065486 0.000000 -0.075575
vn 0.046821 -0.050000 -0.072855
vn 0.041542 0.000000 -0.090963
vn 0.024399 -0.050000 -0.083095
vn 0.014231 0.000000 -0.098982
vn 0.000000 -0.050000 -0.086603
vn -0.014231 0.000000 -0.098982
vn -0.024399 -0.050000 -0.083095
vn -0.041542 0.000000 -0.090963
vn -0.046821 -0.050000 -0.072855
vn -0.065486 0.000000 -0.075575
vn -0.065450 -0.050000 -0.056713
vn -0.084125 0.000000 -0.054064
vn -0.078776 -0.050000 -0.035976
vn 0.000000 -0.100000 -0.000000
vn -0.049491 -0.086603 0.007116
vn -0.000000 -0.100000 -0.000000
vn -0.049491 -0.086603 -0.007116
vn 0.000000 -0.100000 0.000000
vn -0.045482 -0.086603 -0.020771
vn -0.000000 -0.100000 -0.000000
vn -0.037787 -0.086603 -0.032743
vn -0.027032 -0.086603 -0.042063
vn -0.045482 -0.086603 0.020771
vn -0.000000 -0.100000 0.000000
vn -0.037787 -0.086603 0.032743
vn -0.027032 -0.086603 0.042063
vn -0.000000 -0.100000 0.000000
vn -0.014087 -0.086603 0.047975
vn 0.000000 -0.100000 -0.000000
vn -0.000000 -0.086603 0.050000
vn -0.000000 -0.100000 -0.000000
vn 0.014087 -0.086603 0.047975
vn 0.000000 -0.100000 0.000000
vn 0.027032 -0.086603 0.042063
vn 0.000000 -0.100000 0.000000
vn 0.037787 -0.086603 0.032743
vn 0.045482 -0.086603 0.020771
vn -0.000000 -0.100000 -0.000000
vn 0.049491 -0.086603 0.007116
vn 0.000000 -0.100000 -0.000000
vn 0.049491 -0.086603 -0.007116
vn -0.000000 -0.100000 0.000000
vn 0.045482 -0.086603 -0.020771
vn 0.000000 -0.100000 -0.000000
vn 0.037787 -0.086603 -0.032743
vn 0.027032 -0.086603 -0.042063
vn 0.000000 -0.100000 -0.000000
vn 0.014087 -0.086603 -0.047975
vn -0.000000 -0.100000 0.000000
vn 0.000000 -0.086603 -0.050000
vn 0.000000 -0.100000 0.000000
vn -0.014087 -0.086603 -0.047975
vn -0.000000 -0.100000 -0.000000
vn -0.095949 0.000000 -0.028173
vn -0.100000 0.000000 -0.000000
vn -0.095949 0.000000 0.028173
vn -0.084125 0.000000 0.054064
vn -0.065486 0.000000 0.075575
vn -0.041542 0.000000 0.090963
vn -0.014231 0.000000 0.098982
vn 0.014231 0.000000 0.098982
vn 0.041542 0.000000 0.090963
vn 0.065486 0.000000 0.075575
vn 0.084125 0.000000 0.054064
vn 0.095949 0.000000 0.028173
vn 0.100000 0.000000 0.000000
vn 0.095949 0.000000 -0.028173
vn 0.084125 0.000000 -0.054064
vn 0.065486 0.000000 -0.075575
vn 0.041542 0.000000 -0.090963
vn 0.014231 0.000000 -0.098982
vn -0.014231 0.000000 -0.098982
vn -0.041542 0.000000 -0.090963
vn -0.065486 0.000000 -0.075575
vn -0.084125 0.000000 -0.054064
vn -0.000000 0.100000 -0.000000
vn -0.000000 0.100000 -0.000000
vn -0.000000 0.100000 -0.000000
vn -0.000000 0.100000 -0.000000
vn -0.000000 0.100000 -0.000000
vn -0.000000 0.100000 -0.000000
vn -0.000000 0.100000 -0.000000
vn -0.000000 0.100000 -0.000000
vn -0.000000 0.100000 -0.000000
vn -0.000000 0.100000 -0.000000
vn -0.000000 0.100000 -0.000000
vn -0.000000 0.100000 -0.000000
vn -0.000000 0.100000 -0.000000
vn -0.000000 0.100000 -0.000000
vn -0.000000 0.100000 -0.000000
vn -0.000000 0.100000 -0.000000
vn -0.000000 0.100000 -0.000000
vn -0.000000 0.100000 -0.000000
vn -0.000000 0.100000 -0.000000
vn -0.000000 0.100000 -0.000000
vn -0.000000 0.100000 -0.000000
vn -0.000000 0.100000 -0.000000
usemtl Paint_-_Enamel_Glossy_(Yellow)
f 2/1/1 47/2/2 1/3/3
f 1/3/3 47/2/2 50/4/4
f 1/3/3 50/4/4 22/5/5
f 22/5/5 50/4/4 83/6/6
f 22/5/5 83/6/6 21/7/7
f 21/7/7 83/6/6 81/8/8
f 21/7/7 81/8/8 20/9/9
f 20/9/9 81/8/8 80/10/10
f 20/9/9 80/10/10 19/11/11
f 19/11/11 80/10/10 78/12/12
f 19/11/11 78/12/12 18/13/13
f 18/13/13 78/12/12 41/14/14
f 18/13/13 41/14/14 17/15/15
f 17/16/15 41/17/14 76/18/16
f 17/16/15 76/18/16 16/19/17
f 16/19/17 76/18/16 75/20/18
f 16/19/17 75/20/18 15/21/19
f 15/21/19 75/20/18 73/22/20
f 15/21/19 73/22/20 14/23/21
f 14/23/21 73/22/20 71/24/22
f 14/23/21 71/24/22 13/25/23
f 13/25/23 71/24/22 69/26/24
f 13/25/23 69/26/24 12/27/25
f 12/27/25 69/26/24 67/28/26
f 12/27/25 67/28/26 11/29/27
f 11/29/27 67/28/26 65/30/28
f 11/29/27 65/30/28 10/31/29
f 10/31/29 65/30/28 63/32/30
f 10/31/29 63/32/30 9/33/31
f 9/33/31 63/32/30 62/34/32
f 9/33/31 62/34/32 8/35/33
f 8/35/33 62/34/32 60/36/34
f 8/35/33 60/36/34 7/37/35
f 7/37/35 60/36/34 58/38/36
f 7/37/35 58/38/36 6/39/37
f 6/39/37 58/38/36 56/40/38
f 6/39/37 56/40/38 5/41/39
f 5/41/39 56/40/38 55/42/40
f 5/41/39 55/42/40 4/43/41
f 4/43/41 55/42/40 53/44/42
f 4/43/41 53/44/42 3/45/43
f 3/45/43 53/44/42 51/46/44
f 3/45/43 51/46/44 2/1/1
f 2/1/1 51/46/44 47/2/2
f 24/47/45 49/48/46 23/49/47
f 23/49/47 49/48/46 48/50/48
f 23/49/47 48/50/48 40/51/49
f 40/51/49 48/50/48 52/52/50
f 40/51/49 52/52/50 39/53/51
f 39/53/51 52/52/50 54/54/52
f 39/53/51 54/54/52 44/55/53
f 44/55/53 54/54/52 53/44/42
f 44/55/53 53/44/42 55/42/40
f 49/48/46 24/47/45 84/56/54
f 84/56/54 24/47/45 25/57/55
f 84/56/54 25/57/55 82/58/56
f 82/58/56 25/57/55 43/59/57
f 82/58/56 43/59/57 80/10/10
f 80/10/10 43/59/57 78/12/12
f 25/57/55 26/60/58 43/59/57
f 43/59/57 26/60/58 79/61/59
f 43/59/57 79/61/59 78/12/12
f 78/12/12 79/61/59 41/14/14
f 26/60/58 27/62/60 79/61/59
f 79/61/59 27/62/60 42/63/61
f 79/61/59 42/63/61 41/14/14
f 41/17/14 42/64/61 76/18/16
f 27/65/60 28/66/62 42/64/61
f 42/64/61 28/66/62 77/67/63
f 42/64/61 77/67/63 76/18/16
f 76/18/16 77/67/63 75/20/18
f 28/66/62 29/68/64 77/67/63
f 77/67/63 29/68/64 46/69/65
f 77/67/63 46/69/65 75/20/18
f 75/20/18 46/69/65 73/22/20
f 29/68/64 30/70/66 46/69/65
f 46/69/65 30/70/66 74/71/67
f 46/69/65 74/71/67 73/22/20
f 73/22/20 74/71/67 71/24/22
f 74/71/67 30/70/66 72/72/68
f 72/72/68 30/70/66 31/73/69
f 72/72/68 31/73/69 70/74/70
f 70/74/70 31/73/69 32/75/71
f 70/74/70 32/75/71 68/76/72
f 68/76/72 32/75/71 33/77/73
f 68/76/72 33/77/73 66/78/74
f 66/78/74 33/77/73 34/79/75
f 66/78/74 34/79/75 64/80/76
f 64/80/76 34/79/75 45/81/77
f 64/80/76 45/81/77 62/34/32
f 62/34/32 45/81/77 60/36/34
f 34/79/75 35/82/78 45/81/77
f 45/81/77 35/82/78 61/83/79
f 45/81/77 61/83/79 60/36/34
f 60/36/34 61/83/79 58/38/36
f 35/82/78 36/84/80 61/83/79
f 61/83/79 36/84/80 59/85/81
f 61/83/79 59/85/81 58/38/36
f 58/38/36 59/85/81 56/40/38
f 36/84/80 37/86/82 59/85/81
f 59/85/81 37/86/82 57/87/83
f 59/85/81 57/87/83 56/40/38
f 56/40/38 57/87/83 55/42/40
f 37/86/82 38/88/84 57/87/83
f 57/87/83 38/88/84 44/55/53
f 57/87/83 44/55/53 55/42/40
f 38/88/84 39/53/51 44/55/53
f 47/2/2 48/50/48 50/4/4
f 50/4/4 48/50/48 49/48/46
f 50/4/4 49/48/46 83/6/6
f 83/6/6 49/48/46 84/56/54
f 83/6/6 84/56/54 81/8/8
f 81/8/8 84/56/54 82/58/56
f 81/8/8 82/58/56 80/10/10
f 48/50/48 47/2/2 52/52/50
f 52/52/50 47/2/2 51/46/44
f 52/52/50 51/46/44 54/54/52
f 54/54/52 51/46/44 53/44/42
f 66/78/74 64/80/76 63/32/30
f 63/32/30 64/80/76 62/34/32
f 68/76/72 66/78/74 65/30/28
f 65/30/28 66/78/74 63/32/30
f 70/74/70 68/76/72 67/28/26
f 67/28/26 68/76/72 65/30/28
f 72/72/68 70/74/70 69/26/24
f 69/26/24 70/74/70 67/28/26
f 74/71/67 72/72/68 71/24/22
f 71/24/22 72/72/68 69/26/24
f 86/89/85 2/90/1 85/91/86
f 85/91/86 2/90/1 1/92/3
f 85/93/86 1/94/3 106/95/87
f 106/95/87 1/94/3 22/96/5
f 106/95/87 22/96/5 105/97/88
f 105/97/88 22/96/5 21/98/7
f 105/97/88 21/98/7 104/99/89
f 104/99/89 21/98/7 20/100/9
f 104/99/89 20/100/9 103/101/90
f 103/101/90 20/100/9 19/102/11
f 103/101/90 19/102/11 102/103/91
f 102/103/91 19/102/11 18/104/13
f 102/103/91 18/104/13 101/105/92
f 101/105/92 18/104/13 17/106/15
f 101/105/92 17/106/15 100/107/93
f 100/107/93 17/106/15 16/108/17
f 100/107/93 16/108/17 99/109/94
f 99/109/94 16/108/17 15/110/19
f 99/109/94 15/110/19 98/111/95
f 98/111/95 15/110/19 14/112/21
f 98/111/95 14/112/21 97/113/96
f 97/113/96 14/112/21 13/114/23
f 97/113/96 13/114/23 96/115/97
f 96/115/97 13/114/23 12/116/25
f 96/115/97 12/116/25 95/117/98
f 95/117/98 12/116/25 11/118/27
f 95/117/98 11/118/27 94/119/99
f 94/119/99 11/118/27 10/120/29
f 94/119/99 10/120/29 93/121/100
f 93/121/100 10/120/29 9/122/31
f 93/121/100 9/122/31 92/123/101
f 92/123/101 9/122/31 8/124/33
f 92/123/101 8/124/33 91/125/102
f 91/125/102 8/124/33 7/126/35
f 91/125/102 7/126/35 90/127/103
f 90/127/103 7/126/35 6/128/37
f 90/127/103 6/128/37 89/129/104
f 89/129/104 6/128/37 5/130/39
f 89/129/104 5/130/39 88/131/105
f 88/131/105 5/130/39 4/132/41
f 88/131/105 4/132/41 87/133/106
f 87/133/106 4/132/41 3/134/43
f 87/133/106 3/134/43 86/89/85
f 86/89/85 3/134/43 2/90/1
f 40/135/49 33/136/73 23/137/47
f 23/137/47 33/136/73 32/138/71
f 23/137/47 32/138/71 24/139/45
f 24/139/45 32/138/71 31/140/69
f 24/139/45 31/140/69 25/141/55
f 25/141/55 31/140/69 30/142/66
f 25/141/55 30/142/66 26/143/58
f 26/143/58 30/142/66 29/144/64
f 26/143/58 29/144/64 27/145/60
f 27/145/60 29/144/64 28/146/62
f 33/136/73 40/135/49 34/147/75
f 34/147/75 40/135/49 39/148/51
f 34/147/75 39/148/51 35/149/78
f 35/149/78 39/148/51 38/150/84
f 35/149/78 38/150/84 36/151/80
f 36/151/80 38/150/84 37/152/82
f 106/153/107 97/154/108 85/155/109
f 85/155/109 97/154/108 96/156/110
f 85/155/109 96/156/110 86/157/111
f 86/157/111 96/156/110 95/158/112
f 86/157/111 95/158/112 87/159/113
f 87/159/113 95/158/112 94/160/114
f 87/159/113 94/160/114 88/161/115
f 88/161/115 94/160/114 93/162/116
f 88/161/115 93/162/116 89/163/117
f 89/163/117 93/162/116 92/164/118
f 89/163/117 92/164/118 90/165/119
f 90/165/119 92/164/118 91/166/120
f 97/154/108 106/153/107 98/167/121
f 98/167/121 106/153/107 105/168/122
f 98/167/121 105/168/122 99/169/123
f 99/169/123 105/168/122 104/170/124
f 99/169/123 104/170/124 100/171/125
f 100/171/125 104/170/124 103/172/126
f 100/171/125 103/172/126 101/173/127
f 101/173/127 103/172/126 102/174/128
# 106 vertices
# 174 texture params
# 128 normals
# 208 facets

# 1 groups
