# WaveFront *.obj file (generated by Autodesk ATF)

mtllib AyaNeo-01 v51_AyaNeo-01 v51_Back_AyaNeo-01 v51.mtl

g Back

v -28.000000 -11.200000 -23.700000
v -27.819078 -11.200000 -24.726060
v -27.298133 -11.200000 -25.628363
v -26.500000 -11.200000 -26.298076
v -25.520945 -11.200000 -26.654423
v -24.479055 -11.200000 -26.654423
v -23.500000 -11.200000 -26.298076
v -22.701867 -11.200000 -25.628363
v -22.180922 -11.200000 -24.726060
v -22.000000 -11.200000 -23.700000
v -22.180922 -11.200000 -22.673940
v -22.701867 -11.200000 -21.771637
v -23.500000 -11.200000 -21.101924
v -24.479055 -11.200000 -20.745577
v -25.520945 -11.200000 -20.745577
v -26.500000 -11.200000 -21.101924
v -27.298133 -11.200000 -21.771637
v -27.819078 -11.200000 -22.673940
v -27.700000 -11.500000 -23.700000
v -27.517675 -11.500000 -22.724648
v -26.995324 -11.500000 -21.881022
v -26.203494 -11.500000 -21.283059
v -25.249125 -11.500000 -21.011518
v -24.261110 -11.500000 -21.103071
v -23.372886 -11.500000 -21.545353
v -22.704414 -11.500000 -22.278633
v -22.345973 -11.500000 -23.203876
v -22.345973 -11.500000 -24.196124
v -22.704414 -11.500000 -25.121367
v -23.372886 -11.500000 -25.854647
v -24.261110 -11.500000 -26.296929
v -25.249125 -11.500000 -26.388482
v -26.203494 -11.500000 -26.116941
v -26.995324 -11.500000 -25.518978
v -27.517675 -11.500000 -24.675352
v -25.000000 -11.350000 -20.740192
v -25.000000 -11.459808 -20.850000
v -22.193298 -11.459808 -23.205103
v -27.914841 -11.350000 -24.213965
v -27.806702 -11.459808 -24.194897
v -27.806702 -11.459808 -23.205103
v -27.914841 -11.350000 -23.186035
v -27.563269 -11.350000 -25.179904
v -27.468172 -11.459808 -25.125000
v -26.902528 -11.350000 -25.967344
v -26.831945 -11.459808 -25.883227
v -26.012314 -11.350000 -26.481309
v -25.974757 -11.459808 -26.378124
v -25.000000 -11.350000 -26.659808
v -25.000000 -11.459808 -26.550000
v -23.987686 -11.350000 -26.481309
v -24.025243 -11.459808 -26.378124
v -23.097472 -11.350000 -25.967344
v -23.168055 -11.459808 -25.883227
v -22.436731 -11.350000 -25.179904
v -22.531828 -11.459808 -25.125000
v -22.085159 -11.350000 -24.213965
v -22.193298 -11.459808 -24.194897
v -22.085159 -11.350000 -23.186035
v -22.436731 -11.350000 -22.220096
v -22.531828 -11.459808 -22.275000
v -23.097472 -11.350000 -21.432656
v -23.168055 -11.459808 -21.516773
v -23.987686 -11.350000 -20.918691
v -24.025243 -11.459808 -21.021876
v -26.012314 -11.350000 -20.918691
v -25.974757 -11.459808 -21.021876
v -26.902528 -11.350000 -21.432656
v -26.831945 -11.459808 -21.516773
v -27.563269 -11.350000 -22.220096
v -27.468172 -11.459808 -22.275000
v -28.000000 -9.000000 -23.700000
v -27.819078 -9.000000 -24.726060
v -27.298133 -9.000000 -25.628363
v -26.500000 -9.000000 -26.298076
v -25.520945 -9.000000 -26.654423
v -24.479055 -9.000000 -26.654423
v -23.500000 -9.000000 -26.298076
v -22.701867 -9.000000 -25.628363
v -22.180922 -9.000000 -24.726060
v -22.000000 -9.000000 -23.700000
v -22.180922 -9.000000 -22.673940
v -22.701867 -9.000000 -21.771637
v -23.500000 -9.000000 -21.101924
v -24.479055 -9.000000 -20.745577
v -25.520945 -9.000000 -20.745577
v -26.500000 -9.000000 -21.101924
v -27.298133 -9.000000 -21.771637
v -27.819078 -9.000000 -22.673940
vt 0.000000 -0.355784 0.000000
vt -0.015708 -0.406610 0.000000
vt -0.000000 -0.457437 0.000000
vt -0.015708 -0.508263 0.000000
vt -0.000000 -0.559089 0.000000
vt -0.015708 -0.609916 0.000000
vt -0.000000 -0.660742 0.000000
vt -0.015708 -0.711568 0.000000
vt -0.000000 -0.762394 0.000000
vt -0.015708 -0.813221 0.000000
vt -0.000000 -0.864047 0.000000
vt -0.015708 -0.914873 0.000000
vt 0.000000 -0.965700 0.000000
vt -0.000000 0.864047 0.000000
vt -0.015708 0.914873 0.000000
vt -0.015708 0.813221 0.000000
vt -0.000000 0.762394 0.000000
vt -0.015708 0.711568 0.000000
vt -0.000000 0.660742 0.000000
vt -0.015708 0.609916 0.000000
vt -0.000000 0.559089 0.000000
vt -0.015708 0.508263 0.000000
vt -0.000000 0.457437 0.000000
vt -0.015708 0.406610 0.000000
vt -0.000000 0.355784 0.000000
vt -0.015708 0.304958 0.000000
vt -0.000000 0.254131 0.000000
vt -0.015708 0.203305 0.000000
vt -0.000000 0.152479 0.000000
vt -0.015708 0.101653 0.000000
vt -0.000000 0.050826 0.000000
vt -0.015708 0.000000 0.000000
vt 0.000000 -0.050826 0.000000
vt -0.015708 -0.101653 0.000000
vt 0.000000 -0.152479 0.000000
vt -0.015708 -0.203305 0.000000
vt 0.000000 -0.254131 0.000000
vt -0.015708 -0.304958 0.000000
vt -0.047124 -0.565069 0.000000
vt -0.031416 -0.508263 0.000000
vt -0.047124 -0.457437 0.000000
vt -0.031416 -0.406610 0.000000
vt -0.047124 -0.349804 0.000000
vt -0.031416 -0.304958 0.000000
vt -0.047124 -0.242172 0.000000
vt -0.031416 -0.203305 0.000000
vt -0.047124 -0.134540 0.000000
vt -0.031416 -0.101653 0.000000
vt -0.047124 -0.026908 0.000000
vt -0.031416 0.000000 0.000000
vt -0.047124 0.080724 0.000000
vt -0.031416 0.101653 0.000000
vt -0.047124 0.188356 0.000000
vt -0.031416 0.203305 0.000000
vt -0.047124 0.295988 0.000000
vt -0.031416 0.304958 0.000000
vt -0.047124 0.403621 0.000000
vt -0.031416 0.406610 0.000000
vt -0.031416 0.508263 0.000000
vt -0.031416 -0.609916 0.000000
vt -0.047124 -0.672701 0.000000
vt -0.031416 -0.711568 0.000000
vt -0.047124 -0.780333 0.000000
vt -0.031416 -0.813221 0.000000
vt -0.047124 -0.887965 0.000000
vt -0.031416 -0.914873 0.000000
vt -0.031416 0.914873 0.000000
vt -0.047124 0.941781 0.000000
vt -0.047124 0.834149 0.000000
vt -0.031416 0.813221 0.000000
vt -0.047124 0.726517 0.000000
vt -0.031416 0.711568 0.000000
vt -0.047124 0.618885 0.000000
vt -0.031416 0.609916 0.000000
vt -0.047124 0.511253 0.000000
vt 0.200000 -0.837758 0.000000
vt -0.020000 -0.837758 0.000000
vt 0.200000 -0.942478 0.000000
vt -0.020000 -0.942478 0.000000
vt 0.200000 0.942478 0.000000
vt -0.020000 0.942478 0.000000
vt 0.200000 0.837758 0.000000
vt -0.020000 0.837758 0.000000
vt 0.200000 0.733038 0.000000
vt -0.020000 0.733038 0.000000
vt 0.200000 0.628319 0.000000
vt -0.020000 0.628319 0.000000
vt 0.200000 0.523599 0.000000
vt -0.020000 0.523599 0.000000
vt 0.200000 0.418879 0.000000
vt -0.020000 0.418879 0.000000
vt 0.200000 0.314159 0.000000
vt -0.020000 0.314159 0.000000
vt 0.200000 0.209440 0.000000
vt -0.020000 0.209440 0.000000
vt 0.200000 0.104720 0.000000
vt -0.020000 0.104720 0.000000
vt 0.200000 0.000000 0.000000
vt -0.020000 0.000000 0.000000
vt 0.200000 -0.104720 0.000000
vt -0.020000 -0.104720 0.000000
vt 0.200000 -0.209440 0.000000
vt -0.020000 -0.209440 0.000000
vt 0.200000 -0.314159 0.000000
vt -0.020000 -0.314159 0.000000
vt 0.200000 -0.418879 0.000000
vt -0.020000 -0.418879 0.000000
vt 0.200000 -0.523599 0.000000
vt -0.020000 -0.523599 0.000000
vt 0.200000 -0.628319 0.000000
vt -0.020000 -0.628319 0.000000
vt 0.200000 -0.733038 0.000000
vt -0.020000 -0.733038 0.000000
vt -0.251768 -0.097535 0.000000
vt -0.199532 -0.181898 0.000000
vt -0.270000 0.000000 0.000000
vt -0.251768 0.097535 0.000000
vt -0.199532 0.181898 0.000000
vt -0.120349 -0.241694 0.000000
vt -0.120349 0.241694 0.000000
vt -0.024912 -0.268848 0.000000
vt -0.024912 0.268848 0.000000
vt 0.073889 -0.259693 0.000000
vt 0.073889 0.259693 0.000000
vt 0.162711 -0.215465 0.000000
vt 0.162711 0.215465 0.000000
vt 0.229559 -0.142137 0.000000
vt 0.229559 0.142137 0.000000
vt 0.265403 -0.049612 0.000000
vt 0.265403 0.049612 0.000000
vt 0.281908 0.102606 0.000000
vt -0.281908 0.102606 0.000000
vt 0.300000 0.000000 0.000000
vt -0.300000 0.000000 0.000000
vt 0.281908 -0.102606 0.000000
vt -0.281908 -0.102606 0.000000
vt 0.229813 -0.192836 0.000000
vt -0.229813 -0.192836 0.000000
vt 0.150000 -0.259808 0.000000
vt -0.150000 -0.259808 0.000000
vt 0.052094 -0.295442 0.000000
vt -0.052094 -0.295442 0.000000
vt -0.229813 0.192836 0.000000
vt 0.229813 0.192836 0.000000
vt -0.150000 0.259808 0.000000
vt 0.150000 0.259808 0.000000
vt -0.052094 0.295442 0.000000
vt 0.052094 0.295442 0.000000
vn -0.093969 0.000000 -0.034202
vn -0.085287 -0.050000 -0.015038
vn -0.100000 0.000000 -0.000000
vn -0.085287 -0.050000 0.015038
vn -0.093969 0.000000 0.034202
vn -0.075000 -0.050000 0.043301
vn -0.076604 0.000000 0.064279
vn -0.055667 -0.050000 0.066341
vn -0.050000 0.000000 0.086603
vn -0.029620 -0.050000 0.081380
vn -0.017365 0.000000 0.098481
vn -0.000000 -0.050000 0.086603
vn 0.017365 0.000000 0.098481
vn 0.029620 -0.050000 0.081380
vn 0.050000 0.000000 0.086603
vn 0.055667 -0.050000 0.066341
vn 0.076604 0.000000 0.064279
vn 0.075000 -0.050000 0.043301
vn 0.093969 0.000000 0.034202
vn 0.085287 -0.050000 0.015038
vn 0.100000 0.000000 -0.000000
vn 0.085287 -0.050000 -0.015038
vn 0.093969 0.000000 -0.034202
vn 0.075000 -0.050000 -0.043301
vn 0.076604 0.000000 -0.064279
vn 0.055667 -0.050000 -0.066341
vn 0.050000 0.000000 -0.086603
vn 0.029620 -0.050000 -0.081380
vn 0.017365 0.000000 -0.098481
vn 0.000000 -0.050000 -0.086603
vn -0.017365 0.000000 -0.098481
vn -0.029620 -0.050000 -0.081380
vn -0.050000 0.000000 -0.086603
vn -0.055667 -0.050000 -0.066341
vn -0.076604 0.000000 -0.064279
vn -0.075000 -0.050000 -0.043301
vn 0.000000 -0.100000 -0.000000
vn -0.049240 -0.086603 0.008682
vn -0.000000 -0.100000 -0.000000
vn -0.049240 -0.086603 -0.008682
vn 0.000000 -0.100000 0.000000
vn -0.043301 -0.086603 -0.025000
vn -0.000000 -0.100000 -0.000000
vn -0.032139 -0.086603 -0.038302
vn -0.000000 -0.100000 -0.000000
vn -0.017101 -0.086603 -0.046985
vn -0.000000 -0.100000 -0.000000
vn 0.000000 -0.086603 -0.050000
vn -0.000000 -0.100000 0.000000
vn 0.017101 -0.086603 -0.046985
vn -0.000000 -0.100000 0.000000
vn 0.032139 -0.086603 -0.038302
vn 0.000000 -0.100000 -0.000000
vn 0.043301 -0.086603 -0.025000
vn -0.000000 -0.100000 0.000000
vn 0.049240 -0.086603 -0.008682
vn 0.049240 -0.086603 0.008682
vn -0.043301 -0.086603 0.025000
vn -0.000000 -0.100000 0.000000
vn -0.032139 -0.086603 0.038302
vn -0.000000 -0.100000 0.000000
vn -0.017101 -0.086603 0.046985
vn -0.000000 -0.100000 0.000000
vn -0.000000 -0.086603 0.050000
vn -0.000000 -0.100000 -0.000000
vn 0.017101 -0.086603 0.046985
vn -0.000000 -0.100000 -0.000000
vn 0.032139 -0.086603 0.038302
vn 0.000000 -0.100000 0.000000
vn 0.043301 -0.086603 0.025000
vn -0.000000 -0.100000 -0.000000
vn -0.093969 0.000000 -0.034202
vn -0.100000 0.000000 -0.000000
vn -0.093969 0.000000 0.034202
vn -0.076604 0.000000 0.064279
vn -0.050000 0.000000 0.086603
vn -0.017365 0.000000 0.098481
vn 0.017365 0.000000 0.098481
vn 0.050000 0.000000 0.086603
vn 0.076604 0.000000 0.064279
vn 0.093969 0.000000 0.034202
vn 0.100000 0.000000 0.000000
vn 0.093969 0.000000 -0.034202
vn 0.076604 0.000000 -0.064279
vn 0.050000 0.000000 -0.086603
vn 0.017365 0.000000 -0.098481
vn -0.017365 0.000000 -0.098481
vn -0.050000 0.000000 -0.086603
vn -0.076604 0.000000 -0.064279
vn -0.000000 0.100000 -0.000000
vn -0.000000 0.100000 -0.000000
vn -0.000000 0.100000 -0.000000
vn -0.000000 0.100000 -0.000000
vn -0.000000 0.100000 -0.000000
vn -0.000000 0.100000 -0.000000
vn -0.000000 0.100000 -0.000000
vn -0.000000 0.100000 -0.000000
vn -0.000000 0.100000 -0.000000
vn -0.000000 0.100000 -0.000000
vn -0.000000 0.100000 -0.000000
vn -0.000000 0.100000 -0.000000
vn -0.000000 0.100000 -0.000000
vn -0.000000 0.100000 -0.000000
vn -0.000000 0.100000 -0.000000
vn -0.000000 0.100000 -0.000000
vn -0.000000 0.100000 -0.000000
vn -0.000000 0.100000 -0.000000
usemtl Paint_-_Enamel_Glossy_(Black)
f 2/1/1 39/2/2 1/3/3
f 1/3/3 39/2/2 42/4/4
f 1/3/3 42/4/4 18/5/5
f 18/5/5 42/4/4 70/6/6
f 18/5/5 70/6/6 17/7/7
f 17/7/7 70/6/6 68/8/8
f 17/7/7 68/8/8 16/9/9
f 16/9/9 68/8/8 66/10/10
f 16/9/9 66/10/10 15/11/11
f 15/11/11 66/10/10 36/12/12
f 15/11/11 36/12/12 14/13/13
f 14/14/13 36/15/12 64/16/14
f 14/14/13 64/16/14 13/17/15
f 13/17/15 64/16/14 62/18/16
f 13/17/15 62/18/16 12/19/17
f 12/19/17 62/18/16 60/20/18
f 12/19/17 60/20/18 11/21/19
f 11/21/19 60/20/18 59/22/20
f 11/21/19 59/22/20 10/23/21
f 10/23/21 59/22/20 57/24/22
f 10/23/21 57/24/22 9/25/23
f 9/25/23 57/24/22 55/26/24
f 9/25/23 55/26/24 8/27/25
f 8/27/25 55/26/24 53/28/26
f 8/27/25 53/28/26 7/29/27
f 7/29/27 53/28/26 51/30/28
f 7/29/27 51/30/28 6/31/29
f 6/31/29 51/30/28 49/32/30
f 6/31/29 49/32/30 5/33/31
f 5/33/31 49/32/30 47/34/32
f 5/33/31 47/34/32 4/35/33
f 4/35/33 47/34/32 45/36/34
f 4/35/33 45/36/34 3/37/35
f 3/37/35 45/36/34 43/38/36
f 3/37/35 43/38/36 2/1/1
f 2/1/1 43/38/36 39/2/2
f 20/39/37 41/40/38 19/41/39
f 19/41/39 41/40/38 40/42/40
f 19/41/39 40/42/40 35/43/41
f 35/43/41 40/42/40 44/44/42
f 35/43/41 44/44/42 34/45/43
f 34/45/43 44/44/42 46/46/44
f 34/45/43 46/46/44 33/47/45
f 33/47/45 46/46/44 48/48/46
f 33/47/45 48/48/46 32/49/47
f 32/49/47 48/48/46 50/50/48
f 32/49/47 50/50/48 31/51/49
f 31/51/49 50/50/48 52/52/50
f 31/51/49 52/52/50 30/53/51
f 30/53/51 52/52/50 54/54/52
f 30/53/51 54/54/52 29/55/53
f 29/55/53 54/54/52 56/56/54
f 29/55/53 56/56/54 28/57/55
f 28/57/55 56/56/54 58/58/56
f 28/57/55 58/58/56 38/59/57
f 38/59/57 58/58/56 57/24/22
f 38/59/57 57/24/22 59/22/20
f 41/40/38 20/39/37 71/60/58
f 71/60/58 20/39/37 21/61/59
f 71/60/58 21/61/59 69/62/60
f 69/62/60 21/61/59 22/63/61
f 69/62/60 22/63/61 67/64/62
f 67/64/62 22/63/61 23/65/63
f 67/64/62 23/65/63 37/66/64
f 37/67/64 23/68/63 24/69/65
f 37/67/64 24/69/65 65/70/66
f 65/70/66 24/69/65 25/71/67
f 65/70/66 25/71/67 63/72/68
f 63/72/68 25/71/67 26/73/69
f 63/72/68 26/73/69 61/74/70
f 61/74/70 26/73/69 27/75/71
f 61/74/70 27/75/71 38/59/57
f 38/59/57 27/75/71 28/57/55
f 36/15/12 37/67/64 64/16/14
f 64/16/14 37/67/64 65/70/66
f 64/16/14 65/70/66 62/18/16
f 62/18/16 65/70/66 63/72/68
f 62/18/16 63/72/68 60/20/18
f 60/20/18 63/72/68 61/74/70
f 60/20/18 61/74/70 59/22/20
f 59/22/20 61/74/70 38/59/57
f 37/66/64 36/12/12 67/64/62
f 67/64/62 36/12/12 66/10/10
f 67/64/62 66/10/10 69/62/60
f 69/62/60 66/10/10 68/8/8
f 69/62/60 68/8/8 71/60/58
f 71/60/58 68/8/8 70/6/6
f 71/60/58 70/6/6 41/40/38
f 41/40/38 70/6/6 42/4/4
f 41/40/38 42/4/4 40/42/40
f 40/42/40 42/4/4 39/2/2
f 40/42/40 39/2/2 44/44/42
f 44/44/42 39/2/2 43/38/36
f 44/44/42 43/38/36 46/46/44
f 46/46/44 43/38/36 45/36/34
f 46/46/44 45/36/34 48/48/46
f 48/48/46 45/36/34 47/34/32
f 48/48/46 47/34/32 50/50/48
f 50/50/48 47/34/32 49/32/30
f 50/50/48 49/32/30 52/52/50
f 52/52/50 49/32/30 51/30/28
f 52/52/50 51/30/28 54/54/52
f 54/54/52 51/30/28 53/28/26
f 54/54/52 53/28/26 56/56/54
f 56/56/54 53/28/26 55/26/24
f 56/56/54 55/26/24 58/58/56
f 58/58/56 55/26/24 57/24/22
f 73/76/72 2/77/1 72/78/73
f 72/78/73 2/77/1 1/79/3
f 72/80/73 1/81/3 89/82/74
f 89/82/74 1/81/3 18/83/5
f 89/82/74 18/83/5 88/84/75
f 88/84/75 18/83/5 17/85/7
f 88/84/75 17/85/7 87/86/76
f 87/86/76 17/85/7 16/87/9
f 87/86/76 16/87/9 86/88/77
f 86/88/77 16/87/9 15/89/11
f 86/88/77 15/89/11 85/90/78
f 85/90/78 15/89/11 14/91/13
f 85/90/78 14/91/13 84/92/79
f 84/92/79 14/91/13 13/93/15
f 84/92/79 13/93/15 83/94/80
f 83/94/80 13/93/15 12/95/17
f 83/94/80 12/95/17 82/96/81
f 82/96/81 12/95/17 11/97/19
f 82/96/81 11/97/19 81/98/82
f 81/98/82 11/97/19 10/99/21
f 81/98/82 10/99/21 80/100/83
f 80/100/83 10/99/21 9/101/23
f 80/100/83 9/101/23 79/102/84
f 79/102/84 9/101/23 8/103/25
f 79/102/84 8/103/25 78/104/85
f 78/104/85 8/103/25 7/105/27
f 78/104/85 7/105/27 77/106/86
f 77/106/86 7/105/27 6/107/29
f 77/106/86 6/107/29 76/108/87
f 76/108/87 6/107/29 5/109/31
f 76/108/87 5/109/31 75/110/88
f 75/110/88 5/109/31 4/111/33
f 75/110/88 4/111/33 74/112/89
f 74/112/89 4/111/33 3/113/35
f 74/112/89 3/113/35 73/76/72
f 73/76/72 3/113/35 2/77/1
f 35/114/41 34/115/43 19/116/39
f 19/116/39 34/115/43 20/117/37
f 20/117/37 34/115/43 21/118/59
f 21/118/59 34/115/43 33/119/45
f 21/118/59 33/119/45 22/120/61
f 22/120/61 33/119/45 32/121/47
f 22/120/61 32/121/47 23/122/63
f 23/122/63 32/121/47 31/123/49
f 23/122/63 31/123/49 24/124/65
f 24/124/65 31/123/49 30/125/51
f 24/124/65 30/125/51 25/126/67
f 25/126/67 30/125/51 29/127/53
f 25/126/67 29/127/53 26/128/69
f 26/128/69 29/127/53 28/129/55
f 26/128/69 28/129/55 27/130/71
f 89/131/90 82/132/91 72/133/92
f 72/133/92 82/132/91 81/134/93
f 72/133/92 81/134/93 73/135/94
f 73/135/94 81/134/93 80/136/95
f 73/135/94 80/136/95 74/137/96
f 74/137/96 80/136/95 79/138/97
f 74/137/96 79/138/97 75/139/98
f 75/139/98 79/138/97 78/140/99
f 75/139/98 78/140/99 76/141/100
f 76/141/100 78/140/99 77/142/101
f 82/132/91 89/131/90 83/143/102
f 83/143/102 89/131/90 88/144/103
f 83/143/102 88/144/103 84/145/104
f 84/145/104 88/144/103 87/146/105
f 84/145/104 87/146/105 85/147/106
f 85/147/106 87/146/105 86/148/107
# 89 vertices
# 148 texture params
# 107 normals
# 174 facets

# 1 groups
