# WaveFront *.obj file (generated by Autodesk ATF)

mtllib Name_AyaNeo-01 v44_DPad-Up_AyaNeo-01 v44.mtl

g DPad-Up

v -105.000000 -9.000000 -5.500000
v -105.000000 -11.500000 -5.500000
v -109.396447 -11.500000 -1.103553
v -109.396447 -9.000000 -1.103553
v -109.316987 -11.500000 -1.000000
v -109.267037 -11.500000 -0.879410
v -109.250000 -11.500000 -0.750000
v -109.250000 -9.000000 -0.750000
v -109.267037 -9.000000 -0.879410
v -109.316987 -9.000000 -1.000000
v -100.603553 -11.500000 -1.103553
v -100.683013 -11.500000 -1.000000
v -100.732963 -11.500000 -0.879410
v -100.750000 -11.500000 -0.750000
v -100.750000 -11.500000 -0.542893
v -104.646447 -11.500000 -4.439340
v -104.870590 -11.500000 -4.568749
v -105.129410 -11.500000 -4.568749
v -105.353553 -11.500000 -4.439340
v -109.250000 -11.500000 -0.542893
v -109.250000 -11.800000 -0.542893
v -105.353553 -11.800000 -4.439340
v -105.334607 -11.900000 -4.420393
v -105.282843 -11.973205 -4.368629
v -105.212132 -12.000000 -4.297918
v -109.050000 -12.000000 -0.460051
v -109.150000 -11.973205 -0.501472
v -109.223205 -11.900000 -0.531794
v -106.633422 -11.900000 -3.121577
v -107.932238 -11.900000 -1.822762
v -106.581658 -11.973205 -3.069814
v -107.880474 -11.973205 -1.770998
v -100.750000 -11.800000 -0.542893
v -100.750000 -11.800000 3.593267
v -100.776795 -11.900000 3.593267
v -100.850000 -11.973205 3.593267
v -100.950000 -12.000000 3.593267
v -100.950000 -12.000000 -0.460051
v -100.850000 -11.973205 -0.501472
v -100.776795 -11.900000 -0.531794
v -100.776795 -11.900000 1.525187
v -100.850000 -11.973205 1.525187
v -101.815789 -11.800000 5.029046
v -101.823546 -11.900000 5.003398
v -101.844737 -11.973205 4.933327
v -101.873684 -12.000000 4.837609
v -101.393403 -12.000000 4.571143
v -101.066029 -12.000000 4.130120
v -100.883879 -11.800000 4.212713
v -101.261619 -11.800000 4.721585
v -101.327511 -11.973205 4.646364
v -101.279274 -11.900000 4.701430
v -100.974954 -11.973205 4.171417
v -100.908283 -11.900000 4.201648
v -108.184211 -11.800000 5.029046
v -108.176454 -11.900000 5.003398
v -108.155263 -11.973205 4.933327
v -108.126316 -12.000000 4.837609
v -106.055549 -12.000000 5.248294
v -103.944451 -12.000000 5.248294
v -103.924904 -11.800000 5.447336
v -106.075096 -11.800000 5.447336
v -106.065323 -11.973205 5.347815
v -106.072478 -11.900000 5.420669
v -103.934677 -11.973205 5.347815
v -103.927522 -11.900000 5.420669
v -109.250000 -11.800000 3.593267
v -109.223205 -11.900000 3.593267
v -109.150000 -11.973205 3.593267
v -109.050000 -12.000000 3.593267
v -108.933971 -12.000000 4.130120
v -108.606597 -12.000000 4.571143
v -108.738381 -11.800000 4.721585
v -109.116121 -11.800000 4.212713
v -109.025046 -11.973205 4.171417
v -109.091717 -11.900000 4.201648
v -108.672489 -11.973205 4.646364
v -108.720726 -11.900000 4.701430
v -109.150000 -11.973205 1.525187
v -109.223205 -11.900000 1.525187
v -104.646447 -11.800000 -4.439340
v -104.665393 -11.900000 -4.420393
v -104.717157 -11.973205 -4.368629
v -104.787868 -12.000000 -4.297918
v -104.922354 -12.000000 -4.375564
v -105.077646 -12.000000 -4.375564
v -105.129410 -11.800000 -4.568749
v -104.870590 -11.800000 -4.568749
v -104.896472 -11.973205 -4.472157
v -104.877526 -11.900000 -4.542867
v -105.103528 -11.973205 -4.472157
v -105.122474 -11.900000 -4.542867
v -103.418342 -11.973205 -3.069814
v -102.119526 -11.973205 -1.770998
v -103.366578 -11.900000 -3.121577
v -102.067762 -11.900000 -1.822762
v -108.184211 -9.000000 5.029046
v -108.738381 -9.000000 4.721585
v -109.116121 -9.000000 4.212713
v -109.250000 -9.000000 3.593267
v -101.815789 -9.000000 5.029046
v -103.924904 -9.000000 5.447336
v -106.075096 -9.000000 5.447336
v -100.750000 -9.000000 3.593267
v -100.883879 -9.000000 4.212713
v -101.261619 -9.000000 4.721585
v -100.750000 -9.000000 -0.750000
v -100.603553 -9.000000 -1.103553
v -100.732963 -9.000000 -0.879410
v -100.683013 -9.000000 -1.000000
vt 1.000000 -0.050000 0.000000
vt 0.378249 -0.050000 0.000000
vt 1.000000 -0.300000 0.000000
vt 0.378249 -0.300000 0.000000
vt 0.000000 0.039270 0.000000
vt 0.250000 0.039270 0.000000
vt 0.000000 0.052360 0.000000
vt 0.250000 0.052360 0.000000
vt 0.250000 0.065450 0.000000
vt 0.250000 0.078540 0.000000
vt -0.000000 0.078540 0.000000
vt 0.000000 0.065450 0.000000
vt 0.439645 0.439645 0.000000
vt 0.035355 0.106066 0.000000
vt 0.000000 -0.000000 0.000000
vt 0.012941 0.093125 0.000000
vt -0.012941 0.093125 0.000000
vt 0.431699 0.450000 0.000000
vt 0.426704 0.462059 0.000000
vt 0.425000 0.475000 0.000000
vt 0.425000 0.495711 0.000000
vt -0.035355 0.106066 0.000000
vt -0.439645 0.439645 0.000000
vt -0.431699 0.450000 0.000000
vt -0.426704 0.462059 0.000000
vt -0.425000 0.475000 0.000000
vt -0.425000 0.495711 0.000000
vt 0.324411 0.005236 0.000000
vt 0.325520 0.015708 0.000000
vt 0.141840 0.005236 0.000000
vt -0.225520 0.015708 0.000000
vt -0.041840 0.005236 0.000000
vt -0.225520 0.005236 0.000000
vt -0.041840 -0.005236 0.000000
vt -0.225520 -0.005236 0.000000
vt -0.225520 -0.015708 0.000000
vt 0.317236 -0.015708 0.000000
vt 0.141840 -0.005236 0.000000
vt 0.321378 -0.005236 0.000000
vt -0.259321 0.005236 0.000000
vt -0.258211 0.015708 0.000000
vt -0.465019 0.005236 0.000000
vt -0.671827 0.015708 0.000000
vt -0.671827 0.005236 0.000000
vt -0.465019 -0.005236 0.000000
vt -0.671827 -0.005236 0.000000
vt -0.671827 -0.015708 0.000000
vt -0.266495 -0.015708 0.000000
vt -0.262353 -0.005236 0.000000
vt -0.000000 0.410505 0.000000
vt -0.010472 0.410505 0.000000
vt -0.000000 0.349142 0.000000
vt -0.010472 0.349142 0.000000
vt -0.000000 0.287780 0.000000
vt -0.010472 0.287780 0.000000
vt -0.000000 0.226418 0.000000
vt -0.010472 0.226418 0.000000
vt -0.020944 0.287780 0.000000
vt -0.020944 0.226418 0.000000
vt -0.031416 0.287780 0.000000
vt -0.031416 0.226418 0.000000
vt -0.020944 0.410505 0.000000
vt -0.020944 0.349142 0.000000
vt -0.031416 0.410505 0.000000
vt -0.031416 0.349142 0.000000
vt -0.000000 -3.116025 0.000000
vt -0.010472 -3.116025 0.000000
vt -0.000000 -3.330241 0.000000
vt -0.010472 -3.330241 0.000000
vt -0.000000 -3.544457 0.000000
vt -0.010472 -3.544457 0.000000
vt -0.000000 -3.758673 0.000000
vt -0.010472 -3.758673 0.000000
vt -0.020944 -3.544457 0.000000
vt -0.020944 -3.758673 0.000000
vt -0.031416 -3.544457 0.000000
vt -0.031416 -3.758673 0.000000
vt -0.020944 -3.116025 0.000000
vt -0.020944 -3.330241 0.000000
vt -0.031416 -3.116025 0.000000
vt -0.031416 -3.330241 0.000000
vt -0.000000 -0.226418 0.000000
vt -0.010472 -0.226418 0.000000
vt -0.000000 -0.287780 0.000000
vt -0.010472 -0.287780 0.000000
vt -0.000000 -0.349142 0.000000
vt -0.010472 -0.349142 0.000000
vt -0.000000 -0.410505 0.000000
vt -0.010472 -0.410505 0.000000
vt -0.020944 -0.349142 0.000000
vt -0.020944 -0.410505 0.000000
vt -0.031416 -0.349142 0.000000
vt -0.031416 -0.410505 0.000000
vt -0.020944 -0.226418 0.000000
vt -0.020944 -0.287780 0.000000
vt -0.031416 -0.226418 0.000000
vt -0.031416 -0.287780 0.000000
vt 0.045189 -0.005236 0.000000
vt 0.049332 -0.015708 0.000000
vt 0.247855 -0.005236 0.000000
vt 0.454663 -0.015708 0.000000
vt 0.454663 -0.005236 0.000000
vt 0.247855 0.005236 0.000000
vt 0.454663 0.005236 0.000000
vt 0.454663 0.015708 0.000000
vt 0.041047 0.015708 0.000000
vt 0.042157 0.005236 0.000000
vt -0.000000 0.104007 0.000000
vt 0.010472 0.104007 0.000000
vt -0.000000 0.127120 0.000000
vt 0.010472 0.127120 0.000000
vt -0.000000 0.150233 0.000000
vt 0.010472 0.150233 0.000000
vt -0.000000 0.173346 0.000000
vt 0.010472 0.173346 0.000000
vt 0.020944 0.150233 0.000000
vt 0.020944 0.173346 0.000000
vt 0.031416 0.150233 0.000000
vt 0.031416 0.173346 0.000000
vt 0.020944 0.104007 0.000000
vt 0.020944 0.127120 0.000000
vt 0.031416 0.104007 0.000000
vt 0.031416 0.127120 0.000000
vt -0.075000 -0.015708 0.000000
vt -0.258680 -0.005236 0.000000
vt -0.617756 -0.015708 0.000000
vt -0.442361 -0.005236 0.000000
vt -0.621899 -0.005236 0.000000
vt -0.442361 0.005236 0.000000
vt -0.624931 0.005236 0.000000
vt -0.626041 0.015708 0.000000
vt -0.258680 0.005236 0.000000
vt -0.075000 0.015708 0.000000
vt -0.075000 0.005236 0.000000
vt -0.075000 -0.005236 0.000000
vt -0.000000 0.191568 0.000000
vt -0.280000 0.191568 0.000000
vt -0.000000 0.127712 0.000000
vt -0.280000 0.127712 0.000000
vt -0.000000 0.063856 0.000000
vt -0.280000 0.063856 0.000000
vt -0.000000 0.000000 0.000000
vt -0.280000 0.000000 0.000000
vt -0.000000 0.646089 0.000000
vt -0.280000 0.646089 0.000000
vt -0.000000 0.430726 0.000000
vt -0.280000 0.430726 0.000000
vt -0.000000 0.215363 0.000000
vt -0.280000 0.215363 0.000000
vt -0.000000 0.000000 0.000000
vt -0.280000 0.000000 0.000000
vt -0.000000 0.191568 0.000000
vt -0.280000 0.191568 0.000000
vt -0.000000 0.127712 0.000000
vt -0.280000 0.127712 0.000000
vt -0.000000 0.063856 0.000000
vt -0.280000 0.063856 0.000000
vt -0.000000 0.000000 0.000000
vt -0.280000 0.000000 0.000000
vt 0.020711 0.280000 0.000000
vt 0.020711 0.250000 0.000000
vt 0.434327 0.280000 0.000000
vt 0.434327 0.000000 0.000000
vt 0.000000 0.000000 0.000000
vt -0.000000 0.250000 0.000000
vt 0.021213 0.120208 0.000000
vt 0.405000 0.503995 0.000000
vt 0.105555 1.074829 0.000000
vt 0.405000 0.909327 0.000000
vt 0.312632 1.033761 0.000000
vt 0.360660 1.007114 0.000000
vt 0.393397 0.963012 0.000000
vt -0.105555 1.074829 0.000000
vt -0.021213 0.120208 0.000000
vt 0.007765 0.112444 0.000000
vt -0.007765 0.112444 0.000000
vt -0.312632 1.033761 0.000000
vt -0.405000 0.909327 0.000000
vt -0.405000 0.503995 0.000000
vt -0.360660 1.007114 0.000000
vt -0.393397 0.963012 0.000000
vt -0.050000 -0.039270 0.000000
vt -0.020000 -0.039270 0.000000
vt -0.050000 -0.013090 0.000000
vt -0.020000 -0.013090 0.000000
vt -0.050000 0.013090 0.000000
vt -0.020000 0.013090 0.000000
vt -0.050000 0.039270 0.000000
vt -0.020000 0.039270 0.000000
vt -0.601041 0.020000 0.000000
vt -0.050000 0.020000 0.000000
vt -0.601041 0.050000 0.000000
vt -0.050000 0.050000 0.000000
vt -0.551041 0.020000 0.000000
vt 0.000000 0.020000 0.000000
vt -0.551041 0.050000 0.000000
vt 0.000000 0.050000 0.000000
vt 0.413616 0.280000 0.000000
vt 0.000000 0.280000 0.000000
vt 0.413616 0.250000 0.000000
vt 0.000000 0.000000 0.000000
vt 0.434327 0.000000 0.000000
vt 0.434327 0.250000 0.000000
vt -0.439645 0.439645 0.000000
vt 0.000000 -0.000000 0.000000
vt -0.431699 0.450000 0.000000
vt -0.426704 0.462059 0.000000
vt -0.425000 0.475000 0.000000
vt 0.425000 0.475000 0.000000
vt -0.107510 1.094734 0.000000
vt 0.107510 1.094734 0.000000
vt 0.425000 0.909327 0.000000
vt 0.318421 1.052905 0.000000
vt 0.373838 1.022158 0.000000
vt 0.411612 0.971271 0.000000
vt 0.439645 0.439645 0.000000
vt 0.431699 0.450000 0.000000
vt 0.426704 0.462059 0.000000
vt -0.425000 0.909327 0.000000
vt -0.318421 1.052905 0.000000
vt -0.373838 1.022158 0.000000
vt -0.411612 0.971271 0.000000
vt 0.250000 0.039270 0.000000
vt 0.000000 0.039270 0.000000
vt 0.250000 0.026180 0.000000
vt -0.000000 0.026180 0.000000
vt -0.000000 0.013090 0.000000
vt 0.000000 0.000000 0.000000
vt 0.250000 0.000000 0.000000
vt 0.250000 0.013090 0.000000
vt 1.000000 -0.300000 0.000000
vt 1.621751 -0.300000 0.000000
vt 1.000000 -0.050000 0.000000
vt 1.621751 -0.050000 0.000000
vn -0.070711 0.000000 -0.070711
vn -0.070711 0.000000 -0.070711
vn -0.070711 0.000000 -0.070711
vn -0.070711 0.000000 -0.070711
vn -0.070711 0.000000 0.070711
vn -0.070711 0.000000 0.070711
vn -0.086603 0.000000 0.050000
vn -0.086603 0.000000 0.050000
vn -0.096593 0.000000 0.025882
vn -0.100000 0.000000 0.000000
vn -0.100000 0.000000 0.000000
vn -0.096593 0.000000 0.025882
vn 0.000000 -0.100000 0.000000
vn 0.000000 -0.100000 0.000000
vn 0.000000 -0.100000 0.000000
vn 0.000000 -0.100000 0.000000
vn 0.000000 -0.100000 0.000000
vn 0.000000 -0.100000 0.000000
vn 0.000000 -0.100000 0.000000
vn 0.000000 -0.100000 0.000000
vn 0.000000 -0.100000 0.000000
vn 0.000000 -0.100000 0.000000
vn 0.000000 -0.100000 0.000000
vn 0.000000 -0.100000 0.000000
vn 0.000000 -0.100000 0.000000
vn 0.000000 -0.100000 0.000000
vn 0.000000 -0.100000 0.000000
vn -0.061237 -0.050000 -0.061237
vn -0.070711 0.000000 -0.070711
vn -0.061237 -0.050000 -0.061237
vn -0.070711 -0.000000 -0.070711
vn -0.061237 -0.050000 -0.061237
vn -0.061237 -0.050000 -0.061237
vn -0.035355 -0.086603 -0.035355
vn -0.035355 -0.086603 -0.035355
vn -0.000000 -0.100000 -0.000000
vn 0.000000 -0.100000 0.000000
vn -0.035355 -0.086603 -0.035355
vn -0.035355 -0.086603 -0.035355
vn 0.086603 -0.050000 0.000000
vn 0.100000 0.000000 0.000000
vn 0.086603 -0.050000 0.000000
vn 0.100000 0.000000 0.000000
vn 0.086603 -0.050000 0.000000
vn 0.050000 -0.086603 0.000000
vn 0.050000 -0.086603 0.000000
vn 0.000000 -0.100000 0.000000
vn 0.000000 -0.100000 0.000000
vn 0.050000 -0.086603 0.000000
vn 0.028947 0.000000 0.095719
vn 0.025069 -0.050000 0.082895
vn 0.065892 0.000000 0.075221
vn 0.057064 -0.050000 0.065143
vn 0.091075 0.000000 0.041296
vn 0.078873 -0.050000 0.035764
vn 0.045537 -0.086603 0.020648
vn -0.000000 -0.100000 -0.000000
vn 0.014474 -0.086603 0.047859
vn 0.032946 -0.086603 0.037611
vn 0.000000 -0.100000 0.000000
vn 0.000000 -0.100000 0.000000
vn -0.028947 0.000000 0.095719
vn -0.025069 -0.050000 0.082895
vn -0.009774 0.000000 0.099521
vn -0.008464 -0.050000 0.086188
vn 0.009774 0.000000 0.099521
vn 0.008464 -0.050000 0.086188
vn 0.004887 -0.086603 0.049761
vn 0.000000 -0.100000 0.000000
vn -0.014474 -0.086603 0.047859
vn -0.004887 -0.086603 0.049761
vn -0.000000 -0.100000 0.000000
vn -0.000000 -0.100000 0.000000
vn -0.100000 0.000000 0.000000
vn -0.086603 -0.050000 0.000000
vn -0.091075 0.000000 0.041296
vn -0.078873 -0.050000 0.035764
vn -0.065892 0.000000 0.075221
vn -0.057064 -0.050000 0.065143
vn -0.032946 -0.086603 0.037611
vn -0.000000 -0.100000 0.000000
vn -0.050000 -0.086603 0.000000
vn -0.045537 -0.086603 0.020648
vn 0.000000 -0.100000 -0.000000
vn 0.000000 -0.100000 -0.000000
vn -0.050000 -0.086603 0.000000
vn 0.000000 -0.100000 0.000000
vn -0.050000 -0.086603 0.000000
vn -0.086603 -0.050000 0.000000
vn -0.100000 0.000000 -0.000000
vn -0.086603 -0.050000 0.000000
vn 0.070711 0.000000 -0.070711
vn 0.061237 -0.050000 -0.061237
vn 0.025882 0.000000 -0.096593
vn 0.022414 -0.050000 -0.083652
vn -0.025882 0.000000 -0.096593
vn -0.022414 -0.050000 -0.083652
vn -0.070711 0.000000 -0.070711
vn -0.061237 -0.050000 -0.061237
vn -0.012941 -0.086603 -0.048296
vn -0.035355 -0.086603 -0.035355
vn -0.000000 -0.100000 -0.000000
vn 0.000000 -0.100000 0.000000
vn 0.035355 -0.086603 -0.035355
vn 0.012941 -0.086603 -0.048296
vn 0.000000 -0.100000 -0.000000
vn -0.000000 -0.100000 0.000000
vn -0.000000 -0.100000 0.000000
vn 0.035355 -0.086603 -0.035355
vn -0.000000 -0.100000 0.000000
vn 0.035355 -0.086603 -0.035355
vn 0.035355 -0.086603 -0.035355
vn 0.061237 -0.050000 -0.061237
vn 0.061237 -0.050000 -0.061237
vn 0.070711 0.000000 -0.070711
vn 0.061237 -0.050000 -0.061237
vn 0.070711 0.000000 -0.070711
vn -0.100000 0.000000 0.000000
vn -0.091075 0.000000 0.041296
vn -0.065892 0.000000 0.075221
vn -0.028947 0.000000 0.095719
vn -0.009774 0.000000 0.099521
vn 0.009774 0.000000 0.099521
vn 0.028947 0.000000 0.095719
vn 0.065892 0.000000 0.075221
vn 0.091075 0.000000 0.041296
vn 0.100000 0.000000 0.000000
vn 0.100000 0.000000 0.000000
vn 0.100000 0.000000 0.000000
vn 0.100000 0.000000 0.000000
vn 0.070711 0.000000 -0.070711
vn 0.025882 0.000000 -0.096593
vn -0.025882 0.000000 -0.096593
vn -0.070711 0.000000 -0.070711
vn 0.070711 0.000000 -0.070711
vn 0.070711 0.000000 -0.070711
vn -0.070711 0.000000 -0.070711
vn -0.070711 0.000000 -0.070711
vn -0.100000 0.000000 0.000000
vn -0.000000 0.100000 -0.000000
vn -0.000000 0.100000 -0.000000
vn -0.000000 0.100000 -0.000000
vn -0.000000 0.100000 -0.000000
vn -0.000000 0.100000 -0.000000
vn -0.000000 0.100000 -0.000000
vn -0.000000 0.100000 -0.000000
vn -0.000000 0.100000 -0.000000
vn -0.000000 0.100000 -0.000000
vn -0.000000 0.100000 -0.000000
vn -0.000000 0.100000 -0.000000
vn -0.000000 0.100000 -0.000000
vn -0.000000 0.100000 -0.000000
vn -0.000000 0.100000 -0.000000
vn -0.000000 0.100000 -0.000000
vn -0.000000 0.100000 -0.000000
vn -0.000000 0.100000 -0.000000
vn -0.000000 0.100000 -0.000000
vn -0.000000 0.100000 -0.000000
vn 0.070711 0.000000 0.070711
vn 0.070711 0.000000 0.070711
vn 0.086603 0.000000 0.050000
vn 0.086603 0.000000 0.050000
vn 0.096593 0.000000 0.025882
vn 0.096593 0.000000 0.025882
vn 0.070711 0.000000 -0.070711
vn 0.070711 0.000000 -0.070711
vn 0.070711 0.000000 -0.070711
vn 0.070711 0.000000 -0.070711
usemtl Paint_-_Enamel_Glossy_(Black)
f 2/1/1 3/2/2 1/3/3
f 1/3/3 3/2/2 4/4/4
f 4/5/5 3/6/6 10/7/7
f 10/7/7 3/6/6 5/8/8
f 10/7/7 5/8/8 6/9/9
f 7/10/10 8/11/11 6/9/9
f 6/9/9 8/11/11 9/12/12
f 6/9/9 9/12/12 10/7/7
f 11/13/13 16/14/14 2/15/15
f 2/15/15 16/14/14 17/16/16
f 2/15/15 17/16/16 18/17/17
f 11/13/13 12/18/18 16/14/14
f 16/14/14 12/18/18 13/19/19
f 16/14/14 13/19/19 14/20/20
f 14/20/20 15/21/21 16/14/14
f 18/17/17 19/22/22 2/15/15
f 2/15/15 19/22/22 3/23/23
f 3/23/23 19/22/22 5/24/24
f 5/24/24 19/22/22 6/25/25
f 6/25/25 19/22/22 7/26/26
f 7/26/26 19/22/22 20/27/27
f 28/28/28 21/29/29 30/30/30
f 30/30/30 21/29/29 22/31/31
f 30/30/30 22/31/31 29/32/32
f 29/32/32 22/31/31 23/33/33
f 29/32/32 23/33/33 31/34/34
f 31/34/34 23/33/33 24/35/35
f 31/34/34 24/35/35 25/36/36
f 25/36/36 26/37/37 31/34/34
f 31/34/34 26/37/37 32/38/38
f 31/34/34 32/38/38 29/32/32
f 29/32/32 32/38/38 30/30/30
f 26/37/37 27/39/39 32/38/38
f 32/38/38 27/39/39 30/30/30
f 27/39/39 28/28/28 30/30/30
f 40/40/40 33/41/41 41/42/42
f 41/42/42 33/41/41 34/43/43
f 41/42/42 34/43/43 35/44/44
f 41/42/42 35/44/44 42/45/45
f 42/45/45 35/44/44 36/46/46
f 42/45/45 36/46/46 37/47/47
f 37/47/47 38/48/48 42/45/45
f 42/45/45 38/48/48 39/49/49
f 42/45/45 39/49/49 41/42/42
f 41/42/42 39/49/49 40/40/40
f 43/50/50 44/51/51 50/52/52
f 50/52/52 44/51/51 52/53/53
f 50/52/52 52/53/53 49/54/54
f 49/54/54 52/53/53 54/55/55
f 49/54/54 54/55/55 34/56/43
f 34/56/43 54/55/55 35/57/44
f 35/57/44 54/55/55 53/58/56
f 35/57/44 53/58/56 36/59/46
f 36/59/46 53/58/56 48/60/57
f 36/59/46 48/60/57 37/61/47
f 44/51/51 45/62/58 52/53/53
f 52/53/53 45/62/58 51/63/59
f 52/53/53 51/63/59 54/55/55
f 54/55/55 51/63/59 53/58/56
f 45/62/58 46/64/60 51/63/59
f 51/63/59 46/64/60 47/65/61
f 51/63/59 47/65/61 53/58/56
f 53/58/56 47/65/61 48/60/57
f 55/66/62 56/67/63 62/68/64
f 62/68/64 56/67/63 64/69/65
f 62/68/64 64/69/65 61/70/66
f 61/70/66 64/69/65 66/71/67
f 61/70/66 66/71/67 43/72/50
f 43/72/50 66/71/67 44/73/51
f 44/73/51 66/71/67 65/74/68
f 44/73/51 65/74/68 45/75/58
f 45/75/58 65/74/68 60/76/69
f 45/75/58 60/76/69 46/77/60
f 56/67/63 57/78/70 64/69/65
f 64/69/65 57/78/70 63/79/71
f 64/69/65 63/79/71 66/71/67
f 66/71/67 63/79/71 65/74/68
f 57/78/70 58/80/72 63/79/71
f 63/79/71 58/80/72 59/81/73
f 63/79/71 59/81/73 65/74/68
f 65/74/68 59/81/73 60/76/69
f 67/82/74 68/83/75 74/84/76
f 74/84/76 68/83/75 76/85/77
f 74/84/76 76/85/77 73/86/78
f 73/86/78 76/85/77 78/87/79
f 73/86/78 78/87/79 55/88/62
f 55/88/62 78/87/79 56/89/63
f 56/89/63 78/87/79 77/90/80
f 56/89/63 77/90/80 57/91/70
f 57/91/70 77/90/80 72/92/81
f 57/91/70 72/92/81 58/93/72
f 68/83/75 69/94/82 76/85/77
f 76/85/77 69/94/82 75/95/83
f 76/85/77 75/95/83 78/87/79
f 78/87/79 75/95/83 77/90/80
f 69/94/82 70/96/84 75/95/83
f 75/95/83 70/96/84 71/97/85
f 75/95/83 71/97/85 77/90/80
f 77/90/80 71/97/85 72/92/81
f 27/98/86 26/99/87 79/100/88
f 79/100/88 26/99/87 70/101/84
f 79/100/88 70/101/84 69/102/82
f 79/100/88 69/102/82 80/103/89
f 80/103/89 69/102/82 68/104/75
f 80/103/89 68/104/75 67/105/74
f 67/105/74 21/106/90 80/103/89
f 80/103/89 21/106/90 28/107/91
f 80/103/89 28/107/91 27/98/86
f 80/103/89 27/98/86 79/100/88
f 81/108/92 82/109/93 88/110/94
f 88/110/94 82/109/93 90/111/95
f 88/110/94 90/111/95 87/112/96
f 87/112/96 90/111/95 92/113/97
f 87/112/96 92/113/97 22/114/98
f 22/114/98 92/113/97 23/115/99
f 23/115/99 92/113/97 91/116/100
f 23/115/99 91/116/100 24/117/101
f 24/117/101 91/116/100 86/118/102
f 24/117/101 86/118/102 25/119/103
f 82/109/93 83/120/104 90/111/95
f 90/111/95 83/120/104 89/121/105
f 90/111/95 89/121/105 92/113/97
f 92/113/97 89/121/105 91/116/100
f 83/120/104 84/122/106 89/121/105
f 89/121/105 84/122/106 85/123/107
f 89/121/105 85/123/107 91/116/100
f 91/116/100 85/123/107 86/118/102
f 84/124/108 93/125/109 38/126/110
f 38/126/110 93/125/109 94/127/111
f 38/126/110 94/127/111 39/128/112
f 39/128/112 94/127/111 96/129/113
f 39/128/112 96/129/113 40/130/114
f 40/130/114 96/129/113 33/131/115
f 33/131/115 96/129/113 95/132/116
f 33/131/115 95/132/116 81/133/117
f 81/133/117 95/132/116 82/134/93
f 82/134/93 95/132/116 83/135/104
f 83/135/104 95/132/116 93/125/109
f 83/135/104 93/125/109 84/124/108
f 96/129/113 94/127/111 93/125/109
f 96/129/113 93/125/109 95/132/116
f 100/136/118 67/137/74 99/138/119
f 99/138/119 67/137/74 74/139/76
f 99/138/119 74/139/76 98/140/120
f 98/140/120 74/139/76 73/141/78
f 98/140/120 73/141/78 97/142/121
f 97/142/121 73/141/78 55/143/62
f 97/144/121 55/145/62 103/146/122
f 103/146/122 55/145/62 62/147/64
f 103/146/122 62/147/64 102/148/123
f 102/148/123 62/147/64 61/149/66
f 102/148/123 61/149/66 101/150/124
f 101/150/124 61/149/66 43/151/50
f 101/152/124 43/153/50 106/154/125
f 106/154/125 43/153/50 50/155/52
f 106/154/125 50/155/52 105/156/126
f 105/156/126 50/155/52 49/157/54
f 105/156/126 49/157/54 104/158/127
f 104/158/127 49/157/54 34/159/43
f 33/160/41 15/161/128 34/162/43
f 34/162/43 15/161/128 104/163/127
f 104/163/127 15/161/128 107/164/129
f 107/164/129 15/161/128 14/165/130
f 84/166/106 38/167/48 60/168/69
f 60/168/69 38/167/48 37/169/47
f 60/168/69 37/169/47 46/170/60
f 46/170/60 37/169/47 47/171/61
f 47/171/61 37/169/47 48/172/57
f 60/168/69 59/173/73 84/166/106
f 84/166/106 59/173/73 25/174/103
f 84/166/106 25/174/103 85/175/107
f 85/175/107 25/174/103 86/176/102
f 58/177/72 70/178/84 59/173/73
f 59/173/73 70/178/84 26/179/87
f 59/173/73 26/179/87 25/174/103
f 58/177/72 72/180/81 70/178/84
f 70/178/84 72/180/81 71/181/85
f 16/182/131 81/183/92 17/184/132
f 17/184/132 81/183/92 88/185/94
f 17/184/132 88/185/94 18/186/133
f 18/186/133 88/185/94 87/187/96
f 18/186/133 87/187/96 19/188/134
f 19/188/134 87/187/96 22/189/98
f 33/190/135 81/191/92 15/192/136
f 15/192/136 81/191/92 16/193/131
f 22/194/98 21/195/137 19/196/134
f 19/196/134 21/195/137 20/197/138
f 21/198/90 67/199/74 20/200/139
f 20/200/139 67/199/74 100/201/118
f 20/200/139 100/201/118 8/202/11
f 8/202/11 7/203/10 20/200/139
f 108/204/140 1/205/141 110/206/142
f 110/206/142 1/205/141 109/207/143
f 109/207/143 1/205/141 107/208/144
f 107/208/144 1/205/141 8/209/145
f 107/208/144 8/209/145 102/210/146
f 102/210/146 8/209/145 103/211/147
f 103/211/147 8/209/145 100/212/148
f 103/211/147 100/212/148 97/213/149
f 97/213/149 100/212/148 98/214/150
f 98/214/150 100/212/148 99/215/151
f 4/216/152 10/217/153 1/205/141
f 1/205/141 10/217/153 9/218/154
f 1/205/141 9/218/154 8/209/145
f 107/208/144 102/210/146 104/219/155
f 104/219/155 102/210/146 101/220/156
f 104/219/155 101/220/156 106/221/157
f 106/221/157 105/222/158 104/219/155
f 11/223/159 108/224/160 12/225/161
f 12/225/161 108/224/160 110/226/162
f 12/225/161 110/226/162 109/227/163
f 107/228/129 14/229/130 109/227/163
f 109/227/163 14/229/130 13/230/164
f 109/227/163 13/230/164 12/225/161
f 1/231/165 108/232/166 2/233/167
f 2/233/167 108/232/166 11/234/168
# 110 vertices
# 234 texture params
# 168 normals
# 216 facets

# 1 groups
