# WaveFront *.obj file (generated by Autodesk ATF)

mtllib Name_AyaNeo-01 v44_DPad-Right_AyaNeo-01 v44.mtl

g DPad-Right

v -100.603553 -9.000000 -1.103553
v -105.000000 -9.000000 -5.500000
v -105.000000 -11.500000 -5.500000
v -100.603553 -11.500000 -1.103553
v -100.603553 -11.500000 -9.896447
v -100.500000 -11.500000 -9.816987
v -100.379410 -11.500000 -9.767037
v -100.250000 -11.500000 -9.750000
v -100.042893 -11.500000 -9.750000
v -103.939340 -11.500000 -5.853553
v -104.068749 -11.500000 -5.629410
v -104.068749 -11.500000 -5.370590
v -103.939340 -11.500000 -5.146447
v -100.042893 -11.500000 -1.250000
v -100.250000 -11.500000 -1.250000
v -100.379410 -11.500000 -1.232963
v -100.500000 -11.500000 -1.183013
v -100.603553 -9.000000 -9.896447
v -100.500000 -9.000000 -1.183013
v -100.379410 -9.000000 -1.232963
v -100.250000 -9.000000 -1.250000
v -95.906733 -9.000000 -1.250000
v -95.287287 -9.000000 -1.383879
v -94.778415 -9.000000 -1.761619
v -94.470954 -9.000000 -2.315789
v -94.052664 -9.000000 -4.424904
v -94.052664 -9.000000 -6.575096
v -94.470954 -9.000000 -8.684211
v -94.778415 -9.000000 -9.238381
v -95.287287 -9.000000 -9.616121
v -95.906733 -9.000000 -9.750000
v -100.250000 -9.000000 -9.750000
v -100.379410 -9.000000 -9.767037
v -100.500000 -9.000000 -9.816987
v -100.042893 -11.800000 -1.250000
v -95.906733 -11.800000 -1.250000
v -103.939340 -11.800000 -5.146447
v -100.042893 -11.800000 -9.750000
v -103.939340 -11.800000 -5.853553
v -104.068749 -11.800000 -5.629410
v -104.068749 -11.800000 -5.370590
v -99.960051 -12.000000 -9.550000
v -95.906733 -12.000000 -9.550000
v -95.369880 -12.000000 -9.433971
v -94.928857 -12.000000 -9.106597
v -94.662391 -12.000000 -8.626316
v -94.251706 -12.000000 -6.555549
v -94.251706 -12.000000 -4.444451
v -94.662391 -12.000000 -2.373684
v -94.928857 -12.000000 -1.893403
v -95.369880 -12.000000 -1.566029
v -95.906733 -12.000000 -1.450000
v -99.960051 -12.000000 -1.450000
v -103.797918 -12.000000 -5.287868
v -103.875564 -12.000000 -5.422354
v -103.875564 -12.000000 -5.577646
v -103.797918 -12.000000 -5.712132
v -95.906733 -11.800000 -9.750000
v -94.470954 -11.800000 -8.684211
v -94.778415 -11.800000 -9.238381
v -95.287287 -11.800000 -9.616121
v -94.470954 -11.800000 -2.315789
v -94.052664 -11.800000 -4.424904
v -94.052664 -11.800000 -6.575096
v -95.287287 -11.800000 -1.383879
v -94.778415 -11.800000 -1.761619
v -103.868629 -11.973205 -5.782843
v -103.920393 -11.900000 -5.834607
v -100.031794 -11.900000 -9.723205
v -100.001472 -11.973205 -9.650000
v -102.569814 -11.973205 -7.081658
v -101.270998 -11.973205 -8.380474
v -102.621577 -11.900000 -7.133422
v -101.322762 -11.900000 -8.432238
v -103.868629 -11.973205 -5.217157
v -103.920393 -11.900000 -5.165393
v -103.972157 -11.973205 -5.603528
v -104.042867 -11.900000 -5.622474
v -103.972157 -11.973205 -5.396472
v -104.042867 -11.900000 -5.377526
v -95.906733 -11.973205 -1.350000
v -95.906733 -11.900000 -1.276795
v -100.031794 -11.900000 -1.276795
v -100.001472 -11.973205 -1.350000
v -97.974813 -11.973205 -1.350000
v -97.974813 -11.900000 -1.276795
v -94.566673 -11.973205 -2.344737
v -94.496602 -11.900000 -2.323546
v -95.328583 -11.973205 -1.474954
v -95.298352 -11.900000 -1.408283
v -94.853636 -11.973205 -1.827511
v -94.798570 -11.900000 -1.779274
v -94.566673 -11.973205 -8.655263
v -94.496602 -11.900000 -8.676454
v -94.152185 -11.973205 -4.434677
v -94.079331 -11.900000 -4.427522
v -94.152185 -11.973205 -6.565323
v -94.079331 -11.900000 -6.572478
v -95.906733 -11.973205 -9.650000
v -95.906733 -11.900000 -9.723205
v -94.853636 -11.973205 -9.172489
v -94.798570 -11.900000 -9.220726
v -95.328583 -11.973205 -9.525046
v -95.298352 -11.900000 -9.591717
v -97.974813 -11.900000 -9.723205
v -97.974813 -11.973205 -9.650000
v -102.621577 -11.900000 -3.866578
v -101.322762 -11.900000 -2.567762
v -102.569814 -11.973205 -3.918342
v -101.270998 -11.973205 -2.619526
vt -1.621751 -0.300000 0.000000
vt -1.000000 -0.300000 0.000000
vt -1.621751 -0.050000 0.000000
vt -1.000000 -0.050000 0.000000
vt 0.450000 0.431699 0.000000
vt 0.439645 0.439645 0.000000
vt 0.106066 0.035355 0.000000
vt 0.000000 -0.000000 0.000000
vt 0.093125 0.012941 0.000000
vt 0.093125 -0.012941 0.000000
vt 0.106066 -0.035355 0.000000
vt 0.439645 -0.439645 0.000000
vt 0.450000 -0.431699 0.000000
vt 0.462059 -0.426704 0.000000
vt 0.475000 -0.425000 0.000000
vt 0.495711 -0.425000 0.000000
vt 0.495711 0.425000 0.000000
vt 0.475000 0.425000 0.000000
vt 0.462059 0.426704 0.000000
vt 1.000000 -0.300000 0.000000
vt 1.621751 -0.300000 0.000000
vt 1.000000 -0.050000 0.000000
vt 1.621751 -0.050000 0.000000
vt -0.439645 0.439645 0.000000
vt -0.450000 0.431699 0.000000
vt 0.000000 -0.000000 0.000000
vt -0.462059 0.426704 0.000000
vt -0.475000 0.425000 0.000000
vt -1.094734 0.107510 0.000000
vt -0.909327 0.425000 0.000000
vt -1.052905 0.318421 0.000000
vt -1.022158 0.373838 0.000000
vt -0.971271 0.411612 0.000000
vt -1.094734 -0.107510 0.000000
vt -0.475000 -0.425000 0.000000
vt -0.462059 -0.426704 0.000000
vt -0.909327 -0.425000 0.000000
vt -1.052905 -0.318421 0.000000
vt -1.022158 -0.373838 0.000000
vt -0.971271 -0.411612 0.000000
vt -0.450000 -0.431699 0.000000
vt -0.439645 -0.439645 0.000000
vt 0.250000 0.039270 0.000000
vt 0.000000 0.039270 0.000000
vt 0.250000 0.026180 0.000000
vt -0.000000 0.026180 0.000000
vt -0.000000 0.013090 0.000000
vt 0.000000 0.000000 0.000000
vt 0.250000 0.000000 0.000000
vt 0.250000 0.013090 0.000000
vt 0.413616 0.280000 0.000000
vt 0.000000 0.280000 0.000000
vt 0.413616 0.250000 0.000000
vt 0.000000 0.000000 0.000000
vt 0.434327 -0.000000 0.000000
vt 0.434327 0.250000 0.000000
vt 0.000000 0.039270 0.000000
vt 0.250000 0.039270 0.000000
vt -0.000000 0.052360 0.000000
vt 0.250000 0.052360 0.000000
vt 0.250000 0.065450 0.000000
vt 0.250000 0.078540 0.000000
vt 0.000000 0.078540 0.000000
vt -0.000000 0.065450 0.000000
vt -0.551041 0.020000 0.000000
vt 0.000000 0.020000 0.000000
vt -0.551041 0.050000 0.000000
vt 0.000000 0.050000 0.000000
vt -0.601041 0.020000 0.000000
vt -0.050000 0.020000 0.000000
vt -0.601041 0.050000 0.000000
vt -0.050000 0.050000 0.000000
vt -0.050000 -0.039270 0.000000
vt -0.020000 -0.039270 0.000000
vt -0.050000 -0.013090 0.000000
vt -0.020000 -0.013090 0.000000
vt -0.050000 0.013090 0.000000
vt -0.020000 0.013090 0.000000
vt -0.050000 0.039270 0.000000
vt -0.020000 0.039270 0.000000
vt 0.120208 -0.021213 0.000000
vt 0.503995 -0.405000 0.000000
vt 1.074829 -0.105555 0.000000
vt 0.909327 -0.405000 0.000000
vt 1.033761 -0.312632 0.000000
vt 1.007114 -0.360660 0.000000
vt 0.963012 -0.393397 0.000000
vt 0.120208 0.021213 0.000000
vt 1.074829 0.105555 0.000000
vt 0.503995 0.405000 0.000000
vt 0.909327 0.405000 0.000000
vt 1.033761 0.312632 0.000000
vt 1.007114 0.360660 0.000000
vt 0.963012 0.393397 0.000000
vt 0.112444 0.007765 0.000000
vt 0.112444 -0.007765 0.000000
vt 0.020711 0.280000 0.000000
vt 0.020711 0.250000 0.000000
vt 0.434327 0.280000 0.000000
vt 0.434327 0.000000 0.000000
vt 0.000000 0.000000 0.000000
vt 0.000000 0.250000 0.000000
vt -0.000000 0.191568 0.000000
vt -0.280000 0.191568 0.000000
vt -0.000000 0.127712 0.000000
vt -0.280000 0.127712 0.000000
vt -0.000000 0.063856 0.000000
vt -0.280000 0.063856 0.000000
vt -0.000000 0.000000 0.000000
vt -0.280000 0.000000 0.000000
vt -0.000000 0.646089 0.000000
vt -0.280000 0.646089 0.000000
vt -0.000000 0.430726 0.000000
vt -0.280000 0.430726 0.000000
vt -0.000000 0.215363 0.000000
vt -0.280000 0.215363 0.000000
vt -0.000000 0.000000 0.000000
vt -0.280000 0.000000 0.000000
vt -0.000000 0.191568 0.000000
vt -0.280000 0.191568 0.000000
vt -0.000000 0.127712 0.000000
vt -0.280000 0.127712 0.000000
vt -0.000000 0.063856 0.000000
vt -0.280000 0.063856 0.000000
vt -0.000000 0.000000 0.000000
vt -0.280000 0.000000 0.000000
vt -0.075000 -0.015708 0.000000
vt -0.258680 -0.005236 0.000000
vt -0.617756 -0.015708 0.000000
vt -0.442361 -0.005236 0.000000
vt -0.621899 -0.005236 0.000000
vt -0.442361 0.005236 0.000000
vt -0.624931 0.005236 0.000000
vt -0.626041 0.015708 0.000000
vt -0.258680 0.005236 0.000000
vt -0.075000 0.015708 0.000000
vt -0.075000 0.005236 0.000000
vt -0.075000 -0.005236 0.000000
vt -0.000000 -0.104007 0.000000
vt 0.010472 -0.104007 0.000000
vt -0.000000 -0.080895 0.000000
vt 0.010472 -0.080895 0.000000
vt -0.000000 -0.057782 0.000000
vt 0.010472 -0.057782 0.000000
vt -0.000000 -0.034669 0.000000
vt 0.010472 -0.034669 0.000000
vt 0.020944 -0.057782 0.000000
vt 0.020944 -0.034669 0.000000
vt 0.031416 -0.057782 0.000000
vt 0.031416 -0.034669 0.000000
vt 0.020944 -0.104007 0.000000
vt 0.020944 -0.080895 0.000000
vt 0.031416 -0.104007 0.000000
vt 0.031416 -0.080895 0.000000
vt 0.045189 -0.005236 0.000000
vt 0.049332 -0.015708 0.000000
vt 0.247855 -0.005236 0.000000
vt 0.454663 -0.015708 0.000000
vt 0.454663 -0.005236 0.000000
vt 0.247855 0.005236 0.000000
vt 0.454663 0.005236 0.000000
vt 0.454663 0.015708 0.000000
vt 0.041047 0.015708 0.000000
vt 0.042157 0.005236 0.000000
vt -0.000000 -0.452836 0.000000
vt -0.010472 -0.452836 0.000000
vt -0.000000 -0.514198 0.000000
vt -0.010472 -0.514198 0.000000
vt -0.000000 -0.575560 0.000000
vt -0.010472 -0.575560 0.000000
vt -0.000000 -0.636923 0.000000
vt -0.010472 -0.636923 0.000000
vt -0.020944 -0.575560 0.000000
vt -0.020944 -0.636923 0.000000
vt -0.031416 -0.575560 0.000000
vt -0.031416 -0.636923 0.000000
vt -0.020944 -0.452836 0.000000
vt -0.020944 -0.514198 0.000000
vt -0.031416 -0.452836 0.000000
vt -0.031416 -0.514198 0.000000
vt -0.000000 2.039999 0.000000
vt -0.010472 2.039999 0.000000
vt -0.000000 1.825783 0.000000
vt -0.010472 1.825783 0.000000
vt -0.000000 1.611566 0.000000
vt -0.010472 1.611566 0.000000
vt -0.000000 1.397350 0.000000
vt -0.010472 1.397350 0.000000
vt -0.020944 1.611566 0.000000
vt -0.020944 1.397350 0.000000
vt -0.031416 1.611566 0.000000
vt -0.031416 1.397350 0.000000
vt -0.020944 2.039999 0.000000
vt -0.020944 1.825783 0.000000
vt -0.031416 2.039999 0.000000
vt -0.031416 1.825783 0.000000
vt -0.000000 0.122724 0.000000
vt -0.010472 0.184087 0.000000
vt -0.010472 0.122724 0.000000
vt -0.000000 0.061362 0.000000
vt -0.010472 0.061362 0.000000
vt -0.000000 0.000000 0.000000
vt -0.010472 0.000000 0.000000
vt -0.020944 0.061362 0.000000
vt -0.020944 0.000000 0.000000
vt -0.031416 0.061362 0.000000
vt -0.031416 0.000000 0.000000
vt -0.020944 0.184087 0.000000
vt -0.020944 0.122724 0.000000
vt -0.031416 0.184087 0.000000
vt -0.031416 0.122724 0.000000
vt -0.259321 0.005236 0.000000
vt -0.258211 0.015708 0.000000
vt -0.465019 0.005236 0.000000
vt -0.671827 0.015708 0.000000
vt -0.671827 0.005236 0.000000
vt -0.465019 -0.005236 0.000000
vt -0.671827 -0.005236 0.000000
vt -0.671827 -0.015708 0.000000
vt -0.266495 -0.015708 0.000000
vt -0.262353 -0.005236 0.000000
vt 0.324411 0.005236 0.000000
vt 0.325520 0.015708 0.000000
vt 0.141840 0.005236 0.000000
vt -0.225520 0.015708 0.000000
vt -0.041840 0.005236 0.000000
vt -0.225520 0.005236 0.000000
vt -0.041840 -0.005236 0.000000
vt -0.225520 -0.005236 0.000000
vt -0.225520 -0.015708 0.000000
vt 0.317236 -0.015708 0.000000
vt 0.141840 -0.005236 0.000000
vt 0.321378 -0.005236 0.000000
vn -0.070711 0.000000 0.070711
vn -0.070711 0.000000 0.070711
vn -0.070711 0.000000 0.070711
vn -0.070711 0.000000 0.070711
vn 0.000000 -0.100000 0.000000
vn 0.000000 -0.100000 0.000000
vn 0.000000 -0.100000 0.000000
vn 0.000000 -0.100000 0.000000
vn 0.000000 -0.100000 0.000000
vn 0.000000 -0.100000 0.000000
vn 0.000000 -0.100000 0.000000
vn 0.000000 -0.100000 0.000000
vn 0.000000 -0.100000 0.000000
vn 0.000000 -0.100000 0.000000
vn 0.000000 -0.100000 0.000000
vn 0.000000 -0.100000 0.000000
vn 0.000000 -0.100000 0.000000
vn 0.000000 -0.100000 0.000000
vn 0.000000 -0.100000 0.000000
vn -0.070711 0.000000 -0.070711
vn -0.070711 0.000000 -0.070711
vn -0.070711 0.000000 -0.070711
vn -0.070711 0.000000 -0.070711
vn -0.000000 0.100000 -0.000000
vn -0.000000 0.100000 -0.000000
vn -0.000000 0.100000 -0.000000
vn -0.000000 0.100000 -0.000000
vn -0.000000 0.100000 -0.000000
vn -0.000000 0.100000 -0.000000
vn -0.000000 0.100000 -0.000000
vn -0.000000 0.100000 -0.000000
vn -0.000000 0.100000 -0.000000
vn -0.000000 0.100000 -0.000000
vn -0.000000 0.100000 -0.000000
vn -0.000000 0.100000 -0.000000
vn -0.000000 0.100000 -0.000000
vn -0.000000 0.100000 -0.000000
vn -0.000000 0.100000 -0.000000
vn -0.000000 0.100000 -0.000000
vn -0.000000 0.100000 -0.000000
vn -0.000000 0.100000 -0.000000
vn -0.000000 0.100000 -0.000000
vn 0.070711 0.000000 -0.070711
vn 0.070711 0.000000 -0.070711
vn 0.050000 0.000000 -0.086603
vn 0.050000 0.000000 -0.086603
vn 0.025882 0.000000 -0.096593
vn 0.000000 0.000000 -0.100000
vn 0.000000 0.000000 -0.100000
vn 0.025882 0.000000 -0.096593
vn 0.000000 0.000000 0.100000
vn 0.000000 0.000000 0.100000
vn 0.000000 0.000000 0.100000
vn 0.000000 0.000000 0.100000
vn 0.000000 0.000000 0.100000
vn 0.000000 0.000000 0.100000
vn 0.070711 0.000000 0.070711
vn 0.070711 0.000000 0.070711
vn 0.050000 0.000000 0.086603
vn 0.050000 0.000000 0.086603
vn 0.025882 0.000000 0.096593
vn 0.025882 0.000000 0.096593
vn -0.070711 0.000000 0.070711
vn -0.070711 0.000000 0.070711
vn -0.070711 0.000000 0.070711
vn -0.070711 0.000000 0.070711
vn -0.070711 0.000000 -0.070711
vn -0.070711 0.000000 -0.070711
vn -0.070711 0.000000 -0.070711
vn -0.070711 0.000000 -0.070711
vn -0.096593 0.000000 -0.025882
vn -0.096593 0.000000 -0.025882
vn -0.096593 0.000000 0.025882
vn -0.096593 0.000000 0.025882
vn 0.000000 -0.100000 0.000000
vn 0.000000 -0.100000 0.000000
vn 0.000000 -0.100000 0.000000
vn 0.000000 -0.100000 0.000000
vn 0.000000 -0.100000 0.000000
vn 0.000000 -0.100000 0.000000
vn 0.000000 -0.100000 0.000000
vn 0.000000 -0.100000 0.000000
vn 0.000000 -0.100000 0.000000
vn 0.000000 -0.100000 0.000000
vn 0.000000 -0.100000 0.000000
vn 0.000000 -0.100000 0.000000
vn 0.000000 -0.100000 0.000000
vn 0.000000 -0.100000 0.000000
vn 0.000000 -0.100000 0.000000
vn 0.000000 -0.100000 0.000000
vn -0.000000 0.000000 -0.100000
vn -0.000000 0.000000 -0.100000
vn -0.000000 0.000000 -0.100000
vn -0.000000 0.000000 -0.100000
vn 0.095719 0.000000 -0.028947
vn 0.095719 0.000000 -0.028947
vn 0.075221 0.000000 -0.065892
vn 0.075221 0.000000 -0.065892
vn 0.041296 0.000000 -0.091075
vn 0.041296 0.000000 -0.091075
vn 0.095719 0.000000 0.028947
vn 0.095719 0.000000 0.028947
vn 0.099521 0.000000 0.009774
vn 0.099521 0.000000 0.009774
vn 0.099521 0.000000 -0.009774
vn 0.099521 0.000000 -0.009774
vn 0.041296 0.000000 0.091075
vn 0.041296 0.000000 0.091075
vn 0.075221 0.000000 0.065892
vn 0.075221 0.000000 0.065892
vn -0.000000 -0.100000 -0.000000
vn -0.035355 -0.086603 -0.035355
vn -0.000000 -0.100000 -0.000000
vn -0.035355 -0.086603 -0.035355
vn -0.035355 -0.086603 -0.035355
vn -0.061237 -0.050000 -0.061237
vn -0.061237 -0.050000 -0.061237
vn -0.070711 -0.000000 -0.070711
vn -0.061237 -0.050000 -0.061237
vn -0.070711 -0.000000 -0.070711
vn -0.061237 -0.050000 -0.061237
vn -0.035355 -0.086603 -0.035355
vn -0.083652 -0.050000 -0.022414
vn -0.083652 -0.050000 0.022414
vn -0.061237 -0.050000 0.061237
vn -0.048296 -0.086603 0.012941
vn -0.035355 -0.086603 0.035355
vn -0.048296 -0.086603 -0.012941
vn 0.000000 -0.086603 0.050000
vn 0.000000 -0.086603 0.050000
vn 0.000000 -0.086603 0.050000
vn 0.000000 -0.050000 0.086603
vn 0.000000 -0.050000 0.086603
vn 0.000000 -0.050000 0.086603
vn 0.035764 -0.050000 0.078873
vn 0.065143 -0.050000 0.057064
vn 0.082895 -0.050000 0.025069
vn 0.037611 -0.086603 0.032946
vn 0.047859 -0.086603 0.014474
vn 0.020648 -0.086603 0.045537
vn 0.086188 -0.050000 0.008464
vn 0.086188 -0.050000 -0.008464
vn 0.082895 -0.050000 -0.025069
vn 0.049761 -0.086603 -0.004887
vn 0.047859 -0.086603 -0.014474
vn 0.049761 -0.086603 0.004887
vn 0.065143 -0.050000 -0.057064
vn 0.035764 -0.050000 -0.078873
vn 0.000000 -0.050000 -0.086603
vn 0.020648 -0.086603 -0.045537
vn 0.000000 -0.086603 -0.050000
vn 0.037611 -0.086603 -0.032946
vn -0.000000 -0.050000 -0.086603
vn -0.000000 -0.050000 -0.086603
vn -0.000000 -0.086603 -0.050000
vn -0.000000 -0.086603 -0.050000
vn -0.061237 -0.050000 0.061237
vn -0.070711 -0.000000 0.070711
vn -0.061237 -0.050000 0.061237
vn -0.070711 0.000000 0.070711
vn -0.061237 -0.050000 0.061237
vn -0.061237 -0.050000 0.061237
vn -0.035355 -0.086603 0.035355
vn 0.000000 -0.100000 -0.000000
vn -0.000000 -0.100000 0.000000
vn -0.035355 -0.086603 0.035355
vn -0.035355 -0.086603 0.035355
usemtl Paint_-_Enamel_Glossy_(Black)
f 1/1/1 2/2/2 4/3/3
f 4/3/3 2/2/2 3/4/4
f 17/5/5 4/6/6 13/7/7
f 13/7/7 4/6/6 3/8/8
f 13/7/7 3/8/8 12/9/9
f 12/9/9 3/8/8 11/10/10
f 11/10/10 3/8/8 10/11/11
f 10/11/11 3/8/8 5/12/12
f 10/11/11 5/12/12 6/13/13
f 6/13/13 7/14/14 10/11/11
f 10/11/11 7/14/14 8/15/15
f 10/11/11 8/15/15 9/16/16
f 14/17/17 15/18/18 13/7/7
f 13/7/7 15/18/18 16/19/19
f 13/7/7 16/19/19 17/5/5
f 2/20/20 18/21/21 3/22/22
f 3/22/22 18/21/21 5/23/23
f 1/24/24 19/25/25 2/26/26
f 2/26/26 19/25/25 20/27/27
f 2/26/26 20/27/27 21/28/28
f 2/26/26 21/28/28 26/29/29
f 26/29/29 21/28/28 22/30/30
f 26/29/29 22/30/30 25/31/31
f 25/31/31 22/30/30 24/32/32
f 24/32/32 22/30/30 23/33/33
f 26/29/29 27/34/34 2/26/26
f 2/26/26 27/34/34 32/35/35
f 2/26/26 32/35/35 33/36/36
f 32/35/35 27/34/34 31/37/37
f 31/37/37 27/34/34 28/38/38
f 31/37/37 28/38/38 29/39/39
f 29/39/39 30/40/40 31/37/37
f 33/36/36 34/41/41 2/26/26
f 2/26/26 34/41/41 18/42/42
f 5/43/43 18/44/44 6/45/45
f 6/45/45 18/44/44 34/46/46
f 6/45/45 34/46/46 33/47/47
f 32/48/48 8/49/49 33/47/47
f 33/47/47 8/49/49 7/50/50
f 33/47/47 7/50/50 6/45/45
f 35/51/51 36/52/52 14/53/53
f 14/53/53 36/52/52 22/54/54
f 14/53/53 22/54/54 21/55/55
f 21/55/55 15/56/56 14/53/53
f 1/57/57 4/58/58 19/59/59
f 19/59/59 4/58/58 17/60/60
f 19/59/59 17/60/60 16/61/61
f 15/62/56 21/63/55 16/61/61
f 16/61/61 21/63/55 20/64/62
f 16/61/61 20/64/62 19/59/59
f 37/65/63 35/66/64 13/67/65
f 13/67/65 35/66/64 14/68/66
f 38/69/67 39/70/68 9/71/69
f 9/71/69 39/70/68 10/72/70
f 10/73/70 39/74/68 11/75/71
f 11/75/71 39/74/68 40/76/72
f 11/75/71 40/76/72 12/77/73
f 12/77/73 40/76/72 41/78/74
f 12/77/73 41/78/74 13/79/65
f 13/79/65 41/78/74 37/80/63
f 57/81/75 42/82/76 47/83/77
f 47/83/77 42/82/76 43/84/78
f 47/83/77 43/84/78 46/85/79
f 46/85/79 43/84/78 45/86/80
f 45/86/80 43/84/78 44/87/81
f 57/81/75 47/83/77 54/88/82
f 54/88/82 47/83/77 48/89/83
f 54/88/82 48/89/83 53/90/84
f 53/90/84 48/89/83 52/91/85
f 52/91/85 48/89/83 49/92/86
f 52/91/85 49/92/86 50/93/87
f 50/93/87 51/94/88 52/91/85
f 55/95/89 56/96/90 54/88/82
f 54/88/82 56/96/90 57/81/75
f 38/97/91 9/98/92 58/99/93
f 58/99/93 9/98/92 31/100/94
f 31/100/94 9/98/92 32/101/48
f 32/101/48 9/98/92 8/102/49
f 28/103/95 59/104/96 29/105/97
f 29/105/97 59/104/96 60/106/98
f 29/105/97 60/106/98 30/107/99
f 30/107/99 60/106/98 61/108/100
f 30/107/99 61/108/100 31/109/94
f 31/109/94 61/108/100 58/110/93
f 25/111/101 62/112/102 26/113/103
f 26/113/103 62/112/102 63/114/104
f 26/113/103 63/114/104 27/115/105
f 27/115/105 63/114/104 64/116/106
f 27/115/105 64/116/106 28/117/95
f 28/117/95 64/116/106 59/118/96
f 22/119/54 36/120/52 23/121/107
f 23/121/107 36/120/52 65/122/108
f 23/121/107 65/122/108 24/123/109
f 24/123/109 65/122/108 66/124/110
f 24/123/109 66/124/110 25/125/101
f 25/125/101 66/124/110 62/126/102
f 57/127/111 71/128/112 42/129/113
f 42/129/113 71/128/112 72/130/114
f 42/129/113 72/130/114 70/131/115
f 70/131/115 72/130/114 74/132/116
f 70/131/115 74/132/116 69/133/117
f 69/133/117 74/132/116 38/134/118
f 38/134/118 74/132/116 73/135/119
f 38/134/118 73/135/119 39/136/120
f 39/136/120 73/135/119 68/137/121
f 68/137/121 73/135/119 67/138/122
f 67/138/122 73/135/119 71/128/112
f 67/138/122 71/128/112 57/127/111
f 74/132/116 72/130/114 71/128/112
f 74/132/116 71/128/112 73/135/119
f 39/139/68 68/140/121 40/141/72
f 40/141/72 68/140/121 78/142/123
f 40/141/72 78/142/123 41/143/74
f 41/143/74 78/142/123 80/144/124
f 41/143/74 80/144/124 37/145/63
f 37/145/63 80/144/124 76/146/125
f 76/146/125 80/144/124 79/147/126
f 76/146/125 79/147/126 75/148/127
f 75/148/127 79/147/126 55/149/89
f 75/148/127 55/149/89 54/150/82
f 68/140/121 67/151/122 78/142/123
f 78/142/123 67/151/122 77/152/128
f 78/142/123 77/152/128 80/144/124
f 80/144/124 77/152/128 79/147/126
f 67/151/122 57/153/75 77/152/128
f 77/152/128 57/153/75 56/154/90
f 77/152/128 56/154/90 79/147/126
f 79/147/126 56/154/90 55/149/89
f 84/155/129 53/156/84 85/157/130
f 85/157/130 53/156/84 52/158/85
f 85/157/130 52/158/85 81/159/131
f 85/157/130 81/159/131 86/160/132
f 86/160/132 81/159/131 82/161/133
f 86/160/132 82/161/133 36/162/52
f 36/162/52 35/163/51 86/160/132
f 86/160/132 35/163/51 83/164/134
f 86/160/132 83/164/134 84/155/129
f 86/160/132 84/155/129 85/157/130
f 36/165/52 82/166/133 65/167/108
f 65/167/108 82/166/133 90/168/135
f 65/167/108 90/168/135 66/169/110
f 66/169/110 90/168/135 92/170/136
f 66/169/110 92/170/136 62/171/102
f 62/171/102 92/170/136 88/172/137
f 88/172/137 92/170/136 91/173/138
f 88/172/137 91/173/138 87/174/139
f 87/174/139 91/173/138 50/175/87
f 87/174/139 50/175/87 49/176/86
f 82/166/133 81/177/131 90/168/135
f 90/168/135 81/177/131 89/178/140
f 90/168/135 89/178/140 92/170/136
f 92/170/136 89/178/140 91/173/138
f 81/177/131 52/179/85 89/178/140
f 89/178/140 52/179/85 51/180/88
f 89/178/140 51/180/88 91/173/138
f 91/173/138 51/180/88 50/175/87
f 62/181/102 88/182/137 63/183/104
f 63/183/104 88/182/137 96/184/141
f 63/183/104 96/184/141 64/185/106
f 64/185/106 96/184/141 98/186/142
f 64/185/106 98/186/142 59/187/96
f 59/187/96 98/186/142 94/188/143
f 94/188/143 98/186/142 97/189/144
f 94/188/143 97/189/144 93/190/145
f 93/190/145 97/189/144 47/191/77
f 93/190/145 47/191/77 46/192/79
f 88/182/137 87/193/139 96/184/141
f 96/184/141 87/193/139 95/194/146
f 96/184/141 95/194/146 98/186/142
f 98/186/142 95/194/146 97/189/144
f 87/193/139 49/195/86 95/194/146
f 95/194/146 49/195/86 48/196/83
f 95/194/146 48/196/83 97/189/144
f 97/189/144 48/196/83 47/191/77
f 59/187/96 94/188/143 60/197/98
f 60/197/98 94/198/143 102/199/147
f 60/197/98 102/199/147 61/200/100
f 61/200/100 102/199/147 104/201/148
f 61/200/100 104/201/148 58/202/93
f 58/202/93 104/201/148 100/203/149
f 100/203/149 104/201/148 103/204/150
f 100/203/149 103/204/150 99/205/151
f 99/205/151 103/204/150 44/206/81
f 99/205/151 44/206/81 43/207/78
f 94/198/143 93/208/145 102/199/147
f 102/199/147 93/208/145 101/209/152
f 102/199/147 101/209/152 104/201/148
f 104/201/148 101/209/152 103/204/150
f 93/208/145 46/210/79 101/209/152
f 101/209/152 46/210/79 45/211/80
f 101/209/152 45/211/80 103/204/150
f 103/204/150 45/211/80 44/206/81
f 69/212/153 38/213/91 105/214/154
f 105/214/154 38/213/91 58/215/93
f 105/214/154 58/215/93 100/216/149
f 105/214/154 100/216/149 106/217/155
f 106/217/155 100/216/149 99/218/151
f 106/217/155 99/218/151 43/219/78
f 43/219/78 42/220/76 106/217/155
f 106/217/155 42/220/76 70/221/156
f 106/217/155 70/221/156 105/214/154
f 105/214/154 70/221/156 69/212/153
f 83/222/157 35/223/158 108/224/159
f 108/224/159 35/223/158 37/225/160
f 108/224/159 37/225/160 107/226/161
f 107/226/161 37/225/160 76/227/162
f 107/226/161 76/227/162 109/228/163
f 109/228/163 76/227/162 75/229/127
f 109/228/163 75/229/127 54/230/164
f 54/230/164 53/231/165 109/228/163
f 109/228/163 53/231/165 110/232/166
f 109/228/163 110/232/166 107/226/161
f 107/226/161 110/232/166 108/224/159
f 53/231/165 84/233/167 110/232/166
f 110/232/166 84/233/167 108/224/159
f 84/233/167 83/222/157 108/224/159
# 110 vertices
# 233 texture params
# 167 normals
# 216 facets

# 1 groups
