# WaveFront *.obj file (generated by Autodesk ATF)

mtllib Name_AyaNeo-01 v44_DPad-Left_AyaNeo-01 v44.mtl

g DPad-Left

v -109.396447 -11.500000 -1.103553
v -109.396447 -9.000000 -1.103553
v -109.500000 -9.000000 -1.183013
v -109.620590 -9.000000 -1.232963
v -109.750000 -9.000000 -1.250000
v -109.750000 -11.500000 -1.250000
v -109.620590 -11.500000 -1.232963
v -109.500000 -11.500000 -1.183013
v -109.957107 -11.800000 -9.750000
v -114.093267 -11.800000 -9.750000
v -114.093267 -9.000000 -9.750000
v -109.750000 -9.000000 -9.750000
v -109.750000 -11.500000 -9.750000
v -109.957107 -11.500000 -9.750000
v -109.396447 -9.000000 -9.896447
v -109.396447 -11.500000 -9.896447
v -109.500000 -11.500000 -9.816987
v -109.620590 -11.500000 -9.767037
v -109.620590 -9.000000 -9.767037
v -109.500000 -9.000000 -9.816987
v -106.060660 -11.800000 -5.853553
v -106.060660 -11.500000 -5.853553
v -109.957107 -11.800000 -1.250000
v -106.060660 -11.800000 -5.146447
v -106.060660 -11.500000 -5.146447
v -109.957107 -11.500000 -1.250000
v -105.931251 -11.800000 -5.370590
v -105.931251 -11.800000 -5.629410
v -105.931251 -11.500000 -5.629410
v -105.931251 -11.500000 -5.370590
v -110.039949 -12.000000 -1.450000
v -114.093267 -12.000000 -1.450000
v -114.630120 -12.000000 -1.566029
v -115.071143 -12.000000 -1.893403
v -115.337609 -12.000000 -2.373684
v -115.748294 -12.000000 -4.444451
v -115.748294 -12.000000 -6.555549
v -115.337609 -12.000000 -8.626316
v -115.071143 -12.000000 -9.106597
v -114.630120 -12.000000 -9.433971
v -114.093267 -12.000000 -9.550000
v -110.039949 -12.000000 -9.550000
v -106.202082 -12.000000 -5.712132
v -106.124436 -12.000000 -5.577646
v -106.124436 -12.000000 -5.422354
v -106.202082 -12.000000 -5.287868
v -114.093267 -11.800000 -1.250000
v -114.093267 -9.000000 -1.250000
v -115.529046 -11.800000 -2.315789
v -115.221585 -11.800000 -1.761619
v -114.712713 -11.800000 -1.383879
v -114.712713 -9.000000 -1.383879
v -115.221585 -9.000000 -1.761619
v -115.529046 -9.000000 -2.315789
v -115.529046 -11.800000 -8.684211
v -115.947336 -11.800000 -6.575096
v -115.947336 -11.800000 -4.424904
v -115.947336 -9.000000 -4.424904
v -115.947336 -9.000000 -6.575096
v -115.529046 -9.000000 -8.684211
v -114.712713 -11.800000 -9.616121
v -115.221585 -11.800000 -9.238381
v -115.221585 -9.000000 -9.238381
v -114.712713 -9.000000 -9.616121
v -106.131371 -11.973205 -5.217157
v -106.079607 -11.900000 -5.165393
v -109.968206 -11.900000 -1.276795
v -109.998528 -11.973205 -1.350000
v -107.430186 -11.973205 -3.918342
v -108.729002 -11.973205 -2.619526
v -107.378423 -11.900000 -3.866578
v -108.677238 -11.900000 -2.567762
v -106.131371 -11.973205 -5.782843
v -106.079607 -11.900000 -5.834607
v -106.027843 -11.973205 -5.396472
v -105.957133 -11.900000 -5.377526
v -106.027843 -11.973205 -5.603528
v -105.957133 -11.900000 -5.622474
v -114.093267 -11.973205 -9.650000
v -114.093267 -11.900000 -9.723205
v -109.968206 -11.900000 -9.723205
v -109.998528 -11.973205 -9.650000
v -112.025187 -11.973205 -9.650000
v -112.025187 -11.900000 -9.723205
v -115.433327 -11.973205 -8.655263
v -115.503398 -11.900000 -8.676454
v -114.671417 -11.973205 -9.525046
v -114.701648 -11.900000 -9.591717
v -115.146364 -11.973205 -9.172489
v -115.201430 -11.900000 -9.220726
v -115.433327 -11.973205 -2.344737
v -115.503398 -11.900000 -2.323546
v -115.847815 -11.973205 -6.565323
v -115.920669 -11.900000 -6.572478
v -115.847815 -11.973205 -4.434677
v -115.920669 -11.900000 -4.427522
v -114.093267 -11.973205 -1.350000
v -114.093267 -11.900000 -1.276795
v -115.146364 -11.973205 -1.827511
v -115.201430 -11.900000 -1.779274
v -114.671417 -11.973205 -1.474954
v -114.701648 -11.900000 -1.408283
v -112.025187 -11.900000 -1.276795
v -112.025187 -11.973205 -1.350000
v -107.378423 -11.900000 -7.133422
v -108.677238 -11.900000 -8.432238
v -107.430186 -11.973205 -7.081658
v -108.729002 -11.973205 -8.380474
v -105.000000 -9.000000 -5.500000
v -105.000000 -11.500000 -5.500000
vt 0.250000 0.039270 0.000000
vt 0.000000 0.039270 0.000000
vt 0.250000 0.026180 0.000000
vt -0.000000 0.026180 0.000000
vt 0.000000 0.013090 0.000000
vt 0.000000 0.000000 0.000000
vt 0.250000 0.000000 0.000000
vt 0.250000 0.013090 0.000000
vt 0.413616 0.280000 0.000000
vt 0.000000 0.280000 0.000000
vt 0.413616 0.250000 0.000000
vt 0.000000 0.000000 0.000000
vt 0.434327 0.000000 0.000000
vt 0.434327 0.250000 0.000000
vt 0.000000 0.039270 0.000000
vt 0.250000 0.039270 0.000000
vt -0.000000 0.052360 0.000000
vt 0.250000 0.052360 0.000000
vt 0.250000 0.065450 0.000000
vt 0.250000 0.078540 0.000000
vt 0.000000 0.078540 0.000000
vt -0.000000 0.065450 0.000000
vt -0.551041 0.020000 0.000000
vt 0.000000 0.020000 0.000000
vt -0.551041 0.050000 0.000000
vt 0.000000 0.050000 0.000000
vt -0.601041 0.020000 0.000000
vt -0.050000 0.020000 0.000000
vt -0.601041 0.050000 0.000000
vt -0.050000 0.050000 0.000000
vt -0.050000 -0.039270 0.000000
vt -0.020000 -0.039270 0.000000
vt -0.050000 -0.013090 0.000000
vt -0.020000 -0.013090 0.000000
vt -0.050000 0.013090 0.000000
vt -0.020000 0.013090 0.000000
vt -0.050000 0.039270 0.000000
vt -0.020000 0.039270 0.000000
vt -0.120208 0.021213 0.000000
vt -0.503995 0.405000 0.000000
vt -1.074829 0.105555 0.000000
vt -0.909327 0.405000 0.000000
vt -1.033761 0.312632 0.000000
vt -1.007114 0.360660 0.000000
vt -0.963012 0.393397 0.000000
vt -1.074829 -0.105555 0.000000
vt -0.120208 -0.021213 0.000000
vt -0.112444 -0.007765 0.000000
vt -1.033761 -0.312632 0.000000
vt -0.909327 -0.405000 0.000000
vt -0.503995 -0.405000 0.000000
vt -1.007114 -0.360660 0.000000
vt -0.963012 -0.393397 0.000000
vt -0.112444 0.007765 0.000000
vt 0.020711 0.280000 0.000000
vt 0.020711 0.250000 0.000000
vt 0.434327 0.280000 0.000000
vt 0.434327 0.000000 0.000000
vt 0.000000 0.000000 0.000000
vt 0.000000 0.250000 0.000000
vt -0.000000 0.191568 0.000000
vt -0.280000 0.191568 0.000000
vt -0.000000 0.127712 0.000000
vt -0.280000 0.127712 0.000000
vt -0.000000 0.063856 0.000000
vt -0.280000 0.063856 0.000000
vt -0.000000 0.000000 0.000000
vt -0.280000 0.000000 0.000000
vt 0.000000 0.646089 0.000000
vt -0.280000 0.646089 0.000000
vt -0.000000 0.430726 0.000000
vt -0.280000 0.430726 0.000000
vt -0.000000 0.215363 0.000000
vt -0.280000 0.215363 0.000000
vt -0.000000 0.000000 0.000000
vt -0.280000 0.000000 0.000000
vt -0.000000 0.191568 0.000000
vt -0.280000 0.191568 0.000000
vt -0.000000 0.127712 0.000000
vt -0.280000 0.127712 0.000000
vt 0.000000 0.063856 0.000000
vt -0.280000 0.063856 0.000000
vt 0.000000 -0.000000 0.000000
vt -0.280000 -0.000000 0.000000
vt -0.075000 -0.015708 0.000000
vt -0.258680 -0.005236 0.000000
vt -0.617756 -0.015708 0.000000
vt -0.442361 -0.005236 0.000000
vt -0.621899 -0.005236 0.000000
vt -0.442361 0.005236 0.000000
vt -0.624931 0.005236 0.000000
vt -0.626041 0.015708 0.000000
vt -0.258680 0.005236 0.000000
vt -0.075000 0.015708 0.000000
vt -0.075000 0.005236 0.000000
vt -0.075000 -0.005236 0.000000
vt -0.000000 0.034669 0.000000
vt 0.010472 0.034669 0.000000
vt -0.000000 0.057782 0.000000
vt 0.010472 0.057782 0.000000
vt -0.000000 0.080895 0.000000
vt 0.010472 0.080895 0.000000
vt -0.000000 0.104007 0.000000
vt 0.010472 0.104007 0.000000
vt 0.020944 0.080895 0.000000
vt 0.020944 0.104007 0.000000
vt 0.031416 0.080895 0.000000
vt 0.031416 0.104007 0.000000
vt 0.020944 0.034669 0.000000
vt 0.020944 0.057782 0.000000
vt 0.031416 0.034669 0.000000
vt 0.031416 0.057782 0.000000
vt 0.045189 -0.005236 0.000000
vt 0.049332 -0.015708 0.000000
vt 0.247855 -0.005236 0.000000
vt 0.454663 -0.015708 0.000000
vt 0.454663 -0.005236 0.000000
vt 0.247855 0.005236 0.000000
vt 0.454663 0.005236 0.000000
vt 0.454663 0.015708 0.000000
vt 0.041047 0.015708 0.000000
vt 0.042157 0.005236 0.000000
vt -0.000000 0.000000 0.000000
vt -0.010472 0.000000 0.000000
vt 0.000000 -0.061362 0.000000
vt -0.010472 -0.061362 0.000000
vt 0.000000 -0.122724 0.000000
vt -0.010472 -0.122724 0.000000
vt 0.000000 -0.184087 0.000000
vt -0.010472 -0.184087 0.000000
vt -0.020944 -0.122724 0.000000
vt -0.020944 -0.184087 0.000000
vt -0.031416 -0.122724 0.000000
vt -0.031416 -0.184087 0.000000
vt -0.020944 0.000000 0.000000
vt -0.020944 -0.061362 0.000000
vt -0.031416 0.000000 0.000000
vt -0.031416 -0.061362 0.000000
vt 0.000000 -1.611566 0.000000
vt -0.010472 -1.397350 0.000000
vt -0.010472 -1.611566 0.000000
vt -0.000000 -1.825783 0.000000
vt -0.010472 -1.825783 0.000000
vt -0.000000 -2.039999 0.000000
vt -0.010472 -2.039999 0.000000
vt -0.020944 -1.825783 0.000000
vt -0.020944 -2.039999 0.000000
vt -0.031416 -1.825783 0.000000
vt -0.031416 -2.039999 0.000000
vt -0.020944 -1.397350 0.000000
vt -0.020944 -1.611566 0.000000
vt -0.031416 -1.397350 0.000000
vt -0.031416 -1.611566 0.000000
vt -0.000000 -0.330111 0.000000
vt -0.010472 -0.268749 0.000000
vt -0.010472 -0.330111 0.000000
vt -0.000000 -0.391474 0.000000
vt -0.010472 -0.391474 0.000000
vt -0.000000 -0.452836 0.000000
vt -0.010472 -0.452836 0.000000
vt -0.020944 -0.391474 0.000000
vt -0.020944 -0.452836 0.000000
vt -0.031416 -0.391474 0.000000
vt -0.031416 -0.452836 0.000000
vt -0.020944 -0.268749 0.000000
vt -0.020944 -0.330111 0.000000
vt -0.031416 -0.268749 0.000000
vt -0.031416 -0.330111 0.000000
vt -0.259321 0.005236 0.000000
vt -0.258211 0.015708 0.000000
vt -0.465019 0.005236 0.000000
vt -0.671827 0.015708 0.000000
vt -0.671827 0.005236 0.000000
vt -0.465019 -0.005236 0.000000
vt -0.671827 -0.005236 0.000000
vt -0.671827 -0.015708 0.000000
vt -0.266495 -0.015708 0.000000
vt -0.262353 -0.005236 0.000000
vt 0.324411 0.005236 0.000000
vt 0.325520 0.015708 0.000000
vt 0.141840 0.005236 0.000000
vt -0.225520 0.015708 0.000000
vt -0.041840 0.005236 0.000000
vt -0.225520 0.005236 0.000000
vt -0.041840 -0.005236 0.000000
vt -0.225520 -0.005236 0.000000
vt -0.225520 -0.015708 0.000000
vt 0.317236 -0.015708 0.000000
vt 0.141840 -0.005236 0.000000
vt 0.321378 -0.005236 0.000000
vt 0.439645 -0.439645 0.000000
vt 0.450000 -0.431699 0.000000
vt 0.000000 -0.000000 0.000000
vt 0.462059 -0.426704 0.000000
vt 0.475000 -0.425000 0.000000
vt 1.094734 -0.107510 0.000000
vt 0.909327 -0.425000 0.000000
vt 1.052905 -0.318421 0.000000
vt 1.022158 -0.373838 0.000000
vt 0.971271 -0.411612 0.000000
vt 1.094734 0.107510 0.000000
vt 0.475000 0.425000 0.000000
vt 0.462059 0.426704 0.000000
vt 0.909327 0.425000 0.000000
vt 1.052905 0.318421 0.000000
vt 1.022158 0.373838 0.000000
vt 0.971271 0.411612 0.000000
vt 0.450000 0.431699 0.000000
vt 0.439645 0.439645 0.000000
vt -1.000000 -0.300000 0.000000
vt -0.378249 -0.300000 0.000000
vt -1.000000 -0.050000 0.000000
vt -0.378249 -0.050000 0.000000
vt -0.450000 -0.431699 0.000000
vt -0.439645 -0.439645 0.000000
vt -0.106066 -0.035355 0.000000
vt 0.000000 -0.000000 0.000000
vt -0.093125 -0.012941 0.000000
vt -0.093125 0.012941 0.000000
vt -0.106066 0.035355 0.000000
vt -0.439645 0.439645 0.000000
vt -0.450000 0.431699 0.000000
vt -0.462059 0.426704 0.000000
vt -0.475000 0.425000 0.000000
vt -0.495711 0.425000 0.000000
vt -0.495711 -0.425000 0.000000
vt -0.475000 -0.425000 0.000000
vt -0.462059 -0.426704 0.000000
vt 1.000000 -0.050000 0.000000
vt 0.378249 -0.050000 0.000000
vt 1.000000 -0.300000 0.000000
vt 0.378249 -0.300000 0.000000
vn -0.070711 0.000000 0.070711
vn -0.070711 0.000000 0.070711
vn -0.050000 0.000000 0.086603
vn -0.050000 0.000000 0.086603
vn -0.025882 0.000000 0.096593
vn 0.000000 0.000000 0.100000
vn 0.000000 0.000000 0.100000
vn -0.025882 0.000000 0.096593
vn 0.000000 0.000000 -0.100000
vn 0.000000 0.000000 -0.100000
vn 0.000000 0.000000 -0.100000
vn 0.000000 0.000000 -0.100000
vn 0.000000 0.000000 -0.100000
vn 0.000000 0.000000 -0.100000
vn -0.070711 0.000000 -0.070711
vn -0.070711 0.000000 -0.070711
vn -0.050000 0.000000 -0.086603
vn -0.050000 0.000000 -0.086603
vn -0.025882 0.000000 -0.096593
vn -0.025882 0.000000 -0.096593
vn 0.070711 0.000000 -0.070711
vn 0.070711 0.000000 -0.070711
vn 0.070711 0.000000 -0.070711
vn 0.070711 0.000000 -0.070711
vn 0.070711 -0.000000 0.070711
vn 0.070711 -0.000000 0.070711
vn 0.070711 -0.000000 0.070711
vn 0.070711 -0.000000 0.070711
vn 0.096593 -0.000000 0.025882
vn 0.096593 -0.000000 0.025882
vn 0.096593 0.000000 -0.025882
vn 0.096593 0.000000 -0.025882
vn 0.000000 -0.100000 0.000000
vn 0.000000 -0.100000 0.000000
vn 0.000000 -0.100000 0.000000
vn 0.000000 -0.100000 0.000000
vn 0.000000 -0.100000 0.000000
vn 0.000000 -0.100000 0.000000
vn 0.000000 -0.100000 0.000000
vn 0.000000 -0.100000 0.000000
vn 0.000000 -0.100000 0.000000
vn 0.000000 -0.100000 0.000000
vn 0.000000 -0.100000 0.000000
vn 0.000000 -0.100000 0.000000
vn 0.000000 -0.100000 0.000000
vn 0.000000 -0.100000 0.000000
vn 0.000000 -0.100000 0.000000
vn 0.000000 -0.100000 0.000000
vn 0.000000 0.000000 0.100000
vn 0.000000 0.000000 0.100000
vn 0.000000 0.000000 0.100000
vn 0.000000 0.000000 0.100000
vn -0.095719 0.000000 0.028947
vn -0.095719 0.000000 0.028947
vn -0.075221 0.000000 0.065892
vn -0.075221 0.000000 0.065892
vn -0.041296 0.000000 0.091075
vn -0.041296 0.000000 0.091075
vn -0.095719 0.000000 -0.028947
vn -0.095719 0.000000 -0.028947
vn -0.099521 0.000000 -0.009774
vn -0.099521 0.000000 -0.009774
vn -0.099521 0.000000 0.009774
vn -0.099521 0.000000 0.009774
vn -0.041296 0.000000 -0.091075
vn -0.041296 0.000000 -0.091075
vn -0.075221 0.000000 -0.065892
vn -0.075221 0.000000 -0.065892
vn 0.035355 -0.086603 0.035355
vn -0.000000 -0.100000 -0.000000
vn 0.035355 -0.086603 0.035355
vn 0.035355 -0.086603 0.035355
vn 0.061237 -0.050000 0.061237
vn 0.061237 -0.050000 0.061237
vn 0.070711 0.000000 0.070711
vn 0.061237 -0.050000 0.061237
vn 0.070711 0.000000 0.070711
vn 0.061237 -0.050000 0.061237
vn 0.035355 -0.086603 0.035355
vn 0.083652 -0.050000 0.022414
vn 0.083652 -0.050000 -0.022414
vn 0.061237 -0.050000 -0.061237
vn 0.048296 -0.086603 -0.012941
vn 0.035355 -0.086603 -0.035355
vn 0.048296 -0.086603 0.012941
vn 0.000000 -0.086603 -0.050000
vn 0.000000 -0.086603 -0.050000
vn 0.000000 -0.086603 -0.050000
vn 0.000000 -0.050000 -0.086603
vn 0.000000 -0.050000 -0.086603
vn 0.000000 -0.050000 -0.086603
vn -0.035764 -0.050000 -0.078873
vn -0.065143 -0.050000 -0.057064
vn -0.082895 -0.050000 -0.025069
vn -0.037611 -0.086603 -0.032946
vn -0.047859 -0.086603 -0.014474
vn -0.020648 -0.086603 -0.045537
vn -0.086188 -0.050000 -0.008464
vn -0.086188 -0.050000 0.008464
vn -0.082895 -0.050000 0.025069
vn -0.049761 -0.086603 0.004887
vn -0.047859 -0.086603 0.014474
vn -0.049761 -0.086603 -0.004887
vn -0.065143 -0.050000 0.057064
vn -0.035764 -0.050000 0.078873
vn -0.000000 -0.050000 0.086603
vn -0.020648 -0.086603 0.045537
vn -0.000000 -0.086603 0.050000
vn -0.037611 -0.086603 0.032946
vn 0.000000 -0.050000 0.086603
vn 0.000000 -0.050000 0.086603
vn 0.000000 -0.086603 0.050000
vn 0.000000 -0.086603 0.050000
vn 0.061237 -0.050000 -0.061237
vn 0.070711 0.000000 -0.070711
vn 0.061237 -0.050000 -0.061237
vn 0.070711 -0.000000 -0.070711
vn 0.061237 -0.050000 -0.061237
vn 0.061237 -0.050000 -0.061237
vn 0.035355 -0.086603 -0.035355
vn 0.000000 -0.100000 -0.000000
vn -0.000000 -0.100000 0.000000
vn 0.035355 -0.086603 -0.035355
vn 0.035355 -0.086603 -0.035355
vn -0.000000 0.100000 -0.000000
vn -0.000000 0.100000 -0.000000
vn -0.000000 0.100000 -0.000000
vn -0.000000 0.100000 -0.000000
vn -0.000000 0.100000 -0.000000
vn -0.000000 0.100000 -0.000000
vn -0.000000 0.100000 -0.000000
vn -0.000000 0.100000 -0.000000
vn -0.000000 0.100000 -0.000000
vn -0.000000 0.100000 -0.000000
vn -0.000000 0.100000 -0.000000
vn -0.000000 0.100000 -0.000000
vn -0.000000 0.100000 -0.000000
vn -0.000000 0.100000 -0.000000
vn -0.000000 0.100000 -0.000000
vn -0.000000 0.100000 -0.000000
vn -0.000000 0.100000 -0.000000
vn -0.000000 0.100000 -0.000000
vn -0.000000 0.100000 -0.000000
vn 0.070711 0.000000 0.070711
vn 0.070711 0.000000 0.070711
vn 0.070711 0.000000 0.070711
vn 0.070711 0.000000 0.070711
vn 0.000000 -0.100000 0.000000
vn 0.000000 -0.100000 0.000000
vn 0.000000 -0.100000 0.000000
vn 0.000000 -0.100000 0.000000
vn 0.000000 -0.100000 0.000000
vn 0.000000 -0.100000 0.000000
vn 0.000000 -0.100000 0.000000
vn 0.000000 -0.100000 0.000000
vn 0.000000 -0.100000 0.000000
vn 0.000000 -0.100000 0.000000
vn 0.000000 -0.100000 0.000000
vn 0.000000 -0.100000 0.000000
vn 0.000000 -0.100000 0.000000
vn 0.000000 -0.100000 0.000000
vn 0.000000 -0.100000 0.000000
vn 0.070711 0.000000 -0.070711
vn 0.070711 0.000000 -0.070711
vn 0.070711 0.000000 -0.070711
vn 0.070711 0.000000 -0.070711
usemtl Paint_-_Enamel_Glossy_(Black)
f 1/1/1 2/2/2 8/3/3
f 8/3/3 2/2/2 3/4/4
f 8/3/3 3/4/4 4/5/5
f 5/6/6 6/7/7 4/5/5
f 4/5/5 6/7/7 7/8/8
f 4/5/5 7/8/8 8/3/3
f 9/9/9 10/10/10 14/11/11
f 14/11/11 10/10/10 11/12/12
f 14/11/11 11/12/12 12/13/13
f 12/13/13 13/14/14 14/11/11
f 15/15/15 16/16/16 20/17/17
f 20/17/17 16/16/16 17/18/18
f 20/17/17 17/18/18 18/19/19
f 13/20/14 12/21/13 18/19/19
f 18/19/19 12/21/13 19/22/20
f 18/19/19 19/22/20 20/17/17
f 21/23/21 9/24/22 22/25/23
f 22/25/23 9/24/22 14/26/24
f 23/27/25 24/28/26 26/29/27
f 26/29/27 24/28/26 25/30/28
f 25/31/28 24/32/26 30/33/29
f 30/33/29 24/32/26 27/34/30
f 30/33/29 27/34/30 29/35/31
f 29/35/31 27/34/30 28/36/32
f 29/35/31 28/36/32 22/37/23
f 22/37/23 28/36/32 21/38/21
f 46/39/33 31/40/34 36/41/35
f 36/41/35 31/40/34 32/42/36
f 36/41/35 32/42/36 35/43/37
f 35/43/37 32/42/36 34/44/38
f 34/44/38 32/42/36 33/45/39
f 36/41/35 37/46/40 46/39/33
f 46/39/33 37/46/40 43/47/41
f 46/39/33 43/47/41 44/48/42
f 38/49/43 41/50/44 37/46/40
f 37/46/40 41/50/44 42/51/45
f 37/46/40 42/51/45 43/47/41
f 38/49/43 39/52/46 41/50/44
f 41/50/44 39/52/46 40/53/47
f 44/48/42 45/54/48 46/39/33
f 23/55/49 26/56/50 47/57/51
f 47/57/51 26/56/50 48/58/52
f 48/58/52 26/56/50 5/59/6
f 5/59/6 26/56/50 6/60/7
f 54/61/53 49/62/54 53/63/55
f 53/63/55 49/62/54 50/64/56
f 53/63/55 50/64/56 52/65/57
f 52/65/57 50/64/56 51/66/58
f 52/65/57 51/66/58 48/67/52
f 48/67/52 51/66/58 47/68/51
f 60/69/59 55/70/60 59/71/61
f 59/71/61 55/70/60 56/72/62
f 59/71/61 56/72/62 58/73/63
f 58/73/63 56/72/62 57/74/64
f 58/73/63 57/74/64 54/75/53
f 54/75/53 57/74/64 49/76/54
f 11/77/12 10/78/10 64/79/65
f 64/79/65 10/78/10 61/80/66
f 64/79/65 61/80/66 63/81/67
f 63/81/67 61/80/66 62/82/68
f 63/81/67 62/82/68 60/83/59
f 60/83/59 62/82/68 55/84/60
f 46/85/33 69/86/69 31/87/70
f 31/87/70 69/86/69 70/88/71
f 31/87/70 70/88/71 68/89/72
f 68/89/72 70/88/71 72/90/73
f 68/89/72 72/90/73 67/91/74
f 67/91/74 72/90/73 23/92/75
f 23/92/75 72/90/73 71/93/76
f 23/92/75 71/93/76 24/94/77
f 24/94/77 71/93/76 66/95/78
f 66/95/78 71/93/76 65/96/79
f 65/96/79 71/93/76 69/86/69
f 65/96/79 69/86/69 46/85/33
f 72/90/73 70/88/71 69/86/69
f 72/90/73 69/86/69 71/93/76
f 24/97/26 66/98/78 27/99/30
f 27/99/30 66/98/78 76/100/80
f 27/99/30 76/100/80 28/101/32
f 28/101/32 76/100/80 78/102/81
f 28/101/32 78/102/81 21/103/21
f 21/103/21 78/102/81 74/104/82
f 74/104/82 78/102/81 77/105/83
f 74/104/82 77/105/83 73/106/84
f 73/106/84 77/105/83 44/107/42
f 73/106/84 44/107/42 43/108/41
f 66/98/78 65/109/79 76/100/80
f 76/100/80 65/109/79 75/110/85
f 76/100/80 75/110/85 78/102/81
f 78/102/81 75/110/85 77/105/83
f 65/109/79 46/111/33 75/110/85
f 75/110/85 46/111/33 45/112/48
f 75/110/85 45/112/48 77/105/83
f 77/105/83 45/112/48 44/107/42
f 82/113/86 42/114/45 83/115/87
f 83/115/87 42/114/45 41/116/44
f 83/115/87 41/116/44 79/117/88
f 83/115/87 79/117/88 84/118/89
f 84/118/89 79/117/88 80/119/90
f 84/118/89 80/119/90 10/120/10
f 10/120/10 9/121/9 84/118/89
f 84/118/89 9/121/9 81/122/91
f 84/118/89 81/122/91 82/113/86
f 84/118/89 82/113/86 83/115/87
f 10/123/10 80/124/90 61/125/66
f 61/125/66 80/124/90 88/126/92
f 61/125/66 88/126/92 62/127/68
f 62/127/68 88/126/92 90/128/93
f 62/127/68 90/128/93 55/129/60
f 55/129/60 90/128/93 86/130/94
f 86/130/94 90/128/93 89/131/95
f 86/130/94 89/131/95 85/132/96
f 85/132/96 89/131/95 39/133/46
f 85/132/96 39/133/46 38/134/43
f 80/124/90 79/135/88 88/126/92
f 88/126/92 79/135/88 87/136/97
f 88/126/92 87/136/97 90/128/93
f 90/128/93 87/136/97 89/131/95
f 79/135/88 41/137/44 87/136/97
f 87/136/97 41/137/44 40/138/47
f 87/136/97 40/138/47 89/131/95
f 89/131/95 40/138/47 39/133/46
f 55/129/60 86/130/94 56/139/62
f 56/139/62 86/140/94 94/141/98
f 56/139/62 94/141/98 57/142/64
f 57/142/64 94/141/98 96/143/99
f 57/142/64 96/143/99 49/144/54
f 49/144/54 96/143/99 92/145/100
f 92/145/100 96/143/99 95/146/101
f 92/145/100 95/146/101 91/147/102
f 91/147/102 95/146/101 36/148/35
f 91/147/102 36/148/35 35/149/37
f 86/140/94 85/150/96 94/141/98
f 94/141/98 85/150/96 93/151/103
f 94/141/98 93/151/103 96/143/99
f 96/143/99 93/151/103 95/146/101
f 85/150/96 38/152/43 93/151/103
f 93/151/103 38/152/43 37/153/40
f 93/151/103 37/153/40 95/146/101
f 95/146/101 37/153/40 36/148/35
f 49/144/54 92/145/100 50/154/56
f 50/154/56 92/155/100 100/156/104
f 50/154/56 100/156/104 51/157/58
f 51/157/58 100/156/104 102/158/105
f 51/157/58 102/158/105 47/159/51
f 47/159/51 102/158/105 98/160/106
f 98/160/106 102/158/105 101/161/107
f 98/160/106 101/161/107 97/162/108
f 97/162/108 101/161/107 33/163/39
f 97/162/108 33/163/39 32/164/36
f 92/155/100 91/165/102 100/156/104
f 100/156/104 91/165/102 99/166/109
f 100/156/104 99/166/109 102/158/105
f 102/158/105 99/166/109 101/161/107
f 91/165/102 35/167/37 99/166/109
f 99/166/109 35/167/37 34/168/38
f 99/166/109 34/168/38 101/161/107
f 101/161/107 34/168/38 33/163/39
f 67/169/110 23/170/49 103/171/111
f 103/171/111 23/170/49 47/172/51
f 103/171/111 47/172/51 98/173/106
f 103/171/111 98/173/106 104/174/112
f 104/174/112 98/173/106 97/175/108
f 104/174/112 97/175/108 32/176/36
f 32/176/36 31/177/34 104/174/112
f 104/174/112 31/177/34 68/178/113
f 104/174/112 68/178/113 103/171/111
f 103/171/111 68/178/113 67/169/110
f 81/179/114 9/180/115 106/181/116
f 106/181/116 9/180/115 21/182/117
f 106/181/116 21/182/117 105/183/118
f 105/183/118 21/182/117 74/184/119
f 105/183/118 74/184/119 107/185/120
f 107/185/120 74/184/119 73/186/84
f 107/185/120 73/186/84 43/187/121
f 43/187/121 42/188/122 107/185/120
f 107/185/120 42/188/122 108/189/123
f 107/185/120 108/189/123 105/183/118
f 105/183/118 108/189/123 106/181/116
f 42/188/122 82/190/124 108/189/123
f 108/189/123 82/190/124 106/181/116
f 82/190/124 81/179/114 106/181/116
f 15/191/125 20/192/126 109/193/127
f 109/193/127 20/192/126 19/194/128
f 109/193/127 19/194/128 12/195/129
f 109/193/127 12/195/129 59/196/130
f 59/196/130 12/195/129 11/197/131
f 59/196/130 11/197/131 60/198/132
f 60/198/132 11/197/131 63/199/133
f 63/199/133 11/197/131 64/200/134
f 59/196/130 58/201/135 109/193/127
f 109/193/127 58/201/135 5/202/136
f 109/193/127 5/202/136 4/203/137
f 5/202/136 58/201/135 48/204/138
f 48/204/138 58/201/135 54/205/139
f 48/204/138 54/205/139 53/206/140
f 53/206/140 52/207/141 48/204/138
f 4/203/137 3/208/142 109/193/127
f 109/193/127 3/208/142 2/209/143
f 109/210/144 2/211/145 110/212/146
f 110/212/146 2/211/145 1/213/147
f 17/214/148 16/215/149 22/216/150
f 22/216/150 16/215/149 110/217/151
f 22/216/150 110/217/151 29/218/152
f 29/218/152 110/217/151 30/219/153
f 30/219/153 110/217/151 25/220/154
f 25/220/154 110/217/151 1/221/155
f 25/220/154 1/221/155 8/222/156
f 8/222/156 7/223/157 25/220/154
f 25/220/154 7/223/157 6/224/158
f 25/220/154 6/224/158 26/225/159
f 14/226/160 13/227/161 22/216/150
f 22/216/150 13/227/161 18/228/162
f 22/216/150 18/228/162 17/214/148
f 110/229/163 16/230/164 109/231/165
f 109/231/165 16/230/164 15/232/166
# 110 vertices
# 232 texture params
# 166 normals
# 216 facets

# 1 groups
