# WaveFront *.obj file (generated by Autodesk ATF)

mtllib AyaNeo-01 v51_AyaNeo-01 v51_DPadUp_AyaNeo-01 v51.mtl

g DPadUp

v -32.000000 -9.000000 -5.500000
v -32.000000 -11.500000 -5.500000
v -36.396447 -11.500000 -1.103553
v -36.396447 -9.000000 -1.103553
v -36.316987 -11.500000 -1.000000
v -36.267037 -11.500000 -0.879410
v -36.250000 -11.500000 -0.750000
v -36.250000 -9.000000 -0.750000
v -36.267037 -9.000000 -0.879410
v -36.316987 -9.000000 -1.000000
v -27.603553 -11.500000 -1.103553
v -27.683013 -11.500000 -1.000000
v -27.732963 -11.500000 -0.879410
v -27.750000 -11.500000 -0.750000
v -27.750000 -11.500000 -0.542893
v -31.646447 -11.500000 -4.439340
v -31.870590 -11.500000 -4.568749
v -32.129410 -11.500000 -4.568749
v -32.353553 -11.500000 -4.439340
v -36.250000 -11.500000 -0.542893
v -36.250000 -11.800000 -0.542893
v -32.353553 -11.800000 -4.439340
v -32.334607 -11.900000 -4.420393
v -32.282843 -11.973205 -4.368629
v -32.212132 -12.000000 -4.297918
v -36.050000 -12.000000 -0.460051
v -36.150000 -11.973205 -0.501472
v -36.223205 -11.900000 -0.531794
v -33.633422 -11.900000 -3.121577
v -34.932238 -11.900000 -1.822762
v -33.581658 -11.973205 -3.069814
v -34.880474 -11.973205 -1.770998
v -27.750000 -11.800000 -0.542893
v -27.750000 -11.800000 3.593267
v -27.776795 -11.900000 3.593267
v -27.850000 -11.973205 3.593267
v -27.950000 -12.000000 3.593267
v -27.950000 -12.000000 -0.460051
v -27.850000 -11.973205 -0.501472
v -27.776795 -11.900000 -0.531794
v -27.776795 -11.900000 1.525187
v -27.850000 -11.973205 1.525187
v -28.815789 -11.800000 5.029046
v -28.823546 -11.900000 5.003398
v -28.844737 -11.973205 4.933327
v -28.873684 -12.000000 4.837609
v -28.393403 -12.000000 4.571143
v -28.066029 -12.000000 4.130120
v -27.883879 -11.800000 4.212713
v -28.261619 -11.800000 4.721585
v -28.327511 -11.973205 4.646364
v -28.279274 -11.900000 4.701430
v -27.974954 -11.973205 4.171417
v -27.908283 -11.900000 4.201648
v -35.184211 -11.800000 5.029046
v -35.176454 -11.900000 5.003398
v -35.155263 -11.973205 4.933327
v -35.126316 -12.000000 4.837609
v -33.580163 -12.000000 5.183777
v -32.000000 -12.000000 5.300000
v -30.419837 -12.000000 5.183777
v -30.390575 -11.800000 5.381624
v -32.000000 -11.800000 5.500000
v -33.609425 -11.800000 5.381624
v -33.594794 -11.973205 5.282701
v -33.605505 -11.900000 5.355118
v -32.000000 -11.973205 5.400000
v -32.000000 -11.900000 5.473205
v -30.405206 -11.973205 5.282701
v -30.394495 -11.900000 5.355118
v -36.250000 -11.800000 3.593267
v -36.223205 -11.900000 3.593267
v -36.150000 -11.973205 3.593267
v -36.050000 -12.000000 3.593267
v -35.933971 -12.000000 4.130120
v -35.606597 -12.000000 4.571143
v -35.738381 -11.800000 4.721585
v -36.116121 -11.800000 4.212713
v -36.025046 -11.973205 4.171417
v -36.091717 -11.900000 4.201648
v -35.672489 -11.973205 4.646364
v -35.720726 -11.900000 4.701430
v -36.150000 -11.973205 1.525187
v -36.223205 -11.900000 1.525187
v -31.646447 -11.800000 -4.439340
v -31.665393 -11.900000 -4.420393
v -31.717157 -11.973205 -4.368629
v -31.787868 -12.000000 -4.297918
v -31.922354 -12.000000 -4.375564
v -32.077646 -12.000000 -4.375564
v -32.129410 -11.800000 -4.568749
v -31.870590 -11.800000 -4.568749
v -31.896472 -11.973205 -4.472157
v -31.877526 -11.900000 -4.542867
v -32.103528 -11.973205 -4.472157
v -32.122474 -11.900000 -4.542867
v -30.418342 -11.973205 -3.069814
v -29.119526 -11.973205 -1.770998
v -30.366578 -11.900000 -3.121577
v -29.067762 -11.900000 -1.822762
v -35.184211 -9.000000 5.029046
v -35.738381 -9.000000 4.721585
v -36.116121 -9.000000 4.212713
v -36.250000 -9.000000 3.593267
v -28.815789 -9.000000 5.029046
v -30.390575 -9.000000 5.381624
v -32.000000 -9.000000 5.500000
v -33.609425 -9.000000 5.381624
v -27.750000 -9.000000 3.593267
v -27.883879 -9.000000 4.212713
v -28.261619 -9.000000 4.721585
v -27.750000 -9.000000 -0.750000
v -27.603553 -9.000000 -1.103553
v -27.732963 -9.000000 -0.879410
v -27.683013 -9.000000 -1.000000
vt 1.000000 -0.050000 0.000000
vt 0.378249 -0.050000 0.000000
vt 1.000000 -0.300000 0.000000
vt 0.378249 -0.300000 0.000000
vt 0.000000 0.039270 0.000000
vt 0.250000 0.039270 0.000000
vt -0.000000 0.052360 0.000000
vt 0.250000 0.052360 0.000000
vt 0.250000 0.065450 0.000000
vt 0.250000 0.078540 0.000000
vt -0.000000 0.078540 0.000000
vt -0.000000 0.065450 0.000000
vt 0.439645 0.439645 0.000000
vt 0.035355 0.106066 0.000000
vt 0.000000 -0.000000 0.000000
vt 0.012941 0.093125 0.000000
vt -0.012941 0.093125 0.000000
vt 0.431699 0.450000 0.000000
vt 0.426704 0.462059 0.000000
vt 0.425000 0.475000 0.000000
vt 0.425000 0.495711 0.000000
vt -0.035355 0.106066 0.000000
vt -0.439645 0.439645 0.000000
vt -0.431699 0.450000 0.000000
vt -0.426704 0.462059 0.000000
vt -0.425000 0.475000 0.000000
vt -0.425000 0.495711 0.000000
vt 0.324411 0.005236 0.000000
vt 0.325520 0.015708 0.000000
vt 0.141840 0.005236 0.000000
vt -0.225520 0.015708 0.000000
vt -0.041840 0.005236 0.000000
vt -0.225520 0.005236 0.000000
vt -0.041840 -0.005236 0.000000
vt -0.225520 -0.005236 0.000000
vt -0.225520 -0.015708 0.000000
vt 0.317236 -0.015708 0.000000
vt 0.141840 -0.005236 0.000000
vt 0.321378 -0.005236 0.000000
vt -0.259321 0.005236 0.000000
vt -0.258211 0.015708 0.000000
vt -0.465019 0.005236 0.000000
vt -0.671827 0.015708 0.000000
vt -0.671827 0.005236 0.000000
vt -0.465019 -0.005236 0.000000
vt -0.671827 -0.005236 0.000000
vt -0.671827 -0.015708 0.000000
vt -0.266495 -0.015708 0.000000
vt -0.262353 -0.005236 0.000000
vt -0.000000 0.410505 0.000000
vt -0.010472 0.410505 0.000000
vt -0.000000 0.349142 0.000000
vt -0.010472 0.349142 0.000000
vt -0.000000 0.287780 0.000000
vt -0.010472 0.287780 0.000000
vt -0.000000 0.226418 0.000000
vt -0.010472 0.226418 0.000000
vt -0.020944 0.287780 0.000000
vt -0.020944 0.226418 0.000000
vt -0.031416 0.287780 0.000000
vt -0.031416 0.226418 0.000000
vt -0.020944 0.410505 0.000000
vt -0.020944 0.349142 0.000000
vt -0.031416 0.410505 0.000000
vt -0.031416 0.349142 0.000000
vt -0.000000 -3.116025 0.000000
vt -0.010472 -3.116025 0.000000
vt -0.000000 -3.276687 0.000000
vt -0.010472 -3.276687 0.000000
vt -0.000000 -3.437349 0.000000
vt -0.010472 -3.437349 0.000000
vt -0.000000 -3.598011 0.000000
vt -0.010472 -3.598011 0.000000
vt -0.000000 -3.758673 0.000000
vt -0.010472 -3.758673 0.000000
vt -0.020944 -3.598011 0.000000
vt -0.020944 -3.758673 0.000000
vt -0.031416 -3.598011 0.000000
vt -0.031416 -3.758673 0.000000
vt -0.020944 -3.116025 0.000000
vt -0.020944 -3.276687 0.000000
vt -0.020944 -3.437349 0.000000
vt -0.031416 -3.116025 0.000000
vt -0.031416 -3.276687 0.000000
vt -0.031416 -3.437349 0.000000
vt -0.000000 -0.226418 0.000000
vt -0.010472 -0.226418 0.000000
vt -0.000000 -0.287780 0.000000
vt -0.010472 -0.287780 0.000000
vt -0.000000 -0.349142 0.000000
vt -0.010472 -0.349142 0.000000
vt -0.000000 -0.410505 0.000000
vt -0.010472 -0.410505 0.000000
vt -0.020944 -0.349142 0.000000
vt -0.020944 -0.410505 0.000000
vt -0.031416 -0.349142 0.000000
vt -0.031416 -0.410505 0.000000
vt -0.020944 -0.226418 0.000000
vt -0.020944 -0.287780 0.000000
vt -0.031416 -0.226418 0.000000
vt -0.031416 -0.287780 0.000000
vt 0.045189 -0.005236 0.000000
vt 0.049332 -0.015708 0.000000
vt 0.247855 -0.005236 0.000000
vt 0.454663 -0.015708 0.000000
vt 0.454663 -0.005236 0.000000
vt 0.247855 0.005236 0.000000
vt 0.454663 0.005236 0.000000
vt 0.454663 0.015708 0.000000
vt 0.041047 0.015708 0.000000
vt 0.042157 0.005236 0.000000
vt -0.000000 0.104007 0.000000
vt 0.010472 0.104007 0.000000
vt -0.000000 0.127120 0.000000
vt 0.010472 0.127120 0.000000
vt -0.000000 0.150233 0.000000
vt 0.010472 0.150233 0.000000
vt -0.000000 0.173346 0.000000
vt 0.010472 0.173346 0.000000
vt 0.020944 0.150233 0.000000
vt 0.020944 0.173346 0.000000
vt 0.031416 0.150233 0.000000
vt 0.031416 0.173346 0.000000
vt 0.020944 0.104007 0.000000
vt 0.020944 0.127120 0.000000
vt 0.031416 0.104007 0.000000
vt 0.031416 0.127120 0.000000
vt -0.075000 -0.015708 0.000000
vt -0.258680 -0.005236 0.000000
vt -0.617756 -0.015708 0.000000
vt -0.442361 -0.005236 0.000000
vt -0.621899 -0.005236 0.000000
vt -0.442361 0.005236 0.000000
vt -0.624931 0.005236 0.000000
vt -0.626041 0.015708 0.000000
vt -0.258680 0.005236 0.000000
vt -0.075000 0.015708 0.000000
vt -0.075000 0.005236 0.000000
vt -0.075000 -0.005236 0.000000
vt -0.000000 0.191568 0.000000
vt -0.280000 0.191568 0.000000
vt -0.000000 0.127712 0.000000
vt -0.280000 0.127712 0.000000
vt -0.000000 0.063856 0.000000
vt -0.280000 0.063856 0.000000
vt -0.000000 0.000000 0.000000
vt -0.280000 0.000000 0.000000
vt -0.000000 0.646089 0.000000
vt -0.280000 0.646089 0.000000
vt -0.000000 0.484567 0.000000
vt -0.280000 0.484567 0.000000
vt -0.000000 0.323045 0.000000
vt -0.280000 0.323045 0.000000
vt -0.000000 0.161522 0.000000
vt -0.280000 0.161522 0.000000
vt -0.000000 0.000000 0.000000
vt -0.280000 0.000000 0.000000
vt -0.000000 0.191568 0.000000
vt -0.280000 0.191568 0.000000
vt -0.000000 0.127712 0.000000
vt -0.280000 0.127712 0.000000
vt -0.000000 0.063856 0.000000
vt -0.280000 0.063856 0.000000
vt -0.000000 0.000000 0.000000
vt -0.280000 0.000000 0.000000
vt 0.020711 0.280000 0.000000
vt 0.020711 0.250000 0.000000
vt 0.434327 0.280000 0.000000
vt 0.434327 0.000000 0.000000
vt 0.000000 0.000000 0.000000
vt -0.000000 0.250000 0.000000
vt 0.405000 0.909327 0.000000
vt 0.158016 1.068378 0.000000
vt 0.405000 0.503995 0.000000
vt -0.000000 1.080000 0.000000
vt 0.021213 0.120208 0.000000
vt -0.021213 0.120208 0.000000
vt 0.007765 0.112444 0.000000
vt -0.007765 0.112444 0.000000
vt 0.393397 0.963012 0.000000
vt 0.360660 1.007114 0.000000
vt 0.312632 1.033761 0.000000
vt -0.405000 0.503995 0.000000
vt -0.158016 1.068378 0.000000
vt -0.405000 0.909327 0.000000
vt -0.312632 1.033761 0.000000
vt -0.360660 1.007114 0.000000
vt -0.393397 0.963012 0.000000
vt -0.050000 -0.039270 0.000000
vt -0.020000 -0.039270 0.000000
vt -0.050000 -0.013090 0.000000
vt -0.020000 -0.013090 0.000000
vt -0.050000 0.013090 0.000000
vt -0.020000 0.013090 0.000000
vt -0.050000 0.039270 0.000000
vt -0.020000 0.039270 0.000000
vt -0.601041 0.020000 0.000000
vt -0.050000 0.020000 0.000000
vt -0.601041 0.050000 0.000000
vt -0.050000 0.050000 0.000000
vt -0.551041 0.020000 0.000000
vt 0.000000 0.020000 0.000000
vt -0.551041 0.050000 0.000000
vt 0.000000 0.050000 0.000000
vt 0.413616 0.280000 0.000000
vt 0.000000 0.280000 0.000000
vt 0.413616 0.250000 0.000000
vt 0.000000 0.000000 0.000000
vt 0.434327 0.000000 0.000000
vt 0.434327 0.250000 0.000000
vt -0.439645 0.439645 0.000000
vt 0.000000 -0.000000 0.000000
vt -0.431699 0.450000 0.000000
vt -0.426704 0.462059 0.000000
vt -0.425000 0.475000 0.000000
vt 0.000000 1.100000 0.000000
vt -0.160942 1.088162 0.000000
vt 0.439645 0.439645 0.000000
vt 0.431699 0.450000 0.000000
vt 0.426704 0.462059 0.000000
vt 0.425000 0.475000 0.000000
vt 0.425000 0.909327 0.000000
vt 0.160942 1.088162 0.000000
vt 0.411612 0.971271 0.000000
vt 0.373838 1.022158 0.000000
vt 0.318421 1.052905 0.000000
vt -0.425000 0.909327 0.000000
vt -0.318421 1.052905 0.000000
vt -0.373838 1.022158 0.000000
vt -0.411612 0.971271 0.000000
vt 0.250000 0.039270 0.000000
vt 0.000000 0.039270 0.000000
vt 0.250000 0.026180 0.000000
vt -0.000000 0.026180 0.000000
vt -0.000000 0.013090 0.000000
vt 0.000000 0.000000 0.000000
vt 0.250000 0.000000 0.000000
vt 0.250000 0.013090 0.000000
vt 1.000000 -0.300000 0.000000
vt 1.621751 -0.300000 0.000000
vt 1.000000 -0.050000 0.000000
vt 1.621751 -0.050000 0.000000
vn -0.070711 0.000000 -0.070711
vn -0.070711 0.000000 -0.070711
vn -0.070711 0.000000 -0.070711
vn -0.070711 0.000000 -0.070711
vn -0.070711 0.000000 0.070711
vn -0.070711 0.000000 0.070711
vn -0.086603 0.000000 0.050000
vn -0.086603 0.000000 0.050000
vn -0.096593 0.000000 0.025882
vn -0.100000 0.000000 0.000000
vn -0.100000 0.000000 0.000000
vn -0.096593 0.000000 0.025882
vn 0.000000 -0.100000 0.000000
vn 0.000000 -0.100000 0.000000
vn 0.000000 -0.100000 0.000000
vn 0.000000 -0.100000 0.000000
vn 0.000000 -0.100000 0.000000
vn 0.000000 -0.100000 0.000000
vn 0.000000 -0.100000 0.000000
vn 0.000000 -0.100000 0.000000
vn 0.000000 -0.100000 0.000000
vn 0.000000 -0.100000 0.000000
vn 0.000000 -0.100000 0.000000
vn 0.000000 -0.100000 0.000000
vn 0.000000 -0.100000 0.000000
vn 0.000000 -0.100000 0.000000
vn 0.000000 -0.100000 0.000000
vn -0.061237 -0.050000 -0.061237
vn -0.070711 0.000000 -0.070711
vn -0.061237 -0.050000 -0.061237
vn -0.070711 -0.000000 -0.070711
vn -0.061237 -0.050000 -0.061237
vn -0.061237 -0.050000 -0.061237
vn -0.035355 -0.086603 -0.035355
vn -0.035355 -0.086603 -0.035355
vn -0.000000 -0.100000 -0.000000
vn 0.000000 -0.100000 0.000000
vn -0.035355 -0.086603 -0.035355
vn -0.035355 -0.086603 -0.035355
vn 0.086603 -0.050000 0.000000
vn 0.100000 0.000000 0.000000
vn 0.086603 -0.050000 0.000000
vn 0.100000 0.000000 0.000000
vn 0.086603 -0.050000 0.000000
vn 0.050000 -0.086603 0.000000
vn 0.050000 -0.086603 0.000000
vn 0.000000 -0.100000 0.000000
vn 0.000000 -0.100000 0.000000
vn 0.050000 -0.086603 0.000000
vn 0.028947 0.000000 0.095719
vn 0.025069 -0.050000 0.082895
vn 0.065892 0.000000 0.075221
vn 0.057064 -0.050000 0.065143
vn 0.091075 0.000000 0.041296
vn 0.078873 -0.050000 0.035764
vn 0.045537 -0.086603 0.020648
vn -0.000000 -0.100000 -0.000000
vn 0.014474 -0.086603 0.047859
vn 0.032946 -0.086603 0.037611
vn 0.000000 -0.100000 0.000000
vn -0.000000 -0.100000 -0.000000
vn -0.028947 0.000000 0.095719
vn -0.025069 -0.050000 0.082895
vn -0.014631 0.000000 0.098924
vn -0.012671 -0.050000 0.085671
vn -0.000000 0.000000 0.100000
vn -0.000000 -0.050000 0.086603
vn 0.014631 0.000000 0.098924
vn 0.012671 -0.050000 0.085671
vn 0.007316 -0.086603 0.049462
vn 0.000000 -0.100000 0.000000
vn -0.014474 -0.086603 0.047859
vn -0.007316 -0.086603 0.049462
vn -0.000000 -0.086603 0.050000
vn -0.000000 -0.100000 0.000000
vn -0.000000 -0.100000 0.000000
vn -0.000000 -0.100000 0.000000
vn -0.100000 0.000000 0.000000
vn -0.086603 -0.050000 0.000000
vn -0.091075 0.000000 0.041296
vn -0.078873 -0.050000 0.035764
vn -0.065892 0.000000 0.075221
vn -0.057064 -0.050000 0.065143
vn -0.032946 -0.086603 0.037611
vn 0.000000 -0.100000 -0.000000
vn -0.050000 -0.086603 0.000000
vn -0.045537 -0.086603 0.020648
vn 0.000000 -0.100000 -0.000000
vn 0.000000 -0.100000 -0.000000
vn -0.050000 -0.086603 0.000000
vn 0.000000 -0.100000 0.000000
vn -0.050000 -0.086603 0.000000
vn -0.086603 -0.050000 0.000000
vn -0.100000 0.000000 -0.000000
vn -0.086603 -0.050000 0.000000
vn 0.070711 0.000000 -0.070711
vn 0.061237 -0.050000 -0.061237
vn 0.025882 0.000000 -0.096593
vn 0.022414 -0.050000 -0.083652
vn -0.025882 0.000000 -0.096593
vn -0.022414 -0.050000 -0.083652
vn -0.070711 0.000000 -0.070711
vn -0.061237 -0.050000 -0.061237
vn -0.012941 -0.086603 -0.048296
vn -0.035355 -0.086603 -0.035355
vn 0.000000 -0.100000 0.000000
vn 0.000000 -0.100000 0.000000
vn 0.035355 -0.086603 -0.035355
vn 0.012941 -0.086603 -0.048296
vn 0.000000 -0.100000 -0.000000
vn 0.000000 -0.100000 -0.000000
vn -0.000000 -0.100000 0.000000
vn 0.035355 -0.086603 -0.035355
vn -0.000000 -0.100000 0.000000
vn 0.035355 -0.086603 -0.035355
vn 0.035355 -0.086603 -0.035355
vn 0.061237 -0.050000 -0.061237
vn 0.061237 -0.050000 -0.061237
vn 0.070711 0.000000 -0.070711
vn 0.061237 -0.050000 -0.061237
vn 0.070711 0.000000 -0.070711
vn -0.100000 0.000000 0.000000
vn -0.091075 0.000000 0.041296
vn -0.065892 0.000000 0.075221
vn -0.028947 0.000000 0.095719
vn -0.014631 0.000000 0.098924
vn -0.000000 0.000000 0.100000
vn 0.014631 0.000000 0.098924
vn 0.028947 0.000000 0.095719
vn 0.065892 0.000000 0.075221
vn 0.091075 0.000000 0.041296
vn 0.100000 0.000000 0.000000
vn 0.100000 0.000000 0.000000
vn 0.100000 0.000000 0.000000
vn 0.100000 0.000000 0.000000
vn 0.070711 0.000000 -0.070711
vn 0.025882 0.000000 -0.096593
vn -0.025882 0.000000 -0.096593
vn -0.070711 0.000000 -0.070711
vn 0.070711 0.000000 -0.070711
vn 0.070711 0.000000 -0.070711
vn -0.070711 0.000000 -0.070711
vn -0.070711 0.000000 -0.070711
vn -0.100000 0.000000 0.000000
vn -0.000000 0.100000 -0.000000
vn -0.000000 0.100000 -0.000000
vn -0.000000 0.100000 -0.000000
vn -0.000000 0.100000 -0.000000
vn -0.000000 0.100000 -0.000000
vn -0.000000 0.100000 -0.000000
vn -0.000000 0.100000 -0.000000
vn -0.000000 0.100000 -0.000000
vn -0.000000 0.100000 -0.000000
vn -0.000000 0.100000 -0.000000
vn -0.000000 0.100000 -0.000000
vn -0.000000 0.100000 -0.000000
vn -0.000000 0.100000 -0.000000
vn -0.000000 0.100000 -0.000000
vn -0.000000 0.100000 -0.000000
vn -0.000000 0.100000 -0.000000
vn -0.000000 0.100000 -0.000000
vn -0.000000 0.100000 -0.000000
vn -0.000000 0.100000 -0.000000
vn -0.000000 0.100000 -0.000000
vn 0.070711 0.000000 0.070711
vn 0.070711 0.000000 0.070711
vn 0.086603 0.000000 0.050000
vn 0.086603 0.000000 0.050000
vn 0.096593 0.000000 0.025882
vn 0.096593 0.000000 0.025882
vn 0.070711 0.000000 -0.070711
vn 0.070711 0.000000 -0.070711
vn 0.070711 0.000000 -0.070711
vn 0.070711 0.000000 -0.070711
usemtl Paint_-_Enamel_Glossy_(Black)
f 2/1/1 3/2/2 1/3/3
f 1/3/3 3/2/2 4/4/4
f 4/5/5 3/6/6 10/7/7
f 10/7/7 3/6/6 5/8/8
f 10/7/7 5/8/8 6/9/9
f 7/10/10 8/11/11 6/9/9
f 6/9/9 8/11/11 9/12/12
f 6/9/9 9/12/12 10/7/7
f 11/13/13 16/14/14 2/15/15
f 2/15/15 16/14/14 17/16/16
f 2/15/15 17/16/16 18/17/17
f 11/13/13 12/18/18 16/14/14
f 16/14/14 12/18/18 13/19/19
f 16/14/14 13/19/19 14/20/20
f 14/20/20 15/21/21 16/14/14
f 18/17/17 19/22/22 2/15/15
f 2/15/15 19/22/22 3/23/23
f 3/23/23 19/22/22 5/24/24
f 5/24/24 19/22/22 6/25/25
f 6/25/25 19/22/22 7/26/26
f 7/26/26 19/22/22 20/27/27
f 28/28/28 21/29/29 30/30/30
f 30/30/30 21/29/29 22/31/31
f 30/30/30 22/31/31 29/32/32
f 29/32/32 22/31/31 23/33/33
f 29/32/32 23/33/33 31/34/34
f 31/34/34 23/33/33 24/35/35
f 31/34/34 24/35/35 25/36/36
f 25/36/36 26/37/37 31/34/34
f 31/34/34 26/37/37 32/38/38
f 31/34/34 32/38/38 29/32/32
f 29/32/32 32/38/38 30/30/30
f 26/37/37 27/39/39 32/38/38
f 32/38/38 27/39/39 30/30/30
f 27/39/39 28/28/28 30/30/30
f 40/40/40 33/41/41 41/42/42
f 41/42/42 33/41/41 34/43/43
f 41/42/42 34/43/43 35/44/44
f 41/42/42 35/44/44 42/45/45
f 42/45/45 35/44/44 36/46/46
f 42/45/45 36/46/46 37/47/47
f 37/47/47 38/48/48 42/45/45
f 42/45/45 38/48/48 39/49/49
f 42/45/45 39/49/49 41/42/42
f 41/42/42 39/49/49 40/40/40
f 43/50/50 44/51/51 50/52/52
f 50/52/52 44/51/51 52/53/53
f 50/52/52 52/53/53 49/54/54
f 49/54/54 52/53/53 54/55/55
f 49/54/54 54/55/55 34/56/43
f 34/56/43 54/55/55 35/57/44
f 35/57/44 54/55/55 53/58/56
f 35/57/44 53/58/56 36/59/46
f 36/59/46 53/58/56 48/60/57
f 36/59/46 48/60/57 37/61/47
f 44/51/51 45/62/58 52/53/53
f 52/53/53 45/62/58 51/63/59
f 52/53/53 51/63/59 54/55/55
f 54/55/55 51/63/59 53/58/56
f 45/62/58 46/64/60 51/63/59
f 51/63/59 46/64/60 47/65/61
f 51/63/59 47/65/61 53/58/56
f 53/58/56 47/65/61 48/60/57
f 55/66/62 56/67/63 64/68/64
f 64/68/64 56/67/63 66/69/65
f 64/68/64 66/69/65 63/70/66
f 63/70/66 66/69/65 68/71/67
f 63/70/66 68/71/67 62/72/68
f 62/72/68 68/71/67 70/73/69
f 62/72/68 70/73/69 43/74/50
f 43/74/50 70/73/69 44/75/51
f 44/75/51 70/73/69 69/76/70
f 44/75/51 69/76/70 45/77/58
f 45/77/58 69/76/70 61/78/71
f 45/77/58 61/78/71 46/79/60
f 56/67/63 57/80/72 66/69/65
f 66/69/65 57/80/72 65/81/73
f 66/69/65 65/81/73 68/71/67
f 68/71/67 65/81/73 67/82/74
f 68/71/67 67/82/74 70/73/69
f 70/73/69 67/82/74 69/76/70
f 57/80/72 58/83/75 65/81/73
f 65/81/73 58/83/75 59/84/76
f 65/81/73 59/84/76 67/82/74
f 67/82/74 59/84/76 60/85/77
f 67/82/74 60/85/77 69/76/70
f 69/76/70 60/85/77 61/78/71
f 71/86/78 72/87/79 78/88/80
f 78/88/80 72/87/79 80/89/81
f 78/88/80 80/89/81 77/90/82
f 77/90/82 80/89/81 82/91/83
f 77/90/82 82/91/83 55/92/62
f 55/92/62 82/91/83 56/93/63
f 56/93/63 82/91/83 81/94/84
f 56/93/63 81/94/84 57/95/72
f 57/95/72 81/94/84 76/96/85
f 57/95/72 76/96/85 58/97/75
f 72/87/79 73/98/86 80/89/81
f 80/89/81 73/98/86 79/99/87
f 80/89/81 79/99/87 82/91/83
f 82/91/83 79/99/87 81/94/84
f 73/98/86 74/100/88 79/99/87
f 79/99/87 74/100/88 75/101/89
f 79/99/87 75/101/89 81/94/84
f 81/94/84 75/101/89 76/96/85
f 27/102/90 26/103/91 83/104/92
f 83/104/92 26/103/91 74/105/88
f 83/104/92 74/105/88 73/106/86
f 83/104/92 73/106/86 84/107/93
f 84/107/93 73/106/86 72/108/79
f 84/107/93 72/108/79 71/109/78
f 71/109/78 21/110/94 84/107/93
f 84/107/93 21/110/94 28/111/95
f 84/107/93 28/111/95 27/102/90
f 84/107/93 27/102/90 83/104/92
f 85/112/96 86/113/97 92/114/98
f 92/114/98 86/113/97 94/115/99
f 92/114/98 94/115/99 91/116/100
f 91/116/100 94/115/99 96/117/101
f 91/116/100 96/117/101 22/118/102
f 22/118/102 96/117/101 23/119/103
f 23/119/103 96/117/101 95/120/104
f 23/119/103 95/120/104 24/121/105
f 24/121/105 95/120/104 90/122/106
f 24/121/105 90/122/106 25/123/107
f 86/113/97 87/124/108 94/115/99
f 94/115/99 87/124/108 93/125/109
f 94/115/99 93/125/109 96/117/101
f 96/117/101 93/125/109 95/120/104
f 87/124/108 88/126/110 93/125/109
f 93/125/109 88/126/110 89/127/111
f 93/125/109 89/127/111 95/120/104
f 95/120/104 89/127/111 90/122/106
f 88/128/112 97/129/113 38/130/114
f 38/130/114 97/129/113 98/131/115
f 38/130/114 98/131/115 39/132/116
f 39/132/116 98/131/115 100/133/117
f 39/132/116 100/133/117 40/134/118
f 40/134/118 100/133/117 33/135/119
f 33/135/119 100/133/117 99/136/120
f 33/135/119 99/136/120 85/137/121
f 85/137/121 99/136/120 86/138/97
f 86/138/97 99/136/120 87/139/108
f 87/139/108 99/136/120 97/129/113
f 87/139/108 97/129/113 88/128/112
f 100/133/117 98/131/115 97/129/113
f 100/133/117 97/129/113 99/136/120
f 104/140/122 71/141/78 103/142/123
f 103/142/123 71/141/78 78/143/80
f 103/142/123 78/143/80 102/144/124
f 102/144/124 78/143/80 77/145/82
f 102/144/124 77/145/82 101/146/125
f 101/146/125 77/145/82 55/147/62
f 101/148/125 55/149/62 108/150/126
f 108/150/126 55/149/62 64/151/64
f 108/150/126 64/151/64 107/152/127
f 107/152/127 64/151/64 63/153/66
f 107/152/127 63/153/66 106/154/128
f 106/154/128 63/153/66 62/155/68
f 106/154/128 62/155/68 105/156/129
f 105/156/129 62/155/68 43/157/50
f 105/158/129 43/159/50 111/160/130
f 111/160/130 43/159/50 50/161/52
f 111/160/130 50/161/52 110/162/131
f 110/162/131 50/161/52 49/163/54
f 110/162/131 49/163/54 109/164/132
f 109/164/132 49/163/54 34/165/43
f 33/166/41 15/167/133 34/168/43
f 34/168/43 15/167/133 109/169/132
f 109/169/132 15/167/133 112/170/134
f 112/170/134 15/167/133 14/171/135
f 37/172/47 61/173/71 38/174/48
f 38/174/48 61/173/71 60/175/77
f 38/174/48 60/175/77 88/176/110
f 88/176/110 60/175/77 25/177/107
f 88/176/110 25/177/107 89/178/111
f 89/178/111 25/177/107 90/179/106
f 48/180/57 47/181/61 37/172/47
f 37/172/47 47/181/61 46/182/60
f 37/172/47 46/182/60 61/173/71
f 25/177/107 60/175/77 26/183/91
f 26/183/91 60/175/77 59/184/76
f 26/183/91 59/184/76 74/185/88
f 74/185/88 59/184/76 58/186/75
f 74/185/88 58/186/75 76/187/85
f 76/187/85 75/188/89 74/185/88
f 16/189/136 85/190/96 17/191/137
f 17/191/137 85/190/96 92/192/98
f 17/191/137 92/192/98 18/193/138
f 18/193/138 92/192/98 91/194/100
f 18/193/138 91/194/100 19/195/139
f 19/195/139 91/194/100 22/196/102
f 33/197/140 85/198/96 15/199/141
f 15/199/141 85/198/96 16/200/136
f 22/201/102 21/202/142 19/203/139
f 19/203/139 21/202/142 20/204/143
f 21/205/94 71/206/78 20/207/144
f 20/207/144 71/206/78 104/208/122
f 20/207/144 104/208/122 8/209/11
f 8/209/11 7/210/10 20/207/144
f 113/211/145 1/212/146 115/213/147
f 115/213/147 1/212/146 114/214/148
f 114/214/148 1/212/146 112/215/149
f 112/215/149 1/212/146 107/216/150
f 112/215/149 107/216/150 106/217/151
f 4/218/152 10/219/153 1/212/146
f 1/212/146 10/219/153 9/220/154
f 1/212/146 9/220/154 8/221/155
f 104/222/156 108/223/157 8/221/155
f 8/221/155 108/223/157 107/216/150
f 8/221/155 107/216/150 1/212/146
f 103/224/158 102/225/159 104/222/156
f 104/222/156 102/225/159 101/226/160
f 104/222/156 101/226/160 108/223/157
f 112/215/149 106/217/151 109/227/161
f 109/227/161 106/217/151 105/228/162
f 109/227/161 105/228/162 111/229/163
f 111/229/163 110/230/164 109/227/161
f 11/231/165 113/232/166 12/233/167
f 12/233/167 113/232/166 115/234/168
f 12/233/167 115/234/168 114/235/169
f 112/236/134 14/237/135 114/235/169
f 114/235/169 14/237/135 13/238/170
f 114/235/169 13/238/170 12/233/167
f 1/239/171 113/240/172 2/241/173
f 2/241/173 113/240/172 11/242/174
# 115 vertices
# 242 texture params
# 174 normals
# 226 facets

# 1 groups
