# WaveFront *.obj file (generated by Autodesk ATF)

mtllib _AyaNeo-01 v57_LeftThumb_AyaNeo-01 v57.mtl

g LeftThumb

v -114.500000 -12.500000 23.000000
v -114.255650 -12.500000 24.621153
v -113.544313 -12.500000 26.098260
v -112.429194 -12.500000 27.300073
v -111.009376 -12.500000 28.119806
v -109.411016 -12.500000 28.484621
v -107.776135 -12.500000 28.362104
v -106.250000 -12.500000 27.763140
v -104.968215 -12.500000 26.740950
v -104.044671 -12.500000 25.386361
v -103.561430 -12.500000 23.819732
v -103.561430 -12.500000 22.180268
v -104.044671 -12.500000 20.613639
v -104.968215 -12.500000 19.259050
v -106.250000 -12.500000 18.236860
v -107.776135 -12.500000 17.637896
v -109.411016 -12.500000 17.515379
v -111.009376 -12.500000 17.880194
v -112.429194 -12.500000 18.699927
v -113.544313 -12.500000 19.901740
v -114.255650 -12.500000 21.378847
v -110.940599 -12.500000 23.000000
v -110.718315 -12.500000 22.098159
v -110.102386 -12.500000 21.402918
v -109.233913 -12.500000 21.073550
v -108.311854 -12.500000 21.185508
v -107.547441 -12.500000 21.713145
v -107.115791 -12.500000 22.535584
v -107.115791 -12.500000 23.464416
v -107.547441 -12.500000 24.286855
v -108.311854 -12.500000 24.814492
v -109.233913 -12.500000 24.926450
v -110.102386 -12.500000 24.597082
v -110.718315 -12.500000 23.901841
v -114.500000 -16.500000 23.000000
v -114.255650 -16.500000 24.621153
v -113.544313 -16.500000 26.098260
v -112.429194 -16.500000 27.300073
v -111.009376 -16.500000 28.119806
v -109.411016 -16.500000 28.484621
v -107.776135 -16.500000 28.362104
v -106.250000 -16.500000 27.763140
v -104.968215 -16.500000 26.740950
v -104.044671 -16.500000 25.386361
v -103.561430 -16.500000 23.819732
v -103.561430 -16.500000 22.180268
v -104.044671 -16.500000 20.613639
v -104.968215 -16.500000 19.259050
v -106.250000 -16.500000 18.236860
v -107.776135 -16.500000 17.637896
v -109.411016 -16.500000 17.515379
v -111.009376 -16.500000 17.880194
v -112.429194 -16.500000 18.699927
v -113.544313 -16.500000 19.901740
v -114.255650 -16.500000 21.378847
v -113.250000 -4.500000 23.000000
v -112.993694 -4.500000 21.546414
v -112.255689 -4.500000 20.268153
v -111.125000 -4.500000 19.319392
v -109.738005 -4.500000 18.814567
v -108.261995 -4.500000 18.814567
v -106.875000 -4.500000 19.319392
v -105.744311 -4.500000 20.268153
v -105.006306 -4.500000 21.546414
v -104.750000 -4.500000 23.000000
v -105.006306 -4.500000 24.453586
v -105.744311 -4.500000 25.731847
v -106.875000 -4.500000 26.680608
v -108.261995 -4.500000 27.185433
v -109.738005 -4.500000 27.185433
v -111.125000 -4.500000 26.680608
v -112.255689 -4.500000 25.731847
v -112.993694 -4.500000 24.453586
v -113.250000 -8.500000 23.000000
v -112.993694 -8.500000 24.453586
v -112.255689 -8.500000 25.731847
v -111.125000 -8.500000 26.680608
v -109.738005 -8.500000 27.185433
v -108.261995 -8.500000 27.185433
v -106.875000 -8.500000 26.680608
v -105.744311 -8.500000 25.731847
v -105.006306 -8.500000 24.453586
v -104.750000 -8.500000 23.000000
v -105.006306 -8.500000 21.546414
v -105.744311 -8.500000 20.268153
v -106.875000 -8.500000 19.319392
v -108.261995 -8.500000 18.814567
v -109.738005 -8.500000 18.814567
v -111.125000 -8.500000 19.319392
v -112.255689 -8.500000 20.268153
v -112.993694 -8.500000 21.546414
vt 0.525565 -0.162115 0.000000
vt 0.550000 0.000000 0.000000
vt 0.194060 0.000000 0.000000
vt 0.525565 0.162115 0.000000
vt 0.171832 0.090184 0.000000
vt 0.454431 0.309826 0.000000
vt 0.110239 0.159708 0.000000
vt 0.342919 0.430007 0.000000
vt 0.200938 0.511981 0.000000
vt 0.023391 0.192645 0.000000
vt 0.041102 0.548462 0.000000
vt -0.122387 0.536210 0.000000
vt -0.068815 0.181449 0.000000
vt -0.275000 0.476314 0.000000
vt -0.145256 0.128686 0.000000
vt -0.403179 0.374095 0.000000
vt -0.495533 0.238636 0.000000
vt -0.188421 0.046442 0.000000
vt -0.543857 0.081973 0.000000
vt -0.543857 -0.081973 0.000000
vt -0.188421 -0.046442 0.000000
vt -0.495533 -0.238636 0.000000
vt -0.145256 -0.128686 0.000000
vt -0.403179 -0.374095 0.000000
vt -0.275000 -0.476314 0.000000
vt -0.068815 -0.181449 0.000000
vt -0.122387 -0.536210 0.000000
vt 0.023391 -0.192645 0.000000
vt 0.041102 -0.548462 0.000000
vt 0.200938 -0.511981 0.000000
vt 0.110239 -0.159708 0.000000
vt 0.342919 -0.430007 0.000000
vt 0.454431 -0.309826 0.000000
vt 0.171832 -0.090184 0.000000
vt -0.400000 1.563316 0.000000
vt -0.000000 1.563316 0.000000
vt -0.400000 1.727876 0.000000
vt -0.000000 1.727876 0.000000
vt -0.400000 -1.727876 0.000000
vt -0.000000 -1.727876 0.000000
vt -0.400000 -1.563316 0.000000
vt -0.000000 -1.563316 0.000000
vt -0.400000 -1.398757 0.000000
vt 0.000000 -1.398757 0.000000
vt -0.400000 -1.234197 0.000000
vt -0.000000 -1.234197 0.000000
vt -0.400000 -1.069637 0.000000
vt 0.000000 -1.069637 0.000000
vt -0.400000 -0.905078 0.000000
vt 0.000000 -0.905078 0.000000
vt -0.400000 -0.740518 0.000000
vt -0.000000 -0.740518 0.000000
vt -0.400000 -0.575959 0.000000
vt -0.000000 -0.575959 0.000000
vt -0.400000 -0.411399 0.000000
vt -0.000000 -0.411399 0.000000
vt -0.400000 -0.246839 0.000000
vt -0.000000 -0.246839 0.000000
vt -0.400000 -0.082280 0.000000
vt -0.000000 -0.082280 0.000000
vt -0.400000 0.082280 0.000000
vt -0.000000 0.082280 0.000000
vt -0.400000 0.246839 0.000000
vt -0.000000 0.246839 0.000000
vt -0.400000 0.411399 0.000000
vt -0.000000 0.411399 0.000000
vt -0.400000 0.575959 0.000000
vt -0.000000 0.575959 0.000000
vt -0.400000 0.740518 0.000000
vt -0.000000 0.740518 0.000000
vt -0.400000 0.905078 0.000000
vt -0.000000 0.905078 0.000000
vt -0.400000 1.069637 0.000000
vt -0.000000 1.069637 0.000000
vt -0.400000 1.234197 0.000000
vt -0.000000 1.234197 0.000000
vt -0.400000 1.398757 0.000000
vt -0.000000 1.398757 0.000000
vt -0.525565 0.162115 0.000000
vt -0.550000 0.000000 0.000000
vt 0.122387 -0.536210 0.000000
vt -0.525565 -0.162115 0.000000
vt -0.454431 -0.309826 0.000000
vt -0.342919 -0.430007 0.000000
vt -0.200938 -0.511981 0.000000
vt -0.041102 -0.548462 0.000000
vt 0.275000 -0.476314 0.000000
vt 0.122387 0.536210 0.000000
vt -0.041102 0.548462 0.000000
vt -0.200938 0.511981 0.000000
vt 0.275000 0.476314 0.000000
vt 0.403179 -0.374095 0.000000
vt 0.403179 0.374095 0.000000
vt 0.495533 -0.238636 0.000000
vt 0.495533 0.238636 0.000000
vt 0.543857 -0.081973 0.000000
vt 0.543857 0.081973 0.000000
vt -0.342919 0.430007 0.000000
vt -0.454431 0.309826 0.000000
vt -0.400000 1.186824 0.000000
vt -0.000000 1.186824 0.000000
vt -0.400000 1.335177 0.000000
vt -0.000000 1.335177 0.000000
vt -0.400000 -1.335177 0.000000
vt -0.000000 -1.335177 0.000000
vt -0.400000 -1.186824 0.000000
vt -0.000000 -1.186824 0.000000
vt -0.400000 -1.038471 0.000000
vt -0.000000 -1.038471 0.000000
vt -0.400000 -0.890118 0.000000
vt -0.000000 -0.890118 0.000000
vt -0.400000 -0.741765 0.000000
vt -0.000000 -0.741765 0.000000
vt -0.400000 -0.593412 0.000000
vt -0.000000 -0.593412 0.000000
vt -0.400000 -0.445059 0.000000
vt -0.000000 -0.445059 0.000000
vt -0.400000 -0.296706 0.000000
vt -0.000000 -0.296706 0.000000
vt -0.400000 -0.148353 0.000000
vt -0.000000 -0.148353 0.000000
vt -0.400000 0.000000 0.000000
vt -0.000000 0.000000 0.000000
vt -0.400000 0.148353 0.000000
vt -0.000000 0.148353 0.000000
vt -0.400000 0.296706 0.000000
vt -0.000000 0.296706 0.000000
vt -0.400000 0.445059 0.000000
vt -0.000000 0.445059 0.000000
vt -0.400000 0.593412 0.000000
vt -0.000000 0.593412 0.000000
vt -0.400000 0.741765 0.000000
vt -0.000000 0.741765 0.000000
vt -0.400000 0.890118 0.000000
vt -0.000000 0.890118 0.000000
vt -0.400000 1.038471 0.000000
vt -0.000000 1.038471 0.000000
vt 0.399369 0.145359 0.000000
vt -0.399369 0.145359 0.000000
vt 0.425000 0.000000 0.000000
vt -0.425000 0.000000 0.000000
vt 0.399369 -0.145359 0.000000
vt -0.399369 -0.145359 0.000000
vt 0.325569 -0.273185 0.000000
vt -0.325569 -0.273185 0.000000
vt 0.212500 -0.368061 0.000000
vt -0.212500 -0.368061 0.000000
vt 0.073800 -0.418543 0.000000
vt -0.073800 -0.418543 0.000000
vt -0.325569 0.273185 0.000000
vt 0.325569 0.273185 0.000000
vt -0.212500 0.368061 0.000000
vt 0.212500 0.368061 0.000000
vt -0.073800 0.418543 0.000000
vt 0.073800 0.418543 0.000000
vt -0.461880 0.822814 0.000000
vt 0.000000 0.864371 0.000000
vt -0.461880 0.972417 0.000000
vt -0.000000 0.972417 0.000000
vt -0.461880 -0.972417 0.000000
vt -0.000000 -0.972417 0.000000
vt 0.000000 -0.864371 0.000000
vt 0.000000 0.756324 0.000000
vt -0.461880 0.673212 0.000000
vt 0.000000 0.648278 0.000000
vt -0.461880 0.523609 0.000000
vt 0.000000 0.540232 0.000000
vt 0.000000 0.432185 0.000000
vt -0.461880 0.374007 0.000000
vt 0.000000 0.324139 0.000000
vt -0.461880 0.224404 0.000000
vt 0.000000 0.216093 0.000000
vt 0.000000 0.108046 0.000000
vt -0.461880 0.074801 0.000000
vt -0.000000 0.000000 0.000000
vt -0.461880 -0.074801 0.000000
vt 0.000000 -0.108046 0.000000
vt -0.461880 -0.224404 0.000000
vt 0.000000 -0.216093 0.000000
vt 0.000000 -0.324139 0.000000
vt -0.461880 -0.374007 0.000000
vt -0.000000 -0.432185 0.000000
vt -0.461880 -0.523609 0.000000
vt -0.000000 -0.540232 0.000000
vt 0.000000 -0.648278 0.000000
vt -0.461880 -0.673212 0.000000
vt 0.000000 -0.756324 0.000000
vt -0.461880 -0.822814 0.000000
vn -0.000000 0.100000 -0.000000
vn -0.000000 0.100000 -0.000000
vn -0.000000 0.100000 -0.000000
vn -0.000000 0.100000 -0.000000
vn -0.000000 0.100000 -0.000000
vn -0.000000 0.100000 -0.000000
vn -0.000000 0.100000 -0.000000
vn -0.000000 0.100000 -0.000000
vn -0.000000 0.100000 -0.000000
vn -0.000000 0.100000 -0.000000
vn -0.000000 0.100000 -0.000000
vn -0.000000 0.100000 -0.000000
vn -0.000000 0.100000 -0.000000
vn -0.000000 0.100000 -0.000000
vn -0.000000 0.100000 -0.000000
vn -0.000000 0.100000 -0.000000
vn -0.000000 0.100000 -0.000000
vn -0.000000 0.100000 -0.000000
vn -0.000000 0.100000 -0.000000
vn -0.000000 0.100000 -0.000000
vn -0.000000 0.100000 -0.000000
vn -0.000000 0.100000 -0.000000
vn -0.000000 0.100000 -0.000000
vn -0.000000 0.100000 -0.000000
vn -0.000000 0.100000 -0.000000
vn -0.000000 0.100000 -0.000000
vn -0.000000 0.100000 -0.000000
vn -0.000000 0.100000 -0.000000
vn -0.000000 0.100000 -0.000000
vn -0.000000 0.100000 -0.000000
vn -0.000000 0.100000 -0.000000
vn -0.000000 0.100000 -0.000000
vn -0.000000 0.100000 -0.000000
vn -0.000000 0.100000 -0.000000
vn -0.095557 0.000000 0.029476
vn -0.095557 0.000000 0.029476
vn -0.100000 0.000000 0.000000
vn -0.100000 0.000000 0.000000
vn -0.095557 0.000000 -0.029476
vn -0.095557 0.000000 -0.029476
vn -0.082624 0.000000 -0.056332
vn -0.082624 0.000000 -0.056332
vn -0.062349 0.000000 -0.078183
vn -0.062349 0.000000 -0.078183
vn -0.036534 0.000000 -0.093087
vn -0.036534 0.000000 -0.093087
vn -0.007473 0.000000 -0.099720
vn -0.007473 0.000000 -0.099720
vn 0.022252 0.000000 -0.097493
vn 0.022252 0.000000 -0.097493
vn 0.050000 0.000000 -0.086603
vn 0.050000 0.000000 -0.086603
vn 0.073305 0.000000 -0.068017
vn 0.073305 0.000000 -0.068017
vn 0.090097 0.000000 -0.043388
vn 0.090097 0.000000 -0.043388
vn 0.098883 0.000000 -0.014904
vn 0.098883 0.000000 -0.014904
vn 0.098883 0.000000 0.014904
vn 0.098883 0.000000 0.014904
vn 0.090097 0.000000 0.043388
vn 0.090097 0.000000 0.043388
vn 0.073305 0.000000 0.068017
vn 0.073305 0.000000 0.068017
vn 0.050000 0.000000 0.086603
vn 0.050000 0.000000 0.086603
vn 0.022252 0.000000 0.097493
vn 0.022252 0.000000 0.097493
vn -0.007473 0.000000 0.099720
vn -0.007473 0.000000 0.099720
vn -0.036534 0.000000 0.093087
vn -0.036534 0.000000 0.093087
vn -0.062349 0.000000 0.078183
vn -0.062349 0.000000 0.078183
vn -0.082624 0.000000 0.056332
vn -0.082624 0.000000 0.056332
vn 0.000000 -0.100000 0.000000
vn 0.000000 -0.100000 0.000000
vn 0.000000 -0.100000 0.000000
vn 0.000000 -0.100000 0.000000
vn 0.000000 -0.100000 0.000000
vn 0.000000 -0.100000 0.000000
vn 0.000000 -0.100000 0.000000
vn 0.000000 -0.100000 0.000000
vn 0.000000 -0.100000 0.000000
vn 0.000000 -0.100000 0.000000
vn 0.000000 -0.100000 0.000000
vn 0.000000 -0.100000 0.000000
vn 0.000000 -0.100000 0.000000
vn 0.000000 -0.100000 0.000000
vn 0.000000 -0.100000 0.000000
vn 0.000000 -0.100000 0.000000
vn 0.000000 -0.100000 0.000000
vn 0.000000 -0.100000 0.000000
vn 0.000000 -0.100000 0.000000
vn 0.000000 -0.100000 0.000000
vn 0.000000 -0.100000 0.000000
vn -0.093969 0.000000 -0.034202
vn -0.093969 0.000000 -0.034202
vn -0.100000 0.000000 -0.000000
vn -0.100000 0.000000 -0.000000
vn -0.093969 0.000000 0.034202
vn -0.093969 0.000000 0.034202
vn -0.076604 0.000000 0.064279
vn -0.076604 0.000000 0.064279
vn -0.050000 0.000000 0.086603
vn -0.050000 0.000000 0.086603
vn -0.017365 0.000000 0.098481
vn -0.017365 0.000000 0.098481
vn 0.017365 -0.000000 0.098481
vn 0.017365 -0.000000 0.098481
vn 0.050000 -0.000000 0.086603
vn 0.050000 -0.000000 0.086603
vn 0.076604 -0.000000 0.064279
vn 0.076604 -0.000000 0.064279
vn 0.093969 -0.000000 0.034202
vn 0.093969 -0.000000 0.034202
vn 0.100000 0.000000 0.000000
vn 0.100000 0.000000 0.000000
vn 0.093969 0.000000 -0.034202
vn 0.093969 0.000000 -0.034202
vn 0.076604 0.000000 -0.064279
vn 0.076604 0.000000 -0.064279
vn 0.050000 0.000000 -0.086603
vn 0.050000 0.000000 -0.086603
vn 0.017365 0.000000 -0.098481
vn 0.017365 0.000000 -0.098481
vn -0.017365 0.000000 -0.098481
vn -0.017365 0.000000 -0.098481
vn -0.050000 0.000000 -0.086603
vn -0.050000 0.000000 -0.086603
vn -0.076604 0.000000 -0.064279
vn -0.076604 0.000000 -0.064279
vn -0.000000 0.100000 -0.000000
vn -0.000000 0.100000 -0.000000
vn -0.000000 0.100000 -0.000000
vn -0.000000 0.100000 -0.000000
vn -0.000000 0.100000 -0.000000
vn -0.000000 0.100000 -0.000000
vn -0.000000 0.100000 -0.000000
vn -0.000000 0.100000 -0.000000
vn -0.000000 0.100000 -0.000000
vn -0.000000 0.100000 -0.000000
vn -0.000000 0.100000 -0.000000
vn -0.000000 0.100000 -0.000000
vn -0.000000 0.100000 -0.000000
vn -0.000000 0.100000 -0.000000
vn -0.000000 0.100000 -0.000000
vn -0.000000 0.100000 -0.000000
vn -0.000000 0.100000 -0.000000
vn -0.000000 0.100000 -0.000000
vn -0.076683 -0.050000 0.040246
vn -0.081380 -0.050000 0.029620
vn -0.086603 -0.050000 0.000000
vn -0.086603 -0.050000 0.000000
vn -0.081380 -0.050000 -0.029620
vn -0.066341 -0.050000 0.055667
vn -0.049196 -0.050000 0.071272
vn -0.043301 -0.050000 0.075000
vn -0.010439 -0.050000 0.085971
vn -0.015038 -0.050000 0.085287
vn 0.015038 -0.050000 0.085287
vn 0.030710 -0.050000 0.080975
vn 0.043301 -0.050000 0.075000
vn 0.064823 -0.050000 0.057428
vn 0.066341 -0.050000 0.055667
vn 0.081380 -0.050000 0.029620
vn 0.084086 -0.050000 0.020725
vn 0.086603 -0.050000 0.000000
vn 0.084086 -0.050000 -0.020725
vn 0.081380 -0.050000 -0.029620
vn 0.064823 -0.050000 -0.057428
vn 0.066341 -0.050000 -0.055667
vn 0.043301 -0.050000 -0.075000
vn 0.030710 -0.050000 -0.080975
vn 0.015038 -0.050000 -0.085287
vn -0.010439 -0.050000 -0.085971
vn -0.015038 -0.050000 -0.085287
vn -0.043301 -0.050000 -0.075000
vn -0.049196 -0.050000 -0.071272
vn -0.066341 -0.050000 -0.055667
vn -0.076683 -0.050000 -0.040246
usemtl Paint_-_Enamel_Glossy_(Black)
f 21/1/1 1/2/2 22/3/3
f 22/3/3 1/2/2 2/4/4
f 22/3/3 2/4/4 34/5/5
f 34/5/5 2/4/4 3/6/6
f 34/5/5 3/6/6 33/7/7
f 33/7/7 3/6/6 4/8/8
f 33/7/7 4/8/8 5/9/9
f 33/7/7 5/9/9 32/10/10
f 32/10/10 5/9/9 6/11/11
f 32/10/10 6/11/11 7/12/12
f 32/10/10 7/12/12 31/13/13
f 31/13/13 7/12/12 8/14/14
f 31/13/13 8/14/14 30/15/15
f 30/15/15 8/14/14 9/16/16
f 30/15/15 9/16/16 10/17/17
f 30/15/15 10/17/17 29/18/18
f 29/18/18 10/17/17 11/19/19
f 29/18/18 11/19/19 12/20/20
f 29/18/18 12/20/20 28/21/21
f 28/21/21 12/20/20 13/22/22
f 28/21/21 13/22/22 27/23/23
f 27/23/23 13/22/22 14/24/24
f 27/23/23 14/24/24 15/25/25
f 27/23/23 15/25/25 26/26/26
f 26/26/26 15/25/25 16/27/27
f 26/26/26 16/27/27 25/28/28
f 25/28/28 16/27/27 17/29/29
f 25/28/28 17/29/29 18/30/30
f 25/28/28 18/30/30 24/31/31
f 24/31/31 18/30/30 19/32/32
f 24/31/31 19/32/32 20/33/33
f 24/31/31 20/33/33 23/34/34
f 23/34/34 20/33/33 21/1/1
f 23/34/34 21/1/1 22/3/3
f 36/35/35 2/36/36 35/37/37
f 35/37/37 2/36/36 1/38/38
f 35/39/37 1/40/38 55/41/39
f 55/41/39 1/40/38 21/42/40
f 55/41/39 21/42/40 54/43/41
f 54/43/41 21/42/40 20/44/42
f 54/43/41 20/44/42 53/45/43
f 53/45/43 20/44/42 19/46/44
f 53/45/43 19/46/44 52/47/45
f 52/47/45 19/46/44 18/48/46
f 52/47/45 18/48/46 51/49/47
f 51/49/47 18/48/46 17/50/48
f 51/49/47 17/50/48 50/51/49
f 50/51/49 17/50/48 16/52/50
f 50/51/49 16/52/50 49/53/51
f 49/53/51 16/52/50 15/54/52
f 49/53/51 15/54/52 48/55/53
f 48/55/53 15/54/52 14/56/54
f 48/55/53 14/56/54 47/57/55
f 47/57/55 14/56/54 13/58/56
f 47/57/55 13/58/56 46/59/57
f 46/59/57 13/58/56 12/60/58
f 46/59/57 12/60/58 45/61/59
f 45/61/59 12/60/58 11/62/60
f 45/61/59 11/62/60 44/63/61
f 44/63/61 11/62/60 10/64/62
f 44/63/61 10/64/62 43/65/63
f 43/65/63 10/64/62 9/66/64
f 43/65/63 9/66/64 42/67/65
f 42/67/65 9/66/64 8/68/66
f 42/67/65 8/68/66 41/69/67
f 41/69/67 8/68/66 7/70/68
f 41/69/67 7/70/68 40/71/69
f 40/71/69 7/70/68 6/72/70
f 40/71/69 6/72/70 39/73/71
f 39/73/71 6/72/70 5/74/72
f 39/73/71 5/74/72 38/75/73
f 38/75/73 5/74/72 4/76/74
f 38/75/73 4/76/74 37/77/75
f 37/77/75 4/76/74 3/78/76
f 37/77/75 3/78/76 36/35/35
f 36/35/35 3/78/76 2/36/36
f 36/79/77 35/80/78 50/81/79
f 50/81/79 35/80/78 55/82/80
f 50/81/79 55/82/80 54/83/81
f 54/83/81 53/84/82 50/81/79
f 50/81/79 53/84/82 52/85/83
f 50/81/79 52/85/83 51/86/84
f 49/87/85 41/88/86 50/81/79
f 50/81/79 41/88/86 40/89/87
f 50/81/79 40/89/87 39/90/88
f 41/88/86 49/87/85 42/91/89
f 42/91/89 49/87/85 48/92/90
f 42/91/89 48/92/90 43/93/91
f 43/93/91 48/92/90 47/94/92
f 43/93/91 47/94/92 44/95/93
f 44/95/93 47/94/92 46/96/94
f 44/95/93 46/96/94 45/97/95
f 39/90/88 38/98/96 50/81/79
f 50/81/79 38/98/96 37/99/97
f 50/81/79 37/99/97 36/79/77
f 57/100/98 91/101/99 56/102/100
f 56/102/100 91/101/99 74/103/101
f 56/104/100 74/105/101 73/106/102
f 73/106/102 74/105/101 75/107/103
f 73/106/102 75/107/103 72/108/104
f 72/108/104 75/107/103 76/109/105
f 72/108/104 76/109/105 71/110/106
f 71/110/106 76/109/105 77/111/107
f 71/110/106 77/111/107 70/112/108
f 70/112/108 77/111/107 78/113/109
f 70/112/108 78/113/109 69/114/110
f 69/114/110 78/113/109 79/115/111
f 69/114/110 79/115/111 68/116/112
f 68/116/112 79/115/111 80/117/113
f 68/116/112 80/117/113 67/118/114
f 67/118/114 80/117/113 81/119/115
f 67/118/114 81/119/115 66/120/116
f 66/120/116 81/119/115 82/121/117
f 66/120/116 82/121/117 65/122/118
f 65/122/118 82/121/117 83/123/119
f 65/122/118 83/123/119 64/124/120
f 64/124/120 83/123/119 84/125/121
f 64/124/120 84/125/121 63/126/122
f 63/126/122 84/125/121 85/127/123
f 63/126/122 85/127/123 62/128/124
f 62/128/124 85/127/123 86/129/125
f 62/128/124 86/129/125 61/130/126
f 61/130/126 86/129/125 87/131/127
f 61/130/126 87/131/127 60/132/128
f 60/132/128 87/131/127 88/133/129
f 60/132/128 88/133/129 59/134/130
f 59/134/130 88/133/129 89/135/131
f 59/134/130 89/135/131 58/136/132
f 58/136/132 89/135/131 90/137/133
f 58/136/132 90/137/133 57/100/98
f 57/100/98 90/137/133 91/101/99
f 73/138/134 66/139/135 56/140/136
f 56/140/136 66/139/135 65/141/137
f 56/140/136 65/141/137 57/142/138
f 57/142/138 65/141/137 64/143/139
f 57/142/138 64/143/139 58/144/140
f 58/144/140 64/143/139 63/145/141
f 58/144/140 63/145/141 59/146/142
f 59/146/142 63/145/141 62/147/143
f 59/146/142 62/147/143 60/148/144
f 60/148/144 62/147/143 61/149/145
f 66/139/135 73/138/134 67/150/146
f 67/150/146 73/138/134 72/151/147
f 67/150/146 72/151/147 68/152/148
f 68/152/148 72/151/147 71/153/149
f 68/152/148 71/153/149 69/154/150
f 69/154/150 71/153/149 70/155/151
f 34/156/152 75/157/153 22/158/154
f 22/158/154 75/157/153 74/159/155
f 22/160/154 74/161/155 91/162/156
f 75/157/153 34/156/152 76/163/157
f 76/163/157 34/156/152 33/164/158
f 76/163/157 33/164/158 77/165/159
f 77/165/159 33/164/158 32/166/160
f 77/165/159 32/166/160 78/167/161
f 78/167/161 32/166/160 79/168/162
f 79/168/162 32/166/160 31/169/163
f 79/168/162 31/169/163 80/170/164
f 80/170/164 31/169/163 30/171/165
f 80/170/164 30/171/165 81/172/166
f 81/172/166 30/171/165 82/173/167
f 82/173/167 30/171/165 29/174/168
f 82/173/167 29/174/168 83/175/169
f 83/175/169 29/174/168 28/176/170
f 83/175/169 28/176/170 84/177/171
f 84/177/171 28/176/170 27/178/172
f 84/177/171 27/178/172 85/179/173
f 85/179/173 27/178/172 86/180/174
f 86/180/174 27/178/172 26/181/175
f 86/180/174 26/181/175 87/182/176
f 87/182/176 26/181/175 25/183/177
f 87/182/176 25/183/177 88/184/178
f 88/184/178 25/183/177 89/185/179
f 89/185/179 25/183/177 24/186/180
f 89/185/179 24/186/180 90/187/181
f 90/187/181 24/186/180 23/188/182
f 90/187/181 23/188/182 91/162/156
f 91/162/156 23/188/182 22/160/154
# 91 vertices
# 188 texture params
# 182 normals
# 178 facets

# 1 groups
