# WaveFront *.obj file (generated by Autodesk ATF)

mtllib AyaNeo-01 v51_AyaNeo-01 v51_LeftShoulder_AyaNeo-01 v51.mtl

g LeftShoulder

v -47.097665 -1.250000 45.358396
v -47.097665 -5.000000 45.358396
v -47.102182 -5.000000 45.617176
v -46.976704 -5.000000 45.843544
v -46.754853 -5.000000 45.976846
v -46.754853 -1.750000 45.976846
v -46.928292 -1.558658 45.887519
v -47.054344 -1.396447 45.738620
v -47.113820 -1.288060 45.552816
v -47.115317 -1.259607 45.454811
v -20.182338 -1.250000 53.076242
v -20.800787 -1.750000 53.419054
v -20.606367 -1.558658 53.435209
v -20.420564 -1.396447 53.375733
v -20.271664 -1.288060 53.249681
v -20.218460 -1.259607 53.167360
v -41.783509 -1.316987 47.142281
v -36.400443 -1.316987 48.685850
v -31.017378 -1.316987 50.229419
v -25.634312 -1.316987 51.772988
v -41.833954 -1.500000 47.318204
v -36.450889 -1.500000 48.861773
v -31.067823 -1.500000 50.405342
v -25.684758 -1.500000 51.948912
v -43.252618 -9.000000 46.460946
v -43.321528 -8.933013 46.701261
v -43.371973 -8.750000 46.877184
v -43.390437 -8.500000 46.941576
v -44.430099 -8.328698 46.643458
v -45.367991 -7.831560 46.374522
v -46.112307 -7.057249 46.161093
v -46.590187 -6.081560 46.024063
v -46.966648 -6.035276 45.395965
v -46.582527 -7.000000 45.506110
v -45.971477 -7.828427 45.681325
v -45.175142 -8.464102 45.909671
v -44.247790 -8.863703 46.175585
v -44.485896 -8.566462 46.557772
v -44.489814 -8.740517 46.366260
v -45.490781 -8.033814 46.269626
v -45.543741 -8.181874 46.064052
v -46.288262 -7.204195 46.040952
v -46.380141 -7.311767 45.824218
v -46.800276 -6.158814 45.894134
v -46.917144 -6.215368 45.670235
v -24.027384 -9.000000 51.973693
v -24.096294 -8.933013 52.214008
v -24.146739 -8.750000 52.389931
v -24.165203 -8.500000 52.454324
v -28.902602 -8.933013 50.835821
v -33.708911 -8.933013 49.457635
v -38.515219 -8.933013 48.079448
v -28.953047 -8.750000 51.011744
v -33.759356 -8.750000 49.633558
v -38.565664 -8.750000 48.255371
v -20.182338 -5.000000 53.076242
v -20.315639 -5.000000 53.298093
v -20.542008 -5.000000 53.423571
v -20.800787 -5.000000 53.419054
v -20.965453 -6.081560 53.371837
v -21.443333 -7.057249 53.234807
v -22.187649 -7.831560 53.021378
v -23.125541 -8.328698 52.752442
v -23.032213 -8.863703 52.259054
v -22.104861 -8.464102 52.524967
v -21.308526 -7.828427 52.753313
v -20.697476 -7.000000 52.928529
v -20.313354 -6.035276 53.038674
v -20.718436 -6.158814 53.372981
v -20.500678 -6.215368 53.245034
v -21.230450 -7.204195 53.226164
v -21.037680 -7.311767 53.091052
v -22.027931 -8.033814 52.997490
v -21.874081 -8.181874 52.851217
v -23.032816 -8.566462 52.709344
v -22.928007 -8.740517 52.549009
v -42.563525 -9.000000 44.057791
v -23.338291 -9.000000 49.570539
v -46.408572 -5.000000 42.955242
v -46.277555 -6.035276 42.992810
v -45.893433 -7.000000 43.102956
v -45.282384 -7.828427 43.278171
v -44.486048 -8.464102 43.506517
v -43.558696 -8.863703 43.772431
v -46.408572 -1.250000 42.955242
v -22.343120 -8.863703 49.855899
v -21.415768 -8.464102 50.121813
v -20.619432 -7.828427 50.350159
v -20.008383 -7.000000 50.525374
v -19.624261 -6.035276 50.635519
v -19.493244 -5.000000 50.673088
v -19.493244 -1.250000 50.673088
vt 0.381250 0.039270 0.000000
vt 0.006250 0.039270 0.000000
vt 0.380289 0.029452 0.000000
vt 0.006250 0.013090 0.000000
vt 0.377444 0.019635 0.000000
vt 0.366605 0.000000 0.000000
vt 0.006250 -0.013090 0.000000
vt 0.350384 -0.019635 0.000000
vt 0.006250 -0.039270 0.000000
vt 0.331250 -0.039270 0.000000
vt 2.100000 0.039270 0.000000
vt -0.700000 0.039270 0.000000
vt 2.099039 0.029452 0.000000
vt 0.980000 0.013090 0.000000
vt 1.540000 0.013090 0.000000
vt 1.540000 -0.013090 0.000000
vt 2.085355 -0.000000 0.000000
vt 2.069134 -0.019635 0.000000
vt 2.050000 -0.039270 0.000000
vt 0.980000 -0.013090 0.000000
vt 0.420000 -0.013090 0.000000
vt 0.420000 0.013090 0.000000
vt -0.140000 0.013090 0.000000
vt -0.699039 0.029452 0.000000
vt -0.696194 0.019635 0.000000
vt -0.685355 0.000000 0.000000
vt -0.140000 -0.013090 0.000000
vt -0.669134 -0.019635 0.000000
vt -0.650000 -0.039270 0.000000
vt 2.096194 0.019635 0.000000
vt -0.000000 -0.605315 0.000000
vt -0.026180 -0.605315 0.000000
vt -0.000000 -0.706201 0.000000
vt -0.026180 -0.726378 0.000000
vt 0.000000 -0.807086 0.000000
vt -0.026180 -0.847441 0.000000
vt 0.000000 -0.907972 0.000000
vt -0.026180 -0.968504 0.000000
vt -0.000000 -1.008858 0.000000
vt -0.026180 -1.089567 0.000000
vt 0.000000 -1.109744 0.000000
vt -0.026180 -1.210630 0.000000
vt 0.000000 -1.210630 0.000000
vt -0.052360 -0.605315 0.000000
vt -0.052360 -0.726378 0.000000
vt -0.052360 -0.847441 0.000000
vt -0.052360 -0.968504 0.000000
vt -0.052360 -1.089567 0.000000
vt -0.052360 -1.210630 0.000000
vt -0.078540 -1.089567 0.000000
vt -0.078540 -1.210630 0.000000
vt -0.078540 -0.605315 0.000000
vt -0.078540 -0.726378 0.000000
vt -0.078540 -0.847441 0.000000
vt -0.078540 -0.968504 0.000000
vt -0.500000 0.013090 0.000000
vt 0.000000 0.013090 0.000000
vt -0.500000 0.039270 0.000000
vt 0.500000 0.013090 0.000000
vt 1.500000 0.039270 0.000000
vt 1.000000 0.013090 0.000000
vt 1.500000 0.013090 0.000000
vt 1.500000 -0.013090 0.000000
vt 1.000000 -0.013090 0.000000
vt 1.500000 -0.039270 0.000000
vt 0.500000 -0.013090 0.000000
vt -0.500000 -0.039270 0.000000
vt 0.000000 -0.013090 0.000000
vt -0.500000 -0.013090 0.000000
vt 0.000000 0.000000 0.000000
vt -0.026180 0.000000 0.000000
vt -0.000000 -0.100886 0.000000
vt -0.026180 -0.121063 0.000000
vt -0.000000 -0.201772 0.000000
vt -0.026180 -0.242126 0.000000
vt -0.000000 -0.302657 0.000000
vt -0.026180 -0.363189 0.000000
vt -0.000000 -0.403543 0.000000
vt -0.026180 -0.484252 0.000000
vt 0.000000 -0.504429 0.000000
vt -0.026180 -0.605315 0.000000
vt -0.000000 -0.605315 0.000000
vt -0.052360 0.000000 0.000000
vt -0.052360 -0.121063 0.000000
vt -0.052360 -0.242126 0.000000
vt -0.052360 -0.363189 0.000000
vt -0.052360 -0.484252 0.000000
vt -0.052360 -0.605315 0.000000
vt -0.078540 -0.484252 0.000000
vt -0.078540 -0.605315 0.000000
vt -0.078540 0.000000 0.000000
vt -0.078540 -0.121063 0.000000
vt -0.078540 -0.242126 0.000000
vt -0.078540 -0.363189 0.000000
vt -0.143750 -0.039270 0.000000
vt 0.181250 -0.039270 0.000000
vt -0.162884 -0.019635 0.000000
vt 0.181250 -0.013090 0.000000
vt -0.179105 0.000000 0.000000
vt 0.181250 0.013090 0.000000
vt -0.189944 0.019635 0.000000
vt -0.192789 0.029452 0.000000
vt 0.181250 0.039270 0.000000
vt -0.193750 0.039270 0.000000
vt 0.000000 -0.150000 0.000000
vt 2.000000 -0.150000 0.000000
vt 0.000000 0.100000 0.000000
vt 2.000000 0.100000 0.000000
vt -0.100000 -0.628319 0.000000
vt 0.150000 -0.628319 0.000000
vt -0.100000 -0.523599 0.000000
vt 0.150000 -0.523599 0.000000
vt 0.150000 -0.418879 0.000000
vt -0.100000 -0.418879 0.000000
vt 0.150000 -0.314159 0.000000
vt -0.100000 -0.314159 0.000000
vt 0.150000 -0.209440 0.000000
vt -0.100000 -0.209440 0.000000
vt 0.150000 -0.104720 0.000000
vt -0.100000 -0.104720 0.000000
vt -0.100000 0.000000 0.000000
vt 0.150000 0.000000 0.000000
vt 0.000000 -0.150000 0.000000
vt 0.375000 -0.150000 0.000000
vt -0.000000 0.100000 0.000000
vt 0.375000 0.100000 0.000000
vt -0.337500 1.350000 0.000000
vt -0.337500 -1.350000 0.000000
vt -0.012500 1.350000 0.000000
vt -0.012500 -1.350000 0.000000
vt 0.095656 -1.332870 0.000000
vt 0.095656 1.332870 0.000000
vt 0.193225 -1.283156 0.000000
vt 0.193225 1.283156 0.000000
vt 0.337500 -1.000000 0.000000
vt 0.337500 1.000000 0.000000
vt 0.270656 -1.205725 0.000000
vt 0.320370 -1.108156 0.000000
vt 0.320370 1.108156 0.000000
vt 0.270656 1.205725 0.000000
vt -0.100000 -0.628319 0.000000
vt 0.150000 -0.628319 0.000000
vt -0.100000 -0.523599 0.000000
vt 0.150000 -0.523599 0.000000
vt 0.150000 -0.418879 0.000000
vt -0.100000 -0.418879 0.000000
vt 0.150000 -0.314159 0.000000
vt -0.100000 -0.314159 0.000000
vt 0.150000 -0.209440 0.000000
vt -0.100000 -0.209440 0.000000
vt 0.150000 -0.104720 0.000000
vt -0.100000 -0.104720 0.000000
vt -0.100000 0.000000 0.000000
vt 0.150000 0.000000 0.000000
vt 0.000000 -0.150000 0.000000
vt 0.375000 -0.150000 0.000000
vt 0.000000 0.100000 0.000000
vt 0.375000 0.100000 0.000000
vt -0.000000 -0.150000 0.000000
vt 2.800000 -0.150000 0.000000
vt -0.000000 0.100000 0.000000
vt 2.800000 0.100000 0.000000
vt 0.387500 1.400000 0.000000
vt 0.012500 1.400000 0.000000
vt 0.387500 -1.400000 0.000000
vt 0.012500 -1.400000 0.000000
vt -0.091028 -1.386370 0.000000
vt -0.091028 1.386370 0.000000
vt -0.187500 -1.346410 0.000000
vt -0.187500 1.346410 0.000000
vt -0.387500 -1.000000 0.000000
vt -0.387500 1.000000 0.000000
vt -0.270343 1.282843 0.000000
vt -0.333910 1.200000 0.000000
vt -0.373870 1.103528 0.000000
vt -0.373870 -1.103528 0.000000
vt -0.333910 -1.200000 0.000000
vt -0.270343 -1.282843 0.000000
vn -0.096126 -0.000000 -0.027564
vn -0.096126 -0.000000 -0.027564
vn -0.099657 -0.000000 -0.008281
vn -0.097030 -0.000000 0.024192
vn -0.099357 -0.000000 0.011320
vn -0.087462 -0.000000 0.048481
vn -0.071934 -0.000000 0.069466
vn -0.062251 -0.000000 0.078261
vn -0.027564 -0.000000 0.096126
vn -0.027564 -0.000000 0.096126
vn 0.000000 0.100000 -0.000000
vn -0.000000 0.100000 0.000000
vn -0.005377 0.098079 0.018753
vn -0.013782 0.086603 0.048063
vn -0.013782 0.086603 0.048063
vn -0.023871 0.050000 0.083248
vn -0.019491 0.070711 0.067971
vn -0.025466 0.038268 0.088809
vn -0.027564 -0.000000 0.096126
vn -0.023871 0.050000 0.083248
vn -0.023871 0.050000 0.083248
vn -0.013782 0.086603 0.048063
vn -0.013782 0.086603 0.048063
vn -0.005377 0.098079 0.018753
vn -0.010548 0.092388 0.036786
vn -0.019491 0.070711 0.067971
vn -0.023871 0.050000 0.083248
vn -0.025466 0.038268 0.088809
vn -0.010548 0.092388 0.036786
vn -0.000000 -0.100000 -0.000000
vn -0.013782 -0.086603 0.048063
vn -0.024879 -0.096593 -0.007134
vn -0.039507 -0.082364 0.040687
vn -0.048063 -0.086603 -0.013782
vn -0.062714 -0.070063 0.034032
vn -0.067971 -0.070711 -0.019491
vn -0.081131 -0.050904 0.028751
vn -0.083248 -0.050000 -0.023871
vn -0.092955 -0.026762 0.025361
vn -0.092851 -0.025882 -0.026625
vn -0.097030 -0.000000 0.024192
vn -0.096126 -0.000000 -0.027564
vn -0.023871 -0.050000 0.083248
vn -0.038723 -0.047553 0.078989
vn -0.052122 -0.040451 0.075147
vn -0.062755 -0.029389 0.072098
vn -0.069582 -0.015451 0.070140
vn -0.027564 -0.000000 0.096126
vn -0.027564 -0.000000 0.096126
vn -0.027564 -0.000000 0.096126
vn -0.027564 -0.000000 0.096126
vn -0.027564 -0.000000 0.096126
vn -0.013782 -0.086603 0.048063
vn -0.013782 -0.086603 0.048063
vn 0.000000 -0.100000 -0.000000
vn -0.013782 -0.086603 0.048063
vn -0.000000 -0.100000 0.000000
vn -0.013782 -0.086603 0.048063
vn -0.013782 -0.086603 0.048063
vn -0.023871 -0.050000 0.083248
vn -0.023871 -0.050000 0.083248
vn -0.027564 0.000000 0.096126
vn -0.023871 -0.050000 0.083248
vn -0.023871 -0.050000 0.083248
vn 0.096126 0.000000 0.027564
vn 0.069466 0.000000 0.071934
vn 0.092851 -0.025882 0.026625
vn 0.065391 -0.026762 0.070766
vn 0.083248 -0.050000 0.023871
vn 0.053567 -0.050904 0.067375
vn 0.067971 -0.070711 0.019491
vn 0.035150 -0.070063 0.062094
vn 0.048063 -0.086603 0.013782
vn 0.011943 -0.082364 0.055440
vn 0.024879 -0.096593 0.007134
vn -0.000000 -0.100000 0.000000
vn 0.024192 0.000000 0.097030
vn 0.021840 -0.015451 0.096355
vn 0.015013 -0.029389 0.094397
vn 0.004380 -0.040451 0.091348
vn -0.009019 -0.047553 0.087507
vn -0.027564 0.000000 0.096126
vn -0.027564 -0.000000 0.096126
vn -0.027564 0.000000 0.096126
vn -0.027564 0.000000 0.096126
vn -0.027564 0.000000 0.096126
vn -0.027564 -0.000000 0.096126
vn 0.011320 0.000000 0.099357
vn 0.048481 0.000000 0.087462
vn 0.078261 0.000000 0.062251
vn 0.088902 0.000000 0.045787
vn 0.096126 0.000000 0.027564
vn 0.096126 0.000000 0.027564
vn 0.000000 -0.100000 0.000000
vn 0.000000 -0.100000 0.000000
vn -0.024879 -0.096593 -0.007134
vn -0.048063 -0.086603 -0.013782
vn -0.067971 -0.070711 -0.019491
vn -0.083248 -0.050000 -0.023871
vn -0.092851 -0.025882 -0.026625
vn -0.096126 -0.000000 -0.027564
vn -0.096126 -0.000000 -0.027564
vn 0.096126 0.000000 0.027564
vn 0.092851 -0.025882 0.026625
vn 0.083248 -0.050000 0.023871
vn 0.067971 -0.070711 0.019491
vn 0.048063 -0.086603 0.013782
vn 0.024879 -0.096593 0.007134
vn 0.096126 0.000000 0.027564
vn -0.000000 0.100000 -0.000000
vn -0.000000 0.100000 -0.000000
vn -0.000000 0.100000 -0.000000
vn 0.027564 0.000000 -0.096126
vn 0.027564 0.000000 -0.096126
vn 0.027564 0.000000 -0.096126
vn 0.027564 0.000000 -0.096126
vn 0.027564 0.000000 -0.096126
vn 0.027564 0.000000 -0.096126
vn 0.027564 0.000000 -0.096126
vn 0.027564 0.000000 -0.096126
vn 0.027564 0.000000 -0.096126
vn 0.027564 0.000000 -0.096126
vn 0.027564 0.000000 -0.096126
vn 0.027564 0.000000 -0.096126
vn 0.027564 0.000000 -0.096126
vn 0.027564 0.000000 -0.096126
vn 0.027564 0.000000 -0.096126
vn 0.027564 0.000000 -0.096126
usemtl Paint_-_Enamel_Glossy_(Black)
f 1/1/1 2/2/2 10/3/3
f 10/3/3 2/2/2 3/4/4
f 10/3/3 3/4/4 9/5/5
f 9/5/5 3/4/4 8/6/6
f 8/6/6 3/4/4 4/7/7
f 8/6/6 4/7/7 7/8/8
f 7/8/8 4/7/7 5/9/9
f 7/8/8 5/9/9 6/10/10
f 11/11/11 1/12/12 16/13/13
f 16/13/13 1/12/12 19/14/14
f 16/13/13 19/14/14 20/15/15
f 20/15/15 19/14/14 24/16/16
f 20/15/15 24/16/16 14/17/17
f 14/17/17 24/16/16 13/18/18
f 13/18/18 24/16/16 12/19/19
f 12/19/19 24/16/16 23/20/20
f 12/19/19 23/20/20 22/21/21
f 22/21/21 23/20/20 18/22/22
f 22/21/21 18/22/22 17/23/23
f 17/23/23 18/22/22 1/12/12
f 17/23/23 1/12/12 10/24/24
f 10/24/24 9/25/25 17/23/23
f 17/23/23 9/25/25 8/26/26
f 17/23/23 8/26/26 21/27/27
f 21/27/27 8/26/26 7/28/28
f 21/27/27 7/28/28 22/21/21
f 22/21/21 7/28/28 12/19/19
f 7/28/28 6/29/10 12/19/19
f 14/17/17 15/30/29 20/15/15
f 20/15/15 15/30/29 16/13/13
f 19/14/14 1/12/12 18/22/22
f 21/27/27 22/21/21 17/23/23
f 24/16/16 19/14/14 23/20/20
f 23/20/20 19/14/14 18/22/22
f 25/31/30 26/32/31 37/33/32
f 37/33/32 26/32/31 39/34/33
f 37/33/32 39/34/33 36/35/34
f 36/35/34 39/34/33 41/36/35
f 36/35/34 41/36/35 35/37/36
f 35/37/36 41/36/35 43/38/37
f 35/37/36 43/38/37 34/39/38
f 34/39/38 43/38/37 45/40/39
f 34/39/38 45/40/39 33/41/40
f 33/41/40 45/40/39 3/42/41
f 33/41/40 3/42/41 2/43/42
f 26/32/31 27/44/43 39/34/33
f 39/34/33 27/44/43 38/45/44
f 39/34/33 38/45/44 41/36/35
f 41/36/35 38/45/44 40/46/45
f 41/36/35 40/46/45 43/38/37
f 43/38/37 40/46/45 42/47/46
f 43/38/37 42/47/46 45/40/39
f 45/40/39 42/47/46 44/48/47
f 45/40/39 44/48/47 3/42/41
f 3/42/41 44/48/47 4/49/7
f 4/49/7 44/48/47 32/50/48
f 4/49/7 32/50/48 5/51/9
f 27/44/43 28/52/49 38/45/44
f 38/45/44 28/52/49 29/53/50
f 38/45/44 29/53/50 40/46/45
f 40/46/45 29/53/50 30/54/51
f 40/46/45 30/54/51 42/47/46
f 42/47/46 30/54/51 31/55/52
f 42/47/46 31/55/52 44/48/47
f 44/48/47 31/55/52 32/50/48
f 47/56/53 50/57/54 46/58/55
f 46/58/55 50/57/54 51/59/56
f 46/58/55 51/59/56 25/60/57
f 25/60/57 51/59/56 52/61/58
f 25/60/57 52/61/58 26/62/59
f 26/62/59 52/61/58 27/63/43
f 27/63/43 52/61/58 55/64/60
f 27/63/43 55/64/60 28/65/49
f 28/65/49 55/64/60 54/66/61
f 28/65/49 54/66/61 49/67/62
f 49/67/62 54/66/61 53/68/63
f 49/67/62 53/68/63 48/69/64
f 48/69/64 53/68/63 47/56/53
f 47/56/53 53/68/63 50/57/54
f 55/64/60 52/61/58 51/59/56
f 53/68/63 54/66/61 50/57/54
f 50/57/54 54/66/61 51/59/56
f 54/66/61 55/64/60 51/59/56
f 56/70/65 57/71/66 68/72/67
f 68/72/67 57/71/66 70/73/68
f 68/72/67 70/73/68 67/74/69
f 67/74/69 70/73/68 72/75/70
f 67/74/69 72/75/70 66/76/71
f 66/76/71 72/75/70 74/77/72
f 66/76/71 74/77/72 65/78/73
f 65/78/73 74/77/72 76/79/74
f 65/78/73 76/79/74 64/80/75
f 64/80/75 76/79/74 47/81/53
f 64/80/75 47/81/53 46/82/76
f 57/71/66 58/83/77 70/73/68
f 70/73/68 58/83/77 69/84/78
f 70/73/68 69/84/78 72/75/70
f 72/75/70 69/84/78 71/85/79
f 72/75/70 71/85/79 74/77/72
f 74/77/72 71/85/79 73/86/80
f 74/77/72 73/86/80 76/79/74
f 76/79/74 73/86/80 75/87/81
f 76/79/74 75/87/81 47/81/53
f 47/81/53 75/87/81 48/88/64
f 48/88/64 75/87/81 63/89/82
f 48/88/64 63/89/82 49/90/62
f 58/83/77 59/91/83 69/84/78
f 69/84/78 59/91/83 60/92/84
f 69/84/78 60/92/84 71/85/79
f 71/85/79 60/92/84 61/93/85
f 71/85/79 61/93/85 73/86/80
f 73/86/80 61/93/85 62/94/86
f 73/86/80 62/94/86 75/87/81
f 75/87/81 62/94/86 63/89/82
f 12/95/87 59/96/83 13/97/88
f 13/97/88 59/96/83 58/98/77
f 13/97/88 58/98/77 14/99/89
f 14/99/89 58/98/77 57/100/66
f 14/99/89 57/100/66 15/101/90
f 15/101/90 57/100/66 16/102/91
f 16/102/91 57/100/66 56/103/92
f 16/102/91 56/103/92 11/104/93
f 46/105/55 25/106/30 78/107/94
f 78/107/94 25/106/30 77/108/95
f 77/109/95 25/110/30 84/111/96
f 84/111/96 25/110/30 37/112/32
f 84/111/96 37/112/32 36/113/34
f 84/111/96 36/113/34 83/114/97
f 83/114/97 36/113/34 35/115/36
f 83/114/97 35/115/36 82/116/98
f 82/116/98 35/115/36 34/117/38
f 82/116/98 34/117/38 81/118/99
f 81/118/99 34/117/38 33/119/40
f 81/118/99 33/119/40 80/120/100
f 80/120/100 33/119/40 79/121/101
f 79/121/101 33/119/40 2/122/2
f 2/123/2 1/124/1 79/125/101
f 79/125/101 1/124/1 85/126/102
f 12/127/87 6/128/10 59/129/83
f 59/129/83 6/128/10 5/130/9
f 59/129/83 5/130/9 32/131/48
f 59/129/83 32/131/48 60/132/84
f 60/132/84 32/131/48 31/133/52
f 60/132/84 31/133/52 61/134/85
f 61/134/85 31/133/52 28/135/49
f 61/134/85 28/135/49 49/136/62
f 31/133/52 30/137/51 28/135/49
f 28/135/49 30/137/51 29/138/50
f 63/139/82 62/140/86 49/136/62
f 49/136/62 62/140/86 61/134/85
f 91/141/103 56/142/65 90/143/104
f 90/143/104 56/142/65 68/144/67
f 90/143/104 68/144/67 67/145/69
f 90/143/104 67/145/69 89/146/105
f 89/146/105 67/145/69 66/147/71
f 89/146/105 66/147/71 88/148/106
f 88/148/106 66/147/71 65/149/73
f 88/148/106 65/149/73 87/150/107
f 87/150/107 65/149/73 64/151/75
f 87/150/107 64/151/75 86/152/108
f 86/152/108 64/151/75 78/153/94
f 78/153/94 64/151/75 46/154/55
f 11/155/93 56/156/65 92/157/109
f 92/157/109 56/156/65 91/158/103
f 1/159/12 11/160/110 85/161/111
f 85/161/111 11/160/110 92/162/112
f 92/163/113 91/164/114 85/165/115
f 85/165/115 91/164/114 79/166/116
f 79/166/116 91/164/114 80/167/117
f 80/167/117 91/164/114 90/168/118
f 80/167/117 90/168/118 81/169/119
f 81/169/119 90/168/118 89/170/120
f 81/169/119 89/170/120 77/171/121
f 77/171/121 89/170/120 78/172/122
f 78/172/122 89/170/120 88/173/123
f 78/172/122 88/173/123 87/174/124
f 87/174/124 86/175/125 78/172/122
f 84/176/126 83/177/127 77/171/121
f 77/171/121 83/177/127 82/178/128
f 77/171/121 82/178/128 81/169/119
# 92 vertices
# 178 texture params
# 128 normals
# 180 facets

# 1 groups
