# WaveFront *.obj file (generated by Autodesk ATF)

mtllib AyaNeo-01 v51_AyaNeo-01 v51_RightShoulder_AyaNeo-01 v51.mtl

g RightShoulder

v 20.800787 -1.750000 53.419054
v 46.754853 -1.750000 45.976846
v 46.928292 -1.558658 45.887519
v 47.054344 -1.396447 45.738620
v 47.113820 -1.288060 45.552816
v 47.115317 -1.259607 45.454811
v 47.097665 -1.250000 45.358396
v 20.182338 -1.250000 53.076242
v 20.218460 -1.259607 53.167360
v 20.271664 -1.288060 53.249681
v 20.420564 -1.396447 53.375733
v 20.606367 -1.558658 53.435209
v 41.833954 -1.500000 47.318204
v 36.450889 -1.500000 48.861773
v 31.067823 -1.500000 50.405342
v 25.684758 -1.500000 51.948912
v 41.783509 -1.316987 47.142281
v 36.400443 -1.316987 48.685850
v 31.017378 -1.316987 50.229419
v 25.634312 -1.316987 51.772988
v 46.754853 -5.000000 45.976846
v 46.976704 -5.000000 45.843544
v 47.102182 -5.000000 45.617176
v 47.097665 -5.000000 45.358396
v 43.390437 -8.500000 46.941576
v 43.371973 -8.750000 46.877184
v 43.321528 -8.933013 46.701261
v 43.252618 -9.000000 46.460946
v 44.247790 -8.863703 46.175585
v 45.175142 -8.464102 45.909671
v 45.971477 -7.828427 45.681325
v 46.582527 -7.000000 45.506110
v 46.966648 -6.035276 45.395965
v 46.590187 -6.081560 46.024063
v 46.112307 -7.057249 46.161093
v 45.367991 -7.831560 46.374522
v 44.430099 -8.328698 46.643458
v 44.489814 -8.740517 46.366260
v 44.485896 -8.566462 46.557772
v 45.543741 -8.181874 46.064052
v 45.490781 -8.033814 46.269626
v 46.380141 -7.311767 45.824218
v 46.288262 -7.204195 46.040952
v 46.917144 -6.215368 45.670235
v 46.800276 -6.158814 45.894134
v 24.165203 -8.500000 52.454324
v 24.146739 -8.750000 52.389931
v 24.096294 -8.933013 52.214008
v 24.027384 -9.000000 51.973693
v 28.953047 -8.750000 51.011744
v 33.759356 -8.750000 49.633558
v 38.565664 -8.750000 48.255371
v 28.902602 -8.933013 50.835821
v 33.708911 -8.933013 49.457635
v 38.515219 -8.933013 48.079448
v 20.800787 -5.000000 53.419054
v 20.542008 -5.000000 53.423571
v 20.315639 -5.000000 53.298093
v 20.182338 -5.000000 53.076242
v 20.313354 -6.035276 53.038674
v 20.697476 -7.000000 52.928529
v 21.308526 -7.828427 52.753313
v 22.104861 -8.464102 52.524967
v 23.032213 -8.863703 52.259054
v 23.125541 -8.328698 52.752442
v 22.187649 -7.831560 53.021378
v 21.443333 -7.057249 53.234807
v 20.965453 -6.081560 53.371837
v 20.500678 -6.215368 53.245034
v 20.718436 -6.158814 53.372981
v 21.037680 -7.311767 53.091052
v 21.230450 -7.204195 53.226164
v 21.874081 -8.181874 52.851217
v 22.027931 -8.033814 52.997490
v 22.928007 -8.740517 52.549009
v 23.032816 -8.566462 52.709344
v 19.493244 -5.000000 50.673088
v 19.624261 -6.035276 50.635519
v 20.008383 -7.000000 50.525374
v 20.619432 -7.828427 50.350159
v 21.415768 -8.464102 50.121813
v 22.343120 -8.863703 49.855899
v 23.338291 -9.000000 49.570539
v 19.493244 -1.250000 50.673088
v 46.408572 -1.250000 42.955242
v 46.408572 -5.000000 42.955242
v 42.563525 -9.000000 44.057791
v 43.558696 -8.863703 43.772431
v 44.486048 -8.464102 43.506517
v 45.282384 -7.828427 43.278171
v 45.893433 -7.000000 43.102956
v 46.277555 -6.035276 42.992810
vt 2.050000 0.039270 0.000000
vt -0.650000 0.039270 0.000000
vt 2.069134 0.019635 0.000000
vt 0.980000 0.013090 0.000000
vt 1.540000 0.013090 0.000000
vt 1.540000 -0.013090 0.000000
vt 2.085355 0.000000 0.000000
vt 2.096194 -0.019635 0.000000
vt 2.099039 -0.029452 0.000000
vt 2.100000 -0.039270 0.000000
vt 0.980000 -0.013090 0.000000
vt 0.420000 -0.013090 0.000000
vt 0.420000 0.013090 0.000000
vt -0.140000 0.013090 0.000000
vt -0.669134 0.019635 0.000000
vt -0.685355 0.000000 0.000000
vt -0.140000 -0.013090 0.000000
vt -0.699039 -0.029452 0.000000
vt -0.700000 -0.039270 0.000000
vt -0.696194 -0.019635 0.000000
vt 0.331250 0.039270 0.000000
vt 0.006250 0.039270 0.000000
vt 0.350384 0.019635 0.000000
vt 0.006250 0.013090 0.000000
vt 0.366605 0.000000 0.000000
vt 0.006250 -0.013090 0.000000
vt 0.377444 -0.019635 0.000000
vt 0.380289 -0.029452 0.000000
vt 0.006250 -0.039270 0.000000
vt 0.381250 -0.039270 0.000000
vt 0.078540 -0.605315 0.000000
vt 0.052360 -0.605315 0.000000
vt 0.078540 -0.726378 0.000000
vt 0.052360 -0.726378 0.000000
vt 0.078540 -0.847441 0.000000
vt 0.052360 -0.847441 0.000000
vt 0.078540 -0.968504 0.000000
vt 0.052360 -0.968504 0.000000
vt 0.078540 -1.089567 0.000000
vt 0.052360 -1.089567 0.000000
vt 0.078540 -1.210630 0.000000
vt 0.052360 -1.210630 0.000000
vt 0.026180 -1.089567 0.000000
vt 0.026180 -1.210630 0.000000
vt -0.000000 -1.109744 0.000000
vt -0.000000 -1.210630 0.000000
vt 0.026180 -0.605315 0.000000
vt 0.026180 -0.726378 0.000000
vt 0.026180 -0.847441 0.000000
vt 0.026180 -0.968504 0.000000
vt 0.000000 -0.605315 0.000000
vt 0.000000 -0.706201 0.000000
vt -0.000000 -0.807086 0.000000
vt -0.000000 -0.907972 0.000000
vt 0.000000 -1.008858 0.000000
vt -0.500000 0.013090 0.000000
vt 0.000000 0.013090 0.000000
vt -0.500000 0.039270 0.000000
vt 0.500000 0.013090 0.000000
vt 1.500000 0.039270 0.000000
vt 1.000000 0.013090 0.000000
vt 1.500000 0.013090 0.000000
vt 1.500000 -0.013090 0.000000
vt 1.000000 -0.013090 0.000000
vt 1.500000 -0.039270 0.000000
vt 0.500000 -0.013090 0.000000
vt -0.500000 -0.039270 0.000000
vt 0.000000 -0.013090 0.000000
vt -0.500000 -0.013090 0.000000
vt 0.078540 0.000000 0.000000
vt 0.052360 0.000000 0.000000
vt 0.078540 -0.121063 0.000000
vt 0.052360 -0.121063 0.000000
vt 0.078540 -0.242126 0.000000
vt 0.052360 -0.242126 0.000000
vt 0.078540 -0.363189 0.000000
vt 0.052360 -0.363189 0.000000
vt 0.078540 -0.484252 0.000000
vt 0.052360 -0.484252 0.000000
vt 0.078540 -0.605315 0.000000
vt 0.052360 -0.605315 0.000000
vt 0.026180 -0.484252 0.000000
vt 0.026180 -0.605315 0.000000
vt -0.000000 -0.504429 0.000000
vt 0.000000 -0.605315 0.000000
vt 0.026180 0.000000 0.000000
vt 0.026180 -0.121063 0.000000
vt 0.026180 -0.242126 0.000000
vt 0.026180 -0.363189 0.000000
vt -0.000000 0.000000 0.000000
vt 0.000000 -0.100886 0.000000
vt 0.000000 -0.201772 0.000000
vt 0.000000 -0.302657 0.000000
vt 0.000000 -0.403543 0.000000
vt -0.193750 -0.039270 0.000000
vt 0.181250 -0.039270 0.000000
vt -0.192789 -0.029452 0.000000
vt 0.181250 -0.013090 0.000000
vt -0.189944 -0.019635 0.000000
vt -0.179105 -0.000000 0.000000
vt 0.181250 0.013090 0.000000
vt -0.162884 0.019635 0.000000
vt 0.181250 0.039270 0.000000
vt -0.143750 0.039270 0.000000
vt 0.100000 0.000000 0.000000
vt -0.150000 0.000000 0.000000
vt 0.100000 -0.104720 0.000000
vt -0.150000 -0.104720 0.000000
vt -0.150000 -0.209440 0.000000
vt 0.100000 -0.209440 0.000000
vt -0.150000 -0.314159 0.000000
vt 0.100000 -0.314159 0.000000
vt -0.150000 -0.418879 0.000000
vt 0.100000 -0.418879 0.000000
vt -0.150000 -0.523599 0.000000
vt 0.100000 -0.523599 0.000000
vt 0.100000 -0.628319 0.000000
vt -0.150000 -0.628319 0.000000
vt -0.375000 -0.150000 0.000000
vt -0.000000 -0.150000 0.000000
vt -0.375000 0.100000 0.000000
vt -0.000000 0.100000 0.000000
vt -2.800000 -0.150000 0.000000
vt 0.000000 -0.150000 0.000000
vt -2.800000 0.100000 0.000000
vt 0.000000 0.100000 0.000000
vt 0.337500 1.350000 0.000000
vt 0.012500 1.350000 0.000000
vt 0.337500 -1.350000 0.000000
vt 0.012500 -1.350000 0.000000
vt -0.095656 -1.332870 0.000000
vt -0.095656 1.332870 0.000000
vt -0.193225 -1.283156 0.000000
vt -0.193225 1.283156 0.000000
vt -0.337500 -1.000000 0.000000
vt -0.337500 1.000000 0.000000
vt -0.270656 1.205725 0.000000
vt -0.320370 1.108156 0.000000
vt -0.320370 -1.108156 0.000000
vt -0.270656 -1.205725 0.000000
vt -0.375000 -0.150000 0.000000
vt -0.000000 -0.150000 0.000000
vt -0.375000 0.100000 0.000000
vt 0.000000 0.100000 0.000000
vt 0.100000 0.000000 0.000000
vt -0.150000 0.000000 0.000000
vt 0.100000 -0.104720 0.000000
vt -0.150000 -0.104720 0.000000
vt -0.150000 -0.209440 0.000000
vt 0.100000 -0.209440 0.000000
vt -0.150000 -0.314159 0.000000
vt 0.100000 -0.314159 0.000000
vt -0.150000 -0.418879 0.000000
vt 0.100000 -0.418879 0.000000
vt -0.150000 -0.523599 0.000000
vt 0.100000 -0.523599 0.000000
vt 0.100000 -0.628319 0.000000
vt -0.150000 -0.628319 0.000000
vt -2.000000 -0.150000 0.000000
vt -0.000000 -0.150000 0.000000
vt -2.000000 0.100000 0.000000
vt -0.000000 0.100000 0.000000
vt -0.387500 1.400000 0.000000
vt -0.387500 -1.400000 0.000000
vt -0.012500 1.400000 0.000000
vt -0.012500 -1.400000 0.000000
vt 0.091028 -1.386370 0.000000
vt 0.091028 1.386370 0.000000
vt 0.187500 -1.346410 0.000000
vt 0.187500 1.346410 0.000000
vt 0.387500 -1.000000 0.000000
vt 0.387500 1.000000 0.000000
vt 0.270343 -1.282843 0.000000
vt 0.333910 -1.200000 0.000000
vt 0.373870 -1.103528 0.000000
vt 0.373870 1.103528 0.000000
vt 0.333910 1.200000 0.000000
vt 0.270343 1.282843 0.000000
vn 0.027564 -0.000000 0.096126
vn 0.027564 0.000000 0.096126
vn 0.025466 0.038268 0.088809
vn 0.023871 0.050000 0.083248
vn 0.023871 0.050000 0.083248
vn 0.013782 0.086603 0.048063
vn 0.019491 0.070711 0.067971
vn 0.010548 0.092388 0.036786
vn 0.005377 0.098079 0.018753
vn -0.000000 0.100000 -0.000000
vn 0.013782 0.086603 0.048063
vn 0.013782 0.086603 0.048063
vn 0.023871 0.050000 0.083248
vn 0.023871 0.050000 0.083248
vn 0.025466 0.038268 0.088809
vn 0.019491 0.070711 0.067971
vn 0.013782 0.086603 0.048063
vn 0.005377 0.098079 0.018753
vn 0.000000 0.100000 0.000000
vn 0.010548 0.092388 0.036786
vn 0.027564 -0.000000 0.096126
vn 0.027564 -0.000000 0.096126
vn 0.062251 -0.000000 0.078261
vn 0.071934 -0.000000 0.069466
vn 0.087462 -0.000000 0.048481
vn 0.097030 -0.000000 0.024192
vn 0.099357 -0.000000 0.011320
vn 0.099657 -0.000000 -0.008281
vn 0.096126 -0.000000 -0.027564
vn 0.096126 0.000000 -0.027564
vn 0.027564 -0.000000 0.096126
vn 0.023871 -0.050000 0.083248
vn 0.027564 -0.000000 0.096126
vn 0.038723 -0.047553 0.078989
vn 0.027564 -0.000000 0.096126
vn 0.052122 -0.040451 0.075147
vn 0.027564 -0.000000 0.096126
vn 0.062755 -0.029389 0.072098
vn 0.027564 -0.000000 0.096126
vn 0.069582 -0.015451 0.070140
vn 0.092955 -0.026762 0.025361
vn 0.097030 -0.000000 0.024192
vn 0.092851 -0.025882 -0.026625
vn 0.013782 -0.086603 0.048063
vn 0.039507 -0.082364 0.040687
vn 0.062714 -0.070063 0.034032
vn 0.081131 -0.050904 0.028751
vn 0.000000 -0.100000 -0.000000
vn 0.024879 -0.096593 -0.007134
vn 0.048063 -0.086603 -0.013782
vn 0.067971 -0.070711 -0.019491
vn 0.083248 -0.050000 -0.023871
vn 0.023871 -0.050000 0.083248
vn 0.023871 -0.050000 0.083248
vn 0.027564 0.000000 0.096126
vn 0.023871 -0.050000 0.083248
vn 0.023871 -0.050000 0.083248
vn 0.013782 -0.086603 0.048063
vn 0.013782 -0.086603 0.048063
vn 0.000000 -0.100000 0.000000
vn 0.013782 -0.086603 0.048063
vn -0.000000 -0.100000 -0.000000
vn 0.013782 -0.086603 0.048063
vn 0.013782 -0.086603 0.048063
vn 0.027564 -0.000000 0.096126
vn -0.024192 0.000000 0.097030
vn 0.027564 0.000000 0.096126
vn -0.021840 -0.015451 0.096355
vn 0.027564 0.000000 0.096126
vn -0.015013 -0.029389 0.094397
vn 0.027564 0.000000 0.096126
vn -0.004380 -0.040451 0.091348
vn 0.027564 0.000000 0.096126
vn 0.009019 -0.047553 0.087507
vn -0.011943 -0.082364 0.055440
vn -0.024879 -0.096593 0.007134
vn 0.000000 -0.100000 0.000000
vn -0.069466 0.000000 0.071934
vn -0.065391 -0.026762 0.070766
vn -0.053567 -0.050904 0.067375
vn -0.035150 -0.070063 0.062094
vn -0.096126 0.000000 0.027564
vn -0.092851 -0.025882 0.026625
vn -0.083248 -0.050000 0.023871
vn -0.067971 -0.070711 0.019491
vn -0.048063 -0.086603 0.013782
vn -0.096126 0.000000 0.027564
vn -0.096126 0.000000 0.027564
vn -0.088902 0.000000 0.045787
vn -0.078261 0.000000 0.062251
vn -0.048481 0.000000 0.087462
vn -0.011320 0.000000 0.099357
vn 0.027564 -0.000000 0.096126
vn -0.000000 -0.100000 0.000000
vn -0.024879 -0.096593 0.007134
vn -0.048063 -0.086603 0.013782
vn -0.067971 -0.070711 0.019491
vn -0.083248 -0.050000 0.023871
vn -0.092851 -0.025882 0.026625
vn -0.096126 0.000000 0.027564
vn -0.096126 0.000000 0.027564
vn 0.000000 0.100000 -0.000000
vn 0.000000 0.100000 -0.000000
vn 0.000000 0.100000 -0.000000
vn 0.096126 -0.000000 -0.027564
vn 0.096126 -0.000000 -0.027564
vn 0.092851 -0.025882 -0.026625
vn 0.083248 -0.050000 -0.023871
vn 0.067971 -0.070711 -0.019491
vn 0.048063 -0.086603 -0.013782
vn 0.024879 -0.096593 -0.007134
vn 0.000000 -0.100000 -0.000000
vn -0.027564 0.000000 -0.096126
vn -0.027564 0.000000 -0.096126
vn -0.027564 0.000000 -0.096126
vn -0.027564 0.000000 -0.096126
vn -0.027564 0.000000 -0.096126
vn -0.027564 0.000000 -0.096126
vn -0.027564 0.000000 -0.096126
vn -0.027564 0.000000 -0.096126
vn -0.027564 0.000000 -0.096126
vn -0.027564 0.000000 -0.096126
vn -0.027564 0.000000 -0.096126
vn -0.027564 0.000000 -0.096126
vn -0.027564 0.000000 -0.096126
vn -0.027564 0.000000 -0.096126
vn -0.027564 0.000000 -0.096126
vn -0.027564 0.000000 -0.096126
usemtl Paint_-_Enamel_Glossy_(Black)
f 1/1/1 2/2/2 12/3/3
f 12/3/3 2/2/2 15/4/4
f 12/3/3 15/4/4 16/5/5
f 16/5/5 15/4/4 20/6/6
f 16/5/5 20/6/6 11/7/7
f 11/7/7 20/6/6 10/8/8
f 10/8/8 20/6/6 9/9/9
f 9/9/9 20/6/6 8/10/10
f 8/10/10 20/6/6 19/11/11
f 8/10/10 19/11/11 18/12/12
f 18/12/12 19/11/11 14/13/13
f 18/12/12 14/13/13 13/14/14
f 13/14/14 14/13/13 2/2/2
f 13/14/14 2/2/2 3/15/15
f 3/15/15 4/16/16 13/14/14
f 13/14/14 4/16/16 17/17/17
f 13/14/14 17/17/17 18/12/12
f 18/12/12 17/17/17 6/18/18
f 18/12/12 6/18/18 8/10/10
f 8/10/10 6/18/18 7/19/19
f 4/16/16 5/20/20 17/17/17
f 17/17/17 5/20/20 6/18/18
f 11/7/7 12/3/3 16/5/5
f 15/4/4 2/2/2 14/13/13
f 20/6/6 15/4/4 19/11/11
f 19/11/11 15/4/4 14/13/13
f 2/21/21 21/22/22 3/23/23
f 3/23/23 21/22/22 22/24/24
f 3/23/23 22/24/24 4/25/25
f 4/25/25 22/24/24 23/26/26
f 4/25/25 23/26/26 5/27/27
f 5/27/27 23/26/26 6/28/28
f 6/28/28 23/26/26 24/29/29
f 6/28/28 24/29/29 7/30/30
f 25/31/31 26/32/32 37/33/33
f 37/33/33 26/32/32 39/34/34
f 37/33/33 39/34/34 36/35/35
f 36/35/35 39/34/34 41/36/36
f 36/35/35 41/36/36 35/37/37
f 35/37/37 41/36/36 43/38/38
f 35/37/37 43/38/38 34/39/39
f 34/39/39 43/38/38 45/40/40
f 34/39/39 45/40/40 21/41/22
f 21/41/22 45/40/40 22/42/24
f 22/42/24 45/40/40 44/43/41
f 22/42/24 44/43/41 23/44/42
f 23/44/42 44/43/41 33/45/43
f 23/44/42 33/45/43 24/46/29
f 26/32/32 27/47/44 39/34/34
f 39/34/34 27/47/44 38/48/45
f 39/34/34 38/48/45 41/36/36
f 41/36/36 38/48/45 40/49/46
f 41/36/36 40/49/46 43/38/38
f 43/38/38 40/49/46 42/50/47
f 43/38/38 42/50/47 45/40/40
f 45/40/40 42/50/47 44/43/41
f 28/51/48 29/52/49 27/47/44
f 27/47/44 29/52/49 38/48/45
f 29/52/49 30/53/50 38/48/45
f 38/48/45 30/53/50 40/49/46
f 30/53/50 31/54/51 40/49/46
f 40/49/46 31/54/51 42/50/47
f 31/54/51 32/55/52 42/50/47
f 42/50/47 32/55/52 44/43/41
f 32/55/52 33/45/43 44/43/41
f 47/56/53 50/57/54 46/58/55
f 46/58/55 50/57/54 51/59/56
f 46/58/55 51/59/56 25/60/31
f 25/60/31 51/59/56 52/61/57
f 25/60/31 52/61/57 26/62/32
f 26/62/32 52/61/57 27/63/58
f 27/63/58 52/61/57 55/64/59
f 27/63/58 55/64/59 28/65/60
f 28/65/60 55/64/59 54/66/61
f 28/65/60 54/66/61 49/67/62
f 49/67/62 54/66/61 53/68/63
f 49/67/62 53/68/63 48/69/64
f 48/69/64 53/68/63 47/56/53
f 47/56/53 53/68/63 50/57/54
f 55/64/59 52/61/57 51/59/56
f 53/68/63 54/66/61 50/57/54
f 50/57/54 54/66/61 51/59/56
f 54/66/61 55/64/59 51/59/56
f 56/70/65 57/71/66 68/72/67
f 68/72/67 57/71/66 70/73/68
f 68/72/67 70/73/68 67/74/69
f 67/74/69 70/73/68 72/75/70
f 67/74/69 72/75/70 66/76/71
f 66/76/71 72/75/70 74/77/72
f 66/76/71 74/77/72 65/78/73
f 65/78/73 74/77/72 76/79/74
f 65/78/73 76/79/74 46/80/55
f 46/80/55 76/79/74 47/81/53
f 47/81/53 76/79/74 75/82/75
f 47/81/53 75/82/75 48/83/64
f 48/83/64 75/82/75 64/84/76
f 48/83/64 64/84/76 49/85/77
f 57/71/66 58/86/78 70/73/68
f 70/73/68 58/86/78 69/87/79
f 70/73/68 69/87/79 72/75/70
f 72/75/70 69/87/79 71/88/80
f 72/75/70 71/88/80 74/77/72
f 74/77/72 71/88/80 73/89/81
f 74/77/72 73/89/81 76/79/74
f 76/79/74 73/89/81 75/82/75
f 59/90/82 60/91/83 58/86/78
f 58/86/78 60/91/83 69/87/79
f 60/91/83 61/92/84 69/87/79
f 69/87/79 61/92/84 71/88/80
f 61/92/84 62/93/85 71/88/80
f 71/88/80 62/93/85 73/89/81
f 62/93/85 63/94/86 73/89/81
f 73/89/81 63/94/86 75/82/75
f 63/94/86 64/84/76 75/82/75
f 8/95/87 59/96/88 9/97/89
f 9/97/89 59/96/88 58/98/78
f 9/97/89 58/98/78 10/99/90
f 10/99/90 58/98/78 11/100/91
f 11/100/91 58/98/78 57/101/66
f 11/100/91 57/101/66 12/102/92
f 12/102/92 57/101/66 56/103/65
f 12/102/92 56/103/65 1/104/93
f 83/105/94 49/106/62 82/107/95
f 82/107/95 49/106/62 64/108/76
f 82/107/95 64/108/76 63/109/86
f 82/107/95 63/109/86 81/110/96
f 81/110/96 63/109/86 62/111/85
f 81/110/96 62/111/85 80/112/97
f 80/112/97 62/111/85 61/113/84
f 80/112/97 61/113/84 79/114/98
f 79/114/98 61/113/84 60/115/83
f 79/114/98 60/115/83 78/116/99
f 78/116/99 60/115/83 77/117/100
f 77/117/100 60/115/83 59/118/82
f 59/119/82 8/120/87 77/121/100
f 77/121/100 8/120/87 84/122/101
f 8/123/102 7/124/19 84/125/103
f 84/125/103 7/124/19 85/126/104
f 1/127/93 56/128/65 2/129/21
f 2/129/21 56/128/65 21/130/22
f 21/130/22 56/128/65 34/131/39
f 34/131/39 56/128/65 68/132/67
f 34/131/39 68/132/67 35/133/37
f 35/133/37 68/132/67 67/134/69
f 35/133/37 67/134/69 25/135/31
f 25/135/31 67/134/69 46/136/55
f 46/136/55 67/134/69 66/137/71
f 46/136/55 66/137/71 65/138/73
f 37/139/33 36/140/35 25/135/31
f 25/135/31 36/140/35 35/133/37
f 7/141/30 24/142/29 85/143/105
f 85/143/105 24/142/29 86/144/106
f 86/145/106 24/146/29 92/147/107
f 92/147/107 24/146/29 33/148/43
f 92/147/107 33/148/43 32/149/52
f 92/147/107 32/149/52 91/150/108
f 91/150/108 32/149/52 31/151/51
f 91/150/108 31/151/51 90/152/109
f 90/152/109 31/151/51 30/153/50
f 90/152/109 30/153/50 89/154/110
f 89/154/110 30/153/50 29/155/49
f 89/154/110 29/155/49 88/156/111
f 88/156/111 29/155/49 87/157/112
f 87/157/112 29/155/49 28/158/48
f 28/159/48 49/160/62 87/161/112
f 87/161/112 49/160/62 83/162/94
f 84/163/113 85/164/114 77/165/115
f 77/165/115 85/164/114 86/166/116
f 77/165/115 86/166/116 92/167/117
f 77/165/115 92/167/117 78/168/118
f 78/168/118 92/167/117 91/169/119
f 78/168/118 91/169/119 79/170/120
f 79/170/120 91/169/119 87/171/121
f 79/170/120 87/171/121 83/172/122
f 91/169/119 90/173/123 87/171/121
f 87/171/121 90/173/123 89/174/124
f 87/171/121 89/174/124 88/175/125
f 82/176/126 81/177/127 83/172/122
f 83/172/122 81/177/127 80/178/128
f 83/172/122 80/178/128 79/170/120
# 92 vertices
# 178 texture params
# 128 normals
# 180 facets

# 1 groups
