# WaveFront *.obj file (generated by Autodesk ATF)

mtllib _AyaNeo-01 v57_RightShoulder_AyaNeo-01 v57.mtl

g RightShoulder

v 93.800787 -1.750000 53.919054
v 119.754853 -1.750000 46.476846
v 119.928292 -1.558658 46.387519
v 120.054344 -1.396447 46.238620
v 120.113820 -1.288060 46.052816
v 120.115317 -1.259607 45.954811
v 120.097665 -1.250000 45.858396
v 93.182338 -1.250000 53.576242
v 93.218460 -1.259607 53.667360
v 93.271664 -1.288060 53.749681
v 93.420564 -1.396447 53.875733
v 93.606367 -1.558658 53.935209
v 114.833954 -1.500000 47.818204
v 109.450889 -1.500000 49.361773
v 104.067823 -1.500000 50.905342
v 98.684758 -1.500000 52.448912
v 114.783509 -1.316987 47.642281
v 109.400443 -1.316987 49.185850
v 104.017378 -1.316987 50.729419
v 98.634312 -1.316987 52.272988
v 119.754853 -5.000000 46.476846
v 119.976704 -5.000000 46.343544
v 120.102182 -5.000000 46.117176
v 120.097665 -5.000000 45.858396
v 116.390437 -8.500000 47.441576
v 116.371973 -8.750000 47.377184
v 116.321528 -8.933013 47.201261
v 116.252618 -9.000000 46.960946
v 117.440803 -8.804226 46.620239
v 118.512680 -8.236068 46.312883
v 119.363327 -7.351141 46.068964
v 119.909475 -6.236068 45.912359
v 119.590187 -6.081559 46.524063
v 119.112307 -7.057248 46.661093
v 118.367991 -7.831559 46.874522
v 117.430099 -8.328698 47.143458
v 117.489814 -8.740517 46.866260
v 117.485896 -8.566462 47.057772
v 118.543741 -8.181874 46.564052
v 118.490781 -8.033814 46.769626
v 119.380141 -7.311767 46.324218
v 119.288262 -7.204195 46.540952
v 119.917144 -6.215368 46.170235
v 119.800276 -6.158814 46.394134
v 97.165203 -8.500000 52.954324
v 97.146739 -8.750000 52.889931
v 97.096294 -8.933013 52.714008
v 97.027384 -9.000000 52.473693
v 101.953047 -8.750000 51.511744
v 106.759356 -8.750000 50.133558
v 111.565664 -8.750000 48.755371
v 101.902602 -8.933013 51.335821
v 106.708911 -8.933013 49.957635
v 111.515219 -8.933013 48.579448
v 93.800787 -5.000000 53.919054
v 93.542008 -5.000000 53.923571
v 93.315639 -5.000000 53.798093
v 93.182338 -5.000000 53.576242
v 93.370528 -6.236068 53.522280
v 93.916676 -7.351141 53.365674
v 94.767323 -8.236068 53.121755
v 95.839200 -8.804226 52.814399
v 96.125541 -8.328698 53.252442
v 95.187649 -7.831559 53.521378
v 94.443333 -7.057248 53.734807
v 93.965453 -6.081559 53.871837
v 93.500678 -6.215368 53.745034
v 93.718436 -6.158814 53.872981
v 94.037680 -7.311767 53.591052
v 94.230450 -7.204195 53.726164
v 94.874081 -8.181874 53.351217
v 95.027931 -8.033814 53.497490
v 95.928007 -8.740517 53.049009
v 96.032816 -8.566462 53.209344
v 92.493244 -5.000000 51.173088
v 92.681434 -6.236068 51.119125
v 93.227583 -7.351141 50.962520
v 94.078229 -8.236068 50.718601
v 95.150106 -8.804226 50.411245
v 96.338291 -9.000000 50.070539
v 92.493244 -1.250000 51.173088
v 119.408572 -1.250000 43.455242
v 119.408572 -5.000000 43.455242
v 115.563525 -9.000000 44.557791
v 116.751710 -8.804226 44.217085
v 117.823587 -8.236068 43.909729
v 118.674233 -7.351141 43.665810
v 119.220382 -6.236068 43.509205
vt 2.050000 0.039270 0.000000
vt -0.650000 0.039270 0.000000
vt 2.069134 0.019635 0.000000
vt 0.980000 0.013090 0.000000
vt 1.540000 0.013090 0.000000
vt 1.540000 -0.013090 0.000000
vt 2.085355 0.000000 0.000000
vt 2.096194 -0.019635 0.000000
vt 2.099039 -0.029452 0.000000
vt 2.100000 -0.039270 0.000000
vt 0.980000 -0.013090 0.000000
vt 0.420000 -0.013090 0.000000
vt 0.420000 0.013090 0.000000
vt -0.140000 0.013090 0.000000
vt -0.669134 0.019635 0.000000
vt -0.685355 -0.000000 0.000000
vt -0.140000 -0.013090 0.000000
vt -0.699039 -0.029452 0.000000
vt -0.700000 -0.039270 0.000000
vt -0.696194 -0.019635 0.000000
vt 0.331250 0.039270 0.000000
vt 0.006250 0.039270 0.000000
vt 0.350384 0.019635 0.000000
vt 0.006250 0.013090 0.000000
vt 0.366605 -0.000000 0.000000
vt 0.006250 -0.013090 0.000000
vt 0.377444 -0.019635 0.000000
vt 0.380289 -0.029452 0.000000
vt 0.006250 -0.039270 0.000000
vt 0.381250 -0.039270 0.000000
vt 0.078540 -0.605315 0.000000
vt 0.052360 -0.605315 0.000000
vt 0.078540 -0.726378 0.000000
vt 0.052360 -0.726378 0.000000
vt 0.078540 -0.847441 0.000000
vt 0.052360 -0.847441 0.000000
vt 0.078540 -0.968504 0.000000
vt 0.052360 -0.968504 0.000000
vt 0.078540 -1.089567 0.000000
vt 0.052360 -1.089567 0.000000
vt 0.078540 -1.210630 0.000000
vt 0.052360 -1.210630 0.000000
vt 0.026180 -1.089567 0.000000
vt 0.026180 -1.210630 0.000000
vt 0.000000 -1.089567 0.000000
vt -0.000000 -1.210630 0.000000
vt 0.026180 -0.605315 0.000000
vt 0.026180 -0.726378 0.000000
vt 0.026180 -0.847441 0.000000
vt 0.026180 -0.968504 0.000000
vt -0.000000 -0.605315 0.000000
vt -0.000000 -0.726378 0.000000
vt 0.000000 -0.847441 0.000000
vt 0.000000 -0.968504 0.000000
vt -0.500000 0.013090 0.000000
vt 0.000000 0.013090 0.000000
vt -0.500000 0.039270 0.000000
vt 0.500000 0.013090 0.000000
vt 1.500000 0.039270 0.000000
vt 1.000000 0.013090 0.000000
vt 1.500000 0.013090 0.000000
vt 1.500000 -0.013090 0.000000
vt 1.000000 -0.013090 0.000000
vt 1.500000 -0.039270 0.000000
vt 0.500000 -0.013090 0.000000
vt -0.500000 -0.039270 0.000000
vt 0.000000 -0.013090 0.000000
vt -0.500000 -0.013090 0.000000
vt 0.078540 -0.000000 0.000000
vt 0.052360 -0.000000 0.000000
vt 0.078540 -0.121063 0.000000
vt 0.052360 -0.121063 0.000000
vt 0.078540 -0.242126 0.000000
vt 0.052360 -0.242126 0.000000
vt 0.078540 -0.363189 0.000000
vt 0.052360 -0.363189 0.000000
vt 0.078540 -0.484252 0.000000
vt 0.052360 -0.484252 0.000000
vt 0.078540 -0.605315 0.000000
vt 0.052360 -0.605315 0.000000
vt 0.026180 -0.484252 0.000000
vt 0.026180 -0.605315 0.000000
vt 0.000000 -0.484252 0.000000
vt 0.000000 -0.605315 0.000000
vt 0.026180 -0.000000 0.000000
vt 0.026180 -0.121063 0.000000
vt 0.026180 -0.242126 0.000000
vt 0.026180 -0.363189 0.000000
vt 0.000000 -0.000000 0.000000
vt -0.000000 -0.121063 0.000000
vt 0.000000 -0.242126 0.000000
vt -0.000000 -0.363189 0.000000
vt -0.193750 -0.039270 0.000000
vt 0.181250 -0.039270 0.000000
vt -0.192789 -0.029452 0.000000
vt 0.181250 -0.013090 0.000000
vt -0.189944 -0.019635 0.000000
vt -0.179105 0.000000 0.000000
vt 0.181250 0.013090 0.000000
vt -0.162884 0.019635 0.000000
vt 0.181250 0.039270 0.000000
vt -0.143750 0.039270 0.000000
vt 0.100000 0.000000 0.000000
vt -0.150000 0.000000 0.000000
vt 0.100000 -0.125664 0.000000
vt -0.150000 -0.125664 0.000000
vt 0.100000 -0.251327 0.000000
vt -0.150000 -0.251327 0.000000
vt 0.100000 -0.376991 0.000000
vt -0.150000 -0.376991 0.000000
vt 0.100000 -0.502655 0.000000
vt -0.150000 -0.502655 0.000000
vt 0.100000 -0.628319 0.000000
vt -0.150000 -0.628319 0.000000
vt -0.375000 -0.150000 0.000000
vt -0.000000 -0.150000 0.000000
vt -0.375000 0.100000 0.000000
vt -0.000000 0.100000 0.000000
vt -2.800000 -0.150000 0.000000
vt 0.000000 -0.150000 0.000000
vt -2.800000 0.100000 0.000000
vt 0.000000 0.100000 0.000000
vt 0.337500 1.350000 0.000000
vt 0.012500 1.350000 0.000000
vt 0.337500 -1.350000 0.000000
vt 0.012500 -1.350000 0.000000
vt -0.095656 -1.332870 0.000000
vt -0.095656 1.332870 0.000000
vt -0.193225 -1.283156 0.000000
vt -0.193225 1.283156 0.000000
vt -0.337500 -1.000000 0.000000
vt -0.337500 1.000000 0.000000
vt -0.270656 1.205725 0.000000
vt -0.320370 1.108156 0.000000
vt -0.320370 -1.108156 0.000000
vt -0.270656 -1.205725 0.000000
vt -0.375000 -0.150000 0.000000
vt 0.000000 -0.150000 0.000000
vt -0.375000 0.100000 0.000000
vt 0.000000 0.100000 0.000000
vt 0.100000 0.000000 0.000000
vt -0.150000 0.000000 0.000000
vt 0.100000 -0.125664 0.000000
vt -0.150000 -0.125664 0.000000
vt 0.100000 -0.251327 0.000000
vt -0.150000 -0.251327 0.000000
vt 0.100000 -0.376991 0.000000
vt -0.150000 -0.376991 0.000000
vt 0.100000 -0.502655 0.000000
vt -0.150000 -0.502655 0.000000
vt 0.100000 -0.628319 0.000000
vt -0.150000 -0.628319 0.000000
vt -2.000000 -0.150000 0.000000
vt -0.000000 -0.150000 0.000000
vt -2.000000 0.100000 0.000000
vt -0.000000 0.100000 0.000000
vt -0.387500 1.400000 0.000000
vt -0.387500 -1.400000 0.000000
vt -0.012500 1.400000 0.000000
vt -0.012500 -1.400000 0.000000
vt 0.111107 -1.380423 0.000000
vt 0.111107 1.380423 0.000000
vt 0.222614 -1.323607 0.000000
vt 0.222614 1.323607 0.000000
vt 0.387500 -1.000000 0.000000
vt 0.387500 1.000000 0.000000
vt 0.311107 -1.235114 0.000000
vt 0.367923 -1.123607 0.000000
vt 0.367923 1.123607 0.000000
vt 0.311107 1.235114 0.000000
vn 0.027564 -0.000000 0.096126
vn 0.027564 0.000000 0.096126
vn 0.025466 0.038268 0.088809
vn 0.023871 0.050000 0.083248
vn 0.023871 0.050000 0.083248
vn 0.013782 0.086603 0.048063
vn 0.019491 0.070711 0.067971
vn 0.010548 0.092388 0.036786
vn 0.005377 0.098079 0.018753
vn -0.000000 0.100000 -0.000000
vn 0.013782 0.086603 0.048063
vn 0.013782 0.086603 0.048063
vn 0.023871 0.050000 0.083248
vn 0.023871 0.050000 0.083248
vn 0.025466 0.038268 0.088809
vn 0.019491 0.070711 0.067971
vn 0.013782 0.086603 0.048063
vn 0.005377 0.098079 0.018753
vn 0.000000 0.100000 0.000000
vn 0.010548 0.092388 0.036786
vn 0.027564 -0.000000 0.096126
vn 0.062251 -0.000000 0.078261
vn 0.071934 -0.000000 0.069466
vn 0.087462 -0.000000 0.048481
vn 0.097030 -0.000000 0.024192
vn 0.099357 -0.000000 0.011320
vn 0.099657 -0.000000 -0.008281
vn 0.096126 0.000000 -0.027564
vn 0.096126 0.000000 -0.027564
vn 0.027564 0.000000 0.096126
vn 0.023871 -0.050000 0.083248
vn 0.027564 -0.000000 0.096126
vn 0.038723 -0.047553 0.078989
vn 0.027564 -0.000000 0.096126
vn 0.052122 -0.040451 0.075147
vn 0.027564 0.000000 0.096126
vn 0.062755 -0.029389 0.072098
vn 0.027564 0.000000 0.096126
vn 0.069582 -0.015451 0.070140
vn 0.092955 -0.026762 0.025361
vn 0.097030 -0.000000 0.024192
vn 0.091421 -0.030902 -0.026215
vn 0.096126 -0.000000 -0.027564
vn 0.013782 -0.086603 0.048063
vn 0.039507 -0.082364 0.040687
vn 0.062714 -0.070063 0.034032
vn 0.081131 -0.050904 0.028751
vn 0.000000 -0.100000 -0.000000
vn 0.029705 -0.095106 -0.008518
vn 0.056502 -0.080902 -0.016202
vn 0.077768 -0.058779 -0.022300
vn 0.023871 -0.050000 0.083248
vn 0.023871 -0.050000 0.083248
vn 0.027564 0.000000 0.096126
vn 0.023871 -0.050000 0.083248
vn 0.023871 -0.050000 0.083248
vn 0.013782 -0.086603 0.048063
vn 0.013782 -0.086603 0.048063
vn 0.000000 -0.100000 0.000000
vn 0.013782 -0.086603 0.048063
vn -0.000000 -0.100000 -0.000000
vn 0.013782 -0.086603 0.048063
vn 0.013782 -0.086603 0.048063
vn 0.027564 -0.000000 0.096126
vn -0.024192 -0.000000 0.097030
vn 0.027564 0.000000 0.096126
vn -0.021840 -0.015451 0.096355
vn 0.027564 0.000000 0.096126
vn -0.015013 -0.029389 0.094397
vn 0.027564 0.000000 0.096126
vn -0.004380 -0.040451 0.091348
vn 0.027564 0.000000 0.096126
vn 0.009019 -0.047553 0.087507
vn -0.011943 -0.082364 0.055440
vn -0.029705 -0.095106 0.008518
vn 0.000000 -0.100000 0.000000
vn -0.069466 -0.000000 0.071934
vn -0.065391 -0.026762 0.070766
vn -0.053567 -0.050904 0.067375
vn -0.035150 -0.070063 0.062094
vn -0.096126 -0.000000 0.027564
vn -0.091421 -0.030902 0.026215
vn -0.077768 -0.058779 0.022300
vn -0.056502 -0.080902 0.016202
vn -0.096126 0.000000 0.027564
vn -0.096126 0.000000 0.027564
vn -0.088902 0.000000 0.045787
vn -0.078261 0.000000 0.062251
vn -0.048481 0.000000 0.087462
vn -0.011320 0.000000 0.099357
vn 0.027564 -0.000000 0.096126
vn -0.000000 -0.100000 0.000000
vn -0.029705 -0.095106 0.008518
vn -0.056502 -0.080902 0.016202
vn -0.077768 -0.058779 0.022300
vn -0.091421 -0.030902 0.026215
vn -0.096126 -0.000000 0.027564
vn -0.096126 0.000000 0.027564
vn 0.000000 0.100000 -0.000000
vn 0.000000 0.100000 -0.000000
vn 0.000000 0.100000 -0.000000
vn 0.096126 -0.000000 -0.027564
vn 0.096126 -0.000000 -0.027564
vn 0.091421 -0.030902 -0.026215
vn 0.077768 -0.058779 -0.022300
vn 0.056502 -0.080902 -0.016202
vn 0.029705 -0.095106 -0.008518
vn 0.000000 -0.100000 -0.000000
vn -0.027564 0.000000 -0.096126
vn -0.027564 0.000000 -0.096126
vn -0.027564 0.000000 -0.096126
vn -0.027564 0.000000 -0.096126
vn -0.027564 0.000000 -0.096126
vn -0.027564 0.000000 -0.096126
vn -0.027564 0.000000 -0.096126
vn -0.027564 0.000000 -0.096126
vn -0.027564 0.000000 -0.096126
vn -0.027564 0.000000 -0.096126
vn -0.027564 0.000000 -0.096126
vn -0.027564 0.000000 -0.096126
vn -0.027564 0.000000 -0.096126
vn -0.027564 0.000000 -0.096126
usemtl Paint_-_Enamel_Glossy_(Black)
f 1/1/1 2/2/2 12/3/3
f 12/3/3 2/2/2 15/4/4
f 12/3/3 15/4/4 16/5/5
f 16/5/5 15/4/4 20/6/6
f 16/5/5 20/6/6 11/7/7
f 11/7/7 20/6/6 10/8/8
f 10/8/8 20/6/6 9/9/9
f 9/9/9 20/6/6 8/10/10
f 8/10/10 20/6/6 19/11/11
f 8/10/10 19/11/11 18/12/12
f 18/12/12 19/11/11 14/13/13
f 18/12/12 14/13/13 13/14/14
f 13/14/14 14/13/13 2/2/2
f 13/14/14 2/2/2 3/15/15
f 3/15/15 4/16/16 13/14/14
f 13/14/14 4/16/16 17/17/17
f 13/14/14 17/17/17 18/12/12
f 18/12/12 17/17/17 6/18/18
f 18/12/12 6/18/18 8/10/10
f 8/10/10 6/18/18 7/19/19
f 4/16/16 5/20/20 17/17/17
f 17/17/17 5/20/20 6/18/18
f 11/7/7 12/3/3 16/5/5
f 15/4/4 2/2/2 14/13/13
f 20/6/6 15/4/4 19/11/11
f 19/11/11 15/4/4 14/13/13
f 2/21/2 21/22/21 3/23/22
f 3/23/22 21/22/21 22/24/23
f 3/23/22 22/24/23 4/25/24
f 4/25/24 22/24/23 23/26/25
f 4/25/24 23/26/25 5/27/26
f 5/27/26 23/26/25 6/28/27
f 6/28/27 23/26/25 24/29/28
f 6/28/27 24/29/28 7/30/29
f 25/31/30 26/32/31 36/33/32
f 36/33/32 26/32/31 38/34/33
f 36/33/32 38/34/33 35/35/34
f 35/35/34 38/34/33 40/36/35
f 35/35/34 40/36/35 34/37/36
f 34/37/36 40/36/35 42/38/37
f 34/37/36 42/38/37 33/39/38
f 33/39/38 42/38/37 44/40/39
f 33/39/38 44/40/39 21/41/21
f 21/41/21 44/40/39 22/42/23
f 22/42/23 44/40/39 43/43/40
f 22/42/23 43/43/40 23/44/41
f 23/44/41 43/43/40 32/45/42
f 23/44/41 32/45/42 24/46/43
f 26/32/31 27/47/44 38/34/33
f 38/34/33 27/47/44 37/48/45
f 38/34/33 37/48/45 40/36/35
f 40/36/35 37/48/45 39/49/46
f 40/36/35 39/49/46 42/38/37
f 42/38/37 39/49/46 41/50/47
f 42/38/37 41/50/47 44/40/39
f 44/40/39 41/50/47 43/43/40
f 27/47/44 28/51/48 37/48/45
f 37/48/45 28/51/48 29/52/49
f 37/48/45 29/52/49 39/49/46
f 39/49/46 29/52/49 30/53/50
f 39/49/46 30/53/50 41/50/47
f 41/50/47 30/53/50 31/54/51
f 41/50/47 31/54/51 43/43/40
f 43/43/40 31/54/51 32/45/42
f 46/55/52 49/56/53 45/57/54
f 45/57/54 49/56/53 50/58/55
f 45/57/54 50/58/55 25/59/30
f 25/59/30 50/58/55 51/60/56
f 25/59/30 51/60/56 26/61/31
f 26/61/31 51/60/56 27/62/57
f 27/62/57 51/60/56 54/63/58
f 27/62/57 54/63/58 28/64/59
f 28/64/59 54/63/58 53/65/60
f 28/64/59 53/65/60 48/66/61
f 48/66/61 53/65/60 52/67/62
f 48/66/61 52/67/62 47/68/63
f 47/68/63 52/67/62 46/55/52
f 46/55/52 52/67/62 49/56/53
f 54/63/58 51/60/56 50/58/55
f 52/67/62 53/65/60 49/56/53
f 49/56/53 53/65/60 50/58/55
f 53/65/60 54/63/58 50/58/55
f 55/69/64 56/70/65 66/71/66
f 66/71/66 56/70/65 68/72/67
f 66/71/66 68/72/67 65/73/68
f 65/73/68 68/72/67 70/74/69
f 65/73/68 70/74/69 64/75/70
f 64/75/70 70/74/69 72/76/71
f 64/75/70 72/76/71 63/77/72
f 63/77/72 72/76/71 74/78/73
f 63/77/72 74/78/73 45/79/54
f 45/79/54 74/78/73 46/80/52
f 46/80/52 74/78/73 73/81/74
f 46/80/52 73/81/74 47/82/63
f 47/82/63 73/81/74 62/83/75
f 47/82/63 62/83/75 48/84/76
f 56/70/65 57/85/77 68/72/67
f 68/72/67 57/85/77 67/86/78
f 68/72/67 67/86/78 70/74/69
f 70/74/69 67/86/78 69/87/79
f 70/74/69 69/87/79 72/76/71
f 72/76/71 69/87/79 71/88/80
f 72/76/71 71/88/80 74/78/73
f 74/78/73 71/88/80 73/81/74
f 57/85/77 58/89/81 67/86/78
f 67/86/78 58/89/81 59/90/82
f 67/86/78 59/90/82 69/87/79
f 69/87/79 59/90/82 60/91/83
f 69/87/79 60/91/83 71/88/80
f 71/88/80 60/91/83 61/92/84
f 71/88/80 61/92/84 73/81/74
f 73/81/74 61/92/84 62/83/75
f 8/93/85 58/94/86 9/95/87
f 9/95/87 58/94/86 57/96/77
f 9/95/87 57/96/77 10/97/88
f 10/97/88 57/96/77 11/98/89
f 11/98/89 57/96/77 56/99/65
f 11/98/89 56/99/65 12/100/90
f 12/100/90 56/99/65 55/101/64
f 12/100/90 55/101/64 1/102/91
f 80/103/92 48/104/61 79/105/93
f 79/105/93 48/104/61 62/106/75
f 79/105/93 62/106/75 78/107/94
f 78/107/94 62/106/75 61/108/84
f 78/107/94 61/108/84 77/109/95
f 77/109/95 61/108/84 60/110/83
f 77/109/95 60/110/83 76/111/96
f 76/111/96 60/110/83 59/112/82
f 76/111/96 59/112/82 75/113/97
f 75/113/97 59/112/82 58/114/81
f 58/115/81 8/116/85 75/117/97
f 75/117/97 8/116/85 81/118/98
f 8/119/99 7/120/19 81/121/100
f 81/121/100 7/120/19 82/122/101
f 1/123/91 55/124/64 2/125/2
f 2/125/2 55/124/64 21/126/21
f 21/126/21 55/124/64 33/127/38
f 33/127/38 55/124/64 66/128/66
f 33/127/38 66/128/66 34/129/36
f 34/129/36 66/128/66 65/130/68
f 34/129/36 65/130/68 25/131/30
f 25/131/30 65/130/68 45/132/54
f 45/132/54 65/130/68 64/133/70
f 45/132/54 64/133/70 63/134/72
f 36/135/32 35/136/34 25/131/30
f 25/131/30 35/136/34 34/129/36
f 7/137/29 24/138/28 82/139/102
f 82/139/102 24/138/28 83/140/103
f 83/141/103 24/142/28 88/143/104
f 88/143/104 24/142/28 32/144/42
f 88/143/104 32/144/42 87/145/105
f 87/145/105 32/144/42 31/146/51
f 87/145/105 31/146/51 86/147/106
f 86/147/106 31/146/51 30/148/50
f 86/147/106 30/148/50 85/149/107
f 85/149/107 30/148/50 29/150/49
f 85/149/107 29/150/49 84/151/108
f 84/151/108 29/150/49 28/152/48
f 28/153/48 48/154/61 84/155/108
f 84/155/108 48/154/61 80/156/92
f 81/157/109 82/158/110 75/159/111
f 75/159/111 82/158/110 83/160/112
f 75/159/111 83/160/112 88/161/113
f 75/159/111 88/161/113 76/162/114
f 76/162/114 88/161/113 87/163/115
f 76/162/114 87/163/115 77/164/116
f 77/164/116 87/163/115 84/165/117
f 77/164/116 84/165/117 80/166/118
f 87/163/115 86/167/119 84/165/117
f 84/165/117 86/167/119 85/168/120
f 79/169/121 78/170/122 80/166/118
f 80/166/118 78/170/122 77/164/116
# 88 vertices
# 170 texture params
# 122 normals
# 172 facets

# 1 groups
