# WaveFront *.obj file (generated by Autodesk ATF)

mtllib ShoulderButtonLeft.mtl

g shoulderButtonLeft

v -92.972010 5.000000 49.414968
v -93.008951 5.390181 49.404376
v -93.118353 5.765367 49.373005
v -93.296013 6.111140 49.322062
v -93.535104 6.414214 49.253504
v -93.826436 6.662939 49.169965
v -94.158815 6.847759 49.074657
v -94.519468 6.961571 48.971242
v -94.894533 7.000000 48.863693
v -95.922525 7.000000 52.448726
v -95.547459 6.961571 52.556274
v -95.186807 6.847759 52.659690
v -94.854428 6.662939 52.754998
v -94.563095 6.414214 52.838536
v -94.324005 6.111140 52.907094
v -94.146345 5.765367 52.958038
v -94.036942 5.390181 52.989408
v -94.000001 5.000000 53.000001
v -115.465138 7.000000 42.965167
v -116.493130 7.000000 46.550200
v -92.972010 -5.000000 49.414968
v -93.008951 -5.390181 49.404376
v -93.118353 -5.765367 49.373005
v -93.296013 -6.111140 49.322062
v -93.535104 -6.414214 49.253504
v -93.826436 -6.662939 49.169965
v -94.158815 -6.847759 49.074657
v -94.519468 -6.961571 48.971242
v -94.894533 -7.000000 48.863693
v -115.465138 -7.000000 42.965167
v -115.840204 -6.961571 42.857619
v -116.200856 -6.847759 42.754204
v -116.533235 -6.662939 42.658896
v -116.824568 -6.414214 42.575357
v -117.063658 -6.111140 42.506799
v -117.241318 -5.765367 42.455856
v -117.350721 -5.390181 42.424485
v -117.387662 -5.000000 42.413893
v -117.387662 5.000000 42.413893
v -117.350721 5.390181 42.424485
v -117.241318 5.765367 42.455856
v -117.063658 6.111140 42.506799
v -116.824568 6.414214 42.575357
v -116.533235 6.662939 42.658896
v -116.200856 6.847759 42.754204
v -115.840204 6.961571 42.857619
v -118.415653 5.000000 45.998925
v -118.378712 5.390181 46.009518
v -118.269310 5.765367 46.040889
v -118.091650 6.111140 46.091832
v -117.852559 6.414214 46.160390
v -117.561227 6.662939 46.243928
v -117.228848 6.847759 46.339236
v -116.868195 6.961571 46.442652
v -118.415653 -5.000000 45.998925
v -116.493130 -7.000000 46.550200
v -116.868195 -6.961571 46.442652
v -117.228848 -6.847759 46.339236
v -117.561227 -6.662939 46.243928
v -117.852559 -6.414214 46.160390
v -118.091650 -6.111140 46.091832
v -118.269310 -5.765367 46.040889
v -118.378712 -5.390181 46.009518
v -95.922525 -7.000000 52.448726
v -94.000001 -5.000000 53.000001
v -94.036942 -5.390181 52.989408
v -94.146345 -5.765367 52.958038
v -94.324005 -6.111140 52.907094
v -94.563095 -6.414214 52.838536
v -94.854428 -6.662939 52.754998
v -95.186807 -6.847759 52.659690
v -95.547459 -6.961571 52.556274
vt 0.093238 0.157080 0.000000
vt -0.279713 0.157080 0.000000
vt 0.093238 0.117810 0.000000
vt -0.279713 0.117810 0.000000
vt -0.279713 0.078540 0.000000
vt 0.093238 0.078540 0.000000
vt -0.279713 0.039270 0.000000
vt 0.093238 0.039270 0.000000
vt -0.279713 0.000000 0.000000
vt 0.093238 0.000000 0.000000
vt -0.279713 -0.039270 0.000000
vt 0.093238 -0.039270 0.000000
vt -0.279713 -0.078540 0.000000
vt 0.093238 -0.078540 0.000000
vt -0.279713 -0.117810 0.000000
vt 0.093238 -0.117810 0.000000
vt 0.093238 -0.157080 0.000000
vt -0.279713 -0.157080 0.000000
vt 0.474178 0.977131 0.000000
vt 0.115675 1.079930 0.000000
vt -0.115675 -1.079930 0.000000
vt -0.474178 -0.977131 0.000000
vt 0.160982 0.696157 0.000000
vt 0.123463 0.684776 0.000000
vt 0.200000 0.700000 0.000000
vt 0.088886 0.666294 0.000000
vt 0.058579 0.641421 0.000000
vt 0.033706 0.611114 0.000000
vt 0.015224 0.576537 0.000000
vt 0.003843 0.539018 0.000000
vt -0.000000 0.500000 0.000000
vt 2.539959 0.500000 0.000000
vt 2.339959 0.700000 0.000000
vt 2.536116 0.539018 0.000000
vt 2.524735 0.576537 0.000000
vt 2.539959 -0.500000 0.000000
vt 0.000000 -0.500000 0.000000
vt 2.339959 -0.700000 0.000000
vt 0.200000 -0.700000 0.000000
vt 0.003843 -0.539018 0.000000
vt 0.015224 -0.576537 0.000000
vt 0.033706 -0.611114 0.000000
vt 0.058579 -0.641421 0.000000
vt 0.088886 -0.666294 0.000000
vt 0.123463 -0.684776 0.000000
vt 0.160982 -0.696157 0.000000
vt 2.378977 -0.696157 0.000000
vt 2.416496 -0.684776 0.000000
vt 2.451073 -0.666294 0.000000
vt 2.481380 -0.641421 0.000000
vt 2.506253 -0.611114 0.000000
vt 2.524735 -0.576537 0.000000
vt 2.536116 -0.539018 0.000000
vt 2.506253 0.611114 0.000000
vt 2.481380 0.641421 0.000000
vt 2.451073 0.666294 0.000000
vt 2.416496 0.684776 0.000000
vt 2.378977 0.696157 0.000000
vt 0.093238 0.157080 0.000000
vt -0.279713 0.157080 0.000000
vt 0.093238 0.117810 0.000000
vt -0.279713 0.117810 0.000000
vt -0.279713 0.078540 0.000000
vt 0.093238 0.078540 0.000000
vt -0.279713 0.039270 0.000000
vt 0.093238 0.039270 0.000000
vt -0.279713 -0.000000 0.000000
vt 0.093238 -0.000000 0.000000
vt -0.279713 -0.039270 0.000000
vt 0.093238 -0.039270 0.000000
vt -0.279713 -0.078540 0.000000
vt 0.093238 -0.078540 0.000000
vt -0.279713 -0.117810 0.000000
vt 0.093238 -0.117810 0.000000
vt 0.093238 -0.157080 0.000000
vt -0.279713 -0.157080 0.000000
vt 0.372951 0.500000 0.000000
vt 0.000000 0.500000 0.000000
vt 0.372951 -0.500000 0.000000
vt 0.000000 -0.500000 0.000000
vt 0.279713 0.157080 0.000000
vt -0.093238 0.157080 0.000000
vt 0.279713 0.117810 0.000000
vt -0.093238 0.117810 0.000000
vt -0.093238 0.078540 0.000000
vt 0.279713 0.078540 0.000000
vt -0.093238 0.039270 0.000000
vt 0.279713 0.039270 0.000000
vt -0.093238 -0.000000 0.000000
vt 0.279713 -0.000000 0.000000
vt -0.093238 -0.039270 0.000000
vt 0.279713 -0.039270 0.000000
vt -0.093238 -0.078540 0.000000
vt 0.279713 -0.078540 0.000000
vt -0.093238 -0.117810 0.000000
vt 0.279713 -0.117810 0.000000
vt 0.279713 -0.157080 0.000000
vt -0.093238 -0.157080 0.000000
vt 0.474178 -0.977131 0.000000
vt -0.115675 1.079930 0.000000
vt 0.115675 -1.079930 0.000000
vt -0.474178 0.977131 0.000000
vt 0.279713 0.157080 0.000000
vt -0.093238 0.157080 0.000000
vt 0.279713 0.117810 0.000000
vt -0.093238 0.117810 0.000000
vt -0.093238 0.078540 0.000000
vt 0.279713 0.078540 0.000000
vt -0.093238 0.039270 0.000000
vt 0.279713 0.039270 0.000000
vt -0.093238 0.000000 0.000000
vt 0.279713 0.000000 0.000000
vt -0.093238 -0.039270 0.000000
vt 0.279713 -0.039270 0.000000
vt -0.093238 -0.078540 0.000000
vt 0.279713 -0.078540 0.000000
vt -0.093238 -0.117810 0.000000
vt 0.279713 -0.117810 0.000000
vt 0.279713 -0.157080 0.000000
vt -0.093238 -0.157080 0.000000
vt 0.372951 0.500000 0.000000
vt 0.000000 0.500000 0.000000
vt 0.372951 -0.500000 0.000000
vt 0.000000 -0.500000 0.000000
vt 2.536116 0.539018 0.000000
vt 2.339959 0.700000 0.000000
vt 2.539959 0.500000 0.000000
vt 0.200000 0.700000 0.000000
vt 0.000000 0.500000 0.000000
vt 0.003843 0.539018 0.000000
vt 0.015224 0.576537 0.000000
vt 0.033706 0.611114 0.000000
vt 0.058579 0.641421 0.000000
vt 0.088886 0.666294 0.000000
vt 0.123463 0.684776 0.000000
vt 0.160982 0.696157 0.000000
vt 2.524735 0.576537 0.000000
vt 2.506253 0.611114 0.000000
vt 2.481380 0.641421 0.000000
vt 2.451073 0.666294 0.000000
vt 2.416496 0.684776 0.000000
vt 2.378977 0.696157 0.000000
vt 2.539959 -0.500000 0.000000
vt 0.000000 -0.500000 0.000000
vt 2.339959 -0.700000 0.000000
vt 0.200000 -0.700000 0.000000
vt 0.003843 -0.539018 0.000000
vt 0.015224 -0.576537 0.000000
vt 0.033706 -0.611114 0.000000
vt 0.058579 -0.641421 0.000000
vt 0.088886 -0.666294 0.000000
vt 0.123463 -0.684776 0.000000
vt 0.160982 -0.696157 0.000000
vt 2.378977 -0.696157 0.000000
vt 2.416496 -0.684776 0.000000
vt 2.451073 -0.666294 0.000000
vt 2.481380 -0.641421 0.000000
vt 2.506253 -0.611114 0.000000
vt 2.524735 -0.576537 0.000000
vt 2.536116 -0.539018 0.000000
vn 0.096126 -0.000000 0.027564
vn 0.096126 0.000000 0.027564
vn 0.094279 0.019509 0.027034
vn 0.094279 0.019509 0.027034
vn 0.088809 0.038268 0.025466
vn 0.088809 0.038268 0.025466
vn 0.079926 0.055557 0.022918
vn 0.079926 0.055557 0.022918
vn 0.067971 0.070711 0.019491
vn 0.067971 0.070711 0.019491
vn 0.053405 0.083147 0.015314
vn 0.053405 0.083147 0.015314
vn 0.036786 0.092388 0.010548
vn 0.036786 0.092388 0.010548
vn 0.018753 0.098079 0.005377
vn 0.018753 0.098079 0.005377
vn 0.000000 0.100000 0.000000
vn 0.000000 0.100000 0.000000
vn 0.000000 0.100000 0.000000
vn 0.000000 0.100000 0.000000
vn 0.027564 0.000000 -0.096126
vn 0.027564 0.000000 -0.096126
vn 0.027564 0.000000 -0.096126
vn 0.027564 0.000000 -0.096126
vn 0.027564 0.000000 -0.096126
vn 0.027564 0.000000 -0.096126
vn 0.027564 0.000000 -0.096126
vn 0.027564 0.000000 -0.096126
vn 0.027564 0.000000 -0.096126
vn 0.027564 0.000000 -0.096126
vn 0.027564 0.000000 -0.096126
vn 0.027564 0.000000 -0.096126
vn 0.027564 0.000000 -0.096126
vn 0.027564 0.000000 -0.096126
vn 0.027564 0.000000 -0.096126
vn 0.027564 0.000000 -0.096126
vn 0.027564 0.000000 -0.096126
vn 0.027564 0.000000 -0.096126
vn 0.027564 0.000000 -0.096126
vn 0.027564 0.000000 -0.096126
vn 0.027564 0.000000 -0.096126
vn 0.027564 0.000000 -0.096126
vn 0.027564 0.000000 -0.096126
vn 0.027564 0.000000 -0.096126
vn 0.027564 0.000000 -0.096126
vn 0.027564 0.000000 -0.096126
vn 0.027564 0.000000 -0.096126
vn 0.027564 0.000000 -0.096126
vn 0.027564 0.000000 -0.096126
vn 0.027564 0.000000 -0.096126
vn 0.027564 0.000000 -0.096126
vn 0.027564 0.000000 -0.096126
vn 0.027564 0.000000 -0.096126
vn 0.027564 0.000000 -0.096126
vn 0.027564 0.000000 -0.096126
vn 0.027564 0.000000 -0.096126
vn -0.096126 0.000000 -0.027564
vn -0.096126 -0.000000 -0.027564
vn -0.094279 0.019509 -0.027034
vn -0.094279 0.019509 -0.027034
vn -0.088809 0.038268 -0.025466
vn -0.088809 0.038268 -0.025466
vn -0.079926 0.055557 -0.022918
vn -0.079926 0.055557 -0.022918
vn -0.067971 0.070711 -0.019491
vn -0.067971 0.070711 -0.019491
vn -0.053405 0.083147 -0.015314
vn -0.053405 0.083147 -0.015314
vn -0.036786 0.092388 -0.010548
vn -0.036786 0.092388 -0.010548
vn -0.018753 0.098079 -0.005377
vn -0.018753 0.098079 -0.005377
vn -0.096126 0.000000 -0.027564
vn -0.096126 0.000000 -0.027564
vn -0.094279 -0.019509 -0.027034
vn -0.094279 -0.019509 -0.027034
vn -0.088809 -0.038268 -0.025466
vn -0.088809 -0.038268 -0.025466
vn -0.079926 -0.055557 -0.022918
vn -0.079926 -0.055557 -0.022918
vn -0.067971 -0.070711 -0.019491
vn -0.067971 -0.070711 -0.019491
vn -0.053405 -0.083147 -0.015314
vn -0.053405 -0.083147 -0.015314
vn -0.036786 -0.092388 -0.010548
vn -0.036786 -0.092388 -0.010548
vn -0.018753 -0.098079 -0.005377
vn -0.018753 -0.098079 -0.005377
vn -0.000000 -0.100000 -0.000000
vn -0.000000 -0.100000 -0.000000
vn 0.000000 -0.100000 0.000000
vn 0.000000 -0.100000 0.000000
vn 0.096126 -0.000000 0.027564
vn 0.096126 0.000000 0.027564
vn 0.094279 -0.019509 0.027034
vn 0.094279 -0.019509 0.027034
vn 0.088809 -0.038268 0.025466
vn 0.088809 -0.038268 0.025466
vn 0.079926 -0.055557 0.022918
vn 0.079926 -0.055557 0.022918
vn 0.067971 -0.070711 0.019491
vn 0.067971 -0.070711 0.019491
vn 0.053405 -0.083147 0.015314
vn 0.053405 -0.083147 0.015314
vn 0.036786 -0.092388 0.010548
vn 0.036786 -0.092388 0.010548
vn 0.018753 -0.098079 0.005377
vn 0.018753 -0.098079 0.005377
vn -0.027564 0.000000 0.096126
vn -0.027564 0.000000 0.096126
vn -0.027564 0.000000 0.096126
vn -0.027564 0.000000 0.096126
vn -0.027564 0.000000 0.096126
vn -0.027564 0.000000 0.096126
vn -0.027564 0.000000 0.096126
vn -0.027564 0.000000 0.096126
vn -0.027564 0.000000 0.096126
vn -0.027564 0.000000 0.096126
vn -0.027564 0.000000 0.096126
vn -0.027564 0.000000 0.096126
vn -0.027564 0.000000 0.096126
vn -0.027564 0.000000 0.096126
vn -0.027564 0.000000 0.096126
vn -0.027564 0.000000 0.096126
vn -0.027564 0.000000 0.096126
vn -0.027564 0.000000 0.096126
vn -0.027564 0.000000 0.096126
vn -0.027564 0.000000 0.096126
vn -0.027564 0.000000 0.096126
vn -0.027564 0.000000 0.096126
vn -0.027564 0.000000 0.096126
vn -0.027564 0.000000 0.096126
vn -0.027564 0.000000 0.096126
vn -0.027564 0.000000 0.096126
vn -0.027564 0.000000 0.096126
vn -0.027564 0.000000 0.096126
vn -0.027564 0.000000 0.096126
vn -0.027564 0.000000 0.096126
vn -0.027564 0.000000 0.096126
vn -0.027564 0.000000 0.096126
vn -0.027564 0.000000 0.096126
vn -0.027564 0.000000 0.096126
vn -0.027564 0.000000 0.096126
vn -0.027564 0.000000 0.096126
usemtl Paint_-_Enamel_Glossy_(Black)
f 18/1/1 1/2/2 17/3/3
f 17/3/3 1/2/2 2/4/4
f 17/3/3 2/4/4 3/5/5
f 17/3/3 3/5/5 16/6/6
f 16/6/6 3/5/5 4/7/7
f 16/6/6 4/7/7 15/8/8
f 15/8/8 4/7/7 5/9/9
f 15/8/8 5/9/9 14/10/10
f 14/10/10 5/9/9 6/11/11
f 14/10/10 6/11/11 13/12/12
f 13/12/12 6/11/11 7/13/13
f 13/12/12 7/13/13 12/14/14
f 12/14/14 7/13/13 8/15/15
f 12/14/14 8/15/15 11/16/16
f 11/16/16 8/15/15 10/17/17
f 10/17/17 8/15/15 9/18/18
f 10/19/17 9/20/18 20/21/19
f 20/21/19 9/20/18 19/22/20
f 8/23/21 7/24/22 9/25/23
f 9/25/23 7/24/22 6/26/24
f 9/25/23 6/26/24 5/27/25
f 5/27/25 4/28/26 9/25/23
f 9/25/23 4/28/26 3/29/27
f 9/25/23 3/29/27 2/30/28
f 2/30/28 1/31/29 9/25/23
f 9/25/23 1/31/29 39/32/30
f 9/25/23 39/32/30 19/33/31
f 19/33/31 39/32/30 40/34/32
f 19/33/31 40/34/32 41/35/33
f 39/32/30 1/31/29 38/36/34
f 38/36/34 1/31/29 21/37/35
f 38/36/34 21/37/35 30/38/36
f 30/38/36 21/37/35 29/39/37
f 29/39/37 21/37/35 22/40/38
f 29/39/37 22/40/38 23/41/39
f 23/41/39 24/42/40 29/39/37
f 29/39/37 24/42/40 25/43/41
f 29/39/37 25/43/41 26/44/42
f 26/44/42 27/45/43 29/39/37
f 29/39/37 27/45/43 28/46/44
f 31/47/45 32/48/46 30/38/36
f 30/38/36 32/48/46 33/49/47
f 30/38/36 33/49/47 34/50/48
f 34/50/48 35/51/49 30/38/36
f 30/38/36 35/51/49 36/52/50
f 30/38/36 36/52/50 37/53/51
f 37/53/51 38/36/34 30/38/36
f 41/35/33 42/54/52 19/33/31
f 19/33/31 42/54/52 43/55/53
f 19/33/31 43/55/53 44/56/54
f 44/56/54 45/57/55 19/33/31
f 19/33/31 45/57/55 46/58/56
f 39/59/57 47/60/58 40/61/59
f 40/61/59 47/60/58 48/62/60
f 40/61/59 48/62/60 49/63/61
f 40/61/59 49/63/61 41/64/62
f 41/64/62 49/63/61 50/65/63
f 41/64/62 50/65/63 42/66/64
f 42/66/64 50/65/63 51/67/65
f 42/66/64 51/67/65 43/68/66
f 43/68/66 51/67/65 52/69/67
f 43/68/66 52/69/67 44/70/68
f 44/70/68 52/69/67 53/71/69
f 44/70/68 53/71/69 45/72/70
f 45/72/70 53/71/69 54/73/71
f 45/72/70 54/73/71 46/74/72
f 46/74/72 54/73/71 19/75/20
f 19/75/20 54/73/71 20/76/19
f 47/77/58 39/78/57 55/79/73
f 55/79/73 39/78/57 38/80/74
f 55/81/73 38/82/74 63/83/75
f 63/83/75 38/82/74 37/84/76
f 63/83/75 37/84/76 36/85/77
f 63/83/75 36/85/77 62/86/78
f 62/86/78 36/85/77 35/87/79
f 62/86/78 35/87/79 61/88/80
f 61/88/80 35/87/79 34/89/81
f 61/88/80 34/89/81 60/90/82
f 60/90/82 34/89/81 33/91/83
f 60/90/82 33/91/83 59/92/84
f 59/92/84 33/91/83 32/93/85
f 59/92/84 32/93/85 58/94/86
f 58/94/86 32/93/85 31/95/87
f 58/94/86 31/95/87 57/96/88
f 57/96/88 31/95/87 56/97/89
f 56/97/89 31/95/87 30/98/90
f 30/99/90 29/100/91 56/101/89
f 56/101/89 29/100/91 64/102/92
f 21/103/93 65/104/94 22/105/95
f 22/105/95 65/104/94 66/106/96
f 22/105/95 66/106/96 67/107/97
f 22/105/95 67/107/97 23/108/98
f 23/108/98 67/107/97 68/109/99
f 23/108/98 68/109/99 24/110/100
f 24/110/100 68/109/99 69/111/101
f 24/110/100 69/111/101 25/112/102
f 25/112/102 69/111/101 70/113/103
f 25/112/102 70/113/103 26/114/104
f 26/114/104 70/113/103 71/115/105
f 26/114/104 71/115/105 27/116/106
f 27/116/106 71/115/105 72/117/107
f 27/116/106 72/117/107 28/118/108
f 28/118/108 72/117/107 29/119/91
f 29/119/91 72/117/107 64/120/92
f 1/121/2 18/122/1 21/123/93
f 21/123/93 18/122/1 65/124/94
f 17/125/109 10/126/110 18/127/111
f 18/127/111 10/126/110 20/128/112
f 18/127/111 20/128/112 47/129/113
f 47/129/113 20/128/112 48/130/114
f 48/130/114 20/128/112 49/131/115
f 49/131/115 20/128/112 50/132/116
f 50/132/116 20/128/112 51/133/117
f 51/133/117 20/128/112 52/134/118
f 52/134/118 20/128/112 53/135/119
f 53/135/119 20/128/112 54/136/120
f 17/125/109 16/137/121 10/126/110
f 10/126/110 16/137/121 15/138/122
f 10/126/110 15/138/122 14/139/123
f 14/139/123 13/140/124 10/126/110
f 10/126/110 13/140/124 12/141/125
f 10/126/110 12/141/125 11/142/126
f 18/127/111 47/129/113 65/143/127
f 65/143/127 47/129/113 55/144/128
f 65/143/127 55/144/128 64/145/129
f 64/145/129 55/144/128 56/146/130
f 56/146/130 55/144/128 63/147/131
f 56/146/130 63/147/131 62/148/132
f 62/148/132 61/149/133 56/146/130
f 56/146/130 61/149/133 60/150/134
f 56/146/130 60/150/134 59/151/135
f 59/151/135 58/152/136 56/146/130
f 56/146/130 58/152/136 57/153/137
f 72/154/138 71/155/139 64/145/129
f 64/145/129 71/155/139 70/156/140
f 64/145/129 70/156/140 69/157/141
f 69/157/141 68/158/142 64/145/129
f 64/145/129 68/158/142 67/159/143
f 64/145/129 67/159/143 66/160/144
f 66/160/144 65/143/127 64/145/129
# 72 vertices
# 160 texture params
# 144 normals
# 140 facets

# 1 groups
