# WaveFront *.obj file (generated by Autodesk ATF)

mtllib _AyaNeo-01 v57_Shoulder-Left-Middle_AyaNeo-01 v57.mtl

g Shoulder-Left-Middle

v -119.684209 -1.250000 44.416504
v -119.684209 1.250000 44.416504
v -119.408572 1.250000 43.455242
v -119.408572 -1.250000 43.455242
v -92.768882 -1.250000 52.134350
v -92.493244 -1.250000 51.173088
v -92.768882 1.250000 52.134350
v -92.493244 1.250000 51.173088
vt -0.000000 -0.000000 0.000000
vt 0.250000 0.000000 0.000000
vt -0.000000 0.100000 0.000000
vt 0.250000 0.100000 0.000000
vt -0.000000 0.000000 0.000000
vt 2.800000 -0.000000 0.000000
vt 0.000000 0.100000 0.000000
vt 2.800000 0.100000 0.000000
vt -0.000000 0.000000 0.000000
vt 0.250000 -0.000000 0.000000
vt -0.000000 0.100000 0.000000
vt 0.250000 0.100000 0.000000
vt -0.000000 -0.000000 0.000000
vt 2.800000 0.000000 0.000000
vt -0.000000 0.100000 0.000000
vt 2.800000 0.100000 0.000000
vt -0.125000 -1.400000 0.000000
vt 0.125000 -1.400000 0.000000
vt -0.125000 1.400000 0.000000
vt 0.125000 1.400000 0.000000
vt 1.400000 0.125000 0.000000
vt -1.400000 0.125000 0.000000
vt 1.400000 -0.125000 0.000000
vt -1.400000 -0.125000 0.000000
vn -0.096126 -0.000000 -0.027564
vn -0.096126 -0.000000 -0.027564
vn -0.096126 -0.000000 -0.027564
vn -0.096126 -0.000000 -0.027564
vn 0.000000 -0.100000 0.000000
vn 0.000000 -0.100000 0.000000
vn 0.000000 -0.100000 0.000000
vn 0.000000 -0.100000 0.000000
vn 0.096126 0.000000 0.027564
vn 0.096126 0.000000 0.027564
vn 0.096126 0.000000 0.027564
vn 0.096126 0.000000 0.027564
vn -0.000000 0.100000 -0.000000
vn -0.000000 0.100000 -0.000000
vn -0.000000 0.100000 -0.000000
vn -0.000000 0.100000 -0.000000
vn -0.027564 -0.000000 0.096126
vn -0.027564 -0.000000 0.096126
vn -0.027564 -0.000000 0.096126
vn -0.027564 -0.000000 0.096126
vn 0.027564 0.000000 -0.096126
vn 0.027564 0.000000 -0.096126
vn 0.027564 0.000000 -0.096126
vn 0.027564 0.000000 -0.096126
usemtl Paint_-_Enamel_Glossy_(Black)
f 1/1/1 2/2/2 4/3/3
f 4/3/3 2/2/2 3/4/4
f 5/5/5 1/6/6 6/7/7
f 6/7/7 1/6/6 4/8/8
f 7/9/9 5/10/10 8/11/11
f 8/11/11 5/10/10 6/12/12
f 2/13/13 7/14/14 3/15/15
f 3/15/15 7/14/14 8/16/16
f 2/17/17 1/18/18 7/19/19
f 7/19/19 1/18/18 5/20/20
f 3/21/21 8/22/22 4/23/23
f 4/23/23 8/22/22 6/24/24
# 8 vertices
# 24 texture params
# 24 normals
# 12 facets

# 1 groups
