# WaveFront *.obj file (generated by Autodesk ATF)

mtllib AyaNeo-01 v51_AyaNeo-01 v51_Shoulder-Right-Middle_AyaNeo-01 v51.mtl

g Shoulder-Right-Middle

v 46.684209 1.250000 43.916504
v 46.684209 -1.250000 43.916504
v 46.408572 -1.250000 42.955242
v 46.408572 1.250000 42.955242
v 19.768882 -1.250000 51.634350
v 19.493244 -1.250000 50.673088
v 19.768882 1.250000 51.634350
v 19.493244 1.250000 50.673088
vt -0.250000 0.000000 0.000000
vt 0.000000 -0.000000 0.000000
vt -0.250000 0.100000 0.000000
vt 0.000000 0.100000 0.000000
vt -2.800000 -0.000000 0.000000
vt -0.000000 0.000000 0.000000
vt -2.800000 0.100000 0.000000
vt -0.000000 0.100000 0.000000
vt -0.250000 -0.000000 0.000000
vt 0.000000 0.000000 0.000000
vt -0.250000 0.100000 0.000000
vt 0.000000 0.100000 0.000000
vt -2.800000 0.000000 0.000000
vt 0.000000 -0.000000 0.000000
vt -2.800000 0.100000 0.000000
vt 0.000000 0.100000 0.000000
vt 0.125000 1.400000 0.000000
vt -0.125000 1.400000 0.000000
vt 0.125000 -1.400000 0.000000
vt -0.125000 -1.400000 0.000000
vt 1.400000 0.125000 0.000000
vt -1.400000 0.125000 0.000000
vt 1.400000 -0.125000 0.000000
vt -1.400000 -0.125000 0.000000
vn 0.096126 -0.000000 -0.027564
vn 0.096126 -0.000000 -0.027564
vn 0.096126 -0.000000 -0.027564
vn 0.096126 -0.000000 -0.027564
vn -0.000000 -0.100000 0.000000
vn -0.000000 -0.100000 0.000000
vn -0.000000 -0.100000 0.000000
vn -0.000000 -0.100000 0.000000
vn -0.096126 0.000000 0.027564
vn -0.096126 0.000000 0.027564
vn -0.096126 0.000000 0.027564
vn -0.096126 0.000000 0.027564
vn 0.000000 0.100000 -0.000000
vn 0.000000 0.100000 -0.000000
vn 0.000000 0.100000 -0.000000
vn 0.000000 0.100000 -0.000000
vn 0.027564 -0.000000 0.096126
vn 0.027564 -0.000000 0.096126
vn 0.027564 -0.000000 0.096126
vn 0.027564 -0.000000 0.096126
vn -0.027564 0.000000 -0.096126
vn -0.027564 0.000000 -0.096126
vn -0.027564 0.000000 -0.096126
vn -0.027564 0.000000 -0.096126
usemtl Paint_-_Enamel_Glossy_(Black)
f 1/1/1 2/2/2 4/3/3
f 4/3/3 2/2/2 3/4/4
f 2/5/5 5/6/6 3/7/7
f 3/7/7 5/6/6 6/8/8
f 5/9/9 7/10/10 6/11/11
f 6/11/11 7/10/10 8/12/12
f 7/13/13 1/14/14 8/15/15
f 8/15/15 1/14/14 4/16/16
f 7/17/17 5/18/18 1/19/19
f 1/19/19 5/18/18 2/20/20
f 8/21/21 4/22/22 6/23/23
f 6/23/23 4/22/22 3/24/24
# 8 vertices
# 24 texture params
# 24 normals
# 12 facets

# 1 groups
