# WaveFront *.obj file (generated by Autodesk ATF)

mtllib Name_AyaNeo-01 v44_Shoulder-Left-Button_AyaNeo-01 v44.mtl

g Shoulder-Left-Button

v -120.097665 -1.250000 45.358396
v -120.097665 -5.000000 45.358396
v -120.102182 -5.000000 45.617176
v -119.976704 -5.000000 45.843544
v -119.754853 -5.000000 45.976846
v -119.754853 -1.750000 45.976846
v -119.928292 -1.558658 45.887519
v -120.054344 -1.396447 45.738620
v -120.113820 -1.288060 45.552816
v -120.115317 -1.259607 45.454811
v -93.182338 -1.250000 53.076242
v -93.800787 -1.750000 53.419054
v -93.606367 -1.558658 53.435209
v -93.420564 -1.396447 53.375733
v -93.271664 -1.288060 53.249681
v -93.218460 -1.259607 53.167360
v -114.783509 -1.316987 47.142281
v -109.400443 -1.316987 48.685850
v -104.017378 -1.316987 50.229419
v -98.634312 -1.316987 51.772988
v -114.833954 -1.500000 47.318204
v -109.450889 -1.500000 48.861773
v -104.067823 -1.500000 50.405342
v -98.684758 -1.500000 51.948912
v -116.252618 -9.000000 46.460946
v -116.321528 -8.933013 46.701261
v -116.371973 -8.750000 46.877184
v -116.390437 -8.500000 46.941576
v -117.677943 -8.233578 46.572390
v -118.769438 -7.474874 46.259409
v -119.498752 -6.339392 46.050281
v -119.804978 -6.530734 45.442323
v -118.971477 -7.828427 45.681325
v -117.724054 -8.695518 46.039018
v -117.751444 -8.464548 46.481627
v -117.768322 -8.633630 46.286400
v -118.920903 -7.651651 46.146290
v -118.994854 -7.781060 45.934697
v -119.702310 -6.435063 45.922225
v -119.814397 -6.505099 45.699697
v -97.027384 -9.000000 51.973693
v -97.096294 -8.933013 52.214008
v -97.146739 -8.750000 52.389931
v -97.165203 -8.500000 52.454324
v -101.902602 -8.933013 50.835821
v -106.708911 -8.933013 49.457635
v -111.515219 -8.933013 48.079448
v -101.953047 -8.750000 51.011744
v -106.759356 -8.750000 49.633558
v -111.565664 -8.750000 48.255371
v -93.182338 -5.000000 53.076242
v -93.315639 -5.000000 53.298093
v -93.542008 -5.000000 53.423571
v -93.800787 -5.000000 53.419054
v -94.056888 -6.339392 53.345619
v -94.786202 -7.474874 53.136491
v -95.877697 -8.233578 52.823510
v -95.555949 -8.695518 52.395620
v -94.308526 -7.828427 52.753313
v -93.475024 -6.530734 52.992316
v -93.816401 -6.435063 53.344890
v -93.603424 -6.505099 53.215572
v -94.597809 -7.651651 53.120825
v -94.422967 -7.781060 52.980572
v -95.767268 -8.464548 52.785488
v -95.649500 -8.633630 52.628870
v -115.563525 -9.000000 44.057791
v -96.338291 -9.000000 49.570539
v -119.408572 -5.000000 42.955242
v -119.115885 -6.530734 43.039169
v -118.282384 -7.828427 43.278171
v -117.034961 -8.695518 43.635864
v -119.408572 -1.250000 42.955242
v -94.866855 -8.695518 49.992466
v -93.619432 -7.828427 50.350159
v -92.785931 -6.530734 50.589161
v -92.493244 -5.000000 50.673088
v -92.493244 -1.250000 50.673088
vt 0.381250 0.039270 0.000000
vt 0.006250 0.039270 0.000000
vt 0.380289 0.029452 0.000000
vt 0.006250 0.013090 0.000000
vt 0.377444 0.019635 0.000000
vt 0.366605 0.000000 0.000000
vt 0.006250 -0.013090 0.000000
vt 0.350384 -0.019635 0.000000
vt 0.006250 -0.039270 0.000000
vt 0.331250 -0.039270 0.000000
vt 2.100000 0.039270 0.000000
vt -0.700000 0.039270 0.000000
vt 2.099039 0.029452 0.000000
vt 0.980000 0.013090 0.000000
vt 1.540000 0.013090 0.000000
vt 1.540000 -0.013090 0.000000
vt 2.085355 0.000000 0.000000
vt 2.069134 -0.019635 0.000000
vt 2.050000 -0.039270 0.000000
vt 0.980000 -0.013090 0.000000
vt 0.420000 -0.013090 0.000000
vt 0.420000 0.013090 0.000000
vt -0.140000 0.013090 0.000000
vt -0.699039 0.029452 0.000000
vt -0.696194 0.019635 0.000000
vt -0.685355 0.000000 0.000000
vt -0.140000 -0.013090 0.000000
vt -0.669134 -0.019635 0.000000
vt -0.650000 -0.039270 0.000000
vt 2.096194 0.019635 0.000000
vt -0.000000 -0.605315 0.000000
vt -0.026180 -0.605315 0.000000
vt -0.000000 -0.756643 0.000000
vt -0.026180 -0.756643 0.000000
vt 0.000000 -0.907972 0.000000
vt -0.026180 -0.907972 0.000000
vt 0.000000 -1.059301 0.000000
vt -0.026180 -1.059301 0.000000
vt 0.000000 -1.210630 0.000000
vt -0.026180 -1.210630 0.000000
vt -0.052360 -1.059301 0.000000
vt -0.052360 -1.210630 0.000000
vt -0.078540 -1.059301 0.000000
vt -0.078540 -1.210630 0.000000
vt -0.052360 -0.605315 0.000000
vt -0.052360 -0.756643 0.000000
vt -0.052360 -0.907972 0.000000
vt -0.078540 -0.605315 0.000000
vt -0.078540 -0.756643 0.000000
vt -0.078540 -0.907972 0.000000
vt -0.500000 0.013090 0.000000
vt 0.000000 0.013090 0.000000
vt -0.500000 0.039270 0.000000
vt 0.500000 0.013090 0.000000
vt 1.500000 0.039270 0.000000
vt 1.000000 0.013090 0.000000
vt 1.500000 0.013090 0.000000
vt 1.500000 -0.013090 0.000000
vt 1.000000 -0.013090 0.000000
vt 1.500000 -0.039270 0.000000
vt 0.500000 -0.013090 0.000000
vt -0.500000 -0.039270 0.000000
vt 0.000000 -0.013090 0.000000
vt -0.500000 -0.013090 0.000000
vt 0.000000 0.000000 0.000000
vt -0.026180 0.000000 0.000000
vt 0.000000 -0.151329 0.000000
vt -0.026180 -0.151329 0.000000
vt -0.000000 -0.302657 0.000000
vt -0.026180 -0.302657 0.000000
vt -0.000000 -0.453986 0.000000
vt -0.026180 -0.453986 0.000000
vt -0.000000 -0.605315 0.000000
vt -0.026180 -0.605315 0.000000
vt -0.052360 -0.453986 0.000000
vt -0.052360 -0.605315 0.000000
vt -0.078540 -0.453986 0.000000
vt -0.078540 -0.605315 0.000000
vt -0.052360 0.000000 0.000000
vt -0.052360 -0.151329 0.000000
vt -0.052360 -0.302657 0.000000
vt -0.078540 0.000000 0.000000
vt -0.078540 -0.151329 0.000000
vt -0.078540 -0.302657 0.000000
vt -0.143750 -0.039270 0.000000
vt 0.181250 -0.039270 0.000000
vt -0.162884 -0.019635 0.000000
vt 0.181250 -0.013090 0.000000
vt -0.179105 0.000000 0.000000
vt 0.181250 0.013090 0.000000
vt -0.189944 0.019635 0.000000
vt -0.192789 0.029452 0.000000
vt 0.181250 0.039270 0.000000
vt -0.193750 0.039270 0.000000
vt 0.000000 -0.150000 0.000000
vt 2.000000 -0.150000 0.000000
vt 0.000000 0.100000 0.000000
vt 2.000000 0.100000 0.000000
vt -0.100000 -0.628319 0.000000
vt 0.150000 -0.628319 0.000000
vt -0.100000 -0.471239 0.000000
vt 0.150000 -0.471239 0.000000
vt -0.100000 -0.314159 0.000000
vt 0.150000 -0.314159 0.000000
vt -0.100000 -0.157080 0.000000
vt 0.150000 -0.157080 0.000000
vt -0.100000 0.000000 0.000000
vt 0.150000 0.000000 0.000000
vt 0.000000 -0.150000 0.000000
vt 0.375000 -0.150000 0.000000
vt -0.000000 0.100000 0.000000
vt 0.375000 0.100000 0.000000
vt -0.337500 1.350000 0.000000
vt -0.337500 -1.350000 0.000000
vt -0.012500 1.350000 0.000000
vt -0.012500 -1.350000 0.000000
vt 0.121439 -1.323358 0.000000
vt 0.121439 1.323358 0.000000
vt 0.234987 -1.247487 0.000000
vt 0.234987 1.247487 0.000000
vt 0.337500 -1.000000 0.000000
vt 0.337500 1.000000 0.000000
vt 0.310858 -1.133939 0.000000
vt 0.310858 1.133939 0.000000
vt -0.100000 -0.628319 0.000000
vt 0.150000 -0.628319 0.000000
vt -0.100000 -0.471239 0.000000
vt 0.150000 -0.471239 0.000000
vt -0.100000 -0.314159 0.000000
vt 0.150000 -0.314159 0.000000
vt -0.100000 -0.157080 0.000000
vt 0.150000 -0.157080 0.000000
vt -0.100000 0.000000 0.000000
vt 0.150000 0.000000 0.000000
vt 0.000000 -0.150000 0.000000
vt 0.375000 -0.150000 0.000000
vt 0.000000 0.100000 0.000000
vt 0.375000 0.100000 0.000000
vt -0.000000 -0.150000 0.000000
vt 2.800000 -0.150000 0.000000
vt -0.000000 0.100000 0.000000
vt 2.800000 0.100000 0.000000
vt 0.387500 1.400000 0.000000
vt 0.012500 1.400000 0.000000
vt 0.387500 -1.400000 0.000000
vt 0.012500 -1.400000 0.000000
vt -0.140573 -1.369552 0.000000
vt -0.140573 1.369552 0.000000
vt -0.270343 -1.282843 0.000000
vt -0.387500 -1.000000 0.000000
vt -0.357052 -1.153073 0.000000
vt -0.270343 1.282843 0.000000
vt -0.387500 1.000000 0.000000
vt -0.357052 1.153073 0.000000
vn -0.096126 -0.000000 -0.027564
vn -0.096126 -0.000000 -0.027564
vn -0.099657 -0.000000 -0.008281
vn -0.097030 -0.000000 0.024192
vn -0.099357 -0.000000 0.011320
vn -0.087462 -0.000000 0.048481
vn -0.071934 -0.000000 0.069466
vn -0.062251 -0.000000 0.078261
vn -0.027564 -0.000000 0.096126
vn -0.027564 -0.000000 0.096126
vn 0.000000 0.100000 -0.000000
vn -0.000000 0.100000 0.000000
vn -0.005377 0.098079 0.018753
vn -0.013782 0.086603 0.048063
vn -0.013782 0.086603 0.048063
vn -0.023871 0.050000 0.083248
vn -0.019491 0.070711 0.067971
vn -0.025466 0.038268 0.088809
vn -0.027564 -0.000000 0.096126
vn -0.023871 0.050000 0.083248
vn -0.023871 0.050000 0.083248
vn -0.013782 0.086603 0.048063
vn -0.013782 0.086603 0.048063
vn -0.005377 0.098079 0.018753
vn -0.010548 0.092388 0.036786
vn -0.019491 0.070711 0.067971
vn -0.023871 0.050000 0.083248
vn -0.025466 0.038268 0.088809
vn -0.010548 0.092388 0.036786
vn -0.000000 -0.100000 -0.000000
vn -0.013782 -0.086603 0.048063
vn -0.036786 -0.092388 -0.010548
vn -0.045639 -0.080010 0.038928
vn -0.067971 -0.070711 -0.019491
vn -0.072647 -0.061237 0.031184
vn -0.088809 -0.038268 -0.025466
vn -0.090693 -0.033141 0.026009
vn -0.096126 -0.000000 -0.027564
vn -0.097030 -0.000000 0.024192
vn -0.068275 -0.019134 0.070515
vn -0.027564 -0.000000 0.096126
vn -0.023871 -0.050000 0.083248
vn -0.042264 -0.046194 0.077974
vn -0.057857 -0.035355 0.073502
vn -0.027564 -0.000000 0.096126
vn -0.027564 -0.000000 0.096126
vn -0.027564 -0.000000 0.096126
vn -0.013782 -0.086603 0.048063
vn -0.013782 -0.086603 0.048063
vn 0.000000 -0.100000 -0.000000
vn -0.013782 -0.086603 0.048063
vn -0.000000 -0.100000 0.000000
vn -0.013782 -0.086603 0.048063
vn -0.013782 -0.086603 0.048063
vn -0.023871 -0.050000 0.083248
vn -0.023871 -0.050000 0.083248
vn -0.027564 0.000000 0.096126
vn -0.023871 -0.050000 0.083248
vn -0.023871 -0.050000 0.083248
vn 0.096126 0.000000 0.027564
vn 0.069466 0.000000 0.071934
vn 0.088809 -0.038268 0.025466
vn 0.063129 -0.033141 0.070117
vn 0.067971 -0.070711 0.019491
vn 0.045083 -0.061237 0.064942
vn 0.036786 -0.092388 0.010548
vn 0.018076 -0.080010 0.057198
vn -0.000000 -0.100000 0.000000
vn -0.005478 -0.046194 0.088522
vn -0.027564 0.000000 0.096126
vn 0.024192 0.000000 0.097030
vn 0.020534 -0.019134 0.095980
vn 0.010115 -0.035355 0.092993
vn -0.027564 -0.000000 0.096126
vn -0.027564 0.000000 0.096126
vn -0.027564 -0.000000 0.096126
vn -0.027564 -0.000000 0.096126
vn 0.011320 0.000000 0.099357
vn 0.048481 0.000000 0.087462
vn 0.078261 0.000000 0.062251
vn 0.088902 0.000000 0.045787
vn 0.096126 0.000000 0.027564
vn 0.096126 0.000000 0.027564
vn 0.000000 -0.100000 0.000000
vn 0.000000 -0.100000 0.000000
vn -0.036786 -0.092388 -0.010548
vn -0.067971 -0.070711 -0.019491
vn -0.088809 -0.038268 -0.025466
vn -0.096126 -0.000000 -0.027564
vn -0.096126 -0.000000 -0.027564
vn 0.096126 0.000000 0.027564
vn 0.088809 -0.038268 0.025466
vn 0.067971 -0.070711 0.019491
vn 0.036786 -0.092388 0.010548
vn 0.096126 0.000000 0.027564
vn -0.000000 0.100000 -0.000000
vn -0.000000 0.100000 -0.000000
vn -0.000000 0.100000 -0.000000
vn 0.027564 0.000000 -0.096126
vn 0.027564 0.000000 -0.096126
vn 0.027564 0.000000 -0.096126
vn 0.027564 0.000000 -0.096126
vn 0.027564 0.000000 -0.096126
vn 0.027564 0.000000 -0.096126
vn 0.027564 0.000000 -0.096126
vn 0.027564 0.000000 -0.096126
vn 0.027564 0.000000 -0.096126
vn 0.027564 0.000000 -0.096126
vn 0.027564 0.000000 -0.096126
vn 0.027564 0.000000 -0.096126
usemtl Paint_-_Enamel_Glossy_(Black)
f 1/1/1 2/2/2 10/3/3
f 10/3/3 2/2/2 3/4/4
f 10/3/3 3/4/4 9/5/5
f 9/5/5 3/4/4 8/6/6
f 8/6/6 3/4/4 4/7/7
f 8/6/6 4/7/7 7/8/8
f 7/8/8 4/7/7 5/9/9
f 7/8/8 5/9/9 6/10/10
f 11/11/11 1/12/12 16/13/13
f 16/13/13 1/12/12 19/14/14
f 16/13/13 19/14/14 20/15/15
f 20/15/15 19/14/14 24/16/16
f 20/15/15 24/16/16 14/17/17
f 14/17/17 24/16/16 13/18/18
f 13/18/18 24/16/16 12/19/19
f 12/19/19 24/16/16 23/20/20
f 12/19/19 23/20/20 22/21/21
f 22/21/21 23/20/20 18/22/22
f 22/21/21 18/22/22 17/23/23
f 17/23/23 18/22/22 1/12/12
f 17/23/23 1/12/12 10/24/24
f 10/24/24 9/25/25 17/23/23
f 17/23/23 9/25/25 8/26/26
f 17/23/23 8/26/26 21/27/27
f 21/27/27 8/26/26 7/28/28
f 21/27/27 7/28/28 22/21/21
f 22/21/21 7/28/28 12/19/19
f 7/28/28 6/29/10 12/19/19
f 14/17/17 15/30/29 20/15/15
f 20/15/15 15/30/29 16/13/13
f 19/14/14 1/12/12 18/22/22
f 21/27/27 22/21/21 17/23/23
f 24/16/16 19/14/14 23/20/20
f 23/20/20 19/14/14 18/22/22
f 25/31/30 26/32/31 34/33/32
f 34/33/32 26/32/31 36/34/33
f 34/33/32 36/34/33 33/35/34
f 33/35/34 36/34/33 38/36/35
f 33/35/34 38/36/35 32/37/36
f 32/37/36 38/36/35 40/38/37
f 32/37/36 40/38/37 2/39/38
f 2/39/38 40/38/37 3/40/39
f 3/40/39 40/38/37 39/41/40
f 3/40/39 39/41/40 4/42/7
f 4/42/7 39/41/40 31/43/41
f 4/42/7 31/43/41 5/44/9
f 26/32/31 27/45/42 36/34/33
f 36/34/33 27/45/42 35/46/43
f 36/34/33 35/46/43 38/36/35
f 38/36/35 35/46/43 37/47/44
f 38/36/35 37/47/44 40/38/37
f 40/38/37 37/47/44 39/41/40
f 27/45/42 28/48/45 35/46/43
f 35/46/43 28/48/45 29/49/46
f 35/46/43 29/49/46 37/47/44
f 37/47/44 29/49/46 30/50/47
f 37/47/44 30/50/47 39/41/40
f 39/41/40 30/50/47 31/43/41
f 42/51/48 45/52/49 41/53/50
f 41/53/50 45/52/49 46/54/51
f 41/53/50 46/54/51 25/55/52
f 25/55/52 46/54/51 47/56/53
f 25/55/52 47/56/53 26/57/54
f 26/57/54 47/56/53 27/58/42
f 27/58/42 47/56/53 50/59/55
f 27/58/42 50/59/55 28/60/45
f 28/60/45 50/59/55 49/61/56
f 28/60/45 49/61/56 44/62/57
f 44/62/57 49/61/56 48/63/58
f 44/62/57 48/63/58 43/64/59
f 43/64/59 48/63/58 42/51/48
f 42/51/48 48/63/58 45/52/49
f 50/59/55 47/56/53 46/54/51
f 48/63/58 49/61/56 45/52/49
f 45/52/49 49/61/56 46/54/51
f 49/61/56 50/59/55 46/54/51
f 51/65/60 52/66/61 60/67/62
f 60/67/62 52/66/61 62/68/63
f 60/67/62 62/68/63 59/69/64
f 59/69/64 62/68/63 64/70/65
f 59/69/64 64/70/65 58/71/66
f 58/71/66 64/70/65 66/72/67
f 58/71/66 66/72/67 41/73/68
f 41/73/68 66/72/67 42/74/48
f 42/74/48 66/72/67 65/75/69
f 42/74/48 65/75/69 43/76/59
f 43/76/59 65/75/69 57/77/70
f 43/76/59 57/77/70 44/78/57
f 52/66/61 53/79/71 62/68/63
f 62/68/63 53/79/71 61/80/72
f 62/68/63 61/80/72 64/70/65
f 64/70/65 61/80/72 63/81/73
f 64/70/65 63/81/73 66/72/67
f 66/72/67 63/81/73 65/75/69
f 53/79/71 54/82/74 61/80/72
f 61/80/72 54/82/74 55/83/75
f 61/80/72 55/83/75 63/81/73
f 63/81/73 55/83/75 56/84/76
f 63/81/73 56/84/76 65/75/69
f 65/75/69 56/84/76 57/77/70
f 12/85/77 54/86/74 13/87/78
f 13/87/78 54/86/74 53/88/71
f 13/87/78 53/88/71 14/89/79
f 14/89/79 53/88/71 52/90/61
f 14/89/79 52/90/61 15/91/80
f 15/91/80 52/90/61 16/92/81
f 16/92/81 52/90/61 51/93/82
f 16/92/81 51/93/82 11/94/83
f 41/95/50 25/96/30 68/97/84
f 68/97/84 25/96/30 67/98/85
f 67/99/85 25/100/30 72/101/86
f 72/101/86 25/100/30 34/102/32
f 72/101/86 34/102/32 71/103/87
f 71/103/87 34/102/32 33/104/34
f 71/103/87 33/104/34 70/105/88
f 70/105/88 33/104/34 32/106/36
f 70/105/88 32/106/36 69/107/89
f 69/107/89 32/106/36 2/108/2
f 2/109/2 1/110/1 69/111/89
f 69/111/89 1/110/1 73/112/90
f 12/113/77 6/114/10 54/115/74
f 54/115/74 6/114/10 5/116/9
f 54/115/74 5/116/9 31/117/41
f 54/115/74 31/117/41 55/118/75
f 55/118/75 31/117/41 30/119/47
f 55/118/75 30/119/47 56/120/76
f 56/120/76 30/119/47 28/121/45
f 56/120/76 28/121/45 44/122/57
f 30/119/47 29/123/46 28/121/45
f 44/122/57 57/124/70 56/120/76
f 77/125/91 51/126/60 76/127/92
f 76/127/92 51/126/60 60/128/62
f 76/127/92 60/128/62 75/129/93
f 75/129/93 60/128/62 59/130/64
f 75/129/93 59/130/64 74/131/94
f 74/131/94 59/130/64 58/132/66
f 74/131/94 58/132/66 68/133/84
f 68/133/84 58/132/66 41/134/50
f 11/135/83 51/136/60 78/137/95
f 78/137/95 51/136/60 77/138/91
f 1/139/12 11/140/96 73/141/97
f 73/141/97 11/140/96 78/142/98
f 78/143/99 77/144/100 73/145/101
f 73/145/101 77/144/100 69/146/102
f 69/146/102 77/144/100 70/147/103
f 70/147/103 77/144/100 76/148/104
f 70/147/103 76/148/104 71/149/105
f 71/149/105 76/148/104 67/150/106
f 71/149/105 67/150/106 72/151/107
f 76/148/104 75/152/108 67/150/106
f 67/150/106 75/152/108 68/153/109
f 68/153/109 75/152/108 74/154/110
# 78 vertices
# 154 texture params
# 110 normals
# 152 facets

# 1 groups
