# WaveFront *.obj file (generated by Autodesk ATF)

mtllib AyaNeo-01 v51_AyaNeo-01 v51_X_AyaNeo-01 v51.mtl

g X

v 23.750000 -12.100000 22.000000
v 23.933538 -12.100000 20.841186
v 24.466186 -12.100000 19.795805
v 25.295805 -12.100000 18.966186
v 26.341186 -12.100000 18.433538
v 27.500000 -12.100000 18.250000
v 28.658814 -12.100000 18.433538
v 29.704195 -12.100000 18.966186
v 30.533814 -12.100000 19.795805
v 31.066462 -12.100000 20.841186
v 31.250000 -12.100000 22.000000
v 31.066462 -12.100000 23.158814
v 30.533814 -12.100000 24.204195
v 29.704195 -12.100000 25.033814
v 28.658814 -12.100000 25.566462
v 27.500000 -12.100000 25.750000
v 26.341186 -12.100000 25.566462
v 25.295805 -12.100000 25.033814
v 24.466186 -12.100000 24.204195
v 23.933538 -12.100000 23.158814
v 24.150000 -12.500000 22.000000
v 24.331512 -12.500000 23.087743
v 24.856379 -12.500000 24.057613
v 25.667724 -12.500000 24.804508
v 26.677624 -12.500000 25.247491
v 27.776641 -12.500000 25.338558
v 28.845680 -12.500000 25.067841
v 29.768893 -12.500000 24.464675
v 30.446237 -12.500000 23.594424
v 30.804310 -12.500000 22.551392
v 30.804310 -12.500000 21.448608
v 30.446237 -12.500000 20.405576
v 29.768893 -12.500000 19.535325
v 28.845680 -12.500000 18.932159
v 27.776641 -12.500000 18.661442
v 26.677624 -12.500000 18.752509
v 25.667724 -12.500000 19.195492
v 24.856379 -12.500000 19.942387
v 24.331512 -12.500000 20.912257
v 27.500000 -12.300000 25.696410
v 27.500000 -12.446410 25.550000
v 23.984505 -12.300000 20.857746
v 24.123749 -12.446410 20.902990
v 23.950000 -12.446410 22.000000
v 23.803590 -12.300000 22.000000
v 24.509541 -12.300000 19.827305
v 24.627990 -12.446410 19.913362
v 25.327305 -12.300000 19.009541
v 25.413362 -12.446410 19.127990
v 26.357746 -12.300000 18.484505
v 26.402990 -12.446410 18.623749
v 27.500000 -12.300000 18.303590
v 27.500000 -12.446410 18.450000
v 28.642254 -12.300000 18.484505
v 28.597010 -12.446410 18.623749
v 29.672695 -12.300000 19.009541
v 29.586638 -12.446410 19.127990
v 30.490459 -12.300000 19.827305
v 30.372010 -12.446410 19.913362
v 31.015495 -12.300000 20.857746
v 30.876251 -12.446410 20.902990
v 31.196410 -12.300000 22.000000
v 31.050000 -12.446410 22.000000
v 31.015495 -12.300000 23.142254
v 30.876251 -12.446410 23.097010
v 30.490459 -12.300000 24.172695
v 30.372010 -12.446410 24.086638
v 29.672695 -12.300000 24.990459
v 29.586638 -12.446410 24.872010
v 28.642254 -12.300000 25.515495
v 28.597010 -12.446410 25.376251
v 26.357746 -12.300000 25.515495
v 26.402990 -12.446410 25.376251
v 25.327305 -12.300000 24.990459
v 25.413362 -12.446410 24.872010
v 24.509541 -12.300000 24.172695
v 24.627990 -12.446410 24.086638
v 23.984505 -12.300000 23.142254
v 24.123749 -12.446410 23.097010
v 23.750000 -9.000000 22.000000
v 23.933538 -9.000000 20.841186
v 24.466186 -9.000000 19.795805
v 25.295805 -9.000000 18.966186
v 26.341186 -9.000000 18.433538
v 27.500000 -9.000000 18.250000
v 28.658814 -9.000000 18.433538
v 29.704195 -9.000000 18.966186
v 30.533814 -9.000000 19.795805
v 31.066462 -9.000000 20.841186
v 31.250000 -9.000000 22.000000
v 31.066462 -9.000000 23.158814
v 30.533814 -9.000000 24.204195
v 29.704195 -9.000000 25.033814
v 28.658814 -9.000000 25.566462
v 27.500000 -9.000000 25.750000
v 26.341186 -9.000000 25.566462
v 25.295805 -9.000000 25.033814
v 24.466186 -9.000000 24.204195
v 23.933538 -9.000000 23.158814
vt 0.000000 -0.456516 0.000000
vt -0.020944 -0.456516 0.000000
vt -0.000000 -0.570646 0.000000
vt -0.020944 -0.570646 0.000000
vt -0.000000 -0.684775 0.000000
vt -0.020944 -0.684775 0.000000
vt -0.000000 -0.798904 0.000000
vt -0.020944 -0.798904 0.000000
vt -0.000000 -0.913033 0.000000
vt -0.020944 -0.913033 0.000000
vt -0.000000 -1.027162 0.000000
vt -0.020944 -1.027162 0.000000
vt -0.000000 -1.141291 0.000000
vt -0.020944 -1.141291 0.000000
vt -0.000000 1.141291 0.000000
vt -0.020944 1.141291 0.000000
vt -0.000000 1.027162 0.000000
vt -0.020944 1.027162 0.000000
vt -0.000000 0.913033 0.000000
vt -0.020944 0.913033 0.000000
vt -0.000000 0.798904 0.000000
vt -0.020944 0.798904 0.000000
vt -0.000000 0.684775 0.000000
vt -0.020944 0.684775 0.000000
vt -0.000000 0.570646 0.000000
vt -0.020944 0.570646 0.000000
vt -0.000000 0.456516 0.000000
vt -0.020944 0.456516 0.000000
vt -0.000000 0.342387 0.000000
vt -0.020944 0.342387 0.000000
vt -0.000000 0.228258 0.000000
vt -0.020944 0.228258 0.000000
vt -0.000000 0.114129 0.000000
vt -0.020944 0.114129 0.000000
vt -0.000000 0.000000 0.000000
vt -0.020944 -0.000000 0.000000
vt 0.000000 -0.114129 0.000000
vt -0.020944 -0.114129 0.000000
vt 0.000000 -0.228258 0.000000
vt -0.020944 -0.228258 0.000000
vt 0.000000 -0.342387 0.000000
vt -0.020944 -0.342387 0.000000
vt -0.062832 -0.690782 0.000000
vt -0.041888 -0.684775 0.000000
vt -0.062832 -0.570646 0.000000
vt -0.041888 -0.570646 0.000000
vt -0.041888 -0.456516 0.000000
vt -0.041888 -0.798904 0.000000
vt -0.062832 -0.810917 0.000000
vt -0.041888 -0.913033 0.000000
vt -0.062832 -0.931053 0.000000
vt -0.041888 -1.027162 0.000000
vt -0.062832 -1.051189 0.000000
vt -0.041888 -1.141291 0.000000
vt -0.041888 1.141291 0.000000
vt -0.062832 1.231393 0.000000
vt -0.062832 1.111257 0.000000
vt -0.041888 1.027162 0.000000
vt -0.062832 0.991121 0.000000
vt -0.041888 0.913033 0.000000
vt -0.062832 0.870985 0.000000
vt -0.041888 0.798904 0.000000
vt -0.062832 0.750849 0.000000
vt -0.041888 0.684775 0.000000
vt -0.062832 0.630714 0.000000
vt -0.041888 0.570646 0.000000
vt -0.062832 0.510578 0.000000
vt -0.041888 0.456516 0.000000
vt -0.062832 0.390442 0.000000
vt -0.041888 0.342387 0.000000
vt -0.062832 0.270306 0.000000
vt -0.041888 0.228258 0.000000
vt -0.062832 0.150170 0.000000
vt -0.041888 0.114129 0.000000
vt -0.062832 0.030034 0.000000
vt -0.041888 -0.000000 0.000000
vt -0.062832 -0.090102 0.000000
vt -0.041888 -0.114129 0.000000
vt -0.062832 -0.210238 0.000000
vt -0.041888 -0.228258 0.000000
vt -0.062832 -0.330374 0.000000
vt -0.041888 -0.342387 0.000000
vt -0.062832 -0.450510 0.000000
vt 0.200000 -1.060288 0.000000
vt -0.110000 -1.060288 0.000000
vt 0.200000 -1.178097 0.000000
vt -0.110000 -1.178097 0.000000
vt 0.200000 1.178097 0.000000
vt -0.110000 1.178097 0.000000
vt 0.200000 1.060288 0.000000
vt -0.110000 1.060288 0.000000
vt 0.200000 0.942478 0.000000
vt -0.110000 0.942478 0.000000
vt 0.200000 0.824668 0.000000
vt -0.110000 0.824668 0.000000
vt 0.200000 0.706858 0.000000
vt -0.110000 0.706858 0.000000
vt 0.200000 0.589049 0.000000
vt -0.110000 0.589049 0.000000
vt 0.200000 0.471239 0.000000
vt -0.110000 0.471239 0.000000
vt 0.200000 0.353429 0.000000
vt -0.110000 0.353429 0.000000
vt 0.200000 0.235619 0.000000
vt -0.110000 0.235619 0.000000
vt 0.200000 0.117810 0.000000
vt -0.110000 0.117810 0.000000
vt 0.200000 0.000000 0.000000
vt -0.110000 0.000000 0.000000
vt 0.200000 -0.117810 0.000000
vt -0.110000 -0.117810 0.000000
vt 0.200000 -0.235619 0.000000
vt -0.110000 -0.235619 0.000000
vt 0.200000 -0.353429 0.000000
vt -0.110000 -0.353429 0.000000
vt 0.200000 -0.471239 0.000000
vt -0.110000 -0.471239 0.000000
vt 0.200000 -0.589049 0.000000
vt -0.110000 -0.589049 0.000000
vt 0.200000 -0.706858 0.000000
vt -0.110000 -0.706858 0.000000
vt 0.200000 -0.824668 0.000000
vt -0.110000 -0.824668 0.000000
vt 0.200000 -0.942478 0.000000
vt -0.110000 -0.942478 0.000000
vt -0.335000 0.000000 0.000000
vt -0.316849 -0.108774 0.000000
vt -0.316849 0.108774 0.000000
vt -0.264362 0.205761 0.000000
vt -0.264362 -0.205761 0.000000
vt -0.183228 0.280451 0.000000
vt -0.183228 -0.280451 0.000000
vt -0.082238 0.324749 0.000000
vt -0.082238 -0.324749 0.000000
vt 0.027664 0.333856 0.000000
vt 0.027664 -0.333856 0.000000
vt 0.134568 0.306784 0.000000
vt 0.226889 0.246468 0.000000
vt 0.294624 0.159442 0.000000
vt 0.330431 0.055139 0.000000
vt 0.330431 -0.055139 0.000000
vt 0.294624 -0.159442 0.000000
vt 0.226889 -0.246468 0.000000
vt 0.134568 -0.306784 0.000000
vt 0.356646 0.115881 0.000000
vt -0.356646 0.115881 0.000000
vt 0.375000 0.000000 0.000000
vt -0.375000 0.000000 0.000000
vt 0.356646 -0.115881 0.000000
vt -0.356646 -0.115881 0.000000
vt 0.303381 -0.220419 0.000000
vt -0.303381 -0.220419 0.000000
vt 0.220419 -0.303381 0.000000
vt -0.220419 -0.303381 0.000000
vt 0.115881 -0.356646 0.000000
vt -0.115881 -0.356646 0.000000
vt -0.000000 -0.375000 0.000000
vt -0.303381 0.220419 0.000000
vt 0.303381 0.220419 0.000000
vt -0.220419 0.303381 0.000000
vt 0.220419 0.303381 0.000000
vt -0.115881 0.356646 0.000000
vt 0.115881 0.356646 0.000000
vt -0.000000 0.375000 0.000000
vn -0.095106 0.000000 -0.030902
vn -0.082364 -0.050000 -0.026762
vn -0.100000 0.000000 -0.000000
vn -0.086603 -0.050000 -0.000000
vn -0.095106 0.000000 0.030902
vn -0.082364 -0.050000 0.026762
vn -0.080902 0.000000 0.058779
vn -0.070063 -0.050000 0.050904
vn -0.058779 0.000000 0.080902
vn -0.050904 -0.050000 0.070063
vn -0.030902 0.000000 0.095106
vn -0.026762 -0.050000 0.082364
vn -0.000000 0.000000 0.100000
vn -0.000000 -0.050000 0.086603
vn 0.030902 0.000000 0.095106
vn 0.026762 -0.050000 0.082364
vn 0.058779 0.000000 0.080902
vn 0.050904 -0.050000 0.070063
vn 0.080902 0.000000 0.058779
vn 0.070063 -0.050000 0.050904
vn 0.095106 0.000000 0.030902
vn 0.082364 -0.050000 0.026762
vn 0.100000 0.000000 -0.000000
vn 0.086603 -0.050000 -0.000000
vn 0.095106 0.000000 -0.030902
vn 0.082364 -0.050000 -0.026762
vn 0.080902 0.000000 -0.058779
vn 0.070063 -0.050000 -0.050904
vn 0.058779 0.000000 -0.080902
vn 0.050904 -0.050000 -0.070063
vn 0.030902 0.000000 -0.095106
vn 0.026762 -0.050000 -0.082364
vn 0.000000 0.000000 -0.100000
vn -0.000000 -0.050000 -0.086603
vn -0.030902 0.000000 -0.095106
vn -0.026762 -0.050000 -0.082364
vn -0.058779 0.000000 -0.080902
vn -0.050904 -0.050000 -0.070063
vn -0.080902 0.000000 -0.058779
vn -0.070063 -0.050000 -0.050904
vn -0.000000 -0.100000 0.000000
vn -0.047553 -0.086603 0.015451
vn -0.000000 -0.100000 -0.000000
vn -0.050000 -0.086603 -0.000000
vn -0.047553 -0.086603 -0.015451
vn -0.040451 -0.086603 0.029389
vn -0.000000 -0.100000 0.000000
vn -0.029389 -0.086603 0.040451
vn 0.000000 -0.100000 -0.000000
vn -0.015451 -0.086603 0.047553
vn -0.000000 -0.100000 0.000000
vn -0.000000 -0.086603 0.050000
vn 0.000000 -0.100000 0.000000
vn 0.015451 -0.086603 0.047553
vn 0.000000 -0.100000 0.000000
vn 0.029389 -0.086603 0.040451
vn 0.000000 -0.100000 0.000000
vn 0.040451 -0.086603 0.029389
vn 0.000000 -0.100000 0.000000
vn 0.047553 -0.086603 0.015451
vn -0.000000 -0.100000 -0.000000
vn 0.050000 -0.086603 -0.000000
vn -0.000000 -0.100000 0.000000
vn 0.047553 -0.086603 -0.015451
vn 0.000000 -0.100000 -0.000000
vn 0.040451 -0.086603 -0.029389
vn -0.000000 -0.100000 0.000000
vn 0.029389 -0.086603 -0.040451
vn -0.000000 -0.100000 0.000000
vn 0.015451 -0.086603 -0.047553
vn 0.000000 -0.100000 -0.000000
vn -0.000000 -0.086603 -0.050000
vn -0.000000 -0.100000 -0.000000
vn -0.015451 -0.086603 -0.047553
vn -0.000000 -0.100000 -0.000000
vn -0.029389 -0.086603 -0.040451
vn -0.000000 -0.100000 -0.000000
vn -0.040451 -0.086603 -0.029389
vn -0.000000 -0.100000 -0.000000
vn -0.095106 0.000000 -0.030902
vn -0.100000 0.000000 -0.000000
vn -0.095106 0.000000 0.030902
vn -0.080902 0.000000 0.058779
vn -0.058779 0.000000 0.080902
vn -0.030902 0.000000 0.095106
vn 0.000000 0.000000 0.100000
vn 0.030902 0.000000 0.095106
vn 0.058779 0.000000 0.080902
vn 0.080902 0.000000 0.058779
vn 0.095106 0.000000 0.030902
vn 0.100000 0.000000 0.000000
vn 0.095106 0.000000 -0.030902
vn 0.080902 0.000000 -0.058779
vn 0.058779 0.000000 -0.080902
vn 0.030902 0.000000 -0.095106
vn 0.000000 0.000000 -0.100000
vn -0.030902 0.000000 -0.095106
vn -0.058779 0.000000 -0.080902
vn -0.080902 0.000000 -0.058779
vn -0.000000 0.100000 -0.000000
vn -0.000000 0.100000 -0.000000
vn -0.000000 0.100000 -0.000000
vn -0.000000 0.100000 -0.000000
vn -0.000000 0.100000 -0.000000
vn -0.000000 0.100000 -0.000000
vn -0.000000 0.100000 -0.000000
vn -0.000000 0.100000 -0.000000
vn -0.000000 0.100000 -0.000000
vn -0.000000 0.100000 -0.000000
vn -0.000000 0.100000 -0.000000
vn -0.000000 0.100000 -0.000000
vn -0.000000 0.100000 -0.000000
vn -0.000000 0.100000 -0.000000
vn -0.000000 0.100000 -0.000000
vn -0.000000 0.100000 -0.000000
vn -0.000000 0.100000 -0.000000
vn -0.000000 0.100000 -0.000000
vn -0.000000 0.100000 -0.000000
vn -0.000000 0.100000 -0.000000
usemtl Paint_-_Enamel_Glossy_(Black)
f 2/1/1 42/2/2 1/3/3
f 1/3/3 42/2/2 45/4/4
f 1/3/3 45/4/4 20/5/5
f 20/5/5 45/4/4 78/6/6
f 20/5/5 78/6/6 19/7/7
f 19/7/7 78/6/6 76/8/8
f 19/7/7 76/8/8 18/9/9
f 18/9/9 76/8/8 74/10/10
f 18/9/9 74/10/10 17/11/11
f 17/11/11 74/10/10 72/12/12
f 17/11/11 72/12/12 16/13/13
f 16/13/13 72/12/12 40/14/14
f 16/15/13 40/16/14 15/17/15
f 15/17/15 40/16/14 70/18/16
f 15/17/15 70/18/16 14/19/17
f 14/19/17 70/18/16 68/20/18
f 14/19/17 68/20/18 13/21/19
f 13/21/19 68/20/18 66/22/20
f 13/21/19 66/22/20 12/23/21
f 12/23/21 66/22/20 64/24/22
f 12/23/21 64/24/22 11/25/23
f 11/25/23 64/24/22 62/26/24
f 11/25/23 62/26/24 10/27/25
f 10/27/25 62/26/24 60/28/26
f 10/27/25 60/28/26 9/29/27
f 9/29/27 60/28/26 58/30/28
f 9/29/27 58/30/28 8/31/29
f 8/31/29 58/30/28 56/32/30
f 8/31/29 56/32/30 7/33/31
f 7/33/31 56/32/30 54/34/32
f 7/33/31 54/34/32 6/35/33
f 6/35/33 54/34/32 52/36/34
f 6/35/33 52/36/34 5/37/35
f 5/37/35 52/36/34 50/38/36
f 5/37/35 50/38/36 4/39/37
f 4/39/37 50/38/36 48/40/38
f 4/39/37 48/40/38 3/41/39
f 3/41/39 48/40/38 46/42/40
f 3/41/39 46/42/40 2/1/1
f 2/1/1 46/42/40 42/2/2
f 22/43/41 79/44/42 21/45/43
f 21/45/43 79/44/42 44/46/44
f 21/45/43 44/46/44 43/47/45
f 43/47/45 44/46/44 45/4/4
f 43/47/45 45/4/4 42/2/2
f 79/44/42 22/43/41 77/48/46
f 77/48/46 22/43/41 23/49/47
f 77/48/46 23/49/47 75/50/48
f 75/50/48 23/49/47 24/51/49
f 75/50/48 24/51/49 73/52/50
f 73/52/50 24/51/49 25/53/51
f 73/52/50 25/53/51 41/54/52
f 41/55/52 25/56/51 26/57/53
f 41/55/52 26/57/53 71/58/54
f 71/58/54 26/57/53 27/59/55
f 71/58/54 27/59/55 69/60/56
f 69/60/56 27/59/55 28/61/57
f 69/60/56 28/61/57 67/62/58
f 67/62/58 28/61/57 29/63/59
f 67/62/58 29/63/59 65/64/60
f 65/64/60 29/63/59 30/65/61
f 65/64/60 30/65/61 63/66/62
f 63/66/62 30/65/61 31/67/63
f 63/66/62 31/67/63 61/68/64
f 61/68/64 31/67/63 32/69/65
f 61/68/64 32/69/65 59/70/66
f 59/70/66 32/69/65 33/71/67
f 59/70/66 33/71/67 57/72/68
f 57/72/68 33/71/67 34/73/69
f 57/72/68 34/73/69 55/74/70
f 55/74/70 34/73/69 35/75/71
f 55/74/70 35/75/71 53/76/72
f 53/76/72 35/75/71 36/77/73
f 53/76/72 36/77/73 51/78/74
f 51/78/74 36/77/73 37/79/75
f 51/78/74 37/79/75 49/80/76
f 49/80/76 37/79/75 38/81/77
f 49/80/76 38/81/77 47/82/78
f 47/82/78 38/81/77 39/83/79
f 47/82/78 39/83/79 43/47/45
f 43/47/45 39/83/79 21/45/43
f 40/16/14 41/55/52 70/18/16
f 70/18/16 41/55/52 71/58/54
f 70/18/16 71/58/54 68/20/18
f 68/20/18 71/58/54 69/60/56
f 68/20/18 69/60/56 66/22/20
f 66/22/20 69/60/56 67/62/58
f 66/22/20 67/62/58 64/24/22
f 64/24/22 67/62/58 65/64/60
f 64/24/22 65/64/60 62/26/24
f 62/26/24 65/64/60 63/66/62
f 62/26/24 63/66/62 60/28/26
f 60/28/26 63/66/62 61/68/64
f 60/28/26 61/68/64 58/30/28
f 58/30/28 61/68/64 59/70/66
f 58/30/28 59/70/66 56/32/30
f 56/32/30 59/70/66 57/72/68
f 56/32/30 57/72/68 54/34/32
f 54/34/32 57/72/68 55/74/70
f 54/34/32 55/74/70 52/36/34
f 52/36/34 55/74/70 53/76/72
f 52/36/34 53/76/72 50/38/36
f 50/38/36 53/76/72 51/78/74
f 50/38/36 51/78/74 48/40/38
f 48/40/38 51/78/74 49/80/76
f 48/40/38 49/80/76 46/42/40
f 46/42/40 49/80/76 47/82/78
f 46/42/40 47/82/78 42/2/2
f 42/2/2 47/82/78 43/47/45
f 41/54/52 40/14/14 73/52/50
f 73/52/50 40/14/14 72/12/12
f 73/52/50 72/12/12 75/50/48
f 75/50/48 72/12/12 74/10/10
f 75/50/48 74/10/10 77/48/46
f 77/48/46 74/10/10 76/8/8
f 77/48/46 76/8/8 79/44/42
f 79/44/42 76/8/8 78/6/6
f 79/44/42 78/6/6 44/46/44
f 44/46/44 78/6/6 45/4/4
f 81/84/80 2/85/1 80/86/81
f 80/86/81 2/85/1 1/87/3
f 80/88/81 1/89/3 99/90/82
f 99/90/82 1/89/3 20/91/5
f 99/90/82 20/91/5 98/92/83
f 98/92/83 20/91/5 19/93/7
f 98/92/83 19/93/7 97/94/84
f 97/94/84 19/93/7 18/95/9
f 97/94/84 18/95/9 96/96/85
f 96/96/85 18/95/9 17/97/11
f 96/96/85 17/97/11 95/98/86
f 95/98/86 17/97/11 16/99/13
f 95/98/86 16/99/13 94/100/87
f 94/100/87 16/99/13 15/101/15
f 94/100/87 15/101/15 93/102/88
f 93/102/88 15/101/15 14/103/17
f 93/102/88 14/103/17 92/104/89
f 92/104/89 14/103/17 13/105/19
f 92/104/89 13/105/19 91/106/90
f 91/106/90 13/105/19 12/107/21
f 91/106/90 12/107/21 90/108/91
f 90/108/91 12/107/21 11/109/23
f 90/108/91 11/109/23 89/110/92
f 89/110/92 11/109/23 10/111/25
f 89/110/92 10/111/25 88/112/93
f 88/112/93 10/111/25 9/113/27
f 88/112/93 9/113/27 87/114/94
f 87/114/94 9/113/27 8/115/29
f 87/114/94 8/115/29 86/116/95
f 86/116/95 8/115/29 7/117/31
f 86/116/95 7/117/31 85/118/96
f 85/118/96 7/117/31 6/119/33
f 85/118/96 6/119/33 84/120/97
f 84/120/97 6/119/33 5/121/35
f 84/120/97 5/121/35 83/122/98
f 83/122/98 5/121/35 4/123/37
f 83/122/98 4/123/37 82/124/99
f 82/124/99 4/123/37 3/125/39
f 82/124/99 3/125/39 81/84/80
f 81/84/80 3/125/39 2/85/1
f 21/126/43 39/127/79 22/128/41
f 22/128/41 39/127/79 23/129/47
f 23/129/47 39/127/79 38/130/77
f 23/129/47 38/130/77 24/131/49
f 24/131/49 38/130/77 37/132/75
f 24/131/49 37/132/75 25/133/51
f 25/133/51 37/132/75 36/134/73
f 25/133/51 36/134/73 26/135/53
f 26/135/53 36/134/73 35/136/71
f 26/135/53 35/136/71 27/137/55
f 27/137/55 35/136/71 28/138/57
f 28/138/57 35/136/71 29/139/59
f 29/139/59 35/136/71 30/140/61
f 30/140/61 35/136/71 31/141/63
f 31/141/63 35/136/71 32/142/65
f 32/142/65 35/136/71 33/143/67
f 33/143/67 35/136/71 34/144/69
f 99/145/100 91/146/101 80/147/102
f 80/147/102 91/146/101 90/148/103
f 80/147/102 90/148/103 81/149/104
f 81/149/104 90/148/103 89/150/105
f 81/149/104 89/150/105 82/151/106
f 82/151/106 89/150/105 88/152/107
f 82/151/106 88/152/107 83/153/108
f 83/153/108 88/152/107 87/154/109
f 83/153/108 87/154/109 84/155/110
f 84/155/110 87/154/109 86/156/111
f 84/155/110 86/156/111 85/157/112
f 91/146/101 99/145/100 92/158/113
f 92/158/113 99/145/100 98/159/114
f 92/158/113 98/159/114 93/160/115
f 93/160/115 98/159/114 97/161/116
f 93/160/115 97/161/116 94/162/117
f 94/162/117 97/161/116 96/163/118
f 94/162/117 96/163/118 95/164/119
# 99 vertices
# 164 texture params
# 119 normals
# 194 facets

# 1 groups
