# WaveFront *.obj file (generated by Autodesk ATF)

mtllib _Toy-Controller v71_A-Letter_Toy-Controller v71.mtl

g A-Letter

v 47.378453 -23.000000 -8.405673
v 47.848644 -23.000000 -7.980397
v 48.200502 -23.000000 -7.443426
v 48.200502 -14.000000 -7.443426
v 47.848027 -14.000000 -7.981161
v 47.378453 -14.000000 -8.405673
v 46.363006 -23.000000 -8.682418
v 46.363006 -14.000000 -8.682418
v 44.966053 -23.000000 -8.502831
v 45.651844 -23.000000 -8.627802
v 45.651844 -14.000000 -8.627802
v 44.966053 -14.000000 -8.502831
v 43.269045 -23.000000 -8.148380
v 43.269045 -14.000000 -8.148380
v 44.826385 -23.000000 -0.692298
v 44.826385 -14.000000 -0.692298
v 45.847661 -23.000000 -0.905610
v 45.847661 -14.000000 -0.905610
v 48.600530 -23.000000 -6.458528
v 48.861500 -23.000000 -5.429793
v 48.861500 -14.000000 -5.429793
v 48.600530 -14.000000 -6.458528
v 49.029743 -23.000000 -4.412361
v 49.049742 -23.000000 -3.377520
v 49.049742 -14.000000 -3.377520
v 49.029743 -14.000000 -4.412361
v 48.632472 -23.000000 -2.152411
v 48.632472 -14.000000 -2.152411
v 48.215039 -23.000000 -1.713544
v 47.691148 -23.000000 -1.402849
v 47.691148 -14.000000 -1.402849
v 48.215039 -14.000000 -1.713544
v 46.808030 -23.000000 -1.124082
v 46.808030 -14.000000 -1.124082
v 49.202906 -14.000000 0.156612
v 50.036754 -14.000000 -0.439489
v 50.683393 -14.000000 -1.234473
v 51.141328 -14.000000 -2.219450
v 51.377507 -14.000000 -3.282719
v 51.393947 -14.000000 -4.657053
v 51.190352 -14.000000 -6.020396
v 50.861541 -14.000000 -7.218490
v 50.344405 -14.000000 -8.343997
v 49.634552 -14.000000 -9.310701
v 48.723442 -14.000000 -10.080992
v 47.866596 -14.000000 -10.465338
v 46.938608 -14.000000 -10.645808
v 45.901214 -14.000000 -10.628998
v 44.877052 -14.000000 -10.463640
v 40.599979 -14.000000 -9.570295
v 42.951226 -14.000000 1.686776
v 47.105438 -14.000000 0.819092
v 48.171632 -14.000000 0.555819
v 50.683393 -23.000000 -1.234473
v 50.036754 -23.000000 -0.439489
v 49.202906 -23.000000 0.156612
v 48.171632 -23.000000 0.555819
v 47.105438 -23.000000 0.819092
v 42.951226 -23.000000 1.686776
v 40.599979 -23.000000 -9.570295
v 44.877052 -23.000000 -10.463640
v 45.901214 -23.000000 -10.628998
v 46.938608 -23.000000 -10.645808
v 47.866596 -23.000000 -10.465338
v 48.723442 -23.000000 -10.080992
v 49.634552 -23.000000 -9.310701
v 50.344405 -23.000000 -8.343997
v 50.861541 -23.000000 -7.218490
v 51.190352 -23.000000 -6.020396
v 51.393947 -23.000000 -4.657053
v 51.377507 -23.000000 -3.282719
v 51.141328 -23.000000 -2.219450
vt -0.000000 0.600000 0.000000
vt -0.000000 -0.300000 0.000000
vt 0.070569 0.600000 0.000000
vt 0.070664 -0.300000 0.000000
vt 0.126555 0.600000 0.000000
vt 0.126555 -0.300000 0.000000
vt -0.000000 -0.300000 0.000000
vt 0.105249 -0.300000 0.000000
vt -0.000000 0.600000 0.000000
vt 0.105249 0.600000 0.000000
vt -0.000000 -0.300000 0.000000
vt 0.056833 -0.300000 0.000000
vt -0.000000 0.600000 0.000000
vt 0.056833 0.600000 0.000000
vt 0.140850 -0.300000 0.000000
vt 0.140850 0.600000 0.000000
vt -0.173363 -0.300000 0.000000
vt -0.000000 -0.300000 0.000000
vt -0.173363 0.600000 0.000000
vt -0.000000 0.600000 0.000000
vt -0.761699 -0.300000 0.000000
vt -0.000000 -0.300000 0.000000
vt -0.761699 0.600000 0.000000
vt -0.000000 0.600000 0.000000
vt -0.104332 -0.300000 0.000000
vt -0.000000 -0.300000 0.000000
vt -0.104332 0.600000 0.000000
vt -0.000000 0.600000 0.000000
vt -0.000000 -0.300000 0.000000
vt 0.119127 -0.300000 0.000000
vt -0.000000 0.600000 0.000000
vt 0.119127 0.600000 0.000000
vt 0.211929 -0.300000 0.000000
vt 0.211929 0.600000 0.000000
vt -0.000000 -0.300000 0.000000
vt 0.088434 -0.300000 0.000000
vt -0.000000 0.600000 0.000000
vt 0.088434 0.600000 0.000000
vt 0.206095 -0.300000 0.000000
vt 0.206095 0.600000 0.000000
vt -0.000000 -0.300000 0.000000
vt 0.129424 -0.300000 0.000000
vt -0.000000 0.600000 0.000000
vt 0.129424 0.600000 0.000000
vt -0.000000 -0.300000 0.000000
vt 0.062159 -0.300000 0.000000
vt -0.000000 0.600000 0.000000
vt 0.062159 0.600000 0.000000
vt 0.120329 -0.300000 0.000000
vt 0.120329 0.600000 0.000000
vt -0.000000 -0.300000 0.000000
vt 0.114718 -0.300000 0.000000
vt -0.000000 0.600000 0.000000
vt 0.114718 0.600000 0.000000
vt 0.190928 -0.300000 0.000000
vt 0.190928 0.600000 0.000000
vt -0.038437 -0.292143 0.000000
vt -0.134474 -0.313990 0.000000
vt -0.008696 -0.486460 0.000000
vt -0.236602 -0.335321 0.000000
vt -0.424118 -0.573229 0.000000
vt -0.392336 0.410287 0.000000
vt -0.659242 0.552478 0.000000
vt -0.231535 0.641813 0.000000
vt -0.222635 0.445732 0.000000
vt -0.154056 0.458229 0.000000
vt -0.129119 0.658348 0.000000
vt -0.082940 0.463691 0.000000
vt -0.025380 0.660029 0.000000
vt 0.018605 0.436016 0.000000
vt 0.067419 0.641983 0.000000
vt 0.153104 0.603548 0.000000
vt 0.065562 0.393565 0.000000
vt 0.244215 0.526519 0.000000
vt 0.100810 0.339791 0.000000
vt 0.315200 0.429848 0.000000
vt 0.140813 0.241301 0.000000
vt 0.366914 0.317298 0.000000
vt 0.166910 0.138428 0.000000
vt 0.399795 0.197488 0.000000
vt 0.183734 0.036685 0.000000
vt 0.420154 0.061154 0.000000
vt 0.418510 -0.076279 0.000000
vt 0.185734 -0.066799 0.000000
vt 0.394892 -0.182606 0.000000
vt 0.349099 -0.281104 0.000000
vt 0.144007 -0.189310 0.000000
vt 0.284435 -0.360602 0.000000
vt 0.102264 -0.233197 0.000000
vt 0.201050 -0.420212 0.000000
vt 0.049874 -0.264266 0.000000
vt 0.097923 -0.460133 0.000000
vt 0.134474 -0.313990 0.000000
vt 0.008696 -0.486460 0.000000
vt 0.236602 -0.335321 0.000000
vt 0.424118 -0.573229 0.000000
vt 0.392336 0.410287 0.000000
vt 0.659242 0.552478 0.000000
vt 0.231535 0.641813 0.000000
vt 0.038437 -0.292143 0.000000
vt -0.097923 -0.460133 0.000000
vt -0.049874 -0.264266 0.000000
vt -0.201050 -0.420212 0.000000
vt -0.102264 -0.233197 0.000000
vt -0.284435 -0.360602 0.000000
vt -0.144007 -0.189310 0.000000
vt -0.349099 -0.281104 0.000000
vt -0.185734 -0.066799 0.000000
vt -0.394892 -0.182606 0.000000
vt -0.418510 -0.076279 0.000000
vt -0.183734 0.036685 0.000000
vt -0.420154 0.061154 0.000000
vt -0.399795 0.197488 0.000000
vt -0.166910 0.138428 0.000000
vt -0.366914 0.317298 0.000000
vt -0.140813 0.241301 0.000000
vt -0.315200 0.429848 0.000000
vt -0.100810 0.339791 0.000000
vt -0.244215 0.526519 0.000000
vt -0.065624 0.393488 0.000000
vt -0.153104 0.603548 0.000000
vt -0.018605 0.436016 0.000000
vt -0.067419 0.641983 0.000000
vt 0.025380 0.660029 0.000000
vt 0.082940 0.463691 0.000000
vt 0.129119 0.658348 0.000000
vt 0.154056 0.458229 0.000000
vt 0.222635 0.445732 0.000000
vt 0.000000 -0.300000 0.000000
vt 0.110950 -0.300000 0.000000
vt 0.000000 0.600000 0.000000
vt 0.110950 0.600000 0.000000
vt 0.216267 -0.300000 0.000000
vt 0.216267 0.600000 0.000000
vt 0.000000 -0.300000 0.000000
vt 0.148360 -0.300000 0.000000
vt 0.000000 0.600000 0.000000
vt 0.148360 0.600000 0.000000
vt 0.274411 -0.300000 0.000000
vt 0.274411 0.600000 0.000000
vt 0.000000 -0.300000 0.000000
vt 0.115420 -0.300000 0.000000
vt 0.000000 0.600000 0.000000
vt 0.115420 0.600000 0.000000
vt 0.247277 -0.300000 0.000000
vt 0.247277 0.600000 0.000000
vt 0.000000 -0.300000 0.000000
vt 0.113664 -0.300000 0.000000
vt 0.000000 0.600000 0.000000
vt 0.113664 0.600000 0.000000
vt 0.237583 -0.300000 0.000000
vt 0.237583 0.600000 0.000000
vt 0.000000 -0.300000 0.000000
vt 0.099324 -0.300000 0.000000
vt 0.000000 0.600000 0.000000
vt 0.099324 0.600000 0.000000
vt 0.187210 -0.300000 0.000000
vt 0.187210 0.600000 0.000000
vt 0.000000 -0.300000 0.000000
vt 0.101426 -0.300000 0.000000
vt 0.000000 0.600000 0.000000
vt 0.101426 0.600000 0.000000
vt 0.203149 -0.300000 0.000000
vt 0.203149 0.600000 0.000000
vt 0.000000 -0.300000 0.000000
vt 0.093534 -0.300000 0.000000
vt 0.000000 0.600000 0.000000
vt 0.093534 0.600000 0.000000
vt 0.219954 -0.300000 0.000000
vt 0.219954 0.600000 0.000000
vt 0.000000 -0.300000 0.000000
vt 0.424386 -0.300000 0.000000
vt 0.000000 0.600000 0.000000
vt 0.424386 0.600000 0.000000
vt -0.000000 -0.300000 0.000000
vt 1.150000 -0.300000 0.000000
vt 0.000000 0.600000 0.000000
vt 1.150000 0.600000 0.000000
vt 0.000000 -0.300000 0.000000
vt 0.436937 -0.300000 0.000000
vt 0.000000 0.600000 0.000000
vt 0.436937 0.600000 0.000000
vt 0.000000 -0.300000 0.000000
vt 0.115464 -0.300000 0.000000
vt 0.000000 0.600000 0.000000
vt 0.115464 0.600000 0.000000
vt 0.206964 -0.300000 0.000000
vt 0.206964 0.600000 0.000000
vn -0.050537 0.000000 0.086290
vn -0.050537 0.000000 0.086290
vn -0.077894 0.000000 0.062710
vn -0.077917 0.000000 0.062682
vn -0.087684 0.000000 0.048079
vn -0.087684 0.000000 0.048079
vn -0.003906 0.000000 0.099924
vn -0.003906 0.000000 0.099924
vn 0.020446 -0.000000 0.097888
vn 0.014670 -0.000000 0.098918
vn 0.020446 -0.000000 0.097888
vn 0.014670 -0.000000 0.098918
vn -0.004333 0.000000 0.099906
vn -0.004333 0.000000 0.099906
vn 0.020446 -0.000000 0.097888
vn 0.020446 -0.000000 0.097888
vn 0.097888 0.000000 -0.020446
vn 0.097888 0.000000 -0.020446
vn 0.097888 0.000000 -0.020446
vn 0.097888 0.000000 -0.020446
vn -0.020446 0.000000 -0.097888
vn -0.020446 0.000000 -0.097888
vn -0.020446 0.000000 -0.097888
vn -0.020446 0.000000 -0.097888
vn -0.087684 0.000000 0.048079
vn -0.095523 0.000000 0.029585
vn -0.087684 0.000000 0.048079
vn -0.095523 0.000000 0.029585
vn -0.097888 0.000000 0.020446
vn -0.097888 0.000000 0.020446
vn -0.099378 0.000000 0.011138
vn -0.099378 0.000000 0.011138
vn -0.099367 0.000000 -0.011231
vn -0.099367 0.000000 -0.011231
vn -0.099367 0.000000 -0.011230
vn -0.082076 0.000000 -0.057127
vn -0.099367 0.000000 -0.011230
vn -0.082076 0.000000 -0.057127
vn -0.082076 0.000000 -0.057127
vn -0.061573 0.000000 -0.078796
vn -0.082076 0.000000 -0.057127
vn -0.061573 0.000000 -0.078796
vn -0.040728 0.000000 -0.091331
vn -0.040728 0.000000 -0.091331
vn -0.041504 0.000000 -0.090980
vn -0.024522 0.000000 -0.096947
vn -0.041504 0.000000 -0.090980
vn -0.024522 0.000000 -0.096947
vn 0.000000 0.100000 0.000000
vn 0.000000 0.100000 0.000000
vn 0.000000 0.100000 0.000000
vn 0.000000 0.100000 0.000000
vn 0.000000 0.100000 0.000000
vn 0.000000 0.100000 0.000000
vn 0.000000 0.100000 0.000000
vn 0.000000 0.100000 0.000000
vn 0.000000 0.100000 0.000000
vn 0.000000 0.100000 0.000000
vn 0.000000 0.100000 0.000000
vn 0.000000 0.100000 0.000000
vn 0.000000 0.100000 0.000000
vn 0.000000 0.100000 0.000000
vn 0.000000 0.100000 0.000000
vn 0.000000 0.100000 0.000000
vn 0.000000 0.100000 0.000000
vn 0.000000 0.100000 0.000000
vn 0.000000 0.100000 0.000000
vn 0.000000 0.100000 0.000000
vn 0.000000 0.100000 0.000000
vn 0.000000 0.100000 0.000000
vn 0.000000 0.100000 0.000000
vn 0.000000 0.100000 0.000000
vn 0.000000 0.100000 0.000000
vn 0.000000 0.100000 0.000000
vn 0.000000 0.100000 0.000000
vn 0.000000 0.100000 0.000000
vn 0.000000 0.100000 0.000000
vn 0.000000 0.100000 0.000000
vn 0.000000 0.100000 0.000000
vn 0.000000 0.100000 0.000000
vn 0.000000 0.100000 0.000000
vn 0.000000 0.100000 0.000000
vn 0.000000 0.100000 0.000000
vn 0.000000 0.100000 0.000000
vn 0.000000 -0.100000 0.000000
vn 0.000000 -0.100000 0.000000
vn 0.000000 -0.100000 0.000000
vn 0.000000 -0.100000 0.000000
vn 0.000000 -0.100000 0.000000
vn 0.000000 -0.100000 0.000000
vn 0.000000 -0.100000 0.000000
vn 0.000000 -0.100000 0.000000
vn 0.000000 -0.100000 0.000000
vn 0.000000 -0.100000 0.000000
vn 0.000000 -0.100000 0.000000
vn 0.000000 -0.100000 0.000000
vn 0.000000 -0.100000 0.000000
vn 0.000000 -0.100000 0.000000
vn 0.000000 -0.100000 0.000000
vn 0.000000 -0.100000 0.000000
vn 0.000000 -0.100000 0.000000
vn 0.000000 -0.100000 0.000000
vn 0.000000 -0.100000 0.000000
vn 0.000000 -0.100000 0.000000
vn 0.000000 -0.100000 0.000000
vn 0.000000 -0.100000 0.000000
vn 0.000000 -0.100000 0.000000
vn 0.000000 -0.100000 0.000000
vn 0.000000 -0.100000 0.000000
vn 0.000000 -0.100000 0.000000
vn 0.000000 -0.100000 0.000000
vn 0.000000 -0.100000 0.000000
vn 0.000000 -0.100000 0.000000
vn 0.000000 -0.100000 0.000000
vn 0.000000 -0.100000 0.000000
vn 0.000000 -0.100000 0.000000
vn 0.000000 -0.100000 0.000000
vn 0.000000 -0.100000 0.000000
vn 0.000000 -0.100000 0.000000
vn 0.000000 -0.100000 0.000000
vn 0.085093 -0.000000 0.052528
vn 0.094890 -0.000000 0.031559
vn 0.085093 -0.000000 0.052528
vn 0.094890 -0.000000 0.031559
vn 0.099241 -0.000000 0.012299
vn 0.099241 -0.000000 0.012299
vn 0.099241 -0.000000 0.012298
vn 0.099670 0.000000 -0.008113
vn 0.099241 -0.000000 0.012298
vn 0.099670 0.000000 -0.008113
vn 0.097888 0.000000 -0.020446
vn 0.097888 0.000000 -0.020446
vn 0.094330 0.000000 -0.033193
vn 0.094330 0.000000 -0.033193
vn 0.085935 0.000000 -0.051138
vn 0.085935 0.000000 -0.051138
vn 0.085925 0.000000 -0.051156
vn 0.073802 0.000000 -0.067478
vn 0.085925 0.000000 -0.051156
vn 0.073802 0.000000 -0.067478
vn 0.053505 0.000000 -0.084482
vn 0.053505 0.000000 -0.084482
vn 0.053654 0.000000 -0.084387
vn 0.028830 0.000000 -0.095754
vn 0.053654 0.000000 -0.084387
vn 0.028830 0.000000 -0.095754
vn 0.010416 0.000000 -0.099456
vn 0.010416 0.000000 -0.099456
vn 0.047272 -0.000000 0.088121
vn 0.068447 -0.000000 0.072904
vn 0.047272 -0.000000 0.088121
vn 0.068447 -0.000000 0.072904
vn 0.085093 -0.000000 0.052528
vn 0.085093 -0.000000 0.052528
vn 0.020446 -0.000000 0.097888
vn 0.028334 -0.000000 0.095902
vn 0.020446 -0.000000 0.097888
vn 0.028334 -0.000000 0.095902
vn 0.047036 -0.000000 0.088247
vn 0.047036 -0.000000 0.088247
vn 0.020446 -0.000000 0.097888
vn 0.020446 -0.000000 0.097888
vn -0.097888 0.000000 0.020446
vn -0.097888 0.000000 0.020446
vn -0.097888 0.000000 0.020446
vn -0.097888 0.000000 0.020446
vn -0.020446 0.000000 -0.097888
vn -0.020446 0.000000 -0.097888
vn -0.020446 0.000000 -0.097888
vn -0.020446 0.000000 -0.097888
vn 0.010029 0.000000 -0.099496
vn -0.010441 0.000000 -0.099453
vn 0.010029 0.000000 -0.099496
vn -0.010441 0.000000 -0.099453
usemtl ABS_(White)
f 6/1/1 1/2/2 5/3/3
f 5/3/3 1/2/2 2/4/4
f 5/3/3 2/4/4 4/5/5
f 4/5/5 2/4/4 3/6/6
f 7/7/7 1/8/2 8/9/8
f 8/9/8 1/8/2 6/10/1
f 9/11/9 10/12/10 12/13/11
f 12/13/11 10/12/10 11/14/12
f 11/14/12 10/12/10 7/15/13
f 11/14/12 7/15/13 8/16/14
f 13/17/15 9/18/9 14/19/16
f 14/19/16 9/18/9 12/20/11
f 15/21/17 13/22/18 16/23/19
f 16/23/19 13/22/18 14/24/20
f 17/25/21 15/26/22 18/27/23
f 18/27/23 15/26/22 16/28/24
f 3/29/25 19/30/26 4/31/27
f 4/31/27 19/30/26 22/32/28
f 22/32/28 19/30/26 20/33/29
f 22/32/28 20/33/29 21/34/30
f 20/35/29 23/36/31 21/37/30
f 21/37/30 23/36/31 26/38/32
f 26/38/32 23/36/31 24/39/33
f 26/38/32 24/39/33 25/40/34
f 24/41/35 27/42/36 25/43/37
f 25/43/37 27/42/36 28/44/38
f 27/45/39 29/46/40 28/47/41
f 28/47/41 29/46/40 32/48/42
f 32/48/42 29/46/40 30/49/43
f 32/48/42 30/49/43 31/50/44
f 30/51/45 33/52/46 31/53/47
f 31/53/47 33/52/46 34/54/48
f 34/54/48 33/52/46 17/55/21
f 34/54/48 17/55/21 18/56/23
f 34/57/49 18/58/50 52/59/51
f 52/59/51 18/58/50 16/60/52
f 52/59/51 16/60/52 51/61/53
f 51/61/53 16/60/52 14/62/54
f 51/61/53 14/62/54 50/63/55
f 50/63/55 14/62/54 49/64/56
f 49/64/56 14/62/54 12/65/57
f 49/64/56 12/65/57 11/66/58
f 49/64/56 11/66/58 48/67/59
f 48/67/59 11/66/58 8/68/60
f 48/67/59 8/68/60 47/69/61
f 47/69/61 8/68/60 6/70/62
f 47/69/61 6/70/62 46/71/63
f 46/71/63 6/70/62 45/72/64
f 45/72/64 6/70/62 5/73/65
f 45/72/64 5/73/65 44/74/66
f 44/74/66 5/73/65 4/75/67
f 44/74/66 4/75/67 43/76/68
f 43/76/68 4/75/67 22/77/69
f 43/76/68 22/77/69 42/78/70
f 42/78/70 22/77/69 21/79/71
f 42/78/70 21/79/71 41/80/72
f 41/80/72 21/79/71 26/81/73
f 41/80/72 26/81/73 40/82/74
f 40/82/74 26/81/73 39/83/75
f 39/83/75 26/81/73 25/84/76
f 39/83/75 25/84/76 38/85/77
f 38/85/77 25/84/76 37/86/78
f 37/86/78 25/84/76 28/87/79
f 37/86/78 28/87/79 36/88/80
f 36/88/80 28/87/79 32/89/81
f 36/88/80 32/89/81 35/90/82
f 35/90/82 32/89/81 31/91/83
f 35/90/82 31/91/83 53/92/84
f 53/92/84 31/91/83 34/57/49
f 53/92/84 34/57/49 52/59/51
f 17/93/85 58/94/86 15/95/87
f 15/95/87 58/94/86 59/96/88
f 15/95/87 59/96/88 13/97/89
f 13/97/89 59/96/88 60/98/90
f 13/97/89 60/98/90 61/99/91
f 17/93/85 33/100/92 58/94/86
f 58/94/86 33/100/92 57/101/93
f 57/101/93 33/100/92 30/102/94
f 57/101/93 30/102/94 56/103/95
f 56/103/95 30/102/94 29/104/96
f 56/103/95 29/104/96 55/105/97
f 55/105/97 29/104/96 27/106/98
f 55/105/97 27/106/98 54/107/99
f 54/107/99 27/106/98 24/108/100
f 54/107/99 24/108/100 72/109/101
f 72/109/101 24/108/100 71/110/102
f 71/110/102 24/108/100 23/111/103
f 71/110/102 23/111/103 70/112/104
f 70/112/104 23/111/103 69/113/105
f 69/113/105 23/111/103 20/114/106
f 69/113/105 20/114/106 68/115/107
f 68/115/107 20/114/106 19/116/108
f 68/115/107 19/116/108 67/117/109
f 67/117/109 19/116/108 3/118/110
f 67/117/109 3/118/110 66/119/111
f 66/119/111 3/118/110 2/120/112
f 66/119/111 2/120/112 65/121/113
f 65/121/113 2/120/112 1/122/114
f 65/121/113 1/122/114 64/123/115
f 64/123/115 1/122/114 63/124/116
f 63/124/116 1/122/114 7/125/117
f 63/124/116 7/125/117 62/126/118
f 62/126/118 7/125/117 10/127/119
f 62/126/118 10/127/119 61/99/91
f 61/99/91 10/127/119 9/128/120
f 61/99/91 9/128/120 13/97/89
f 54/129/121 72/130/122 37/131/123
f 37/131/123 72/130/122 38/132/124
f 38/132/124 72/130/122 71/133/125
f 38/132/124 71/133/125 39/134/126
f 71/135/127 70/136/128 39/137/129
f 39/137/129 70/136/128 40/138/130
f 40/138/130 70/136/128 69/139/131
f 40/138/130 69/139/131 41/140/132
f 69/141/131 68/142/133 41/143/132
f 41/143/132 68/142/133 42/144/134
f 42/144/134 68/142/133 67/145/135
f 42/144/134 67/145/135 43/146/136
f 67/147/137 66/148/138 43/149/139
f 43/149/139 66/148/138 44/150/140
f 44/150/140 66/148/138 65/151/141
f 44/150/140 65/151/141 45/152/142
f 65/153/143 64/154/144 45/155/145
f 45/155/145 64/154/144 46/156/146
f 46/156/146 64/154/144 63/157/147
f 46/156/146 63/157/147 47/158/148
f 56/159/149 55/160/150 35/161/151
f 35/161/151 55/160/150 36/162/152
f 36/162/152 55/160/150 54/163/153
f 36/162/152 54/163/153 37/164/154
f 58/165/155 57/166/156 52/167/157
f 52/167/157 57/166/156 53/168/158
f 53/168/158 57/166/156 56/169/159
f 53/168/158 56/169/159 35/170/160
f 59/171/161 58/172/155 51/173/162
f 51/173/162 58/172/155 52/174/157
f 60/175/163 59/176/164 50/177/165
f 50/177/165 59/176/164 51/178/166
f 61/179/167 60/180/168 49/181/169
f 49/181/169 60/180/168 50/182/170
f 63/183/171 62/184/172 47/185/173
f 47/185/173 62/184/172 48/186/174
f 48/186/174 62/184/172 61/187/167
f 48/186/174 61/187/167 49/188/169
# 72 vertices
# 188 texture params
# 174 normals
# 144 facets

# 1 groups
