# WaveFront *.obj file (generated by Autodesk ATF)

mtllib TC_Toy-Controller v65_Back_Toy-Controller v65.mtl

g Back

v 36.930632 -11.500000 -33.457618
v 37.254688 -11.500000 -35.711479
v 38.200604 -11.500000 -37.782745
v 39.691746 -11.500000 -39.503615
v 41.607312 -11.500000 -40.734674
v 43.792114 -11.500000 -41.376190
v 46.069151 -11.500000 -41.376190
v 48.253952 -11.500000 -40.734674
v 50.169518 -11.500000 -39.503615
v 51.660660 -11.500000 -37.782745
v 52.606576 -11.500000 -35.711479
v 52.930632 -11.500000 -33.457618
v 52.606576 -11.500000 -31.203758
v 51.660660 -11.500000 -29.132492
v 50.169518 -11.500000 -27.411622
v 48.253952 -11.500000 -26.180562
v 46.069151 -11.500000 -25.539047
v 43.792114 -11.500000 -25.539047
v 41.607312 -11.500000 -26.180562
v 39.691746 -11.500000 -27.411622
v 38.200604 -11.500000 -29.132492
v 37.254688 -11.500000 -31.203758
v 36.930632 -11.000000 -33.457618
v 37.254688 -11.000000 -31.203758
v 38.200604 -11.000000 -29.132492
v 39.691746 -11.000000 -27.411622
v 41.607312 -11.000000 -26.180562
v 43.792114 -11.000000 -25.539047
v 46.069151 -11.000000 -25.539047
v 48.253952 -11.000000 -26.180562
v 50.169518 -11.000000 -27.411622
v 51.660660 -11.000000 -29.132492
v 52.606576 -11.000000 -31.203758
v 52.930632 -11.000000 -33.457618
v 52.606576 -11.000000 -35.711479
v 51.660660 -11.000000 -37.782745
v 50.169518 -11.000000 -39.503615
v 48.253952 -11.000000 -40.734674
v 46.069151 -11.000000 -41.376190
v 43.792114 -11.000000 -41.376190
v 41.607312 -11.000000 -40.734674
v 39.691746 -11.000000 -39.503615
v 38.200604 -11.000000 -37.782745
v 37.254688 -11.000000 -35.711479
v 44.409844 -11.000000 -42.503605
v 60.517935 -11.000000 -39.689866
v 60.517935 -11.500000 -39.689866
v 44.409844 -11.500000 -42.503605
v 41.373977 -11.000000 -25.123874
v 39.176596 -11.000000 -25.812844
v 37.232409 -11.000000 -27.047062
v 35.673906 -11.000000 -28.742418
v 34.607299 -11.000000 -30.783376
v 34.105275 -11.000000 -33.030848
v 34.202045 -11.000000 -35.331673
v 34.891015 -11.000000 -37.529053
v 36.125233 -11.000000 -39.473241
v 37.820589 -11.000000 -41.031743
v 39.861547 -11.000000 -42.098351
v 42.109019 -11.000000 -42.600375
v 42.109019 -11.500000 -42.600375
v 39.861547 -11.500000 -42.098351
v 37.820589 -11.500000 -41.031743
v 36.125233 -11.500000 -39.473241
v 34.891015 -11.500000 -37.529053
v 34.202045 -11.500000 -35.331673
v 34.105275 -11.500000 -33.030848
v 34.607299 -11.500000 -30.783376
v 35.673906 -11.500000 -28.742418
v 37.232409 -11.500000 -27.047062
v 39.176596 -11.500000 -25.812844
v 41.373977 -11.500000 -25.123874
v 57.482067 -11.000000 -22.310135
v 57.482067 -11.500000 -22.310135
v 62.715315 -11.000000 -39.000896
v 64.659503 -11.000000 -37.766678
v 66.218005 -11.000000 -36.071322
v 67.284612 -11.000000 -34.030364
v 67.786637 -11.000000 -31.782892
v 67.689867 -11.000000 -29.482067
v 67.000896 -11.000000 -27.284686
v 65.766678 -11.000000 -25.340499
v 64.071323 -11.000000 -23.781996
v 62.030365 -11.000000 -22.715389
v 59.782892 -11.000000 -22.213365
v 59.782892 -11.500000 -22.213365
v 62.030365 -11.500000 -22.715389
v 64.071323 -11.500000 -23.781996
v 65.766678 -11.500000 -25.340499
v 67.000896 -11.500000 -27.284686
v 67.689867 -11.500000 -29.482067
v 67.786637 -11.500000 -31.782892
v 67.284612 -11.500000 -34.030364
v 66.218005 -11.500000 -36.071322
v 64.659503 -11.500000 -37.766678
v 62.715315 -11.500000 -39.000896
vt 0.050000 -2.284795 0.000000
vt -0.000000 -2.284795 0.000000
vt 0.050000 -2.513274 0.000000
vt 0.000000 -2.513274 0.000000
vt 0.050000 2.513274 0.000000
vt 0.000000 2.513274 0.000000
vt 0.050000 2.284795 0.000000
vt -0.000000 2.284795 0.000000
vt 0.050000 2.056315 0.000000
vt -0.000000 2.056315 0.000000
vt 0.050000 1.827836 0.000000
vt 0.000000 1.827836 0.000000
vt 0.050000 1.599356 0.000000
vt -0.000000 1.599356 0.000000
vt 0.050000 1.370877 0.000000
vt -0.000000 1.370877 0.000000
vt 0.050000 1.142397 0.000000
vt -0.000000 1.142397 0.000000
vt 0.050000 0.913918 0.000000
vt -0.000000 0.913918 0.000000
vt 0.050000 0.685438 0.000000
vt 0.000000 0.685438 0.000000
vt 0.050000 0.456959 0.000000
vt -0.000000 0.456959 0.000000
vt 0.050000 0.228479 0.000000
vt -0.000000 0.228479 0.000000
vt 0.050000 0.000000 0.000000
vt 0.000000 0.000000 0.000000
vt 0.050000 -0.228479 0.000000
vt -0.000000 -0.228479 0.000000
vt 0.050000 -0.456959 0.000000
vt -0.000000 -0.456959 0.000000
vt 0.050000 -0.685438 0.000000
vt 0.000000 -0.685438 0.000000
vt 0.050000 -0.913918 0.000000
vt -0.000000 -0.913918 0.000000
vt 0.050000 -1.142397 0.000000
vt -0.000000 -1.142397 0.000000
vt 0.050000 -1.370877 0.000000
vt -0.000000 -1.370877 0.000000
vt 0.050000 -1.599356 0.000000
vt -0.000000 -1.599356 0.000000
vt 0.050000 -1.827836 0.000000
vt -0.000000 -1.827836 0.000000
vt 0.050000 -2.056315 0.000000
vt -0.000000 -2.056315 0.000000
vt 0.000000 0.000000 0.000000
vt 1.635199 0.000000 0.000000
vt 0.000000 0.050000 0.000000
vt 1.635199 0.050000 0.000000
vt -0.050000 0.000000 0.000000
vt -0.000000 0.000000 0.000000
vt -0.050000 0.230945 0.000000
vt -0.000000 0.230945 0.000000
vt -0.050000 0.461890 0.000000
vt -0.000000 0.461890 0.000000
vt -0.050000 0.692835 0.000000
vt -0.000000 0.692835 0.000000
vt -0.050000 0.923780 0.000000
vt -0.000000 0.923780 0.000000
vt -0.050000 1.154724 0.000000
vt -0.000000 1.154724 0.000000
vt -0.050000 1.385669 0.000000
vt 0.000000 1.385669 0.000000
vt -0.050000 1.616614 0.000000
vt 0.000000 1.616614 0.000000
vt -0.050000 1.847559 0.000000
vt -0.000000 1.847559 0.000000
vt -0.050000 2.078504 0.000000
vt -0.000000 2.078504 0.000000
vt -0.050000 2.309449 0.000000
vt 0.000000 2.309449 0.000000
vt -0.050000 2.540394 0.000000
vt 0.000000 2.540394 0.000000
vt -0.050000 2.771339 0.000000
vt -0.000000 2.771339 0.000000
vt -0.000000 0.000000 0.000000
vt 1.635199 -0.000000 0.000000
vt -0.000000 0.050000 0.000000
vt 1.635199 0.050000 0.000000
vt -0.050000 0.000000 0.000000
vt -0.000000 0.000000 0.000000
vt -0.050000 0.230945 0.000000
vt -0.000000 0.230945 0.000000
vt -0.050000 0.461890 0.000000
vt -0.000000 0.461890 0.000000
vt -0.050000 0.692835 0.000000
vt -0.000000 0.692835 0.000000
vt -0.050000 0.923780 0.000000
vt -0.000000 0.923780 0.000000
vt -0.050000 1.154724 0.000000
vt -0.000000 1.154724 0.000000
vt -0.050000 1.385669 0.000000
vt -0.000000 1.385669 0.000000
vt -0.050000 1.616614 0.000000
vt -0.000000 1.616614 0.000000
vt -0.050000 1.847559 0.000000
vt -0.000000 1.847559 0.000000
vt -0.050000 2.078504 0.000000
vt -0.000000 2.078504 0.000000
vt -0.050000 2.309449 0.000000
vt -0.000000 2.309449 0.000000
vt -0.050000 2.540394 0.000000
vt -0.000000 2.540394 0.000000
vt -0.050000 2.771339 0.000000
vt -0.000000 2.771339 0.000000
vt -1.369127 0.120311 0.000000
vt -1.684068 -0.062398 0.000000
vt -1.401532 -0.105075 0.000000
vt -1.674391 -0.292480 0.000000
vt -1.369127 -0.330461 0.000000
vt -1.605494 -0.512218 0.000000
vt -1.274535 -0.537587 0.000000
vt -1.482072 -0.706637 0.000000
vt -1.125421 -0.709674 0.000000
vt -1.312537 -0.862487 0.000000
vt -0.933864 -0.832780 0.000000
vt -1.108441 -0.969148 0.000000
vt -0.883694 -1.019351 0.000000
vt -1.274535 0.327438 0.000000
vt -1.527205 0.366445 0.000000
vt -1.633866 0.162349 0.000000
vt -1.371355 0.535981 0.000000
vt -1.125421 0.499525 0.000000
vt -1.176936 0.659403 0.000000
vt -0.933864 0.622631 0.000000
vt -0.957198 0.728300 0.000000
vt -0.715384 0.686782 0.000000
vt -0.487680 0.686782 0.000000
vt 0.653611 1.009674 0.000000
vt -0.269200 0.622631 0.000000
vt -0.077644 0.499525 0.000000
vt 0.071470 0.327438 0.000000
vt 1.108441 0.969148 0.000000
vt 0.883694 1.019351 0.000000
vt 0.166062 0.120311 0.000000
vt 1.605494 0.512218 0.000000
vt 1.482072 0.706637 0.000000
vt 1.312537 0.862487 0.000000
vt 0.198468 -0.105075 0.000000
vt 1.684068 0.062398 0.000000
vt 1.674391 0.292480 0.000000
vt 0.166062 -0.330461 0.000000
vt 1.371355 -0.535981 0.000000
vt 1.527205 -0.366445 0.000000
vt 1.633866 -0.162349 0.000000
vt 0.071470 -0.537587 0.000000
vt 0.957198 -0.728300 0.000000
vt 1.176936 -0.659403 0.000000
vt -0.077644 -0.709674 0.000000
vt -0.269200 -0.832780 0.000000
vt -0.653611 -1.009674 0.000000
vt -0.487680 -0.896932 0.000000
vt -0.715384 -0.896932 0.000000
vt 1.369127 -0.330461 0.000000
vt 1.674391 -0.292480 0.000000
vt 1.401532 -0.105075 0.000000
vt 1.684068 -0.062398 0.000000
vt 1.369127 0.120311 0.000000
vt 1.633866 0.162349 0.000000
vt 1.527205 0.366445 0.000000
vt 1.605494 -0.512218 0.000000
vt 1.274535 -0.537587 0.000000
vt 1.482072 -0.706637 0.000000
vt 1.125421 -0.709674 0.000000
vt 1.312537 -0.862487 0.000000
vt 0.933864 -0.832780 0.000000
vt 1.108441 -0.969148 0.000000
vt 0.883694 -1.019351 0.000000
vt 0.715384 -0.896932 0.000000
vt 0.653611 -1.009674 0.000000
vt 0.487680 -0.896932 0.000000
vt 0.269200 -0.832780 0.000000
vt -0.957198 -0.728300 0.000000
vt 0.077644 -0.709674 0.000000
vt -0.071470 -0.537587 0.000000
vt -0.166062 -0.330461 0.000000
vt -1.176936 -0.659403 0.000000
vt -1.371355 -0.535981 0.000000
vt -0.198468 -0.105075 0.000000
vt -1.527205 -0.366445 0.000000
vt -1.633866 -0.162349 0.000000
vt -1.684068 0.062398 0.000000
vt -0.166062 0.120311 0.000000
vt -1.674391 0.292480 0.000000
vt -1.605494 0.512218 0.000000
vt -0.071470 0.327438 0.000000
vt -1.482072 0.706637 0.000000
vt -1.312537 0.862487 0.000000
vt -1.108441 0.969148 0.000000
vt -0.653611 1.009674 0.000000
vt -0.883694 1.019351 0.000000
vt 0.077644 0.499525 0.000000
vt 0.269200 0.622631 0.000000
vt 0.487680 0.686782 0.000000
vt 0.957198 0.728300 0.000000
vt 0.715384 0.686782 0.000000
vt 0.933864 0.622631 0.000000
vt 1.176936 0.659403 0.000000
vt 1.125421 0.499525 0.000000
vt 1.371355 0.535981 0.000000
vt 1.274535 0.327438 0.000000
vn 0.095949 0.000000 0.028173
vn 0.095949 0.000000 0.028173
vn 0.100000 0.000000 0.000000
vn 0.100000 0.000000 0.000000
vn 0.095949 0.000000 -0.028173
vn 0.095949 0.000000 -0.028173
vn 0.084125 0.000000 -0.054064
vn 0.084125 0.000000 -0.054064
vn 0.065486 0.000000 -0.075575
vn 0.065486 0.000000 -0.075575
vn 0.041542 0.000000 -0.090963
vn 0.041542 0.000000 -0.090963
vn 0.014231 0.000000 -0.098982
vn 0.014231 0.000000 -0.098982
vn -0.014231 0.000000 -0.098982
vn -0.014231 0.000000 -0.098982
vn -0.041542 0.000000 -0.090963
vn -0.041542 0.000000 -0.090963
vn -0.065486 0.000000 -0.075575
vn -0.065486 0.000000 -0.075575
vn -0.084125 0.000000 -0.054064
vn -0.084125 0.000000 -0.054064
vn -0.095949 0.000000 -0.028173
vn -0.095949 0.000000 -0.028173
vn -0.100000 0.000000 0.000000
vn -0.100000 0.000000 0.000000
vn -0.095949 0.000000 0.028173
vn -0.095949 0.000000 0.028173
vn -0.084125 0.000000 0.054064
vn -0.084125 0.000000 0.054064
vn -0.065486 0.000000 0.075575
vn -0.065486 0.000000 0.075575
vn -0.041542 0.000000 0.090963
vn -0.041542 0.000000 0.090963
vn -0.014231 0.000000 0.098982
vn -0.014231 0.000000 0.098982
vn 0.014231 0.000000 0.098982
vn 0.014231 0.000000 0.098982
vn 0.041542 0.000000 0.090963
vn 0.041542 0.000000 0.090963
vn 0.065486 0.000000 0.075575
vn 0.065486 0.000000 0.075575
vn 0.084125 0.000000 0.054064
vn 0.084125 0.000000 0.054064
vn 0.017207 0.000000 -0.098508
vn 0.017207 0.000000 -0.098508
vn 0.017207 0.000000 -0.098508
vn 0.017207 0.000000 -0.098508
vn -0.017207 0.000000 0.098508
vn -0.017207 0.000000 0.098508
vn -0.042117 0.000000 0.090698
vn -0.042117 0.000000 0.090698
vn -0.064156 0.000000 0.076707
vn -0.064156 0.000000 0.076707
vn -0.081823 0.000000 0.057489
vn -0.081823 0.000000 0.057489
vn -0.093914 0.000000 0.034352
vn -0.093914 0.000000 0.034352
vn -0.099605 0.000000 0.008875
vn -0.099605 0.000000 0.008875
vn -0.098508 0.000000 -0.017207
vn -0.098508 0.000000 -0.017207
vn -0.090698 0.000000 -0.042117
vn -0.090698 0.000000 -0.042117
vn -0.076707 0.000000 -0.064156
vn -0.076707 0.000000 -0.064156
vn -0.057489 0.000000 -0.081823
vn -0.057489 0.000000 -0.081823
vn -0.034352 0.000000 -0.093914
vn -0.034352 0.000000 -0.093914
vn -0.008875 0.000000 -0.099605
vn -0.008875 0.000000 -0.099605
vn -0.017207 0.000000 0.098508
vn -0.017207 0.000000 0.098508
vn 0.042117 0.000000 -0.090698
vn 0.042117 0.000000 -0.090698
vn 0.064156 0.000000 -0.076707
vn 0.064156 0.000000 -0.076707
vn 0.081823 0.000000 -0.057489
vn 0.081823 0.000000 -0.057489
vn 0.093914 0.000000 -0.034352
vn 0.093914 0.000000 -0.034352
vn 0.099605 0.000000 -0.008875
vn 0.099605 0.000000 -0.008875
vn 0.098508 0.000000 0.017207
vn 0.098508 0.000000 0.017207
vn 0.090698 0.000000 0.042117
vn 0.090698 0.000000 0.042117
vn 0.076707 0.000000 0.064156
vn 0.076707 0.000000 0.064156
vn 0.057489 0.000000 0.081823
vn 0.057489 0.000000 0.081823
vn 0.034352 0.000000 0.093914
vn 0.034352 0.000000 0.093914
vn 0.008875 0.000000 0.099605
vn 0.008875 0.000000 0.099605
vn 0.000000 -0.100000 0.000000
vn 0.000000 -0.100000 0.000000
vn 0.000000 -0.100000 0.000000
vn 0.000000 -0.100000 0.000000
vn 0.000000 -0.100000 0.000000
vn 0.000000 -0.100000 0.000000
vn 0.000000 -0.100000 0.000000
vn 0.000000 -0.100000 0.000000
vn 0.000000 -0.100000 0.000000
vn 0.000000 -0.100000 0.000000
vn 0.000000 -0.100000 0.000000
vn 0.000000 -0.100000 0.000000
vn 0.000000 -0.100000 0.000000
vn 0.000000 -0.100000 0.000000
vn 0.000000 -0.100000 0.000000
vn 0.000000 -0.100000 0.000000
vn 0.000000 -0.100000 0.000000
vn 0.000000 -0.100000 0.000000
vn 0.000000 -0.100000 0.000000
vn 0.000000 -0.100000 0.000000
vn 0.000000 -0.100000 0.000000
vn 0.000000 -0.100000 0.000000
vn 0.000000 -0.100000 0.000000
vn 0.000000 -0.100000 0.000000
vn 0.000000 -0.100000 0.000000
vn 0.000000 -0.100000 0.000000
vn 0.000000 -0.100000 0.000000
vn 0.000000 -0.100000 0.000000
vn 0.000000 -0.100000 0.000000
vn 0.000000 -0.100000 0.000000
vn 0.000000 -0.100000 0.000000
vn 0.000000 -0.100000 0.000000
vn 0.000000 -0.100000 0.000000
vn 0.000000 -0.100000 0.000000
vn 0.000000 -0.100000 0.000000
vn 0.000000 -0.100000 0.000000
vn 0.000000 -0.100000 0.000000
vn 0.000000 -0.100000 0.000000
vn 0.000000 -0.100000 0.000000
vn 0.000000 -0.100000 0.000000
vn 0.000000 -0.100000 0.000000
vn 0.000000 -0.100000 0.000000
vn 0.000000 -0.100000 0.000000
vn 0.000000 -0.100000 0.000000
vn 0.000000 -0.100000 0.000000
vn 0.000000 -0.100000 0.000000
vn 0.000000 -0.100000 0.000000
vn 0.000000 -0.100000 0.000000
vn -0.000000 0.100000 -0.000000
vn -0.000000 0.100000 -0.000000
vn -0.000000 0.100000 -0.000000
vn -0.000000 0.100000 -0.000000
vn -0.000000 0.100000 -0.000000
vn -0.000000 0.100000 -0.000000
vn -0.000000 0.100000 -0.000000
vn -0.000000 0.100000 -0.000000
vn -0.000000 0.100000 -0.000000
vn -0.000000 0.100000 -0.000000
vn -0.000000 0.100000 -0.000000
vn -0.000000 0.100000 -0.000000
vn -0.000000 0.100000 -0.000000
vn -0.000000 0.100000 -0.000000
vn -0.000000 0.100000 -0.000000
vn -0.000000 0.100000 -0.000000
vn -0.000000 0.100000 -0.000000
vn -0.000000 0.100000 -0.000000
vn -0.000000 0.100000 -0.000000
vn -0.000000 0.100000 -0.000000
vn -0.000000 0.100000 -0.000000
vn -0.000000 0.100000 -0.000000
vn -0.000000 0.100000 -0.000000
vn -0.000000 0.100000 -0.000000
vn -0.000000 0.100000 -0.000000
vn -0.000000 0.100000 -0.000000
vn -0.000000 0.100000 -0.000000
vn -0.000000 0.100000 -0.000000
vn -0.000000 0.100000 -0.000000
vn -0.000000 0.100000 -0.000000
vn -0.000000 0.100000 -0.000000
vn -0.000000 0.100000 -0.000000
vn -0.000000 0.100000 -0.000000
vn -0.000000 0.100000 -0.000000
vn -0.000000 0.100000 -0.000000
vn -0.000000 0.100000 -0.000000
vn -0.000000 0.100000 -0.000000
vn -0.000000 0.100000 -0.000000
vn -0.000000 0.100000 -0.000000
vn -0.000000 0.100000 -0.000000
vn -0.000000 0.100000 -0.000000
vn -0.000000 0.100000 -0.000000
vn -0.000000 0.100000 -0.000000
vn -0.000000 0.100000 -0.000000
vn -0.000000 0.100000 -0.000000
vn -0.000000 0.100000 -0.000000
vn -0.000000 0.100000 -0.000000
vn -0.000000 0.100000 -0.000000
usemtl Paint_-_Enamel_Glossy_(Yellow)
f 2/1/1 44/2/2 1/3/3
f 1/3/3 44/2/2 23/4/4
f 1/5/3 23/6/4 22/7/5
f 22/7/5 23/6/4 24/8/6
f 22/7/5 24/8/6 21/9/7
f 21/9/7 24/8/6 25/10/8
f 21/9/7 25/10/8 20/11/9
f 20/11/9 25/10/8 26/12/10
f 20/11/9 26/12/10 19/13/11
f 19/13/11 26/12/10 27/14/12
f 19/13/11 27/14/12 18/15/13
f 18/15/13 27/14/12 28/16/14
f 18/15/13 28/16/14 17/17/15
f 17/17/15 28/16/14 29/18/16
f 17/17/15 29/18/16 16/19/17
f 16/19/17 29/18/16 30/20/18
f 16/19/17 30/20/18 15/21/19
f 15/21/19 30/20/18 31/22/20
f 15/21/19 31/22/20 14/23/21
f 14/23/21 31/22/20 32/24/22
f 14/23/21 32/24/22 13/25/23
f 13/25/23 32/24/22 33/26/24
f 13/25/23 33/26/24 12/27/25
f 12/27/25 33/26/24 34/28/26
f 12/27/25 34/28/26 11/29/27
f 11/29/27 34/28/26 35/30/28
f 11/29/27 35/30/28 10/31/29
f 10/31/29 35/30/28 36/32/30
f 10/31/29 36/32/30 9/33/31
f 9/33/31 36/32/30 37/34/32
f 9/33/31 37/34/32 8/35/33
f 8/35/33 37/34/32 38/36/34
f 8/35/33 38/36/34 7/37/35
f 7/37/35 38/36/34 39/38/36
f 7/37/35 39/38/36 6/39/37
f 6/39/37 39/38/36 40/40/38
f 6/39/37 40/40/38 5/41/39
f 5/41/39 40/40/38 41/42/40
f 5/41/39 41/42/40 4/43/41
f 4/43/41 41/42/40 42/44/42
f 4/43/41 42/44/42 3/45/43
f 3/45/43 42/44/42 43/46/44
f 3/45/43 43/46/44 2/1/1
f 2/1/1 43/46/44 44/2/2
f 45/47/45 46/48/46 48/49/47
f 48/49/47 46/48/46 47/50/48
f 72/51/49 49/52/50 71/53/51
f 71/53/51 49/52/50 50/54/52
f 71/53/51 50/54/52 70/55/53
f 70/55/53 50/54/52 51/56/54
f 70/55/53 51/56/54 69/57/55
f 69/57/55 51/56/54 52/58/56
f 69/57/55 52/58/56 68/59/57
f 68/59/57 52/58/56 53/60/58
f 68/59/57 53/60/58 67/61/59
f 67/61/59 53/60/58 54/62/60
f 67/61/59 54/62/60 66/63/61
f 66/63/61 54/62/60 55/64/62
f 66/63/61 55/64/62 65/65/63
f 65/65/63 55/64/62 56/66/64
f 65/65/63 56/66/64 64/67/65
f 64/67/65 56/66/64 57/68/66
f 64/67/65 57/68/66 63/69/67
f 63/69/67 57/68/66 58/70/68
f 63/69/67 58/70/68 62/71/69
f 62/71/69 58/70/68 59/72/70
f 62/71/69 59/72/70 61/73/71
f 61/73/71 59/72/70 60/74/72
f 61/73/71 60/74/72 48/75/47
f 48/75/47 60/74/72 45/76/45
f 73/77/73 49/78/50 74/79/74
f 74/79/74 49/78/50 72/80/49
f 47/81/48 46/82/46 96/83/75
f 96/83/75 46/82/46 75/84/76
f 96/83/75 75/84/76 95/85/77
f 95/85/77 75/84/76 76/86/78
f 95/85/77 76/86/78 94/87/79
f 94/87/79 76/86/78 77/88/80
f 94/87/79 77/88/80 93/89/81
f 93/89/81 77/88/80 78/90/82
f 93/89/81 78/90/82 92/91/83
f 92/91/83 78/90/82 79/92/84
f 92/91/83 79/92/84 91/93/85
f 91/93/85 79/92/84 80/94/86
f 91/93/85 80/94/86 90/95/87
f 90/95/87 80/94/86 81/96/88
f 90/95/87 81/96/88 89/97/89
f 89/97/89 81/96/88 82/98/90
f 89/97/89 82/98/90 88/99/91
f 88/99/91 82/98/90 83/100/92
f 88/99/91 83/100/92 87/101/93
f 87/101/93 83/100/92 84/102/94
f 87/101/93 84/102/94 86/103/95
f 86/103/95 84/102/94 85/104/96
f 86/103/95 85/104/96 74/105/74
f 74/105/74 85/104/96 73/106/73
f 22/107/97 67/108/98 1/109/99
f 1/109/99 67/108/98 66/110/100
f 1/109/99 66/110/100 2/111/101
f 2/111/101 66/110/100 65/112/102
f 2/111/101 65/112/102 3/113/103
f 3/113/103 65/112/102 64/114/104
f 3/113/103 64/114/104 4/115/105
f 4/115/105 64/114/104 63/116/106
f 4/115/105 63/116/106 5/117/107
f 5/117/107 63/116/106 62/118/108
f 5/117/107 62/118/108 61/119/109
f 21/120/110 69/121/111 22/107/97
f 22/107/97 69/121/111 68/122/112
f 22/107/97 68/122/112 67/108/98
f 69/121/111 21/120/110 70/123/113
f 70/123/113 21/120/110 20/124/114
f 70/123/113 20/124/114 71/125/115
f 71/125/115 20/124/114 19/126/116
f 71/125/115 19/126/116 72/127/117
f 72/127/117 19/126/116 18/128/118
f 72/127/117 18/128/118 17/129/119
f 72/127/117 17/129/119 74/130/120
f 74/130/120 17/129/119 16/131/121
f 74/130/120 16/131/121 15/132/122
f 15/132/122 14/133/123 74/130/120
f 74/130/120 14/133/123 87/134/124
f 74/130/120 87/134/124 86/135/125
f 13/136/126 90/137/127 14/133/123
f 14/133/123 90/137/127 89/138/128
f 14/133/123 89/138/128 88/139/129
f 12/140/130 92/141/131 13/136/126
f 13/136/126 92/141/131 91/142/132
f 13/136/126 91/142/132 90/137/127
f 11/143/133 95/144/134 12/140/130
f 12/140/130 95/144/134 94/145/135
f 12/140/130 94/145/135 93/146/136
f 10/147/137 47/148/138 11/143/133
f 11/143/133 47/148/138 96/149/139
f 11/143/133 96/149/139 95/144/134
f 10/147/137 9/150/140 47/148/138
f 47/148/138 9/150/140 8/151/141
f 47/148/138 8/151/141 48/152/142
f 48/152/142 8/151/141 7/153/143
f 48/152/142 7/153/143 6/154/144
f 48/152/142 6/154/144 61/119/109
f 61/119/109 6/154/144 5/117/107
f 93/146/136 92/141/131 12/140/130
f 88/139/129 87/134/124 14/133/123
f 44/155/145 55/156/146 23/157/147
f 23/157/147 55/156/146 54/158/148
f 23/157/147 54/158/148 24/159/149
f 24/159/149 54/158/148 53/160/150
f 24/159/149 53/160/150 52/161/151
f 55/156/146 44/155/145 56/162/152
f 56/162/152 44/155/145 43/163/153
f 56/162/152 43/163/153 57/164/154
f 57/164/154 43/163/153 42/165/155
f 57/164/154 42/165/155 58/166/156
f 58/166/156 42/165/155 41/167/157
f 58/166/156 41/167/157 59/168/158
f 59/168/158 41/167/157 60/169/159
f 60/169/159 41/167/157 40/170/160
f 60/169/159 40/170/160 45/171/161
f 45/171/161 40/170/160 39/172/162
f 45/171/161 39/172/162 38/173/163
f 45/171/161 38/173/163 46/174/164
f 46/174/164 38/173/163 37/175/165
f 46/174/164 37/175/165 36/176/166
f 36/176/166 35/177/167 46/174/164
f 46/174/164 35/177/167 75/178/168
f 75/178/168 35/177/167 76/179/169
f 76/179/169 35/177/167 34/180/170
f 76/179/169 34/180/170 77/181/171
f 77/181/171 34/180/170 78/182/172
f 78/182/172 34/180/170 79/183/173
f 79/183/173 34/180/170 33/184/174
f 79/183/173 33/184/174 80/185/175
f 80/185/175 33/184/174 81/186/176
f 81/186/176 33/184/174 32/187/177
f 81/186/176 32/187/177 82/188/178
f 82/188/178 32/187/177 83/189/179
f 83/189/179 32/187/177 84/190/180
f 84/190/180 32/187/177 73/191/181
f 84/190/180 73/191/181 85/192/182
f 32/187/177 31/193/183 73/191/181
f 73/191/181 31/193/183 30/194/184
f 73/191/181 30/194/184 29/195/185
f 73/191/181 29/195/185 49/196/186
f 49/196/186 29/195/185 28/197/187
f 49/196/186 28/197/187 27/198/188
f 49/196/186 27/198/188 50/199/189
f 50/199/189 27/198/188 26/200/190
f 50/199/189 26/200/190 51/201/191
f 51/201/191 26/200/190 25/202/192
f 51/201/191 25/202/192 52/161/151
f 52/161/151 25/202/192 24/159/149
# 96 vertices
# 202 texture params
# 192 normals
# 192 facets

# 1 groups
