# WaveFront *.obj file (generated by Autodesk ATF)

mtllib TC_Toy-Controller v65_Smile6_Toy-Controller v65.mtl

g Smile6

v -20.945320 -17.000000 7.261800
v -20.439064 -17.000000 6.505929
v -19.682395 -17.000000 6.001627
v -18.790599 -17.000000 5.825266
v -17.899065 -17.000000 6.003541
v -17.143638 -17.000000 6.509310
v -16.639207 -17.000000 7.265556
v -16.462458 -17.000000 8.157857
v -16.640643 -17.000000 9.049609
v -17.146522 -17.000000 9.805272
v -17.902953 -17.000000 10.309768
v -18.794726 -17.000000 10.486433
v -19.686354 -17.000000 10.308433
v -20.441983 -17.000000 9.802851
v -20.946682 -17.000000 9.046612
v -21.123626 -17.000000 8.154490
v -21.123627 0.000000 8.155849
v -20.811387 0.000000 9.321142
v -19.958334 0.000000 10.174195
v -18.793042 0.000000 10.486434
v -17.627749 0.000000 10.174195
v -16.774696 0.000000 9.321142
v -16.462457 0.000000 8.155849
v -16.774696 0.000000 6.990557
v -17.627749 0.000000 6.137504
v -18.793042 0.000000 5.825265
v -19.958334 0.000000 6.137504
v -20.811387 0.000000 6.990557
v -13.402065 0.000000 -0.885159
v -16.299682 0.000000 -0.520206
v -19.210837 0.000000 -0.286647
v -22.129576 0.000000 -0.184957
v -22.912749 -0.000000 1.530809
v -23.247449 -0.000000 3.396948
v -23.165792 -0.000000 5.297890
v -22.738573 -0.000000 7.146680
v -21.977589 -0.000000 8.929597
v -21.305341 -0.000000 9.980432
v -20.380844 -0.000000 11.008946
v -19.395116 -0.000000 11.765559
v -18.426024 -0.000000 12.268852
v -17.409494 -0.000000 12.593425
v -16.354932 -0.000000 12.730286
v -15.297093 -0.000000 12.653933
v -14.289636 -0.000000 12.339963
v -13.393210 -0.000000 11.783718
v -12.665489 -0.000000 11.026132
v -12.110832 -0.000000 10.118186
v -11.716946 -0.000000 9.118361
v -11.314870 -0.000000 7.001647
v -11.300316 -0.000000 4.812182
v -11.597896 -0.000000 2.746950
v -12.249493 -0.000000 0.774104
v -12.748071 -0.000000 -0.111705
v -22.129576 -17.000000 -0.184957
v -17.753939 -17.000000 -0.386966
v -13.402065 -17.000000 -0.885159
v -12.331201 -17.000000 0.604532
v -11.694470 -17.000000 2.347827
v -11.352640 -17.000000 4.231269
v -11.267411 -17.000000 6.118621
v -11.446198 -17.000000 7.997059
v -11.960074 -17.000000 9.786149
v -12.933288 -17.000000 11.347812
v -13.615820 -17.000000 11.953077
v -14.417985 -17.000000 12.395665
v -15.295361 -17.000000 12.653611
v -16.213517 -17.000000 12.733074
v -18.047334 -17.000000 12.412450
v -18.975708 -17.000000 12.008843
v -19.885415 -17.000000 11.424815
v -21.397220 -17.000000 9.854740
v -22.458877 -17.000000 7.913260
v -23.076158 -17.000000 5.834908
v -23.239905 -17.000000 4.605866
v -23.219550 -17.000000 3.050530
v -22.860731 -17.000000 1.369512
v -17.148562 -17.000000 5.426387
v -16.714593 -17.000000 2.036489
v -14.152827 -17.000000 5.901836
v -14.752996 -17.000000 9.346499
v -15.284639 -17.000000 11.565878
v -18.373311 -17.000000 10.721799
v -13.779868 -17.000000 2.474439
v -19.734000 -17.000000 1.427580
v -20.221143 -17.000000 4.765393
vt 0.300000 0.548855 0.000000
vt 2.000000 0.610146 0.000000
vt 0.300000 0.640418 0.000000
vt 2.000000 0.732175 0.000000
vt 0.300000 0.732039 0.000000
vt 0.300000 0.823576 0.000000
vt 0.300000 -0.640773 0.000000
vt 2.000000 -0.732175 0.000000
vt 2.000000 -0.610146 0.000000
vt 0.300000 -0.549268 0.000000
vt 2.000000 -0.488117 0.000000
vt 0.300000 -0.457765 0.000000
vt 2.000000 -0.366087 0.000000
vt 0.300000 -0.366256 0.000000
vt 0.300000 -0.274759 0.000000
vt 2.000000 -0.244058 0.000000
vt 0.300000 -0.183249 0.000000
vt 2.000000 -0.122029 0.000000
vt 0.300000 -0.091726 0.000000
vt 2.000000 0.000000 0.000000
vt 0.300000 -0.000201 0.000000
vt 0.300000 0.091351 0.000000
vt 2.000000 0.122029 0.000000
vt 0.300000 0.182841 0.000000
vt 2.000000 0.244058 0.000000
vt 0.300000 0.274338 0.000000
vt 2.000000 0.366087 0.000000
vt 0.300000 0.365843 0.000000
vt 0.300000 0.457336 0.000000
vt 2.000000 0.488117 0.000000
vt 0.178197 -2.081139 0.000000
vt 0.193809 -2.273857 0.000000
vt 0.294726 -2.112363 0.000000
vt 0.372101 -2.197759 0.000000
vt 0.411255 -2.081139 0.000000
vt 0.477184 -2.130534 0.000000
vt 0.496561 -1.995833 0.000000
vt 0.580036 -2.038084 0.000000
vt 0.655697 -1.939512 0.000000
vt 0.008930 -2.316579 0.000000
vt 0.092891 -1.995833 0.000000
vt -0.181164 -2.324745 0.000000
vt -0.367778 -2.291275 0.000000
vt -0.549524 -1.921084 0.000000
vt -0.539355 -2.212958 0.000000
vt 0.061668 -1.879304 0.000000
vt -0.572880 -1.629968 0.000000
vt 0.092891 -1.762775 0.000000
vt -0.443449 -1.224949 0.000000
vt -0.246164 -1.159790 0.000000
vt 0.178197 -1.677470 0.000000
vt -0.039641 -1.130032 0.000000
vt 0.179306 -1.131487 0.000000
vt 0.294726 -1.646246 0.000000
vt 0.390977 -1.171695 0.000000
vt 0.490960 -1.211083 0.000000
vt 0.581754 -1.266549 0.000000
vt 0.411255 -1.677470 0.000000
vt 0.657513 -1.339321 0.000000
vt 0.713137 -1.428964 0.000000
vt 0.744534 -1.529709 0.000000
vt 0.752170 -1.635493 0.000000
vt 0.496561 -1.762775 0.000000
vt 0.738484 -1.740949 0.000000
vt 0.706026 -1.842602 0.000000
vt 0.527785 -1.879304 0.000000
vt -0.609375 -1.340206 0.000000
vt -0.532029 -1.274807 0.000000
vt -3.669540 4.731484 0.000000
vt -3.544825 4.720039 0.000000
vt -3.663464 4.821019 0.000000
vt -3.438663 4.900727 0.000000
vt -3.692772 4.906086 0.000000
vt -3.679017 5.081037 0.000000
vt -3.753061 4.972728 0.000000
vt -3.834506 5.009540 0.000000
vt -3.987398 5.426322 0.000000
vt -3.987398 5.081037 0.000000
vt -4.295779 5.426322 0.000000
vt -4.295779 5.081037 0.000000
vt -4.569158 5.276866 0.000000
vt -4.598056 5.090857 0.000000
vt -3.709221 4.651267 0.000000
vt -3.692778 4.564612 0.000000
vt -3.775356 4.591551 0.000000
vt -3.873063 4.451043 0.000000
vt -3.857230 4.560175 0.000000
vt -3.942563 4.561213 0.000000
vt -4.019265 4.594633 0.000000
vt -3.987398 4.546836 0.000000
vt -3.971378 4.413927 0.000000
vt -4.066247 4.392378 0.000000
vt -4.076772 4.656122 0.000000
vt -4.241106 4.390467 0.000000
vt -4.295779 4.515234 0.000000
vt -4.323179 4.410527 0.000000
vt -4.398147 4.446208 0.000000
vt -4.463290 4.498068 0.000000
vt -4.295779 4.736674 0.000000
vt -4.515411 4.563896 0.000000
vt -4.580837 4.725218 0.000000
vt -4.604159 4.904695 0.000000
vt -4.106908 4.737282 0.000000
vt -4.104809 4.826435 0.000000
vt -4.069873 4.910137 0.000000
vt -4.006489 4.975013 0.000000
vt -3.923775 5.010250 0.000000
vt -3.378920 5.349284 0.000000
vt -3.430838 5.530345 0.000000
vt -3.679017 5.426322 0.000000
vt -3.861769 5.654055 0.000000
vt -4.315100 5.771607 0.000000
vt -4.437495 5.631334 0.000000
vt -4.517043 5.461742 0.000000
vt -3.397553 5.015007 0.000000
vt -3.370636 5.169045 0.000000
vt 2.000000 0.876228 0.000000
vt 0.300000 0.876228 0.000000
vt 2.000000 0.584152 0.000000
vt 0.300000 0.438114 0.000000
vt 2.000000 0.292076 0.000000
vt 0.300000 0.000000 0.000000
vt 2.000000 0.000000 0.000000
vt 0.000000 0.300000 0.000000
vt 0.211527 0.300000 0.000000
vt 0.000000 2.000000 0.000000
vt 0.232355 2.000000 0.000000
vt 0.420334 0.300000 0.000000
vt 0.461405 2.000000 0.000000
vt 0.600964 0.300000 0.000000
vt 0.678971 2.000000 0.000000
vt 0.738977 0.300000 0.000000
vt 0.885367 2.000000 0.000000
vt 0.972144 0.300000 0.000000
vt 1.090915 2.000000 0.000000
vt 1.205805 0.300000 0.000000
vt 1.222139 2.000000 0.000000
vt 1.366759 2.000000 0.000000
vt 1.433694 0.300000 0.000000
vt 1.494978 2.000000 0.000000
vt 1.544357 0.300000 0.000000
vt 1.605832 2.000000 0.000000
vt 1.646530 0.300000 0.000000
vt 1.712933 2.000000 0.000000
vt 1.833820 0.300000 0.000000
vt 1.819594 2.000000 0.000000
vt 1.927036 2.000000 0.000000
vt 1.927215 0.300000 0.000000
vt 2.020755 0.300000 0.000000
vt 2.035057 2.000000 0.000000
vt 2.114195 0.300000 0.000000
vt 2.142314 2.000000 0.000000
vt 2.204970 0.300000 0.000000
vt 2.245301 2.000000 0.000000
vt 2.376037 0.300000 0.000000
vt 2.343722 2.000000 0.000000
vt 2.437263 2.000000 0.000000
vt 2.532762 0.300000 0.000000
vt 2.613400 2.000000 0.000000
vt 2.683728 0.300000 0.000000
vt 2.788688 2.000000 0.000000
vt 2.836672 0.300000 0.000000
vt 2.966721 2.000000 0.000000
vt 3.004367 0.300000 0.000000
vt 3.171579 2.000000 0.000000
vt 3.192138 0.300000 0.000000
vt 3.287670 2.000000 0.000000
vt 3.415838 0.300000 0.000000
vt 3.415838 2.000000 0.000000
vn 0.070627 -0.000000 0.070794
vn 0.086603 -0.000000 0.050000
vn 0.092349 -0.000000 0.038362
vn 0.100000 -0.000000 0.000000
vn 0.100000 -0.000000 0.000058
vn 0.092408 0.000000 -0.038221
vn 0.086603 0.000000 -0.050000
vn 0.070752 0.000000 -0.070669
vn 0.050000 0.000000 -0.086603
vn 0.038330 0.000000 -0.092362
vn -0.000000 0.000000 -0.100000
vn 0.000072 0.000000 -0.100000
vn -0.038192 0.000000 -0.092420
vn -0.050000 0.000000 -0.086603
vn -0.070648 0.000000 -0.070773
vn -0.086603 0.000000 -0.050000
vn -0.092354 0.000000 -0.038349
vn -0.100000 0.000000 0.000000
vn -0.100000 0.000000 -0.000086
vn -0.092416 0.000000 0.038200
vn -0.086603 0.000000 0.050000
vn -0.070772 0.000000 0.070649
vn -0.050000 0.000000 0.086603
vn -0.038358 0.000000 0.092351
vn -0.000000 0.000000 0.100000
vn -0.000105 0.000000 0.100000
vn 0.038160 -0.000000 0.092433
vn 0.050000 -0.000000 0.086603
vn 0.000000 0.100000 0.000000
vn 0.000000 0.100000 0.000000
vn 0.000000 0.100000 0.000000
vn 0.000000 0.100000 0.000000
vn 0.000000 0.100000 0.000000
vn 0.000000 0.100000 0.000000
vn 0.000000 0.100000 0.000000
vn 0.000000 0.100000 0.000000
vn 0.000000 0.100000 0.000000
vn 0.000000 0.100000 0.000000
vn 0.000000 0.100000 0.000000
vn 0.000000 0.100000 0.000000
vn 0.000000 0.100000 0.000000
vn 0.000000 0.100000 0.000000
vn 0.000000 0.100000 0.000000
vn 0.000000 0.100000 0.000000
vn 0.000000 0.100000 0.000000
vn 0.000000 0.100000 0.000000
vn 0.000000 0.100000 0.000000
vn 0.000000 0.100000 0.000000
vn 0.000000 0.100000 0.000000
vn 0.000000 0.100000 0.000000
vn 0.000000 0.100000 0.000000
vn 0.000000 0.100000 0.000000
vn 0.000000 0.100000 0.000000
vn 0.000000 0.100000 0.000000
vn 0.000000 0.100000 0.000000
vn 0.000000 0.100000 0.000000
vn 0.000000 0.100000 0.000000
vn 0.000000 0.100000 0.000000
vn 0.000000 0.100000 0.000000
vn 0.000000 0.100000 0.000000
vn 0.000000 0.100000 0.000000
vn 0.000000 0.100000 0.000000
vn 0.000000 0.100000 0.000000
vn 0.000000 0.100000 0.000000
vn 0.000000 0.100000 0.000000
vn 0.000000 0.100000 0.000000
vn -0.000000 -0.100000 -0.000000
vn -0.000000 -0.100000 -0.000000
vn -0.000000 -0.100000 -0.000000
vn -0.000000 -0.100000 -0.000000
vn -0.000000 -0.100000 -0.000000
vn -0.000000 -0.100000 -0.000000
vn -0.000000 -0.100000 -0.000000
vn -0.000000 -0.100000 -0.000000
vn -0.000000 -0.100000 -0.000000
vn -0.000000 -0.100000 -0.000000
vn -0.000000 -0.100000 -0.000000
vn -0.000000 -0.100000 -0.000000
vn -0.000000 -0.100000 -0.000000
vn -0.000000 -0.100000 -0.000000
vn -0.000000 -0.100000 -0.000000
vn -0.000000 -0.100000 -0.000000
vn -0.000000 -0.100000 -0.000000
vn -0.000000 -0.100000 -0.000000
vn -0.000000 -0.100000 -0.000000
vn -0.000000 -0.100000 -0.000000
vn -0.000000 -0.100000 -0.000000
vn -0.000000 -0.100000 -0.000000
vn -0.000000 -0.100000 -0.000000
vn -0.000000 -0.100000 -0.000000
vn -0.000000 -0.100000 -0.000000
vn -0.000000 -0.100000 -0.000000
vn -0.000000 -0.100000 -0.000000
vn -0.000000 -0.100000 -0.000000
vn -0.000000 -0.100000 -0.000000
vn -0.000000 -0.100000 -0.000000
vn -0.000000 -0.100000 -0.000000
vn -0.000000 -0.100000 -0.000000
vn -0.000000 -0.100000 -0.000000
vn -0.000000 -0.100000 -0.000000
vn -0.000000 -0.100000 -0.000000
vn -0.000000 -0.100000 -0.000000
vn -0.000000 -0.100000 -0.000000
vn -0.000000 -0.100000 -0.000000
vn -0.000000 -0.100000 -0.000000
vn -0.000000 -0.100000 -0.000000
vn -0.000000 -0.100000 -0.000000
vn -0.000000 -0.100000 -0.000000
vn -0.000000 -0.100000 -0.000000
vn -0.000000 -0.100000 -0.000000
vn -0.000000 -0.100000 -0.000000
vn -0.000000 -0.100000 -0.000000
vn -0.000000 -0.100000 -0.000000
vn -0.000000 -0.100000 -0.000000
vn -0.014737 0.000000 -0.098908
vn -0.014737 0.000000 -0.098908
vn -0.010249 0.000000 -0.099473
vn -0.007997 0.000000 -0.099680
vn -0.005741 0.000000 -0.099835
vn -0.001221 0.000000 -0.099993
vn -0.001221 0.000000 -0.099993
vn -0.085009 0.000000 -0.052664
vn -0.094819 0.000000 -0.031771
vn -0.085009 0.000000 -0.052664
vn -0.095519 0.000000 -0.029599
vn -0.099486 0.000000 -0.010125
vn -0.099818 0.000000 -0.006032
vn -0.099747 0.000000 0.007108
vn -0.099027 0.000000 0.013919
vn -0.098189 0.000000 0.018943
vn -0.095145 0.000000 0.030780
vn -0.092575 0.000000 0.037813
vn -0.087787 0.000000 0.047889
vn -0.081206 0.000000 0.058357
vn -0.080080 0.000000 0.059893
vn -0.067775 0.000000 0.073529
vn -0.060636 0.000000 0.079519
vn -0.053337 0.000000 0.084588
vn -0.046958 0.000000 0.088289
vn -0.038430 0.000000 0.092321
vn -0.032427 0.000000 0.094596
vn -0.021985 0.000000 0.097553
vn -0.000605 0.000000 0.099998
vn -0.003294 0.000000 0.099946
vn 0.018121 -0.000000 0.098344
vn 0.018159 -0.000000 0.098338
vn 0.038265 -0.000000 0.092389
vn 0.041354 -0.000000 0.091049
vn 0.057812 -0.000000 0.081595
vn 0.063200 -0.000000 0.077497
vn 0.073871 -0.000000 0.067402
vn 0.079608 -0.000000 0.060519
vn 0.092162 -0.000000 0.038809
vn 0.089837 -0.000000 0.043923
vn 0.095459 -0.000000 0.029792
vn 0.098445 -0.000000 0.017569
vn 0.099611 -0.000000 0.008807
vn 0.099979 -0.000000 0.002062
vn 0.099754 0.000000 -0.007009
vn 0.099397 0.000000 -0.010962
vn 0.097579 0.000000 -0.021873
vn 0.096763 0.000000 -0.025237
vn 0.090643 0.000000 -0.042236
vn 0.089505 0.000000 -0.044596
vn 0.082658 0.000000 -0.056281
vn 0.068505 0.000000 -0.072850
vn 0.068505 0.000000 -0.072850
usemtl Plastic_-_Glossy_(Black)
f 2/1/1 28/2/2 1/3/3
f 1/3/3 28/2/2 17/4/4
f 1/3/3 17/4/4 16/5/5
f 16/5/5 17/4/4 15/6/6
f 15/7/6 17/8/4 18/9/7
f 15/7/6 18/9/7 14/10/8
f 14/10/8 18/9/7 19/11/9
f 14/10/8 19/11/9 13/12/10
f 13/12/10 19/11/9 20/13/11
f 13/12/10 20/13/11 12/14/12
f 12/14/12 20/13/11 11/15/13
f 11/15/13 20/13/11 21/16/14
f 11/15/13 21/16/14 10/17/15
f 10/17/15 21/16/14 22/18/16
f 10/17/15 22/18/16 9/19/17
f 9/19/17 22/18/16 23/20/18
f 9/19/17 23/20/18 8/21/19
f 8/21/19 23/20/18 7/22/20
f 7/22/20 23/20/18 24/23/21
f 7/22/20 24/23/21 6/24/22
f 6/24/22 24/23/21 25/25/23
f 6/24/22 25/25/23 5/26/24
f 5/26/24 25/25/23 26/27/25
f 5/26/24 26/27/25 4/28/26
f 4/28/26 26/27/25 3/29/27
f 3/29/27 26/27/25 27/30/28
f 3/29/27 27/30/28 2/1/1
f 2/1/1 27/30/28 28/2/2
f 28/31/29 36/32/30 17/33/31
f 17/33/31 36/32/30 37/34/32
f 17/33/31 37/34/32 18/35/33
f 18/35/33 37/34/32 38/36/34
f 18/35/33 38/36/34 19/37/35
f 19/37/35 38/36/34 39/38/36
f 19/37/35 39/38/36 40/39/37
f 36/32/30 28/31/29 35/40/38
f 35/40/38 28/31/29 27/41/39
f 35/40/38 27/41/39 34/42/40
f 34/42/40 27/41/39 33/43/41
f 33/43/41 27/41/39 31/44/42
f 33/43/41 31/44/42 32/45/43
f 27/41/39 26/46/44 31/44/42
f 31/44/42 26/46/44 30/47/45
f 30/47/45 26/46/44 25/48/46
f 30/47/45 25/48/46 53/49/47
f 53/49/47 25/48/46 52/50/48
f 52/50/48 25/48/46 24/51/49
f 52/50/48 24/51/49 51/52/50
f 51/52/50 24/51/49 50/53/51
f 50/53/51 24/51/49 23/54/52
f 50/53/51 23/54/52 49/55/53
f 49/55/53 23/54/52 48/56/54
f 48/56/54 23/54/52 47/57/55
f 47/57/55 23/54/52 22/58/56
f 47/57/55 22/58/56 46/59/57
f 46/59/57 22/58/56 45/60/58
f 45/60/58 22/58/56 44/61/59
f 44/61/59 22/58/56 43/62/60
f 43/62/60 22/58/56 21/63/61
f 43/62/60 21/63/61 42/64/62
f 42/64/62 21/63/61 41/65/63
f 41/65/63 21/63/61 20/66/64
f 41/65/63 20/66/64 40/39/37
f 40/39/37 20/66/64 19/37/35
f 29/67/65 30/47/45 54/68/66
f 54/68/66 30/47/45 53/49/47
f 16/69/67 73/70/68 1/71/69
f 1/71/69 73/70/68 74/72/70
f 1/71/69 74/72/70 2/73/71
f 2/73/71 74/72/70 86/74/72
f 2/73/71 86/74/72 3/75/73
f 3/75/73 86/74/72 4/76/74
f 4/76/74 86/74/72 79/77/75
f 4/76/74 79/77/75 78/78/76
f 78/78/76 79/77/75 84/79/77
f 78/78/76 84/79/77 80/80/78
f 80/80/78 84/79/77 60/81/79
f 80/80/78 60/81/79 61/82/80
f 16/69/67 15/83/81 73/70/68
f 73/70/68 15/83/81 72/84/82
f 72/84/82 15/83/81 14/85/83
f 72/84/82 14/85/83 71/86/84
f 71/86/84 14/85/83 13/87/85
f 71/86/84 13/87/85 12/88/86
f 11/89/87 83/90/88 12/88/86
f 12/88/86 83/90/88 70/91/89
f 12/88/86 70/91/89 71/86/84
f 83/90/88 11/89/87 69/92/90
f 69/92/90 11/89/87 10/93/91
f 69/92/90 10/93/91 68/94/92
f 68/94/92 10/93/91 82/95/93
f 68/94/92 82/95/93 67/96/94
f 67/96/94 82/95/93 66/97/95
f 66/97/95 82/95/93 65/98/96
f 65/98/96 82/95/93 81/99/97
f 65/98/96 81/99/97 64/100/98
f 64/100/98 81/99/97 63/101/99
f 63/101/99 81/99/97 62/102/100
f 62/102/100 81/99/97 80/80/78
f 62/102/100 80/80/78 61/82/80
f 82/95/93 10/93/91 81/99/97
f 81/99/97 10/93/91 9/103/101
f 81/99/97 9/103/101 8/104/102
f 81/99/97 8/104/102 80/80/78
f 80/80/78 8/104/102 7/105/103
f 80/80/78 7/105/103 6/106/104
f 80/80/78 6/106/104 78/78/76
f 78/78/76 6/106/104 5/107/105
f 78/78/76 5/107/105 4/76/74
f 77/108/106 55/109/107 85/110/108
f 85/110/108 55/109/107 56/111/109
f 85/110/108 56/111/109 79/77/75
f 79/77/75 56/111/109 57/112/110
f 79/77/75 57/112/110 84/79/77
f 84/79/77 57/112/110 58/113/111
f 84/79/77 58/113/111 59/114/112
f 59/114/112 60/81/79 84/79/77
f 69/92/90 70/91/89 83/90/88
f 74/72/70 75/115/113 86/74/72
f 86/74/72 75/115/113 76/116/114
f 86/74/72 76/116/114 77/108/106
f 86/74/72 77/108/106 85/110/108
f 85/110/108 79/77/75 86/74/72
f 29/117/115 57/118/116 30/119/117
f 30/119/117 57/118/116 56/120/118
f 30/119/117 56/120/118 31/121/119
f 31/121/119 56/120/118 55/122/120
f 31/121/119 55/122/120 32/123/121
f 55/124/122 77/125/123 32/126/124
f 32/126/124 77/125/123 33/127/125
f 33/127/125 77/125/123 76/128/126
f 33/127/125 76/128/126 34/129/127
f 34/129/127 76/128/126 75/130/128
f 34/129/127 75/130/128 35/131/129
f 35/131/129 75/130/128 74/132/130
f 35/131/129 74/132/130 36/133/131
f 36/133/131 74/132/130 73/134/132
f 36/133/131 73/134/132 37/135/133
f 37/135/133 73/134/132 72/136/134
f 37/135/133 72/136/134 38/137/135
f 38/137/135 72/136/134 39/138/136
f 39/138/136 72/136/134 71/139/137
f 39/138/136 71/139/137 40/140/138
f 40/140/138 71/139/137 70/141/139
f 40/140/138 70/141/139 41/142/140
f 41/142/140 70/141/139 69/143/141
f 41/142/140 69/143/141 42/144/142
f 42/144/142 69/143/141 68/145/143
f 42/144/142 68/145/143 43/146/144
f 43/146/144 68/145/143 44/147/145
f 44/147/145 68/145/143 67/148/146
f 44/147/145 67/148/146 66/149/147
f 44/147/145 66/149/147 45/150/148
f 45/150/148 66/149/147 65/151/149
f 45/150/148 65/151/149 46/152/150
f 46/152/150 65/151/149 64/153/151
f 46/152/150 64/153/151 47/154/152
f 47/154/152 64/153/151 63/155/153
f 47/154/152 63/155/153 48/156/154
f 48/156/154 63/155/153 49/157/155
f 49/157/155 63/155/153 62/158/156
f 49/157/155 62/158/156 50/159/157
f 50/159/157 62/158/156 61/160/158
f 50/159/157 61/160/158 51/161/159
f 51/161/159 61/160/158 60/162/160
f 51/161/159 60/162/160 52/163/161
f 52/163/161 60/162/160 59/164/162
f 52/163/161 59/164/162 53/165/163
f 53/165/163 59/164/162 58/166/164
f 53/165/163 58/166/164 54/167/165
f 54/167/165 58/166/164 57/168/166
f 54/167/165 57/168/166 29/169/167
# 86 vertices
# 169 texture params
# 167 normals
# 172 facets

# 1 groups
