# WaveFront *.obj file (generated by Autodesk ATF)

mtllib TC_Toy-Controller v65_Smile1_Toy-Controller v65.mtl

g Smile1

v -20.945320 -17.000000 7.261800
v -20.439064 -17.000000 6.505929
v -19.682395 -17.000000 6.001627
v -18.790599 -17.000000 5.825266
v -17.899065 -17.000000 6.003541
v -17.143638 -17.000000 6.509310
v -16.639207 -17.000000 7.265556
v -16.462458 -17.000000 8.157857
v -16.640643 -17.000000 9.049609
v -17.146522 -17.000000 9.805272
v -17.902953 -17.000000 10.309768
v -18.794726 -17.000000 10.486433
v -19.686354 -17.000000 10.308433
v -20.441983 -17.000000 9.802851
v -20.946682 -17.000000 9.046612
v -21.123626 -17.000000 8.154490
v -18.766599 -17.000000 8.145413
v -21.123627 0.000000 8.155849
v -20.811387 0.000000 9.321142
v -19.958334 0.000000 10.174195
v -18.793042 0.000000 10.486434
v -17.627749 0.000000 10.174195
v -16.774696 0.000000 9.321142
v -16.462457 0.000000 8.155849
v -16.774696 0.000000 6.990557
v -17.627749 0.000000 6.137504
v -18.793042 0.000000 5.825265
v -19.958334 0.000000 6.137504
v -20.811387 0.000000 6.990557
vt -3.811990 4.818229 0.000000
vt -3.805677 4.909406 0.000000
vt -4.036006 4.872943 0.000000
vt -3.836123 4.996033 0.000000
vt -3.898752 5.063897 0.000000
vt -3.983359 5.101384 0.000000
vt -4.076093 5.102106 0.000000
vt -4.162018 5.066224 0.000000
vt -4.227862 5.000158 0.000000
vt -4.264155 4.914922 0.000000
vt -4.266336 4.824134 0.000000
vt -4.235029 4.741486 0.000000
vt -4.175290 4.678869 0.000000
vt -4.095611 4.644837 0.000000
vt -4.006966 4.643780 0.000000
vt -3.921912 4.675731 0.000000
vt -3.853210 4.736542 0.000000
vt 0.294726 -2.112363 0.000000
vt 0.411255 -2.081139 0.000000
vt 0.178197 -2.081139 0.000000
vt 0.092891 -1.995833 0.000000
vt 0.496561 -1.995833 0.000000
vt 0.061668 -1.879304 0.000000
vt 0.527785 -1.879304 0.000000
vt 0.092891 -1.762775 0.000000
vt 0.496561 -1.762775 0.000000
vt 0.178197 -1.677470 0.000000
vt 0.411255 -1.677470 0.000000
vt 0.294726 -1.646246 0.000000
vt -2.000000 0.610146 0.000000
vt -0.300000 0.640418 0.000000
vt -2.000000 0.732175 0.000000
vt -0.300000 0.732039 0.000000
vt -2.000000 -0.732175 0.000000
vt -0.300000 -0.732311 0.000000
vt -0.300000 -0.640773 0.000000
vt -0.300000 0.548855 0.000000
vt -2.000000 0.488117 0.000000
vt -0.300000 0.457336 0.000000
vt -2.000000 0.366087 0.000000
vt -0.300000 0.365843 0.000000
vt -0.300000 0.274338 0.000000
vt -2.000000 0.244058 0.000000
vt -0.300000 0.182841 0.000000
vt -2.000000 0.122029 0.000000
vt -0.300000 0.091351 0.000000
vt -2.000000 0.000000 0.000000
vt -0.300000 -0.000201 0.000000
vt -0.300000 -0.091726 0.000000
vt -2.000000 -0.122029 0.000000
vt -0.300000 -0.183249 0.000000
vt -2.000000 -0.244058 0.000000
vt -0.300000 -0.274759 0.000000
vt -2.000000 -0.366087 0.000000
vt -0.300000 -0.366256 0.000000
vt -0.300000 -0.457765 0.000000
vt -2.000000 -0.488117 0.000000
vt -0.300000 -0.549268 0.000000
vt -2.000000 -0.610146 0.000000
vn -0.000000 -0.100000 -0.000000
vn -0.000000 -0.100000 -0.000000
vn -0.000000 -0.100000 -0.000000
vn -0.000000 -0.100000 -0.000000
vn -0.000000 -0.100000 -0.000000
vn -0.000000 -0.100000 -0.000000
vn -0.000000 -0.100000 -0.000000
vn -0.000000 -0.100000 -0.000000
vn -0.000000 -0.100000 -0.000000
vn -0.000000 -0.100000 -0.000000
vn -0.000000 -0.100000 -0.000000
vn -0.000000 -0.100000 -0.000000
vn -0.000000 -0.100000 -0.000000
vn -0.000000 -0.100000 -0.000000
vn -0.000000 -0.100000 -0.000000
vn -0.000000 -0.100000 -0.000000
vn -0.000000 -0.100000 -0.000000
vn 0.000000 0.100000 0.000000
vn 0.000000 0.100000 0.000000
vn 0.000000 0.100000 0.000000
vn 0.000000 0.100000 0.000000
vn 0.000000 0.100000 0.000000
vn 0.000000 0.100000 0.000000
vn 0.000000 0.100000 0.000000
vn 0.000000 0.100000 0.000000
vn 0.000000 0.100000 0.000000
vn 0.000000 0.100000 0.000000
vn 0.000000 0.100000 0.000000
vn 0.000000 0.100000 0.000000
vn -0.086603 0.000000 -0.050000
vn -0.092349 0.000000 -0.038362
vn -0.100000 0.000000 -0.000000
vn -0.100000 0.000000 -0.000058
vn -0.092408 0.000000 0.038221
vn -0.070627 0.000000 -0.070794
vn -0.050000 0.000000 -0.086603
vn -0.038160 0.000000 -0.092433
vn 0.000000 0.000000 -0.100000
vn 0.000105 0.000000 -0.100000
vn 0.038358 0.000000 -0.092351
vn 0.050000 0.000000 -0.086603
vn 0.070772 0.000000 -0.070649
vn 0.086603 0.000000 -0.050000
vn 0.092416 0.000000 -0.038200
vn 0.100000 0.000000 0.000000
vn 0.100000 -0.000000 0.000086
vn 0.092354 -0.000000 0.038349
vn 0.086603 -0.000000 0.050000
vn 0.070648 -0.000000 0.070773
vn 0.050000 -0.000000 0.086603
vn 0.038192 -0.000000 0.092420
vn 0.000000 -0.000000 0.100000
vn -0.000072 0.000000 0.100000
vn -0.038330 0.000000 0.092362
vn -0.050000 0.000000 0.086603
vn -0.070752 0.000000 0.070669
vn -0.086603 0.000000 0.050000
usemtl ABS_(White)
f 16/1/1 1/2/2 17/3/3
f 17/3/3 1/2/2 2/4/4
f 17/3/3 2/4/4 3/5/5
f 3/5/5 4/6/6 17/3/3
f 17/3/3 4/6/6 5/7/7
f 17/3/3 5/7/7 6/8/8
f 6/8/8 7/9/9 17/3/3
f 17/3/3 7/9/9 8/10/10
f 17/3/3 8/10/10 9/11/11
f 9/11/11 10/12/12 17/3/3
f 17/3/3 10/12/12 11/13/13
f 17/3/3 11/13/13 12/14/14
f 12/14/14 13/15/15 17/3/3
f 17/3/3 13/15/15 14/16/16
f 17/3/3 14/16/16 15/17/17
f 15/17/17 16/1/1 17/3/3
f 18/18/18 19/19/19 29/20/20
f 29/20/20 19/19/19 28/21/21
f 28/21/21 19/19/19 20/22/22
f 28/21/21 20/22/22 27/23/23
f 27/23/23 20/22/22 21/24/24
f 27/23/23 21/24/24 26/25/25
f 26/25/25 21/24/24 22/26/26
f 26/25/25 22/26/26 25/27/27
f 25/27/27 22/26/26 23/28/28
f 25/27/27 23/28/28 24/29/29
f 29/30/30 1/31/31 18/32/32
f 18/32/32 1/31/31 16/33/33
f 18/34/32 16/35/33 15/36/34
f 1/31/31 29/30/30 2/37/35
f 2/37/35 29/30/30 28/38/36
f 2/37/35 28/38/36 3/39/37
f 3/39/37 28/38/36 27/40/38
f 3/39/37 27/40/38 4/41/39
f 4/41/39 27/40/38 5/42/40
f 5/42/40 27/40/38 26/43/41
f 5/42/40 26/43/41 6/44/42
f 6/44/42 26/43/41 25/45/43
f 6/44/42 25/45/43 7/46/44
f 7/46/44 25/45/43 24/47/45
f 7/46/44 24/47/45 8/48/46
f 8/48/46 24/47/45 9/49/47
f 9/49/47 24/47/45 23/50/48
f 9/49/47 23/50/48 10/51/49
f 10/51/49 23/50/48 22/52/50
f 10/51/49 22/52/50 11/53/51
f 11/53/51 22/52/50 21/54/52
f 11/53/51 21/54/52 12/55/53
f 12/55/53 21/54/52 13/56/54
f 13/56/54 21/54/52 20/57/55
f 13/56/54 20/57/55 14/58/56
f 14/58/56 20/57/55 19/59/57
f 14/58/56 19/59/57 15/36/34
f 15/36/34 19/59/57 18/34/32
# 29 vertices
# 59 texture params
# 57 normals
# 54 facets

# 1 groups
