# WaveFront *.obj file (generated by Autodesk ATF)

mtllib steamdeck_steamdeck_step_20220202 v37_B1-Symbol.mtl

g B1-Symbol

v 132.213868 2.500000 30.482293
v 131.662708 2.500000 31.966604
v 131.122462 2.500000 30.482293
v 132.099270 2.500000 32.899756
v 133.700907 2.500000 28.899756
v 132.822326 2.500000 28.899756
v 132.473076 2.500000 29.808350
v 130.874168 2.500000 29.808350
v 130.544018 2.500000 28.899756
v 129.687265 2.500000 28.899756
v 131.245246 2.500000 32.899756
v 132.213868 -2.482522 30.482293
v 132.029992 -2.494309 30.977484
v 131.846131 -2.480740 31.472634
v 131.662708 -2.441847 31.966604
v 130.874168 -2.420352 29.808350
v 130.763613 -2.378463 29.504096
v 130.653530 -2.326994 29.201142
v 130.544018 -2.265990 28.899756
v 132.473076 -2.424939 29.808350
v 131.940243 -2.449344 29.808350
v 131.406853 -2.447814 29.808350
v 132.822326 -2.270601 28.899756
v 132.706478 -2.331726 29.201142
v 132.590027 -2.383187 29.504097
v 133.700907 -2.143055 28.899756
v 133.409244 -2.193560 28.899756
v 133.116311 -2.236086 28.899756
v 131.482897 -2.479406 31.472579
v 131.302678 -2.491755 30.977430
v 131.122462 -2.478866 30.482293
v 131.486158 -2.492113 30.482293
v 131.850092 -2.493332 30.482293
v 133.171127 -2.384710 30.222852
v 132.634133 -2.436646 31.563966
v 132.099270 -2.297959 32.899756
v 131.814605 -2.304589 32.899756
v 131.529865 -2.303727 32.899756
v 131.245246 -2.295373 32.899756
v 130.724926 -2.432211 31.563875
v 130.202589 -2.379766 30.222813
v 129.687265 -2.138944 28.899756
v 129.971687 -2.188894 28.899756
v 130.257339 -2.231252 28.899756
vt 3.140326 13.166271 0.000000
vt 3.233641 13.209927 0.000000
vt 2.991895 13.221387 0.000000
vt 2.833641 13.370091 0.000000
vt 2.924501 13.247308 0.000000
vt 2.833641 13.282233 0.000000
vt 3.233641 13.124525 0.000000
vt 2.991895 13.112246 0.000000
vt 2.833641 12.968726 0.000000
vt 2.924501 13.087417 0.000000
vt 2.833641 13.054402 0.000000
vt -0.000000 0.455815 0.000000
vt -0.000000 0.950000 0.000000
vt -0.052693 0.451926 0.000000
vt -0.158334 0.950000 0.000000
vt -0.105511 0.450569 0.000000
vt -0.158334 0.451748 0.000000
vt 0.096672 0.473401 0.000000
vt 0.096672 0.950000 0.000000
vt 0.064605 0.467301 0.000000
vt 0.000000 0.950000 0.000000
vt 0.032372 0.462154 0.000000
vt 0.000000 0.457965 0.000000
vt 0.159891 0.457965 0.000000
vt 0.159891 0.950000 0.000000
vt 0.106622 0.455219 0.000000
vt 0.000000 0.950000 0.000000
vt 0.053283 0.455066 0.000000
vt 0.000000 0.457506 0.000000
vt 0.000000 0.950000 0.000000
vt 0.032288 0.466827 0.000000
vt 0.097341 0.950000 0.000000
vt 0.064745 0.461681 0.000000
vt 0.097341 0.457506 0.000000
vt 0.000000 0.472940 0.000000
vt 0.000000 0.950000 0.000000
vt 0.029166 0.480644 0.000000
vt 0.087858 0.950000 0.000000
vt 0.058460 0.476391 0.000000
vt 0.087858 0.472940 0.000000
vt 0.000000 0.485695 0.000000
vt -0.157957 0.950000 0.000000
vt -0.105384 0.452059 0.000000
vt -0.000000 0.950000 0.000000
vt -0.052691 0.450825 0.000000
vt -0.000000 0.452113 0.000000
vt -0.157957 0.455815 0.000000
vt -0.109141 0.950000 0.000000
vt -0.072771 0.450789 0.000000
vt -0.000000 0.950000 0.000000
vt -0.036378 0.450667 0.000000
vt -0.000000 0.451748 0.000000
vt -0.109141 0.452113 0.000000
vt 1.665185 0.283709 0.000000
vt 1.522538 0.257483 0.000000
vt 1.617096 0.243132 0.000000
vt 1.522078 0.235635 0.000000
vt 1.517679 0.214294 0.000000
vt 1.694923 0.433437 0.000000
vt 1.612135 0.392859 0.000000
vt 1.519031 0.279011 0.000000
vt 1.692003 -0.310632 0.000000
vt 1.601665 -0.350762 0.000000
vt 1.668272 -0.401609 0.000000
vt 1.469896 -0.363467 0.000000
vt 1.449144 -0.375963 0.000000
vt 1.688646 -0.161413 0.000000
vt 1.623066 -0.204334 0.000000
vt 1.624652 -0.284714 0.000000
vt 1.597788 -0.141338 0.000000
vt 1.662088 -0.086722 0.000000
vt 1.447521 -0.121306 0.000000
vt 1.567431 -0.061532 0.000000
vt 1.687711 0.053249 0.000000
vt 1.608063 0.101183 0.000000
vt 1.662966 0.195760 0.000000
vt 1.570821 -0.435233 0.000000
vt 1.612135 -0.603403 0.000000
vt 1.694923 -0.562825 0.000000
vt 1.467911 -0.133333 0.000000
vt 1.486509 -0.147309 0.000000
vt 1.566549 -0.151564 0.000000
vt 1.534846 -0.158485 0.000000
vt 1.502872 -0.163459 0.000000
vt 1.488720 -0.348896 0.000000
vt 1.569770 -0.342005 0.000000
vt 1.537545 -0.336170 0.000000
vt 1.505132 -0.332017 0.000000
vt 0.430874 0.485695 0.000000
vt 0.430874 0.950000 0.000000
vt 0.288352 0.461529 0.000000
vt 0.000000 0.950000 0.000000
vt 0.143889 0.456335 0.000000
vt 0.000000 0.470204 0.000000
vt 0.000000 0.950000 0.000000
vt 0.028462 0.469627 0.000000
vt 0.085402 0.950000 0.000000
vt 0.056936 0.469541 0.000000
vt 0.085402 0.470204 0.000000
vt 0.000000 0.470463 0.000000
vt 0.000000 0.950000 0.000000
vt 0.141987 0.462023 0.000000
vt 0.429270 0.950000 0.000000
vt 0.285907 0.456779 0.000000
vt 0.429270 0.470463 0.000000
vt 0.000000 0.486106 0.000000
vt 0.085675 0.486106 0.000000
vt 0.085675 0.950000 0.000000
vt 0.057233 0.481111 0.000000
vt 0.000000 0.950000 0.000000
vt 0.028668 0.476875 0.000000
vt 0.000000 0.473401 0.000000
vn -0.000000 0.100000 -0.000000
vn -0.000000 0.100000 -0.000000
vn -0.000000 0.100000 -0.000000
vn -0.000000 0.100000 -0.000000
vn -0.000000 0.100000 -0.000000
vn -0.000000 0.100000 -0.000000
vn -0.000000 0.100000 -0.000000
vn -0.000000 0.100000 -0.000000
vn -0.000000 0.100000 -0.000000
vn -0.000000 0.100000 -0.000000
vn -0.000000 0.100000 -0.000000
vn -0.093746 0.000000 -0.034810
vn -0.093746 0.000000 -0.034810
vn -0.093746 0.000000 -0.034810
vn -0.093746 0.000000 -0.034810
vn -0.093746 0.000000 -0.034810
vn -0.093746 0.000000 -0.034810
vn 0.093988 0.000000 -0.034152
vn 0.093988 0.000000 -0.034152
vn 0.093988 0.000000 -0.034152
vn 0.093988 0.000000 -0.034152
vn 0.093988 0.000000 -0.034152
vn 0.093988 0.000000 -0.034152
vn 0.000000 0.000000 -0.100000
vn 0.000000 0.000000 -0.100000
vn 0.000000 0.000000 -0.100000
vn 0.000000 0.000000 -0.100000
vn 0.000000 0.000000 -0.100000
vn 0.000000 0.000000 -0.100000
vn -0.093342 0.000000 -0.035879
vn -0.093342 0.000000 -0.035879
vn -0.093342 0.000000 -0.035879
vn -0.093342 0.000000 -0.035879
vn -0.093342 0.000000 -0.035879
vn -0.093342 0.000000 -0.035879
vn 0.000000 0.000000 -0.100000
vn 0.000000 0.000000 -0.100000
vn 0.000000 0.000000 -0.100000
vn 0.000000 0.000000 -0.100000
vn 0.000000 0.000000 -0.100000
vn 0.000000 0.000000 -0.100000
vn 0.093969 0.000000 -0.034202
vn 0.093969 0.000000 -0.034202
vn 0.093969 0.000000 -0.034202
vn 0.093969 0.000000 -0.034202
vn 0.093969 0.000000 -0.034202
vn 0.093969 0.000000 -0.034202
vn 0.000000 0.000000 0.100000
vn 0.000000 0.000000 0.100000
vn 0.000000 0.000000 0.100000
vn 0.000000 0.000000 0.100000
vn 0.000000 0.000000 0.100000
vn 0.000000 0.000000 0.100000
vn 0.001281 -0.099825 0.005770
vn 0.000995 -0.098226 0.018726
vn -0.000384 -0.099472 0.010255
vn -0.001590 -0.098218 0.018726
vn -0.004174 -0.098142 0.018726
vn 0.002950 -0.099948 0.001275
vn 0.008435 -0.099425 0.006599
vn 0.003579 -0.098166 0.018726
vn 0.001317 -0.099939 -0.003220
vn 0.006973 -0.099319 -0.009338
vn 0.004619 -0.099841 -0.003220
vn 0.015471 -0.097218 -0.017586
vn 0.018119 -0.096760 -0.017586
vn -0.001987 -0.099928 -0.003220
vn -0.002707 -0.099526 -0.009338
vn 0.002136 -0.099540 -0.009338
vn -0.007542 -0.099277 -0.009338
vn -0.005288 -0.099808 -0.003220
vn -0.018317 -0.096722 -0.017586
vn -0.013639 -0.098909 -0.005576
vn -0.003652 -0.099925 0.001275
vn -0.008897 -0.099385 0.006599
vn -0.002016 -0.099813 0.005770
vn 0.013309 -0.098953 -0.005575
vn -0.015735 -0.097176 -0.017586
vn -0.013142 -0.097560 -0.017586
vn -0.008546 -0.098897 -0.012100
vn -0.009545 -0.098429 -0.014850
vn -0.010539 -0.097876 -0.017586
vn 0.012812 -0.097604 -0.017586
vn 0.008034 -0.098940 -0.012100
vn 0.009091 -0.098472 -0.014850
vn 0.010143 -0.097918 -0.017586
vn 0.092835 -0.000000 0.037172
vn 0.092835 -0.000000 0.037172
vn 0.092835 -0.000000 0.037172
vn 0.092835 -0.000000 0.037172
vn 0.092835 -0.000000 0.037172
vn 0.092835 -0.000000 0.037172
vn 0.000000 0.000000 0.100000
vn 0.000000 0.000000 0.100000
vn 0.000000 0.000000 0.100000
vn 0.000000 0.000000 0.100000
vn 0.000000 0.000000 0.100000
vn 0.000000 0.000000 0.100000
vn -0.093181 0.000000 0.036294
vn -0.093181 0.000000 0.036294
vn -0.093181 0.000000 0.036294
vn -0.093181 0.000000 0.036294
vn -0.093181 0.000000 0.036294
vn -0.093181 0.000000 0.036294
vn 0.000000 0.000000 -0.100000
vn 0.000000 0.000000 -0.100000
vn 0.000000 0.000000 -0.100000
vn 0.000000 0.000000 -0.100000
vn 0.000000 0.000000 -0.100000
vn 0.000000 0.000000 -0.100000
usemtl ABS_(White)
f 2/1/1 4/2/2 1/3/3
f 1/3/3 4/2/2 5/4/4
f 1/3/3 5/4/4 7/5/5
f 7/5/5 5/4/4 6/6/6
f 4/2/2 2/1/1 11/7/7
f 11/7/7 2/1/1 3/8/8
f 11/7/7 3/8/8 10/9/9
f 10/9/9 3/8/8 8/10/10
f 10/9/9 8/10/10 9/11/11
f 8/10/10 3/8/8 1/3/3
f 7/5/5 8/10/10 1/3/3
f 15/12/12 2/13/13 14/14/14
f 14/14/14 2/13/13 1/15/15
f 14/14/14 1/15/15 13/16/16
f 13/16/16 1/15/15 12/17/17
f 19/18/18 9/19/19 18/20/20
f 18/20/20 9/19/19 8/21/21
f 18/20/20 8/21/21 17/22/22
f 17/22/22 8/21/21 16/23/23
f 16/24/24 8/25/25 22/26/26
f 22/26/26 8/25/25 7/27/27
f 22/26/26 7/27/27 21/28/28
f 21/28/28 7/27/27 20/29/29
f 6/30/30 24/31/31 7/32/32
f 7/32/32 24/31/31 25/33/33
f 7/32/32 25/33/33 20/34/34
f 6/30/30 23/35/35 24/31/31
f 5/36/36 27/37/37 6/38/38
f 6/38/38 27/37/37 28/39/39
f 6/38/38 28/39/39 23/40/40
f 5/36/36 26/41/41 27/37/37
f 2/42/42 29/43/43 3/44/44
f 3/44/44 29/43/43 30/45/45
f 3/44/44 30/45/45 31/46/46
f 2/42/42 15/47/47 29/43/43
f 3/48/48 32/49/49 1/50/50
f 1/50/50 32/49/49 33/51/51
f 1/50/50 33/51/51 12/52/52
f 3/48/48 31/53/53 32/49/49
f 14/54/54 37/55/55 15/56/56
f 15/56/56 37/55/55 38/57/57
f 15/56/56 38/57/57 39/58/58
f 13/59/59 35/60/60 14/54/54
f 14/54/54 35/60/60 36/61/61
f 14/54/54 36/61/61 37/55/55
f 33/62/62 20/63/63 12/64/64
f 12/64/64 20/63/63 27/65/65
f 12/64/64 27/65/65 26/66/66
f 32/67/67 22/68/68 33/62/62
f 33/62/62 22/68/68 21/69/69
f 33/62/62 21/69/69 20/63/63
f 22/68/68 32/67/67 16/70/70
f 16/70/70 32/67/67 31/71/71
f 16/70/70 31/71/71 42/72/72
f 42/72/72 31/71/71 41/73/73
f 41/73/73 31/71/71 30/74/74
f 41/73/73 30/74/74 40/75/75
f 40/75/75 30/74/74 29/76/76
f 40/75/75 29/76/76 15/56/56
f 26/66/66 34/77/77 12/64/64
f 12/64/64 34/77/77 35/78/60
f 12/64/64 35/78/60 13/79/59
f 39/58/58 40/75/75 15/56/56
f 42/72/72 43/80/78 16/70/70
f 16/70/70 43/80/78 44/81/79
f 16/70/70 44/81/79 17/82/80
f 17/82/80 44/81/79 18/83/81
f 18/83/81 44/81/79 19/84/82
f 27/65/65 20/63/63 28/85/83
f 28/85/83 20/63/63 25/86/84
f 28/85/83 25/86/84 24/87/85
f 24/87/85 23/88/86 28/85/83
f 26/89/87 5/90/88 34/91/89
f 34/91/89 5/90/88 4/92/90
f 34/91/89 4/92/90 35/93/91
f 35/93/91 4/92/90 36/94/92
f 11/95/93 38/96/94 4/97/95
f 4/97/95 38/96/94 37/98/96
f 4/97/95 37/98/96 36/99/97
f 11/95/93 39/100/98 38/96/94
f 10/101/99 41/102/100 11/103/101
f 11/103/101 41/102/100 40/104/102
f 11/103/101 40/104/102 39/105/103
f 10/101/99 42/106/104 41/102/100
f 42/107/105 10/108/106 43/109/107
f 43/109/107 10/108/106 9/110/108
f 43/109/107 9/110/108 44/111/109
f 44/111/109 9/110/108 19/112/110
# 44 vertices
# 112 texture params
# 110 normals
# 88 facets

# 1 groups
