# WaveFront *.obj file (generated by Autodesk ATF)

mtllib steamdeck_steamdeck_step_20220202 v37_JoystickLeftTouch.mtl

g JoystickLeftTouch

v -95.217716 -3.575000 34.500000
v -95.676792 -3.575000 31.896445
v -96.998652 -3.575000 29.606918
v -99.023858 -3.575000 27.907568
v -101.508141 -3.575000 27.003363
v -104.151859 -3.575000 27.003363
v -106.636142 -3.575000 27.907568
v -108.661348 -3.575000 29.606918
v -109.983208 -3.575000 31.896445
v -110.442284 -3.575000 34.500000
v -109.983208 -3.575000 37.103555
v -108.661348 -3.575000 39.393082
v -106.636142 -3.575000 41.092432
v -104.151859 -3.575000 41.996637
v -101.508141 -3.575000 41.996637
v -99.023858 -3.575000 41.092432
v -96.998652 -3.575000 39.393082
v -95.676792 -3.575000 37.103555
v -102.830000 -6.200000 34.500000
v -108.121145 -5.009135 34.500000
v -105.541751 -5.898606 34.500000
v -105.264271 -5.009135 39.197929
v -97.976902 -5.009135 36.607998
v -97.976902 -5.009135 32.392002
v -105.264271 -5.009135 29.802071
v -97.588137 -5.009135 35.220477
v -100.143506 -5.898606 34.869250
v -100.143506 -5.898606 34.130750
v -97.588137 -5.009135 33.779523
v -100.342751 -5.898606 35.580365
v -99.778701 -5.009135 38.822706
v -101.266187 -5.898606 36.715419
v -100.726464 -5.898606 36.211353
v -98.725599 -5.009135 37.839178
v -101.058103 -5.009135 39.485639
v -101.921890 -5.898606 37.055177
v -102.468920 -5.009135 39.778810
v -102.644944 -5.898606 37.205429
v -103.906515 -5.009135 39.680476
v -103.381722 -5.898606 37.155032
v -106.441488 -5.009135 38.366959
v -104.680914 -5.898606 36.481845
v -104.077582 -5.898606 36.907724
v -107.350857 -5.009135 37.249194
v -105.146973 -5.898606 35.908982
v -107.924935 -5.009135 35.927534
v -105.441192 -5.898606 35.231622
v -107.924935 -5.009135 33.072466
v -105.441192 -5.898606 33.768378
v -107.350857 -5.009135 31.750806
v -105.146973 -5.898606 33.091018
v -106.441488 -5.009135 30.633041
v -104.680914 -5.898606 32.518155
v -104.077582 -5.898606 32.092276
v -102.468920 -5.009135 29.221190
v -102.644944 -5.898606 31.794571
v -103.381722 -5.898606 31.844968
v -103.906515 -5.009135 29.319524
v -101.058103 -5.009135 29.514361
v -101.921890 -5.898606 31.944823
v -99.778701 -5.009135 30.177294
v -101.266187 -5.898606 32.284581
v -98.725599 -5.009135 31.160822
v -100.726464 -5.898606 32.788647
v -100.342751 -5.898606 33.419635
vt 3.133310 -9.567679 0.000000
vt 3.393666 -11.044228 0.000000
vt 3.393666 -9.521772 0.000000
vt 3.654021 -10.998321 0.000000
vt 3.654021 -9.567679 0.000000
vt 3.882974 -10.866135 0.000000
vt 3.882974 -9.699865 0.000000
vt 4.052909 -10.663614 0.000000
vt 4.052909 -9.902386 0.000000
vt 4.143329 -10.415186 0.000000
vt 4.143329 -10.150814 0.000000
vt 3.133310 -10.998321 0.000000
vt 2.904358 -9.699865 0.000000
vt 2.904358 -10.866135 0.000000
vt 2.734423 -9.902386 0.000000
vt 2.644002 -10.150814 0.000000
vt 2.644002 -10.415186 0.000000
vt 2.734423 -10.663614 0.000000
vt 1.119725 -0.140537 0.000000
vt 1.393128 -0.054993 0.000000
vt 1.119725 -0.000000 0.000000
vt 1.393128 0.054993 0.000000
vt 1.119725 0.140537 0.000000
vt 1.393128 0.164978 0.000000
vt 1.119725 0.281074 0.000000
vt 1.393128 0.274964 0.000000
vt 1.393128 0.384949 0.000000
vt 1.666531 0.274964 0.000000
vt 1.666531 0.384949 0.000000
vt 1.939933 0.274964 0.000000
vt 1.393128 -0.164978 0.000000
vt 1.119725 -0.281074 0.000000
vt 1.393128 -0.274964 0.000000
vt 1.393128 -0.384949 0.000000
vt 1.666531 -0.384949 0.000000
vt 1.666531 -0.494934 0.000000
vt 1.939933 -0.421611 0.000000
vt 1.119725 -0.421611 0.000000
vt 1.393128 -0.494934 0.000000
vt 1.666531 -0.604920 0.000000
vt 1.939933 -0.604920 0.000000
vt 1.119725 -0.562148 0.000000
vt 1.393128 -0.604920 0.000000
vt 1.666531 -0.714905 0.000000
vt 1.939933 -0.714905 0.000000
vt 1.119725 -0.702685 0.000000
vt 1.393128 -0.714905 0.000000
vt 1.666531 -0.824891 0.000000
vt 1.939933 -0.824891 0.000000
vt 1.393128 -0.824891 0.000000
vt 1.119725 -0.843222 0.000000
vt 1.393128 -0.934876 0.000000
vt 1.119725 -0.983759 0.000000
vt 1.393128 -1.044862 0.000000
vt 1.119725 -1.124296 0.000000
vt 1.393128 -1.154847 0.000000
vt 1.119725 -1.264832 0.000000
vt 1.393128 -1.264832 0.000000
vt 1.393128 1.264832 0.000000
vt 1.119725 1.264832 0.000000
vt 1.393128 1.154847 0.000000
vt 1.666531 1.154847 0.000000
vt 1.666531 1.044862 0.000000
vt 1.939933 1.044862 0.000000
vt 1.119725 1.124296 0.000000
vt 1.393128 1.044862 0.000000
vt 1.666531 0.934876 0.000000
vt 1.939933 0.934876 0.000000
vt 1.119725 0.983759 0.000000
vt 1.393128 0.934876 0.000000
vt 1.666531 0.824891 0.000000
vt 1.939933 0.824891 0.000000
vt 1.119725 0.843222 0.000000
vt 1.393128 0.824891 0.000000
vt 1.666531 0.714905 0.000000
vt 1.939933 0.714905 0.000000
vt 1.119725 0.702685 0.000000
vt 1.393128 0.714905 0.000000
vt 1.666531 0.604920 0.000000
vt 1.939933 0.604920 0.000000
vt 1.393128 0.604920 0.000000
vt 1.119725 0.562148 0.000000
vt 1.393128 0.494934 0.000000
vt 1.119725 0.421611 0.000000
vt 1.666531 -1.264832 0.000000
vt 1.939933 -1.264832 0.000000
vt 1.666531 -1.154847 0.000000
vt 1.939933 -1.154847 0.000000
vt 1.666531 -1.044862 0.000000
vt 1.939933 -1.044862 0.000000
vt 1.666531 -0.934876 0.000000
vt 1.939933 -0.934876 0.000000
vt 1.939933 -0.384949 0.000000
vt 1.666531 -0.274964 0.000000
vt 1.939933 -0.274964 0.000000
vt 1.666531 -0.164978 0.000000
vt 1.939933 -0.164978 0.000000
vt 1.666531 -0.054993 0.000000
vt 1.939933 -0.054993 0.000000
vt 1.666531 0.054993 0.000000
vt 1.939933 0.054993 0.000000
vt 1.666531 0.164978 0.000000
vt 1.939933 0.164978 0.000000
vt 1.666531 0.494934 0.000000
vt 1.939933 0.494934 0.000000
vt 1.939933 1.154847 0.000000
vt 1.666531 1.264832 0.000000
vt 1.939933 0.421611 0.000000
vn 0.000000 0.100000 0.000000
vn 0.000000 0.100000 0.000000
vn 0.000000 0.100000 0.000000
vn 0.000000 0.100000 0.000000
vn 0.000000 0.100000 0.000000
vn 0.000000 0.100000 0.000000
vn 0.000000 0.100000 0.000000
vn 0.000000 0.100000 0.000000
vn 0.000000 0.100000 0.000000
vn 0.000000 0.100000 0.000000
vn 0.000000 0.100000 0.000000
vn 0.000000 0.100000 0.000000
vn 0.000000 0.100000 0.000000
vn 0.000000 0.100000 0.000000
vn 0.000000 0.100000 0.000000
vn 0.000000 0.100000 0.000000
vn 0.000000 0.100000 0.000000
vn 0.000000 0.100000 0.000000
vn 0.057921 -0.078745 0.021081
vn 0.042444 -0.090357 0.005834
vn 0.061638 -0.078745 0.000000
vn 0.042444 -0.090357 -0.005834
vn 0.057921 -0.078745 -0.021081
vn 0.039296 -0.090357 -0.017069
vn 0.047217 -0.078745 -0.039620
vn 0.033234 -0.090357 -0.027038
vn 0.024707 -0.090357 -0.035002
vn 0.017033 -0.097560 -0.013857
vn 0.012662 -0.097560 -0.017939
vn 0.000000 -0.100000 -0.000000
vn 0.039296 -0.090357 0.017069
vn 0.047217 -0.078745 0.039620
vn 0.033234 -0.090357 0.027038
vn 0.024707 -0.090357 0.035002
vn 0.012662 -0.097560 0.017939
vn 0.007353 -0.097560 0.020690
vn 0.030819 -0.078745 0.053380
vn 0.014347 -0.090357 0.040370
vn 0.001498 -0.097560 0.021906
vn 0.010703 -0.078745 0.060702
vn 0.002924 -0.090357 0.042743
vn -0.004467 -0.097560 0.021498
vn -0.010703 -0.078745 0.060702
vn -0.008717 -0.090357 0.041947
vn -0.010102 -0.097560 0.019496
vn -0.019711 -0.090357 0.038040
vn -0.030819 -0.078745 0.053380
vn -0.029243 -0.090357 0.031311
vn -0.047217 -0.078745 0.039620
vn -0.036606 -0.090357 0.022261
vn -0.057921 -0.078745 0.021081
vn -0.041255 -0.090357 0.011559
vn -0.061638 -0.078745 0.000000
vn -0.042843 -0.090357 0.000000
vn -0.041255 -0.090357 -0.011559
vn -0.021143 -0.097560 -0.005924
vn -0.018761 -0.097560 -0.011409
vn -0.057921 -0.078745 -0.021081
vn -0.036606 -0.090357 -0.022261
vn -0.014987 -0.097560 -0.016047
vn -0.047217 -0.078745 -0.039620
vn -0.029243 -0.090357 -0.031311
vn -0.010102 -0.097560 -0.019496
vn -0.030819 -0.078745 -0.053380
vn -0.019711 -0.090357 -0.038040
vn -0.004467 -0.097560 -0.021498
vn -0.010703 -0.078745 -0.060702
vn -0.008717 -0.090357 -0.041947
vn 0.001498 -0.097560 -0.021906
vn 0.002924 -0.090357 -0.042743
vn 0.010703 -0.078745 -0.060702
vn 0.014347 -0.090357 -0.040370
vn 0.030819 -0.078745 -0.053380
vn -0.021957 -0.097560 -0.000000
vn -0.021143 -0.097560 0.005924
vn -0.018761 -0.097560 0.011409
vn -0.014987 -0.097560 0.016047
vn 0.017033 -0.097560 0.013857
vn 0.020140 -0.097560 0.008748
vn 0.021753 -0.097560 0.002990
vn 0.021753 -0.097560 -0.002990
vn 0.020140 -0.097560 -0.008748
vn 0.007353 -0.097560 -0.020690
usemtl ABS_(White)
f 2/1/1 10/2/2 1/3/3
f 1/3/3 10/2/2 11/4/4
f 1/3/3 11/4/4 18/5/5
f 18/5/5 11/4/4 12/6/6
f 18/5/5 12/6/6 17/7/7
f 17/7/7 12/6/6 13/8/8
f 17/7/7 13/8/8 16/9/9
f 16/9/9 13/8/8 14/10/10
f 16/9/9 14/10/10 15/11/11
f 10/2/2 2/1/1 9/12/12
f 9/12/12 2/1/1 3/13/13
f 9/12/12 3/13/13 8/14/14
f 8/14/14 3/13/13 4/15/15
f 8/14/14 4/15/15 5/16/16
f 5/16/16 6/17/17 8/14/14
f 8/14/14 6/17/17 7/18/18
f 18/19/19 26/20/20 1/21/21
f 1/21/21 26/20/20 29/22/22
f 1/21/21 29/22/22 2/23/23
f 2/23/23 29/22/22 24/24/24
f 2/23/23 24/24/24 3/25/25
f 3/25/25 24/24/24 63/26/26
f 3/25/25 63/26/26 61/27/27
f 61/27/27 63/26/26 64/28/28
f 61/27/27 64/28/28 62/29/29
f 62/29/29 64/28/28 19/30/30
f 26/20/20 18/19/19 23/31/31
f 23/31/31 18/19/19 17/32/32
f 23/31/31 17/32/32 34/33/33
f 34/33/33 17/32/32 31/34/34
f 34/33/33 31/34/34 32/35/35
f 32/35/35 31/34/34 36/36/36
f 32/35/35 36/36/36 19/37/30
f 17/32/32 16/38/37 31/34/34
f 31/34/34 16/38/37 35/39/38
f 31/34/34 35/39/38 36/36/36
f 36/36/36 35/39/38 38/40/39
f 36/36/36 38/40/39 19/41/30
f 16/38/37 15/42/40 35/39/38
f 35/39/38 15/42/40 37/43/41
f 35/39/38 37/43/41 38/40/39
f 38/40/39 37/43/41 40/44/42
f 38/40/39 40/44/42 19/45/30
f 15/42/40 14/46/43 37/43/41
f 37/43/41 14/46/43 39/47/44
f 37/43/41 39/47/44 40/44/42
f 40/44/42 39/47/44 43/48/45
f 40/44/42 43/48/45 19/49/30
f 39/47/44 14/46/43 22/50/46
f 22/50/46 14/46/43 13/51/47
f 22/50/46 13/51/47 41/52/48
f 41/52/48 13/51/47 12/53/49
f 41/52/48 12/53/49 44/54/50
f 44/54/50 12/53/49 11/55/51
f 44/54/50 11/55/51 46/56/52
f 46/56/52 11/55/51 10/57/53
f 46/56/52 10/57/53 20/58/54
f 20/59/54 10/60/53 48/61/55
f 20/59/54 48/61/55 49/62/56
f 49/62/56 48/61/55 51/63/57
f 49/62/56 51/63/57 19/64/30
f 10/60/53 9/65/58 48/61/55
f 48/61/55 9/65/58 50/66/59
f 48/61/55 50/66/59 51/63/57
f 51/63/57 50/66/59 53/67/60
f 51/63/57 53/67/60 19/68/30
f 9/65/58 8/69/61 50/66/59
f 50/66/59 8/69/61 52/70/62
f 50/66/59 52/70/62 53/67/60
f 53/67/60 52/70/62 54/71/63
f 53/67/60 54/71/63 19/72/30
f 8/69/61 7/73/64 52/70/62
f 52/70/62 7/73/64 25/74/65
f 52/70/62 25/74/65 54/71/63
f 54/71/63 25/74/65 57/75/66
f 54/71/63 57/75/66 19/76/30
f 7/73/64 6/77/67 25/74/65
f 25/74/65 6/77/67 58/78/68
f 25/74/65 58/78/68 57/75/66
f 57/75/66 58/78/68 56/79/69
f 57/75/66 56/79/69 19/80/30
f 58/78/68 6/77/67 55/81/70
f 55/81/70 6/77/67 5/82/71
f 55/81/70 5/82/71 59/83/72
f 59/83/72 5/82/71 4/84/73
f 59/83/72 4/84/73 61/27/27
f 61/27/27 4/84/73 3/25/25
f 21/85/74 19/86/30 47/87/75
f 47/87/75 19/88/30 45/89/76
f 45/89/76 19/90/30 42/91/77
f 42/91/77 19/92/30 43/48/45
f 32/35/35 19/93/30 33/94/78
f 33/94/78 19/95/30 30/96/79
f 30/96/79 19/97/30 27/98/80
f 27/98/80 19/99/30 28/100/81
f 28/100/81 19/101/30 65/102/82
f 65/102/82 19/103/30 64/28/28
f 60/104/83 19/105/30 56/79/69
f 49/62/56 19/106/30 21/107/74
f 20/58/54 21/85/74 46/56/52
f 46/56/52 21/85/74 47/87/75
f 46/56/52 47/87/75 44/54/50
f 44/54/50 47/87/75 45/89/76
f 44/54/50 45/89/76 41/52/48
f 41/52/48 45/89/76 42/91/77
f 41/52/48 42/91/77 22/50/46
f 22/50/46 42/91/77 43/48/45
f 22/50/46 43/48/45 39/47/44
f 21/107/74 20/59/54 49/62/56
f 62/29/29 19/108/30 60/104/83
f 26/20/20 27/98/80 29/22/22
f 29/22/22 27/98/80 28/100/81
f 29/22/22 28/100/81 24/24/24
f 24/24/24 28/100/81 65/102/82
f 24/24/24 65/102/82 63/26/26
f 63/26/26 65/102/82 64/28/28
f 27/98/80 26/20/20 30/96/79
f 30/96/79 26/20/20 23/31/31
f 30/96/79 23/31/31 33/94/78
f 33/94/78 23/31/31 34/33/33
f 33/94/78 34/33/33 32/35/35
f 60/104/83 56/79/69 55/81/70
f 55/81/70 56/79/69 58/78/68
f 62/29/29 60/104/83 59/83/72
f 59/83/72 60/104/83 55/81/70
f 61/27/27 62/29/29 59/83/72
# 65 vertices
# 108 texture params
# 83 normals
# 126 facets

# 1 groups
