# WaveFront *.obj file (generated by Autodesk ATF)

mtllib steamdeck_steamdeck_step_20220202 v37_StartIcon.mtl

g StartIcon

v -115.125008 2.500000 52.750000
v -115.125008 2.500000 52.350000
v -116.525008 2.500000 52.350000
v -116.525008 2.500000 51.950000
v -115.618456 2.500000 51.950000
v -115.618456 2.500000 51.550000
v -116.925008 2.500000 51.550000
v -116.925008 2.500000 50.950000
v -115.318456 2.500000 50.950000
v -115.318456 2.500000 51.950000
v -113.318456 2.500000 51.950000
v -113.318456 2.500000 52.750000
v -115.318456 -1.207362 50.950000
v -115.318456 -1.249165 51.950000
v -113.318456 3.000000 50.950000
v -113.318456 -1.180339 50.950000
v -113.985008 -1.196791 50.950000
v -114.651702 -1.205799 50.950000
v -116.925008 3.000000 50.950000
v -113.318456 -1.222162 51.950000
v -113.985008 -1.238602 51.950000
v -114.651702 -1.247604 51.950000
v -113.318456 3.000000 52.750000
v -115.125008 -1.207675 52.750000
v -115.125000 -1.219294 52.616807
v -115.125000 -1.229055 52.483465
v -115.125008 -1.236957 52.350000
v -116.925008 3.000000 52.750000
v -116.925008 -1.180537 52.750000
v -116.325109 -1.195613 52.750000
v -115.725089 -1.204659 52.750000
v -116.925008 -1.218185 51.550000
v -115.618456 -1.243269 51.550000
v -116.054030 -1.238083 51.550000
v -116.489555 -1.229722 51.550000
v -115.618456 -1.247441 51.950000
v -115.920663 -1.244181 51.950000
v -116.222849 -1.239392 51.950000
v -116.525008 -1.233074 51.950000
v -116.525008 -1.220549 52.350000
v -116.058389 -1.229664 52.350000
v -115.591713 -1.235134 52.350000
vt -0.090000 -0.000328 0.000000
vt -0.050000 -0.000328 0.000000
vt -0.090000 0.180328 0.000000
vt -0.010000 0.180328 0.000000
vt -0.010000 -0.019672 0.000000
vt -0.010000 -0.049672 0.000000
vt 0.030000 -0.049672 0.000000
vt -0.050000 -0.140328 0.000000
vt -0.010000 -0.140328 0.000000
vt 0.030000 -0.180328 0.000000
vt 0.090000 -0.180328 0.000000
vt 0.090000 -0.019672 0.000000
vt 0.000000 0.650000 0.000000
vt 0.000000 0.279264 0.000000
vt 0.100000 0.650000 0.000000
vt 0.100000 0.275083 0.000000
vt 0.000000 0.281966 0.000000
vt 0.066655 0.280321 0.000000
vt 0.000000 0.700000 0.000000
vt 0.200000 0.650000 0.000000
vt 0.360655 0.700000 0.000000
vt 0.360655 0.650000 0.000000
vt 0.133325 0.279420 0.000000
vt 0.200000 0.279264 0.000000
vt 0.090133 -17.363442 0.000000
vt -0.010000 -17.363569 0.000000
vt 0.090133 -17.430156 0.000000
vt -0.010000 -17.430236 0.000000
vt 0.090133 -17.496870 0.000000
vt -0.010000 -17.496903 0.000000
vt 0.090133 -17.563584 0.000000
vt -0.010000 -17.563570 0.000000
vt 0.200000 0.277784 0.000000
vt 0.200000 0.650000 0.000000
vt 0.133345 0.276140 0.000000
vt 0.000000 0.650000 0.000000
vt 0.066675 0.275240 0.000000
vt 0.000000 0.275083 0.000000
vt 0.000000 0.277784 0.000000
vt 0.100000 0.281966 0.000000
vt 0.000000 0.650000 0.000000
vt 0.100000 0.700000 0.000000
vt -0.080000 0.700000 0.000000
vt -0.080000 0.650000 0.000000
vt 0.000000 0.650000 0.000000
vt 0.013319 0.278071 0.000000
vt 0.040000 0.650000 0.000000
vt 0.026653 0.277094 0.000000
vt 0.040000 0.276304 0.000000
vt 0.000000 0.279232 0.000000
vt 0.000000 0.281946 0.000000
vt 0.059990 0.280439 0.000000
vt 0.000000 0.700000 0.000000
vt 0.180000 0.650000 0.000000
vt 0.360655 0.700000 0.000000
vt 0.360655 0.650000 0.000000
vt 0.119992 0.279534 0.000000
vt 0.180000 0.279232 0.000000
vt 0.000000 0.278182 0.000000
vt 0.120000 0.281946 0.000000
vt 0.000000 0.650000 0.000000
vt 0.120000 0.700000 0.000000
vt -0.060000 0.700000 0.000000
vt -0.060000 0.650000 0.000000
vt 0.130655 0.278182 0.000000
vt 0.130655 0.650000 0.000000
vt 0.087110 0.277028 0.000000
vt 0.000000 0.650000 0.000000
vt 0.043557 0.276192 0.000000
vt 0.000000 0.275673 0.000000
vt -0.090133 -17.534256 0.000000
vt -0.090133 -17.594265 0.000000
vt -0.076763 -17.534255 0.000000
vt -0.050023 -17.580904 0.000000
vt -0.063393 -17.534255 0.000000
vt -0.050023 -17.534256 0.000000
vt -0.050023 -17.627552 0.000000
vt -0.090133 -17.654274 0.000000
vt -0.050023 -17.674200 0.000000
vt -0.090133 -17.714283 0.000000
vt 0.030005 -17.714170 0.000000
vt -0.010000 -17.674171 0.000000
vt 0.030005 -17.670637 0.000000
vt -0.010000 -17.643969 0.000000
vt 0.030005 -17.627103 0.000000
vt -0.010000 -17.613768 0.000000
vt 0.030005 -17.583570 0.000000
vt -0.010000 -17.583567 0.000000
vt 5.218666 -11.331846 0.000000
vt 5.038666 -11.331846 0.000000
vt 5.218666 -11.692501 0.000000
vt 5.038666 -11.692501 0.000000
vt 0.040000 0.650000 0.000000
vt -0.000000 0.650000 0.000000
vt 0.040000 0.275673 0.000000
vt -0.000000 0.275256 0.000000
vt 0.140000 0.277945 0.000000
vt 0.140000 0.650000 0.000000
vt 0.093338 0.277034 0.000000
vt -0.000000 0.650000 0.000000
vt 0.046670 0.276487 0.000000
vt -0.000000 0.276304 0.000000
vt -0.000000 0.650000 0.000000
vt -0.000000 0.277945 0.000000
vt 0.040000 0.650000 0.000000
vt 0.040000 0.276693 0.000000
vt 0.000000 0.650000 0.000000
vt 0.030216 0.276061 0.000000
vt 0.090655 0.650000 0.000000
vt 0.060435 0.275582 0.000000
vt 0.090655 0.275256 0.000000
vt 0.000000 0.276693 0.000000
vn 0.000000 -0.100000 0.000000
vn 0.000000 -0.100000 0.000000
vn 0.000000 -0.100000 0.000000
vn 0.000000 -0.100000 0.000000
vn 0.000000 -0.100000 0.000000
vn 0.000000 -0.100000 0.000000
vn 0.000000 -0.100000 0.000000
vn 0.000000 -0.100000 0.000000
vn 0.000000 -0.100000 0.000000
vn 0.000000 -0.100000 0.000000
vn 0.000000 -0.100000 0.000000
vn 0.000000 -0.100000 0.000000
vn -0.100000 0.000000 0.000000
vn -0.100000 0.000000 0.000000
vn -0.100000 0.000000 0.000000
vn -0.100000 0.000000 0.000000
vn 0.000000 0.000000 -0.100000
vn 0.000000 0.000000 -0.100000
vn 0.000000 0.000000 -0.100000
vn 0.000000 0.000000 -0.100000
vn 0.000000 0.000000 -0.100000
vn 0.000000 0.000000 -0.100000
vn 0.000000 0.000000 -0.100000
vn 0.000000 0.000000 -0.100000
vn 0.003012 -0.099513 -0.009385
vn 0.003023 -0.099949 0.001043
vn 0.001901 -0.099541 -0.009385
vn 0.001908 -0.099976 0.001043
vn 0.000789 -0.099556 -0.009385
vn 0.000792 -0.099991 0.001043
vn -0.000323 -0.099558 -0.009385
vn -0.000324 -0.099994 0.001043
vn 0.000000 0.000000 0.100000
vn 0.000000 0.000000 0.100000
vn 0.000000 0.000000 0.100000
vn 0.000000 0.000000 0.100000
vn 0.000000 0.000000 0.100000
vn 0.000000 0.000000 0.100000
vn 0.100000 -0.000000 0.000000
vn 0.100000 -0.000000 0.000000
vn 0.100000 -0.000000 0.000000
vn 0.100000 -0.000000 0.000000
vn 0.100000 -0.000000 0.000000
vn 0.100000 -0.000000 0.000000
vn 0.100000 -0.000000 0.000000
vn 0.100000 -0.000000 0.000000
vn 0.100000 -0.000000 0.000000
vn 0.100000 -0.000000 0.000000
vn 0.100000 -0.000000 0.000000
vn 0.100000 -0.000000 0.000000
vn 0.000000 0.000000 0.100000
vn 0.000000 0.000000 0.100000
vn 0.000000 0.000000 0.100000
vn 0.000000 0.000000 0.100000
vn 0.000000 0.000000 0.100000
vn 0.000000 0.000000 0.100000
vn 0.000000 0.000000 0.100000
vn 0.000000 0.000000 0.100000
vn -0.100000 0.000000 0.000000
vn -0.100000 0.000000 0.000000
vn -0.100000 0.000000 0.000000
vn -0.100000 0.000000 0.000000
vn -0.100000 0.000000 0.000000
vn -0.100000 0.000000 0.000000
vn 0.000000 0.000000 -0.100000
vn 0.000000 0.000000 -0.100000
vn 0.000000 0.000000 -0.100000
vn 0.000000 0.000000 -0.100000
vn 0.000000 0.000000 -0.100000
vn 0.000000 0.000000 -0.100000
vn -0.000000 -0.099559 0.009385
vn -0.001001 -0.099554 0.009385
vn 0.000000 -0.099680 0.007996
vn -0.000780 -0.099861 0.005214
vn 0.000000 -0.099782 0.006605
vn -0.000000 -0.099864 0.005214
vn -0.001560 -0.099852 0.005214
vn -0.002001 -0.099539 0.009385
vn -0.002340 -0.099837 0.005214
vn -0.003001 -0.099513 0.009385
vn -0.003011 -0.099906 -0.003128
vn -0.002343 -0.099967 0.001043
vn -0.002283 -0.099925 -0.003128
vn -0.001837 -0.099978 0.001043
vn -0.001554 -0.099939 -0.003128
vn -0.001332 -0.099986 0.001043
vn -0.000826 -0.099948 -0.003128
vn -0.000826 -0.099991 0.001043
vn 0.000000 0.100000 0.000000
vn 0.000000 0.100000 0.000000
vn 0.000000 0.100000 0.000000
vn 0.000000 0.100000 0.000000
vn 0.100000 0.000000 0.000000
vn 0.100000 0.000000 0.000000
vn 0.100000 0.000000 0.000000
vn 0.100000 0.000000 0.000000
vn 0.000000 0.000000 -0.100000
vn 0.000000 0.000000 -0.100000
vn 0.000000 0.000000 -0.100000
vn 0.000000 0.000000 -0.100000
vn 0.000000 0.000000 -0.100000
vn 0.000000 0.000000 -0.100000
vn 0.100000 0.000000 0.000000
vn 0.100000 0.000000 0.000000
vn 0.100000 0.000000 0.000000
vn 0.100000 0.000000 0.000000
vn 0.000000 -0.000000 0.100000
vn 0.000000 -0.000000 0.100000
vn 0.000000 -0.000000 0.100000
vn 0.000000 -0.000000 0.100000
vn 0.000000 -0.000000 0.100000
vn 0.000000 -0.000000 0.100000
usemtl ABS_(White)
f 1/1/1 2/2/2 12/3/3
f 12/3/3 2/2/2 11/4/4
f 11/4/4 2/2/2 10/5/5
f 10/5/5 2/2/2 5/6/6
f 10/5/5 5/6/6 6/7/7
f 2/2/2 3/8/8 5/6/6
f 5/6/6 3/8/8 4/9/9
f 7/10/10 8/11/11 6/7/7
f 6/7/7 8/11/11 9/12/12
f 6/7/7 9/12/12 10/5/5
f 9/13/13 13/14/14 10/15/15
f 10/15/15 13/14/14 14/16/16
f 16/17/17 17/18/18 15/19/19
f 15/19/19 17/18/18 9/20/20
f 15/19/19 9/20/20 19/21/21
f 19/21/21 9/20/20 8/22/22
f 17/18/18 18/23/23 9/20/20
f 9/20/20 18/23/23 13/24/24
f 16/25/25 20/26/26 17/27/27
f 17/27/27 20/26/26 21/28/28
f 17/27/27 21/28/28 18/29/29
f 18/29/29 21/28/28 22/30/30
f 18/29/29 22/30/30 13/31/31
f 13/31/31 22/30/30 14/32/32
f 20/33/33 11/34/34 21/35/35
f 21/35/35 11/34/34 10/36/36
f 21/35/35 10/36/36 22/37/37
f 22/37/37 10/36/36 14/38/38
f 20/39/39 16/40/40 11/41/41
f 11/41/41 16/40/40 15/42/42
f 11/41/41 15/42/42 23/43/43
f 23/43/43 12/44/44 11/41/41
f 1/45/45 25/46/46 2/47/47
f 2/47/47 25/46/46 26/48/48
f 2/47/47 26/48/48 27/49/49
f 1/45/45 24/50/50 25/46/46
f 29/51/51 30/52/52 28/53/53
f 28/53/53 30/52/52 1/54/54
f 28/53/53 1/54/54 23/55/55
f 23/55/55 1/54/54 12/56/56
f 30/52/52 31/57/57 1/54/54
f 1/54/54 31/57/57 24/58/58
f 32/59/59 29/60/60 7/61/61
f 7/61/61 29/60/60 28/62/62
f 7/61/61 28/62/62 19/63/63
f 19/63/63 8/64/64 7/61/61
f 32/65/65 7/66/66 35/67/67
f 35/67/67 7/66/66 6/68/68
f 35/67/67 6/68/68 34/69/69
f 34/69/69 6/68/68 33/70/70
f 24/71/71 31/72/72 25/73/73
f 25/73/73 31/72/72 42/74/74
f 25/73/73 42/74/74 26/75/75
f 26/75/75 42/74/74 27/76/76
f 42/74/74 31/72/72 41/77/77
f 41/77/77 31/72/72 30/78/78
f 41/77/77 30/78/78 40/79/79
f 40/79/79 30/78/78 29/80/80
f 40/79/79 29/80/80 32/81/81
f 40/79/79 32/81/81 39/82/82
f 39/82/82 32/81/81 35/83/83
f 39/82/82 35/83/83 38/84/84
f 38/84/84 35/83/83 34/85/85
f 38/84/84 34/85/85 37/86/86
f 37/86/86 34/85/85 33/87/87
f 37/86/86 33/87/87 36/88/88
f 23/89/89 15/90/90 28/91/91
f 28/91/91 15/90/90 19/92/92
f 6/93/93 5/94/94 33/95/95
f 33/95/95 5/94/94 36/96/96
f 40/97/97 3/98/98 41/99/99
f 41/99/99 3/98/98 2/100/100
f 41/99/99 2/100/100 42/101/101
f 42/101/101 2/100/100 27/102/102
f 3/103/103 40/104/104 4/105/105
f 4/105/105 40/104/104 39/106/106
f 4/107/107 38/108/108 5/109/109
f 5/109/109 38/108/108 37/110/110
f 5/109/109 37/110/110 36/111/111
f 4/107/107 39/112/112 38/108/108
# 42 vertices
# 112 texture params
# 112 normals
# 80 facets

# 1 groups
