# WaveFront *.obj file (generated by Autodesk ATF)

mtllib steamdeck_steamdeck_step_20220202 v37_B1.mtl

g B1

v 131.122462 2.500000 30.482293
v 131.662708 2.500000 31.966604
v 132.213868 2.500000 30.482293
v 132.822326 2.500000 28.899756
v 133.700907 2.500000 28.899756
v 132.099270 2.500000 32.899756
v 131.245246 2.500000 32.899756
v 129.687265 2.500000 28.899756
v 130.544018 2.500000 28.899756
v 130.874168 2.500000 29.808350
v 132.473076 2.500000 29.808350
v 129.687265 -2.138944 28.899756
v 129.971687 -2.188894 28.899756
v 130.257339 -2.231252 28.899756
v 130.544018 -2.265990 28.899756
v 131.245246 -2.295373 32.899756
v 130.724926 -2.432211 31.563875
v 130.202589 -2.379766 30.222813
v 132.099270 -2.297959 32.899756
v 131.814605 -2.304589 32.899756
v 131.529865 -2.303727 32.899756
v 133.700907 -2.143055 28.899756
v 133.171127 -2.384710 30.222852
v 132.634133 -2.436646 31.563966
v 132.822326 -2.270601 28.899756
v 133.116311 -2.236086 28.899756
v 133.409244 -2.193560 28.899756
v 132.473076 -2.424939 29.808350
v 132.590027 -2.383187 29.504097
v 132.706478 -2.331726 29.201142
v 130.874168 -2.420352 29.808350
v 131.406853 -2.447814 29.808350
v 131.940243 -2.449344 29.808350
v 130.653530 -2.326994 29.201142
v 130.763613 -2.378463 29.504096
v 136.071011 -1.030000 30.837000
v 135.638640 -1.030000 28.942659
v 134.427164 -1.030000 27.423515
v 132.676529 -1.030000 26.580454
v 130.733471 -1.030000 26.580454
v 128.982836 -1.030000 27.423515
v 127.771360 -1.030000 28.942659
v 127.338989 -1.030000 30.837000
v 127.771360 -1.030000 32.731341
v 128.982836 -1.030000 34.250485
v 130.733471 -1.030000 35.093546
v 132.676529 -1.030000 35.093546
v 134.427164 -1.030000 34.250485
v 135.638640 -1.030000 32.731341
v 136.106181 3.000000 30.837000
v 135.670327 3.000000 32.746601
v 134.449091 3.000000 34.277982
v 132.684355 3.000000 35.127834
v 130.725645 3.000000 35.127834
v 128.960909 3.000000 34.277982
v 127.739673 3.000000 32.746601
v 127.303819 3.000000 30.837000
v 127.739673 3.000000 28.927399
v 128.960909 3.000000 27.396018
v 130.725645 3.000000 26.546166
v 132.684355 3.000000 26.546166
v 134.449091 3.000000 27.396018
v 135.670327 3.000000 28.927399
v 127.894963 -1.820121 30.837000
v 128.331379 -1.820121 29.066387
v 129.540652 -1.820121 27.701401
v 131.245751 -1.820121 27.054742
v 133.056058 -1.820121 27.274553
v 134.556854 -1.820121 28.310478
v 135.404325 -1.820121 29.925198
v 135.404325 -1.820121 31.748802
v 134.556854 -1.820121 33.363522
v 133.056058 -1.820121 34.399447
v 131.245751 -1.820121 34.619258
v 129.540652 -1.820121 33.972599
v 128.331379 -1.820121 32.607613
v 136.000022 -1.362720 30.837000
v 135.804243 -1.640950 30.837000
v 127.835319 -1.362720 28.973460
v 128.011710 -1.640950 29.058405
v 127.605757 -1.640950 30.837000
v 127.409978 -1.362720 30.837000
v 129.027098 -1.362720 27.479017
v 129.149164 -1.640950 27.632083
v 130.749268 -1.362720 26.649663
v 130.792833 -1.640950 26.840534
v 132.660732 -1.362720 26.649663
v 132.617167 -1.640950 26.840534
v 134.382902 -1.362720 27.479017
v 134.260836 -1.640950 27.632083
v 135.574681 -1.362720 28.973460
v 135.398290 -1.640950 29.058405
v 135.574681 -1.362720 32.700540
v 135.398290 -1.640950 32.615595
v 134.382902 -1.362720 34.194983
v 134.260836 -1.640950 34.041917
v 132.660732 -1.362720 35.024337
v 132.617167 -1.640950 34.833466
v 130.749268 -1.362720 35.024337
v 130.792833 -1.640950 34.833466
v 129.027098 -1.362720 34.194983
v 129.149164 -1.640950 34.041917
v 127.835319 -1.362720 32.700540
v 128.011710 -1.640950 32.615595
v 131.662708 -2.441847 31.966604
v 131.846131 -2.480740 31.472634
v 132.029992 -2.494309 30.977484
v 132.213868 -2.482522 30.482293
v 131.482897 -2.479406 31.472579
v 131.302678 -2.491755 30.977430
v 131.122462 -2.478866 30.482293
v 131.486158 -2.492113 30.482293
v 131.850092 -2.493332 30.482293
v 131.705000 -2.500000 30.837000
vt -0.121660 -0.008729 0.000000
vt -0.214976 -0.050476 0.000000
vt 0.026771 -0.062754 0.000000
vt 0.185024 -0.206274 0.000000
vt 0.094165 -0.087583 0.000000
vt 0.185024 -0.120598 0.000000
vt -0.214976 0.034927 0.000000
vt 0.026771 0.046387 0.000000
vt 0.185024 0.195091 0.000000
vt 0.094165 0.072307 0.000000
vt 0.185024 0.107232 0.000000
vt -0.085675 0.950000 0.000000
vt -0.057233 0.481111 0.000000
vt -0.000000 0.950000 0.000000
vt -0.028668 0.476875 0.000000
vt -0.000000 0.473401 0.000000
vt -0.085675 0.486106 0.000000
vt -0.000000 0.486106 0.000000
vt -0.000000 0.950000 0.000000
vt -0.141987 0.462023 0.000000
vt -0.429270 0.950000 0.000000
vt -0.285907 0.456779 0.000000
vt -0.429270 0.470463 0.000000
vt -0.000000 0.470463 0.000000
vt -0.000000 0.950000 0.000000
vt -0.028462 0.469627 0.000000
vt -0.085402 0.950000 0.000000
vt -0.056936 0.469541 0.000000
vt -0.085402 0.470204 0.000000
vt -0.430874 0.950000 0.000000
vt -0.288352 0.461529 0.000000
vt -0.000000 0.950000 0.000000
vt -0.143889 0.456335 0.000000
vt -0.000000 0.470204 0.000000
vt -0.430874 0.485695 0.000000
vt -0.000000 0.485695 0.000000
vt -0.000000 0.950000 0.000000
vt -0.029166 0.480644 0.000000
vt -0.087858 0.950000 0.000000
vt -0.058460 0.476391 0.000000
vt -0.087858 0.472940 0.000000
vt -0.000000 0.472940 0.000000
vt -0.000000 0.950000 0.000000
vt -0.032288 0.466827 0.000000
vt -0.097341 0.950000 0.000000
vt -0.064745 0.461681 0.000000
vt -0.097341 0.457506 0.000000
vt -0.159891 0.950000 0.000000
vt -0.106622 0.455219 0.000000
vt -0.000000 0.950000 0.000000
vt -0.053283 0.455066 0.000000
vt -0.000000 0.457506 0.000000
vt -0.159891 0.457965 0.000000
vt -0.096672 0.950000 0.000000
vt -0.064605 0.467301 0.000000
vt -0.000000 0.950000 0.000000
vt -0.032372 0.462154 0.000000
vt -0.000000 0.457965 0.000000
vt -0.096672 0.473401 0.000000
vt 0.201508 -1.180412 0.000000
vt -0.201508 -1.377147 0.000000
vt 0.201508 -1.377147 0.000000
vt 0.201508 1.377147 0.000000
vt -0.201508 1.377147 0.000000
vt -0.201508 1.180412 0.000000
vt 0.201508 1.180412 0.000000
vt 0.201508 0.983677 0.000000
vt -0.201508 0.983677 0.000000
vt 0.201508 0.786941 0.000000
vt -0.201508 0.786941 0.000000
vt 0.201508 0.590206 0.000000
vt -0.201508 0.590206 0.000000
vt 0.201508 0.393471 0.000000
vt -0.201508 0.393471 0.000000
vt 0.201508 0.196735 0.000000
vt -0.201508 0.196735 0.000000
vt 0.201508 0.000000 0.000000
vt -0.201508 -0.000000 0.000000
vt 0.201508 -0.196735 0.000000
vt -0.201508 -0.196735 0.000000
vt 0.201508 -0.393471 0.000000
vt -0.201508 -0.393471 0.000000
vt 0.201508 -0.590206 0.000000
vt -0.201508 -0.590206 0.000000
vt 0.201508 -0.786941 0.000000
vt -0.201508 -0.786941 0.000000
vt 0.201508 -0.983677 0.000000
vt -0.201508 -0.983677 0.000000
vt -0.201508 -1.180412 0.000000
vt 1.612135 0.607743 0.000000
vt 1.341293 0.474213 0.000000
vt 1.519031 0.431623 0.000000
vt 1.341293 0.355659 0.000000
vt 1.522538 0.398319 0.000000
vt 1.522078 0.364522 0.000000
vt 1.517679 0.331506 0.000000
vt 1.341293 0.237106 0.000000
vt 1.608063 0.156528 0.000000
vt 1.341293 0.118553 0.000000
vt 1.341293 0.000000 0.000000
vt 1.449144 -0.581605 0.000000
vt 1.341293 -0.711319 0.000000
vt 1.570821 -0.673293 0.000000
vt 1.341293 -0.829872 0.000000
vt 1.612135 -0.933448 0.000000
vt 1.341293 -0.948425 0.000000
vt 1.341293 0.592766 0.000000
vt 1.341293 -0.592766 0.000000
vt 1.469896 -0.562273 0.000000
vt 1.488720 -0.539733 0.000000
vt 1.341293 -0.474213 0.000000
vt 1.505132 -0.513622 0.000000
vt 1.624652 -0.440445 0.000000
vt 1.537545 -0.520045 0.000000
vt 1.569770 -0.529072 0.000000
vt 1.601665 -0.542620 0.000000
vt 1.341293 -0.355659 0.000000
vt 1.623066 -0.316099 0.000000
vt 1.502872 -0.252866 0.000000
vt 1.534846 -0.245172 0.000000
vt 1.566549 -0.234465 0.000000
vt 1.597788 -0.218646 0.000000
vt 1.341293 -0.237106 0.000000
vt 1.486509 -0.227882 0.000000
vt 1.467911 -0.206263 0.000000
vt 1.447521 -0.187657 0.000000
vt 1.341293 -0.118553 0.000000
vt 1.567431 -0.095189 0.000000
vt 0.000742 -0.188998 0.000000
vt 0.034994 -0.188998 0.000000
vt 0.000742 0.000000 0.000000
vt 0.034994 0.000000 0.000000
vt 0.000742 0.188998 0.000000
vt 0.034994 0.188998 0.000000
vt 0.000742 0.377996 0.000000
vt 0.034994 0.377996 0.000000
vt 0.000742 0.566994 0.000000
vt 0.034994 0.566994 0.000000
vt 0.000742 0.755992 0.000000
vt 0.034994 0.755992 0.000000
vt 0.000742 0.944990 0.000000
vt 0.034994 0.944990 0.000000
vt 0.000742 1.133988 0.000000
vt 0.034994 1.133988 0.000000
vt 0.034994 1.322986 0.000000
vt 0.069246 1.133988 0.000000
vt 0.069246 1.322986 0.000000
vt 0.103498 1.221218 0.000000
vt 0.069246 -1.322986 0.000000
vt 0.103498 -1.424754 0.000000
vt 0.103498 -1.221218 0.000000
vt 0.034994 -0.377996 0.000000
vt 0.000742 -0.377996 0.000000
vt 0.034994 -0.566994 0.000000
vt 0.000742 -0.566994 0.000000
vt 0.034994 -0.755992 0.000000
vt 0.000742 -0.755992 0.000000
vt 0.034994 -0.944990 0.000000
vt 0.000742 -0.944990 0.000000
vt 0.034994 -1.133988 0.000000
vt 0.000742 -1.133988 0.000000
vt 0.000742 -1.322986 0.000000
vt 0.034994 -1.322986 0.000000
vt 0.000742 1.322986 0.000000
vt 0.103498 0.203536 0.000000
vt 0.069246 0.188998 0.000000
vt 0.103498 0.000000 0.000000
vt 0.069246 0.000000 0.000000
vt 0.069246 -0.188998 0.000000
vt 0.069246 0.377996 0.000000
vt 0.103498 0.407073 0.000000
vt 0.069246 0.566994 0.000000
vt 0.103498 0.610609 0.000000
vt 0.069246 0.755992 0.000000
vt 0.103498 0.814145 0.000000
vt 0.069246 0.944990 0.000000
vt 0.103498 1.017681 0.000000
vt 0.069246 -1.133988 0.000000
vt 0.103498 -1.017681 0.000000
vt 0.069246 -0.944990 0.000000
vt 0.103498 -0.814145 0.000000
vt 0.069246 -0.755992 0.000000
vt 0.103498 -0.610609 0.000000
vt 0.069246 -0.566994 0.000000
vt 0.103498 -0.407073 0.000000
vt 0.069246 -0.377996 0.000000
vt 0.103498 -0.203536 0.000000
vt 0.000000 0.950000 0.000000
vt 0.052693 0.451926 0.000000
vt 0.158334 0.950000 0.000000
vt 0.105511 0.450569 0.000000
vt 0.158334 0.451748 0.000000
vt 0.000000 0.455815 0.000000
vt 1.694923 0.154706 0.000000
vt 1.730334 0.211663 0.000000
vt 1.668272 0.212249 0.000000
vt 1.665185 0.101264 0.000000
vt 1.730334 0.143931 0.000000
vt 1.617096 0.086781 0.000000
vt 1.730334 0.093132 0.000000
vt 1.687711 0.019006 0.000000
vt 1.730334 0.059266 0.000000
vt 1.662966 0.069872 0.000000
vt 1.662088 -0.030954 0.000000
vt 1.730334 0.008467 0.000000
vt 1.688646 -0.057613 0.000000
vt 1.730334 -0.042333 0.000000
vt 1.668272 -0.143345 0.000000
vt 1.730334 -0.126998 0.000000
vt 1.692003 -0.110873 0.000000
vt 1.730334 0.076199 0.000000
vt 1.730334 -0.059266 0.000000
vt 2.836406 13.567033 0.000000
vt 3.027366 12.730382 0.000000
vt 3.027366 13.610618 0.000000
vt 3.218326 12.773967 0.000000
vt 3.218326 13.567033 0.000000
vt 3.371464 12.896091 0.000000
vt 3.371464 13.444909 0.000000
vt 3.456449 13.072565 0.000000
vt 3.456449 13.268435 0.000000
vt 2.836406 12.773967 0.000000
vt 2.683268 13.444909 0.000000
vt 2.683268 12.896091 0.000000
vt 2.598282 13.268435 0.000000
vt 2.598282 13.072565 0.000000
vt 0.157957 0.455815 0.000000
vt 0.157957 0.950000 0.000000
vt 0.105384 0.452059 0.000000
vt 0.000000 0.950000 0.000000
vt 0.052691 0.450825 0.000000
vt 0.000000 0.452113 0.000000
vt 0.109141 0.452113 0.000000
vt 0.109141 0.950000 0.000000
vt 0.072771 0.450789 0.000000
vt 0.000000 0.950000 0.000000
vt 0.036378 0.450667 0.000000
vt 0.000000 0.451748 0.000000
vn 0.000000 -0.100000 0.000000
vn 0.000000 -0.100000 0.000000
vn 0.000000 -0.100000 0.000000
vn 0.000000 -0.100000 0.000000
vn 0.000000 -0.100000 0.000000
vn 0.000000 -0.100000 0.000000
vn 0.000000 -0.100000 0.000000
vn 0.000000 -0.100000 0.000000
vn 0.000000 -0.100000 0.000000
vn 0.000000 -0.100000 0.000000
vn 0.000000 -0.100000 0.000000
vn 0.000000 0.000000 0.100000
vn 0.000000 0.000000 0.100000
vn 0.000000 0.000000 0.100000
vn 0.000000 0.000000 0.100000
vn 0.000000 0.000000 0.100000
vn 0.000000 0.000000 0.100000
vn 0.093181 0.000000 -0.036294
vn 0.093181 0.000000 -0.036294
vn 0.093181 0.000000 -0.036294
vn 0.093181 0.000000 -0.036294
vn 0.093181 0.000000 -0.036294
vn 0.093181 0.000000 -0.036294
vn 0.000000 0.000000 -0.100000
vn 0.000000 0.000000 -0.100000
vn 0.000000 0.000000 -0.100000
vn 0.000000 0.000000 -0.100000
vn 0.000000 0.000000 -0.100000
vn 0.000000 0.000000 -0.100000
vn -0.092835 0.000000 -0.037172
vn -0.092835 0.000000 -0.037172
vn -0.092835 0.000000 -0.037172
vn -0.092835 0.000000 -0.037172
vn -0.092835 0.000000 -0.037172
vn -0.092835 0.000000 -0.037172
vn 0.000000 0.000000 0.100000
vn 0.000000 0.000000 0.100000
vn 0.000000 0.000000 0.100000
vn 0.000000 0.000000 0.100000
vn 0.000000 0.000000 0.100000
vn 0.000000 0.000000 0.100000
vn 0.093342 -0.000000 0.035879
vn 0.093342 -0.000000 0.035879
vn 0.093342 -0.000000 0.035879
vn 0.093342 -0.000000 0.035879
vn 0.093342 -0.000000 0.035879
vn 0.093342 -0.000000 0.035879
vn 0.000000 0.000000 0.100000
vn 0.000000 0.000000 0.100000
vn 0.000000 0.000000 0.100000
vn 0.000000 0.000000 0.100000
vn 0.000000 0.000000 0.100000
vn 0.000000 0.000000 0.100000
vn -0.093988 0.000000 0.034152
vn -0.093988 0.000000 0.034152
vn -0.093988 0.000000 0.034152
vn -0.093988 0.000000 0.034152
vn -0.093988 0.000000 0.034152
vn -0.093988 0.000000 0.034152
vn 0.090093 -0.000873 -0.043387
vn 0.099996 -0.000873 -0.000000
vn 0.099996 -0.000873 -0.000000
vn 0.090093 -0.000873 0.043387
vn 0.090093 -0.000873 0.043387
vn 0.062347 -0.000873 0.078180
vn 0.062347 -0.000873 0.078180
vn 0.022251 -0.000873 0.097489
vn 0.022251 -0.000873 0.097489
vn -0.022251 -0.000873 0.097489
vn -0.022251 -0.000873 0.097489
vn -0.062347 -0.000873 0.078180
vn -0.062347 -0.000873 0.078180
vn -0.090093 -0.000873 0.043387
vn -0.090093 -0.000873 0.043387
vn -0.099996 -0.000873 0.000000
vn -0.099996 -0.000873 -0.000000
vn -0.090093 -0.000873 -0.043387
vn -0.090093 -0.000873 -0.043387
vn -0.062347 -0.000873 -0.078180
vn -0.062347 -0.000873 -0.078180
vn -0.022251 -0.000873 -0.097489
vn -0.022251 -0.000873 -0.097489
vn 0.022251 -0.000873 -0.097489
vn 0.022251 -0.000873 -0.097489
vn 0.062347 -0.000873 -0.078180
vn 0.062347 -0.000873 -0.078180
vn 0.090093 -0.000873 -0.043387
vn 0.008435 -0.099425 0.006599
vn 0.012265 -0.093828 0.032340
vn 0.003579 -0.098166 0.018726
vn -0.004169 -0.093828 0.034335
vn 0.000995 -0.098226 0.018726
vn -0.001590 -0.098218 0.018726
vn -0.004174 -0.098142 0.018726
vn -0.019648 -0.093828 0.028465
vn -0.008897 -0.099385 0.006599
vn -0.030626 -0.093828 0.016074
vn -0.034587 -0.093828 0.000000
vn 0.018119 -0.096760 -0.017586
vn 0.033582 -0.093828 -0.008277
vn 0.013309 -0.098953 -0.005575
vn 0.033582 -0.093828 0.008277
vn 0.025889 -0.093828 0.022936
vn 0.025889 -0.093828 -0.022936
vn 0.015471 -0.097218 -0.017586
vn 0.012812 -0.097604 -0.017586
vn 0.012265 -0.093828 -0.032340
vn 0.010143 -0.097918 -0.017586
vn 0.002136 -0.099540 -0.009338
vn 0.009091 -0.098472 -0.014850
vn 0.008034 -0.098940 -0.012100
vn 0.006973 -0.099319 -0.009338
vn -0.004169 -0.093828 -0.034335
vn -0.002707 -0.099526 -0.009338
vn -0.010539 -0.097876 -0.017586
vn -0.009545 -0.098429 -0.014850
vn -0.008546 -0.098897 -0.012100
vn -0.007542 -0.099277 -0.009338
vn -0.019648 -0.093828 -0.028465
vn -0.013142 -0.097560 -0.017586
vn -0.015735 -0.097176 -0.017586
vn -0.018317 -0.096722 -0.017586
vn -0.030626 -0.093828 -0.016074
vn -0.013639 -0.098909 -0.005576
vn -0.090093 -0.000873 -0.043387
vn -0.082569 -0.040016 -0.039763
vn -0.099996 -0.000873 -0.000000
vn -0.091644 -0.040016 -0.000000
vn -0.082569 -0.040016 0.039763
vn -0.057139 -0.040016 0.071651
vn -0.020393 -0.040016 0.089347
vn 0.020393 -0.040016 0.089347
vn 0.057139 -0.040016 0.071651
vn 0.082569 -0.040016 0.039763
vn 0.091644 -0.040016 0.000000
vn 0.061817 -0.072749 0.029769
vn 0.068612 -0.072749 -0.000000
vn -0.057139 -0.040016 -0.071651
vn -0.062347 -0.000873 -0.078180
vn -0.020393 -0.040016 -0.089347
vn -0.022251 -0.000873 -0.097489
vn 0.020393 -0.040016 -0.089347
vn 0.022251 -0.000873 -0.097489
vn 0.057139 -0.040016 -0.071651
vn 0.062347 -0.000873 -0.078180
vn 0.082569 -0.040016 -0.039763
vn 0.090093 -0.000873 -0.043387
vn 0.099996 -0.000873 -0.000000
vn -0.061817 -0.072749 0.029769
vn -0.068612 -0.072749 -0.000000
vn -0.061817 -0.072749 -0.029769
vn -0.042779 -0.072749 0.053643
vn -0.015268 -0.072749 0.066891
vn 0.015268 -0.072749 0.066891
vn 0.042779 -0.072749 0.053643
vn 0.061817 -0.072749 -0.029769
vn 0.042779 -0.072749 -0.053643
vn 0.015268 -0.072749 -0.066891
vn -0.015268 -0.072749 -0.066891
vn -0.042779 -0.072749 -0.053643
vn 0.093746 -0.000000 0.034810
vn 0.093746 -0.000000 0.034810
vn 0.093746 -0.000000 0.034810
vn 0.093746 -0.000000 0.034810
vn 0.093746 -0.000000 0.034810
vn 0.093746 -0.000000 0.034810
vn 0.002950 -0.099948 0.001275
vn 0.000000 -0.100000 -0.000000
vn 0.004619 -0.099841 -0.003220
vn 0.001281 -0.099825 0.005770
vn -0.000384 -0.099472 0.010255
vn -0.003652 -0.099925 0.001275
vn -0.002016 -0.099813 0.005770
vn -0.005288 -0.099808 -0.003220
vn -0.001987 -0.099928 -0.003220
vn 0.001317 -0.099939 -0.003220
vn 0.000000 0.100000 0.000000
vn 0.000000 0.100000 0.000000
vn 0.000000 0.100000 0.000000
vn 0.000000 0.100000 0.000000
vn 0.000000 0.100000 0.000000
vn 0.000000 0.100000 0.000000
vn 0.000000 0.100000 0.000000
vn 0.000000 0.100000 0.000000
vn 0.000000 0.100000 0.000000
vn 0.000000 0.100000 0.000000
vn 0.000000 0.100000 0.000000
vn 0.000000 0.100000 0.000000
vn 0.000000 0.100000 0.000000
vn 0.000000 0.100000 0.000000
vn -0.093969 0.000000 0.034202
vn -0.093969 0.000000 0.034202
vn -0.093969 0.000000 0.034202
vn -0.093969 0.000000 0.034202
vn -0.093969 0.000000 0.034202
vn -0.093969 0.000000 0.034202
vn 0.000000 0.000000 -0.100000
vn 0.000000 0.000000 -0.100000
vn 0.000000 0.000000 -0.100000
vn 0.000000 0.000000 -0.100000
vn 0.000000 0.000000 -0.100000
vn 0.000000 0.000000 -0.100000
usemtl Powder_Coat_-_Rough_(Dark_Grey)
f 2/1/1 7/2/2 1/3/3
f 1/3/3 7/2/2 8/4/4
f 1/3/3 8/4/4 10/5/5
f 10/5/5 8/4/4 9/6/6
f 7/2/2 2/1/1 6/7/7
f 6/7/7 2/1/1 3/8/8
f 6/7/7 3/8/8 5/9/9
f 5/9/9 3/8/8 11/10/10
f 5/9/9 11/10/10 4/11/11
f 11/10/10 3/8/8 10/5/5
f 10/5/5 3/8/8 1/3/3
f 8/12/12 13/13/13 9/14/14
f 9/14/14 13/13/13 14/15/15
f 9/14/14 14/15/15 15/16/16
f 8/12/12 12/17/17 13/13/13
f 12/18/18 8/19/19 18/20/20
f 18/20/20 8/19/19 7/21/21
f 18/20/20 7/21/21 17/22/22
f 17/22/22 7/21/21 16/23/23
f 16/24/24 7/25/25 21/26/26
f 21/26/26 7/25/25 6/27/27
f 21/26/26 6/27/27 20/28/28
f 20/28/28 6/27/27 19/29/29
f 5/30/30 23/31/31 6/32/32
f 6/32/32 23/31/31 24/33/33
f 6/32/32 24/33/33 19/34/34
f 5/30/30 22/35/35 23/31/31
f 22/36/36 5/37/37 27/38/38
f 27/38/38 5/37/37 4/39/39
f 27/38/38 4/39/39 26/40/40
f 26/40/40 4/39/39 25/41/41
f 25/42/42 4/43/43 30/44/44
f 30/44/44 4/43/43 11/45/45
f 30/44/44 11/45/45 29/46/46
f 29/46/46 11/45/45 28/47/47
f 10/48/48 32/49/49 11/50/50
f 11/50/50 32/49/49 33/51/51
f 11/50/50 33/51/51 28/52/52
f 10/48/48 31/53/53 32/49/49
f 9/54/54 34/55/55 10/56/56
f 10/56/56 34/55/55 35/57/57
f 10/56/56 35/57/57 31/58/58
f 9/54/54 15/59/59 34/55/55
f 37/60/60 50/61/61 36/62/62
f 36/63/62 50/64/61 51/65/63
f 36/63/62 51/65/63 49/66/64
f 49/66/64 51/65/63 48/67/65
f 48/67/65 51/65/63 52/68/66
f 48/67/65 52/68/66 47/69/67
f 47/69/67 52/68/66 53/70/68
f 47/69/67 53/70/68 46/71/69
f 46/71/69 53/70/68 54/72/70
f 46/71/69 54/72/70 45/73/71
f 45/73/71 54/72/70 55/74/72
f 45/73/71 55/74/72 44/75/73
f 44/75/73 55/74/72 56/76/74
f 44/75/73 56/76/74 43/77/75
f 43/77/75 56/76/74 57/78/76
f 43/77/75 57/78/76 42/79/77
f 42/79/77 57/78/76 58/80/78
f 42/79/77 58/80/78 41/81/79
f 41/81/79 58/80/78 59/82/80
f 41/81/79 59/82/80 40/83/81
f 40/83/81 59/82/80 60/84/82
f 40/83/81 60/84/82 39/85/83
f 39/85/83 60/84/82 61/86/84
f 39/85/83 61/86/84 38/87/85
f 38/87/85 61/86/84 62/88/86
f 38/87/85 62/88/86 37/60/60
f 37/60/60 62/88/86 63/89/87
f 37/60/60 63/89/87 50/61/61
f 24/90/88 73/91/89 19/92/90
f 19/92/90 73/91/89 74/93/91
f 19/92/90 74/93/91 20/94/92
f 20/94/92 74/93/91 21/95/93
f 21/95/93 74/93/91 16/96/94
f 16/96/94 74/93/91 75/97/95
f 16/96/94 75/97/95 17/98/96
f 17/98/96 75/97/95 76/99/97
f 17/98/96 76/99/97 64/100/98
f 22/101/99 70/102/100 23/103/101
f 23/103/101 70/102/100 71/104/102
f 23/103/101 71/104/102 24/105/88
f 24/105/88 71/104/102 72/106/103
f 24/90/88 72/107/103 73/91/89
f 70/102/100 22/101/99 69/108/104
f 69/108/104 22/101/99 27/109/105
f 69/108/104 27/109/105 26/110/106
f 69/108/104 26/110/106 68/111/107
f 68/111/107 26/110/106 25/112/108
f 68/111/107 25/112/108 33/113/109
f 33/113/109 25/112/108 30/114/110
f 33/113/109 30/114/110 29/115/111
f 29/115/111 28/116/112 33/113/109
f 68/111/107 33/113/109 67/117/113
f 67/117/113 33/113/109 32/118/114
f 67/117/113 32/118/114 15/119/115
f 15/119/115 32/118/114 34/120/116
f 34/120/116 32/118/114 35/121/117
f 35/121/117 32/118/114 31/122/118
f 67/117/113 15/119/115 66/123/119
f 66/123/119 15/119/115 14/124/120
f 66/123/119 14/124/120 13/125/121
f 13/125/121 12/126/122 66/123/119
f 66/123/119 12/126/122 65/127/123
f 65/127/123 12/126/122 18/128/124
f 65/127/123 18/128/124 64/100/98
f 64/100/98 18/128/124 17/98/96
f 42/129/125 79/130/126 43/131/127
f 43/131/127 79/130/126 82/132/128
f 43/131/127 82/132/128 44/133/73
f 44/133/73 82/132/128 103/134/129
f 44/133/73 103/134/129 45/135/71
f 45/135/71 103/134/129 101/136/130
f 45/135/71 101/136/130 46/137/69
f 46/137/69 101/136/130 99/138/131
f 46/137/69 99/138/131 47/139/67
f 47/139/67 99/138/131 97/140/132
f 47/139/67 97/140/132 48/141/65
f 48/141/65 97/140/132 95/142/133
f 48/141/65 95/142/133 49/143/64
f 49/143/64 95/142/133 93/144/134
f 49/143/64 93/144/134 77/145/135
f 77/145/135 93/144/134 94/146/136
f 77/145/135 94/146/136 78/147/137
f 78/147/137 94/146/136 71/148/102
f 78/149/137 71/150/102 70/151/100
f 79/130/126 42/129/125 83/152/138
f 83/152/138 42/129/125 41/153/139
f 83/152/138 41/153/139 85/154/140
f 85/154/140 41/153/139 40/155/141
f 85/154/140 40/155/141 87/156/142
f 87/156/142 40/155/141 39/157/143
f 87/156/142 39/157/143 89/158/144
f 89/158/144 39/157/143 38/159/145
f 89/158/144 38/159/145 91/160/146
f 91/160/146 38/159/145 37/161/147
f 91/160/146 37/161/147 36/162/148
f 91/160/146 36/162/148 77/163/135
f 77/145/135 36/164/148 49/143/64
f 76/165/97 104/166/149 64/167/98
f 64/167/98 104/166/149 81/168/150
f 64/167/98 81/168/150 80/169/151
f 80/169/151 81/168/150 82/132/128
f 80/169/151 82/132/128 79/130/126
f 104/166/149 76/165/97 102/170/152
f 102/170/152 76/165/97 75/171/95
f 102/170/152 75/171/95 100/172/153
f 100/172/153 75/171/95 74/173/91
f 100/172/153 74/173/91 98/174/154
f 98/174/154 74/173/91 73/175/89
f 98/174/154 73/175/89 96/176/155
f 96/176/155 73/175/89 72/177/103
f 96/176/155 72/177/103 94/146/136
f 94/146/136 72/177/103 71/148/102
f 78/149/137 70/151/100 92/178/156
f 92/178/156 70/151/100 69/179/104
f 92/178/156 69/179/104 90/180/157
f 90/180/157 69/179/104 68/181/107
f 90/180/157 68/181/107 88/182/158
f 88/182/158 68/181/107 67/183/113
f 88/182/158 67/183/113 86/184/159
f 86/184/159 67/183/113 66/185/119
f 86/184/159 66/185/119 84/186/160
f 84/186/160 66/185/119 65/187/123
f 84/186/160 65/187/123 80/169/151
f 80/169/151 65/187/123 64/167/98
f 77/163/135 78/149/137 91/160/146
f 91/160/146 78/149/137 92/178/156
f 91/160/146 92/178/156 89/158/144
f 89/158/144 92/178/156 90/180/157
f 89/158/144 90/180/157 87/156/142
f 87/156/142 90/180/157 88/182/158
f 87/156/142 88/182/158 85/154/140
f 85/154/140 88/182/158 86/184/159
f 85/154/140 86/184/159 83/152/138
f 83/152/138 86/184/159 84/186/160
f 83/152/138 84/186/160 79/130/126
f 79/130/126 84/186/160 80/169/151
f 103/134/129 82/132/128 81/168/150
f 103/134/129 81/168/150 104/166/149
f 96/176/155 94/146/136 93/144/134
f 96/176/155 93/144/134 95/142/133
f 98/174/154 96/176/155 95/142/133
f 98/174/154 95/142/133 97/140/132
f 100/172/153 98/174/154 97/140/132
f 100/172/153 97/140/132 99/138/131
f 102/170/152 100/172/153 99/138/131
f 102/170/152 99/138/131 101/136/130
f 104/166/149 102/170/152 101/136/130
f 104/166/149 101/136/130 103/134/129
f 2/188/161 106/189/162 3/190/163
f 3/190/163 106/189/162 107/191/164
f 3/190/163 107/191/164 108/192/165
f 2/188/161 105/193/166 106/189/162
f 107/194/167 114/195/168 108/196/169
f 106/197/170 114/198/168 107/194/167
f 105/199/171 114/200/168 106/197/170
f 110/201/172 114/202/168 109/203/173
f 111/204/174 114/205/168 110/201/172
f 112/206/175 114/207/168 111/204/174
f 108/208/169 114/209/168 113/210/176
f 109/203/173 114/211/168 105/199/171
f 113/210/176 114/212/168 112/206/175
f 63/213/177 57/214/178 50/215/179
f 50/215/179 57/214/178 56/216/180
f 50/215/179 56/216/180 51/217/181
f 51/217/181 56/216/180 55/218/182
f 51/217/181 55/218/182 52/219/183
f 52/219/183 55/218/182 54/220/184
f 52/219/183 54/220/184 53/221/185
f 57/214/178 63/213/177 58/222/186
f 58/222/186 63/213/177 62/223/187
f 58/222/186 62/223/187 59/224/188
f 59/224/188 62/223/187 61/225/189
f 59/224/188 61/225/189 60/226/190
f 105/227/191 2/228/192 109/229/193
f 109/229/193 2/228/192 1/230/194
f 109/229/193 1/230/194 110/231/195
f 110/231/195 1/230/194 111/232/196
f 111/233/197 1/234/198 112/235/199
f 112/235/199 1/234/198 3/236/200
f 112/235/199 3/236/200 113/237/201
f 113/237/201 3/236/200 108/238/202
# 114 vertices
# 238 texture params
# 202 normals
# 224 facets

# 1 groups
