# WaveFront *.obj file (generated by Autodesk ATF)

mtllib steamdeck_steamdeck_step_20220202 v37_B4-Symbol.mtl

g B4-Symbol

v 132.104727 -2.488036 48.015035
v 132.599384 -2.454032 48.796024
v 133.090764 -2.342498 49.571840
v 133.575395 -2.154222 50.337000
v 133.266471 -2.203788 50.337000
v 132.956244 -2.244412 50.337000
v 132.644973 -2.276060 50.337000
v 132.339747 -2.382164 49.813241
v 132.032015 -2.454244 49.285179
v 131.722735 -2.492073 48.754462
v 131.407066 -2.455074 49.285153
v 131.092957 -2.383466 49.813220
v 130.781398 -2.277473 50.337000
v 130.464638 -2.245672 50.337000
v 130.148949 -2.204576 50.337000
v 129.834604 -2.154222 50.337000
v 130.317441 -2.342065 49.573633
v 130.806992 -2.453583 48.799650
v 131.299816 -2.487995 48.020493
v 131.299816 -2.457277 47.456518
v 131.299816 -2.397672 46.894861
v 131.299816 -2.309338 46.337000
v 131.568090 -2.316054 46.337000
v 131.836449 -2.316121 46.337000
v 132.104727 -2.309541 46.337000
v 132.104727 -2.397635 46.893056
v 132.104727 -2.457185 47.452890
v 131.705000 -2.500000 48.337000
v 133.575395 3.000000 50.337000
v 132.104727 3.000000 48.015035
v 132.104727 3.000000 46.337000
v 131.299816 3.000000 46.337000
v 131.299816 3.000000 48.020493
v 129.834604 3.000000 50.337000
v 130.781398 3.000000 50.337000
v 131.722735 3.000000 48.754462
v 132.644973 3.000000 50.337000
vt 1.629665 -0.065438 0.000000
vt 1.730334 0.061936 0.000000
vt 1.678989 0.093575 0.000000
vt 1.543833 -0.100448 0.000000
vt 1.730334 -0.103226 0.000000
vt 1.453601 -0.113007 0.000000
vt 1.730334 -0.144517 0.000000
vt 1.569067 -0.160735 0.000000
vt 1.474299 -0.125295 0.000000
vt 1.492577 -0.139625 0.000000
vt 1.507837 -0.156143 0.000000
vt 1.629897 -0.170942 0.000000
vt 1.730334 -0.185807 0.000000
vt 1.688541 -0.210915 0.000000
vt 1.630813 -0.258791 0.000000
vt 1.730334 -0.227097 0.000000
vt 1.569962 -0.271014 0.000000
vt 1.730334 -0.268388 0.000000
vt 1.508543 -0.276478 0.000000
vt 1.493166 -0.293384 0.000000
vt 1.474642 -0.308022 0.000000
vt 1.453601 -0.320543 0.000000
vt 1.543576 -0.333090 0.000000
vt 1.730334 -0.350969 0.000000
vt 1.629174 -0.367897 0.000000
vt 1.629174 0.499202 0.000000
vt 1.678901 0.342035 0.000000
vt 1.730334 0.474840 0.000000
vt 1.633285 0.276294 0.000000
vt 1.730334 0.309678 0.000000
vt 1.525086 0.244360 0.000000
vt 1.528743 0.226207 0.000000
vt 1.580071 0.254574 0.000000
vt 1.730334 0.227097 0.000000
vt 1.528780 0.207718 0.000000
vt 1.580044 0.179505 0.000000
vt 1.730334 0.185807 0.000000
vt 1.525195 0.189552 0.000000
vt 1.633181 0.158176 0.000000
vt 1.730334 0.144517 0.000000
vt 1.730334 -0.309678 0.000000
vt 1.730334 0.268388 0.000000
vt 4.977366 13.264497 0.000000
vt 4.977366 13.357540 0.000000
vt 4.819112 13.172274 0.000000
vt 4.745169 13.210473 0.000000
vt 4.745715 13.129982 0.000000
vt 4.577366 13.129982 0.000000
vt 4.577366 13.210473 0.000000
vt 4.977366 12.983460 0.000000
vt 4.977366 13.078140 0.000000
vt 0.000000 1.000000 0.000000
vt 0.031434 0.479542 0.000000
vt 0.094679 1.000000 0.000000
vt 0.063003 0.475433 0.000000
vt 0.094679 0.472253 0.000000
vt 0.000000 0.484578 0.000000
vt 0.000000 1.000000 0.000000
vt 0.060944 0.461653 0.000000
vt 0.184134 1.000000 0.000000
vt 0.122386 0.454493 0.000000
vt 0.184134 0.450793 0.000000
vt 0.000000 0.472253 0.000000
vt 0.183165 0.472394 0.000000
vt 0.183165 1.000000 0.000000
vt 0.122544 0.461784 0.000000
vt 0.000000 1.000000 0.000000
vt 0.061426 0.454576 0.000000
vt 0.000000 0.450793 0.000000
vt 0.093042 0.484578 0.000000
vt 0.093042 1.000000 0.000000
vt 0.062150 0.479621 0.000000
vt 0.000000 1.000000 0.000000
vt 0.031127 0.475559 0.000000
vt 0.000000 0.472394 0.000000
vt 0.000000 1.000000 0.000000
vt 0.090572 0.465750 0.000000
vt 0.274852 1.000000 0.000000
vt 0.182406 0.454597 0.000000
vt 0.274852 0.451196 0.000000
vt 0.000000 0.484578 0.000000
vt 0.167804 0.469046 0.000000
vt 0.167804 1.000000 0.000000
vt 0.112198 0.460236 0.000000
vt 0.000000 1.000000 0.000000
vt 0.056215 0.454281 0.000000
vt 0.000000 0.451196 0.000000
vt 0.080491 0.469066 0.000000
vt 0.080491 1.000000 0.000000
vt 0.053664 0.468395 0.000000
vt 0.000000 1.000000 0.000000
vt 0.026828 0.468388 0.000000
vt 0.000000 0.469046 0.000000
vt 0.000000 1.000000 0.000000
vt 0.055786 0.460233 0.000000
vt 0.168349 1.000000 0.000000
vt 0.111952 0.454272 0.000000
vt 0.168349 0.451201 0.000000
vt 0.000000 0.469066 0.000000
vt 0.274099 0.484578 0.000000
vt 0.274099 1.000000 0.000000
vt 0.183774 0.465794 0.000000
vt 0.000000 1.000000 0.000000
vt 0.092193 0.454642 0.000000
vt 0.000000 0.451201 0.000000
vn 0.008119 -0.099583 0.004167
vn 0.000000 -0.100000 0.000000
vn 0.003629 -0.099891 -0.002923
vn 0.012580 -0.098570 0.011210
vn 0.016979 -0.096861 0.018156
vn 0.005762 -0.098930 0.013401
vn 0.014175 -0.097311 0.018156
vn 0.011359 -0.097680 0.018156
vn 0.008533 -0.097967 0.018156
vn 0.002969 -0.099585 0.008608
vn 0.000161 -0.099928 0.003790
vn -0.002705 -0.099592 0.008607
vn -0.005556 -0.098942 0.013401
vn -0.008384 -0.097980 0.018156
vn -0.011260 -0.097691 0.018156
vn -0.014126 -0.097318 0.018156
vn -0.016979 -0.096861 0.018156
vn -0.012596 -0.098566 0.011226
vn -0.008152 -0.099579 0.004200
vn -0.003678 -0.099891 -0.002873
vn -0.003678 -0.099612 -0.007993
vn -0.003678 -0.098269 -0.018156
vn -0.001243 -0.098330 -0.018156
vn -0.003678 -0.099071 -0.013092
vn 0.001193 -0.098331 -0.018156
vn 0.003629 -0.099071 -0.013108
vn 0.003629 -0.098271 -0.018156
vn 0.003629 -0.099611 -0.008026
vn 0.000000 0.100000 0.000000
vn 0.000000 0.100000 0.000000
vn 0.000000 0.100000 0.000000
vn 0.000000 0.100000 0.000000
vn 0.000000 0.100000 0.000000
vn 0.000000 0.100000 0.000000
vn 0.000000 0.100000 0.000000
vn 0.000000 0.100000 0.000000
vn 0.000000 0.100000 0.000000
vn 0.000000 0.000000 0.100000
vn 0.000000 0.000000 0.100000
vn 0.000000 0.000000 0.100000
vn 0.000000 0.000000 0.100000
vn 0.000000 0.000000 0.100000
vn 0.000000 0.000000 0.100000
vn 0.085945 -0.000000 0.051122
vn 0.085945 -0.000000 0.051122
vn 0.085945 -0.000000 0.051122
vn 0.085945 -0.000000 0.051122
vn 0.085945 -0.000000 0.051122
vn 0.085945 -0.000000 0.051122
vn -0.086399 0.000000 0.050350
vn -0.086399 0.000000 0.050350
vn -0.086399 0.000000 0.050350
vn -0.086399 0.000000 0.050350
vn -0.086399 0.000000 0.050350
vn -0.086399 0.000000 0.050350
vn 0.000000 0.000000 0.100000
vn 0.000000 0.000000 0.100000
vn 0.000000 0.000000 0.100000
vn 0.000000 0.000000 0.100000
vn 0.000000 0.000000 0.100000
vn 0.000000 0.000000 0.100000
vn 0.084480 0.000000 -0.053508
vn 0.084480 0.000000 -0.053508
vn 0.084480 0.000000 -0.053508
vn 0.084480 0.000000 -0.053508
vn 0.084480 0.000000 -0.053508
vn 0.084480 0.000000 -0.053508
vn 0.100000 -0.000000 0.000000
vn 0.100000 -0.000000 0.000000
vn 0.100000 -0.000000 0.000000
vn 0.100000 -0.000000 0.000000
vn 0.100000 -0.000000 0.000000
vn 0.100000 -0.000000 0.000000
vn 0.000000 0.000000 -0.100000
vn 0.000000 0.000000 -0.100000
vn 0.000000 0.000000 -0.100000
vn 0.000000 0.000000 -0.100000
vn 0.000000 0.000000 -0.100000
vn 0.000000 0.000000 -0.100000
vn -0.100000 0.000000 0.000000
vn -0.100000 0.000000 0.000000
vn -0.100000 0.000000 0.000000
vn -0.100000 0.000000 0.000000
vn -0.100000 0.000000 0.000000
vn -0.100000 0.000000 0.000000
vn -0.084513 0.000000 -0.053455
vn -0.084513 0.000000 -0.053455
vn -0.084513 0.000000 -0.053455
vn -0.084513 0.000000 -0.053455
vn -0.084513 0.000000 -0.053455
vn -0.084513 0.000000 -0.053455
usemtl ABS_(White)
f 2/1/1 28/2/2 1/3/3
f 3/4/4 28/5/2 2/1/1
f 3/4/4 4/6/5 28/5/2
f 28/7/2 4/6/5 8/8/6
f 8/8/6 4/6/5 5/9/7
f 8/8/6 5/9/7 6/10/8
f 6/10/8 7/11/9 8/8/6
f 8/8/6 9/12/10 28/13/2
f 28/13/2 9/12/10 10/14/11
f 10/14/11 11/15/12 28/16/2
f 11/15/12 12/17/13 28/18/2
f 13/19/14 14/20/15 12/17/13
f 12/17/13 14/20/15 15/21/16
f 12/17/13 15/21/16 16/22/17
f 17/23/18 28/24/2 16/22/17
f 17/23/18 18/25/19 28/24/2
f 18/26/19 19/27/20 28/28/2
f 20/29/21 28/30/2 19/27/20
f 22/31/22 23/32/23 21/33/24
f 21/33/24 23/32/23 28/34/2
f 24/35/25 26/36/26 23/32/23
f 23/32/23 26/36/26 28/37/2
f 24/35/25 25/38/27 26/36/26
f 26/36/26 27/39/28 28/40/2
f 28/40/2 27/39/28 1/3/3
f 16/22/17 28/41/2 12/17/13
f 21/33/24 28/42/2 20/29/21
f 37/43/29 29/44/30 36/45/31
f 36/45/31 29/44/30 30/46/32
f 36/45/31 30/46/32 33/47/33
f 33/47/33 30/46/32 32/48/34
f 32/48/34 30/46/32 31/49/35
f 34/50/36 35/51/37 33/47/33
f 33/47/33 35/51/37 36/45/31
f 34/52/38 15/53/39 35/54/40
f 35/54/40 15/53/39 14/55/41
f 35/54/40 14/55/41 13/56/42
f 34/52/38 16/57/43 15/53/39
f 35/58/44 12/59/45 36/60/46
f 36/60/46 12/59/45 11/61/47
f 36/60/46 11/61/47 10/62/48
f 35/58/44 13/63/49 12/59/45
f 7/64/50 37/65/51 8/66/52
f 8/66/52 37/65/51 36/67/53
f 8/66/52 36/67/53 9/68/54
f 9/68/54 36/67/53 10/69/55
f 4/70/56 29/71/57 5/72/58
f 5/72/58 29/71/57 37/73/59
f 5/72/58 37/73/59 6/74/60
f 6/74/60 37/73/59 7/75/61
f 29/76/62 3/77/63 30/78/64
f 30/78/64 3/77/63 2/79/65
f 30/78/64 2/79/65 1/80/66
f 29/76/62 4/81/67 3/77/63
f 25/82/68 31/83/69 26/84/70
f 26/84/70 31/83/69 30/85/71
f 26/84/70 30/85/71 27/86/72
f 27/86/72 30/85/71 1/87/73
f 22/88/74 32/89/75 23/90/76
f 23/90/76 32/89/75 31/91/77
f 23/90/76 31/91/77 24/92/78
f 24/92/78 31/91/77 25/93/79
f 32/94/80 21/95/81 33/96/82
f 33/96/82 21/95/81 20/97/83
f 33/96/82 20/97/83 19/98/84
f 32/94/80 22/99/85 21/95/81
f 16/100/86 34/101/87 17/102/88
f 17/102/88 34/101/87 33/103/89
f 17/102/88 33/103/89 18/104/90
f 18/104/90 33/103/89 19/105/91
# 37 vertices
# 105 texture params
# 91 normals
# 70 facets

# 1 groups
