# WaveFront *.obj file (generated by Autodesk ATF)

mtllib steamdeck_steamdeck_step_20220202 v37_BackIcon.mtl

g BackIcon

v 113.625000 2.500000 52.100000
v 116.625000 2.500000 52.100000
v 116.625000 2.500000 52.500000
v 113.625000 2.500000 52.500000
v 116.625000 2.500000 51.600000
v 113.625000 2.500000 51.600000
v 113.625000 2.500000 51.200000
v 116.625000 2.500000 51.200000
v 116.625000 3.000000 50.700000
v 116.625000 -1.161945 50.700000
v 115.625047 -1.178703 50.700000
v 114.624953 -1.178703 50.700000
v 113.625000 -1.161945 50.700000
v 113.625000 3.000000 50.700000
v 116.625000 -1.209108 51.200000
v 115.625047 -1.225853 51.200000
v 114.624953 -1.225853 51.200000
v 113.625000 -1.209108 51.200000
v 113.625000 3.000000 53.000000
v 113.625000 -1.161945 53.000000
v 114.624953 -1.178703 53.000000
v 115.625047 -1.178703 53.000000
v 116.625000 -1.161945 53.000000
v 116.625000 3.000000 53.000000
v 113.625000 -1.209108 52.500000
v 114.624953 -1.225853 52.500000
v 115.625047 -1.225853 52.500000
v 116.625000 -1.209108 52.500000
v 116.625000 -1.227908 51.600000
v 115.625047 -1.244648 51.600000
v 114.624953 -1.244648 51.600000
v 113.625000 -1.227908 51.600000
v 116.625000 -1.227908 52.100000
v 115.625047 -1.244648 52.100000
v 114.624953 -1.244648 52.100000
v 113.625000 -1.227908 52.100000
vt -0.025000 0.150000 0.000000
vt -0.065000 0.150000 0.000000
vt -0.025000 -0.150000 0.000000
vt -0.065000 -0.150000 0.000000
vt 0.025000 -0.150000 0.000000
vt 0.065000 -0.150000 0.000000
vt 0.025000 0.150000 0.000000
vt 0.065000 0.150000 0.000000
vt 0.000000 0.233805 0.000000
vt 0.099995 0.232130 0.000000
vt 0.000000 0.650000 0.000000
vt 0.200005 0.232130 0.000000
vt 0.300000 0.650000 0.000000
vt 0.300000 0.233805 0.000000
vt 0.115277 -17.384163 0.000000
vt 0.065050 -17.384282 0.000000
vt 0.115277 -17.484219 0.000000
vt 0.065050 -17.484258 0.000000
vt 0.115277 -17.584274 0.000000
vt 0.065050 -17.584235 0.000000
vt 0.065050 -17.684211 0.000000
vt 0.115277 -17.684330 0.000000
vt 0.300000 0.229089 0.000000
vt 0.300000 0.600000 0.000000
vt 0.200005 0.227415 0.000000
vt 0.000000 0.600000 0.000000
vt 0.099995 0.227415 0.000000
vt 0.000000 0.229089 0.000000
vt 0.000000 0.233805 0.000000
vt 0.099995 0.232130 0.000000
vt 0.000000 0.650000 0.000000
vt 0.200005 0.232130 0.000000
vt 0.300000 0.650000 0.000000
vt 0.300000 0.233805 0.000000
vt -0.115277 -17.384163 0.000000
vt -0.115277 -17.484219 0.000000
vt -0.065050 -17.384282 0.000000
vt -0.065050 -17.484258 0.000000
vt -0.115277 -17.584274 0.000000
vt -0.065050 -17.584235 0.000000
vt -0.065050 -17.684211 0.000000
vt -0.115277 -17.684330 0.000000
vt 0.300000 0.229089 0.000000
vt 0.300000 0.600000 0.000000
vt 0.200005 0.227415 0.000000
vt 0.000000 0.600000 0.000000
vt 0.099995 0.227415 0.000000
vt 0.000000 0.229089 0.000000
vt 0.300000 0.227209 0.000000
vt 0.300000 0.600000 0.000000
vt 0.200005 0.225535 0.000000
vt -0.000000 0.600000 0.000000
vt 0.099995 0.225535 0.000000
vt -0.000000 0.227209 0.000000
vt -0.000000 0.227209 0.000000
vt 0.050000 0.227209 0.000000
vt -0.000000 0.600000 0.000000
vt 0.050000 0.600000 0.000000
vt -0.090000 0.650000 0.000000
vt 0.140000 0.650000 0.000000
vt 0.090000 0.600000 0.000000
vt 0.140000 0.233805 0.000000
vt 0.090000 0.229089 0.000000
vt -0.040000 0.600000 0.000000
vt -0.090000 0.233805 0.000000
vt -0.040000 0.229089 0.000000
vt 5.013666 11.362500 0.000000
vt 5.243666 11.362500 0.000000
vt 5.013666 11.662500 0.000000
vt 5.243666 11.662500 0.000000
vt -0.025003 -17.696709 0.000000
vt 0.025003 -17.696709 0.000000
vt -0.025003 -17.596693 0.000000
vt 0.025003 -17.596693 0.000000
vt -0.025003 -17.496677 0.000000
vt 0.025003 -17.496677 0.000000
vt -0.025003 -17.396661 0.000000
vt 0.025003 -17.396661 0.000000
vt -0.000000 0.227209 0.000000
vt 0.050000 0.227209 0.000000
vt -0.000000 0.600000 0.000000
vt 0.050000 0.600000 0.000000
vt -0.090000 0.650000 0.000000
vt 0.140000 0.650000 0.000000
vt 0.090000 0.600000 0.000000
vt 0.140000 0.233805 0.000000
vt 0.090000 0.229089 0.000000
vt -0.040000 0.600000 0.000000
vt -0.090000 0.233805 0.000000
vt -0.040000 0.229089 0.000000
vt 0.300000 0.227209 0.000000
vt 0.300000 0.600000 0.000000
vt 0.200005 0.225535 0.000000
vt 0.000000 0.600000 0.000000
vt 0.099995 0.225535 0.000000
vt 0.000000 0.227209 0.000000
vn 0.000000 -0.100000 0.000000
vn 0.000000 -0.100000 0.000000
vn 0.000000 -0.100000 0.000000
vn 0.000000 -0.100000 0.000000
vn 0.000000 -0.100000 0.000000
vn 0.000000 -0.100000 0.000000
vn 0.000000 -0.100000 0.000000
vn 0.000000 -0.100000 0.000000
vn 0.000000 0.000000 -0.100000
vn 0.000000 0.000000 -0.100000
vn 0.000000 0.000000 -0.100000
vn 0.000000 0.000000 -0.100000
vn 0.000000 0.000000 -0.100000
vn 0.000000 0.000000 -0.100000
vn 0.002495 -0.099247 -0.011992
vn 0.002506 -0.099739 -0.006778
vn 0.000832 -0.099275 -0.011992
vn 0.000835 -0.099767 -0.006778
vn -0.000832 -0.099275 -0.011992
vn -0.000835 -0.099767 -0.006778
vn -0.002506 -0.099739 -0.006778
vn -0.002495 -0.099247 -0.011992
vn 0.000000 0.000000 0.100000
vn 0.000000 0.000000 0.100000
vn 0.000000 0.000000 0.100000
vn 0.000000 0.000000 0.100000
vn 0.000000 0.000000 0.100000
vn 0.000000 0.000000 0.100000
vn 0.000000 0.000000 0.100000
vn 0.000000 0.000000 0.100000
vn 0.000000 0.000000 0.100000
vn 0.000000 0.000000 0.100000
vn 0.000000 0.000000 0.100000
vn 0.000000 0.000000 0.100000
vn 0.002495 -0.099247 0.011992
vn 0.000832 -0.099275 0.011992
vn 0.002506 -0.099739 0.006778
vn 0.000835 -0.099767 0.006778
vn -0.000832 -0.099275 0.011992
vn -0.000835 -0.099767 0.006778
vn -0.002506 -0.099739 0.006778
vn -0.002495 -0.099247 0.011992
vn 0.000000 0.000000 -0.100000
vn 0.000000 0.000000 -0.100000
vn 0.000000 0.000000 -0.100000
vn 0.000000 0.000000 -0.100000
vn 0.000000 0.000000 -0.100000
vn 0.000000 0.000000 -0.100000
vn 0.000000 0.000000 -0.100000
vn 0.000000 0.000000 -0.100000
vn 0.000000 0.000000 -0.100000
vn 0.000000 0.000000 -0.100000
vn 0.000000 0.000000 -0.100000
vn 0.000000 0.000000 -0.100000
vn 0.100000 0.000000 0.000000
vn 0.100000 0.000000 0.000000
vn 0.100000 0.000000 0.000000
vn 0.100000 0.000000 0.000000
vn 0.100000 0.000000 0.000000
vn 0.100000 0.000000 0.000000
vn 0.100000 0.000000 0.000000
vn 0.100000 0.000000 0.000000
vn 0.100000 0.000000 0.000000
vn 0.100000 0.000000 0.000000
vn 0.100000 0.000000 0.000000
vn 0.100000 0.000000 0.000000
vn 0.000000 0.100000 0.000000
vn 0.000000 0.100000 0.000000
vn 0.000000 0.100000 0.000000
vn 0.000000 0.100000 0.000000
vn -0.002510 -0.099935 0.002607
vn -0.002510 -0.099935 -0.002607
vn -0.000837 -0.099963 0.002607
vn -0.000837 -0.099963 -0.002607
vn 0.000837 -0.099963 0.002607
vn 0.000837 -0.099963 -0.002607
vn 0.002510 -0.099935 0.002607
vn 0.002510 -0.099935 -0.002607
vn -0.100000 0.000000 0.000000
vn -0.100000 0.000000 0.000000
vn -0.100000 0.000000 0.000000
vn -0.100000 0.000000 0.000000
vn -0.100000 0.000000 0.000000
vn -0.100000 0.000000 0.000000
vn -0.100000 0.000000 0.000000
vn -0.100000 0.000000 0.000000
vn -0.100000 0.000000 0.000000
vn -0.100000 0.000000 0.000000
vn -0.100000 0.000000 0.000000
vn -0.100000 0.000000 0.000000
vn 0.000000 -0.000000 0.100000
vn 0.000000 -0.000000 0.100000
vn 0.000000 -0.000000 0.100000
vn 0.000000 -0.000000 0.100000
vn 0.000000 -0.000000 0.100000
vn 0.000000 -0.000000 0.100000
usemtl Opaque(156,168,171)
f 2/1/1 3/2/2 1/3/3
f 1/3/3 3/2/2 4/4/4
f 6/5/5 7/6/6 5/7/7
f 5/7/7 7/6/6 8/8/8
f 10/9/9 11/10/10 9/11/11
f 9/11/11 11/10/10 12/12/12
f 9/11/11 12/12/12 14/13/13
f 14/13/13 12/12/12 13/14/14
f 10/15/15 15/16/16 11/17/17
f 11/17/17 15/16/16 16/18/18
f 11/17/17 16/18/18 12/19/19
f 12/19/19 16/18/18 17/20/20
f 12/19/19 17/20/20 18/21/21
f 18/21/21 13/22/22 12/19/19
f 15/23/23 8/24/24 16/25/25
f 16/25/25 8/24/24 7/26/26
f 16/25/25 7/26/26 17/27/27
f 17/27/27 7/26/26 18/28/28
f 20/29/29 21/30/30 19/31/31
f 19/31/31 21/30/30 22/32/32
f 19/31/31 22/32/32 24/33/33
f 24/33/33 22/32/32 23/34/34
f 23/35/35 22/36/36 28/37/37
f 28/37/37 22/36/36 27/38/38
f 27/38/38 22/36/36 21/39/39
f 27/38/38 21/39/39 26/40/40
f 26/40/40 21/39/39 25/41/41
f 25/41/41 21/39/39 20/42/42
f 25/43/43 4/44/44 26/45/45
f 26/45/45 4/44/44 3/46/46
f 26/45/45 3/46/46 27/47/47
f 27/47/47 3/46/46 28/48/48
f 32/49/49 6/50/50 31/51/51
f 31/51/51 6/50/50 5/52/52
f 31/51/51 5/52/52 30/53/53
f 30/53/53 5/52/52 29/54/54
f 33/55/55 29/56/56 2/57/57
f 2/57/57 29/56/56 5/58/58
f 2/57/57 5/58/58 24/59/59
f 24/59/59 5/58/58 9/60/60
f 9/60/60 5/58/58 8/61/61
f 9/60/60 8/61/61 10/62/62
f 10/62/62 8/61/61 15/63/63
f 2/57/57 24/59/59 3/64/64
f 3/64/64 24/59/59 23/65/65
f 3/64/64 23/65/65 28/66/66
f 14/67/67 19/68/68 9/69/69
f 9/69/69 19/68/68 24/70/70
f 36/71/71 32/72/72 35/73/73
f 35/73/73 32/72/72 31/74/74
f 35/73/73 31/74/74 34/75/75
f 34/75/75 31/74/74 30/76/76
f 34/75/75 30/76/76 33/77/77
f 33/77/77 30/76/76 29/78/78
f 32/79/79 36/80/80 6/81/81
f 6/81/81 36/80/80 1/82/82
f 6/81/81 1/82/82 14/83/83
f 14/83/83 1/82/82 19/84/84
f 19/84/84 1/82/82 4/85/85
f 19/84/84 4/85/85 20/86/86
f 20/86/86 4/85/85 25/87/87
f 6/81/81 14/83/83 7/88/88
f 7/88/88 14/83/83 13/89/89
f 7/88/88 13/89/89 18/90/90
f 33/91/91 2/92/92 34/93/93
f 34/93/93 2/92/92 1/94/94
f 34/93/93 1/94/94 35/95/95
f 35/95/95 1/94/94 36/96/96
# 36 vertices
# 96 texture params
# 96 normals
# 68 facets

# 1 groups
