# WaveFront *.obj file (generated by Autodesk ATF)

mtllib steamdeck_steamdeck_step_20220202 v37_Screen.mtl

g Screen

v 85.830000 1.000000 53.330000
v 86.330000 1.000000 53.196025
v 86.696025 1.000000 52.830000
v 86.830000 1.000000 52.330000
v 86.830000 1.000000 -52.330000
v 86.696025 1.000000 -52.830000
v 86.330000 1.000000 -53.196025
v 85.830000 1.000000 -53.330000
v -85.830000 1.000000 -53.330000
v -86.330000 1.000000 -53.196025
v -86.696025 1.000000 -52.830000
v -86.830000 1.000000 -52.330000
v -86.830000 1.000000 52.330000
v -86.696025 1.000000 52.830000
v -86.330000 1.000000 53.196025
v -85.830000 1.000000 53.330000
v 86.830000 -0.000000 52.330000
v 85.830000 -0.000000 53.330000
v 86.330000 -0.000000 53.196025
v 86.696025 -0.000000 52.830000
v 86.830000 0.000000 -52.330000
v 85.830000 0.000000 -53.330000
v 86.696025 0.000000 -52.830000
v 86.330000 0.000000 -53.196025
v -85.830000 0.000000 -53.330000
v -86.830000 0.000000 -52.330000
v -86.330000 0.000000 -53.196025
v -86.696025 0.000000 -52.830000
v -86.830000 -0.000000 52.330000
v -85.830000 -0.000000 53.330000
v -86.696025 -0.000000 52.830000
v -86.330000 -0.000000 53.196025
vt 5.150090 8.614671 0.000000
vt 5.113488 8.651273 0.000000
vt 5.163488 8.564671 0.000000
vt 5.063488 8.664671 0.000000
vt 5.163488 -8.601329 0.000000
vt 5.063488 -8.701329 0.000000
vt 5.113488 -8.687932 0.000000
vt -5.402512 8.664671 0.000000
vt -5.402512 -8.701329 0.000000
vt -5.502512 -8.601329 0.000000
vt -5.452512 -8.687932 0.000000
vt -5.489115 -8.651329 0.000000
vt -5.502512 8.564671 0.000000
vt -5.452512 8.651273 0.000000
vt -5.489115 8.614671 0.000000
vt 5.150090 -8.651329 0.000000
vt -0.000000 0.000000 0.000000
vt 0.100000 -0.000000 0.000000
vt -0.000000 0.052360 0.000000
vt 0.100000 0.052360 0.000000
vt -0.000000 0.104720 0.000000
vt 0.100000 0.104720 0.000000
vt -0.000000 0.157080 0.000000
vt 0.100000 0.157080 0.000000
vt -10.466000 -0.100000 0.000000
vt -0.000000 -0.100000 0.000000
vt -10.466000 0.000000 0.000000
vt -0.000000 0.000000 0.000000
vt 0.000000 -0.157080 0.000000
vt 0.100000 -0.157080 0.000000
vt 0.000000 -0.104720 0.000000
vt 0.100000 -0.104720 0.000000
vt 0.000000 -0.052360 0.000000
vt 0.100000 -0.052360 0.000000
vt -0.000000 0.000000 0.000000
vt 0.100000 -0.000000 0.000000
vt -17.166000 -0.100000 0.000000
vt -0.000000 -0.100000 0.000000
vt -17.166000 -0.000000 0.000000
vt -0.000000 0.000000 0.000000
vt 0.000000 -0.314159 0.000000
vt 0.100000 -0.314159 0.000000
vt 0.000000 -0.261799 0.000000
vt 0.100000 -0.261799 0.000000
vt 0.000000 -0.209440 0.000000
vt 0.100000 -0.209440 0.000000
vt 0.000000 -0.157080 0.000000
vt 0.100000 -0.157080 0.000000
vt -10.466000 -0.100000 0.000000
vt 0.000000 -0.100000 0.000000
vt -10.466000 0.000000 0.000000
vt -0.000000 0.000000 0.000000
vt -0.000000 0.157080 0.000000
vt 0.100000 0.157080 0.000000
vt -0.000000 0.209440 0.000000
vt 0.100000 0.209440 0.000000
vt -0.000000 0.261799 0.000000
vt 0.100000 0.261799 0.000000
vt 0.000000 0.314159 0.000000
vt 0.100000 0.314159 0.000000
vt -17.166000 -0.100000 0.000000
vt -0.000000 -0.100000 0.000000
vt -17.166000 0.000000 0.000000
vt -0.000000 0.000000 0.000000
vt -8.633000 5.319603 0.000000
vt -8.669603 5.283000 0.000000
vt -8.583000 5.333000 0.000000
vt -8.683000 5.233000 0.000000
vt 8.683000 5.233000 0.000000
vt 8.683000 -5.233000 0.000000
vt -8.683000 -5.233000 0.000000
vt 8.583000 -5.333000 0.000000
vt -8.583000 -5.333000 0.000000
vt -8.669603 -5.283000 0.000000
vt -8.633000 -5.319603 0.000000
vt 8.633000 -5.319603 0.000000
vt 8.669603 -5.283000 0.000000
vt 8.583000 5.333000 0.000000
vt 8.669603 5.283000 0.000000
vt 8.633000 5.319603 0.000000
vn 0.000000 0.100000 0.000000
vn 0.000000 0.100000 0.000000
vn 0.000000 0.100000 0.000000
vn 0.000000 0.100000 0.000000
vn 0.000000 0.100000 0.000000
vn 0.000000 0.100000 0.000000
vn 0.000000 0.100000 0.000000
vn 0.000000 0.100000 0.000000
vn 0.000000 0.100000 0.000000
vn 0.000000 0.100000 0.000000
vn 0.000000 0.100000 0.000000
vn 0.000000 0.100000 0.000000
vn 0.000000 0.100000 0.000000
vn 0.000000 0.100000 0.000000
vn 0.000000 0.100000 0.000000
vn 0.000000 0.100000 0.000000
vn 0.100000 0.000000 0.000000
vn 0.100000 0.000000 -0.000000
vn 0.086603 -0.000000 0.050000
vn 0.086603 -0.000000 0.050000
vn 0.050000 -0.000000 0.086603
vn 0.050000 -0.000000 0.086603
vn 0.000000 -0.000000 0.100000
vn 0.000000 -0.000000 0.100000
vn 0.100000 0.000000 0.000000
vn 0.100000 0.000000 0.000000
vn 0.000000 0.000000 -0.100000
vn 0.000000 0.000000 -0.100000
vn 0.050000 0.000000 -0.086603
vn 0.050000 0.000000 -0.086603
vn 0.086603 0.000000 -0.050000
vn 0.086603 0.000000 -0.050000
vn -0.000000 0.000000 -0.100000
vn -0.000000 0.000000 -0.100000
vn -0.100000 0.000000 -0.000000
vn -0.100000 0.000000 -0.000000
vn -0.086603 0.000000 -0.050000
vn -0.086603 0.000000 -0.050000
vn -0.050000 0.000000 -0.086603
vn -0.050000 0.000000 -0.086603
vn -0.100000 0.000000 0.000000
vn -0.100000 0.000000 0.000000
vn 0.000000 -0.000000 0.100000
vn 0.000000 -0.000000 0.100000
vn -0.050000 -0.000000 0.086603
vn -0.050000 -0.000000 0.086603
vn -0.086603 -0.000000 0.050000
vn -0.086603 -0.000000 0.050000
vn 0.000000 -0.100000 -0.000000
vn 0.000000 -0.100000 -0.000000
vn 0.000000 -0.100000 -0.000000
vn 0.000000 -0.100000 -0.000000
vn 0.000000 -0.100000 -0.000000
vn 0.000000 -0.100000 -0.000000
vn 0.000000 -0.100000 -0.000000
vn 0.000000 -0.100000 -0.000000
vn 0.000000 -0.100000 -0.000000
vn 0.000000 -0.100000 -0.000000
vn 0.000000 -0.100000 -0.000000
vn 0.000000 -0.100000 -0.000000
vn 0.000000 -0.100000 -0.000000
vn 0.000000 -0.100000 -0.000000
vn 0.000000 -0.100000 -0.000000
vn 0.000000 -0.100000 -0.000000
usemtl Paint_-_Enamel_Glossy_(Black)
f 2/1/1 3/2/2 1/3/3
f 1/3/3 3/2/2 4/4/4
f 1/3/3 4/4/4 16/5/5
f 16/5/5 4/4/4 13/6/6
f 16/5/5 13/6/6 14/7/7
f 4/4/4 5/8/8 13/6/6
f 13/6/6 5/8/8 12/9/9
f 12/9/9 5/8/8 9/10/10
f 12/9/9 9/10/10 11/11/11
f 11/11/11 9/10/10 10/12/12
f 9/10/10 5/8/8 8/13/13
f 8/13/13 5/8/8 6/14/14
f 8/13/13 6/14/14 7/15/15
f 14/7/7 15/16/16 16/5/5
f 17/17/17 4/18/18 20/19/19
f 20/19/19 4/18/18 3/20/20
f 20/19/19 3/20/20 19/21/21
f 19/21/21 3/20/20 2/22/22
f 19/21/21 2/22/22 18/23/23
f 18/23/23 2/22/22 1/24/24
f 5/25/25 4/26/18 21/27/26
f 21/27/26 4/26/18 17/28/17
f 22/29/27 8/30/28 24/31/29
f 24/31/29 8/30/28 7/32/30
f 24/31/29 7/32/30 23/33/31
f 23/33/31 7/32/30 6/34/32
f 23/33/31 6/34/32 21/35/26
f 21/35/26 6/34/32 5/36/25
f 9/37/33 8/38/28 25/39/34
f 25/39/34 8/38/28 22/40/27
f 26/41/35 12/42/36 28/43/37
f 28/43/37 12/42/36 11/44/38
f 28/43/37 11/44/38 27/45/39
f 27/45/39 11/44/38 10/46/40
f 27/45/39 10/46/40 25/47/34
f 25/47/34 10/46/40 9/48/33
f 13/49/41 12/50/36 29/51/42
f 29/51/42 12/50/36 26/52/35
f 30/53/43 16/54/44 32/55/45
f 32/55/45 16/54/44 15/56/46
f 32/55/45 15/56/46 31/57/47
f 31/57/47 15/56/46 14/58/48
f 31/57/47 14/58/48 29/59/42
f 29/59/42 14/58/48 13/60/41
f 1/61/24 16/62/44 18/63/23
f 18/63/23 16/62/44 30/64/43
f 32/65/49 31/66/50 30/67/51
f 30/67/51 31/66/50 29/68/52
f 30/67/51 29/68/52 17/69/53
f 17/69/53 29/68/52 21/70/54
f 21/70/54 29/68/52 26/71/55
f 21/70/54 26/71/55 22/72/56
f 22/72/56 26/71/55 25/73/57
f 25/73/57 26/71/55 28/74/58
f 25/73/57 28/74/58 27/75/59
f 24/76/60 23/77/61 22/72/56
f 22/72/56 23/77/61 21/70/54
f 30/67/51 17/69/53 18/78/62
f 18/78/62 17/69/53 20/79/63
f 18/78/62 20/79/63 19/80/64
# 32 vertices
# 80 texture params
# 64 normals
# 60 facets

# 1 groups
