# WaveFront *.obj file (generated by Autodesk ATF)

mtllib AyaNeoNext_AyaNeoNext-01 v19_DPadUp_AyaNeoNext-01 v19.mtl

g DPadUp

v -105.744975 -12.000000 -2.244975
v -105.674264 -11.973205 -2.174264
v -105.622500 -11.900000 -2.122500
v -105.603553 -11.800000 -2.103553
v -105.683013 -11.800000 -2.000000
v -105.732963 -11.800000 -1.879410
v -105.750000 -11.800000 -1.750000
v -105.776795 -11.900000 -1.750000
v -105.850000 -11.973205 -1.750000
v -105.950000 -12.000000 -1.750000
v -105.926148 -12.000000 -1.931173
v -105.856218 -12.000000 -2.100000
v -105.736695 -11.900000 -1.951596
v -105.804328 -11.973205 -1.979610
v -105.750000 -11.800000 3.971111
v -105.776795 -11.900000 3.971111
v -105.850000 -11.973205 3.971111
v -105.950000 -12.000000 3.971111
v -105.776795 -11.900000 2.064074
v -105.776795 -11.900000 0.157037
v -105.850000 -11.973205 2.064074
v -105.850000 -11.973205 0.157037
v -105.920732 -11.800000 4.208211
v -105.929228 -11.900000 4.182799
v -105.952439 -11.973205 4.113371
v -105.984146 -12.000000 4.018531
v -105.966334 -12.000000 4.008078
v -105.954265 -12.000000 3.991319
v -105.771327 -11.800000 4.072149
v -105.831669 -11.800000 4.155948
v -105.899002 -11.973205 4.082013
v -105.849711 -11.900000 4.136138
v -105.862796 -11.973205 4.031734
v -105.795836 -11.900000 4.061320
v -112.579268 -11.800000 4.208211
v -112.570772 -11.900000 4.182799
v -112.547561 -11.973205 4.113371
v -112.515854 -12.000000 4.018531
v -110.355603 -12.000000 4.490490
v -108.144397 -12.000000 4.490490
v -108.122929 -11.800000 4.689335
v -110.377071 -11.800000 4.689335
v -110.366337 -11.973205 4.589913
v -110.374195 -11.900000 4.662695
v -108.133663 -11.973205 4.589913
v -108.125805 -11.900000 4.662695
v -112.750000 -11.800000 3.971111
v -112.723205 -11.900000 3.971111
v -112.650000 -11.973205 3.971111
v -112.550000 -12.000000 3.971111
v -112.545735 -12.000000 3.991319
v -112.533666 -12.000000 4.008078
v -112.668331 -11.800000 4.155948
v -112.728673 -11.800000 4.072149
v -112.637204 -11.973205 4.031734
v -112.704164 -11.900000 4.061320
v -112.600998 -11.973205 4.082013
v -112.650289 -11.900000 4.136138
v -112.750000 -11.800000 -1.750000
v -112.723205 -11.900000 -1.750000
v -112.650000 -11.973205 -1.750000
v -112.550000 -12.000000 -1.750000
v -112.723205 -11.900000 0.157037
v -112.723205 -11.900000 2.064074
v -112.650000 -11.973205 0.157037
v -112.650000 -11.973205 2.064074
v -112.896447 -11.800000 -2.103553
v -112.877500 -11.900000 -2.122500
v -112.825736 -11.973205 -2.174264
v -112.755025 -12.000000 -2.244975
v -112.643782 -12.000000 -2.100000
v -112.573852 -12.000000 -1.931173
v -112.767037 -11.800000 -1.879410
v -112.816987 -11.800000 -2.000000
v -112.695672 -11.973205 -1.979610
v -112.763305 -11.900000 -1.951596
v -112.896447 -8.500000 -2.103553
v -112.750000 -8.500000 -1.750000
v -112.767037 -8.500000 -1.879410
v -112.816987 -8.500000 -2.000000
v -112.750000 -8.500000 3.971111
v -112.579268 -8.500000 4.208211
v -112.668331 -8.500000 4.155948
v -112.728673 -8.500000 4.072149
v -112.728673 -10.150000 4.072149
v -112.668331 -10.150000 4.155948
v -105.920732 -8.500000 4.208211
v -108.122929 -8.500000 4.689335
v -110.377071 -8.500000 4.689335
v -105.750000 -8.500000 3.971111
v -105.771327 -8.500000 4.072149
v -105.831669 -8.500000 4.155948
v -105.831669 -10.150000 4.155948
v -105.771327 -10.150000 4.072149
v -105.750000 -8.500000 -1.750000
v -105.603553 -8.500000 -2.103553
v -105.683013 -8.500000 -2.000000
v -105.732963 -8.500000 -1.879410
v -109.250000 -8.500000 -5.750000
v -109.250000 -12.000000 -5.750000
vt 0.031416 -0.131612 0.000000
vt 0.041888 -0.131612 0.000000
vt 0.031416 -0.116988 0.000000
vt 0.041888 -0.109677 0.000000
vt 0.031416 -0.102365 0.000000
vt 0.041888 -0.087741 0.000000
vt 0.031416 -0.087741 0.000000
vt 0.052360 -0.131612 0.000000
vt 0.052360 -0.109677 0.000000
vt 0.052360 -0.087741 0.000000
vt 0.062832 -0.102365 0.000000
vt 0.062832 -0.087741 0.000000
vt 0.062832 -0.131612 0.000000
vt 0.062832 -0.116988 0.000000
vt -0.772111 0.005236 0.000000
vt -0.581407 0.005236 0.000000
vt -0.772111 0.015708 0.000000
vt -0.390704 0.005236 0.000000
vt -0.200000 0.015708 0.000000
vt -0.200000 0.005236 0.000000
vt -0.200000 -0.005236 0.000000
vt -0.390704 -0.005236 0.000000
vt -0.200000 -0.015708 0.000000
vt -0.581407 -0.005236 0.000000
vt -0.772111 -0.015708 0.000000
vt -0.772111 -0.005236 0.000000
vt -0.000000 0.053961 0.000000
vt -0.010472 0.053961 0.000000
vt -0.000000 0.045997 0.000000
vt -0.010472 0.045997 0.000000
vt -0.000000 0.038033 0.000000
vt -0.010472 0.038033 0.000000
vt -0.000000 0.030068 0.000000
vt -0.010472 0.030068 0.000000
vt -0.020944 0.038033 0.000000
vt -0.020944 0.030068 0.000000
vt -0.031416 0.038033 0.000000
vt -0.031416 0.030068 0.000000
vt -0.020944 0.053961 0.000000
vt -0.020944 0.045997 0.000000
vt -0.031416 0.053961 0.000000
vt -0.031416 0.045997 0.000000
vt -0.000000 -2.943385 0.000000
vt -0.010472 -2.943385 0.000000
vt -0.000000 -3.167975 0.000000
vt -0.010472 -3.167975 0.000000
vt -0.000000 -3.392564 0.000000
vt -0.010472 -3.392564 0.000000
vt -0.000000 -3.617153 0.000000
vt -0.010472 -3.617153 0.000000
vt -0.020944 -3.392564 0.000000
vt -0.020944 -3.617153 0.000000
vt -0.031416 -3.392564 0.000000
vt -0.031416 -3.617153 0.000000
vt -0.020944 -2.943385 0.000000
vt -0.020944 -3.167975 0.000000
vt -0.031416 -2.943385 0.000000
vt -0.031416 -3.167975 0.000000
vt -0.000000 -0.030068 0.000000
vt -0.010472 -0.030068 0.000000
vt -0.000000 -0.038033 0.000000
vt -0.010472 -0.038033 0.000000
vt -0.000000 -0.045997 0.000000
vt -0.010472 -0.045997 0.000000
vt -0.000000 -0.053961 0.000000
vt -0.010472 -0.053961 0.000000
vt -0.020944 -0.045997 0.000000
vt -0.020944 -0.053961 0.000000
vt -0.031416 -0.045997 0.000000
vt -0.031416 -0.053961 0.000000
vt -0.020944 -0.030068 0.000000
vt -0.020944 -0.038033 0.000000
vt -0.031416 -0.030068 0.000000
vt -0.031416 -0.038033 0.000000
vt -0.086056 0.005236 0.000000
vt 0.104648 0.005236 0.000000
vt -0.086056 0.015708 0.000000
vt 0.295352 0.005236 0.000000
vt 0.486056 0.015708 0.000000
vt 0.486056 0.005236 0.000000
vt 0.486056 -0.005236 0.000000
vt 0.295352 -0.005236 0.000000
vt 0.486056 -0.015708 0.000000
vt 0.104648 -0.005236 0.000000
vt -0.086056 -0.015708 0.000000
vt -0.086056 -0.005236 0.000000
vt 0.062832 0.131612 0.000000
vt 0.052360 0.131612 0.000000
vt 0.062832 0.116988 0.000000
vt 0.052360 0.109677 0.000000
vt 0.062832 0.102365 0.000000
vt 0.052360 0.087741 0.000000
vt 0.062832 0.087741 0.000000
vt 0.041888 0.131612 0.000000
vt 0.041888 0.109677 0.000000
vt 0.041888 0.087741 0.000000
vt 0.031416 0.102365 0.000000
vt 0.031416 0.087741 0.000000
vt 0.031416 0.131612 0.000000
vt 0.031416 0.116988 0.000000
vt 0.000000 0.039270 0.000000
vt 0.330000 0.039270 0.000000
vt 0.000000 0.052360 0.000000
vt 0.330000 0.052360 0.000000
vt 0.330000 0.065450 0.000000
vt 0.330000 0.078540 0.000000
vt -0.000000 0.078540 0.000000
vt -0.000000 0.065450 0.000000
vt 0.572111 0.330000 0.000000
vt 0.000000 0.330000 0.000000
vt 0.572111 0.000000 0.000000
vt 0.000000 0.000000 0.000000
vt -0.000000 0.031204 0.000000
vt -0.330000 0.031204 0.000000
vt -0.165000 0.020803 0.000000
vt -0.330000 0.020803 0.000000
vt -0.165000 0.010401 0.000000
vt -0.330000 0.010401 0.000000
vt -0.330000 0.000000 0.000000
vt -0.000000 0.000000 0.000000
vt -0.000000 0.010401 0.000000
vt -0.000000 0.020803 0.000000
vt -0.000000 0.677548 0.000000
vt -0.330000 0.677548 0.000000
vt -0.000000 0.451699 0.000000
vt -0.330000 0.451699 0.000000
vt -0.000000 0.225849 0.000000
vt -0.330000 0.225849 0.000000
vt -0.000000 -0.000000 0.000000
vt -0.330000 -0.000000 0.000000
vt -0.000000 0.031204 0.000000
vt -0.330000 0.031204 0.000000
vt -0.165000 0.020803 0.000000
vt -0.330000 0.020803 0.000000
vt -0.165000 0.010401 0.000000
vt -0.330000 0.010401 0.000000
vt -0.330000 0.000000 0.000000
vt -0.000000 0.000000 0.000000
vt -0.000000 0.010401 0.000000
vt -0.000000 0.020803 0.000000
vt 0.572111 0.330000 0.000000
vt 0.000000 0.330000 0.000000
vt 0.572111 0.000000 0.000000
vt 0.000000 0.000000 0.000000
vt 0.330000 0.039270 0.000000
vt -0.000000 0.039270 0.000000
vt 0.330000 0.026180 0.000000
vt -0.000000 0.026180 0.000000
vt -0.000000 0.013090 0.000000
vt 0.000000 0.000000 0.000000
vt 0.330000 0.000000 0.000000
vt 0.330000 0.013090 0.000000
vt 0.364645 0.364645 0.000000
vt 0.356699 0.375000 0.000000
vt 0.000000 0.000000 0.000000
vt 0.351704 0.387059 0.000000
vt 0.350000 0.400000 0.000000
vt 0.112707 1.043933 0.000000
vt 0.350000 0.972111 0.000000
vt 0.332927 0.995821 0.000000
vt 0.341833 0.990595 0.000000
vt 0.347867 0.982215 0.000000
vt -0.112707 1.043933 0.000000
vt -0.350000 0.400000 0.000000
vt -0.351704 0.387059 0.000000
vt -0.350000 0.972111 0.000000
vt -0.332927 0.995821 0.000000
vt -0.341833 0.990595 0.000000
vt -0.347867 0.982215 0.000000
vt -0.356699 0.375000 0.000000
vt -0.364645 0.364645 0.000000
vt -0.495685 -0.175000 0.000000
vt 0.000000 -0.175000 0.000000
vt -0.515685 -0.155000 0.000000
vt 0.000000 0.175000 0.000000
vt -0.515685 0.175000 0.000000
vt -0.513006 -0.165000 0.000000
vt -0.505685 -0.172321 0.000000
vt -0.350503 0.350503 0.000000
vt -0.000000 0.000000 0.000000
vt -0.339378 0.365000 0.000000
vt -0.332385 0.381883 0.000000
vt -0.330000 0.400000 0.000000
vt 0.330000 0.400000 0.000000
vt -0.110560 1.024049 0.000000
vt 0.110560 1.024049 0.000000
vt 0.330000 0.972111 0.000000
vt 0.326585 0.976853 0.000000
vt 0.328367 0.975808 0.000000
vt 0.329573 0.974132 0.000000
vt 0.350503 0.350503 0.000000
vt 0.339378 0.365000 0.000000
vt 0.332385 0.381883 0.000000
vt -0.330000 0.972111 0.000000
vt -0.326585 0.976853 0.000000
vt -0.328367 0.975808 0.000000
vt -0.329573 0.974132 0.000000
vt 0.515685 0.175000 0.000000
vt 0.000000 0.175000 0.000000
vt 0.515685 -0.155000 0.000000
vt 0.000000 -0.175000 0.000000
vt 0.495685 -0.175000 0.000000
vt 0.505685 -0.172321 0.000000
vt 0.513006 -0.165000 0.000000
vn -0.000000 -0.100000 -0.000000
vn 0.035355 -0.086603 0.035355
vn 0.000000 -0.100000 0.000000
vn 0.046194 -0.086603 0.019134
vn -0.000000 -0.100000 -0.000000
vn 0.050000 -0.086603 -0.000000
vn 0.000000 -0.100000 -0.000000
vn 0.061237 -0.050000 0.061237
vn 0.080010 -0.050000 0.033141
vn 0.086603 -0.050000 -0.000000
vn 0.096593 -0.000000 0.025882
vn 0.100000 -0.000000 -0.000000
vn 0.070711 -0.000000 0.070711
vn 0.086603 -0.000000 0.050000
vn 0.086603 -0.050000 0.000000
vn 0.086603 -0.050000 0.000000
vn 0.100000 0.000000 0.000000
vn 0.086603 -0.050000 0.000000
vn 0.050000 -0.086603 0.000000
vn 0.050000 -0.086603 0.000000
vn 0.000000 -0.100000 0.000000
vn 0.050000 -0.086603 0.000000
vn 0.031707 0.000000 0.094840
vn 0.027459 -0.050000 0.082134
vn 0.067332 0.000000 0.073935
vn 0.058311 -0.050000 0.064030
vn 0.091469 0.000000 0.040415
vn 0.079215 -0.050000 0.035001
vn 0.045735 -0.086603 0.020208
vn -0.000000 -0.100000 -0.000000
vn 0.015854 -0.086603 0.047420
vn 0.033666 -0.086603 0.036967
vn 0.000000 -0.100000 0.000000
vn 0.000000 -0.100000 0.000000
vn -0.031707 0.000000 0.094840
vn -0.027459 -0.050000 0.082134
vn -0.010734 0.000000 0.099422
vn -0.009296 -0.050000 0.086102
vn 0.010734 0.000000 0.099422
vn 0.009296 -0.050000 0.086102
vn 0.005367 -0.086603 0.049711
vn 0.000000 -0.100000 0.000000
vn -0.015854 -0.086603 0.047420
vn -0.005367 -0.086603 0.049711
vn -0.000000 -0.100000 0.000000
vn -0.000000 -0.100000 0.000000
vn -0.100000 0.000000 -0.000000
vn -0.086603 -0.050000 -0.000000
vn -0.091469 0.000000 0.040415
vn -0.079215 -0.050000 0.035001
vn -0.067332 0.000000 0.073935
vn -0.058311 -0.050000 0.064030
vn -0.033666 -0.086603 0.036967
vn -0.000000 -0.100000 0.000000
vn -0.050000 -0.086603 -0.000000
vn -0.045735 -0.086603 0.020208
vn -0.000000 -0.100000 -0.000000
vn 0.000000 -0.100000 -0.000000
vn -0.086603 -0.050000 0.000000
vn -0.086603 -0.050000 0.000000
vn -0.100000 0.000000 -0.000000
vn -0.086603 -0.050000 0.000000
vn -0.050000 -0.086603 0.000000
vn -0.050000 -0.086603 0.000000
vn 0.000000 -0.100000 0.000000
vn -0.050000 -0.086603 0.000000
vn -0.070711 -0.000000 0.070711
vn -0.061237 -0.050000 0.061237
vn -0.086603 -0.000000 0.050000
vn -0.080010 -0.050000 0.033141
vn -0.096593 -0.000000 0.025882
vn -0.035355 -0.086603 0.035355
vn -0.046194 -0.086603 0.019134
vn -0.000000 -0.100000 0.000000
vn -0.000000 -0.100000 0.000000
vn -0.000000 -0.100000 0.000000
vn -0.070711 0.000000 0.070711
vn -0.086603 0.000000 0.050000
vn -0.100000 0.000000 0.000000
vn -0.096593 0.000000 0.025882
vn -0.100000 0.000000 0.000000
vn -0.091469 0.000000 0.040415
vn -0.067332 0.000000 0.073935
vn -0.031707 0.000000 0.094840
vn -0.067332 0.000000 0.073935
vn -0.091469 0.000000 0.040415
vn -0.010734 0.000000 0.099422
vn 0.010734 0.000000 0.099422
vn 0.031707 0.000000 0.094840
vn 0.067332 0.000000 0.073935
vn 0.091469 0.000000 0.040415
vn 0.100000 0.000000 0.000000
vn 0.091469 0.000000 0.040415
vn 0.067332 0.000000 0.073935
vn 0.100000 0.000000 0.000000
vn 0.070711 0.000000 0.070711
vn 0.086603 0.000000 0.050000
vn 0.096593 0.000000 0.025882
vn -0.000000 0.100000 -0.000000
vn -0.000000 0.100000 -0.000000
vn -0.000000 0.100000 -0.000000
vn -0.000000 0.100000 -0.000000
vn -0.000000 0.100000 -0.000000
vn -0.000000 0.100000 -0.000000
vn -0.000000 0.100000 -0.000000
vn -0.000000 0.100000 -0.000000
vn -0.000000 0.100000 -0.000000
vn -0.000000 0.100000 -0.000000
vn -0.000000 0.100000 -0.000000
vn -0.000000 0.100000 -0.000000
vn -0.000000 0.100000 -0.000000
vn -0.000000 0.100000 -0.000000
vn -0.000000 0.100000 -0.000000
vn -0.000000 0.100000 -0.000000
vn -0.000000 0.100000 -0.000000
vn -0.000000 0.100000 -0.000000
vn -0.000000 0.100000 -0.000000
vn 0.070711 0.000000 -0.070711
vn 0.070711 0.000000 -0.070711
vn 0.070711 0.000000 -0.070711
vn 0.070711 0.000000 -0.070711
vn 0.070711 0.000000 -0.070711
vn 0.070711 0.000000 -0.070711
vn 0.070711 0.000000 -0.070711
vn 0.000000 -0.100000 0.000000
vn -0.070711 0.000000 -0.070711
vn -0.070711 0.000000 -0.070711
vn -0.070711 0.000000 -0.070711
vn -0.070711 0.000000 -0.070711
vn -0.070711 0.000000 -0.070711
vn -0.070711 0.000000 -0.070711
vn -0.070711 0.000000 -0.070711
usemtl Paint_-_Enamel_Glossy_(Black)
f 1/1/1 2/2/2 12/3/3
f 12/3/3 2/2/2 14/4/4
f 12/3/3 14/4/4 11/5/5
f 11/5/5 14/4/4 9/6/6
f 11/5/5 9/6/6 10/7/7
f 2/2/2 3/8/8 14/4/4
f 14/4/4 3/8/8 13/9/9
f 14/4/4 13/9/9 9/6/6
f 9/6/6 13/9/9 8/10/10
f 8/10/10 13/9/9 6/11/11
f 8/10/10 6/11/11 7/12/12
f 4/13/13 5/14/14 3/8/8
f 3/8/8 5/14/14 13/9/9
f 5/14/14 6/11/11 13/9/9
f 16/15/15 19/16/16 15/17/17
f 15/17/17 19/16/16 20/18/18
f 15/17/17 20/18/18 7/19/12
f 7/19/12 20/18/18 8/20/10
f 8/20/10 20/18/18 9/21/6
f 9/21/6 20/18/18 22/22/19
f 9/21/6 22/22/19 10/23/7
f 10/23/7 22/22/19 21/24/20
f 10/23/7 21/24/20 18/25/21
f 18/25/21 21/24/20 17/26/22
f 17/26/22 21/24/20 16/15/15
f 16/15/15 21/24/20 19/16/16
f 22/22/19 20/18/18 19/16/16
f 22/22/19 19/16/16 21/24/20
f 23/27/23 24/28/24 30/29/25
f 30/29/25 24/28/24 32/30/26
f 30/29/25 32/30/26 29/31/27
f 29/31/27 32/30/26 34/32/28
f 29/31/27 34/32/28 15/33/17
f 15/33/17 34/32/28 16/34/15
f 16/34/15 34/32/28 33/35/29
f 16/34/15 33/35/29 17/36/22
f 17/36/22 33/35/29 28/37/30
f 17/36/22 28/37/30 18/38/21
f 24/28/24 25/39/31 32/30/26
f 32/30/26 25/39/31 31/40/32
f 32/30/26 31/40/32 34/32/28
f 34/32/28 31/40/32 33/35/29
f 25/39/31 26/41/33 31/40/32
f 31/40/32 26/41/33 27/42/34
f 31/40/32 27/42/34 33/35/29
f 33/35/29 27/42/34 28/37/30
f 35/43/35 36/44/36 42/45/37
f 42/45/37 36/44/36 44/46/38
f 42/45/37 44/46/38 41/47/39
f 41/47/39 44/46/38 46/48/40
f 41/47/39 46/48/40 23/49/23
f 23/49/23 46/48/40 24/50/24
f 24/50/24 46/48/40 45/51/41
f 24/50/24 45/51/41 25/52/31
f 25/52/31 45/51/41 40/53/42
f 25/52/31 40/53/42 26/54/33
f 36/44/36 37/55/43 44/46/38
f 44/46/38 37/55/43 43/56/44
f 44/46/38 43/56/44 46/48/40
f 46/48/40 43/56/44 45/51/41
f 37/55/43 38/57/45 43/56/44
f 43/56/44 38/57/45 39/58/46
f 43/56/44 39/58/46 45/51/41
f 45/51/41 39/58/46 40/53/42
f 47/59/47 48/60/48 54/61/49
f 54/61/49 48/60/48 56/62/50
f 54/61/49 56/62/50 53/63/51
f 53/63/51 56/62/50 58/64/52
f 53/63/51 58/64/52 35/65/35
f 35/65/35 58/64/52 36/66/36
f 36/66/36 58/64/52 57/67/53
f 36/66/36 57/67/53 37/68/43
f 37/68/43 57/67/53 52/69/54
f 37/68/43 52/69/54 38/70/45
f 48/60/48 49/71/55 56/62/50
f 56/62/50 49/71/55 55/72/56
f 56/62/50 55/72/56 58/64/52
f 58/64/52 55/72/56 57/67/53
f 49/71/55 50/73/57 55/72/56
f 55/72/56 50/73/57 51/74/58
f 55/72/56 51/74/58 57/67/53
f 57/67/53 51/74/58 52/69/54
f 60/75/59 63/76/60 59/77/61
f 59/77/61 63/76/60 64/78/62
f 59/77/61 64/78/62 47/79/47
f 47/79/47 64/78/62 48/80/48
f 48/80/48 64/78/62 49/81/55
f 49/81/55 64/78/62 66/82/63
f 49/81/55 66/82/63 50/83/57
f 50/83/57 66/82/63 65/84/64
f 50/83/57 65/84/64 62/85/65
f 62/85/65 65/84/64 61/86/66
f 61/86/66 65/84/64 60/75/59
f 60/75/59 65/84/64 63/76/60
f 66/82/63 64/78/62 63/76/60
f 66/82/63 63/76/60 65/84/64
f 67/87/67 68/88/68 74/89/69
f 74/89/69 68/88/68 76/90/70
f 74/89/69 76/90/70 73/91/71
f 73/91/71 76/90/70 60/92/59
f 73/91/71 60/92/59 59/93/61
f 68/88/68 69/94/72 76/90/70
f 76/90/70 69/94/72 75/95/73
f 76/90/70 75/95/73 60/92/59
f 60/92/59 75/95/73 61/96/66
f 61/96/66 75/95/73 72/97/74
f 61/96/66 72/97/74 62/98/65
f 70/99/75 71/100/76 69/94/72
f 69/94/72 71/100/76 75/95/73
f 71/100/76 72/97/74 75/95/73
f 77/101/77 67/102/67 80/103/78
f 80/103/78 67/102/67 74/104/69
f 80/103/78 74/104/69 73/105/71
f 59/106/61 78/107/79 73/105/71
f 73/105/71 78/107/79 79/108/80
f 73/105/71 79/108/80 80/103/78
f 59/109/61 47/110/47 78/111/79
f 78/111/79 47/110/47 81/112/81
f 81/113/81 47/114/47 85/115/82
f 85/115/82 47/114/47 54/116/49
f 85/115/82 54/116/49 86/117/83
f 86/117/83 54/116/49 53/118/51
f 86/117/83 53/118/51 35/119/35
f 35/119/35 82/120/84 86/117/83
f 86/117/83 82/120/84 83/121/85
f 86/117/83 83/121/85 85/115/82
f 85/115/82 83/121/85 84/122/86
f 85/115/82 84/122/86 81/113/81
f 82/123/84 35/124/35 89/125/87
f 89/125/87 35/124/35 42/126/37
f 89/125/87 42/126/37 88/127/88
f 88/127/88 42/126/37 41/128/39
f 88/127/88 41/128/39 87/129/89
f 87/129/89 41/128/39 23/130/23
f 87/131/89 23/132/23 93/133/90
f 93/133/90 23/132/23 30/134/25
f 93/133/90 30/134/25 94/135/91
f 94/135/91 30/134/25 29/136/27
f 94/135/91 29/136/27 15/137/17
f 15/137/17 90/138/92 94/135/91
f 94/135/91 90/138/92 91/139/93
f 94/135/91 91/139/93 93/133/90
f 93/133/90 91/139/93 92/140/94
f 93/133/90 92/140/94 87/131/89
f 15/141/17 7/142/12 90/143/92
f 90/143/92 7/142/12 95/144/95
f 4/145/13 96/146/96 5/147/14
f 5/147/14 96/146/96 97/148/97
f 5/147/14 97/148/97 98/149/98
f 95/150/95 7/151/12 98/149/98
f 98/149/98 7/151/12 6/152/11
f 98/149/98 6/152/11 5/147/14
f 77/153/99 80/154/100 99/155/101
f 99/155/101 80/154/100 79/156/102
f 99/155/101 79/156/102 78/157/103
f 99/155/101 78/157/103 89/158/104
f 89/158/104 78/157/103 81/159/105
f 89/158/104 81/159/105 82/160/106
f 82/160/106 81/159/105 83/161/107
f 83/161/107 81/159/105 84/162/108
f 89/158/104 88/163/109 99/155/101
f 99/155/101 88/163/109 95/164/110
f 99/155/101 95/164/110 98/165/111
f 95/164/110 88/163/109 90/166/112
f 90/166/112 88/163/109 87/167/113
f 90/166/112 87/167/113 92/168/114
f 92/168/114 91/169/115 90/166/112
f 98/165/111 97/170/116 99/155/101
f 99/155/101 97/170/116 96/171/117
f 1/172/118 100/173/119 4/174/120
f 4/174/120 100/173/119 99/175/121
f 4/174/120 99/175/121 96/176/122
f 4/174/120 3/177/123 1/172/118
f 1/172/118 3/177/123 2/178/124
f 70/179/75 100/180/125 71/181/76
f 71/181/76 100/180/125 72/182/74
f 72/182/74 100/180/125 62/183/65
f 62/183/65 100/180/125 10/184/7
f 62/183/65 10/184/7 39/185/46
f 39/185/46 10/184/7 40/186/42
f 40/186/42 10/184/7 18/187/21
f 40/186/42 18/187/21 26/188/33
f 26/188/33 18/187/21 27/189/34
f 27/189/34 18/187/21 28/190/30
f 1/191/1 12/192/3 100/180/125
f 100/180/125 12/192/3 11/193/5
f 100/180/125 11/193/5 10/184/7
f 62/183/65 39/185/46 50/194/57
f 50/194/57 39/185/46 38/195/45
f 50/194/57 38/195/45 52/196/54
f 52/196/54 51/197/58 50/194/57
f 77/198/126 99/199/127 67/200/128
f 67/200/128 99/199/127 100/201/129
f 67/200/128 100/201/129 70/202/130
f 69/203/131 68/204/132 70/202/130
f 70/202/130 68/204/132 67/200/128
# 100 vertices
# 204 texture params
# 132 normals
# 196 facets

# 1 groups
