# WaveFront *.obj file (generated by Autodesk ATF)

mtllib AyaNeoNext_AyaNeoNext-01 v19_DPadRight_AyaNeoNext-01 v19.mtl

g DPadRight

v -105.250000 -11.800000 -2.250000
v -99.528889 -11.800000 -2.250000
v -99.528889 -8.500000 -2.250000
v -105.250000 -8.500000 -2.250000
v -105.603553 -11.800000 -9.396447
v -105.603553 -8.500000 -9.396447
v -105.500000 -8.500000 -9.316987
v -105.379410 -8.500000 -9.267037
v -105.250000 -8.500000 -9.250000
v -105.250000 -11.800000 -9.250000
v -105.379410 -11.800000 -9.267037
v -105.500000 -11.800000 -9.316987
v -99.528889 -11.800000 -9.250000
v -99.528889 -8.500000 -9.250000
v -99.291789 -11.800000 -9.079268
v -99.344052 -11.800000 -9.168331
v -99.427851 -11.800000 -9.228673
v -99.427851 -8.500000 -9.228673
v -99.344052 -8.500000 -9.168331
v -99.291789 -8.500000 -9.079268
v -99.344052 -10.150000 -9.168331
v -99.427851 -10.150000 -9.228673
v -99.291789 -11.800000 -2.420732
v -98.810665 -11.800000 -4.622929
v -98.810665 -11.800000 -6.877071
v -98.810665 -8.500000 -6.877071
v -98.810665 -8.500000 -4.622929
v -99.291789 -8.500000 -2.420732
v -99.427851 -11.800000 -2.271327
v -99.344052 -11.800000 -2.331669
v -99.344052 -8.500000 -2.331669
v -99.427851 -8.500000 -2.271327
v -99.427851 -10.150000 -2.271327
v -99.344052 -10.150000 -2.331669
v -105.603553 -11.800000 -2.103553
v -105.622500 -11.900000 -2.122500
v -105.674264 -11.973205 -2.174264
v -105.744975 -12.000000 -2.244975
v -105.600000 -12.000000 -2.356218
v -105.431173 -12.000000 -2.426148
v -105.250000 -12.000000 -2.450000
v -105.250000 -11.973205 -2.350000
v -105.250000 -11.900000 -2.276795
v -105.379410 -11.800000 -2.232963
v -105.500000 -11.800000 -2.183013
v -105.479610 -11.973205 -2.304328
v -105.451596 -11.900000 -2.236695
v -99.528889 -12.000000 -2.450000
v -99.528889 -11.973205 -2.350000
v -99.528889 -11.900000 -2.276795
v -103.342963 -11.900000 -2.276795
v -101.435926 -11.900000 -2.276795
v -103.342963 -11.973205 -2.350000
v -101.435926 -11.973205 -2.350000
v -99.508681 -12.000000 -2.454265
v -99.491922 -12.000000 -2.466334
v -99.481469 -12.000000 -2.484146
v -99.386629 -11.973205 -2.452439
v -99.317201 -11.900000 -2.429228
v -99.468266 -11.973205 -2.362796
v -99.438680 -11.900000 -2.295836
v -99.417987 -11.973205 -2.399002
v -99.363862 -11.900000 -2.349711
v -99.009510 -12.000000 -4.644397
v -99.009510 -12.000000 -6.855603
v -99.481469 -12.000000 -9.015854
v -99.386629 -11.973205 -9.047561
v -99.317201 -11.900000 -9.070772
v -98.910087 -11.973205 -4.633663
v -98.837305 -11.900000 -4.625805
v -98.910087 -11.973205 -6.866337
v -98.837305 -11.900000 -6.874195
v -99.491922 -12.000000 -9.033666
v -99.508681 -12.000000 -9.045735
v -99.528889 -12.000000 -9.050000
v -99.528889 -11.973205 -9.150000
v -99.528889 -11.900000 -9.223205
v -99.417987 -11.973205 -9.100998
v -99.363862 -11.900000 -9.150289
v -99.468266 -11.973205 -9.137204
v -99.438680 -11.900000 -9.204164
v -105.250000 -12.000000 -9.050000
v -105.250000 -11.973205 -9.150000
v -105.250000 -11.900000 -9.223205
v -101.435926 -11.900000 -9.223205
v -103.342963 -11.900000 -9.223205
v -101.435926 -11.973205 -9.150000
v -103.342963 -11.973205 -9.150000
v -105.603553 -8.500000 -2.103553
v -105.379410 -8.500000 -2.232963
v -105.500000 -8.500000 -2.183013
v -109.250000 -8.500000 -5.750000
v -105.744975 -12.000000 -9.255025
v -105.674264 -11.973205 -9.325736
v -105.622500 -11.900000 -9.377500
v -105.431173 -12.000000 -9.073852
v -105.600000 -12.000000 -9.143782
v -105.451596 -11.900000 -9.263305
v -105.479610 -11.973205 -9.195672
v -109.250000 -12.000000 -5.750000
vt 0.572111 0.330000 0.000000
vt 0.000000 0.330000 0.000000
vt 0.572111 -0.000000 0.000000
vt 0.000000 0.000000 0.000000
vt 0.330000 0.039270 0.000000
vt -0.000000 0.039270 0.000000
vt 0.330000 0.026180 0.000000
vt -0.000000 0.026180 0.000000
vt -0.000000 0.013090 0.000000
vt 0.000000 0.000000 0.000000
vt 0.330000 0.000000 0.000000
vt 0.330000 0.013090 0.000000
vt 0.572111 0.330000 0.000000
vt 0.000000 0.330000 0.000000
vt 0.572111 0.000000 0.000000
vt 0.000000 0.000000 0.000000
vt -0.000000 0.031204 0.000000
vt -0.330000 0.031204 0.000000
vt -0.165000 0.020803 0.000000
vt -0.330000 0.020803 0.000000
vt -0.165000 0.010401 0.000000
vt -0.330000 0.010401 0.000000
vt -0.330000 0.000000 0.000000
vt -0.000000 0.000000 0.000000
vt -0.000000 0.010401 0.000000
vt -0.000000 0.020803 0.000000
vt -0.000000 0.677548 0.000000
vt -0.330000 0.677548 0.000000
vt -0.000000 0.451699 0.000000
vt -0.330000 0.451699 0.000000
vt -0.000000 0.225849 0.000000
vt -0.330000 0.225849 0.000000
vt -0.000000 0.000000 0.000000
vt -0.330000 0.000000 0.000000
vt -0.000000 0.031204 0.000000
vt -0.330000 0.031204 0.000000
vt -0.165000 0.020803 0.000000
vt -0.330000 0.020803 0.000000
vt -0.165000 0.010401 0.000000
vt -0.330000 0.010401 0.000000
vt -0.330000 0.000000 0.000000
vt -0.000000 0.000000 0.000000
vt -0.000000 0.010401 0.000000
vt -0.000000 0.020803 0.000000
vt 0.062832 -0.131612 0.000000
vt 0.052360 -0.131612 0.000000
vt 0.062832 -0.146236 0.000000
vt 0.052360 -0.153547 0.000000
vt 0.062832 -0.160859 0.000000
vt 0.052360 -0.175483 0.000000
vt 0.062832 -0.175483 0.000000
vt 0.041888 -0.131612 0.000000
vt 0.041888 -0.153547 0.000000
vt 0.041888 -0.175483 0.000000
vt 0.031416 -0.160859 0.000000
vt 0.031416 -0.175483 0.000000
vt 0.031416 -0.131612 0.000000
vt 0.031416 -0.146236 0.000000
vt -0.086056 0.005236 0.000000
vt 0.104648 0.005236 0.000000
vt -0.086056 0.015708 0.000000
vt 0.295352 0.005236 0.000000
vt 0.486056 0.015708 0.000000
vt 0.486056 0.005236 0.000000
vt 0.486056 -0.005236 0.000000
vt 0.295352 -0.005236 0.000000
vt 0.486056 -0.015708 0.000000
vt 0.104648 -0.005236 0.000000
vt -0.086056 -0.015708 0.000000
vt -0.086056 -0.005236 0.000000
vt -0.000000 -0.060137 0.000000
vt -0.010472 -0.060137 0.000000
vt -0.000000 -0.068101 0.000000
vt -0.010472 -0.068101 0.000000
vt -0.000000 -0.076065 0.000000
vt -0.010472 -0.076065 0.000000
vt -0.000000 -0.084029 0.000000
vt -0.010472 -0.084029 0.000000
vt -0.020944 -0.076065 0.000000
vt -0.020944 -0.084029 0.000000
vt -0.031416 -0.076065 0.000000
vt -0.031416 -0.084029 0.000000
vt -0.020944 -0.060137 0.000000
vt -0.020944 -0.068101 0.000000
vt -0.031416 -0.060137 0.000000
vt -0.031416 -0.068101 0.000000
vt -0.000000 1.977019 0.000000
vt -0.010472 1.977019 0.000000
vt -0.000000 1.752429 0.000000
vt -0.010472 1.752429 0.000000
vt -0.000000 1.527840 0.000000
vt -0.010472 1.527840 0.000000
vt -0.000000 1.303251 0.000000
vt -0.010472 1.303251 0.000000
vt -0.020944 1.527840 0.000000
vt -0.020944 1.303251 0.000000
vt -0.031416 1.527840 0.000000
vt -0.031416 1.303251 0.000000
vt -0.020944 1.977019 0.000000
vt -0.020944 1.752429 0.000000
vt -0.031416 1.977019 0.000000
vt -0.031416 1.752429 0.000000
vt -0.000000 0.015928 0.000000
vt -0.010472 0.023892 0.000000
vt -0.010472 0.015928 0.000000
vt -0.000000 0.007964 0.000000
vt -0.010472 0.007964 0.000000
vt -0.000000 0.000000 0.000000
vt -0.010472 0.000000 0.000000
vt -0.020944 0.007964 0.000000
vt -0.020944 0.000000 0.000000
vt -0.031416 0.007964 0.000000
vt -0.031416 0.000000 0.000000
vt -0.020944 0.023892 0.000000
vt -0.020944 0.015928 0.000000
vt -0.031416 0.023892 0.000000
vt -0.031416 0.015928 0.000000
vt -0.772111 0.005236 0.000000
vt -0.581407 0.005236 0.000000
vt -0.772111 0.015708 0.000000
vt -0.390704 0.005236 0.000000
vt -0.200000 0.015708 0.000000
vt -0.200000 0.005236 0.000000
vt -0.200000 -0.005236 0.000000
vt -0.390704 -0.005236 0.000000
vt -0.200000 -0.015708 0.000000
vt -0.581407 -0.005236 0.000000
vt -0.772111 -0.015708 0.000000
vt -0.772111 -0.005236 0.000000
vt -0.000000 0.039270 0.000000
vt 0.330000 0.039270 0.000000
vt -0.000000 0.052360 0.000000
vt 0.330000 0.052360 0.000000
vt 0.330000 0.065450 0.000000
vt 0.330000 0.078540 0.000000
vt 0.000000 0.078540 0.000000
vt -0.000000 0.065450 0.000000
vt -0.364645 -0.364645 0.000000
vt 0.000000 0.000000 0.000000
vt -0.375000 -0.356699 0.000000
vt -0.387059 -0.351704 0.000000
vt -0.400000 -0.350000 0.000000
vt -1.043933 -0.112707 0.000000
vt -0.972111 -0.350000 0.000000
vt -0.995821 -0.332927 0.000000
vt -0.990595 -0.341833 0.000000
vt -0.364645 0.364645 0.000000
vt -0.375000 0.356699 0.000000
vt -0.387059 0.351704 0.000000
vt -0.400000 0.350000 0.000000
vt -1.043933 0.112707 0.000000
vt -0.972111 0.350000 0.000000
vt -0.995821 0.332927 0.000000
vt -0.990595 0.341833 0.000000
vt -0.982215 0.347867 0.000000
vt -0.982215 -0.347867 0.000000
vt 0.031416 -0.043871 0.000000
vt 0.041888 -0.043871 0.000000
vt 0.031416 -0.029247 0.000000
vt 0.041888 -0.021935 0.000000
vt 0.031416 -0.014624 0.000000
vt 0.041888 0.000000 0.000000
vt 0.031416 0.000000 0.000000
vt 0.052360 -0.043871 0.000000
vt 0.052360 -0.021935 0.000000
vt 0.052360 0.000000 0.000000
vt 0.062832 -0.014624 0.000000
vt 0.062832 0.000000 0.000000
vt 0.062832 -0.043871 0.000000
vt 0.062832 -0.029247 0.000000
vt 0.350503 -0.350503 0.000000
vt 0.365000 -0.339378 0.000000
vt -0.000000 0.000000 0.000000
vt 0.381883 -0.332385 0.000000
vt 0.400000 -0.330000 0.000000
vt 1.024049 -0.110560 0.000000
vt 0.972111 -0.330000 0.000000
vt 0.976853 -0.326585 0.000000
vt 0.975808 -0.328367 0.000000
vt 0.974132 -0.329573 0.000000
vt 1.024049 0.110560 0.000000
vt 0.400000 0.330000 0.000000
vt 0.381883 0.332385 0.000000
vt 0.972111 0.330000 0.000000
vt 0.976853 0.326585 0.000000
vt 0.975808 0.328367 0.000000
vt 0.974132 0.329573 0.000000
vt 0.365000 0.339378 0.000000
vt 0.350503 0.350503 0.000000
vt 0.515685 0.175000 0.000000
vt -0.000000 0.175000 0.000000
vt 0.515685 -0.155000 0.000000
vt -0.000000 -0.175000 0.000000
vt 0.495685 -0.175000 0.000000
vt 0.505685 -0.172321 0.000000
vt 0.513006 -0.165000 0.000000
vt -0.513006 -0.165000 0.000000
vt -0.495685 -0.175000 0.000000
vt -0.515685 -0.155000 0.000000
vt 0.000000 -0.175000 0.000000
vt 0.000000 0.175000 0.000000
vt -0.505685 -0.172321 0.000000
vt -0.515685 0.175000 0.000000
vn 0.000000 0.000000 0.100000
vn 0.000000 0.000000 0.100000
vn 0.000000 0.000000 0.100000
vn 0.000000 0.000000 0.100000
vn 0.070711 0.000000 -0.070711
vn 0.070711 0.000000 -0.070711
vn 0.050000 0.000000 -0.086603
vn 0.050000 0.000000 -0.086603
vn 0.025882 0.000000 -0.096593
vn 0.000000 0.000000 -0.100000
vn 0.000000 0.000000 -0.100000
vn 0.025882 0.000000 -0.096593
vn 0.000000 0.000000 -0.100000
vn 0.000000 0.000000 -0.100000
vn 0.094840 0.000000 -0.031707
vn 0.094840 0.000000 -0.031707
vn 0.073935 0.000000 -0.067332
vn 0.073935 0.000000 -0.067332
vn 0.040415 0.000000 -0.091469
vn 0.040415 0.000000 -0.091469
vn 0.040415 0.000000 -0.091469
vn 0.073935 0.000000 -0.067332
vn 0.094840 0.000000 0.031707
vn 0.094840 0.000000 0.031707
vn 0.099422 0.000000 0.010734
vn 0.099422 0.000000 0.010734
vn 0.099422 0.000000 -0.010734
vn 0.099422 0.000000 -0.010734
vn 0.040415 0.000000 0.091469
vn 0.040415 0.000000 0.091469
vn 0.073935 0.000000 0.067332
vn 0.073935 0.000000 0.067332
vn 0.073935 0.000000 0.067332
vn 0.040415 0.000000 0.091469
vn 0.070711 -0.000000 0.070711
vn 0.061237 -0.050000 0.061237
vn 0.050000 -0.000000 0.086603
vn 0.033141 -0.050000 0.080010
vn 0.025882 -0.000000 0.096593
vn 0.000000 -0.050000 0.086603
vn 0.035355 -0.086603 0.035355
vn 0.019134 -0.086603 0.046194
vn 0.000000 -0.086603 0.050000
vn 0.000000 -0.100000 0.000000
vn 0.000000 -0.100000 0.000000
vn -0.000000 -0.100000 -0.000000
vn 0.000000 -0.100000 0.000000
vn 0.000000 -0.050000 0.086603
vn 0.000000 -0.050000 0.086603
vn 0.000000 -0.050000 0.086603
vn 0.000000 -0.086603 0.050000
vn 0.000000 -0.086603 0.050000
vn 0.000000 -0.100000 0.000000
vn 0.000000 -0.086603 0.050000
vn 0.035001 -0.050000 0.079215
vn 0.064030 -0.050000 0.058311
vn 0.082134 -0.050000 0.027459
vn 0.036967 -0.086603 0.033666
vn 0.047420 -0.086603 0.015854
vn -0.000000 -0.100000 -0.000000
vn 0.000000 -0.100000 0.000000
vn 0.020208 -0.086603 0.045735
vn -0.000000 -0.100000 -0.000000
vn 0.086102 -0.050000 0.009296
vn 0.086102 -0.050000 -0.009296
vn 0.082134 -0.050000 -0.027459
vn 0.049711 -0.086603 -0.005367
vn 0.047420 -0.086603 -0.015854
vn 0.000000 -0.100000 -0.000000
vn 0.000000 -0.100000 -0.000000
vn 0.049711 -0.086603 0.005367
vn 0.000000 -0.100000 0.000000
vn 0.064030 -0.050000 -0.058311
vn 0.035001 -0.050000 -0.079215
vn 0.000000 -0.050000 -0.086603
vn 0.020208 -0.086603 -0.045735
vn 0.000000 -0.086603 -0.050000
vn -0.000000 -0.100000 0.000000
vn 0.000000 -0.100000 0.000000
vn 0.036967 -0.086603 -0.033666
vn -0.000000 -0.100000 0.000000
vn 0.000000 -0.050000 -0.086603
vn 0.000000 -0.050000 -0.086603
vn 0.000000 -0.050000 -0.086603
vn 0.000000 -0.086603 -0.050000
vn 0.000000 -0.086603 -0.050000
vn 0.000000 -0.100000 -0.000000
vn 0.000000 -0.086603 -0.050000
vn 0.070711 0.000000 0.070711
vn 0.050000 0.000000 0.086603
vn 0.025882 0.000000 0.096593
vn -0.000000 0.100000 -0.000000
vn -0.000000 0.100000 -0.000000
vn -0.000000 0.100000 -0.000000
vn -0.000000 0.100000 -0.000000
vn -0.000000 0.100000 -0.000000
vn -0.000000 0.100000 -0.000000
vn -0.000000 0.100000 -0.000000
vn -0.000000 0.100000 -0.000000
vn -0.000000 0.100000 -0.000000
vn -0.000000 0.100000 -0.000000
vn -0.000000 0.100000 -0.000000
vn -0.000000 0.100000 -0.000000
vn -0.000000 0.100000 -0.000000
vn -0.000000 0.100000 -0.000000
vn -0.000000 0.100000 -0.000000
vn -0.000000 0.100000 -0.000000
vn -0.000000 0.100000 -0.000000
vn -0.000000 0.100000 -0.000000
vn -0.000000 0.100000 -0.000000
vn 0.000000 -0.100000 -0.000000
vn 0.035355 -0.086603 -0.035355
vn -0.000000 -0.100000 0.000000
vn 0.019134 -0.086603 -0.046194
vn -0.000000 -0.100000 0.000000
vn 0.061237 -0.050000 -0.061237
vn 0.033141 -0.050000 -0.080010
vn 0.000000 -0.100000 0.000000
vn 0.000000 -0.100000 0.000000
vn -0.070711 0.000000 0.070711
vn -0.070711 0.000000 0.070711
vn -0.070711 0.000000 0.070711
vn -0.070711 0.000000 0.070711
vn -0.070711 0.000000 0.070711
vn -0.070711 0.000000 0.070711
vn -0.070711 0.000000 0.070711
vn -0.070711 0.000000 -0.070711
vn -0.070711 0.000000 -0.070711
vn -0.070711 0.000000 -0.070711
vn -0.070711 0.000000 -0.070711
vn -0.070711 0.000000 -0.070711
vn -0.070711 0.000000 -0.070711
vn -0.070711 0.000000 -0.070711
usemtl Paint_-_Enamel_Glossy_(Black)
f 1/1/1 2/2/2 4/3/3
f 4/3/3 2/2/2 3/4/4
f 5/5/5 6/6/6 12/7/7
f 12/7/7 6/6/6 7/8/8
f 12/7/7 7/8/8 8/9/9
f 9/10/10 10/11/11 8/9/9
f 8/9/9 10/11/11 11/12/12
f 8/9/9 11/12/12 12/7/7
f 13/13/13 10/14/11 14/15/14
f 14/15/14 10/14/11 9/16/10
f 20/17/15 15/18/16 21/19/17
f 21/19/17 15/18/16 16/20/18
f 21/19/17 16/20/18 22/21/19
f 22/21/19 16/20/18 17/22/20
f 22/21/19 17/22/20 13/23/13
f 13/23/13 14/24/14 22/21/19
f 22/21/19 14/24/14 18/25/21
f 22/21/19 18/25/21 21/19/17
f 21/19/17 18/25/21 19/26/22
f 21/19/17 19/26/22 20/17/15
f 28/27/23 23/28/24 27/29/25
f 27/29/25 23/28/24 24/30/26
f 27/29/25 24/30/26 26/31/27
f 26/31/27 24/30/26 25/32/28
f 26/31/27 25/32/28 20/33/15
f 20/33/15 25/32/28 15/34/16
f 3/35/4 2/36/2 33/37/29
f 33/37/29 2/36/2 29/38/30
f 33/37/29 29/38/30 34/39/31
f 34/39/31 29/38/30 30/40/32
f 34/39/31 30/40/32 23/41/24
f 23/41/24 28/42/23 34/39/31
f 34/39/31 28/42/23 31/43/33
f 34/39/31 31/43/33 33/37/29
f 33/37/29 31/43/33 32/44/34
f 33/37/29 32/44/34 3/35/4
f 35/45/35 36/46/36 45/47/37
f 45/47/37 36/46/36 47/48/38
f 45/47/37 47/48/38 44/49/39
f 44/49/39 47/48/38 43/50/40
f 44/49/39 43/50/40 1/51/1
f 36/46/36 37/52/41 47/48/38
f 47/48/38 37/52/41 46/53/42
f 47/48/38 46/53/42 43/50/40
f 43/50/40 46/53/42 42/54/43
f 42/54/43 46/53/42 40/55/44
f 42/54/43 40/55/44 41/56/45
f 38/57/46 39/58/47 37/52/41
f 37/52/41 39/58/47 46/53/42
f 39/58/47 40/55/44 46/53/42
f 43/59/40 51/60/48 1/61/1
f 1/61/1 51/60/48 52/62/49
f 1/61/1 52/62/49 2/63/2
f 2/63/2 52/62/49 50/64/50
f 50/64/50 52/62/49 49/65/51
f 49/65/51 52/62/49 54/66/52
f 49/65/51 54/66/52 48/67/53
f 48/67/53 54/66/52 53/68/54
f 48/67/53 53/68/54 41/69/45
f 41/69/45 53/68/54 42/70/43
f 42/70/43 53/68/54 43/59/40
f 43/59/40 53/68/54 51/60/48
f 54/66/52 52/62/49 51/60/48
f 54/66/52 51/60/48 53/68/54
f 2/71/2 50/72/50 29/73/30
f 29/73/30 50/72/50 61/74/55
f 29/73/30 61/74/55 30/75/32
f 30/75/32 61/74/55 63/76/56
f 30/75/32 63/76/56 23/77/24
f 23/77/24 63/76/56 59/78/57
f 59/78/57 63/76/56 62/79/58
f 59/78/57 62/79/58 58/80/59
f 58/80/59 62/79/58 56/81/60
f 58/80/59 56/81/60 57/82/61
f 50/72/50 49/83/51 61/74/55
f 61/74/55 49/83/51 60/84/62
f 61/74/55 60/84/62 63/76/56
f 63/76/56 60/84/62 62/79/58
f 49/83/51 48/85/53 60/84/62
f 60/84/62 48/85/53 55/86/63
f 60/84/62 55/86/63 62/79/58
f 62/79/58 55/86/63 56/81/60
f 23/87/24 59/88/57 24/89/26
f 24/89/26 59/88/57 70/90/64
f 24/89/26 70/90/64 25/91/28
f 25/91/28 70/90/64 72/92/65
f 25/91/28 72/92/65 15/93/16
f 15/93/16 72/92/65 68/94/66
f 68/94/66 72/92/65 71/95/67
f 68/94/66 71/95/67 67/96/68
f 67/96/68 71/95/67 65/97/69
f 67/96/68 65/97/69 66/98/70
f 59/88/57 58/99/59 70/90/64
f 70/90/64 58/99/59 69/100/71
f 70/90/64 69/100/71 72/92/65
f 72/92/65 69/100/71 71/95/67
f 58/99/59 57/101/61 69/100/71
f 69/100/71 57/101/61 64/102/72
f 69/100/71 64/102/72 71/95/67
f 71/95/67 64/102/72 65/97/69
f 15/93/16 68/94/66 16/103/18
f 16/103/18 68/104/66 79/105/73
f 16/103/18 79/105/73 17/106/20
f 17/106/20 79/105/73 81/107/74
f 17/106/20 81/107/74 13/108/13
f 13/108/13 81/107/74 77/109/75
f 77/109/75 81/107/74 80/110/76
f 77/109/75 80/110/76 76/111/77
f 76/111/77 80/110/76 74/112/78
f 76/111/77 74/112/78 75/113/79
f 68/104/66 67/114/68 79/105/73
f 79/105/73 67/114/68 78/115/80
f 79/105/73 78/115/80 81/107/74
f 81/107/74 78/115/80 80/110/76
f 67/114/68 66/116/70 78/115/80
f 78/115/80 66/116/70 73/117/81
f 78/115/80 73/117/81 80/110/76
f 80/110/76 73/117/81 74/112/78
f 77/118/75 85/119/82 13/120/13
f 13/120/13 85/119/82 86/121/83
f 13/120/13 86/121/83 10/122/11
f 10/122/11 86/121/83 84/123/84
f 84/123/84 86/121/83 83/124/85
f 83/124/85 86/121/83 88/125/86
f 83/124/85 88/125/86 82/126/87
f 82/126/87 88/125/86 87/127/88
f 82/126/87 87/127/88 75/128/79
f 75/128/79 87/127/88 76/129/77
f 76/129/77 87/127/88 77/118/75
f 77/118/75 87/127/88 85/119/82
f 88/125/86 86/121/83 85/119/82
f 88/125/86 85/119/82 87/127/88
f 89/130/89 35/131/35 91/132/90
f 91/132/90 35/131/35 45/133/37
f 91/132/90 45/133/37 44/134/39
f 1/135/1 4/136/3 44/134/39
f 44/134/39 4/136/3 90/137/91
f 44/134/39 90/137/91 91/132/90
f 6/138/92 92/139/93 7/140/94
f 7/140/94 92/139/93 8/141/95
f 8/141/95 92/139/93 9/142/96
f 9/142/96 92/139/93 26/143/97
f 9/142/96 26/143/97 14/144/98
f 14/144/98 26/143/97 20/145/99
f 14/144/98 20/145/99 19/146/100
f 89/147/101 91/148/102 92/139/93
f 92/139/93 91/148/102 90/149/103
f 92/139/93 90/149/103 4/150/104
f 92/139/93 4/150/104 27/151/105
f 27/151/105 4/150/104 3/152/106
f 27/151/105 3/152/106 28/153/107
f 28/153/107 3/152/106 31/154/108
f 31/154/108 3/152/106 32/155/109
f 27/151/105 26/143/97 92/139/93
f 19/146/100 18/156/110 14/144/98
f 93/157/111 94/158/112 97/159/113
f 97/159/113 94/158/112 99/160/114
f 97/159/113 99/160/114 96/161/115
f 96/161/115 99/160/114 83/162/85
f 96/161/115 83/162/85 82/163/87
f 94/158/112 95/164/116 99/160/114
f 99/160/114 95/164/116 98/165/117
f 99/160/114 98/165/117 83/162/85
f 83/162/85 98/165/117 84/166/84
f 84/166/84 98/165/117 11/167/12
f 84/166/84 11/167/12 10/168/11
f 5/169/5 12/170/7 95/164/116
f 95/164/116 12/170/7 98/165/117
f 12/170/7 11/167/12 98/165/117
f 93/171/111 97/172/113 100/173/118
f 100/173/118 97/172/113 96/174/115
f 100/173/118 96/174/115 82/175/87
f 100/173/118 82/175/87 65/176/69
f 65/176/69 82/175/87 75/177/79
f 65/176/69 75/177/79 66/178/70
f 66/178/70 75/177/79 73/179/81
f 73/179/81 75/177/79 74/180/78
f 65/176/69 64/181/72 100/173/118
f 100/173/118 64/181/72 41/182/45
f 100/173/118 41/182/45 40/183/44
f 41/182/45 64/181/72 48/184/53
f 48/184/53 64/181/72 57/185/119
f 48/184/53 57/185/119 56/186/60
f 56/186/60 55/187/63 48/184/53
f 40/183/44 39/188/47 100/173/118
f 100/173/118 39/188/47 38/189/46
f 89/190/120 92/191/121 35/192/122
f 35/192/122 92/191/121 100/193/123
f 35/192/122 100/193/123 38/194/124
f 37/195/125 36/196/126 38/194/124
f 38/194/124 36/196/126 35/192/122
f 95/197/127 93/198/128 5/199/129
f 5/199/129 93/198/128 100/200/130
f 5/199/129 100/200/130 92/201/131
f 95/197/127 94/202/132 93/198/128
f 92/201/131 6/203/133 5/199/129
# 100 vertices
# 203 texture params
# 133 normals
# 196 facets

# 1 groups
