# WaveFront *.obj file (generated by Autodesk ATF)

mtllib AyaNeoNext_AyaNeoNext-01 v19_Joystick-Right-Cover_AyaNeoNext-01 v19.mtl

g Joystick-Right-Cover

v 101.000000 -8.500000 -7.500000
v 101.344310 -8.500000 -5.105273
v 102.349345 -8.500000 -2.904553
v 103.933684 -8.500000 -1.076129
v 105.968972 -8.500000 0.231872
v 108.290324 -8.500000 0.913482
v 110.709676 -8.500000 0.913482
v 113.031028 -8.500000 0.231872
v 115.066316 -8.500000 -1.076129
v 116.650655 -8.500000 -2.904553
v 117.655690 -8.500000 -5.105273
v 118.000000 -8.500000 -7.500000
v 117.655690 -8.500000 -9.894727
v 116.650655 -8.500000 -12.095447
v 115.066316 -8.500000 -13.923871
v 113.031028 -8.500000 -15.231872
v 110.709676 -8.500000 -15.913482
v 108.290324 -8.500000 -15.913482
v 105.968972 -8.500000 -15.231872
v 103.933684 -8.500000 -13.923871
v 102.349345 -8.500000 -12.095447
v 101.344310 -8.500000 -9.894727
v 101.000000 -7.500000 -7.500000
v 101.344310 -7.500000 -9.894727
v 102.349345 -7.500000 -12.095447
v 103.933684 -7.500000 -13.923871
v 105.968972 -7.500000 -15.231872
v 108.290324 -7.500000 -15.913482
v 110.709676 -7.500000 -15.913482
v 113.031028 -7.500000 -15.231872
v 115.066316 -7.500000 -13.923871
v 116.650655 -7.500000 -12.095447
v 117.655690 -7.500000 -9.894727
v 118.000000 -7.500000 -7.500000
v 117.655690 -7.500000 -5.105273
v 116.650655 -7.500000 -2.904553
v 115.066316 -7.500000 -1.076129
v 113.031028 -7.500000 0.231872
v 110.709676 -7.500000 0.913482
v 108.290324 -7.500000 0.913482
v 105.968972 -7.500000 0.231872
v 103.933684 -7.500000 -1.076129
v 102.349345 -7.500000 -2.904553
v 101.344310 -7.500000 -5.105273
vt -0.100000 2.427594 0.000000
vt -0.000000 2.427594 0.000000
vt -0.100000 2.670354 0.000000
vt 0.000000 2.670354 0.000000
vt -0.100000 -2.670354 0.000000
vt 0.000000 -2.670354 0.000000
vt -0.100000 -2.427594 0.000000
vt -0.000000 -2.427594 0.000000
vt -0.100000 -2.184835 0.000000
vt 0.000000 -2.184835 0.000000
vt -0.100000 -1.942075 0.000000
vt -0.000000 -1.942075 0.000000
vt -0.100000 -1.699316 0.000000
vt -0.000000 -1.699316 0.000000
vt -0.100000 -1.456557 0.000000
vt 0.000000 -1.456557 0.000000
vt -0.100000 -1.213797 0.000000
vt -0.000000 -1.213797 0.000000
vt -0.100000 -0.971038 0.000000
vt -0.000000 -0.971038 0.000000
vt -0.100000 -0.728278 0.000000
vt -0.000000 -0.728278 0.000000
vt -0.100000 -0.485519 0.000000
vt -0.000000 -0.485519 0.000000
vt -0.100000 -0.242759 0.000000
vt -0.000000 -0.242759 0.000000
vt -0.100000 0.000000 0.000000
vt -0.000000 0.000000 0.000000
vt -0.100000 0.242759 0.000000
vt -0.000000 0.242759 0.000000
vt -0.100000 0.485519 0.000000
vt -0.000000 0.485519 0.000000
vt -0.100000 0.728278 0.000000
vt -0.000000 0.728278 0.000000
vt -0.100000 0.971038 0.000000
vt -0.000000 0.971038 0.000000
vt -0.100000 1.213797 0.000000
vt -0.000000 1.213797 0.000000
vt -0.100000 1.456557 0.000000
vt -0.000000 1.456557 0.000000
vt -0.100000 1.699316 0.000000
vt -0.000000 1.699316 0.000000
vt -0.100000 1.942075 0.000000
vt -0.000000 1.942075 0.000000
vt -0.100000 2.184835 0.000000
vt -0.000000 2.184835 0.000000
vt -0.815569 -0.239473 0.000000
vt 0.815569 -0.239473 0.000000
vt -0.850000 -0.000000 0.000000
vt 0.850000 -0.000000 0.000000
vt -0.815569 0.239473 0.000000
vt 0.815569 0.239473 0.000000
vt -0.715066 0.459545 0.000000
vt 0.715066 0.459545 0.000000
vt -0.556632 0.642387 0.000000
vt 0.556632 0.642387 0.000000
vt -0.353103 0.773187 0.000000
vt 0.353103 0.773187 0.000000
vt -0.120968 0.841348 0.000000
vt 0.120968 0.841348 0.000000
vt 0.715066 -0.459545 0.000000
vt -0.715066 -0.459545 0.000000
vt 0.556632 -0.642387 0.000000
vt -0.556632 -0.642387 0.000000
vt 0.353103 -0.773187 0.000000
vt -0.353103 -0.773187 0.000000
vt 0.120968 -0.841348 0.000000
vt -0.120968 -0.841348 0.000000
vt 0.815569 0.239473 0.000000
vt -0.815569 0.239473 0.000000
vt 0.850000 -0.000000 0.000000
vt -0.850000 -0.000000 0.000000
vt 0.815569 -0.239473 0.000000
vt -0.815569 -0.239473 0.000000
vt 0.715066 -0.459545 0.000000
vt -0.715066 -0.459545 0.000000
vt 0.556632 -0.642387 0.000000
vt -0.556632 -0.642387 0.000000
vt 0.353103 -0.773187 0.000000
vt -0.353103 -0.773187 0.000000
vt 0.120968 -0.841348 0.000000
vt -0.120968 -0.841348 0.000000
vt -0.715066 0.459545 0.000000
vt 0.715066 0.459545 0.000000
vt -0.556632 0.642387 0.000000
vt 0.556632 0.642387 0.000000
vt -0.353103 0.773187 0.000000
vt 0.353103 0.773187 0.000000
vt -0.120968 0.841348 0.000000
vt 0.120968 0.841348 0.000000
vn -0.095949 0.000000 0.028173
vn -0.095949 0.000000 0.028173
vn -0.100000 0.000000 0.000000
vn -0.100000 0.000000 0.000000
vn -0.095949 0.000000 -0.028173
vn -0.095949 0.000000 -0.028173
vn -0.084125 0.000000 -0.054064
vn -0.084125 0.000000 -0.054064
vn -0.065486 0.000000 -0.075575
vn -0.065486 0.000000 -0.075575
vn -0.041542 0.000000 -0.090963
vn -0.041542 0.000000 -0.090963
vn -0.014231 0.000000 -0.098982
vn -0.014231 0.000000 -0.098982
vn 0.014231 0.000000 -0.098982
vn 0.014231 0.000000 -0.098982
vn 0.041542 0.000000 -0.090963
vn 0.041542 0.000000 -0.090963
vn 0.065486 0.000000 -0.075575
vn 0.065486 0.000000 -0.075575
vn 0.084125 0.000000 -0.054064
vn 0.084125 0.000000 -0.054064
vn 0.095949 0.000000 -0.028173
vn 0.095949 0.000000 -0.028173
vn 0.100000 0.000000 0.000000
vn 0.100000 0.000000 0.000000
vn 0.095949 0.000000 0.028173
vn 0.095949 0.000000 0.028173
vn 0.084125 0.000000 0.054064
vn 0.084125 0.000000 0.054064
vn 0.065486 0.000000 0.075575
vn 0.065486 0.000000 0.075575
vn 0.041542 0.000000 0.090963
vn 0.041542 0.000000 0.090963
vn 0.014231 0.000000 0.098982
vn 0.014231 0.000000 0.098982
vn -0.014231 0.000000 0.098982
vn -0.014231 0.000000 0.098982
vn -0.041542 0.000000 0.090963
vn -0.041542 0.000000 0.090963
vn -0.065486 0.000000 0.075575
vn -0.065486 0.000000 0.075575
vn -0.084125 0.000000 0.054064
vn -0.084125 0.000000 0.054064
vn 0.000000 -0.100000 0.000000
vn 0.000000 -0.100000 0.000000
vn 0.000000 -0.100000 0.000000
vn 0.000000 -0.100000 0.000000
vn 0.000000 -0.100000 0.000000
vn 0.000000 -0.100000 0.000000
vn 0.000000 -0.100000 0.000000
vn 0.000000 -0.100000 0.000000
vn 0.000000 -0.100000 0.000000
vn 0.000000 -0.100000 0.000000
vn 0.000000 -0.100000 0.000000
vn 0.000000 -0.100000 0.000000
vn 0.000000 -0.100000 0.000000
vn 0.000000 -0.100000 0.000000
vn 0.000000 -0.100000 0.000000
vn 0.000000 -0.100000 0.000000
vn 0.000000 -0.100000 0.000000
vn 0.000000 -0.100000 0.000000
vn 0.000000 -0.100000 0.000000
vn 0.000000 -0.100000 0.000000
vn 0.000000 -0.100000 0.000000
vn 0.000000 -0.100000 0.000000
vn -0.000000 0.100000 -0.000000
vn -0.000000 0.100000 -0.000000
vn -0.000000 0.100000 -0.000000
vn -0.000000 0.100000 -0.000000
vn -0.000000 0.100000 -0.000000
vn -0.000000 0.100000 -0.000000
vn -0.000000 0.100000 -0.000000
vn -0.000000 0.100000 -0.000000
vn -0.000000 0.100000 -0.000000
vn -0.000000 0.100000 -0.000000
vn -0.000000 0.100000 -0.000000
vn -0.000000 0.100000 -0.000000
vn -0.000000 0.100000 -0.000000
vn -0.000000 0.100000 -0.000000
vn -0.000000 0.100000 -0.000000
vn -0.000000 0.100000 -0.000000
vn -0.000000 0.100000 -0.000000
vn -0.000000 0.100000 -0.000000
vn -0.000000 0.100000 -0.000000
vn -0.000000 0.100000 -0.000000
vn -0.000000 0.100000 -0.000000
vn -0.000000 0.100000 -0.000000
usemtl Paint_-_Enamel_Glossy_(Black)
f 2/1/1 44/2/2 1/3/3
f 1/3/3 44/2/2 23/4/4
f 1/5/3 23/6/4 22/7/5
f 22/7/5 23/6/4 24/8/6
f 22/7/5 24/8/6 21/9/7
f 21/9/7 24/8/6 25/10/8
f 21/9/7 25/10/8 20/11/9
f 20/11/9 25/10/8 26/12/10
f 20/11/9 26/12/10 19/13/11
f 19/13/11 26/12/10 27/14/12
f 19/13/11 27/14/12 18/15/13
f 18/15/13 27/14/12 28/16/14
f 18/15/13 28/16/14 17/17/15
f 17/17/15 28/16/14 29/18/16
f 17/17/15 29/18/16 16/19/17
f 16/19/17 29/18/16 30/20/18
f 16/19/17 30/20/18 15/21/19
f 15/21/19 30/20/18 31/22/20
f 15/21/19 31/22/20 14/23/21
f 14/23/21 31/22/20 32/24/22
f 14/23/21 32/24/22 13/25/23
f 13/25/23 32/24/22 33/26/24
f 13/25/23 33/26/24 12/27/25
f 12/27/25 33/26/24 34/28/26
f 12/27/25 34/28/26 11/29/27
f 11/29/27 34/28/26 35/30/28
f 11/29/27 35/30/28 10/31/29
f 10/31/29 35/30/28 36/32/30
f 10/31/29 36/32/30 9/33/31
f 9/33/31 36/32/30 37/34/32
f 9/33/31 37/34/32 8/35/33
f 8/35/33 37/34/32 38/36/34
f 8/35/33 38/36/34 7/37/35
f 7/37/35 38/36/34 39/38/36
f 7/37/35 39/38/36 6/39/37
f 6/39/37 39/38/36 40/40/38
f 6/39/37 40/40/38 5/41/39
f 5/41/39 40/40/38 41/42/40
f 5/41/39 41/42/40 4/43/41
f 4/43/41 41/42/40 42/44/42
f 4/43/41 42/44/42 3/45/43
f 3/45/43 42/44/42 43/46/44
f 3/45/43 43/46/44 2/1/1
f 2/1/1 43/46/44 44/2/2
f 22/47/45 13/48/46 1/49/47
f 1/49/47 13/48/46 12/50/48
f 1/49/47 12/50/48 2/51/49
f 2/51/49 12/50/48 11/52/50
f 2/51/49 11/52/50 3/53/51
f 3/53/51 11/52/50 10/54/52
f 3/53/51 10/54/52 4/55/53
f 4/55/53 10/54/52 9/56/54
f 4/55/53 9/56/54 5/57/55
f 5/57/55 9/56/54 8/58/56
f 5/57/55 8/58/56 6/59/57
f 6/59/57 8/58/56 7/60/58
f 13/48/46 22/47/45 14/61/59
f 14/61/59 22/47/45 21/62/60
f 14/61/59 21/62/60 15/63/61
f 15/63/61 21/62/60 20/64/62
f 15/63/61 20/64/62 16/65/63
f 16/65/63 20/64/62 19/66/64
f 16/65/63 19/66/64 17/67/65
f 17/67/65 19/66/64 18/68/66
f 44/69/67 35/70/68 23/71/69
f 23/71/69 35/70/68 34/72/70
f 23/71/69 34/72/70 24/73/71
f 24/73/71 34/72/70 33/74/72
f 24/73/71 33/74/72 25/75/73
f 25/75/73 33/74/72 32/76/74
f 25/75/73 32/76/74 26/77/75
f 26/77/75 32/76/74 31/78/76
f 26/77/75 31/78/76 27/79/77
f 27/79/77 31/78/76 30/80/78
f 27/79/77 30/80/78 28/81/79
f 28/81/79 30/80/78 29/82/80
f 35/70/68 44/69/67 36/83/81
f 36/83/81 44/69/67 43/84/82
f 36/83/81 43/84/82 37/85/83
f 37/85/83 43/84/82 42/86/84
f 37/85/83 42/86/84 38/87/85
f 38/87/85 42/86/84 41/88/86
f 38/87/85 41/88/86 39/89/87
f 39/89/87 41/88/86 40/90/88
# 44 vertices
# 90 texture params
# 88 normals
# 84 facets

# 1 groups
