# WaveFront *.obj file (generated by Autodesk ATF)

mtllib AyaNeoNext_AyaNeoNext-01 v19_Shoulder-Left-Middle_AyaNeoNext-01 v19.mtl

g Shoulder-Left-Middle

v -92.499276 3.000000 53.095311
v -98.825751 3.000000 52.947815
v -106.072685 3.000000 52.397204
v -111.150260 3.000000 51.562379
v -113.783561 3.000000 50.876160
v -116.378906 3.000000 49.937070
v -118.827823 3.000000 48.709922
v -121.107425 3.000000 47.155325
v -123.153555 3.000000 45.283540
v -124.921073 3.000000 43.164393
v -126.510525 3.000000 40.637468
v -127.481943 3.000000 38.519579
v -128.176361 3.000000 36.271786
v -128.196919 3.000000 36.182534
v -128.196919 0.000000 36.182534
v -128.176361 -0.000000 36.271786
v -127.481943 -0.000000 38.519579
v -126.510525 -0.000000 40.637468
v -124.921073 -0.000000 43.164393
v -123.153555 -0.000000 45.283540
v -121.107425 -0.000000 47.155325
v -118.827823 -0.000000 48.709922
v -116.378906 -0.000000 49.937070
v -113.783561 -0.000000 50.876160
v -111.150260 -0.000000 51.562379
v -106.072685 -0.000000 52.397204
v -98.825751 -0.000000 52.947815
v -92.499276 0.000000 53.095311
v -127.603436 3.000000 36.063119
v -127.603436 0.000000 36.063119
v -127.358915 -0.000000 37.008464
v -126.986194 -0.000000 38.135120
v -126.058255 -0.000000 40.213994
v -124.604881 0.000000 42.577723
v -122.694110 0.000000 44.899291
v -120.344348 0.000000 46.986647
v -117.705083 0.000000 48.643816
v -115.060153 0.000000 49.812903
v -111.779203 0.000000 50.805430
v -109.960487 0.000000 51.201273
v -107.955838 0.000000 51.544590
v -104.090257 0.000000 52.004918
v -99.627001 -0.000000 52.310949
v -92.499276 0.000000 52.495129
v -92.499276 3.000000 52.495129
v -127.358915 3.000000 37.008464
v -126.986194 3.000000 38.135120
v -126.058255 3.000000 40.213994
v -124.604881 3.000000 42.577723
v -122.694110 3.000000 44.899291
v -120.344348 3.000000 46.986647
v -117.705083 3.000000 48.643816
v -115.060153 3.000000 49.812903
v -111.779203 3.000000 50.805430
v -109.960487 3.000000 51.201273
v -107.955838 3.000000 51.544590
v -104.090257 3.000000 52.004918
v -99.627001 3.000000 52.310949
vt 4.611039 0.300000 0.000000
vt 3.950412 0.300000 0.000000
vt 4.611039 -0.000000 0.000000
vt 3.950412 -0.000000 0.000000
vt 3.197388 0.300000 0.000000
vt 3.197388 -0.000000 0.000000
vt 2.671822 0.300000 0.000000
vt 2.671822 -0.000000 0.000000
vt 2.398526 0.300000 0.000000
vt 2.398526 -0.000000 0.000000
vt 2.125230 0.300000 0.000000
vt 2.125230 -0.000000 0.000000
vt 1.858143 -0.000000 0.000000
vt 1.858143 0.300000 0.000000
vt 1.591057 -0.000000 0.000000
vt 1.591057 0.300000 0.000000
vt 1.322181 0.300000 0.000000
vt 1.322181 -0.000000 0.000000
vt 1.053305 0.300000 0.000000
vt 1.053305 -0.000000 0.000000
vt 0.762229 0.300000 0.000000
vt 0.762229 -0.000000 0.000000
vt 0.537460 0.300000 0.000000
vt 0.537460 -0.000000 0.000000
vt 0.312691 0.300000 0.000000
vt 0.312691 -0.000000 0.000000
vt 0.303996 0.300000 0.000000
vt 0.303996 -0.000000 0.000000
vt 0.060538 0.300000 0.000000
vt -0.000000 0.300000 0.000000
vt 0.060538 0.000000 0.000000
vt -0.000000 0.000000 0.000000
vt 0.889669 -1.735850 0.000000
vt 0.901611 -1.676502 0.000000
vt 0.880744 -1.733794 0.000000
vt 0.807076 -1.652050 0.000000
vt 0.655965 -1.664353 0.000000
vt 0.694411 -1.614778 0.000000
vt 0.486523 -1.521984 0.000000
vt 0.444176 -1.567211 0.000000
vt 0.250150 -1.376646 0.000000
vt 0.191483 -1.408266 0.000000
vt 0.017993 -1.185569 0.000000
vt -0.020431 -1.231514 0.000000
vt -0.190742 -0.950593 0.000000
vt -0.207610 -1.026901 0.000000
vt -0.363070 -0.798941 0.000000
vt -0.356459 -0.686667 0.000000
vt -0.485784 -0.554049 0.000000
vt -0.473368 -0.422174 0.000000
vt -0.579694 -0.294514 0.000000
vt -0.572620 -0.094079 0.000000
vt -0.648315 -0.031184 0.000000
vt -0.612205 0.087793 0.000000
vt -0.646536 0.288258 0.000000
vt -0.731798 0.476573 0.000000
vt -0.692569 0.674816 0.000000
vt -0.786859 1.201267 0.000000
vt -0.723172 1.121142 0.000000
vt -0.741590 1.833914 0.000000
vt -0.801609 1.833914 0.000000
vt 0.160020 0.300000 0.000000
vt 0.100002 0.300000 0.000000
vt 0.160020 0.000000 0.000000
vt 0.100002 0.000000 0.000000
vt 34.876462 0.300000 0.000000
vt 34.792191 0.300000 0.000000
vt 34.876462 -0.000000 0.000000
vt 34.792191 -0.000000 0.000000
vt 34.688917 0.300000 0.000000
vt 34.688917 -0.000000 0.000000
vt 34.486433 0.300000 0.000000
vt 34.486433 -0.000000 0.000000
vt 34.234148 0.300000 0.000000
vt 34.234148 0.000000 0.000000
vt 33.959674 0.300000 0.000000
vt 33.959674 0.000000 0.000000
vt 33.673546 0.300000 0.000000
vt 33.673546 0.000000 0.000000
vt 33.386826 0.300000 0.000000
vt 33.386826 0.000000 0.000000
vt 33.112939 0.300000 0.000000
vt 33.112939 0.000000 0.000000
vt 32.774705 0.300000 0.000000
vt 32.774705 0.000000 0.000000
vt 32.586503 0.300000 0.000000
vt 32.586503 0.000000 0.000000
vt 32.378170 0.300000 0.000000
vt 32.378170 0.000000 0.000000
vt 31.974232 0.300000 0.000000
vt 31.974232 0.000000 0.000000
vt 31.505550 0.300000 0.000000
vt 31.505550 -0.000000 0.000000
vt 30.754853 0.300000 0.000000
vt 30.754853 0.000000 0.000000
vt 0.801781 1.833742 0.000000
vt 0.741763 1.833742 0.000000
vt 0.787031 1.201094 0.000000
vt 0.723345 1.120969 0.000000
vt 0.692742 0.674644 0.000000
vt 0.731970 0.476401 0.000000
vt 0.646709 0.288086 0.000000
vt 0.648488 -0.031357 0.000000
vt 0.612377 0.087621 0.000000
vt 0.572793 -0.094251 0.000000
vt 0.579866 -0.294687 0.000000
vt 0.473540 -0.422346 0.000000
vt 0.485957 -0.554221 0.000000
vt 0.356631 -0.686839 0.000000
vt 0.363242 -0.799113 0.000000
vt 0.190914 -0.950765 0.000000
vt 0.207782 -1.027073 0.000000
vt 0.020604 -1.231686 0.000000
vt -0.017821 -1.185741 0.000000
vt -0.191311 -1.408438 0.000000
vt -0.249978 -1.376819 0.000000
vt -0.444003 -1.567383 0.000000
vt -0.486351 -1.522156 0.000000
vt -0.655792 -1.664525 0.000000
vt -0.694238 -1.614950 0.000000
vt -0.806904 -1.652222 0.000000
vt -0.880572 -1.733967 0.000000
vt -0.901438 -1.676674 0.000000
vt -0.889497 -1.736022 0.000000
vn -0.000640 0.000000 0.099998
vn -0.004269 0.000000 0.099909
vn -0.000640 0.000000 0.099998
vn -0.004269 0.000000 0.099909
vn -0.011744 0.000000 0.099308
vn -0.011744 0.000000 0.099308
vn -0.021561 0.000000 0.097648
vn -0.021561 0.000000 0.097648
vn -0.029233 0.000000 0.095632
vn -0.029233 0.000000 0.095632
vn -0.039091 0.000000 0.092043
vn -0.039091 0.000000 0.092043
vn -0.050481 0.000000 0.086323
vn -0.050481 0.000000 0.086323
vn -0.062123 0.000000 0.078363
vn -0.062123 0.000000 0.078363
vn -0.072424 0.000000 0.068954
vn -0.072424 0.000000 0.068954
vn -0.080755 0.000000 0.058980
vn -0.080755 0.000000 0.058980
vn -0.088216 0.000000 0.047095
vn -0.088216 0.000000 0.047095
vn -0.093322 0.000000 0.035932
vn -0.093322 0.000000 0.035932
vn -0.097384 0.000000 0.022723
vn -0.097384 0.000000 0.022723
vn -0.097512 0.000000 0.022167
vn -0.097512 0.000000 0.022167
vn -0.019726 0.000000 -0.098035
vn -0.019726 0.000000 -0.098035
vn -0.019726 0.000000 -0.098035
vn -0.019726 0.000000 -0.098035
vn 0.000000 -0.100000 0.000000
vn 0.000000 -0.100000 0.000000
vn 0.000000 -0.100000 0.000000
vn 0.000000 -0.100000 0.000000
vn 0.000000 -0.100000 0.000000
vn 0.000000 -0.100000 0.000000
vn 0.000000 -0.100000 0.000000
vn 0.000000 -0.100000 0.000000
vn 0.000000 -0.100000 0.000000
vn 0.000000 -0.100000 0.000000
vn 0.000000 -0.100000 0.000000
vn 0.000000 -0.100000 0.000000
vn 0.000000 -0.100000 0.000000
vn 0.000000 -0.100000 0.000000
vn 0.000000 -0.100000 0.000000
vn 0.000000 -0.100000 0.000000
vn 0.000000 -0.100000 0.000000
vn 0.000000 -0.100000 0.000000
vn 0.000000 -0.100000 0.000000
vn 0.000000 -0.100000 0.000000
vn 0.000000 -0.100000 0.000000
vn 0.000000 -0.100000 0.000000
vn 0.000000 -0.100000 0.000000
vn 0.000000 -0.100000 0.000000
vn 0.000000 -0.100000 0.000000
vn 0.000000 -0.100000 0.000000
vn 0.000000 -0.100000 0.000000
vn 0.000000 -0.100000 0.000000
vn 0.000000 -0.100000 0.000000
vn 0.100000 0.000000 -0.000000
vn 0.100000 0.000000 -0.000000
vn 0.100000 0.000000 -0.000000
vn 0.100000 0.000000 -0.000000
vn 0.097522 0.000000 -0.022125
vn 0.096037 0.000000 -0.027874
vn 0.097522 0.000000 -0.022125
vn 0.096037 0.000000 -0.027874
vn 0.093691 0.000000 -0.034957
vn 0.093691 0.000000 -0.034957
vn 0.088618 0.000000 -0.046334
vn 0.088618 0.000000 -0.046334
vn 0.081548 0.000000 -0.057879
vn 0.081548 0.000000 -0.057879
vn 0.072283 0.000000 -0.069103
vn 0.072283 0.000000 -0.069103
vn 0.060044 0.000000 -0.079967
vn 0.060044 0.000000 -0.079967
vn 0.046383 0.000000 -0.088592
vn 0.046383 0.000000 -0.088592
vn 0.034575 0.000000 -0.093833
vn 0.034575 0.000000 -0.093833
vn 0.023606 0.000000 -0.097174
vn 0.023606 0.000000 -0.097174
vn 0.018845 0.000000 -0.098208
vn 0.018845 0.000000 -0.098208
vn 0.014931 0.000000 -0.098879
vn 0.014931 0.000000 -0.098879
vn 0.009219 0.000000 -0.099574
vn 0.009219 0.000000 -0.099574
vn 0.004889 0.000000 -0.099880
vn 0.004889 0.000000 -0.099880
vn 0.000660 0.000000 -0.099998
vn 0.000660 0.000000 -0.099998
vn 0.000000 0.100000 0.000000
vn 0.000000 0.100000 0.000000
vn 0.000000 0.100000 0.000000
vn 0.000000 0.100000 0.000000
vn 0.000000 0.100000 0.000000
vn 0.000000 0.100000 0.000000
vn 0.000000 0.100000 0.000000
vn 0.000000 0.100000 0.000000
vn 0.000000 0.100000 0.000000
vn 0.000000 0.100000 0.000000
vn 0.000000 0.100000 0.000000
vn 0.000000 0.100000 0.000000
vn 0.000000 0.100000 0.000000
vn 0.000000 0.100000 0.000000
vn 0.000000 0.100000 0.000000
vn 0.000000 0.100000 0.000000
vn 0.000000 0.100000 0.000000
vn 0.000000 0.100000 0.000000
vn 0.000000 0.100000 0.000000
vn 0.000000 0.100000 0.000000
vn 0.000000 0.100000 0.000000
vn 0.000000 0.100000 0.000000
vn 0.000000 0.100000 0.000000
vn 0.000000 0.100000 0.000000
vn 0.000000 0.100000 0.000000
vn 0.000000 0.100000 0.000000
vn 0.000000 0.100000 0.000000
vn 0.000000 0.100000 0.000000
vn 0.000000 0.100000 0.000000
usemtl Paint_-_Enamel_Glossy_(Black)
f 1/1/1 2/2/2 28/3/3
f 28/3/3 2/2/2 27/4/4
f 27/4/4 2/2/2 3/5/5
f 27/4/4 3/5/5 26/6/6
f 26/6/6 3/5/5 4/7/7
f 26/6/6 4/7/7 25/8/8
f 25/8/8 4/7/7 5/9/9
f 25/8/8 5/9/9 24/10/10
f 24/10/10 5/9/9 6/11/11
f 24/10/10 6/11/11 23/12/12
f 23/12/12 6/11/11 22/13/13
f 22/13/13 6/11/11 7/14/14
f 22/13/13 7/14/14 21/15/15
f 21/15/15 7/14/14 8/16/16
f 21/15/15 8/16/16 9/17/17
f 21/15/15 9/17/17 20/18/18
f 20/18/18 9/17/17 10/19/19
f 20/18/18 10/19/19 19/20/20
f 19/20/20 10/19/19 11/21/21
f 19/20/20 11/21/21 18/22/22
f 18/22/22 11/21/21 12/23/23
f 18/22/22 12/23/23 17/24/24
f 17/24/24 12/23/23 13/25/25
f 17/24/24 13/25/25 16/26/26
f 16/26/26 13/25/25 14/27/27
f 16/26/26 14/27/27 15/28/28
f 14/29/29 29/30/30 15/31/31
f 15/31/31 29/30/30 30/32/32
f 15/33/33 30/34/34 16/35/35
f 16/35/35 30/34/34 31/36/36
f 16/35/35 31/36/36 17/37/37
f 17/37/37 31/36/36 32/38/38
f 17/37/37 32/38/38 33/39/39
f 17/37/37 33/39/39 18/40/40
f 18/40/40 33/39/39 34/41/41
f 18/40/40 34/41/41 19/42/42
f 19/42/42 34/41/41 35/43/43
f 19/42/42 35/43/43 20/44/44
f 20/44/44 35/43/43 36/45/45
f 20/44/44 36/45/45 21/46/46
f 21/46/46 36/45/45 22/47/47
f 22/47/47 36/45/45 37/48/48
f 22/47/47 37/48/48 23/49/49
f 23/49/49 37/48/48 38/50/50
f 23/49/49 38/50/50 24/51/51
f 24/51/51 38/50/50 39/52/52
f 24/51/51 39/52/52 25/53/53
f 25/53/53 39/52/52 40/54/54
f 25/53/53 40/54/54 41/55/55
f 25/53/53 41/55/55 26/56/56
f 26/56/56 41/55/55 42/57/57
f 26/56/56 42/57/57 27/58/58
f 27/58/58 42/57/57 43/59/59
f 27/58/58 43/59/59 44/60/60
f 44/60/60 28/61/61 27/58/58
f 45/62/62 1/63/63 44/64/64
f 44/64/64 1/63/63 28/65/65
f 29/66/66 46/67/67 30/68/68
f 30/68/68 46/67/67 31/69/69
f 31/69/69 46/67/67 47/70/70
f 31/69/69 47/70/70 32/71/71
f 32/71/71 47/70/70 48/72/72
f 32/71/71 48/72/72 33/73/73
f 33/73/73 48/72/72 49/74/74
f 33/73/73 49/74/74 34/75/75
f 34/75/75 49/74/74 50/76/76
f 34/75/75 50/76/76 35/77/77
f 35/77/77 50/76/76 51/78/78
f 35/77/77 51/78/78 36/79/79
f 36/79/79 51/78/78 52/80/80
f 36/79/79 52/80/80 37/81/81
f 37/81/81 52/80/80 53/82/82
f 37/81/81 53/82/82 38/83/83
f 38/83/83 53/82/82 54/84/84
f 38/83/83 54/84/84 39/85/85
f 39/85/85 54/84/84 55/86/86
f 39/85/85 55/86/86 40/87/87
f 40/87/87 55/86/86 56/88/88
f 40/87/87 56/88/88 41/89/89
f 41/89/89 56/88/88 57/90/90
f 41/89/89 57/90/90 42/91/91
f 42/91/91 57/90/90 58/92/92
f 42/91/91 58/92/92 43/93/93
f 43/93/93 58/92/92 45/94/94
f 43/93/93 45/94/94 44/95/95
f 1/96/96 45/97/97 2/98/98
f 2/98/98 45/97/97 58/99/99
f 2/98/98 58/99/99 57/100/100
f 2/98/98 57/100/100 3/101/101
f 3/101/101 57/100/100 56/102/102
f 3/101/101 56/102/102 4/103/103
f 4/103/103 56/102/102 55/104/104
f 4/103/103 55/104/104 54/105/105
f 4/103/103 54/105/105 5/106/106
f 5/106/106 54/105/105 53/107/107
f 5/106/106 53/107/107 6/108/108
f 6/108/108 53/107/107 52/109/109
f 6/108/108 52/109/109 7/110/110
f 7/110/110 52/109/109 51/111/111
f 7/110/110 51/111/111 8/112/112
f 8/112/112 51/111/111 9/113/113
f 9/113/113 51/111/111 50/114/114
f 9/113/113 50/114/114 10/115/115
f 10/115/115 50/114/114 49/116/116
f 10/115/115 49/116/116 11/117/117
f 11/117/117 49/116/116 48/118/118
f 11/117/117 48/118/118 12/119/119
f 12/119/119 48/118/118 47/120/120
f 12/119/119 47/120/120 46/121/121
f 12/119/119 46/121/121 13/122/122
f 13/122/122 46/121/121 29/123/123
f 13/122/122 29/123/123 14/124/124
# 58 vertices
# 124 texture params
# 124 normals
# 112 facets

# 1 groups
