# WaveFront *.obj file (generated by Autodesk ATF)

mtllib AyaNeoNext_AyaNeoNext-01 v19_Start_AyaNeoNext-01 v19.mtl

g Start

v -107.000002 -10.700000 -34.500001
v -106.656370 -10.700000 -35.894170
v -105.704196 -10.700000 -36.968952
v -104.361612 -10.700000 -37.478127
v -102.936187 -10.700000 -37.305049
v -101.754469 -10.700000 -36.489368
v -101.087176 -10.700000 -35.217948
v -101.087176 -10.700000 -33.782054
v -101.754469 -10.700000 -32.510633
v -102.936187 -10.700000 -31.694952
v -104.361612 -10.700000 -31.521874
v -105.704196 -10.700000 -32.031049
v -106.656370 -10.700000 -33.105831
v -106.700002 -11.000000 -34.500001
v -106.390733 -11.000000 -33.245248
v -105.533776 -11.000000 -32.277944
v -104.325451 -11.000000 -31.819687
v -103.042568 -11.000000 -31.975457
v -101.979023 -11.000000 -32.709569
v -101.378459 -11.000000 -33.853848
v -101.378459 -11.000000 -35.146153
v -101.979023 -11.000000 -36.290432
v -103.042568 -11.000000 -37.024544
v -104.325451 -11.000000 -37.180314
v -105.533776 -11.000000 -36.722057
v -106.390733 -11.000000 -35.754753
v -104.000002 -10.850000 -31.540193
v -104.000002 -10.959808 -31.650001
v -106.767470 -10.850000 -35.549563
v -106.664798 -10.959808 -35.510624
v -106.829222 -10.959808 -34.156471
v -106.938229 -10.850000 -34.143235
v -105.962717 -10.850000 -36.715448
v -105.889901 -10.959808 -36.633256
v -104.708330 -10.850000 -37.373802
v -104.682051 -10.959808 -37.267185
v -103.291673 -10.850000 -37.373802
v -103.317952 -10.959808 -37.267185
v -102.037286 -10.850000 -36.715448
v -102.110102 -10.959808 -36.633256
v -101.232533 -10.850000 -35.549563
v -101.335205 -10.959808 -35.510624
v -101.061774 -10.850000 -34.143235
v -101.170781 -10.959808 -34.156471
v -101.564128 -10.850000 -32.818638
v -101.654498 -10.959808 -32.881016
v -102.624510 -10.850000 -31.879221
v -102.675541 -10.959808 -31.976451
v -105.375493 -10.850000 -31.879221
v -105.324463 -10.959808 -31.976451
v -106.435875 -10.850000 -32.818638
v -106.345506 -10.959808 -32.881016
v -107.000002 -8.500000 -34.500001
v -106.656370 -8.500000 -35.894170
v -105.704196 -8.500000 -36.968952
v -104.361612 -8.500000 -37.478127
v -102.936187 -8.500000 -37.305049
v -101.754469 -8.500000 -36.489368
v -101.087176 -8.500000 -35.217948
v -101.087176 -8.500000 -33.782054
v -101.754469 -8.500000 -32.510633
v -102.936187 -8.500000 -31.694952
v -104.361612 -8.500000 -31.521874
v -105.704196 -8.500000 -32.031049
v -106.656370 -8.500000 -33.105831
vt 0.000000 -0.316687 0.000000
vt -0.015708 -0.351874 0.000000
vt -0.000000 -0.457437 0.000000
vt -0.015708 -0.492624 0.000000
vt -0.000000 -0.598186 0.000000
vt -0.015708 -0.633374 0.000000
vt -0.000000 -0.738936 0.000000
vt -0.015708 -0.774124 0.000000
vt -0.000000 -0.879686 0.000000
vt -0.015708 -0.914873 0.000000
vt 0.000000 -1.020436 0.000000
vt -0.000000 0.809311 0.000000
vt -0.015708 0.914873 0.000000
vt -0.015708 0.774124 0.000000
vt -0.000000 0.668561 0.000000
vt -0.015708 0.633374 0.000000
vt -0.000000 0.527811 0.000000
vt -0.015708 0.492624 0.000000
vt -0.000000 0.387062 0.000000
vt -0.015708 0.351874 0.000000
vt -0.000000 0.246312 0.000000
vt -0.015708 0.211125 0.000000
vt -0.000000 0.105562 0.000000
vt -0.015708 0.070375 0.000000
vt 0.000000 -0.035187 0.000000
vt -0.015708 -0.070375 0.000000
vt 0.000000 -0.175937 0.000000
vt -0.015708 -0.211125 0.000000
vt -0.047124 -0.598186 0.000000
vt -0.031416 -0.492624 0.000000
vt -0.047124 -0.457437 0.000000
vt -0.031416 -0.351874 0.000000
vt -0.047124 -0.316687 0.000000
vt -0.031416 -0.211125 0.000000
vt -0.047124 -0.175937 0.000000
vt -0.031416 -0.070375 0.000000
vt -0.047124 -0.035187 0.000000
vt -0.031416 0.070375 0.000000
vt -0.047124 0.105562 0.000000
vt -0.031416 0.211125 0.000000
vt -0.047124 0.246312 0.000000
vt -0.031416 0.351874 0.000000
vt -0.047124 0.387062 0.000000
vt -0.031416 0.492624 0.000000
vt -0.047124 0.527811 0.000000
vt -0.031416 0.633374 0.000000
vt -0.047124 0.668561 0.000000
vt -0.031416 0.774124 0.000000
vt -0.047124 0.809311 0.000000
vt -0.031416 0.914873 0.000000
vt -0.047124 0.950061 0.000000
vt -0.047124 -0.879686 0.000000
vt -0.031416 -0.914873 0.000000
vt -0.031416 -0.774124 0.000000
vt -0.047124 -0.738936 0.000000
vt -0.031416 -0.633374 0.000000
vt 0.200000 -0.797481 0.000000
vt -0.020000 -0.797481 0.000000
vt 0.200000 -0.942478 0.000000
vt -0.020000 -0.942478 0.000000
vt 0.200000 0.942478 0.000000
vt -0.020000 0.942478 0.000000
vt 0.200000 0.797481 0.000000
vt -0.020000 0.797481 0.000000
vt 0.200000 0.652485 0.000000
vt -0.020000 0.652485 0.000000
vt 0.200000 0.507488 0.000000
vt -0.020000 0.507488 0.000000
vt 0.200000 0.362491 0.000000
vt -0.020000 0.362491 0.000000
vt 0.200000 0.217495 0.000000
vt -0.020000 0.217495 0.000000
vt 0.200000 0.072498 0.000000
vt -0.020000 0.072498 0.000000
vt 0.200000 -0.072498 0.000000
vt -0.020000 -0.072498 0.000000
vt 0.200000 -0.217495 0.000000
vt -0.020000 -0.217495 0.000000
vt 0.200000 -0.362491 0.000000
vt -0.020000 -0.362491 0.000000
vt 0.200000 -0.507488 0.000000
vt -0.020000 -0.507488 0.000000
vt 0.200000 -0.652485 0.000000
vt -0.020000 -0.652485 0.000000
vt -0.270000 0.000000 0.000000
vt -0.239073 -0.125475 0.000000
vt -0.239073 0.125475 0.000000
vt -0.153377 -0.222206 0.000000
vt -0.153377 0.222206 0.000000
vt -0.032545 -0.268031 0.000000
vt -0.032545 0.268031 0.000000
vt 0.095743 -0.252454 0.000000
vt 0.095743 0.252454 0.000000
vt 0.202098 -0.179043 0.000000
vt 0.202098 0.179043 0.000000
vt 0.262154 -0.064615 0.000000
vt 0.262154 0.064615 0.000000
vt 0.300000 0.000000 0.000000
vt 0.265637 0.139417 0.000000
vt 0.265637 -0.139417 0.000000
vt 0.170419 -0.246895 0.000000
vt 0.170419 0.246895 0.000000
vt 0.036161 -0.297813 0.000000
vt 0.036161 0.297813 0.000000
vt -0.106381 -0.280505 0.000000
vt -0.106381 0.280505 0.000000
vt -0.224553 -0.198937 0.000000
vt -0.224553 0.198937 0.000000
vt -0.291283 -0.071795 0.000000
vt -0.291283 0.071795 0.000000
vn -0.088546 0.000000 -0.046472
vn -0.080975 -0.050000 -0.030710
vn -0.100000 0.000000 -0.000000
vn -0.085971 -0.050000 0.010439
vn -0.088546 0.000000 0.046472
vn -0.071272 -0.050000 0.049196
vn -0.056806 0.000000 0.082298
vn -0.040246 -0.050000 0.076683
vn -0.012054 0.000000 0.099271
vn -0.000000 -0.050000 0.086603
vn 0.035460 0.000000 0.093502
vn 0.040246 -0.050000 0.076683
vn 0.074851 0.000000 0.066312
vn 0.071272 -0.050000 0.049196
vn 0.097094 0.000000 0.023932
vn 0.085971 -0.050000 0.010439
vn 0.097094 0.000000 -0.023932
vn 0.080975 -0.050000 -0.030710
vn 0.074851 0.000000 -0.066312
vn 0.057428 -0.050000 -0.064823
vn 0.035460 0.000000 -0.093502
vn 0.020725 -0.050000 -0.084086
vn -0.012054 0.000000 -0.099271
vn -0.020725 -0.050000 -0.084086
vn -0.056806 0.000000 -0.082298
vn -0.057428 -0.050000 -0.064823
vn -0.000000 -0.100000 0.000000
vn -0.049635 -0.086603 0.006027
vn -0.000000 -0.100000 -0.000000
vn -0.046751 -0.086603 -0.017730
vn -0.000000 -0.100000 -0.000000
vn -0.033156 -0.086603 -0.037426
vn 0.000000 -0.100000 0.000000
vn -0.011966 -0.086603 -0.048547
vn 0.000000 -0.100000 0.000000
vn 0.011966 -0.086603 -0.048547
vn 0.000000 -0.100000 -0.000000
vn 0.033156 -0.086603 -0.037426
vn 0.000000 -0.100000 -0.000000
vn 0.046751 -0.086603 -0.017730
vn -0.000000 -0.100000 0.000000
vn 0.049635 -0.086603 0.006027
vn -0.000000 -0.100000 -0.000000
vn 0.041149 -0.086603 0.028403
vn 0.000000 -0.100000 0.000000
vn 0.023236 -0.086603 0.044273
vn 0.000000 -0.100000 0.000000
vn 0.000000 -0.086603 0.050000
vn 0.000000 -0.100000 -0.000000
vn -0.023236 -0.086603 0.044273
vn 0.000000 -0.100000 -0.000000
vn -0.041149 -0.086603 0.028403
vn -0.088546 0.000000 -0.046472
vn -0.100000 0.000000 -0.000000
vn -0.088546 0.000000 0.046472
vn -0.056806 0.000000 0.082298
vn -0.012054 0.000000 0.099271
vn 0.035460 0.000000 0.093502
vn 0.074851 0.000000 0.066312
vn 0.097094 0.000000 0.023932
vn 0.097094 0.000000 -0.023932
vn 0.074851 0.000000 -0.066312
vn 0.035460 0.000000 -0.093502
vn -0.012054 0.000000 -0.099271
vn -0.056806 0.000000 -0.082298
vn -0.000000 0.100000 -0.000000
vn -0.000000 0.100000 -0.000000
vn -0.000000 0.100000 -0.000000
vn -0.000000 0.100000 -0.000000
vn -0.000000 0.100000 -0.000000
vn -0.000000 0.100000 -0.000000
vn -0.000000 0.100000 -0.000000
vn -0.000000 0.100000 -0.000000
vn -0.000000 0.100000 -0.000000
vn -0.000000 0.100000 -0.000000
vn -0.000000 0.100000 -0.000000
vn -0.000000 0.100000 -0.000000
vn -0.000000 0.100000 -0.000000
usemtl Paint_-_Enamel_Glossy_(Black)
f 2/1/1 29/2/2 1/3/3
f 1/3/3 29/2/2 32/4/4
f 1/3/3 32/4/4 13/5/5
f 13/5/5 32/4/4 51/6/6
f 13/5/5 51/6/6 12/7/7
f 12/7/7 51/6/6 49/8/8
f 12/7/7 49/8/8 11/9/9
f 11/9/9 49/8/8 27/10/10
f 11/9/9 27/10/10 10/11/11
f 10/12/11 27/13/10 47/14/12
f 10/12/11 47/14/12 9/15/13
f 9/15/13 47/14/12 45/16/14
f 9/15/13 45/16/14 8/17/15
f 8/17/15 45/16/14 43/18/16
f 8/17/15 43/18/16 7/19/17
f 7/19/17 43/18/16 41/20/18
f 7/19/17 41/20/18 6/21/19
f 6/21/19 41/20/18 39/22/20
f 6/21/19 39/22/20 5/23/21
f 5/23/21 39/22/20 37/24/22
f 5/23/21 37/24/22 4/25/23
f 4/25/23 37/24/22 35/26/24
f 4/25/23 35/26/24 3/27/25
f 3/27/25 35/26/24 33/28/26
f 3/27/25 33/28/26 2/1/1
f 2/1/1 33/28/26 29/2/2
f 15/29/27 31/30/28 14/31/29
f 14/31/29 31/30/28 30/32/30
f 14/31/29 30/32/30 26/33/31
f 26/33/31 30/32/30 34/34/32
f 26/33/31 34/34/32 25/35/33
f 25/35/33 34/34/32 36/36/34
f 25/35/33 36/36/34 24/37/35
f 24/37/35 36/36/34 38/38/36
f 24/37/35 38/38/36 23/39/37
f 23/39/37 38/38/36 40/40/38
f 23/39/37 40/40/38 22/41/39
f 22/41/39 40/40/38 42/42/40
f 22/41/39 42/42/40 21/43/41
f 21/43/41 42/42/40 44/44/42
f 21/43/41 44/44/42 20/45/43
f 20/45/43 44/44/42 46/46/44
f 20/45/43 46/46/44 19/47/45
f 19/47/45 46/46/44 48/48/46
f 19/47/45 48/48/46 18/49/47
f 18/49/47 48/48/46 28/50/48
f 18/49/47 28/50/48 17/51/49
f 17/52/49 28/53/48 50/54/50
f 17/52/49 50/54/50 16/55/51
f 16/55/51 50/54/50 52/56/52
f 16/55/51 52/56/52 15/29/27
f 15/29/27 52/56/52 31/30/28
f 27/13/10 28/50/48 47/14/12
f 47/14/12 28/50/48 48/48/46
f 47/14/12 48/48/46 45/16/14
f 45/16/14 48/48/46 46/46/44
f 45/16/14 46/46/44 43/18/16
f 43/18/16 46/46/44 44/44/42
f 43/18/16 44/44/42 41/20/18
f 41/20/18 44/44/42 42/42/40
f 41/20/18 42/42/40 39/22/20
f 39/22/20 42/42/40 40/40/38
f 39/22/20 40/40/38 37/24/22
f 37/24/22 40/40/38 38/38/36
f 37/24/22 38/38/36 35/26/24
f 35/26/24 38/38/36 36/36/34
f 35/26/24 36/36/34 33/28/26
f 33/28/26 36/36/34 34/34/32
f 33/28/26 34/34/32 29/2/2
f 29/2/2 34/34/32 30/32/30
f 29/2/2 30/32/30 32/4/4
f 32/4/4 30/32/30 31/30/28
f 32/4/4 31/30/28 51/6/6
f 51/6/6 31/30/28 52/56/52
f 51/6/6 52/56/52 49/8/8
f 49/8/8 52/56/52 50/54/50
f 49/8/8 50/54/50 27/10/10
f 27/10/10 50/54/50 28/53/48
f 54/57/53 2/58/1 53/59/54
f 53/59/54 2/58/1 1/60/3
f 53/61/54 1/62/3 65/63/55
f 65/63/55 1/62/3 13/64/5
f 65/63/55 13/64/5 64/65/56
f 64/65/56 13/64/5 12/66/7
f 64/65/56 12/66/7 63/67/57
f 63/67/57 12/66/7 11/68/9
f 63/67/57 11/68/9 62/69/58
f 62/69/58 11/68/9 10/70/11
f 62/69/58 10/70/11 61/71/59
f 61/71/59 10/70/11 9/72/13
f 61/71/59 9/72/13 60/73/60
f 60/73/60 9/72/13 8/74/15
f 60/73/60 8/74/15 59/75/61
f 59/75/61 8/74/15 7/76/17
f 59/75/61 7/76/17 58/77/62
f 58/77/62 7/76/17 6/78/19
f 58/77/62 6/78/19 57/79/63
f 57/79/63 6/78/19 5/80/21
f 57/79/63 5/80/21 56/81/64
f 56/81/64 5/80/21 4/82/23
f 56/81/64 4/82/23 55/83/65
f 55/83/65 4/82/23 3/84/25
f 55/83/65 3/84/25 54/57/53
f 54/57/53 3/84/25 2/58/1
f 14/85/29 26/86/31 15/87/27
f 15/87/27 26/86/31 25/88/33
f 15/87/27 25/88/33 16/89/51
f 16/89/51 25/88/33 24/90/35
f 16/89/51 24/90/35 17/91/49
f 17/91/49 24/90/35 23/92/37
f 17/91/49 23/92/37 18/93/47
f 18/93/47 23/92/37 22/94/39
f 18/93/47 22/94/39 19/95/45
f 19/95/45 22/94/39 21/96/41
f 19/95/45 21/96/41 20/97/43
f 53/98/66 65/99/67 54/100/68
f 54/100/68 65/99/67 55/101/69
f 55/101/69 65/99/67 64/102/70
f 55/101/69 64/102/70 56/103/71
f 56/103/71 64/102/70 63/104/72
f 56/103/71 63/104/72 57/105/73
f 57/105/73 63/104/72 62/106/74
f 57/105/73 62/106/74 58/107/75
f 58/107/75 62/106/74 61/108/76
f 58/107/75 61/108/76 59/109/77
f 59/109/77 61/108/76 60/110/78
# 65 vertices
# 110 texture params
# 78 normals
# 126 facets

# 1 groups
