# WaveFront *.obj file (generated by Autodesk ATF)

mtllib _ZDOplus v105_JoystickRightCover_ZDOplus v105.mtl

g JoystickRightCover

v 3.500000 -7.706453 -7.000000
v 3.725038 -7.706453 -4.284189
v 4.394016 -7.706453 -1.642459
v 5.488683 -7.706453 0.853132
v 6.979182 -7.706453 3.134510
v 8.824854 -7.706453 5.139445
v 10.975355 -7.706453 6.813247
v 13.372025 -7.706453 8.110260
v 15.949489 -7.706453 8.995104
v 18.637441 -7.706453 9.443644
v 21.362559 -7.706453 9.443644
v 24.050511 -7.706453 8.995104
v 26.627975 -7.706453 8.110260
v 29.024645 -7.706453 6.813247
v 31.175146 -7.706453 5.139445
v 33.020818 -7.706453 3.134510
v 34.511317 -7.706453 0.853132
v 35.605984 -7.706453 -1.642459
v 36.274962 -7.706453 -4.284189
v 36.500000 -7.706453 -7.000000
v 36.274962 -7.706453 -9.715811
v 35.605984 -7.706453 -12.357541
v 34.511317 -7.706453 -14.853132
v 33.020818 -7.706453 -17.134510
v 31.175146 -7.706453 -19.139445
v 29.024645 -7.706453 -20.813247
v 26.627975 -7.706453 -22.110260
v 24.050511 -7.706453 -22.995104
v 21.362559 -7.706453 -23.443644
v 18.637441 -7.706453 -23.443644
v 15.949489 -7.706453 -22.995104
v 13.372025 -7.706453 -22.110260
v 10.975355 -7.706453 -20.813247
v 8.824854 -7.706453 -19.139445
v 6.979182 -7.706453 -17.134510
v 5.488683 -7.706453 -14.853132
v 4.394016 -7.706453 -12.357541
v 3.725038 -7.706453 -9.715811
v 5.065015 -12.222818 -14.014001
v 6.025606 -11.980423 -15.773047
v 7.193598 -11.746264 -17.404138
v 8.552654 -11.527964 -18.883124
v 10.080597 -11.333925 -20.185442
v 11.760909 -11.170477 -21.295713
v 13.562673 -11.043910 -22.192492
v 15.457348 -10.949857 -22.862383
v 17.424095 -10.880303 -23.297690
v 20.000007 -10.810738 -23.500000
v 21.392086 -10.779278 -23.441165
v 22.778505 -10.751777 -23.264376
v 24.649418 -10.726719 -22.831398
v 26.457074 -10.728778 -22.184078
v 28.176633 -10.767910 -21.331595
v 29.780825 -10.848026 -20.288622
v 31.254500 -10.969240 -19.065912
v 32.576042 -11.128862 -17.681440
v 33.727000 -11.320862 -16.155297
v 34.691908 -11.538939 -14.509849
v 35.520060 -11.796128 -12.601551
v 36.101246 -12.066765 -10.605514
v 36.427170 -12.350232 -8.548548
v 36.491574 -12.642404 -6.473186
v 36.295024 -12.937839 -4.407314
v 35.839103 -13.230981 -2.376925
v 35.131851 -13.513138 -0.421463
v 34.183282 -13.777012 1.431167
v 33.004914 -14.015752 3.154925
v 31.619113 -14.222465 4.715242
v 30.043081 -14.393706 6.091468
v 28.303303 -14.526370 7.258535
v 26.432302 -14.620751 8.194613
v 24.452312 -14.679092 8.887949
v 22.399643 -14.704302 9.324552
v 20.312061 -14.701254 9.497029
v 18.215231 -14.675156 9.403189
v 16.148681 -14.630116 9.044220
v 14.148525 -14.566686 8.427569
v 12.239137 -14.484699 7.560872
v 10.455551 -14.384300 6.459325
v 8.829770 -14.265524 5.143964
v 7.381316 -14.128028 3.631031
v 6.136565 -13.972389 1.947357
v 5.116509 -13.799388 0.122619
v 4.334684 -13.609388 -1.818502
v 3.806231 -13.404659 -3.835860
v 3.536584 -13.186732 -5.901863
v 3.529740 -12.957133 -7.990219
v 3.785763 -12.719644 -10.057514
v 4.299471 -12.474930 -12.073787
vt -0.200000 4.910805 0.000000
vt 0.348028 5.073733 0.000000
vt -0.200000 5.183628 0.000000
vt -0.200000 -5.183628 0.000000
vt 0.348028 -5.293523 0.000000
vt 0.325068 -5.084546 0.000000
vt -0.200000 -4.910805 0.000000
vt 0.301319 -4.876099 0.000000
vt 0.276848 -4.667892 0.000000
vt 0.369821 4.865242 0.000000
vt -0.200000 4.637983 0.000000
vt 0.390293 4.656560 0.000000
vt 0.409293 4.447154 0.000000
vt -0.200000 4.365160 0.000000
vt 0.426594 4.237964 0.000000
vt -0.200000 4.092338 0.000000
vt 0.442157 4.028440 0.000000
vt -0.200000 3.819515 0.000000
vt 0.455907 3.818847 0.000000
vt 0.467785 3.609582 0.000000
vt -0.200000 3.546693 0.000000
vt 0.477825 3.399808 0.000000
vt -0.200000 3.273870 0.000000
vt 0.486023 3.189978 0.000000
vt -0.200000 3.001048 0.000000
vt 0.492366 2.980532 0.000000
vt 0.496870 2.770641 0.000000
vt -0.200000 2.728225 0.000000
vt 0.499480 2.560606 0.000000
vt -0.200000 2.455403 0.000000
vt 0.499785 2.350995 0.000000
vt -0.200000 2.182580 0.000000
vt 0.497264 2.140995 0.000000
vt -0.200000 1.909758 0.000000
vt 0.491430 1.931066 0.000000
vt 0.481992 1.721716 0.000000
vt -0.200000 1.636935 0.000000
vt 0.468725 1.512078 0.000000
vt -0.200000 1.364113 0.000000
vt 0.451601 1.302704 0.000000
vt -0.200000 1.091290 0.000000
vt 0.430930 1.093878 0.000000
vt 0.407056 0.884935 0.000000
vt -0.200000 0.818468 0.000000
vt 0.380669 0.676662 0.000000
vt -0.200000 0.545645 0.000000
vt 0.352453 0.468581 0.000000
vt -0.200000 0.272823 0.000000
vt 0.323139 0.260348 0.000000
vt 0.293595 0.052690 0.000000
vt -0.200000 0.000000 0.000000
vt 0.264378 -0.155083 0.000000
vt -0.200000 -0.272823 0.000000
vt 0.236031 -0.363484 0.000000
vt -0.200000 -0.545645 0.000000
vt 0.208968 -0.571515 0.000000
vt 0.183249 -0.779678 0.000000
vt -0.200000 -0.818468 0.000000
vt 0.161441 -0.970534 0.000000
vt -0.200000 -1.091290 0.000000
vt 0.142241 -1.161791 0.000000
vt -0.200000 -1.364113 0.000000
vt 0.126279 -1.353294 0.000000
vt 0.114157 -1.544889 0.000000
vt -0.200000 -1.636935 0.000000
vt 0.106146 -1.736338 0.000000
vt -0.200000 -1.909758 0.000000
vt 0.102233 -1.928374 0.000000
vt 0.102027 -2.120489 0.000000
vt -0.200000 -2.182580 0.000000
vt 0.104532 -2.312633 0.000000
vt -0.200000 -2.455403 0.000000
vt 0.107282 -2.452440 0.000000
vt 0.110428 -2.591813 0.000000
vt -0.200000 -2.728225 0.000000
vt 0.117385 -2.850462 0.000000
vt -0.200000 -3.001048 0.000000
vt 0.124340 -3.052022 0.000000
vt -0.200000 -3.273870 0.000000
vt 0.133746 -3.253108 0.000000
vt 0.146402 -3.454493 0.000000
vt -0.200000 -3.546693 0.000000
vt 0.162747 -3.656017 0.000000
vt -0.200000 -3.819515 0.000000
vt 0.182151 -3.856905 0.000000
vt -0.200000 -4.092338 0.000000
vt 0.203981 -4.057888 0.000000
vt 0.227397 -4.258628 0.000000
vt -0.200000 -4.365160 0.000000
vt 0.251636 -4.459175 0.000000
vt -0.200000 -4.637983 0.000000
vt 1.627496 0.271581 0.000000
vt -1.627496 0.271581 0.000000
vt 1.650000 -0.000000 0.000000
vt -1.650000 -0.000000 0.000000
vt 1.627496 -0.271581 0.000000
vt -1.627496 -0.271581 0.000000
vt 1.560598 -0.535754 0.000000
vt -1.560598 -0.535754 0.000000
vt 1.451132 -0.785313 0.000000
vt -1.451132 -0.785313 0.000000
vt 1.302082 -1.013451 0.000000
vt -1.302082 -1.013451 0.000000
vt 1.117515 -1.213944 0.000000
vt -1.117515 -1.213944 0.000000
vt 0.902464 -1.381325 0.000000
vt -0.902464 -1.381325 0.000000
vt 0.662797 -1.511026 0.000000
vt -0.662797 -1.511026 0.000000
vt 0.405051 -1.599510 0.000000
vt -0.405051 -1.599510 0.000000
vt 0.136256 -1.644364 0.000000
vt -0.136256 -1.644364 0.000000
vt -1.560598 0.535754 0.000000
vt 1.560598 0.535754 0.000000
vt -1.451132 0.785313 0.000000
vt 1.451132 0.785313 0.000000
vt -1.302082 1.013451 0.000000
vt 1.302082 1.013451 0.000000
vt -1.117515 1.213944 0.000000
vt 1.117515 1.213944 0.000000
vt -0.902464 1.381325 0.000000
vt 0.902464 1.381325 0.000000
vt -0.662797 1.511026 0.000000
vt 0.662797 1.511026 0.000000
vt -0.405051 1.599510 0.000000
vt 0.405051 1.599510 0.000000
vt -0.136256 1.644364 0.000000
vt 0.136256 1.644364 0.000000
vn 0.098636 -0.000000 -0.016459
vn 0.099778 -0.000000 -0.006655
vn 0.100000 -0.000000 -0.000000
vn 0.099820 0.000000 0.006001
vn 0.098636 0.000000 0.016459
vn 0.098268 0.000000 0.018530
vn 0.095155 0.000000 0.030750
vn 0.098144 -0.000000 -0.019177
vn 0.094582 -0.000000 -0.032470
vn 0.094941 -0.000000 -0.031403
vn 0.090203 -0.000000 -0.043167
vn 0.087947 -0.000000 -0.047595
vn 0.084021 -0.000000 -0.054226
vn 0.078914 -0.000000 -0.061421
vn 0.076477 -0.000000 -0.064430
vn 0.067728 -0.000000 -0.073572
vn 0.067698 -0.000000 -0.073600
vn 0.057845 -0.000000 -0.081572
vn 0.054695 -0.000000 -0.083717
vn 0.047036 -0.000000 -0.088248
vn 0.040170 -0.000000 -0.091577
vn 0.035464 -0.000000 -0.093500
vn 0.024549 -0.000000 -0.096940
vn 0.023341 -0.000000 -0.097238
vn 0.010817 -0.000000 -0.099413
vn 0.008258 -0.000000 -0.099658
vn -0.001891 -0.000000 -0.099982
vn -0.008258 -0.000000 -0.099658
vn -0.014543 -0.000000 -0.098937
vn -0.024549 -0.000000 -0.096940
vn -0.026984 -0.000000 -0.096291
vn -0.040170 -0.000000 -0.091577
vn -0.038984 -0.000000 -0.092088
vn -0.050323 -0.000000 -0.086415
vn -0.054695 -0.000000 -0.083717
vn -0.060867 -0.000000 -0.079342
vn -0.067728 -0.000000 -0.073572
vn -0.070419 -0.000000 -0.071001
vn -0.078914 -0.000000 -0.061421
vn -0.078818 -0.000000 -0.061545
vn -0.085959 -0.000000 -0.051098
vn -0.087947 -0.000000 -0.047595
vn -0.091708 -0.000000 -0.039870
vn -0.094582 -0.000000 -0.032470
vn -0.095995 -0.000000 -0.028019
vn -0.098636 -0.000000 -0.016459
vn -0.098758 -0.000000 -0.015713
vn -0.099949 -0.000000 -0.003193
vn -0.100000 -0.000000 -0.000000
vn -0.099559 0.000000 0.009385
vn -0.098636 0.000000 0.016459
vn -0.097583 0.000000 0.021852
vn -0.094582 0.000000 0.032470
vn -0.094061 0.000000 0.033949
vn -0.089042 0.000000 0.045514
vn -0.087947 0.000000 0.047595
vn -0.083194 0.000000 0.055487
vn -0.078914 0.000000 0.061421
vn -0.076218 0.000000 0.064736
vn -0.067728 0.000000 0.073572
vn -0.068209 0.000000 0.073127
vn -0.059278 0.000000 0.080537
vn -0.054695 0.000000 0.083717
vn -0.049555 0.000000 0.086858
vn -0.040170 0.000000 0.091577
vn -0.039134 0.000000 0.092025
vn -0.028178 0.000000 0.095948
vn -0.024549 0.000000 0.096940
vn -0.016839 0.000000 0.098572
vn -0.008258 0.000000 0.099658
vn -0.008437 0.000000 0.099643
vn -0.000000 0.000000 0.100000
vn 0.008258 0.000000 0.099658
vn 0.015612 0.000000 0.098774
vn 0.024549 0.000000 0.096940
vn 0.027531 0.000000 0.096135
vn 0.040170 0.000000 0.091577
vn 0.039014 0.000000 0.092076
vn 0.049934 0.000000 0.086641
vn 0.054695 0.000000 0.083717
vn 0.060118 0.000000 0.079912
vn 0.067728 0.000000 0.073572
vn 0.069378 0.000000 0.072019
vn 0.078914 0.000000 0.061421
vn 0.077615 0.000000 0.063055
vn 0.084693 0.000000 0.053170
vn 0.087947 0.000000 0.047595
vn 0.090515 0.000000 0.042509
vn 0.094582 0.000000 0.032470
vn 0.000000 -0.100000 0.000000
vn 0.000000 -0.100000 0.000000
vn 0.000000 -0.100000 0.000000
vn 0.000000 -0.100000 0.000000
vn 0.000000 -0.100000 0.000000
vn 0.000000 -0.100000 0.000000
vn 0.000000 -0.100000 0.000000
vn 0.000000 -0.100000 0.000000
vn 0.000000 -0.100000 0.000000
vn 0.000000 -0.100000 0.000000
vn 0.000000 -0.100000 0.000000
vn 0.000000 -0.100000 0.000000
vn 0.000000 -0.100000 0.000000
vn 0.000000 -0.100000 0.000000
vn 0.000000 -0.100000 0.000000
vn 0.000000 -0.100000 0.000000
vn 0.000000 -0.100000 0.000000
vn 0.000000 -0.100000 0.000000
vn 0.000000 -0.100000 0.000000
vn 0.000000 -0.100000 0.000000
vn 0.000000 -0.100000 0.000000
vn 0.000000 -0.100000 0.000000
vn 0.000000 -0.100000 0.000000
vn 0.000000 -0.100000 0.000000
vn 0.000000 -0.100000 0.000000
vn 0.000000 -0.100000 0.000000
vn 0.000000 -0.100000 0.000000
vn 0.000000 -0.100000 0.000000
vn 0.000000 -0.100000 0.000000
vn 0.000000 -0.100000 0.000000
vn 0.000000 -0.100000 0.000000
vn 0.000000 -0.100000 0.000000
vn 0.000000 -0.100000 0.000000
vn 0.000000 -0.100000 0.000000
vn 0.000000 -0.100000 0.000000
vn 0.000000 -0.100000 0.000000
vn 0.000000 -0.100000 0.000000
vn 0.000000 -0.100000 0.000000
usemtl Paint_-_Enamel_Glossy_(Green)
f 2/1/1 86/2/2 1/3/3
f 1/4/3 86/5/2 87/6/4
f 1/4/3 87/6/4 38/7/5
f 38/7/5 87/6/4 88/8/6
f 38/7/5 88/8/6 89/9/7
f 86/2/2 2/1/1 85/10/8
f 85/10/8 2/1/1 3/11/9
f 85/10/8 3/11/9 84/12/10
f 84/12/10 3/11/9 83/13/11
f 83/13/11 3/11/9 4/14/12
f 83/13/11 4/14/12 82/15/13
f 82/15/13 4/14/12 5/16/14
f 82/15/13 5/16/14 81/17/15
f 81/17/15 5/16/14 6/18/16
f 81/17/15 6/18/16 80/19/17
f 80/19/17 6/18/16 79/20/18
f 79/20/18 6/18/16 7/21/19
f 79/20/18 7/21/19 78/22/20
f 78/22/20 7/21/19 8/23/21
f 78/22/20 8/23/21 77/24/22
f 77/24/22 8/23/21 9/25/23
f 77/24/22 9/25/23 76/26/24
f 76/26/24 9/25/23 75/27/25
f 75/27/25 9/25/23 10/28/26
f 75/27/25 10/28/26 74/29/27
f 74/29/27 10/28/26 11/30/28
f 74/29/27 11/30/28 73/31/29
f 73/31/29 11/30/28 12/32/30
f 73/31/29 12/32/30 72/33/31
f 72/33/31 12/32/30 13/34/32
f 72/33/31 13/34/32 71/35/33
f 71/35/33 13/34/32 70/36/34
f 70/36/34 13/34/32 14/37/35
f 70/36/34 14/37/35 69/38/36
f 69/38/36 14/37/35 15/39/37
f 69/38/36 15/39/37 68/40/38
f 68/40/38 15/39/37 16/41/39
f 68/40/38 16/41/39 67/42/40
f 67/42/40 16/41/39 66/43/41
f 66/43/41 16/41/39 17/44/42
f 66/43/41 17/44/42 65/45/43
f 65/45/43 17/44/42 18/46/44
f 65/45/43 18/46/44 64/47/45
f 64/47/45 18/46/44 19/48/46
f 64/47/45 19/48/46 63/49/47
f 63/49/47 19/48/46 62/50/48
f 62/50/48 19/48/46 20/51/49
f 62/50/48 20/51/49 61/52/50
f 61/52/50 20/51/49 21/53/51
f 61/52/50 21/53/51 60/54/52
f 60/54/52 21/53/51 22/55/53
f 60/54/52 22/55/53 59/56/54
f 59/56/54 22/55/53 58/57/55
f 58/57/55 22/55/53 23/58/56
f 58/57/55 23/58/56 57/59/57
f 57/59/57 23/58/56 24/60/58
f 57/59/57 24/60/58 56/61/59
f 56/61/59 24/60/58 25/62/60
f 56/61/59 25/62/60 55/63/61
f 55/63/61 25/62/60 54/64/62
f 54/64/62 25/62/60 26/65/63
f 54/64/62 26/65/63 53/66/64
f 53/66/64 26/65/63 27/67/65
f 53/66/64 27/67/65 52/68/66
f 52/68/66 27/67/65 51/69/67
f 51/69/67 27/67/65 28/70/68
f 51/69/67 28/70/68 50/71/69
f 50/71/69 28/70/68 29/72/70
f 50/71/69 29/72/70 49/73/71
f 49/73/71 29/72/70 48/74/72
f 48/74/72 29/72/70 30/75/73
f 48/74/72 30/75/73 47/76/74
f 47/76/74 30/75/73 31/77/75
f 47/76/74 31/77/75 46/78/76
f 46/78/76 31/77/75 32/79/77
f 46/78/76 32/79/77 45/80/78
f 45/80/78 32/79/77 44/81/79
f 44/81/79 32/79/77 33/82/80
f 44/81/79 33/82/80 43/83/81
f 43/83/81 33/82/80 34/84/82
f 43/83/81 34/84/82 42/85/83
f 42/85/83 34/84/82 35/86/84
f 42/85/83 35/86/84 41/87/85
f 41/87/85 35/86/84 40/88/86
f 40/88/86 35/86/84 36/89/87
f 40/88/86 36/89/87 39/90/88
f 39/90/88 36/89/87 37/91/89
f 39/90/88 37/91/89 89/9/7
f 89/9/7 37/91/89 38/7/5
f 38/92/90 21/93/91 1/94/92
f 1/94/92 21/93/91 20/95/93
f 1/94/92 20/95/93 2/96/94
f 2/96/94 20/95/93 19/97/95
f 2/96/94 19/97/95 3/98/96
f 3/98/96 19/97/95 18/99/97
f 3/98/96 18/99/97 4/100/98
f 4/100/98 18/99/97 17/101/99
f 4/100/98 17/101/99 5/102/100
f 5/102/100 17/101/99 16/103/101
f 5/102/100 16/103/101 6/104/102
f 6/104/102 16/103/101 15/105/103
f 6/104/102 15/105/103 7/106/104
f 7/106/104 15/105/103 14/107/105
f 7/106/104 14/107/105 8/108/106
f 8/108/106 14/107/105 13/109/107
f 8/108/106 13/109/107 9/110/108
f 9/110/108 13/109/107 12/111/109
f 9/110/108 12/111/109 10/112/110
f 10/112/110 12/111/109 11/113/111
f 21/93/91 38/92/90 22/114/112
f 22/114/112 38/92/90 37/115/113
f 22/114/112 37/115/113 23/116/114
f 23/116/114 37/115/113 36/117/115
f 23/116/114 36/117/115 24/118/116
f 24/118/116 36/117/115 35/119/117
f 24/118/116 35/119/117 25/120/118
f 25/120/118 35/119/117 34/121/119
f 25/120/118 34/121/119 26/122/120
f 26/122/120 34/121/119 33/123/121
f 26/122/120 33/123/121 27/124/122
f 27/124/122 33/123/121 32/125/123
f 27/124/122 32/125/123 28/126/124
f 28/126/124 32/125/123 31/127/125
f 28/126/124 31/127/125 29/128/126
f 29/128/126 31/127/125 30/129/127
# 89 vertices
# 129 texture params
# 127 normals
# 125 facets

# 1 groups
