# WaveFront *.obj file (generated by Autodesk ATF)

mtllib _ZDOplus v105_JoystickLeftCover_ZDOplus v105.mtl

g JoystickLeftCover

v -55.500000 -8.506453 16.500000
v -55.274962 -8.506453 19.215811
v -54.605984 -8.506453 21.857541
v -53.511317 -8.506453 24.353132
v -52.020818 -8.506453 26.634510
v -50.175146 -8.506453 28.639445
v -48.024645 -8.506453 30.313247
v -45.627975 -8.506453 31.610260
v -43.050511 -8.506453 32.495104
v -40.362559 -8.506453 32.943644
v -37.637441 -8.506453 32.943644
v -34.949489 -8.506453 32.495104
v -32.372025 -8.506453 31.610260
v -29.975355 -8.506453 30.313247
v -27.824854 -8.506453 28.639445
v -25.979182 -8.506453 26.634510
v -24.488683 -8.506453 24.353132
v -23.394016 -8.506453 21.857541
v -22.725038 -8.506453 19.215811
v -22.500000 -8.506453 16.500000
v -22.725038 -8.506453 13.784189
v -23.394016 -8.506453 11.142459
v -24.488683 -8.506453 8.646868
v -25.979182 -8.506453 6.365490
v -27.824854 -8.506453 4.360555
v -29.975355 -8.506453 2.686753
v -32.372025 -8.506453 1.389740
v -34.949489 -8.506453 0.504896
v -37.637441 -8.506453 0.056356
v -40.362559 -8.506453 0.056356
v -43.050511 -8.506453 0.504896
v -45.627975 -8.506453 1.389740
v -48.024645 -8.506453 2.686753
v -50.175146 -8.506453 4.360555
v -52.020818 -8.506453 6.365490
v -53.511317 -8.506453 8.646868
v -54.605984 -8.506453 11.142459
v -55.274962 -8.506453 13.784189
v -55.247526 -11.556200 19.375330
v -55.451180 -11.493284 17.768209
v -55.496239 -11.491855 16.147715
v -55.382154 -11.541018 14.531503
v -55.110476 -11.628940 12.935864
v -54.713725 -11.739771 11.467243
v -54.183252 -11.868398 10.040992
v -53.522447 -12.007040 8.667497
v -52.739115 -12.147926 7.363001
v -51.839486 -12.287208 6.136814
v -50.829310 -12.421478 4.997092
v -49.715130 -12.547419 3.952646
v -48.511563 -12.664376 3.017386
v -47.228817 -12.774533 2.198339
v -45.875143 -12.880197 1.500570
v -44.458843 -12.983673 0.929161
v -42.996434 -13.086800 0.491302
v -41.503183 -13.189894 0.190990
v -39.988790 -13.292958 0.029658
v -38.462952 -13.395995 0.008742
v -36.939722 -13.498918 0.129135
v -35.437851 -13.601954 0.389105
v -33.967156 -13.705880 0.786300
v -32.537161 -13.811480 1.318376
v -31.160569 -13.919332 1.981277
v -29.854299 -14.029496 2.766606
v -28.626783 -14.142352 3.668541
v -27.486021 -14.258304 4.681443
v -26.442765 -14.377347 5.796458
v -25.509130 -14.498725 7.000193
v -24.690782 -14.622182 8.284392
v -23.993217 -14.747481 9.640958
v -23.423718 -14.873841 11.056712
v -22.988254 -15.000049 12.515799
v -22.689167 -15.125478 14.008680
v -22.528782 -15.249506 15.525851
v -22.509228 -15.370965 17.051704
v -22.630283 -15.488530 18.569347
v -22.890635 -15.601490 20.069073
v -23.288971 -15.709137 21.541188
v -23.822855 -15.810620 22.973346
v -24.485444 -15.904731 24.347128
v -25.271592 -15.990701 25.653176
v -26.176414 -16.067802 26.882949
v -27.193439 -16.135173 28.026277
v -28.309471 -16.191329 29.068305
v -29.515981 -16.235126 30.001967
v -30.805217 -16.265485 30.821155
v -32.168774 -16.281304 31.519466
v -33.590843 -16.281906 32.088086
v -35.055423 -16.264571 32.521327
v -36.551856 -16.222407 32.817172
v -38.069704 -16.148391 32.973718
v -39.595376 -16.035177 32.989398
v -41.104122 -15.875868 32.865842
v -42.587213 -15.667478 32.605818
v -44.038273 -15.407397 32.212016
v -45.446144 -15.094881 31.688750
v -46.790150 -14.739766 31.045288
v -48.062861 -14.354041 30.288231
v -49.257822 -13.949569 29.423896
v -50.369934 -13.539140 28.457201
v -51.393132 -13.136354 27.393145
v -52.320425 -12.754667 26.237375
v -53.144447 -12.407793 24.996260
v -53.855230 -12.108883 23.682131
v -54.446576 -11.864112 22.301945
v -54.913273 -11.678549 20.860958
vt -0.100000 4.910805 0.000000
vt 0.198683 5.056682 0.000000
vt -0.100000 5.183628 0.000000
vt -0.100000 -5.183628 0.000000
vt 0.198683 -5.310574 0.000000
vt 0.198540 -5.148397 0.000000
vt 0.203456 -4.986308 0.000000
vt -0.100000 4.637983 0.000000
vt 0.217210 4.742288 0.000000
vt 0.204975 4.894619 0.000000
vt -0.100000 4.365160 0.000000
vt 0.260243 4.440566 0.000000
vt 0.235766 4.590769 0.000000
vt 0.290134 4.291113 0.000000
vt -0.100000 4.092338 0.000000
vt 0.324821 4.142087 0.000000
vt 0.362990 3.993859 0.000000
vt -0.100000 3.819515 0.000000
vt 0.403269 3.846191 0.000000
vt 0.444312 3.698788 0.000000
vt -0.100000 3.546693 0.000000
vt 0.484759 3.551260 0.000000
vt 0.523331 3.403126 0.000000
vt -0.100000 3.273870 0.000000
vt 0.558843 3.254065 0.000000
vt 0.590094 3.103817 0.000000
vt -0.100000 3.001048 0.000000
vt 0.616102 2.953413 0.000000
vt 0.636942 2.802794 0.000000
vt -0.100000 2.728225 0.000000
vt 0.652872 2.651364 0.000000
vt -0.100000 2.455403 0.000000
vt 0.664194 2.498735 0.000000
vt 0.671595 2.346089 0.000000
vt -0.100000 2.182580 0.000000
vt 0.675812 2.193493 0.000000
vt 0.677545 2.040706 0.000000
vt -0.100000 1.909758 0.000000
vt 0.677485 1.887497 0.000000
vt 0.675903 1.734245 0.000000
vt -0.100000 1.636935 0.000000
vt 0.672867 1.581442 0.000000
vt 0.668488 1.428830 0.000000
vt -0.100000 1.364113 0.000000
vt 0.662872 1.276087 0.000000
vt -0.100000 1.091290 0.000000
vt 0.656135 1.123012 0.000000
vt 0.648425 0.970280 0.000000
vt -0.100000 0.818468 0.000000
vt 0.639828 0.817785 0.000000
vt 0.630417 0.665209 0.000000
vt -0.100000 0.545645 0.000000
vt 0.620268 0.512311 0.000000
vt 0.609504 0.359751 0.000000
vt -0.100000 0.272823 0.000000
vt 0.598208 0.207481 0.000000
vt -0.100000 -0.000000 0.000000
vt 0.586451 0.055181 0.000000
vt 0.574305 -0.097472 0.000000
vt -0.100000 -0.272823 0.000000
vt 0.561903 -0.250088 0.000000
vt 0.549360 -0.402397 0.000000
vt -0.100000 -0.545645 0.000000
vt 0.536739 -0.554720 0.000000
vt 0.524103 -0.707374 0.000000
vt -0.100000 -0.818468 0.000000
vt 0.511573 -0.859970 0.000000
vt 0.499227 -1.012302 0.000000
vt -0.100000 -1.091290 0.000000
vt 0.487089 -1.164693 0.000000
vt -0.100000 -1.364113 0.000000
vt 0.475185 -1.317445 0.000000
vt 0.463590 -1.470054 0.000000
vt -0.100000 -1.636935 0.000000
vt 0.452304 -1.622433 0.000000
vt 0.441288 -1.774904 0.000000
vt -0.100000 -1.909758 0.000000
vt 0.430503 -1.927747 0.000000
vt 0.419943 -2.080379 0.000000
vt -0.100000 -2.182580 0.000000
vt 0.409550 -2.232772 0.000000
vt 0.399246 -2.385247 0.000000
vt -0.100000 -2.455403 0.000000
vt 0.388954 -2.538100 0.000000
vt -0.100000 -2.728225 0.000000
vt 0.378650 -2.690752 0.000000
vt 0.368344 -2.843103 0.000000
vt -0.100000 -3.001048 0.000000
vt 0.358035 -2.995472 0.000000
vt 0.347722 -3.148182 0.000000
vt -0.100000 -3.273870 0.000000
vt 0.337374 -3.300958 0.000000
vt 0.326808 -3.453305 0.000000
vt -0.100000 -3.546693 0.000000
vt 0.315792 -3.605552 0.000000
vt 0.304097 -3.758030 0.000000
vt -0.100000 -3.819515 0.000000
vt 0.291503 -3.910802 0.000000
vt -0.100000 -4.092338 0.000000
vt 0.278076 -4.063153 0.000000
vt 0.264147 -4.215288 0.000000
vt -0.100000 -4.365160 0.000000
vt 0.250059 -4.367504 0.000000
vt 0.236195 -4.519977 0.000000
vt -0.100000 -4.637983 0.000000
vt 0.223332 -4.672202 0.000000
vt 0.212249 -4.824383 0.000000
vt -0.100000 -4.910805 0.000000
vt 1.627496 0.271581 0.000000
vt -1.627496 0.271581 0.000000
vt 1.650000 -0.000000 0.000000
vt -1.650000 0.000000 0.000000
vt 1.627496 -0.271581 0.000000
vt -1.627496 -0.271581 0.000000
vt 1.560598 -0.535754 0.000000
vt -1.560598 -0.535754 0.000000
vt 1.451132 -0.785313 0.000000
vt -1.451132 -0.785313 0.000000
vt 1.302082 -1.013451 0.000000
vt -1.302082 -1.013451 0.000000
vt 1.117515 -1.213944 0.000000
vt -1.117515 -1.213944 0.000000
vt 0.902464 -1.381325 0.000000
vt -0.902464 -1.381325 0.000000
vt 0.662797 -1.511026 0.000000
vt -0.662797 -1.511026 0.000000
vt 0.405051 -1.599510 0.000000
vt -0.405051 -1.599510 0.000000
vt 0.136256 -1.644364 0.000000
vt -0.136256 -1.644364 0.000000
vt -1.560598 0.535754 0.000000
vt 1.560598 0.535754 0.000000
vt -1.451132 0.785313 0.000000
vt 1.451132 0.785313 0.000000
vt -1.302082 1.013451 0.000000
vt 1.302082 1.013451 0.000000
vt -1.117515 1.213944 0.000000
vt 1.117515 1.213944 0.000000
vt -0.902464 1.381325 0.000000
vt 0.902464 1.381325 0.000000
vt -0.662797 1.511026 0.000000
vt 0.662797 1.511026 0.000000
vt -0.405051 1.599510 0.000000
vt 0.405051 1.599510 0.000000
vt -0.136256 1.644364 0.000000
vt 0.136256 1.644364 0.000000
vn 0.098636 -0.000000 -0.016459
vn 0.099704 -0.000000 -0.007686
vn 0.100000 -0.000000 -0.000000
vn 0.099977 0.000000 0.002135
vn 0.099286 0.000000 0.011930
vn 0.094582 -0.000000 -0.032470
vn 0.096444 -0.000000 -0.026430
vn 0.098470 -0.000000 -0.017426
vn 0.087947 -0.000000 -0.047595
vn 0.090030 -0.000000 -0.043527
vn 0.093614 -0.000000 -0.035163
vn 0.085724 -0.000000 -0.051492
vn 0.078914 -0.000000 -0.061421
vn 0.080730 -0.000000 -0.059014
vn 0.075110 -0.000000 -0.066019
vn 0.067728 -0.000000 -0.073572
vn 0.068909 -0.000000 -0.072468
vn 0.062169 -0.000000 -0.078327
vn 0.054695 -0.000000 -0.083717
vn 0.054926 -0.000000 -0.083565
vn 0.047213 -0.000000 -0.088153
vn 0.040170 -0.000000 -0.091577
vn 0.039067 -0.000000 -0.092053
vn 0.030535 -0.000000 -0.095224
vn 0.024549 -0.000000 -0.096940
vn 0.021740 -0.000000 -0.097608
vn 0.012752 -0.000000 -0.099184
vn 0.008258 -0.000000 -0.099658
vn 0.003608 -0.000000 -0.099935
vn -0.008258 -0.000000 -0.099658
vn -0.005638 -0.000000 -0.099841
vn -0.014837 -0.000000 -0.098893
vn -0.024549 -0.000000 -0.096940
vn -0.023907 -0.000000 -0.097100
vn -0.032783 -0.000000 -0.094474
vn -0.040170 -0.000000 -0.091577
vn -0.041401 -0.000000 -0.091027
vn -0.049665 -0.000000 -0.086795
vn -0.054695 -0.000000 -0.083717
vn -0.057479 -0.000000 -0.081830
vn -0.064791 -0.000000 -0.076172
vn -0.067728 -0.000000 -0.073572
vn -0.071555 -0.000000 -0.069856
vn -0.078914 -0.000000 -0.061421
vn -0.077719 -0.000000 -0.062927
vn -0.083202 -0.000000 -0.055474
vn -0.087947 -0.000000 -0.047595
vn -0.087967 -0.000000 -0.047558
vn -0.091983 -0.000000 -0.039232
vn -0.094582 -0.000000 -0.032470
vn -0.095218 -0.000000 -0.030553
vn -0.097633 -0.000000 -0.021631
vn -0.098636 -0.000000 -0.016459
vn -0.099210 -0.000000 -0.012542
vn -0.100000 0.000000 0.000000
vn -0.099944 -0.000000 -0.003344
vn -0.099826 0.000000 0.005904
vn -0.098636 0.000000 0.016459
vn -0.098854 0.000000 0.015099
vn -0.097041 0.000000 0.024147
vn -0.094582 0.000000 0.032470
vn -0.094402 0.000000 0.032990
vn -0.090950 0.000000 0.041570
vn -0.087947 0.000000 0.047595
vn -0.086723 0.000000 0.049792
vn -0.081763 0.000000 0.057575
vn -0.078914 0.000000 0.061421
vn -0.076104 0.000000 0.064870
vn -0.067728 0.000000 0.073572
vn -0.069782 0.000000 0.071628
vn -0.062868 0.000000 0.077766
vn -0.054695 0.000000 0.083717
vn -0.055428 0.000000 0.083233
vn -0.047512 0.000000 0.087992
vn -0.040170 0.000000 0.091577
vn -0.039169 0.000000 0.092010
vn -0.030502 0.000000 0.095235
vn -0.024549 0.000000 0.096940
vn -0.021589 0.000000 0.097642
vn -0.012487 0.000000 0.099217
vn -0.008258 0.000000 0.099658
vn -0.003255 0.000000 0.099947
vn 0.008258 0.000000 0.099658
vn 0.005993 0.000000 0.099820
vn 0.015171 0.000000 0.098843
vn 0.024549 0.000000 0.096940
vn 0.024221 0.000000 0.097022
vn 0.033084 0.000000 0.094369
vn 0.040170 0.000000 0.091577
vn 0.041667 0.000000 0.090906
vn 0.049872 0.000000 0.086677
vn 0.054695 0.000000 0.083717
vn 0.057646 0.000000 0.081713
vn 0.064940 0.000000 0.076045
vn 0.067728 0.000000 0.073572
vn 0.071693 0.000000 0.069715
vn 0.078914 0.000000 0.061421
vn 0.077815 0.000000 0.062807
vn 0.083268 0.000000 0.055376
vn 0.087947 0.000000 0.047595
vn 0.088015 0.000000 0.047470
vn 0.092020 0.000000 0.039146
vn 0.094582 0.000000 0.032470
vn 0.095235 0.000000 0.030502
vn 0.097639 0.000000 0.021601
vn 0.098636 0.000000 0.016459
vn 0.000000 -0.100000 0.000000
vn 0.000000 -0.100000 0.000000
vn 0.000000 -0.100000 0.000000
vn 0.000000 -0.100000 0.000000
vn 0.000000 -0.100000 0.000000
vn 0.000000 -0.100000 0.000000
vn 0.000000 -0.100000 0.000000
vn 0.000000 -0.100000 0.000000
vn 0.000000 -0.100000 0.000000
vn 0.000000 -0.100000 0.000000
vn 0.000000 -0.100000 0.000000
vn 0.000000 -0.100000 0.000000
vn 0.000000 -0.100000 0.000000
vn 0.000000 -0.100000 0.000000
vn 0.000000 -0.100000 0.000000
vn 0.000000 -0.100000 0.000000
vn 0.000000 -0.100000 0.000000
vn 0.000000 -0.100000 0.000000
vn 0.000000 -0.100000 0.000000
vn 0.000000 -0.100000 0.000000
vn 0.000000 -0.100000 0.000000
vn 0.000000 -0.100000 0.000000
vn 0.000000 -0.100000 0.000000
vn 0.000000 -0.100000 0.000000
vn 0.000000 -0.100000 0.000000
vn 0.000000 -0.100000 0.000000
vn 0.000000 -0.100000 0.000000
vn 0.000000 -0.100000 0.000000
vn 0.000000 -0.100000 0.000000
vn 0.000000 -0.100000 0.000000
vn 0.000000 -0.100000 0.000000
vn 0.000000 -0.100000 0.000000
vn 0.000000 -0.100000 0.000000
vn 0.000000 -0.100000 0.000000
vn 0.000000 -0.100000 0.000000
vn 0.000000 -0.100000 0.000000
vn 0.000000 -0.100000 0.000000
vn 0.000000 -0.100000 0.000000
usemtl Paint_-_Enamel_Glossy_(Green)
f 2/1/1 40/2/2 1/3/3
f 1/4/3 40/5/2 41/6/4
f 1/4/3 41/6/4 42/7/5
f 3/8/6 106/9/7 2/1/1
f 2/1/1 106/9/7 39/10/8
f 2/1/1 39/10/8 40/2/2
f 4/11/9 104/12/10 3/8/6
f 3/8/6 104/12/10 105/13/11
f 3/8/6 105/13/11 106/9/7
f 104/12/10 4/11/9 103/14/12
f 103/14/12 4/11/9 5/15/13
f 103/14/12 5/15/13 102/16/14
f 102/16/14 5/15/13 101/17/15
f 101/17/15 5/15/13 6/18/16
f 101/17/15 6/18/16 100/19/17
f 100/19/17 6/18/16 99/20/18
f 99/20/18 6/18/16 7/21/19
f 99/20/18 7/21/19 98/22/20
f 98/22/20 7/21/19 97/23/21
f 97/23/21 7/21/19 8/24/22
f 97/23/21 8/24/22 96/25/23
f 96/25/23 8/24/22 95/26/24
f 95/26/24 8/24/22 9/27/25
f 95/26/24 9/27/25 94/28/26
f 94/28/26 9/27/25 93/29/27
f 93/29/27 9/27/25 10/30/28
f 93/29/27 10/30/28 92/31/29
f 92/31/29 10/30/28 11/32/30
f 92/31/29 11/32/30 91/33/31
f 91/33/31 11/32/30 90/34/32
f 90/34/32 11/32/30 12/35/33
f 90/34/32 12/35/33 89/36/34
f 89/36/34 12/35/33 88/37/35
f 88/37/35 12/35/33 13/38/36
f 88/37/35 13/38/36 87/39/37
f 87/39/37 13/38/36 86/40/38
f 86/40/38 13/38/36 14/41/39
f 86/40/38 14/41/39 85/42/40
f 85/42/40 14/41/39 84/43/41
f 84/43/41 14/41/39 15/44/42
f 84/43/41 15/44/42 83/45/43
f 83/45/43 15/44/42 16/46/44
f 83/45/43 16/46/44 82/47/45
f 82/47/45 16/46/44 81/48/46
f 81/48/46 16/46/44 17/49/47
f 81/48/46 17/49/47 80/50/48
f 80/50/48 17/49/47 79/51/49
f 79/51/49 17/49/47 18/52/50
f 79/51/49 18/52/50 78/53/51
f 78/53/51 18/52/50 77/54/52
f 77/54/52 18/52/50 19/55/53
f 77/54/52 19/55/53 76/56/54
f 76/56/54 19/55/53 20/57/55
f 76/56/54 20/57/55 75/58/56
f 75/58/56 20/57/55 74/59/57
f 74/59/57 20/57/55 21/60/58
f 74/59/57 21/60/58 73/61/59
f 73/61/59 21/60/58 72/62/60
f 72/62/60 21/60/58 22/63/61
f 72/62/60 22/63/61 71/64/62
f 71/64/62 22/63/61 70/65/63
f 70/65/63 22/63/61 23/66/64
f 70/65/63 23/66/64 69/67/65
f 69/67/65 23/66/64 68/68/66
f 68/68/66 23/66/64 24/69/67
f 68/68/66 24/69/67 67/70/68
f 67/70/68 24/69/67 25/71/69
f 67/70/68 25/71/69 66/72/70
f 66/72/70 25/71/69 65/73/71
f 65/73/71 25/71/69 26/74/72
f 65/73/71 26/74/72 64/75/73
f 64/75/73 26/74/72 63/76/74
f 63/76/74 26/74/72 27/77/75
f 63/76/74 27/77/75 62/78/76
f 62/78/76 27/77/75 61/79/77
f 61/79/77 27/77/75 28/80/78
f 61/79/77 28/80/78 60/81/79
f 60/81/79 28/80/78 59/82/80
f 59/82/80 28/80/78 29/83/81
f 59/82/80 29/83/81 58/84/82
f 58/84/82 29/83/81 30/85/83
f 58/84/82 30/85/83 57/86/84
f 57/86/84 30/85/83 56/87/85
f 56/87/85 30/85/83 31/88/86
f 56/87/85 31/88/86 55/89/87
f 55/89/87 31/88/86 54/90/88
f 54/90/88 31/88/86 32/91/89
f 54/90/88 32/91/89 53/92/90
f 53/92/90 32/91/89 52/93/91
f 52/93/91 32/91/89 33/94/92
f 52/93/91 33/94/92 51/95/93
f 51/95/93 33/94/92 50/96/94
f 50/96/94 33/94/92 34/97/95
f 50/96/94 34/97/95 49/98/96
f 49/98/96 34/97/95 35/99/97
f 49/98/96 35/99/97 48/100/98
f 48/100/98 35/99/97 47/101/99
f 47/101/99 35/99/97 36/102/100
f 47/101/99 36/102/100 46/103/101
f 46/103/101 36/102/100 45/104/102
f 45/104/102 36/102/100 37/105/103
f 45/104/102 37/105/103 44/106/104
f 44/106/104 37/105/103 43/107/105
f 43/107/105 37/105/103 38/108/106
f 43/107/105 38/108/106 42/7/5
f 42/7/5 38/108/106 1/4/3
f 38/109/107 21/110/108 1/111/109
f 1/111/109 21/110/108 20/112/110
f 1/111/109 20/112/110 2/113/111
f 2/113/111 20/112/110 19/114/112
f 2/113/111 19/114/112 3/115/113
f 3/115/113 19/114/112 18/116/114
f 3/115/113 18/116/114 4/117/115
f 4/117/115 18/116/114 17/118/116
f 4/117/115 17/118/116 5/119/117
f 5/119/117 17/118/116 16/120/118
f 5/119/117 16/120/118 6/121/119
f 6/121/119 16/120/118 15/122/120
f 6/121/119 15/122/120 7/123/121
f 7/123/121 15/122/120 14/124/122
f 7/123/121 14/124/122 8/125/123
f 8/125/123 14/124/122 13/126/124
f 8/125/123 13/126/124 9/127/125
f 9/127/125 13/126/124 12/128/126
f 9/127/125 12/128/126 10/129/127
f 10/129/127 12/128/126 11/130/128
f 21/110/108 38/109/107 22/131/129
f 22/131/129 38/109/107 37/132/130
f 22/131/129 37/132/130 23/133/131
f 23/133/131 37/132/130 36/134/132
f 23/133/131 36/134/132 24/135/133
f 24/135/133 36/134/132 35/136/134
f 24/135/133 35/136/134 25/137/135
f 25/137/135 35/136/134 34/138/136
f 25/137/135 34/138/136 26/139/137
f 26/139/137 34/138/136 33/140/138
f 26/139/137 33/140/138 27/141/139
f 27/141/139 33/140/138 32/142/140
f 27/141/139 32/142/140 28/143/141
f 28/143/141 32/142/140 31/144/142
f 28/143/141 31/144/142 29/145/143
f 29/145/143 31/144/142 30/146/144
# 106 vertices
# 146 texture params
# 144 normals
# 142 facets

# 1 groups
