# WaveFront *.obj file (generated by Autodesk ATF)

mtllib _ZDOplus v105_LED2_ZDOplus v105.mtl

g LED2

v -1.500000 -9.400000 -11.800000
v 1.500000 -9.400000 -11.800000
v 1.500000 -12.311139 -11.800000
v -1.500000 -12.311139 -11.800000
v -1.700000 -9.400000 -11.746410
v -1.846410 -9.400000 -11.600000
v -1.900000 -9.400000 -11.400000
v -1.846410 -9.400000 -11.200000
v -1.700000 -9.400000 -11.053590
v -1.500000 -9.400000 -11.000000
v 1.500000 -9.400000 -11.000000
v 1.700000 -9.400000 -11.053590
v 1.846410 -9.400000 -11.200000
v 1.900000 -9.400000 -11.400000
v 1.846410 -9.400000 -11.600000
v 1.700000 -9.400000 -11.746410
v 1.500000 -12.407365 -11.000000
v 1.653525 -12.403707 -11.030636
v 1.783293 -12.393312 -11.117609
v 1.869742 -12.377767 -11.247386
v 1.900000 -12.359436 -11.400014
v 1.869733 -12.341051 -11.552636
v 1.783285 -12.325377 -11.682399
v 1.653523 -12.314851 -11.769365
v -1.500000 -12.407365 -11.000000
v -1.653525 -12.403707 -11.030636
v -1.783293 -12.393312 -11.117609
v -1.869742 -12.377767 -11.247386
v -1.900000 -12.359436 -11.400014
v -1.869733 -12.341051 -11.552636
v -1.783285 -12.325377 -11.682399
v -1.653523 -12.314851 -11.769365
vt 0.000000 -0.940000 0.000000
vt -0.300000 -0.940000 0.000000
vt 0.000000 -1.231114 0.000000
vt -0.300000 -1.231114 0.000000
vt 0.170000 1.174641 0.000000
vt 0.150000 1.180000 0.000000
vt 0.184641 1.160000 0.000000
vt -0.150000 1.180000 0.000000
vt -0.184641 1.160000 0.000000
vt -0.170000 1.174641 0.000000
vt 0.190000 1.140000 0.000000
vt -0.190000 1.140000 0.000000
vt 0.184641 1.120000 0.000000
vt -0.184641 1.120000 0.000000
vt 0.150000 1.100000 0.000000
vt -0.150000 1.100000 0.000000
vt -0.170000 1.105359 0.000000
vt 0.170000 1.105359 0.000000
vt -1.231114 0.062832 0.000000
vt -0.940000 0.062832 0.000000
vt -1.231485 0.078588 0.000000
vt -0.940000 0.083776 0.000000
vt -1.232538 0.094310 0.000000
vt -0.940000 0.104720 0.000000
vt -1.234105 0.110003 0.000000
vt -0.940000 0.125664 0.000000
vt -1.235944 0.125662 0.000000
vt -1.237777 0.141322 0.000000
vt -0.940000 0.146608 0.000000
vt -1.239331 0.157016 0.000000
vt -0.940000 0.167552 0.000000
vt -1.240371 0.172739 0.000000
vt -0.940000 0.188496 0.000000
vt -1.240736 0.188496 0.000000
vt 0.250000 -63.870788 0.000000
vt 0.550000 -63.870788 0.000000
vt 0.234647 -63.867703 0.000000
vt 0.565353 -63.867703 0.000000
vt 0.221671 -63.858943 0.000000
vt 0.578329 -63.858943 0.000000
vt 0.213026 -63.845873 0.000000
vt 0.586974 -63.845873 0.000000
vt 0.210000 -63.830500 0.000000
vt 0.590000 -63.830500 0.000000
vt 0.213027 -63.815128 0.000000
vt 0.586973 -63.815128 0.000000
vt 0.221671 -63.802057 0.000000
vt 0.578329 -63.802057 0.000000
vt 0.234648 -63.793297 0.000000
vt 0.565352 -63.793297 0.000000
vt 0.250000 -63.790211 0.000000
vt 0.550000 -63.790211 0.000000
vt 0.000000 -0.940000 0.000000
vt -0.300000 -0.940000 0.000000
vt -0.000000 -1.240736 0.000000
vt -0.300000 -1.240736 0.000000
vt -1.240736 -0.062832 0.000000
vt -0.940000 -0.062832 0.000000
vt -1.240371 -0.047075 0.000000
vt -0.940000 -0.041888 0.000000
vt -1.239331 -0.031352 0.000000
vt -0.940000 -0.020944 0.000000
vt -1.237777 -0.015658 0.000000
vt -0.940000 -0.000000 0.000000
vt -1.235944 0.000001 0.000000
vt -1.234105 0.015661 0.000000
vt -0.940000 0.020944 0.000000
vt -1.232538 0.031353 0.000000
vt -0.940000 0.041888 0.000000
vt -1.231485 0.047075 0.000000
vt -0.940000 0.062832 0.000000
vt -1.231114 0.062832 0.000000
vn 0.000000 -0.000000 -0.100000
vn 0.000000 -0.000000 -0.100000
vn 0.000000 -0.000000 -0.100000
vn 0.000000 -0.000000 -0.100000
vn 0.000000 0.100000 -0.000000
vn 0.000000 0.100000 -0.000000
vn 0.000000 0.100000 -0.000000
vn 0.000000 0.100000 -0.000000
vn 0.000000 0.100000 -0.000000
vn 0.000000 0.100000 -0.000000
vn 0.000000 0.100000 -0.000000
vn 0.000000 0.100000 -0.000000
vn 0.000000 0.100000 -0.000000
vn 0.000000 0.100000 -0.000000
vn 0.000000 0.100000 -0.000000
vn 0.000000 0.100000 -0.000000
vn 0.000000 0.100000 -0.000000
vn 0.000000 0.100000 -0.000000
vn 0.000000 -0.000000 -0.100000
vn 0.038381 -0.000000 -0.092341
vn 0.050000 -0.000000 -0.086603
vn 0.070821 -0.000000 -0.070600
vn 0.086603 -0.000000 -0.050000
vn 0.092433 -0.000000 -0.038159
vn 0.100000 0.000000 0.000000
vn 0.100000 -0.000000 -0.000004
vn 0.092435 0.000000 0.038154
vn 0.086603 0.000000 0.050000
vn 0.070823 0.000000 0.070598
vn 0.050000 0.000000 0.086603
vn 0.038381 0.000000 0.092341
vn 0.000000 0.000000 0.100000
vn -0.000000 0.000000 0.100000
vn 0.000000 -0.099295 -0.011851
vn 0.000000 -0.099295 -0.011851
vn 0.000000 -0.099294 -0.011858
vn 0.000000 -0.099294 -0.011858
vn 0.000000 -0.099292 -0.011878
vn 0.000000 -0.099292 -0.011878
vn 0.000000 -0.099289 -0.011907
vn 0.000000 -0.099289 -0.011907
vn 0.000000 -0.099284 -0.011942
vn 0.000000 -0.099284 -0.011942
vn 0.000000 -0.099280 -0.011977
vn 0.000000 -0.099280 -0.011977
vn 0.000000 -0.099277 -0.012006
vn 0.000000 -0.099277 -0.012006
vn 0.000000 -0.099274 -0.012026
vn 0.000000 -0.099274 -0.012026
vn 0.000000 -0.099273 -0.012033
vn 0.000000 -0.099273 -0.012033
vn 0.000000 0.000000 0.100000
vn 0.000000 0.000000 0.100000
vn 0.000000 0.000000 0.100000
vn -0.038381 0.000000 0.092341
vn -0.050000 0.000000 0.086603
vn -0.070823 0.000000 0.070598
vn -0.086603 0.000000 0.050000
vn -0.092435 0.000000 0.038154
vn -0.100000 0.000000 0.000000
vn -0.100000 -0.000000 -0.000004
vn -0.092433 -0.000000 -0.038159
vn -0.086603 -0.000000 -0.050000
vn -0.070821 -0.000000 -0.070600
vn -0.050000 -0.000000 -0.086603
vn -0.038381 -0.000000 -0.092341
vn -0.000000 -0.000000 -0.100000
usemtl Steel_-_Satin
f 1/1/1 2/2/2 4/3/3
f 4/3/3 2/2/2 3/4/4
f 16/5/5 2/6/6 15/7/7
f 15/7/7 2/6/6 1/8/8
f 15/7/7 1/8/8 6/9/9
f 6/9/9 1/8/8 5/10/10
f 15/7/7 6/9/9 14/11/11
f 14/11/11 6/9/9 7/12/12
f 14/11/11 7/12/12 13/13/13
f 13/13/13 7/12/12 8/14/14
f 13/13/13 8/14/14 11/15/15
f 11/15/15 8/14/14 10/16/16
f 10/16/16 8/14/14 9/17/17
f 11/15/15 12/18/18 13/13/13
f 3/19/19 2/20/2 24/21/20
f 24/21/20 2/20/2 16/22/21
f 24/21/20 16/22/21 23/23/22
f 23/23/22 16/22/21 15/24/23
f 23/23/22 15/24/23 22/25/24
f 22/25/24 15/24/23 14/26/25
f 22/25/24 14/26/25 21/27/26
f 21/27/26 14/26/25 20/28/27
f 20/28/27 14/26/25 13/29/28
f 20/28/27 13/29/28 19/30/29
f 19/30/29 13/29/28 12/31/30
f 19/30/29 12/31/30 18/32/31
f 18/32/31 12/31/30 11/33/32
f 18/32/31 11/33/32 17/34/33
f 17/35/34 25/36/35 18/37/36
f 18/37/36 25/36/35 26/38/37
f 18/37/36 26/38/37 19/39/38
f 19/39/38 26/38/37 27/40/39
f 19/39/38 27/40/39 20/41/40
f 20/41/40 27/40/39 28/42/41
f 20/41/40 28/42/41 21/43/42
f 21/43/42 28/42/41 29/44/43
f 21/43/42 29/44/43 22/45/44
f 22/45/44 29/44/43 30/46/45
f 22/45/44 30/46/45 23/47/46
f 23/47/46 30/46/45 31/48/47
f 23/47/46 31/48/47 24/49/48
f 24/49/48 31/48/47 32/50/49
f 24/49/48 32/50/49 3/51/50
f 3/51/50 32/50/49 4/52/51
f 11/53/32 10/54/52 17/55/53
f 17/55/53 10/54/52 25/56/54
f 25/57/54 10/58/52 26/59/55
f 26/59/55 10/58/52 9/60/56
f 26/59/55 9/60/56 27/61/57
f 27/61/57 9/60/56 8/62/58
f 27/61/57 8/62/58 28/63/59
f 28/63/59 8/62/58 7/64/60
f 28/63/59 7/64/60 29/65/61
f 29/65/61 7/64/60 30/66/62
f 30/66/62 7/64/60 6/67/63
f 30/66/62 6/67/63 31/68/64
f 31/68/64 6/67/63 5/69/65
f 31/68/64 5/69/65 32/70/66
f 32/70/66 5/69/65 1/71/1
f 32/70/66 1/71/1 4/72/67
# 32 vertices
# 72 texture params
# 67 normals
# 60 facets

# 1 groups
