# WaveFront *.obj file (generated by Autodesk ATF)

mtllib _ZDOplus v105_LED3_ZDOplus v105.mtl

g LED3

v -1.500000 -9.400000 -5.800000
v 1.500000 -9.400000 -5.800000
v 1.500000 -12.996651 -5.800000
v -1.500000 -12.996651 -5.800000
v -1.700000 -9.400000 -5.746410
v -1.846410 -9.400000 -5.600000
v -1.900000 -9.400000 -5.400000
v -1.846410 -9.400000 -5.200000
v -1.700000 -9.400000 -5.053590
v -1.500000 -9.400000 -5.000000
v 1.500000 -9.400000 -5.000000
v 1.700000 -9.400000 -5.053590
v 1.846410 -9.400000 -5.200000
v 1.900000 -9.400000 -5.400000
v 1.846410 -9.400000 -5.600000
v 1.700000 -9.400000 -5.746410
v 1.500000 -13.081754 -5.000000
v 1.653427 -13.078527 -5.030595
v 1.783196 -13.069346 -5.117511
v 1.869701 -13.055606 -5.247288
v 1.900000 -13.039386 -5.400013
v 1.869693 -13.023113 -5.552732
v 1.783189 -13.009244 -5.682496
v 1.653425 -12.999933 -5.769406
v -1.500000 -13.081754 -5.000000
v -1.653427 -13.078527 -5.030595
v -1.783196 -13.069346 -5.117511
v -1.869701 -13.055606 -5.247288
v -1.900000 -13.039386 -5.400013
v -1.869693 -13.023113 -5.552732
v -1.783189 -13.009244 -5.682496
v -1.653425 -12.999933 -5.769406
vt 0.000000 -0.940000 0.000000
vt -0.300000 -0.940000 0.000000
vt 0.000000 -1.299665 0.000000
vt -0.300000 -1.299665 0.000000
vt 0.170000 0.574641 0.000000
vt 0.150000 0.580000 0.000000
vt 0.184641 0.560000 0.000000
vt -0.150000 0.580000 0.000000
vt -0.184641 0.560000 0.000000
vt -0.170000 0.574641 0.000000
vt 0.190000 0.540000 0.000000
vt -0.190000 0.540000 0.000000
vt 0.184641 0.520000 0.000000
vt -0.184641 0.520000 0.000000
vt 0.150000 0.500000 0.000000
vt -0.150000 0.500000 0.000000
vt -0.170000 0.505359 0.000000
vt 0.170000 0.505359 0.000000
vt -1.299665 0.062832 0.000000
vt -0.940000 0.062832 0.000000
vt -1.299993 0.078578 0.000000
vt -0.940000 0.083776 0.000000
vt -1.300924 0.094297 0.000000
vt -0.940000 0.104720 0.000000
vt -1.302311 0.109993 0.000000
vt -0.940000 0.125664 0.000000
vt -1.303939 0.125662 0.000000
vt -1.305561 0.141333 0.000000
vt -0.940000 0.146608 0.000000
vt -1.306935 0.157030 0.000000
vt -0.940000 0.167552 0.000000
vt -1.307853 0.172749 0.000000
vt -0.940000 0.188496 0.000000
vt -1.308175 0.188496 0.000000
vt 0.250000 -64.474571 0.000000
vt 0.550000 -64.474571 0.000000
vt 0.234657 -64.471494 0.000000
vt 0.565343 -64.471494 0.000000
vt 0.221680 -64.462754 0.000000
vt 0.578320 -64.462754 0.000000
vt 0.213030 -64.449704 0.000000
vt 0.586970 -64.449704 0.000000
vt 0.210000 -64.434346 0.000000
vt 0.590000 -64.434346 0.000000
vt 0.213031 -64.418987 0.000000
vt 0.586969 -64.418987 0.000000
vt 0.221681 -64.405937 0.000000
vt 0.578319 -64.405937 0.000000
vt 0.234657 -64.397196 0.000000
vt 0.565343 -64.397196 0.000000
vt 0.250000 -64.394119 0.000000
vt 0.550000 -64.394119 0.000000
vt 0.000000 -0.940000 0.000000
vt -0.300000 -0.940000 0.000000
vt -0.000000 -1.308175 0.000000
vt -0.300000 -1.308175 0.000000
vt -1.308175 -0.062832 0.000000
vt -0.940000 -0.062832 0.000000
vt -1.307853 -0.047086 0.000000
vt -0.940000 -0.041888 0.000000
vt -1.306935 -0.031366 0.000000
vt -0.940000 -0.020944 0.000000
vt -1.305561 -0.015669 0.000000
vt -0.940000 0.000000 0.000000
vt -1.303939 0.000001 0.000000
vt -1.302311 0.015671 0.000000
vt -0.940000 0.020944 0.000000
vt -1.300924 0.031367 0.000000
vt -0.940000 0.041888 0.000000
vt -1.299993 0.047086 0.000000
vt -0.940000 0.062832 0.000000
vt -1.299665 0.062832 0.000000
vn 0.000000 -0.000000 -0.100000
vn 0.000000 -0.000000 -0.100000
vn 0.000000 -0.000000 -0.100000
vn 0.000000 -0.000000 -0.100000
vn 0.000000 0.100000 -0.000000
vn 0.000000 0.100000 -0.000000
vn 0.000000 0.100000 -0.000000
vn 0.000000 0.100000 -0.000000
vn 0.000000 0.100000 -0.000000
vn 0.000000 0.100000 -0.000000
vn 0.000000 0.100000 -0.000000
vn 0.000000 0.100000 -0.000000
vn 0.000000 0.100000 -0.000000
vn 0.000000 0.100000 -0.000000
vn 0.000000 0.100000 -0.000000
vn 0.000000 0.100000 -0.000000
vn 0.000000 0.100000 -0.000000
vn 0.000000 0.100000 -0.000000
vn 0.000000 -0.000000 -0.100000
vn 0.038356 -0.000000 -0.092351
vn 0.050000 -0.000000 -0.086603
vn 0.070797 -0.000000 -0.070624
vn 0.086603 -0.000000 -0.050000
vn 0.092423 -0.000000 -0.038183
vn 0.100000 -0.000000 -0.000000
vn 0.100000 -0.000000 -0.000003
vn 0.092425 0.000000 0.038178
vn 0.086603 0.000000 0.050000
vn 0.070799 0.000000 0.070622
vn 0.050000 0.000000 0.086603
vn 0.038357 0.000000 0.092351
vn 0.000000 0.000000 0.100000
vn -0.000000 0.000000 0.100000
vn 0.000000 -0.099449 -0.010487
vn 0.000000 -0.099449 -0.010487
vn 0.000000 -0.099448 -0.010494
vn 0.000000 -0.099448 -0.010494
vn 0.000000 -0.099446 -0.010514
vn 0.000000 -0.099446 -0.010514
vn 0.000000 -0.099443 -0.010543
vn 0.000000 -0.099443 -0.010543
vn 0.000000 -0.099439 -0.010578
vn 0.000000 -0.099439 -0.010578
vn 0.000000 -0.099435 -0.010613
vn 0.000000 -0.099435 -0.010613
vn 0.000000 -0.099432 -0.010642
vn 0.000000 -0.099432 -0.010642
vn 0.000000 -0.099430 -0.010662
vn 0.000000 -0.099430 -0.010662
vn 0.000000 -0.099429 -0.010669
vn 0.000000 -0.099429 -0.010669
vn 0.000000 0.000000 0.100000
vn 0.000000 0.000000 0.100000
vn 0.000000 0.000000 0.100000
vn 0.000000 0.000000 0.100000
vn -0.038357 0.000000 0.092351
vn -0.050000 0.000000 0.086603
vn -0.070799 0.000000 0.070622
vn -0.086603 0.000000 0.050000
vn -0.092425 0.000000 0.038178
vn -0.100000 -0.000000 -0.000000
vn -0.100000 -0.000000 -0.000003
vn -0.092423 -0.000000 -0.038183
vn -0.086603 -0.000000 -0.050000
vn -0.070797 -0.000000 -0.070624
vn -0.050000 -0.000000 -0.086603
vn -0.038356 -0.000000 -0.092351
vn -0.000000 -0.000000 -0.100000
usemtl Steel_-_Satin
f 1/1/1 2/2/2 4/3/3
f 4/3/3 2/2/2 3/4/4
f 16/5/5 2/6/6 15/7/7
f 15/7/7 2/6/6 1/8/8
f 15/7/7 1/8/8 6/9/9
f 6/9/9 1/8/8 5/10/10
f 15/7/7 6/9/9 14/11/11
f 14/11/11 6/9/9 7/12/12
f 14/11/11 7/12/12 13/13/13
f 13/13/13 7/12/12 8/14/14
f 13/13/13 8/14/14 11/15/15
f 11/15/15 8/14/14 10/16/16
f 10/16/16 8/14/14 9/17/17
f 11/15/15 12/18/18 13/13/13
f 3/19/19 2/20/2 24/21/20
f 24/21/20 2/20/2 16/22/21
f 24/21/20 16/22/21 23/23/22
f 23/23/22 16/22/21 15/24/23
f 23/23/22 15/24/23 22/25/24
f 22/25/24 15/24/23 14/26/25
f 22/25/24 14/26/25 21/27/26
f 21/27/26 14/26/25 20/28/27
f 20/28/27 14/26/25 13/29/28
f 20/28/27 13/29/28 19/30/29
f 19/30/29 13/29/28 12/31/30
f 19/30/29 12/31/30 18/32/31
f 18/32/31 12/31/30 11/33/32
f 18/32/31 11/33/32 17/34/33
f 17/35/34 25/36/35 18/37/36
f 18/37/36 25/36/35 26/38/37
f 18/37/36 26/38/37 19/39/38
f 19/39/38 26/38/37 27/40/39
f 19/39/38 27/40/39 20/41/40
f 20/41/40 27/40/39 28/42/41
f 20/41/40 28/42/41 21/43/42
f 21/43/42 28/42/41 29/44/43
f 21/43/42 29/44/43 22/45/44
f 22/45/44 29/44/43 30/46/45
f 22/45/44 30/46/45 23/47/46
f 23/47/46 30/46/45 31/48/47
f 23/47/46 31/48/47 24/49/48
f 24/49/48 31/48/47 32/50/49
f 24/49/48 32/50/49 3/51/50
f 3/51/50 32/50/49 4/52/51
f 11/53/32 10/54/52 17/55/53
f 17/55/53 10/54/52 25/56/54
f 25/57/55 10/58/52 26/59/56
f 26/59/56 10/58/52 9/60/57
f 26/59/56 9/60/57 27/61/58
f 27/61/58 9/60/57 8/62/59
f 27/61/58 8/62/59 28/63/60
f 28/63/60 8/62/59 7/64/61
f 28/63/60 7/64/61 29/65/62
f 29/65/62 7/64/61 30/66/63
f 30/66/63 7/64/61 6/67/64
f 30/66/63 6/67/64 31/68/65
f 31/68/65 6/67/64 5/69/66
f 31/68/65 5/69/66 32/70/67
f 32/70/67 5/69/66 1/71/1
f 32/70/67 1/71/1 4/72/68
# 32 vertices
# 72 texture params
# 68 normals
# 60 facets

# 1 groups
