# WaveFront *.obj file (generated by Autodesk ATF)

mtllib _ZDOplus v105_LED4_ZDOplus v105.mtl

g LED4

v -1.500000 -9.400000 -8.800000
v 1.500000 -9.400000 -8.800000
v 1.500000 -12.664326 -8.800000
v -1.500000 -12.664326 -8.800000
v -1.700000 -9.400000 -8.746410
v -1.846410 -9.400000 -8.600000
v -1.900000 -9.400000 -8.400000
v -1.846410 -9.400000 -8.200000
v -1.700000 -9.400000 -8.053590
v -1.500000 -9.400000 -8.000000
v 1.500000 -9.400000 -8.000000
v 1.700000 -9.400000 -8.053590
v 1.846410 -9.400000 -8.200000
v 1.900000 -9.400000 -8.400000
v 1.846410 -9.400000 -8.600000
v 1.700000 -9.400000 -8.746410
v 1.500000 -12.754984 -8.000000
v 1.653475 -12.751542 -8.030615
v 1.783243 -12.741755 -8.117558
v 1.869721 -12.727114 -8.247335
v 1.900000 -12.709839 -8.400013
v 1.869712 -12.692511 -8.552685
v 1.783236 -12.677740 -8.682449
v 1.653472 -12.667823 -8.769386
v -1.500000 -12.754984 -8.000000
v -1.653475 -12.751542 -8.030615
v -1.783243 -12.741755 -8.117558
v -1.869721 -12.727114 -8.247335
v -1.900000 -12.709839 -8.400013
v -1.869712 -12.692511 -8.552685
v -1.783236 -12.677740 -8.682449
v -1.653472 -12.667823 -8.769386
vt 0.000000 -0.940000 0.000000
vt -0.300000 -0.940000 0.000000
vt 0.000000 -1.266433 0.000000
vt -0.300000 -1.266433 0.000000
vt 0.170000 0.874641 0.000000
vt 0.150000 0.880000 0.000000
vt 0.184641 0.860000 0.000000
vt -0.150000 0.880000 0.000000
vt -0.184641 0.860000 0.000000
vt -0.170000 0.874641 0.000000
vt 0.190000 0.840000 0.000000
vt -0.190000 0.840000 0.000000
vt 0.184641 0.820000 0.000000
vt -0.184641 0.820000 0.000000
vt 0.150000 0.800000 0.000000
vt -0.150000 0.800000 0.000000
vt -0.170000 0.805359 0.000000
vt 0.170000 0.805359 0.000000
vt -1.266433 0.062832 0.000000
vt -0.940000 0.062832 0.000000
vt -1.266782 0.078583 0.000000
vt -0.940000 0.083776 0.000000
vt -1.267774 0.094303 0.000000
vt -0.940000 0.104720 0.000000
vt -1.269251 0.109998 0.000000
vt -0.940000 0.125664 0.000000
vt -1.270984 0.125662 0.000000
vt -1.272711 0.141327 0.000000
vt -0.940000 0.146608 0.000000
vt -1.274175 0.157023 0.000000
vt -0.940000 0.167552 0.000000
vt -1.275154 0.172744 0.000000
vt -0.940000 0.188496 0.000000
vt -1.275498 0.188496 0.000000
vt 0.250000 -64.172796 0.000000
vt 0.550000 -64.172796 0.000000
vt 0.234653 -64.169715 0.000000
vt 0.565347 -64.169715 0.000000
vt 0.221676 -64.160966 0.000000
vt 0.578324 -64.160966 0.000000
vt 0.213028 -64.147906 0.000000
vt 0.586972 -64.147906 0.000000
vt 0.210000 -64.132541 0.000000
vt 0.590000 -64.132541 0.000000
vt 0.213029 -64.117175 0.000000
vt 0.586971 -64.117175 0.000000
vt 0.221676 -64.104115 0.000000
vt 0.578324 -64.104115 0.000000
vt 0.234653 -64.095365 0.000000
vt 0.565347 -64.095365 0.000000
vt 0.250000 -64.092284 0.000000
vt 0.550000 -64.092284 0.000000
vt 0.000000 -0.940000 0.000000
vt -0.300000 -0.940000 0.000000
vt -0.000000 -1.275498 0.000000
vt -0.300000 -1.275498 0.000000
vt -1.275498 -0.062832 0.000000
vt -0.940000 -0.062832 0.000000
vt -1.275154 -0.047080 0.000000
vt -0.940000 -0.041888 0.000000
vt -1.274175 -0.031359 0.000000
vt -0.940000 -0.020944 0.000000
vt -1.272711 -0.015664 0.000000
vt -0.940000 0.000000 0.000000
vt -1.270984 0.000001 0.000000
vt -1.269251 0.015666 0.000000
vt -0.940000 0.020944 0.000000
vt -1.267774 0.031360 0.000000
vt -0.940000 0.041888 0.000000
vt -1.266782 0.047081 0.000000
vt -0.940000 0.062832 0.000000
vt -1.266433 0.062832 0.000000
vn 0.000000 -0.000000 -0.100000
vn 0.000000 -0.000000 -0.100000
vn 0.000000 -0.000000 -0.100000
vn 0.000000 -0.000000 -0.100000
vn 0.000000 0.100000 -0.000000
vn 0.000000 0.100000 -0.000000
vn 0.000000 0.100000 -0.000000
vn 0.000000 0.100000 -0.000000
vn 0.000000 0.100000 -0.000000
vn 0.000000 0.100000 -0.000000
vn 0.000000 0.100000 -0.000000
vn 0.000000 0.100000 -0.000000
vn 0.000000 0.100000 -0.000000
vn 0.000000 0.100000 -0.000000
vn 0.000000 0.100000 -0.000000
vn 0.000000 0.100000 -0.000000
vn 0.000000 0.100000 -0.000000
vn 0.000000 0.100000 -0.000000
vn 0.000000 -0.000000 -0.100000
vn 0.038368 -0.000000 -0.092347
vn 0.050000 -0.000000 -0.086603
vn 0.070809 -0.000000 -0.070612
vn 0.086603 -0.000000 -0.050000
vn 0.092428 -0.000000 -0.038171
vn 0.100000 -0.000000 -0.000000
vn 0.100000 -0.000000 -0.000003
vn 0.092430 0.000000 0.038166
vn 0.086603 0.000000 0.050000
vn 0.070811 0.000000 0.070610
vn 0.050000 0.000000 0.086603
vn 0.038369 0.000000 0.092346
vn 0.000000 0.000000 0.100000
vn -0.000000 0.000000 0.100000
vn 0.000000 -0.099374 -0.011169
vn 0.000000 -0.099374 -0.011169
vn 0.000000 -0.099374 -0.011176
vn 0.000000 -0.099374 -0.011176
vn 0.000000 -0.099371 -0.011196
vn 0.000000 -0.099371 -0.011196
vn 0.000000 -0.099368 -0.011225
vn 0.000000 -0.099368 -0.011225
vn 0.000000 -0.099364 -0.011260
vn 0.000000 -0.099364 -0.011260
vn 0.000000 -0.099360 -0.011295
vn 0.000000 -0.099360 -0.011295
vn 0.000000 -0.099357 -0.011324
vn 0.000000 -0.099357 -0.011324
vn 0.000000 -0.099354 -0.011344
vn 0.000000 -0.099354 -0.011344
vn 0.000000 -0.099354 -0.011351
vn 0.000000 -0.099354 -0.011351
vn 0.000000 0.000000 0.100000
vn 0.000000 0.000000 0.100000
vn 0.000000 0.000000 0.100000
vn 0.000000 0.000000 0.100000
vn -0.038369 0.000000 0.092346
vn -0.050000 0.000000 0.086603
vn -0.070811 0.000000 0.070610
vn -0.086603 0.000000 0.050000
vn -0.092430 0.000000 0.038166
vn -0.100000 -0.000000 -0.000000
vn -0.100000 -0.000000 -0.000003
vn -0.092428 -0.000000 -0.038171
vn -0.086603 -0.000000 -0.050000
vn -0.070809 -0.000000 -0.070612
vn -0.050000 -0.000000 -0.086603
vn -0.038368 -0.000000 -0.092347
vn -0.000000 -0.000000 -0.100000
usemtl Steel_-_Satin
f 1/1/1 2/2/2 4/3/3
f 4/3/3 2/2/2 3/4/4
f 16/5/5 2/6/6 15/7/7
f 15/7/7 2/6/6 1/8/8
f 15/7/7 1/8/8 6/9/9
f 6/9/9 1/8/8 5/10/10
f 15/7/7 6/9/9 14/11/11
f 14/11/11 6/9/9 7/12/12
f 14/11/11 7/12/12 13/13/13
f 13/13/13 7/12/12 8/14/14
f 13/13/13 8/14/14 11/15/15
f 11/15/15 8/14/14 10/16/16
f 10/16/16 8/14/14 9/17/17
f 11/15/15 12/18/18 13/13/13
f 3/19/19 2/20/2 24/21/20
f 24/21/20 2/20/2 16/22/21
f 24/21/20 16/22/21 23/23/22
f 23/23/22 16/22/21 15/24/23
f 23/23/22 15/24/23 22/25/24
f 22/25/24 15/24/23 14/26/25
f 22/25/24 14/26/25 21/27/26
f 21/27/26 14/26/25 20/28/27
f 20/28/27 14/26/25 13/29/28
f 20/28/27 13/29/28 19/30/29
f 19/30/29 13/29/28 12/31/30
f 19/30/29 12/31/30 18/32/31
f 18/32/31 12/31/30 11/33/32
f 18/32/31 11/33/32 17/34/33
f 17/35/34 25/36/35 18/37/36
f 18/37/36 25/36/35 26/38/37
f 18/37/36 26/38/37 19/39/38
f 19/39/38 26/38/37 27/40/39
f 19/39/38 27/40/39 20/41/40
f 20/41/40 27/40/39 28/42/41
f 20/41/40 28/42/41 21/43/42
f 21/43/42 28/42/41 29/44/43
f 21/43/42 29/44/43 22/45/44
f 22/45/44 29/44/43 30/46/45
f 22/45/44 30/46/45 23/47/46
f 23/47/46 30/46/45 31/48/47
f 23/47/46 31/48/47 24/49/48
f 24/49/48 31/48/47 32/50/49
f 24/49/48 32/50/49 3/51/50
f 3/51/50 32/50/49 4/52/51
f 11/53/32 10/54/52 17/55/53
f 17/55/53 10/54/52 25/56/54
f 25/57/55 10/58/52 26/59/56
f 26/59/56 10/58/52 9/60/57
f 26/59/56 9/60/57 27/61/58
f 27/61/58 9/60/57 8/62/59
f 27/61/58 8/62/59 28/63/60
f 28/63/60 8/62/59 7/64/61
f 28/63/60 7/64/61 29/65/62
f 29/65/62 7/64/61 30/66/63
f 30/66/63 7/64/61 6/67/64
f 30/66/63 6/67/64 31/68/65
f 31/68/65 6/67/64 5/69/66
f 31/68/65 5/69/66 32/70/67
f 32/70/67 5/69/66 1/71/1
f 32/70/67 1/71/1 4/72/68
# 32 vertices
# 72 texture params
# 68 normals
# 60 facets

# 1 groups
