# Blender 3.2.2
# www.blender.org
o DPadUpArrow
v -63.932751 -30.665831 37.839981
v -63.929115 -31.265718 37.802895
v -63.927906 -31.347137 37.874832
v -63.928879 -31.295424 37.806915
v -63.928566 -31.321327 37.821999
v -63.928226 -31.339487 37.845848
v -62.332390 -30.659542 37.895332
v -62.362679 -30.655399 37.825348
v -62.318146 -30.658325 37.877014
v -62.311565 -30.657232 37.860004
v -62.313103 -30.656343 37.845467
v -62.322651 -30.655716 37.834389
v -62.339561 -30.655396 37.827530
v -65.502831 -30.676262 37.854610
v -65.531746 -30.680798 37.925144
v -65.525902 -30.676563 37.857220
v -65.542671 -30.677109 37.864395
v -65.552002 -30.677860 37.875648
v -65.553261 -30.678768 37.890213
v -65.546356 -30.679770 37.907093
v -63.972923 -30.768078 39.489910
v -63.860493 -30.767334 39.488865
v -63.956333 -30.768768 39.502686
v -63.937077 -30.769142 39.510635
v -63.916477 -30.769176 39.513214
v -63.895927 -30.768869 39.510246
v -63.876831 -30.768242 39.501945
v -62.559944 -31.338051 37.862087
v -62.522991 -31.342989 37.945618
v -62.532143 -31.338041 37.864685
v -62.511765 -31.338423 37.872875
v -62.500198 -31.339170 37.886097
v -62.498238 -31.340231 37.903446
v -62.506008 -31.341534 37.923752
v -62.360115 -31.255295 37.788273
v -62.329498 -31.259483 37.859024
v -62.342934 -31.260365 37.792858
v -62.329727 -31.263880 37.801292
v -62.321400 -31.265602 37.813004
v -62.318523 -31.265413 37.827190
v -62.321285 -31.263325 37.842888
v -62.510170 -31.330637 37.841873
v -62.475075 -31.335520 37.924286
v -62.503937 -31.335947 37.853237
v -62.497261 -31.339670 37.866848
v -62.490604 -31.341549 37.881779
v -62.484417 -31.341455 37.897011
v -62.479122 -31.339401 37.911510
v -62.454430 -31.312311 37.820824
v -62.421021 -31.316994 37.899826
v -62.446671 -31.320415 37.830757
v -62.439171 -31.325878 37.843204
v -62.432442 -31.328327 37.857315
v -62.426945 -31.327591 37.872124
v -62.423046 -31.323727 37.886623
v -62.401718 -31.285856 37.802032
v -62.369816 -31.290285 37.876808
v -62.391766 -31.295597 37.810188
v -62.383003 -31.302071 37.821186
v -62.376034 -31.304832 37.834274
v -62.371330 -31.303692 37.848557
v -62.369205 -31.298729 37.863068
v -65.331184 -31.361645 37.971783
v -65.295860 -31.356224 37.887581
v -65.348587 -31.360418 37.950237
v -65.356750 -31.359221 37.930084
v -65.355133 -31.358139 37.912697
v -65.343826 -31.357237 37.899265
v -65.323608 -31.356586 37.890697
v -65.527344 -31.280727 37.888821
v -65.498108 -31.276142 37.817513
v -65.535812 -31.284683 37.872841
v -65.538834 -31.286808 37.857197
v -65.536217 -31.286961 37.842960
v -65.528137 -31.285130 37.831097
v -65.515137 -31.281439 37.822418
v -65.379585 -31.354816 37.951351
v -65.346092 -31.349478 37.868301
v -65.375732 -31.358644 37.938499
v -65.370674 -31.360632 37.923908
v -65.364769 -31.360643 37.908558
v -65.358414 -31.358679 37.893505
v -65.352051 -31.354870 37.879776
v -65.434326 -31.337011 37.927906
v -65.402458 -31.331896 37.848293
v -65.432457 -31.343719 37.914665
v -65.428780 -31.347536 37.900097
v -65.423553 -31.348196 37.885185
v -65.417114 -31.345663 37.870953
v -65.409920 -31.340103 37.858368
v -65.486298 -31.310991 37.905849
v -65.455864 -31.306145 37.830490
v -65.487053 -31.319445 37.892120
v -65.485138 -31.324379 37.877575
v -65.480682 -31.325457 37.863205
v -65.473999 -31.322607 37.849991
v -65.465530 -31.316019 37.838833
v -63.856598 -31.367201 39.451508
v -63.969543 -31.367952 39.452560
v -63.873009 -31.370829 39.462849
v -63.892193 -31.373165 39.470055
v -63.912834 -31.374058 39.472645
v -63.933533 -31.373440 39.470444
v -63.952877 -31.371359 39.463593
v -63.854195 -31.436890 39.333832
v -63.973209 -31.437681 39.334938
v -63.913803 -31.436651 39.324108
v -63.871494 -31.437851 39.347675
v -63.891705 -31.438517 39.356468
v -63.913460 -31.438843 39.359600
v -63.935268 -31.438808 39.356873
v -63.955650 -31.438410 39.348457
v -63.855949 -31.395441 39.431854
v -63.970181 -31.396200 39.432915
v -63.872566 -31.402185 39.439610
v -63.891975 -31.406487 39.444569
v -63.912853 -31.408049 39.446396
v -63.933784 -31.406765 39.444962
v -63.953339 -31.402723 39.440361
v -63.855083 -31.418587 39.402382
v -63.971287 -31.419359 39.403465
v -63.872025 -31.425039 39.406658
v -63.891788 -31.429157 39.409424
v -63.913040 -31.430658 39.410503
v -63.934322 -31.429438 39.409824
v -63.954193 -31.425585 39.407421
v -63.854340 -31.433134 39.367821
v -63.972481 -31.433918 39.368919
v -63.871601 -31.437262 39.369347
v -63.891727 -31.439919 39.370396
v -63.913338 -31.440924 39.370888
v -63.934967 -31.440207 39.370796
v -63.955143 -31.437815 39.370125
vn -0.0097 0.0616 -0.9981
vn 0.1963 -0.9729 0.1221
vn -0.7090 -0.0478 0.7036
vn -0.0042 -0.2803 -0.9599
vn -0.6393 -0.4688 0.6096
vn 0.0044 -0.9574 -0.2887
vn 0.0037 -0.7783 -0.6279
vn 0.0017 -0.5444 -0.8388
vn 0.4400 -0.8206 0.3647
vn -0.1810 -0.9754 0.1256
vn -0.4222 -0.8264 0.3727
vn -0.5559 -0.6524 0.5151
vn -0.0050 -0.7784 -0.6278
vn 0.0061 -0.9981 -0.0617
vn 0.5740 -0.6449 0.5046
vn 0.0029 -0.9574 -0.2886
vn 0.6567 -0.4601 0.5975
vn -0.0101 -0.5445 -0.8387
vn -0.0099 -0.2804 -0.9598
vn -0.1644 -0.9831 0.0806
vn -0.0638 -0.9977 -0.0211
vn -0.0083 -0.9906 -0.1366
vn 0.0189 -0.9904 -0.1368
vn 0.0766 -0.9968 -0.0225
vn 0.1789 -0.9808 0.0774
vn -0.0154 -0.9466 -0.3220
vn -0.0376 -0.9895 -0.1397
vn -0.1474 -0.9891 0.0032
vn -0.1486 -0.9889 0.0078
vn 0.0333 -0.9992 0.0240
vn 0.1867 -0.9727 0.1379
vn -0.3118 -0.8872 0.3402
vn -0.1690 -0.9427 0.2876
vn -0.0482 -0.9648 0.2586
vn 0.0658 -0.9640 0.2575
vn 0.1869 -0.9403 0.2843
vn 0.3298 -0.8829 0.3342
vn 0.0379 -0.8341 -0.5503
vn 0.0860 -0.9241 -0.3725
vn 0.1388 -0.9682 -0.2082
vn 0.2061 -0.9771 -0.0533
vn 0.2920 -0.9510 0.1017
vn 0.3931 -0.8797 0.2676
vn -0.4488 -0.7124 0.5395
vn -0.2564 -0.8010 0.5410
vn -0.0767 -0.8404 0.5366
vn 0.0979 -0.8392 0.5349
vn 0.2771 -0.7974 0.5360
vn 0.4682 -0.7063 0.5310
vn 0.0581 -0.6817 -0.7293
vn 0.1592 -0.8308 -0.5334
vn 0.2616 -0.9150 -0.3070
vn 0.3646 -0.9287 -0.0681
vn 0.4618 -0.8707 0.1692
vn 0.5402 -0.7450 0.3913
vn -0.5277 -0.4895 0.6942
vn -0.3133 -0.5690 0.7603
vn -0.0967 -0.6063 0.7894
vn 0.1194 -0.6048 0.7873
vn 0.3350 -0.5647 0.7542
vn 0.5470 -0.4824 0.6841
vn 0.1014 -0.5355 -0.8384
vn 0.2646 -0.7028 -0.6604
vn 0.4244 -0.8084 -0.4079
vn 0.5528 -0.8262 -0.1088
vn 0.6294 -0.7537 0.1893
vn 0.6520 -0.6138 0.4450
vn -0.1712 -0.9751 0.1412
vn -0.0196 -0.9995 0.0245
vn 0.1619 -0.9868 0.0049
vn 0.1606 -0.9870 0.0003
vn 0.0481 -0.9889 -0.1405
vn 0.0220 -0.9464 -0.3224
vn -0.3763 -0.8848 0.2748
vn -0.2774 -0.9548 0.1070
vn -0.1941 -0.9797 -0.0496
vn -0.1298 -0.9700 -0.2057
vn -0.0806 -0.9252 -0.3709
vn -0.0371 -0.8346 -0.5496
vn -0.5229 -0.7521 0.4012
vn -0.4470 -0.8767 0.1776
vn -0.3534 -0.9334 -0.0614
vn -0.2551 -0.9185 -0.3022
vn -0.1581 -0.8329 -0.5304
vn -0.0626 -0.6825 -0.7282
vn -0.6354 -0.6224 0.4570
vn -0.6157 -0.7620 0.2009
vn -0.5437 -0.8334 -0.0985
vn -0.4211 -0.8140 -0.4001
vn -0.2675 -0.7063 -0.6554
vn -0.1099 -0.5370 -0.8364
vn -0.5855 -0.0547 0.8088
vn -0.3608 -0.0632 0.9305
vn -0.1159 -0.0669 0.9910
vn 0.1352 -0.0652 0.9887
vn 0.3789 -0.0583 0.9236
vn 0.6012 -0.0469 0.7977
vn 0.1724 0.0584 -0.9833
vn 0.4570 0.0457 -0.8883
vn 0.7878 0.0232 -0.6155
vn 0.9884 -0.0042 -0.1521
vn 0.9611 -0.0232 0.2753
vn 0.8361 -0.0322 0.5476
vn -0.8253 -0.0432 0.5631
vn -0.9554 -0.0359 0.2931
vn -0.9909 -0.0174 -0.1336
vn -0.7993 0.0127 -0.6008
vn -0.4741 0.0395 -0.8796
vn -0.1914 0.0560 -0.9799
vn 0.7225 -0.0383 0.6903
vt 0.500000 0.000000
vt 0.500000 0.000000
vt 0.477538 0.044923
vt 0.500000 0.000000
vt 0.500000 0.000000
vt 0.486134 0.027732
vt 0.000000 0.041160
vt 0.029452 0.000000
vt 0.000335 0.031159
vt 0.001315 0.023145
vt 0.002875 0.004018
vt 0.016564 0.001838
vt 0.022296 0.000467
vt 0.970548 0.000000
vt 0.958840 0.041160
vt 0.977236 0.000467
vt 0.981598 0.001838
vt 0.993106 0.004018
vt 0.975539 0.023145
vt 0.968506 0.031159
vt 0.033696 0.966304
vt 0.000000 0.966304
vt 0.025004 0.974996
vt 0.016960 0.983040
vt 0.000000 1.000000
vt 0.000000 0.983040
vt 0.000000 0.974997
vt 0.067564 0.044923
vt 0.032166 0.094057
vt 0.058439 0.046526
vt 0.050007 0.051222
vt 0.035622 0.049720
vt 0.036670 0.069722
vt 0.033312 0.081399
vt 0.029775 0.000000
vt 0.000000 0.041613
vt 0.024122 0.000734
vt 0.019694 0.001431
vt 0.002817 0.003934
vt 0.001097 0.027428
vt 0.000549 0.033684
vt 0.058468 0.033144
vt 0.023957 0.081612
vt 0.053756 0.040442
vt 0.048616 0.048439
vt 0.028105 0.039251
vt 0.034535 0.067962
vt 0.029009 0.075083
vt 0.046318 0.016652
vt 0.012504 0.064558
vt 0.041562 0.022454
vt 0.036965 0.028198
vt 0.018424 0.025730
vt 0.020587 0.051437
vt 0.016568 0.057896
vt 0.037065 0.007369
vt 0.005497 0.051753
vt 0.031737 0.010699
vt 0.027064 0.013609
vt 0.009219 0.012875
vt 0.010075 0.037571
vt 0.007926 0.044231
vt 0.873777 0.094057
vt 0.887512 0.044923
vt 0.885289 0.081399
vt 0.893607 0.069722
vt 0.914658 0.049720
vt 0.898771 0.051222
vt 0.895036 0.046526
vt 0.958387 0.041613
vt 0.970225 0.000000
vt 0.965766 0.033684
vt 0.971474 0.027428
vt 0.993248 0.003934
vt 0.978875 0.001431
vt 0.975144 0.000734
vt 0.894431 0.081612
vt 0.908388 0.033144
vt 0.895908 0.075083
vt 0.897503 0.067962
vt 0.932644 0.039251
vt 0.902945 0.048439
vt 0.905801 0.040442
vt 0.922939 0.064558
vt 0.937030 0.016652
vt 0.925536 0.057896
vt 0.927977 0.051437
vt 0.955846 0.025730
vt 0.934838 0.028198
vt 0.935984 0.022454
vt 0.942749 0.051753
vt 0.955567 0.007369
vt 0.947843 0.044231
vt 0.952354 0.037571
vt 0.977906 0.012875
vt 0.959327 0.013609
vt 0.957564 0.010699
vt 0.000000 0.966149
vt 0.033851 0.966149
vt 0.000174 0.974381
vt 0.000391 0.982148
vt 0.000863 0.998275
vt 0.017461 0.982148
vt 0.025445 0.974381
vt 0.032166 0.900000
vt 0.065531 0.902244
vt 0.067834 0.900000
vt 0.053010 0.893979
vt 0.033303 0.908092
vt 0.036637 0.913355
vt 0.041941 0.915429
vt 0.032166 0.935668
vt 0.048852 0.914175
vt 0.050008 0.913355
vt 0.056898 0.909677
vt 0.058605 0.908092
vt 0.002657 0.960331
vt 0.037012 0.960331
vt 0.003554 0.967622
vt 0.004471 0.974859
vt 0.004562 0.990875
vt 0.020670 0.974859
vt 0.028824 0.967622
vt 0.006805 0.951282
vt 0.041914 0.951282
vt 0.010475 0.953549
vt 0.014491 0.955658
vt 0.014479 0.971041
vt 0.029851 0.955658
vt 0.035975 0.953549
vt 0.022447 0.919699
vt 0.057854 0.919699
vt 0.028006 0.918626
vt 0.034274 0.917383
vt 0.027274 0.945451
vt 0.048342 0.917383
vt 0.053368 0.918626
s 0
f 2/2/1 71/71/1 14/14/1 1/1/1
f 105/105/2 29/29/2 43/43/2 127/131/2
f 35/35/1 2/2/1 1/1/1 8/8/1
f 70/70/3 99/99/3 21/21/3 15/15/3
f 56/56/4 4/4/4 2/2/4 35/35/4
f 91/91/5 114/118/5 99/99/5 70/70/5
f 28/28/6 3/3/6 6/6/6 42/42/6
f 42/42/7 6/6/7 5/5/7 49/49/7
f 49/49/8 5/5/8 4/4/8 56/56/8
f 127/131/9 43/43/9 50/50/9 120/124/9
f 63/63/10 106/107/10 128/132/10 77/77/10
f 77/77/11 128/132/11 121/125/11 84/84/11
f 84/84/12 121/125/12 114/118/12 91/91/12
f 6/6/13 78/78/13 85/85/13 5/5/13
f 28/28/14 30/30/14 31/31/14 32/32/14 33/33/14 34/34/14 29/29/14 105/105/14 107/108/14 3/3/14
f 120/124/15 50/50/15 57/57/15 113/117/15
f 3/3/16 64/64/16 78/78/16 6/6/16
f 113/117/17 57/57/17 36/36/17 98/98/17
f 107/108/14 106/107/14 63/63/14 65/65/14 66/66/14 67/67/14 68/68/14 69/69/14 64/64/14 3/3/14
f 5/5/18 85/85/18 92/92/18 4/4/18
f 4/4/19 92/92/19 71/71/19 2/2/19
f 105/105/14 108/109/14 107/108/14
f 108/109/14 109/110/14 107/108/14
f 109/110/14 110/111/14 107/108/14
f 110/111/14 111/113/14 107/108/14
f 111/113/14 112/115/14 107/108/14
f 112/115/14 106/106/14 107/108/14
f 128/132/20 106/107/20 112/116/20 133/137/20
f 133/137/21 112/116/21 111/114/21 132/136/21
f 132/136/22 111/114/22 110/112/22 131/135/22
f 131/135/23 110/112/23 109/110/23 130/134/23
f 130/134/24 109/110/24 108/109/24 129/133/24
f 129/133/25 108/109/25 105/105/25 127/131/25
f 28/28/26 42/42/26 44/44/26 30/30/26
f 30/30/27 44/44/27 45/45/27 31/31/27
f 31/31/28 45/45/28 46/46/28 32/32/28
f 32/32/29 46/46/29 47/47/29 33/33/29
f 33/33/30 47/47/30 48/48/30 34/34/30
f 34/34/31 48/48/31 43/43/31 29/29/31
f 121/125/32 128/132/32 133/137/32 126/130/32
f 126/130/33 133/137/33 132/136/33 125/129/33
f 125/129/34 132/136/34 131/135/34 124/128/34
f 124/128/35 131/135/35 130/134/35 123/127/35
f 123/127/36 130/134/36 129/133/36 122/126/36
f 122/126/37 129/133/37 127/131/37 120/124/37
f 42/42/38 49/49/38 51/51/38 44/44/38
f 44/44/39 51/51/39 52/52/39 45/45/39
f 45/45/40 52/52/40 53/53/40 46/46/40
f 46/46/41 53/53/41 54/54/41 47/47/41
f 47/47/42 54/54/42 55/55/42 48/48/42
f 48/48/43 55/55/43 50/50/43 43/43/43
f 114/118/44 121/125/44 126/130/44 119/123/44
f 119/123/45 126/130/45 125/129/45 118/122/45
f 118/122/46 125/129/46 124/128/46 117/121/46
f 117/121/47 124/128/47 123/127/47 116/120/47
f 116/120/48 123/127/48 122/126/48 115/119/48
f 115/119/49 122/126/49 120/124/49 113/117/49
f 49/49/50 56/56/50 58/58/50 51/51/50
f 51/51/51 58/58/51 59/59/51 52/52/51
f 52/52/52 59/59/52 60/60/52 53/53/52
f 53/53/53 60/60/53 61/61/53 54/54/53
f 54/54/54 61/61/54 62/62/54 55/55/54
f 55/55/55 62/62/55 57/57/55 50/50/55
f 99/99/56 114/118/56 119/123/56 104/104/56
f 104/104/57 119/123/57 118/122/57 103/103/57
f 103/103/58 118/122/58 117/121/58 102/102/58
f 102/102/59 117/121/59 116/120/59 101/101/59
f 101/101/60 116/120/60 115/119/60 100/100/60
f 100/100/61 115/119/61 113/117/61 98/98/61
f 56/56/62 35/35/62 37/37/62 58/58/62
f 58/58/63 37/37/63 38/38/63 59/59/63
f 59/59/64 38/38/64 39/39/64 60/60/64
f 60/60/65 39/39/65 40/40/65 61/61/65
f 61/61/66 40/40/66 41/41/66 62/62/66
f 62/62/67 41/41/67 36/36/67 57/57/67
f 63/63/68 77/77/68 79/79/68 65/65/68
f 65/65/69 79/79/69 80/80/69 66/66/69
f 66/66/70 80/80/70 81/81/70 67/67/70
f 67/67/71 81/81/71 82/82/71 68/68/71
f 68/68/72 82/82/72 83/83/72 69/69/72
f 69/69/73 83/83/73 78/78/73 64/64/73
f 77/77/74 84/84/74 86/86/74 79/79/74
f 79/79/75 86/86/75 87/87/75 80/80/75
f 80/80/76 87/87/76 88/88/76 81/81/76
f 81/81/77 88/88/77 89/89/77 82/82/77
f 82/82/78 89/89/78 90/90/78 83/83/78
f 83/83/79 90/90/79 85/85/79 78/78/79
f 84/84/80 91/91/80 93/93/80 86/86/80
f 86/86/81 93/93/81 94/94/81 87/87/81
f 87/87/82 94/94/82 95/95/82 88/88/82
f 88/88/83 95/95/83 96/96/83 89/89/83
f 89/89/84 96/96/84 97/97/84 90/90/84
f 90/90/85 97/97/85 92/92/85 85/85/85
f 91/91/86 70/70/86 72/72/86 93/93/86
f 93/93/87 72/72/87 73/73/87 94/94/87
f 94/94/88 73/73/88 74/74/88 95/95/88
f 95/95/89 74/74/89 75/75/89 96/96/89
f 96/96/90 75/75/90 76/76/90 97/97/90
f 97/97/91 76/76/91 71/71/91 92/92/91
f 21/21/92 99/99/92 104/104/92 23/23/92
f 23/23/93 104/104/93 103/103/93 24/24/93
f 24/24/94 103/103/94 102/102/94 25/25/94
f 25/25/95 102/102/95 101/101/95 26/26/95
f 26/26/96 101/101/96 100/100/96 27/27/96
f 27/27/97 100/100/97 98/98/97 22/22/97
f 35/35/98 8/8/98 13/13/98 37/37/98
f 37/37/99 13/13/99 12/12/99 38/38/99
f 38/38/100 12/12/100 11/11/100 39/39/100
f 39/39/101 11/11/101 10/10/101 40/40/101
f 40/40/102 10/10/102 9/9/102 41/41/102
f 41/41/103 9/9/103 7/7/103 36/36/103
f 70/70/104 15/15/104 20/20/104 72/72/104
f 72/72/105 20/20/105 19/19/105 73/73/105
f 73/73/106 19/19/106 18/18/106 74/74/106
f 74/74/107 18/18/107 17/17/107 75/75/107
f 75/75/108 17/17/108 16/16/108 76/76/108
f 76/76/109 16/16/109 14/14/109 71/71/109
f 98/98/110 36/36/110 7/7/110 22/22/110
