# Blender 3.2.2
# www.blender.org
o DPadRightArrow
v -52.538418 -29.953129 26.186380
v -52.572853 -30.553183 26.185289
v -52.500553 -30.634289 26.184427
v -52.568699 -30.582870 26.185179
v -52.553497 -30.608711 26.184978
v -52.529568 -30.626766 26.184713
v -52.482979 -29.953398 24.586010
v -52.552979 -29.949434 24.616274
v -52.501297 -29.952318 24.571756
v -52.518314 -29.951332 24.565172
v -52.532852 -29.950500 24.566704
v -52.543934 -29.949881 24.576248
v -52.550797 -29.949518 24.593155
v -52.523849 -29.956821 27.756489
v -52.453304 -29.960924 27.785429
v -52.521244 -29.957012 27.779560
v -52.514069 -29.957455 27.796335
v -52.502811 -29.958118 27.805670
v -52.488243 -29.958958 27.806929
v -52.471355 -29.959913 27.800026
v -50.888046 -30.047918 26.227074
v -50.889088 -30.047653 26.114637
v -50.875271 -30.048622 26.210485
v -50.867317 -30.049044 26.191233
v -50.864735 -30.049152 26.170630
v -50.867699 -30.048946 26.150078
v -50.876007 -30.048435 26.130981
v -52.513241 -30.631069 24.816442
v -52.429688 -30.635798 24.779510
v -52.510639 -30.631168 24.788637
v -52.502449 -30.631601 24.768261
v -52.489223 -30.632339 24.756701
v -52.471863 -30.633331 24.754744
v -52.451561 -30.634512 24.762524
v -52.587410 -30.549492 24.616261
v -52.516636 -30.553499 24.585665
v -52.582798 -30.554615 24.599098
v -52.574348 -30.558149 24.585907
v -52.562626 -30.559856 24.577589
v -52.548443 -30.559616 24.574711
v -52.532753 -30.557447 24.577465
v -52.533485 -30.623960 24.766638
v -52.451050 -30.628626 24.731564
v -52.522099 -30.629246 24.760424
v -52.508469 -30.632936 24.753765
v -52.493530 -30.634779 24.747118
v -52.478294 -30.634645 24.740929
v -52.463810 -30.632547 24.735624
v -52.554611 -30.605963 24.710817
v -52.475586 -30.610437 24.677431
v -52.544636 -30.614056 24.703091
v -52.532166 -30.619497 24.695616
v -52.518047 -30.621910 24.688896
v -52.503239 -30.621134 24.683393
v -52.488758 -30.617220 24.679485
v -52.573513 -30.579817 24.657991
v -52.498714 -30.584051 24.626114
v -52.565311 -30.589565 24.648081
v -52.554287 -30.596025 24.639349
v -52.541187 -30.598757 24.632391
v -52.526909 -30.597574 24.627680
v -52.512424 -30.592560 24.625538
v -52.403641 -30.642403 27.587765
v -52.487865 -30.637506 27.552412
v -52.425190 -30.641199 27.605160
v -52.445351 -30.640057 27.613321
v -52.462742 -30.639055 27.611691
v -52.476181 -30.638264 27.600382
v -52.484749 -30.637735 27.580164
v -52.486969 -30.561022 27.783573
v -52.558300 -30.556875 27.754316
v -52.502937 -30.565010 27.792053
v -52.518570 -30.567192 27.795090
v -52.532806 -30.567417 27.792473
v -52.544674 -30.565674 27.784380
v -52.553375 -30.562077 27.771366
v -52.424107 -30.635460 27.636131
v -52.507179 -30.630630 27.602617
v -52.436939 -30.639360 27.632292
v -52.451523 -30.641436 27.627247
v -52.466873 -30.641539 27.621342
v -52.481930 -30.639668 27.614979
v -52.495678 -30.635946 27.608593
v -52.447632 -30.617527 27.690798
v -52.527264 -30.612900 27.658905
v -52.460842 -30.624300 27.688955
v -52.475399 -30.628197 27.685295
v -52.490303 -30.628946 27.680067
v -52.504543 -30.626501 27.673622
v -52.517155 -30.621027 27.666405
v -52.469807 -30.591381 27.742659
v -52.545189 -30.587002 27.712193
v -52.483501 -30.599894 27.743448
v -52.498024 -30.604898 27.741552
v -52.512390 -30.606060 27.737101
v -52.525616 -30.603296 27.730400
v -52.536800 -30.596796 27.721903
v -50.923790 -30.647694 26.113289
v -50.922745 -30.647959 26.226242
v -50.912437 -30.651199 26.129719
v -50.905220 -30.653425 26.148912
v -50.902626 -30.654217 26.169559
v -50.904839 -30.653522 26.190252
v -50.911697 -30.651388 26.209587
v -51.041164 -30.717911 26.111179
v -51.040062 -30.718189 26.230196
v -51.050888 -30.717461 26.170784
v -51.027317 -30.718737 26.128481
v -51.018524 -30.719280 26.148697
v -51.015388 -30.719498 26.170450
v -51.018120 -30.719381 26.192261
v -51.026535 -30.718935 26.212637
v -50.943325 -30.676022 26.112761
v -50.942265 -30.676289 26.226997
v -50.935539 -30.682663 26.129404
v -50.930561 -30.686857 26.148832
v -50.928734 -30.688322 26.169720
v -50.930176 -30.686958 26.190647
v -50.934792 -30.682854 26.210180
v -50.972691 -30.699303 26.111994
v -50.971615 -30.699575 26.228199
v -50.968391 -30.705664 26.128960
v -50.965607 -30.709684 26.148745
v -50.964523 -30.711090 26.169998
v -50.965214 -30.709784 26.191277
v -50.967628 -30.705856 26.211128
v -51.007191 -30.714003 26.111309
v -51.006096 -30.714281 26.229454
v -51.005646 -30.718052 26.128588
v -51.004589 -30.720617 26.148724
v -51.004089 -30.721529 26.170341
v -51.004189 -30.720720 26.191969
v -51.004871 -30.718248 26.212132
vn -0.9983 0.0573 0.0094
vn 0.1264 -0.9732 -0.1922
vn 0.7038 -0.0417 0.7092
vn 0.6116 -0.4633 0.6413
vn -0.9587 -0.2845 0.0054
vn -0.2844 -0.9587 -0.0004
vn -0.6244 -0.7811 -0.0004
vn -0.8364 -0.5481 0.0006
vn 0.3683 -0.8209 -0.4365
vn 0.1299 -0.9741 0.1852
vn 0.3763 -0.8229 0.4257
vn 0.5180 -0.6478 0.5587
vn -0.6244 -0.7811 0.0083
vn -0.0573 -0.9984 -0.0018
vn 0.5075 -0.6451 -0.5712
vn -0.2844 -0.9587 0.0011
vn 0.5996 -0.4603 -0.6547
vn -0.8363 -0.5481 0.0123
vn -0.9586 -0.2845 0.0111
vn 0.0849 -0.9820 0.1686
vn -0.0167 -0.9975 0.0680
vn -0.1322 -0.9911 0.0125
vn -0.1324 -0.9911 -0.0147
vn -0.0180 -0.9972 -0.0724
vn 0.0818 -0.9812 -0.1747
vn -0.3179 -0.9479 0.0194
vn -0.1353 -0.9899 0.0418
vn 0.0075 -0.9884 0.1517
vn 0.0121 -0.9882 0.1528
vn 0.0284 -0.9992 -0.0291
vn 0.1422 -0.9729 -0.1826
vn 0.3440 -0.8843 0.3156
vn 0.2918 -0.9407 0.1731
vn 0.2629 -0.9634 0.0523
vn 0.2618 -0.9631 -0.0617
vn 0.2885 -0.9399 -0.1829
vn 0.3381 -0.8828 -0.3261
vn -0.5466 -0.8367 -0.0344
vn -0.3684 -0.9260 -0.0821
vn -0.2040 -0.9697 -0.1347
vn -0.0490 -0.9782 -0.2020
vn 0.1059 -0.9518 -0.2879
vn 0.2715 -0.8802 -0.3893
vn 0.5426 -0.7081 0.4519
vn 0.5445 -0.7975 0.2599
vn 0.5402 -0.8377 0.0803
vn 0.5386 -0.8373 -0.0943
vn 0.5395 -0.7962 -0.2737
vn 0.5341 -0.7059 -0.4652
vn -0.7263 -0.6852 -0.0552
vn -0.5297 -0.8338 -0.1557
vn -0.3030 -0.9175 -0.2577
vn -0.0640 -0.9305 -0.3606
vn 0.1730 -0.8719 -0.4581
vn 0.3946 -0.7456 -0.5370
vn 0.6963 -0.4842 0.5298
vn 0.7627 -0.5643 0.3158
vn 0.7920 -0.6024 0.0993
vn 0.7900 -0.6019 -0.1168
vn 0.7567 -0.5628 -0.3325
vn 0.6863 -0.4817 -0.5449
vn -0.8360 -0.5397 -0.0992
vn -0.6572 -0.7068 -0.2617
vn -0.4043 -0.8120 -0.4209
vn -0.1051 -0.8290 -0.5493
vn 0.1926 -0.7555 -0.6262
vn 0.4478 -0.6146 -0.6494
vn 0.1455 -0.9737 0.1753
vn 0.0289 -0.9993 0.0238
vn 0.0093 -0.9874 -0.1577
vn 0.0047 -0.9877 -0.1564
vn -0.1361 -0.9897 -0.0439
vn -0.3182 -0.9479 -0.0180
vn 0.2786 -0.8820 0.3801
vn 0.1112 -0.9531 0.2814
vn -0.0453 -0.9791 0.1982
vn -0.2015 -0.9703 0.1339
vn -0.3668 -0.9264 0.0845
vn -0.5459 -0.8368 0.0406
vn 0.4045 -0.7481 0.5261
vn 0.1815 -0.8740 0.4507
vn -0.0573 -0.9322 0.3574
vn -0.2982 -0.9187 0.2590
vn -0.5267 -0.8345 0.1616
vn -0.7252 -0.6855 0.0655
vn 0.4597 -0.6176 0.6381
vn 0.2042 -0.7584 0.6189
vn -0.0949 -0.8316 0.5473
vn -0.3965 -0.8140 0.4246
vn -0.6523 -0.7081 0.2705
vn -0.8341 -0.5402 0.1121
vn 0.8090 -0.0487 0.5858
vn 0.9307 -0.0576 0.3611
vn 0.9913 -0.0620 0.1162
vn 0.9890 -0.0614 -0.1349
vn 0.9239 -0.0558 -0.3786
vn 0.7980 -0.0459 -0.6009
vn -0.9835 0.0534 -0.1727
vn -0.8884 0.0398 -0.4573
vn -0.6156 0.0171 -0.7879
vn -0.1520 -0.0091 -0.9883
vn 0.2754 -0.0261 -0.9610
vn 0.5478 -0.0333 -0.8360
vn 0.5632 -0.0372 0.8255
vn 0.2932 -0.0306 0.9556
vn -0.1336 -0.0138 0.9909
vn -0.6009 0.0134 0.7992
vn -0.8798 0.0376 0.4739
vn -0.9802 0.0525 0.1911
vn 0.6905 -0.0383 -0.7223
vt 0.500000 0.000000
vt 0.500000 0.000000
vt 0.477538 0.044923
vt 0.500000 0.000000
vt 0.500000 0.000000
vt 0.486134 0.027732
vt 0.000000 0.041160
vt 0.029452 0.000000
vt 0.000335 0.031159
vt 0.001315 0.023145
vt 0.002875 0.004018
vt 0.016564 0.001838
vt 0.022296 0.000467
vt 0.970548 0.000000
vt 0.958840 0.041160
vt 0.977236 0.000467
vt 0.981598 0.001838
vt 0.993106 0.004018
vt 0.975539 0.023145
vt 0.968506 0.031159
vt 0.033696 0.966304
vt 0.000000 0.966304
vt 0.025004 0.974996
vt 0.016960 0.983040
vt 0.000000 1.000000
vt 0.000000 0.983040
vt 0.000000 0.974997
vt 0.067564 0.044923
vt 0.032166 0.094057
vt 0.058438 0.046526
vt 0.050007 0.051222
vt 0.035622 0.049720
vt 0.036670 0.069722
vt 0.033312 0.081399
vt 0.029775 0.000000
vt 0.000000 0.041613
vt 0.024122 0.000734
vt 0.019694 0.001431
vt 0.002817 0.003934
vt 0.001097 0.027428
vt 0.000549 0.033684
vt 0.058468 0.033144
vt 0.023957 0.081612
vt 0.053756 0.040442
vt 0.048616 0.048439
vt 0.028105 0.039251
vt 0.034535 0.067962
vt 0.029009 0.075083
vt 0.046318 0.016651
vt 0.012504 0.064558
vt 0.041562 0.022454
vt 0.036964 0.028198
vt 0.018423 0.025730
vt 0.020587 0.051437
vt 0.016568 0.057896
vt 0.037065 0.007369
vt 0.005497 0.051753
vt 0.031737 0.010699
vt 0.027064 0.013609
vt 0.009219 0.012875
vt 0.010075 0.037571
vt 0.007926 0.044231
vt 0.873777 0.094057
vt 0.887512 0.044923
vt 0.885289 0.081399
vt 0.893607 0.069722
vt 0.914658 0.049720
vt 0.898771 0.051222
vt 0.895036 0.046526
vt 0.958387 0.041613
vt 0.970225 0.000000
vt 0.965766 0.033684
vt 0.971474 0.027428
vt 0.993248 0.003934
vt 0.978875 0.001431
vt 0.975144 0.000734
vt 0.894432 0.081612
vt 0.908388 0.033143
vt 0.895908 0.075083
vt 0.897503 0.067962
vt 0.932644 0.039251
vt 0.902946 0.048439
vt 0.905802 0.040442
vt 0.922939 0.064558
vt 0.937030 0.016651
vt 0.925536 0.057896
vt 0.927977 0.051437
vt 0.955846 0.025730
vt 0.934838 0.028198
vt 0.935984 0.022454
vt 0.942749 0.051753
vt 0.955567 0.007369
vt 0.947843 0.044231
vt 0.952354 0.037571
vt 0.977906 0.012875
vt 0.959327 0.013609
vt 0.957564 0.010699
vt 0.000000 0.966149
vt 0.033851 0.966149
vt 0.000174 0.974381
vt 0.000391 0.982148
vt 0.000863 0.998275
vt 0.017461 0.982148
vt 0.025445 0.974381
vt 0.032166 0.900000
vt 0.065531 0.902244
vt 0.067834 0.900000
vt 0.053010 0.893980
vt 0.033303 0.908092
vt 0.036637 0.913355
vt 0.041941 0.915429
vt 0.032166 0.935668
vt 0.048852 0.914175
vt 0.050008 0.913355
vt 0.056898 0.909677
vt 0.058604 0.908093
vt 0.002657 0.960331
vt 0.037012 0.960331
vt 0.003554 0.967622
vt 0.004471 0.974859
vt 0.004562 0.990875
vt 0.020670 0.974859
vt 0.028824 0.967623
vt 0.006805 0.951282
vt 0.041914 0.951282
vt 0.010475 0.953549
vt 0.014491 0.955657
vt 0.014479 0.971041
vt 0.029851 0.955657
vt 0.035975 0.953549
vt 0.022447 0.919699
vt 0.057854 0.919699
vt 0.028006 0.918626
vt 0.034274 0.917383
vt 0.027274 0.945451
vt 0.048342 0.917383
vt 0.053368 0.918626
s 0
f 2/2/1 71/71/1 14/14/1 1/1/1
f 105/105/2 29/29/2 43/43/2 127/131/2
f 35/35/1 2/2/1 1/1/1 8/8/1
f 70/70/3 99/99/3 21/21/3 15/15/3
f 91/91/4 114/118/4 99/99/4 70/70/4
f 56/56/5 4/4/5 2/2/5 35/35/5
f 28/28/6 3/3/6 6/6/6 42/42/6
f 42/42/7 6/6/7 5/5/7 49/49/7
f 49/49/8 5/5/8 4/4/8 56/56/8
f 127/131/9 43/43/9 50/50/9 120/124/9
f 63/63/10 106/107/10 128/132/10 77/77/10
f 77/77/11 128/132/11 121/125/11 84/84/11
f 84/84/12 121/125/12 114/118/12 91/91/12
f 6/6/13 78/78/13 85/85/13 5/5/13
f 28/28/14 30/30/14 31/31/14 32/32/14 33/33/14 34/34/14 29/29/14 105/105/14 107/108/14 3/3/14
f 120/124/15 50/50/15 57/57/15 113/117/15
f 3/3/16 64/64/16 78/78/16 6/6/16
f 113/117/17 57/57/17 36/36/17 98/98/17
f 107/108/14 106/107/14 63/63/14 65/65/14 66/66/14 67/67/14 68/68/14 69/69/14 64/64/14 3/3/14
f 5/5/18 85/85/18 92/92/18 4/4/18
f 4/4/19 92/92/19 71/71/19 2/2/19
f 105/105/14 108/109/14 107/108/14
f 108/109/14 109/110/14 107/108/14
f 109/110/14 110/111/14 107/108/14
f 110/111/14 111/113/14 107/108/14
f 111/113/14 112/115/14 107/108/14
f 112/115/14 106/106/14 107/108/14
f 128/132/20 106/107/20 112/116/20 133/137/20
f 133/137/21 112/116/21 111/114/21 132/136/21
f 132/136/22 111/114/22 110/112/22 131/135/22
f 131/135/23 110/112/23 109/110/23 130/134/23
f 130/134/24 109/110/24 108/109/24 129/133/24
f 129/133/25 108/109/25 105/105/25 127/131/25
f 28/28/26 42/42/26 44/44/26 30/30/26
f 30/30/27 44/44/27 45/45/27 31/31/27
f 31/31/28 45/45/28 46/46/28 32/32/28
f 32/32/29 46/46/29 47/47/29 33/33/29
f 33/33/30 47/47/30 48/48/30 34/34/30
f 34/34/31 48/48/31 43/43/31 29/29/31
f 121/125/32 128/132/32 133/137/32 126/130/32
f 126/130/33 133/137/33 132/136/33 125/129/33
f 125/129/34 132/136/34 131/135/34 124/128/34
f 124/128/35 131/135/35 130/134/35 123/127/35
f 123/127/36 130/134/36 129/133/36 122/126/36
f 122/126/37 129/133/37 127/131/37 120/124/37
f 42/42/38 49/49/38 51/51/38 44/44/38
f 44/44/39 51/51/39 52/52/39 45/45/39
f 45/45/40 52/52/40 53/53/40 46/46/40
f 46/46/41 53/53/41 54/54/41 47/47/41
f 47/47/42 54/54/42 55/55/42 48/48/42
f 48/48/43 55/55/43 50/50/43 43/43/43
f 114/118/44 121/125/44 126/130/44 119/123/44
f 119/123/45 126/130/45 125/129/45 118/122/45
f 118/122/46 125/129/46 124/128/46 117/121/46
f 117/121/47 124/128/47 123/127/47 116/120/47
f 116/120/48 123/127/48 122/126/48 115/119/48
f 115/119/49 122/126/49 120/124/49 113/117/49
f 49/49/50 56/56/50 58/58/50 51/51/50
f 51/51/51 58/58/51 59/59/51 52/52/51
f 52/52/52 59/59/52 60/60/52 53/53/52
f 53/53/53 60/60/53 61/61/53 54/54/53
f 54/54/54 61/61/54 62/62/54 55/55/54
f 55/55/55 62/62/55 57/57/55 50/50/55
f 99/99/56 114/118/56 119/123/56 104/104/56
f 104/104/57 119/123/57 118/122/57 103/103/57
f 103/103/58 118/122/58 117/121/58 102/102/58
f 102/102/59 117/121/59 116/120/59 101/101/59
f 101/101/60 116/120/60 115/119/60 100/100/60
f 100/100/61 115/119/61 113/117/61 98/98/61
f 56/56/62 35/35/62 37/37/62 58/58/62
f 58/58/63 37/37/63 38/38/63 59/59/63
f 59/59/64 38/38/64 39/39/64 60/60/64
f 60/60/65 39/39/65 40/40/65 61/61/65
f 61/61/66 40/40/66 41/41/66 62/62/66
f 62/62/67 41/41/67 36/36/67 57/57/67
f 63/63/68 77/77/68 79/79/68 65/65/68
f 65/65/69 79/79/69 80/80/69 66/66/69
f 66/66/70 80/80/70 81/81/70 67/67/70
f 67/67/71 81/81/71 82/82/71 68/68/71
f 68/68/72 82/82/72 83/83/72 69/69/72
f 69/69/73 83/83/73 78/78/73 64/64/73
f 77/77/74 84/84/74 86/86/74 79/79/74
f 79/79/75 86/86/75 87/87/75 80/80/75
f 80/80/76 87/87/76 88/88/76 81/81/76
f 81/81/77 88/88/77 89/89/77 82/82/77
f 82/82/78 89/89/78 90/90/78 83/83/78
f 83/83/79 90/90/79 85/85/79 78/78/79
f 84/84/80 91/91/80 93/93/80 86/86/80
f 86/86/81 93/93/81 94/94/81 87/87/81
f 87/87/82 94/94/82 95/95/82 88/88/82
f 88/88/83 95/95/83 96/96/83 89/89/83
f 89/89/84 96/96/84 97/97/84 90/90/84
f 90/90/85 97/97/85 92/92/85 85/85/85
f 91/91/86 70/70/86 72/72/86 93/93/86
f 93/93/87 72/72/87 73/73/87 94/94/87
f 94/94/88 73/73/88 74/74/88 95/95/88
f 95/95/89 74/74/89 75/75/89 96/96/89
f 96/96/90 75/75/90 76/76/90 97/97/90
f 97/97/91 76/76/91 71/71/91 92/92/91
f 21/21/92 99/99/92 104/104/92 23/23/92
f 23/23/93 104/104/93 103/103/93 24/24/93
f 24/24/94 103/103/94 102/102/94 25/25/94
f 25/25/95 102/102/95 101/101/95 26/26/95
f 26/26/96 101/101/96 100/100/96 27/27/96
f 27/27/97 100/100/97 98/98/97 22/22/97
f 35/35/98 8/8/98 13/13/98 37/37/98
f 37/37/99 13/13/99 12/12/99 38/38/99
f 38/38/100 12/12/100 11/11/100 39/39/100
f 39/39/101 11/11/101 10/10/101 40/40/101
f 40/40/102 10/10/102 9/9/102 41/41/102
f 41/41/103 9/9/103 7/7/103 36/36/103
f 70/70/104 15/15/104 20/20/104 72/72/104
f 72/72/105 20/20/105 19/19/105 73/73/105
f 73/73/106 19/19/106 18/18/106 74/74/106
f 74/74/107 18/18/107 17/17/107 75/75/107
f 75/75/108 17/17/108 16/16/108 76/76/108
f 76/76/109 16/16/109 14/14/109 71/71/109
f 98/98/110 36/36/110 7/7/110 22/22/110
