# Blender 3.2.2
# www.blender.org
o ShareSymbol
v -48.097691 -27.512737 55.336929
v -48.064476 -27.497004 55.391949
v -48.011906 -27.487074 55.430882
v -47.947968 -27.484457 55.447815
v -48.101997 -27.616619 55.369236
v -47.952278 -27.588339 55.480125
v -48.016212 -27.590956 55.463192
v -48.068787 -27.600885 55.424255
v -47.882404 -27.489553 55.440166
v -47.776863 -27.557505 55.235756
v -47.825191 -27.501587 55.409096
v -47.785049 -27.518726 55.359341
v -47.768074 -27.538363 55.298470
v -47.781170 -27.661386 55.268063
v -47.886711 -27.593435 55.472477
v -47.772381 -27.642246 55.330784
v -47.789356 -27.622608 55.391647
v -47.829502 -27.605471 55.441410
v -48.527863 -27.815983 54.316818
v -48.480068 -27.872347 54.141972
v -48.520084 -27.855101 54.192081
v -48.536873 -27.835310 54.253479
v -48.532169 -27.919867 54.349133
v -48.541176 -27.939194 54.285786
v -48.524391 -27.958984 54.224388
v -48.484375 -27.976229 54.174278
v -48.207035 -27.860750 54.215645
v -48.422897 -27.884417 54.110779
v -48.240471 -27.876669 54.160007
v -48.293228 -27.886757 54.120541
v -48.357288 -27.889479 54.103252
v -48.427204 -27.988298 54.143089
v -48.211342 -27.964632 54.247952
v -48.361599 -27.993361 54.135563
v -48.297535 -27.990639 54.152851
v -48.244774 -27.980551 54.192314
v -49.258698 -27.387541 55.618519
v -49.248932 -27.368477 55.681118
v -49.214874 -27.352919 55.735676
v -49.161705 -27.343237 55.773895
v -49.263004 -27.491423 55.650829
v -49.166012 -27.447119 55.806202
v -49.219181 -27.456800 55.767986
v -49.253242 -27.472359 55.713425
v -49.097519 -27.340902 55.789951
v -48.919994 -27.395479 55.638138
v -49.032089 -27.346275 55.781403
v -48.975376 -27.358532 55.749546
v -48.936012 -27.375811 55.699242
v -48.924297 -27.499361 55.670444
v -49.101826 -27.444784 55.822258
v -48.940323 -27.479692 55.731548
v -48.979683 -27.462414 55.781860
v -49.036396 -27.450157 55.813709
v -48.994019 -27.893579 54.005203
v -49.171631 -27.838469 54.158726
v -49.059452 -27.888168 54.013882
v -49.116184 -27.875793 54.046108
v -49.155575 -27.858343 54.096970
v -49.175938 -27.942350 54.191032
v -49.159882 -27.962225 54.129280
v -49.120491 -27.979675 54.078419
v -49.063759 -27.992050 54.046196
v -48.832920 -27.846407 54.178345
v -48.842655 -27.865677 54.115093
v -48.876682 -27.881407 54.059978
v -48.929836 -27.891207 54.021389
v -48.998318 -27.997461 54.037514
v -48.837227 -27.950289 54.210651
v -48.934143 -27.995089 54.053703
v -48.880993 -27.985289 54.092289
v -48.846962 -27.969559 54.147404
v -50.289967 -27.501278 55.078190
v -50.302315 -27.481508 55.140106
v -50.288849 -27.462774 55.202129
v -50.251629 -27.447931 55.254810
v -50.200619 -27.543119 55.322449
v -50.294273 -27.605160 55.110497
v -50.255936 -27.551813 55.287121
v -50.293156 -27.566656 55.234436
v -50.306618 -27.585390 55.172417
v -50.196312 -27.439238 55.290138
v -49.975609 -27.475368 55.203392
v -50.131329 -27.438019 55.302727
v -50.066566 -27.444456 55.290661
v -50.011883 -27.457571 55.255779
v -49.979916 -27.579250 55.235699
v -50.016190 -27.561453 55.288086
v -50.070873 -27.548338 55.322968
v -50.135632 -27.541901 55.335033
v -49.613834 -27.861187 54.026741
v -49.835217 -27.824541 54.115067
v -49.678875 -27.862370 54.014275
v -49.743782 -27.855818 54.026684
v -49.798683 -27.842535 54.062073
v -49.839523 -27.928423 54.147377
v -49.618141 -27.965069 54.059052
v -49.802986 -27.946417 54.094387
v -49.748089 -27.959702 54.058990
v -49.683182 -27.966253 54.046585
v -49.520855 -27.798632 54.240269
v -49.508251 -27.818598 54.177746
v -49.521500 -27.837500 54.115215
v -49.558575 -27.852455 54.062187
v -49.525158 -27.902514 54.272579
v -49.562878 -27.956337 54.094498
v -49.525803 -27.941381 54.147522
v -49.512558 -27.922480 54.210056
vn -0.9263 0.1464 0.3471
vn 0.0396 0.9541 -0.2968
vn -0.0396 -0.9541 0.2968
vn 0.9263 -0.1464 -0.3471
vn -0.9976 0.0208 -0.0659
vn 0.9976 -0.0208 0.0659
vn -0.9118 -0.0870 -0.4013
vn -0.0410 -0.9530 0.3002
vn 0.9118 0.0870 0.4013
vn -0.8640 0.1818 0.4695
vn -0.6060 0.2590 0.7521
vn -0.2558 0.2968 0.9200
vn 0.1331 0.2893 0.9479
vn 0.9904 -0.0769 -0.1153
vn 0.9657 0.0397 0.2565
vn 0.7941 0.1503 0.5889
vn 0.5017 0.2379 0.8317
vn -0.1311 -0.2895 -0.9482
vn 0.2605 -0.2966 -0.9188
vn 0.6098 -0.2583 -0.7493
vn 0.8650 -0.1814 -0.4679
vn -0.9901 0.0775 0.1172
vn -0.9670 -0.0383 -0.2520
vn -0.7970 -0.1490 -0.5853
vn -0.5034 -0.2375 -0.8307
vn -0.9883 0.0812 0.1294
vn -0.8565 0.1854 0.4818
vn -0.5943 0.2612 0.7606
vn -0.2419 0.2973 0.9236
vn 0.9694 0.0353 0.2428
vn 0.8029 0.1465 0.5779
vn 0.5141 0.2352 0.8248
vn 0.1473 0.2882 0.9462
vn 0.2438 -0.2972 -0.9231
vn 0.5982 -0.2605 -0.7578
vn 0.8589 -0.1842 -0.4778
vn 0.9886 -0.0806 -0.1275
vn -0.9699 -0.0347 -0.2409
vn -0.8057 -0.1452 -0.5742
vn -0.5183 -0.2343 -0.8225
vn -0.1493 -0.2880 -0.9459
vn -0.9816 -0.0184 -0.1899
vn -0.9783 0.0974 0.1829
vn -0.8260 0.1984 0.5277
vn -0.5481 0.2690 0.7920
vn 0.8353 0.1314 0.5338
vn 0.5618 0.2244 0.7963
vn 0.2028 0.2831 0.9374
vn -0.1869 0.2988 0.9358
vn 0.5498 -0.2688 -0.7909
vn 0.8287 -0.1973 -0.5238
vn 0.9793 -0.0961 -0.1784
vn 0.9813 0.0190 0.1917
vn -0.8364 -0.1309 -0.5322
vn -0.5658 -0.2234 -0.7937
vn -0.2075 -0.2827 -0.9365
vn 0.1849 -0.2988 -0.9362
vn 0.0612 0.9547 -0.2912
vn 0.0385 0.9554 -0.2928
vn 0.0394 0.9553 -0.2929
vn -0.0591 -0.9498 0.3073
vn -0.0379 -0.9534 0.2994
vn -0.0386 -0.9533 0.2995
vn 0.0176 0.9504 -0.3107
vn -0.0190 -0.9556 0.2940
vn -0.0402 -0.9554 0.2927
vn -0.0394 -0.9553 0.2929
vn -0.0419 -0.9530 0.3001
vn -0.0173 -0.9503 0.3108
vn 0.0380 0.9534 -0.2994
vn 0.0588 0.9498 -0.3072
vn 0.0386 0.9533 -0.2995
vt 0.375000 0.969202
vt 0.155798 0.750000
vt 0.375000 0.980988
vt 0.144012 0.740484
vt 0.375000 0.000000
vt 0.375000 1.000000
vt 0.134021 0.713388
vt 0.375000 0.077164
vt 0.127344 0.672836
vt 0.844202 0.750000
vt 0.625000 0.969202
vt 0.872655 0.672836
vt 0.625000 0.077164
vt 0.865979 0.713388
vt 0.625000 1.000000
vt 0.625000 0.000000
vt 0.855988 0.740484
vt 0.625000 0.980988
vt 0.375000 0.125000
vt 0.125000 0.625000
vt 0.375000 0.280798
vt 0.155798 0.500000
vt 0.375000 0.172836
vt 0.127344 0.577164
vt 0.375000 0.250000
vt 0.134021 0.536612
vt 0.375000 0.269012
vt 0.144012 0.509516
vt 0.844202 0.500000
vt 0.625000 0.280798
vt 0.875000 0.625000
vt 0.625000 0.125000
vt 0.855988 0.509516
vt 0.625000 0.269012
vt 0.865979 0.536612
vt 0.625000 0.250000
vt 0.872655 0.577164
vt 0.625000 0.172836
vt 0.375000 0.780798
vt 0.344202 0.750000
vt 0.375000 0.672836
vt 0.372655 0.672836
vt 0.375000 0.750000
vt 0.365979 0.713388
vt 0.375000 0.769012
vt 0.355988 0.740484
vt 0.625000 0.780798
vt 0.655798 0.750000
vt 0.644012 0.740484
vt 0.625000 0.769012
vt 0.625000 0.750000
vt 0.634021 0.713388
vt 0.627344 0.672836
vt 0.625000 0.672836
vt 0.375000 0.469202
vt 0.344202 0.500000
vt 0.375000 0.625000
vt 0.375000 0.480988
vt 0.355988 0.509516
vt 0.375000 0.500000
vt 0.365979 0.536612
vt 0.375000 0.577164
vt 0.372655 0.577164
vt 0.625000 0.625000
vt 0.655798 0.500000
vt 0.625000 0.469202
vt 0.627344 0.577164
vt 0.625000 0.577164
vt 0.634021 0.536612
vt 0.625000 0.500000
vt 0.644012 0.509516
vt 0.625000 0.480988
vt 0.155798 0.750000
vt 0.375000 0.969202
vt 0.375000 0.980988
vt 0.144012 0.740484
vt 0.375000 0.000000
vt 0.134021 0.713388
vt 0.375000 1.000000
vt 0.127344 0.672836
vt 0.375000 0.077164
vt 0.844202 0.750000
vt 0.625000 0.969202
vt 0.872655 0.672836
vt 0.625000 0.077164
vt 0.865979 0.713388
vt 0.625000 1.000000
vt 0.625000 0.000000
vt 0.855988 0.740484
vt 0.625000 0.980988
vt 0.125000 0.625000
vt 0.375000 0.125000
vt 0.155798 0.500000
vt 0.375000 0.280798
vt 0.127344 0.577164
vt 0.375000 0.172836
vt 0.134021 0.536612
vt 0.375000 0.250000
vt 0.144012 0.509516
vt 0.375000 0.269012
vt 0.844202 0.500000
vt 0.625000 0.280798
vt 0.875000 0.625000
vt 0.625000 0.125000
vt 0.855988 0.509516
vt 0.625000 0.269012
vt 0.865979 0.536612
vt 0.625000 0.250000
vt 0.872655 0.577164
vt 0.625000 0.172836
vt 0.375000 0.625000
vt 0.344202 0.750000
vt 0.375000 0.780798
vt 0.372655 0.672836
vt 0.375000 0.672836
vt 0.365979 0.713388
vt 0.375000 0.750000
vt 0.355988 0.740484
vt 0.375000 0.769012
vt 0.625000 0.780798
vt 0.655798 0.750000
vt 0.644012 0.740484
vt 0.625000 0.769012
vt 0.625000 0.750000
vt 0.634021 0.713388
vt 0.627344 0.672836
vt 0.625000 0.672836
vt 0.344202 0.500000
vt 0.375000 0.469202
vt 0.355988 0.509516
vt 0.375000 0.480988
vt 0.365979 0.536612
vt 0.375000 0.500000
vt 0.372655 0.577164
vt 0.375000 0.577164
vt 0.625000 0.625000
vt 0.655798 0.500000
vt 0.625000 0.469202
vt 0.627344 0.577164
vt 0.625000 0.577164
vt 0.634021 0.536612
vt 0.625000 0.500000
vt 0.644012 0.509516
vt 0.625000 0.480988
vt 0.375000 0.969202
vt 0.144012 0.740484
vt 0.375000 0.980988
vt 0.375000 1.000000
vt 0.375000 0.000000
vt 0.134021 0.713388
vt 0.127344 0.672836
vt 0.375000 0.077164
vt 0.875000 0.625000
vt 0.625000 0.125000
vt 0.844202 0.750000
vt 0.625000 0.969202
vt 0.872655 0.672836
vt 0.625000 0.077164
vt 0.865979 0.713388
vt 0.625000 1.000000
vt 0.625000 0.000000
vt 0.855988 0.740484
vt 0.625000 0.980988
vt 0.375000 0.125000
vt 0.155798 0.500000
vt 0.375000 0.280798
vt 0.127344 0.577164
vt 0.375000 0.172836
vt 0.134021 0.536612
vt 0.375000 0.250000
vt 0.144012 0.509516
vt 0.375000 0.269012
vt 0.844202 0.500000
vt 0.625000 0.280798
vt 0.855988 0.509516
vt 0.625000 0.269012
vt 0.865979 0.536612
vt 0.625000 0.250000
vt 0.872655 0.577164
vt 0.625000 0.172836
vt 0.375000 0.625000
vt 0.344202 0.750000
vt 0.375000 0.780798
vt 0.372655 0.672836
vt 0.375000 0.672836
vt 0.365979 0.713388
vt 0.375000 0.750000
vt 0.355988 0.740484
vt 0.375000 0.769012
vt 0.625000 0.780798
vt 0.655798 0.750000
vt 0.625000 0.625000
vt 0.644012 0.740484
vt 0.625000 0.769012
vt 0.634021 0.713388
vt 0.625000 0.750000
vt 0.627344 0.672836
vt 0.625000 0.672836
vt 0.344202 0.500000
vt 0.375000 0.469202
vt 0.355988 0.509516
vt 0.375000 0.480988
vt 0.365979 0.536612
vt 0.375000 0.500000
vt 0.375000 0.577164
vt 0.655798 0.500000
vt 0.625000 0.469202
vt 0.627344 0.577164
vt 0.625000 0.577164
vt 0.634021 0.536612
vt 0.625000 0.500000
vt 0.644012 0.509516
vt 0.625000 0.480988
s 0
f 19/39/1 5/11/1 1/1/1
f 38/76/2 40/80/2 49/99/2
f 7/14/3 5/10/3 14/29/3
f 14/30/4 27/55/4 10/21/4
f 60/120/5 37/74/5 56/113/5
f 43/86/3 41/82/3 50/101/3
f 46/94/6 69/138/6 64/129/6
f 92/183/7 78/156/7 73/145/7
f 78/155/8 98/193/8 87/173/8
f 87/174/9 101/200/9 83/166/9
f 5/11/10 2/3/10 1/1/10
f 8/18/11 3/6/11 2/3/11
f 7/16/12 4/8/12 3/5/12
f 6/13/13 9/19/13 4/8/13
f 10/21/14 16/34/14 14/30/14
f 13/27/15 17/36/15 16/34/15
f 12/25/16 18/38/16 17/36/16
f 11/23/17 15/32/17 18/38/17
f 28/57/18 34/68/18 32/64/18
f 31/62/19 35/70/19 34/68/19
f 30/60/20 36/72/20 35/70/20
f 29/58/21 33/66/21 36/72/21
f 19/39/22 24/50/22 23/47/22
f 24/50/23 21/43/23 25/51/23
f 21/43/24 26/54/24 25/51/24
f 20/41/25 32/64/25 26/54/25
f 37/74/26 44/90/26 38/75/26
f 44/90/27 39/79/27 38/75/27
f 43/88/28 40/81/28 39/77/28
f 42/85/29 45/92/29 40/81/29
f 46/94/30 52/106/30 50/102/30
f 49/100/31 53/108/31 52/106/31
f 48/98/32 54/110/32 53/108/32
f 47/96/33 51/104/33 54/110/33
f 55/111/34 70/140/34 68/136/34
f 67/135/35 71/142/35 70/140/35
f 66/133/36 72/144/36 71/142/36
f 65/131/37 69/138/37 72/144/37
f 56/113/38 61/123/38 60/120/38
f 61/123/39 58/117/39 62/124/39
f 58/117/40 63/127/40 62/124/40
f 57/115/41 68/136/41 63/127/41
f 78/156/42 74/147/42 73/145/42
f 74/147/43 80/160/43 75/148/43
f 80/161/44 76/152/44 75/149/44
f 79/158/45 82/164/45 76/152/45
f 83/166/46 88/176/46 87/174/46
f 86/172/47 89/178/47 88/176/47
f 85/170/48 90/180/48 89/178/48
f 84/168/49 77/154/49 90/180/49
f 91/181/50 106/209/50 97/192/50
f 104/205/51 107/211/51 106/209/51
f 103/204/52 108/213/52 107/211/52
f 102/202/53 105/207/53 108/213/53
f 92/183/54 98/194/54 96/190/54
f 95/189/55 99/196/55 98/194/55
f 94/187/56 100/198/56 99/196/56
f 93/185/57 97/192/57 100/198/57
f 2/4/2 4/9/2 13/28/2
f 19/39/1 23/47/1 5/11/1
f 40/80/2 45/91/2 49/99/2
f 45/91/2 47/95/2 49/99/2
f 47/95/2 48/97/2 49/99/2
f 49/99/58 46/93/58 64/128/58
f 64/128/2 65/130/2 66/132/2
f 66/132/2 67/134/2 58/116/2
f 67/134/2 55/111/2 58/116/2
f 55/111/2 57/114/2 58/116/2
f 58/116/2 59/118/2 56/112/2
f 56/112/59 37/73/59 49/99/59
f 37/73/2 38/76/2 49/99/2
f 38/76/2 39/78/2 40/80/2
f 49/99/60 64/128/60 56/112/60
f 64/128/2 66/132/2 58/116/2
f 58/116/2 56/112/2 64/128/2
f 26/53/3 32/64/3 34/67/3
f 34/67/3 35/69/3 26/53/3
f 35/69/3 36/71/3 26/53/3
f 36/71/61 33/65/61 14/29/61
f 14/29/3 16/33/3 17/35/3
f 17/35/3 18/37/3 15/31/3
f 15/31/3 6/12/3 7/14/3
f 7/14/3 8/17/3 5/10/3
f 5/10/62 23/48/62 36/71/62
f 23/48/3 24/49/3 36/71/3
f 24/49/3 25/52/3 36/71/3
f 25/52/3 26/53/3 36/71/3
f 36/71/63 14/29/63 5/10/63
f 14/29/3 17/35/3 7/14/3
f 17/35/3 15/31/3 7/14/3
f 14/30/4 33/66/4 27/55/4
f 60/120/5 41/83/5 37/74/5
f 84/167/2 85/169/2 86/171/2
f 86/171/64 83/165/64 101/199/64
f 101/199/2 102/201/2 103/203/2
f 91/181/2 93/184/2 94/186/2
f 94/186/2 95/188/2 92/182/2
f 74/146/2 75/150/2 76/151/2
f 63/126/3 68/136/3 70/139/3
f 70/139/3 71/141/3 63/126/3
f 71/141/3 72/143/3 63/126/3
f 72/143/65 69/137/65 50/101/65
f 50/101/3 52/105/3 53/107/3
f 53/107/3 54/109/3 51/103/3
f 51/103/3 42/84/3 43/86/3
f 43/86/3 44/89/3 41/82/3
f 41/82/66 60/121/66 72/143/66
f 60/121/3 61/122/3 72/143/3
f 61/122/3 62/125/3 72/143/3
f 62/125/3 63/126/3 72/143/3
f 72/143/67 50/101/67 41/82/67
f 50/101/3 53/107/3 43/86/3
f 53/107/3 51/103/3 43/86/3
f 46/94/6 50/102/6 69/138/6
f 92/183/7 96/190/7 78/156/7
f 100/197/3 97/192/3 106/208/3
f 106/208/3 107/210/3 100/197/3
f 107/210/3 108/212/3 100/197/3
f 108/212/3 105/206/3 98/193/3
f 105/206/68 87/173/68 98/193/68
f 87/173/3 88/175/3 89/177/3
f 89/177/3 90/179/3 77/153/3
f 77/153/3 79/157/3 80/159/3
f 80/159/3 81/162/3 78/155/3
f 78/155/69 96/191/69 98/193/69
f 98/193/3 99/195/3 108/212/3
f 99/195/3 100/197/3 108/212/3
f 87/173/3 89/177/3 80/159/3
f 89/177/3 77/153/3 80/159/3
f 80/159/3 78/155/3 87/173/3
f 87/174/9 105/207/9 101/200/9
f 5/11/10 8/18/10 2/3/10
f 8/18/11 7/15/11 3/6/11
f 7/16/12 6/13/12 4/8/12
f 6/13/13 15/32/13 9/19/13
f 10/21/14 13/27/14 16/34/14
f 13/27/15 12/25/15 17/36/15
f 12/25/16 11/23/16 18/38/16
f 11/23/17 9/19/17 15/32/17
f 28/57/18 31/62/18 34/68/18
f 31/62/19 30/60/19 35/70/19
f 30/60/20 29/58/20 36/72/20
f 29/58/21 27/55/21 33/66/21
f 19/39/22 22/45/22 24/50/22
f 24/50/23 22/45/23 21/43/23
f 21/43/24 20/41/24 26/54/24
f 20/41/25 28/57/25 32/64/25
f 37/74/26 41/83/26 44/90/26
f 44/90/27 43/87/27 39/79/27
f 43/88/28 42/85/28 40/81/28
f 42/85/29 51/104/29 45/92/29
f 46/94/30 49/100/30 52/106/30
f 49/100/31 48/98/31 53/108/31
f 48/98/32 47/96/32 54/110/32
f 47/96/33 45/92/33 51/104/33
f 55/111/34 67/135/34 70/140/34
f 67/135/35 66/133/35 71/142/35
f 66/133/36 65/131/36 72/144/36
f 65/131/37 64/129/37 69/138/37
f 56/113/38 59/119/38 61/123/38
f 61/123/39 59/119/39 58/117/39
f 58/117/40 57/115/40 63/127/40
f 57/115/41 55/111/41 68/136/41
f 78/156/42 81/163/42 74/147/42
f 74/147/43 81/163/43 80/160/43
f 80/161/44 79/158/44 76/152/44
f 79/158/45 77/154/45 82/164/45
f 83/166/46 86/172/46 88/176/46
f 86/172/47 85/170/47 89/178/47
f 85/170/48 84/168/48 90/180/48
f 84/168/49 82/164/49 77/154/49
f 91/181/50 104/205/50 106/209/50
f 104/205/51 103/204/51 107/211/51
f 103/204/52 102/202/52 108/213/52
f 102/202/53 101/200/53 105/207/53
f 92/183/54 95/189/54 98/194/54
f 95/189/55 94/187/55 99/196/55
f 94/187/56 93/185/56 100/198/56
f 93/185/57 91/181/57 97/192/57
f 4/9/2 9/20/2 13/28/2
f 9/20/2 11/24/2 13/28/2
f 11/24/2 12/26/2 13/28/2
f 13/28/2 10/22/2 2/4/2
f 10/22/70 27/56/70 2/4/70
f 27/56/2 29/59/2 30/61/2
f 30/61/2 31/63/2 28/57/2
f 28/57/2 20/42/2 30/61/2
f 20/42/2 21/44/2 30/61/2
f 21/44/2 22/46/2 19/40/2
f 19/40/71 1/2/71 2/4/71
f 2/4/2 3/7/2 4/9/2
f 27/56/2 30/61/2 21/44/2
f 21/44/2 19/40/2 27/56/2
f 19/40/72 2/4/72 27/56/72
